<?xml version="1.0" encoding="UTF-8" standalone="no"?>
<!DOCTYPE svg PUBLIC "-//W3C//DTD SVG 1.1//EN"
 "http://www.w3.org/Graphics/SVG/1.1/DTD/svg11.dtd">
<!-- Generated by graphviz version 2.43.0 (0)
 -->
<!-- Title: Solvers/ID/AlreadyConflictedBeforeSet.h Pages: 1 -->
<svg width="163pt" height="151pt"
 viewBox="0.00 0.00 163.00 151.00" xmlns="http://www.w3.org/2000/svg" xmlns:xlink="http://www.w3.org/1999/xlink">
<g id="graph0" class="graph" transform="scale(1 1) rotate(0) translate(4 147)">
<title>Solvers/ID/AlreadyConflictedBeforeSet.h</title>
<polygon fill="white" stroke="transparent" points="-4,4 -4,-147 159,-147 159,4 -4,4"/>
<!-- Node1 -->
<g id="node1" class="node">
<title>Node1</title>
<g id="a_node1"><a xlink:title=" ">
<polygon fill="#bfbfbf" stroke="black" points="0,-112.5 0,-142.5 155,-142.5 155,-112.5 0,-112.5"/>
<text text-anchor="start" x="8" y="-130.5" font-family="Helvetica,sans-Serif" font-size="10.00">Solvers/ID/AlreadyConflicted</text>
<text text-anchor="middle" x="77.5" y="-119.5" font-family="Helvetica,sans-Serif" font-size="10.00">BeforeSet.h</text>
</a>
</g>
</g>
<!-- Node2 -->
<g id="node2" class="node">
<title>Node2</title>
<g id="a_node2"><a xlink:href="Group_8h.html" target="_top" xlink:title=" ">
<polygon fill="white" stroke="black" points="50,-56.5 50,-75.5 105,-75.5 105,-56.5 50,-56.5"/>
<text text-anchor="middle" x="77.5" y="-63.5" font-family="Helvetica,sans-Serif" font-size="10.00">Group.h</text>
</a>
</g>
</g>
<!-- Node1&#45;&gt;Node2 -->
<g id="edge1" class="edge">
<title>Node1&#45;&gt;Node2</title>
<path fill="none" stroke="midnightblue" d="M77.5,-112.4C77.5,-104.47 77.5,-94.46 77.5,-85.86"/>
<polygon fill="midnightblue" stroke="midnightblue" points="81,-85.66 77.5,-75.66 74,-85.66 81,-85.66"/>
</g>
<!-- Node3 -->
<g id="node3" class="node">
<title>Node3</title>
<g id="a_node3"><a xlink:href="Solution_8h.html" target="_top" xlink:title=" ">
<polygon fill="white" stroke="red" points="14.5,-0.5 14.5,-19.5 140.5,-19.5 140.5,-0.5 14.5,-0.5"/>
<text text-anchor="middle" x="77.5" y="-7.5" font-family="Helvetica,sans-Serif" font-size="10.00">../../Solution/Solution.h</text>
</a>
</g>
</g>
<!-- Node2&#45;&gt;Node3 -->
<g id="edge2" class="edge">
<title>Node2&#45;&gt;Node3</title>
<path fill="none" stroke="midnightblue" d="M77.5,-56.08C77.5,-49.01 77.5,-38.86 77.5,-29.99"/>
<polygon fill="midnightblue" stroke="midnightblue" points="81,-29.75 77.5,-19.75 74,-29.75 81,-29.75"/>
</g>
</g>
</svg>
