<?xml version="1.0" encoding="UTF-8" standalone="no"?>
<!DOCTYPE svg PUBLIC "-//W3C//DTD SVG 1.1//EN"
 "http://www.w3.org/Graphics/SVG/1.1/DTD/svg11.dtd">
<!-- Generated by graphviz version 2.43.0 (0)
 -->
<!-- Title: AStarProblems/AStarProblem.h Pages: 1 -->
<svg width="1372pt" height="229pt"
 viewBox="0.00 0.00 1372.00 229.00" xmlns="http://www.w3.org/2000/svg" xmlns:xlink="http://www.w3.org/1999/xlink">
<g id="graph0" class="graph" transform="scale(1 1) rotate(0) translate(4 225)">
<title>AStarProblems/AStarProblem.h</title>
<polygon fill="white" stroke="transparent" points="-4,4 -4,-225 1368,-225 1368,4 -4,4"/>
<!-- Node1 -->
<g id="node1" class="node">
<title>Node1</title>
<g id="a_node1"><a xlink:title=" ">
<polygon fill="#bfbfbf" stroke="black" points="587.5,-201.5 587.5,-220.5 754.5,-220.5 754.5,-201.5 587.5,-201.5"/>
<text text-anchor="middle" x="671" y="-208.5" font-family="Helvetica,sans-Serif" font-size="10.00">AStarProblems/AStarProblem.h</text>
</a>
</g>
</g>
<!-- Node2 -->
<g id="node2" class="node">
<title>Node2</title>
<g id="a_node2"><a xlink:href="ODMultiAgentAStarProblem_8h.html" target="_top" xlink:title=" ">
<polygon fill="white" stroke="black" points="52,-134.5 52,-164.5 212,-164.5 212,-134.5 52,-134.5"/>
<text text-anchor="start" x="60" y="-152.5" font-family="Helvetica,sans-Serif" font-size="10.00">AStarProblems/ODMultiAgent</text>
<text text-anchor="middle" x="132" y="-141.5" font-family="Helvetica,sans-Serif" font-size="10.00">AStarProblem.h</text>
</a>
</g>
</g>
<!-- Node1&#45;&gt;Node2 -->
<g id="edge1" class="edge">
<title>Node1&#45;&gt;Node2</title>
<path fill="none" stroke="midnightblue" d="M577.44,-202.34C486.28,-194.48 343.87,-181.14 221,-165 218.05,-164.61 215.05,-164.2 212.02,-163.78"/>
<polygon fill="midnightblue" stroke="midnightblue" points="577.21,-205.84 587.47,-203.2 577.81,-198.86 577.21,-205.84"/>
</g>
<!-- Node17 -->
<g id="node6" class="node">
<title>Node17</title>
<g id="a_node6"><a xlink:href="ODMultiAgentAStarProblemWithConstraints_8h.html" target="_top" xlink:title=" ">
<polygon fill="white" stroke="black" points="398,-134.5 398,-164.5 568,-164.5 568,-134.5 398,-134.5"/>
<text text-anchor="start" x="406" y="-152.5" font-family="Helvetica,sans-Serif" font-size="10.00">AStarProblems/ODMultiAgent</text>
<text text-anchor="middle" x="483" y="-141.5" font-family="Helvetica,sans-Serif" font-size="10.00">AStarProblemWithConstraints.h</text>
</a>
</g>
</g>
<!-- Node1&#45;&gt;Node17 -->
<g id="edge5" class="edge">
<title>Node1&#45;&gt;Node17</title>
<path fill="none" stroke="midnightblue" d="M634.21,-198.36C603.58,-188.66 559.86,-174.83 527.31,-164.52"/>
<polygon fill="midnightblue" stroke="midnightblue" points="633.47,-201.79 644.06,-201.48 635.59,-195.12 633.47,-201.79"/>
</g>
<!-- Node19 -->
<g id="node8" class="node">
<title>Node19</title>
<g id="a_node8"><a xlink:href="SingleAgentAStarProblem_8h.html" target="_top" xlink:title=" ">
<polygon fill="white" stroke="black" points="230,-134.5 230,-164.5 380,-164.5 380,-134.5 230,-134.5"/>
<text text-anchor="start" x="238" y="-152.5" font-family="Helvetica,sans-Serif" font-size="10.00">AStarProblems/SingleAgent</text>
<text text-anchor="middle" x="305" y="-141.5" font-family="Helvetica,sans-Serif" font-size="10.00">AStarProblem.h</text>
</a>
</g>
</g>
<!-- Node1&#45;&gt;Node19 -->
<g id="edge8" class="edge">
<title>Node1&#45;&gt;Node19</title>
<path fill="none" stroke="midnightblue" d="M606.4,-199.93C549.21,-190.96 463.51,-177.38 389,-165 386.08,-164.52 383.1,-164.02 380.1,-163.51"/>
<polygon fill="midnightblue" stroke="midnightblue" points="605.96,-203.4 616.38,-201.49 607.04,-196.49 605.96,-203.4"/>
</g>
<!-- Node21 -->
<g id="node10" class="node">
<title>Node21</title>
<g id="a_node10"><a xlink:href="SingleAgentAStarProblemWithConstraints_8h.html" target="_top" xlink:title=" ">
<polygon fill="white" stroke="black" points="586,-134.5 586,-164.5 756,-164.5 756,-134.5 586,-134.5"/>
<text text-anchor="start" x="594" y="-152.5" font-family="Helvetica,sans-Serif" font-size="10.00">AStarProblems/SingleAgent</text>
<text text-anchor="middle" x="671" y="-141.5" font-family="Helvetica,sans-Serif" font-size="10.00">AStarProblemWithConstraints.h</text>
</a>
</g>
</g>
<!-- Node1&#45;&gt;Node21 -->
<g id="edge12" class="edge">
<title>Node1&#45;&gt;Node21</title>
<path fill="none" stroke="midnightblue" d="M671,-191.23C671,-182.59 671,-172.5 671,-164.52"/>
<polygon fill="midnightblue" stroke="midnightblue" points="667.5,-191.48 671,-201.48 674.5,-191.48 667.5,-191.48"/>
</g>
<!-- Node23 -->
<g id="node12" class="node">
<title>Node23</title>
<g id="a_node12"><a xlink:href="StandardMultiAgentAStarProblem_8h.html" target="_top" xlink:title=" ">
<polygon fill="white" stroke="black" points="774,-134.5 774,-164.5 934,-164.5 934,-134.5 774,-134.5"/>
<text text-anchor="start" x="782" y="-152.5" font-family="Helvetica,sans-Serif" font-size="10.00">AStarProblems/StandardMulti</text>
<text text-anchor="middle" x="854" y="-141.5" font-family="Helvetica,sans-Serif" font-size="10.00">AgentAStarProblem.h</text>
</a>
</g>
</g>
<!-- Node1&#45;&gt;Node23 -->
<g id="edge15" class="edge">
<title>Node1&#45;&gt;Node23</title>
<path fill="none" stroke="midnightblue" d="M706.81,-198.36C736.63,-188.66 779.18,-174.83 810.87,-164.52"/>
<polygon fill="midnightblue" stroke="midnightblue" points="705.65,-195.05 697.22,-201.48 707.81,-201.71 705.65,-195.05"/>
</g>
<!-- Node25 -->
<g id="node14" class="node">
<title>Node25</title>
<g id="a_node14"><a xlink:href="StandardMultiAgentAStarProblemWithConstraints_8h.html" target="_top" xlink:title=" ">
<polygon fill="white" stroke="black" points="952.5,-134.5 952.5,-164.5 1151.5,-164.5 1151.5,-134.5 952.5,-134.5"/>
<text text-anchor="start" x="960.5" y="-152.5" font-family="Helvetica,sans-Serif" font-size="10.00">AStarProblems/StandardMulti</text>
<text text-anchor="middle" x="1052" y="-141.5" font-family="Helvetica,sans-Serif" font-size="10.00">AgentAStarProblemWithConstraints.h</text>
</a>
</g>
</g>
<!-- Node1&#45;&gt;Node25 -->
<g id="edge18" class="edge">
<title>Node1&#45;&gt;Node25</title>
<path fill="none" stroke="midnightblue" d="M735.68,-199.9C797.94,-190.18 892.64,-175.39 962.21,-164.52"/>
<polygon fill="midnightblue" stroke="midnightblue" points="734.93,-196.47 725.59,-201.48 736.01,-203.39 734.93,-196.47"/>
</g>
<!-- Node6 -->
<g id="node16" class="node">
<title>Node6</title>
<g id="a_node16"><a xlink:href="AStar_8h.html" target="_top" xlink:title=" ">
<polygon fill="white" stroke="red" points="1169.5,-140 1169.5,-159 1288.5,-159 1288.5,-140 1169.5,-140"/>
<text text-anchor="middle" x="1229" y="-147" font-family="Helvetica,sans-Serif" font-size="10.00">Solvers/AStar/AStar.h</text>
</a>
</g>
</g>
<!-- Node1&#45;&gt;Node6 -->
<g id="edge21" class="edge">
<title>Node1&#45;&gt;Node6</title>
<path fill="none" stroke="midnightblue" d="M764.87,-204.7C863.79,-198.33 1023.96,-185.83 1161,-165 1171.38,-163.42 1182.56,-161.24 1192.8,-159.05"/>
<polygon fill="midnightblue" stroke="midnightblue" points="764.35,-201.22 754.6,-205.35 764.8,-208.21 764.35,-201.22"/>
</g>
<!-- Node3 -->
<g id="node3" class="node">
<title>Node3</title>
<g id="a_node3"><a xlink:href="ODMultiAgentAStarProblem_8cpp.html" target="_top" xlink:title=" ">
<polygon fill="white" stroke="black" points="0,-67.5 0,-97.5 160,-97.5 160,-67.5 0,-67.5"/>
<text text-anchor="start" x="8" y="-85.5" font-family="Helvetica,sans-Serif" font-size="10.00">AStarProblems/ODMultiAgent</text>
<text text-anchor="middle" x="80" y="-74.5" font-family="Helvetica,sans-Serif" font-size="10.00">AStarProblem.cpp</text>
</a>
</g>
</g>
<!-- Node2&#45;&gt;Node3 -->
<g id="edge2" class="edge">
<title>Node2&#45;&gt;Node3</title>
<path fill="none" stroke="midnightblue" d="M114.36,-126.45C106.72,-116.9 98,-106 91.26,-97.58"/>
<polygon fill="midnightblue" stroke="midnightblue" points="111.74,-128.77 120.72,-134.4 117.2,-124.4 111.74,-128.77"/>
</g>
<!-- Node4 -->
<g id="node4" class="node">
<title>Node4</title>
<g id="a_node4"><a xlink:href="HeuristicManhattan_8h.html" target="_top" xlink:title=" ">
<polygon fill="white" stroke="red" points="584.5,-73 584.5,-92 757.5,-92 757.5,-73 584.5,-73"/>
<text text-anchor="middle" x="671" y="-80" font-family="Helvetica,sans-Serif" font-size="10.00">Heuristics/HeuristicManhattan.h</text>
</a>
</g>
</g>
<!-- Node2&#45;&gt;Node4 -->
<g id="edge3" class="edge">
<title>Node2&#45;&gt;Node4</title>
<path fill="none" stroke="midnightblue" d="M222.06,-133.91C379.48,-113.45 421.32,-117.41 575,-98 588.88,-96.25 603.85,-94.11 617.75,-92.01"/>
<polygon fill="midnightblue" stroke="midnightblue" points="221.48,-130.46 212.02,-135.23 222.39,-137.4 221.48,-130.46"/>
</g>
<!-- Node15 -->
<g id="node5" class="node">
<title>Node15</title>
<g id="a_node5"><a xlink:href="ReverseResumableAStar_8h.html" target="_top" xlink:title=" ">
<polygon fill="white" stroke="red" points="339.5,-0.5 339.5,-30.5 518.5,-30.5 518.5,-0.5 339.5,-0.5"/>
<text text-anchor="start" x="347.5" y="-18.5" font-family="Helvetica,sans-Serif" font-size="10.00">Solvers/AStar/ReverseResumable</text>
<text text-anchor="middle" x="429" y="-7.5" font-family="Helvetica,sans-Serif" font-size="10.00">AStar.h</text>
</a>
</g>
</g>
<!-- Node4&#45;&gt;Node15 -->
<g id="edge4" class="edge">
<title>Node4&#45;&gt;Node15</title>
<path fill="none" stroke="midnightblue" d="M629.44,-70.34C588.47,-59.33 525.7,-42.47 481.34,-30.56"/>
<polygon fill="midnightblue" stroke="midnightblue" points="628.55,-73.72 639.11,-72.94 630.36,-66.96 628.55,-73.72"/>
</g>
<!-- Node17&#45;&gt;Node4 -->
<g id="edge7" class="edge">
<title>Node17&#45;&gt;Node4</title>
<path fill="none" stroke="midnightblue" d="M533.3,-131.11C569.88,-118.46 617.8,-101.89 646.4,-92.01"/>
<polygon fill="midnightblue" stroke="midnightblue" points="532.1,-127.82 523.79,-134.4 534.39,-134.44 532.1,-127.82"/>
</g>
<!-- Node18 -->
<g id="node7" class="node">
<title>Node18</title>
<g id="a_node7"><a xlink:href="ODMultiAgentAStarProblemWithConstraints_8cpp.html" target="_top" xlink:title=" ">
<polygon fill="white" stroke="black" points="384,-67.5 384,-97.5 566,-97.5 566,-67.5 384,-67.5"/>
<text text-anchor="start" x="392" y="-85.5" font-family="Helvetica,sans-Serif" font-size="10.00">AStarProblems/ODMultiAgent</text>
<text text-anchor="middle" x="475" y="-74.5" font-family="Helvetica,sans-Serif" font-size="10.00">AStarProblemWithConstraints.cpp</text>
</a>
</g>
</g>
<!-- Node17&#45;&gt;Node18 -->
<g id="edge6" class="edge">
<title>Node17&#45;&gt;Node18</title>
<path fill="none" stroke="midnightblue" d="M480.03,-124.4C478.92,-115.37 477.7,-105.41 476.73,-97.58"/>
<polygon fill="midnightblue" stroke="midnightblue" points="476.57,-124.9 481.26,-134.4 483.52,-124.04 476.57,-124.9"/>
</g>
<!-- Node19&#45;&gt;Node4 -->
<g id="edge10" class="edge">
<title>Node19&#45;&gt;Node4</title>
<path fill="none" stroke="midnightblue" d="M390.41,-133.33C462.83,-120.47 564.07,-102.49 623.07,-92.01"/>
<polygon fill="midnightblue" stroke="midnightblue" points="389.63,-129.92 380.39,-135.11 390.85,-136.81 389.63,-129.92"/>
</g>
<!-- Node19&#45;&gt;Node15 -->
<g id="edge11" class="edge">
<title>Node19&#45;&gt;Node15</title>
<path fill="none" stroke="midnightblue" d="M244.57,-130.11C229.75,-122.59 215.66,-112.21 207,-98 199.83,-86.24 198.41,-77.77 207,-67 223.77,-45.99 285.37,-33.05 339.44,-25.54"/>
<polygon fill="midnightblue" stroke="midnightblue" points="243.31,-133.38 253.85,-134.43 246.26,-127.04 243.31,-133.38"/>
</g>
<!-- Node20 -->
<g id="node9" class="node">
<title>Node20</title>
<g id="a_node9"><a xlink:href="SingleAgentAStarProblem_8cpp.html" target="_top" xlink:title=" ">
<polygon fill="white" stroke="black" points="216,-67.5 216,-97.5 366,-97.5 366,-67.5 216,-67.5"/>
<text text-anchor="start" x="224" y="-85.5" font-family="Helvetica,sans-Serif" font-size="10.00">AStarProblems/SingleAgent</text>
<text text-anchor="middle" x="291" y="-74.5" font-family="Helvetica,sans-Serif" font-size="10.00">AStarProblem.cpp</text>
</a>
</g>
</g>
<!-- Node19&#45;&gt;Node20 -->
<g id="edge9" class="edge">
<title>Node19&#45;&gt;Node20</title>
<path fill="none" stroke="midnightblue" d="M299.81,-124.4C297.86,-115.37 295.72,-105.41 294.03,-97.58"/>
<polygon fill="midnightblue" stroke="midnightblue" points="296.44,-125.36 301.96,-134.4 303.28,-123.88 296.44,-125.36"/>
</g>
<!-- Node21&#45;&gt;Node4 -->
<g id="edge14" class="edge">
<title>Node21&#45;&gt;Node4</title>
<path fill="none" stroke="midnightblue" d="M671,-124.25C671,-113.02 671,-100.38 671,-92.19"/>
<polygon fill="midnightblue" stroke="midnightblue" points="667.5,-124.4 671,-134.4 674.5,-124.4 667.5,-124.4"/>
</g>
<!-- Node22 -->
<g id="node11" class="node">
<title>Node22</title>
<g id="a_node11"><a xlink:href="SingleAgentAStarProblemWithConstraints_8cpp.html" target="_top" xlink:title=" ">
<polygon fill="white" stroke="black" points="776,-67.5 776,-97.5 958,-97.5 958,-67.5 776,-67.5"/>
<text text-anchor="start" x="784" y="-85.5" font-family="Helvetica,sans-Serif" font-size="10.00">AStarProblems/SingleAgent</text>
<text text-anchor="middle" x="867" y="-74.5" font-family="Helvetica,sans-Serif" font-size="10.00">AStarProblemWithConstraints.cpp</text>
</a>
</g>
</g>
<!-- Node21&#45;&gt;Node22 -->
<g id="edge13" class="edge">
<title>Node21&#45;&gt;Node22</title>
<path fill="none" stroke="midnightblue" d="M723.08,-131.23C754.79,-120.71 794.78,-107.45 824.55,-97.58"/>
<polygon fill="midnightblue" stroke="midnightblue" points="721.92,-127.93 713.53,-134.4 724.12,-134.57 721.92,-127.93"/>
</g>
<!-- Node23&#45;&gt;Node4 -->
<g id="edge17" class="edge">
<title>Node23&#45;&gt;Node4</title>
<path fill="none" stroke="midnightblue" d="M804.58,-130.95C769.04,-118.32 722.66,-101.85 694.95,-92.01"/>
<polygon fill="midnightblue" stroke="midnightblue" points="803.7,-134.35 814.29,-134.4 806.04,-127.75 803.7,-134.35"/>
</g>
<!-- Node24 -->
<g id="node13" class="node">
<title>Node24</title>
<g id="a_node13"><a xlink:href="StandardMultiAgentAStarProblem_8cpp.html" target="_top" xlink:title=" ">
<polygon fill="white" stroke="black" points="976,-67.5 976,-97.5 1136,-97.5 1136,-67.5 976,-67.5"/>
<text text-anchor="start" x="984" y="-85.5" font-family="Helvetica,sans-Serif" font-size="10.00">AStarProblems/StandardMulti</text>
<text text-anchor="middle" x="1056" y="-74.5" font-family="Helvetica,sans-Serif" font-size="10.00">AgentAStarProblem.cpp</text>
</a>
</g>
</g>
<!-- Node23&#45;&gt;Node24 -->
<g id="edge16" class="edge">
<title>Node23&#45;&gt;Node24</title>
<path fill="none" stroke="midnightblue" d="M907.68,-131.23C940.35,-120.71 981.57,-107.45 1012.25,-97.58"/>
<polygon fill="midnightblue" stroke="midnightblue" points="906.28,-128 897.83,-134.4 908.42,-134.66 906.28,-128"/>
</g>
<!-- Node25&#45;&gt;Node4 -->
<g id="edge20" class="edge">
<title>Node25&#45;&gt;Node4</title>
<path fill="none" stroke="midnightblue" d="M959.86,-132.78C884.75,-119.97 781.54,-102.36 720.99,-92.03"/>
<polygon fill="midnightblue" stroke="midnightblue" points="959.35,-136.24 969.8,-134.48 960.53,-129.34 959.35,-136.24"/>
</g>
<!-- Node26 -->
<g id="node15" class="node">
<title>Node26</title>
<g id="a_node15"><a xlink:href="StandardMultiAgentAStarProblemWithConstraints_8cpp.html" target="_top" xlink:title=" ">
<polygon fill="white" stroke="black" points="1154,-67.5 1154,-97.5 1364,-97.5 1364,-67.5 1154,-67.5"/>
<text text-anchor="start" x="1162" y="-85.5" font-family="Helvetica,sans-Serif" font-size="10.00">AStarProblems/StandardMulti</text>
<text text-anchor="middle" x="1259" y="-74.5" font-family="Helvetica,sans-Serif" font-size="10.00">AgentAStarProblemWithConstraints.cpp</text>
</a>
</g>
</g>
<!-- Node25&#45;&gt;Node26 -->
<g id="edge19" class="edge">
<title>Node25&#45;&gt;Node26</title>
<path fill="none" stroke="midnightblue" d="M1106.32,-131.44C1139.87,-120.91 1182.41,-107.55 1214.06,-97.61"/>
<polygon fill="midnightblue" stroke="midnightblue" points="1105.15,-128.14 1096.66,-134.48 1107.25,-134.82 1105.15,-128.14"/>
</g>
</g>
</svg>
