<?xml version="1.0" encoding="UTF-8" standalone="no"?>
<!DOCTYPE svg PUBLIC "-//W3C//DTD SVG 1.1//EN"
 "http://www.w3.org/Graphics/SVG/1.1/DTD/svg11.dtd">
<!-- Generated by graphviz version 2.43.0 (0)
 -->
<!-- Title: Solvers/AStar/AStar.h Pages: 1 -->
<svg width="451pt" height="229pt"
 viewBox="0.00 0.00 451.00 229.00" xmlns="http://www.w3.org/2000/svg" xmlns:xlink="http://www.w3.org/1999/xlink">
<g id="graph0" class="graph" transform="scale(1 1) rotate(0) translate(4 225)">
<title>Solvers/AStar/AStar.h</title>
<polygon fill="white" stroke="transparent" points="-4,4 -4,-225 447,-225 447,4 -4,4"/>
<!-- Node1 -->
<g id="node1" class="node">
<title>Node1</title>
<g id="a_node1"><a xlink:title=" ">
<polygon fill="#bfbfbf" stroke="black" points="159.5,-201.5 159.5,-220.5 278.5,-220.5 278.5,-201.5 159.5,-201.5"/>
<text text-anchor="middle" x="219" y="-208.5" font-family="Helvetica,sans-Serif" font-size="10.00">Solvers/AStar/AStar.h</text>
</a>
</g>
</g>
<!-- Node2 -->
<g id="node2" class="node">
<title>Node2</title>
<g id="a_node2"><a xlink:href="AStarProblem_8h.html" target="_top" xlink:title=" ">
<polygon fill="white" stroke="black" points="28.5,-134.5 28.5,-164.5 135.5,-164.5 135.5,-134.5 28.5,-134.5"/>
<text text-anchor="start" x="36.5" y="-152.5" font-family="Helvetica,sans-Serif" font-size="10.00">../../AStarProblems</text>
<text text-anchor="middle" x="82" y="-141.5" font-family="Helvetica,sans-Serif" font-size="10.00">/AStarProblem.h</text>
</a>
</g>
</g>
<!-- Node1&#45;&gt;Node2 -->
<g id="edge1" class="edge">
<title>Node1&#45;&gt;Node2</title>
<path fill="none" stroke="midnightblue" d="M199.37,-201.48C179.69,-192.93 148.78,-179.5 123.61,-168.57"/>
<polygon fill="midnightblue" stroke="midnightblue" points="124.85,-165.3 114.29,-164.52 122.07,-171.72 124.85,-165.3"/>
</g>
<!-- Node3 -->
<g id="node3" class="node">
<title>Node3</title>
<g id="a_node3"><a xlink:href="HeuristicOptimal_8h.html" target="_top" xlink:title=" ">
<polygon fill="white" stroke="black" points="154,-134.5 154,-164.5 284,-164.5 284,-134.5 154,-134.5"/>
<text text-anchor="start" x="162" y="-152.5" font-family="Helvetica,sans-Serif" font-size="10.00">../../Heuristics/Heuristic</text>
<text text-anchor="middle" x="219" y="-141.5" font-family="Helvetica,sans-Serif" font-size="10.00">Optimal.h</text>
</a>
</g>
</g>
<!-- Node1&#45;&gt;Node3 -->
<g id="edge2" class="edge">
<title>Node1&#45;&gt;Node3</title>
<path fill="none" stroke="midnightblue" d="M219,-201.48C219,-194.47 219,-184.19 219,-174.7"/>
<polygon fill="midnightblue" stroke="midnightblue" points="222.5,-174.52 219,-164.52 215.5,-174.52 222.5,-174.52"/>
</g>
<!-- Node27 -->
<g id="node7" class="node">
<title>Node27</title>
<g id="a_node7"><a xlink:href="Solution_8h.html" target="_top" xlink:title=" ">
<polygon fill="white" stroke="black" points="317,-140 317,-159 443,-159 443,-140 317,-140"/>
<text text-anchor="middle" x="380" y="-147" font-family="Helvetica,sans-Serif" font-size="10.00">../../Solution/Solution.h</text>
</a>
</g>
</g>
<!-- Node1&#45;&gt;Node27 -->
<g id="edge7" class="edge">
<title>Node1&#45;&gt;Node27</title>
<path fill="none" stroke="midnightblue" d="M242.07,-201.48C269.68,-191.27 316.12,-174.11 347.4,-162.55"/>
<polygon fill="midnightblue" stroke="midnightblue" points="348.81,-165.76 356.98,-159.01 346.38,-159.19 348.81,-165.76"/>
</g>
<!-- Node4 -->
<g id="node4" class="node">
<title>Node4</title>
<g id="a_node4"><a xlink:href="Graph_8h.html" target="_top" xlink:title=" ">
<polygon fill="white" stroke="black" points="0,-73 0,-92 126,-92 126,-73 0,-73"/>
<text text-anchor="middle" x="63" y="-80" font-family="Helvetica,sans-Serif" font-size="10.00">../GraphParser/Graph.h</text>
</a>
</g>
</g>
<!-- Node3&#45;&gt;Node4 -->
<g id="edge3" class="edge">
<title>Node3&#45;&gt;Node4</title>
<path fill="none" stroke="midnightblue" d="M185.15,-134.4C157.66,-122.94 119.25,-106.94 92.89,-95.95"/>
<polygon fill="midnightblue" stroke="midnightblue" points="93.99,-92.62 83.42,-92.01 91.3,-99.08 93.99,-92.62"/>
</g>
<!-- Node5 -->
<g id="node5" class="node">
<title>Node5</title>
<g id="a_node5"><a xlink:href="ReverseResumableAStar_8h.html" target="_top" xlink:title=" ">
<polygon fill="white" stroke="red" points="144,-67.5 144,-97.5 278,-97.5 278,-67.5 144,-67.5"/>
<text text-anchor="start" x="152" y="-85.5" font-family="Helvetica,sans-Serif" font-size="10.00">../Solvers/AStar/Reverse</text>
<text text-anchor="middle" x="211" y="-74.5" font-family="Helvetica,sans-Serif" font-size="10.00">ResumableAStar.h</text>
</a>
</g>
</g>
<!-- Node3&#45;&gt;Node5 -->
<g id="edge4" class="edge">
<title>Node3&#45;&gt;Node5</title>
<path fill="none" stroke="midnightblue" d="M217.26,-134.4C216.3,-126.56 215.07,-116.6 213.96,-107.57"/>
<polygon fill="midnightblue" stroke="midnightblue" points="217.43,-107.07 212.73,-97.58 210.48,-107.93 217.43,-107.07"/>
</g>
<!-- Node14 -->
<g id="node6" class="node">
<title>Node14</title>
<g id="a_node6"><a xlink:href="HeuristicManhattan_8h.html" target="_top" xlink:title=" ">
<polygon fill="white" stroke="red" points="193,-0.5 193,-30.5 323,-30.5 323,-0.5 193,-0.5"/>
<text text-anchor="start" x="201" y="-18.5" font-family="Helvetica,sans-Serif" font-size="10.00">../../Heuristics/Heuristic</text>
<text text-anchor="middle" x="258" y="-7.5" font-family="Helvetica,sans-Serif" font-size="10.00">Manhattan.h</text>
</a>
</g>
</g>
<!-- Node3&#45;&gt;Node14 -->
<g id="edge6" class="edge">
<title>Node3&#45;&gt;Node14</title>
<path fill="none" stroke="midnightblue" d="M249.12,-134.44C263.38,-126.05 279.01,-113.9 287,-98 296.57,-78.98 286.65,-56.04 275.89,-39.35"/>
<polygon fill="midnightblue" stroke="midnightblue" points="278.52,-37 269.94,-30.78 272.77,-40.99 278.52,-37"/>
</g>
<!-- Node5&#45;&gt;Node14 -->
<g id="edge5" class="edge">
<title>Node5&#45;&gt;Node14</title>
<path fill="none" stroke="midnightblue" d="M221.2,-67.4C227.23,-59.05 235.02,-48.29 241.87,-38.81"/>
<polygon fill="midnightblue" stroke="midnightblue" points="244.8,-40.73 247.82,-30.58 239.13,-36.63 244.8,-40.73"/>
</g>
<!-- Node11 -->
<g id="node8" class="node">
<title>Node11</title>
<g id="a_node8"><a xlink:href="VertexConstraint_8h.html" target="_top" xlink:title=" ">
<polygon fill="white" stroke="black" points="334.5,-73 334.5,-92 441.5,-92 441.5,-73 334.5,-73"/>
<text text-anchor="middle" x="388" y="-80" font-family="Helvetica,sans-Serif" font-size="10.00">VertexConstraint.h</text>
</a>
</g>
</g>
<!-- Node27&#45;&gt;Node11 -->
<g id="edge8" class="edge">
<title>Node27&#45;&gt;Node11</title>
<path fill="none" stroke="midnightblue" d="M381.08,-139.73C382.25,-130.18 384.17,-114.62 385.69,-102.28"/>
<polygon fill="midnightblue" stroke="midnightblue" points="389.19,-102.48 386.94,-92.13 382.24,-101.62 389.19,-102.48"/>
</g>
</g>
</svg>
