<?xml version="1.0" encoding="UTF-8" standalone="no"?>
<!DOCTYPE svg PUBLIC "-//W3C//DTD SVG 1.1//EN"
 "http://www.w3.org/Graphics/SVG/1.1/DTD/svg11.dtd">
<!-- Generated by graphviz version 2.43.0 (0)
 -->
<!-- Title: Solvers/AStar/AStar.h Pages: 1 -->
<svg width="370pt" height="229pt"
 viewBox="0.00 0.00 369.50 229.00" xmlns="http://www.w3.org/2000/svg" xmlns:xlink="http://www.w3.org/1999/xlink">
<g id="graph0" class="graph" transform="scale(1 1) rotate(0) translate(4 225)">
<title>Solvers/AStar/AStar.h</title>
<polygon fill="white" stroke="transparent" points="-4,4 -4,-225 365.5,-225 365.5,4 -4,4"/>
<!-- Node1 -->
<g id="node1" class="node">
<title>Node1</title>
<g id="a_node1"><a xlink:title=" ">
<polygon fill="#bfbfbf" stroke="black" points="147,-201.5 147,-220.5 266,-220.5 266,-201.5 147,-201.5"/>
<text text-anchor="middle" x="206.5" y="-208.5" font-family="Helvetica,sans-Serif" font-size="10.00">Solvers/AStar/AStar.h</text>
</a>
</g>
</g>
<!-- Node2 -->
<g id="node2" class="node">
<title>Node2</title>
<g id="a_node2"><a xlink:href="GeneralAStar_8h.html" target="_top" xlink:title=" ">
<polygon fill="white" stroke="black" points="43.5,-140 43.5,-159 201.5,-159 201.5,-140 43.5,-140"/>
<text text-anchor="middle" x="122.5" y="-147" font-family="Helvetica,sans-Serif" font-size="10.00">Solvers/AStar/GeneralAStar.h</text>
</a>
</g>
</g>
<!-- Node1&#45;&gt;Node2 -->
<g id="edge1" class="edge">
<title>Node1&#45;&gt;Node2</title>
<path fill="none" stroke="midnightblue" d="M186.19,-195.61C170.03,-184.17 147.98,-168.55 134.51,-159.01"/>
<polygon fill="midnightblue" stroke="midnightblue" points="184.28,-198.55 194.46,-201.48 188.33,-192.84 184.28,-198.55"/>
</g>
<!-- Node9 -->
<g id="node5" class="node">
<title>Node9</title>
<g id="a_node5"><a xlink:href="CooperativeAStar_8h.html" target="_top" xlink:title=" ">
<polygon fill="white" stroke="black" points="219.5,-134.5 219.5,-164.5 361.5,-164.5 361.5,-134.5 219.5,-134.5"/>
<text text-anchor="start" x="227.5" y="-152.5" font-family="Helvetica,sans-Serif" font-size="10.00">Solvers/SuboptimalSolver</text>
<text text-anchor="middle" x="290.5" y="-141.5" font-family="Helvetica,sans-Serif" font-size="10.00">/CooperativeAStar.h</text>
</a>
</g>
</g>
<!-- Node1&#45;&gt;Node9 -->
<g id="edge5" class="edge">
<title>Node1&#45;&gt;Node9</title>
<path fill="none" stroke="midnightblue" d="M227.02,-195.47C240.32,-186.05 257.55,-173.84 270.7,-164.52"/>
<polygon fill="midnightblue" stroke="midnightblue" points="224.67,-192.84 218.54,-201.48 228.72,-198.55 224.67,-192.84"/>
</g>
<!-- Node3 -->
<g id="node3" class="node">
<title>Node3</title>
<g id="a_node3"><a xlink:href="ConflictBasedSearch_8h.html" target="_top" xlink:title=" ">
<polygon fill="white" stroke="red" points="0,-67.5 0,-97.5 145,-97.5 145,-67.5 0,-67.5"/>
<text text-anchor="start" x="8" y="-85.5" font-family="Helvetica,sans-Serif" font-size="10.00">Solvers/CBS/ConflictBased</text>
<text text-anchor="middle" x="72.5" y="-74.5" font-family="Helvetica,sans-Serif" font-size="10.00">Search.h</text>
</a>
</g>
</g>
<!-- Node2&#45;&gt;Node3 -->
<g id="edge2" class="edge">
<title>Node2&#45;&gt;Node3</title>
<path fill="none" stroke="midnightblue" d="M109.56,-131.67C101.42,-121.09 91.04,-107.6 83.34,-97.59"/>
<polygon fill="midnightblue" stroke="midnightblue" points="106.89,-133.94 115.76,-139.73 112.43,-129.67 106.89,-133.94"/>
</g>
<!-- Node5 -->
<g id="node4" class="node">
<title>Node5</title>
<g id="a_node4"><a xlink:href="SimpleIndependenceDetection_8h.html" target="_top" xlink:title=" ">
<polygon fill="white" stroke="red" points="37,-0.5 37,-30.5 208,-30.5 208,-0.5 37,-0.5"/>
<text text-anchor="start" x="45" y="-18.5" font-family="Helvetica,sans-Serif" font-size="10.00">Solvers/ID/SimpleIndependence</text>
<text text-anchor="middle" x="122.5" y="-7.5" font-family="Helvetica,sans-Serif" font-size="10.00">Detection.h</text>
</a>
</g>
</g>
<!-- Node2&#45;&gt;Node5 -->
<g id="edge4" class="edge">
<title>Node2&#45;&gt;Node5</title>
<path fill="none" stroke="midnightblue" d="M136.34,-131.99C143.26,-122.65 150.91,-110.39 154.5,-98 158.34,-84.77 158.34,-80.23 154.5,-67 150.62,-53.64 142.04,-40.43 134.74,-30.88"/>
<polygon fill="midnightblue" stroke="midnightblue" points="133.51,-129.93 130.09,-139.96 139.02,-134.25 133.51,-129.93"/>
</g>
<!-- Node3&#45;&gt;Node5 -->
<g id="edge3" class="edge">
<title>Node3&#45;&gt;Node5</title>
<path fill="none" stroke="midnightblue" d="M89.46,-59.45C96.81,-49.9 105.19,-39 111.67,-30.58"/>
<polygon fill="midnightblue" stroke="midnightblue" points="86.67,-57.34 83.35,-67.4 92.22,-61.6 86.67,-57.34"/>
</g>
</g>
</svg>
