<?xml version="1.0" encoding="UTF-8" standalone="no"?>
<!DOCTYPE svg PUBLIC "-//W3C//DTD SVG 1.1//EN"
 "http://www.w3.org/Graphics/SVG/1.1/DTD/svg11.dtd">
<!-- Generated by graphviz version 2.43.0 (0)
 -->
<!-- Title: AStarProblems/AStarProblem.h Pages: 1 -->
<!--zoomable 676 -->
<svg id="main" version="1.1" xmlns="http://www.w3.org/2000/svg" xmlns:xlink="http://www.w3.org/1999/xlink" xml:space="preserve" onload="init(evt)">
<style type="text/css"><![CDATA[
.edge:hover path { stroke: red; }
.edge:hover polygon { stroke: red; fill: red; }
]]></style>
<script type="text/javascript"><![CDATA[
var edges = document.getElementsByTagName('g');
if (edges && edges.length) {
  for (var i=0;i<edges.length;i++) {
    if (edges[i].id.substr(0,4)=='edge') {
      edges[i].setAttribute('class','edge');
    }
  }
}
]]></script>
        <defs>
                <circle id="rim" cx="0" cy="0" r="7"/>
                <circle id="rim2" cx="0" cy="0" r="3.5"/>
                <g id="zoomPlus">
                        <use xlink:href="#rim" fill="#404040">
                                <set attributeName="fill" to="#808080" begin="zoomplus.mouseover" end="zoomplus.mouseout"/>
                        </use>
                        <path d="M-4,0h8M0,-4v8" fill="none" stroke="white" stroke-width="1.5" pointer-events="none"/>
                </g>
                <g id="zoomMin">
                        <use xlink:href="#rim" fill="#404040">
                                <set attributeName="fill" to="#808080" begin="zoomminus.mouseover" end="zoomminus.mouseout"/>
                        </use>
                        <path d="M-4,0h8" fill="none" stroke="white" stroke-width="1.5" pointer-events="none"/>
                </g>
                <g id="dirArrow">
                        <path fill="none" stroke="white" stroke-width="1.5" d="M0,-3.0v7 M-2.5,-0.5L0,-3.0L2.5,-0.5"/>
                </g>
               <g id="resetDef">
                       <use xlink:href="#rim2" fill="#404040">
                               <set attributeName="fill" to="#808080" begin="reset.mouseover" end="reset.mouseout"/>
                       </use>
               </g>
        </defs>

<script type="text/javascript">
var viewWidth = 1520;
var viewHeight = 676;
var sectionId = 'dynsection-0';
</script>
<script xlink:href="svgpan.js"/>
<svg id="graph" class="graph">
<g id="viewport">
<title>AStarProblems/AStarProblem.h</title>
<polygon fill="white" stroke="transparent" points="-4,4 -4,-672 1515.5,-672 1515.5,4 -4,4"/>
<!-- Node1 -->
<g id="node1" class="node">
<title>Node1</title>
<g id="a_node1"><a xlink:title=" ">
<polygon fill="#bfbfbf" stroke="black" points="572,-648.5 572,-667.5 739,-667.5 739,-648.5 572,-648.5"/>
<text text-anchor="middle" x="655.5" y="-655.5" font-family="Helvetica,sans-Serif" font-size="10.00">AStarProblems/AStarProblem.h</text>
</a>
</g>
</g>
<!-- Node2 -->
<g id="node2" class="node">
<title>Node2</title>
<g id="a_node2"><a xlink:href="ODMultiAgentAStarProblem_8h.html" target="_top" xlink:title=" ">
<polygon fill="white" stroke="black" points="392.5,-581.5 392.5,-611.5 552.5,-611.5 552.5,-581.5 392.5,-581.5"/>
<text text-anchor="start" x="400.5" y="-599.5" font-family="Helvetica,sans-Serif" font-size="10.00">AStarProblems/ODMultiAgent</text>
<text text-anchor="middle" x="472.5" y="-588.5" font-family="Helvetica,sans-Serif" font-size="10.00">AStarProblem.h</text>
</a>
</g>
</g>
<!-- Node1&#45;&gt;Node2 -->
<g id="edge1" class="edge">
<title>Node1&#45;&gt;Node2</title>
<path fill="none" stroke="midnightblue" d="M619.69,-645.36C589.87,-635.66 547.32,-621.83 515.63,-611.52"/>
<polygon fill="midnightblue" stroke="midnightblue" points="618.69,-648.71 629.28,-648.48 620.85,-642.05 618.69,-648.71"/>
</g>
<!-- Node6 -->
<g id="node6" class="node">
<title>Node6</title>
<g id="a_node6"><a xlink:href="AStar_8h.html" target="_top" xlink:title=" ">
<polygon fill="white" stroke="black" points="222,-324.5 222,-343.5 341,-343.5 341,-324.5 222,-324.5"/>
<text text-anchor="middle" x="281.5" y="-331.5" font-family="Helvetica,sans-Serif" font-size="10.00">Solvers/AStar/AStar.h</text>
</a>
</g>
</g>
<!-- Node1&#45;&gt;Node6 -->
<g id="edge34" class="edge">
<title>Node1&#45;&gt;Node6</title>
<path fill="none" stroke="midnightblue" d="M561.53,-653.9C451.25,-649.13 275.78,-637.69 215.5,-612 164.01,-590.06 119.5,-586.47 119.5,-530.5 119.5,-530.5 119.5,-530.5 119.5,-461.5 119.5,-395.48 204.1,-358.82 251.03,-343.56"/>
<polygon fill="midnightblue" stroke="midnightblue" points="561.52,-657.4 571.66,-654.33 561.82,-650.41 561.52,-657.4"/>
</g>
<!-- Node17 -->
<g id="node17" class="node">
<title>Node17</title>
<g id="a_node17"><a xlink:href="ODMultiAgentAStarProblemWithConstraints_8h.html" target="_top" xlink:title=" ">
<polygon fill="white" stroke="black" points="570.5,-581.5 570.5,-611.5 740.5,-611.5 740.5,-581.5 570.5,-581.5"/>
<text text-anchor="start" x="578.5" y="-599.5" font-family="Helvetica,sans-Serif" font-size="10.00">AStarProblems/ODMultiAgent</text>
<text text-anchor="middle" x="655.5" y="-588.5" font-family="Helvetica,sans-Serif" font-size="10.00">AStarProblemWithConstraints.h</text>
</a>
</g>
</g>
<!-- Node1&#45;&gt;Node17 -->
<g id="edge18" class="edge">
<title>Node1&#45;&gt;Node17</title>
<path fill="none" stroke="midnightblue" d="M655.5,-638.23C655.5,-629.59 655.5,-619.5 655.5,-611.52"/>
<polygon fill="midnightblue" stroke="midnightblue" points="652,-638.48 655.5,-648.48 659,-638.48 652,-638.48"/>
</g>
<!-- Node19 -->
<g id="node19" class="node">
<title>Node19</title>
<g id="a_node19"><a xlink:href="SingleAgentAStarProblem_8h.html" target="_top" xlink:title=" ">
<polygon fill="white" stroke="black" points="224.5,-581.5 224.5,-611.5 374.5,-611.5 374.5,-581.5 224.5,-581.5"/>
<text text-anchor="start" x="232.5" y="-599.5" font-family="Helvetica,sans-Serif" font-size="10.00">AStarProblems/SingleAgent</text>
<text text-anchor="middle" x="299.5" y="-588.5" font-family="Helvetica,sans-Serif" font-size="10.00">AStarProblem.h</text>
</a>
</g>
</g>
<!-- Node1&#45;&gt;Node19 -->
<g id="edge21" class="edge">
<title>Node1&#45;&gt;Node19</title>
<path fill="none" stroke="midnightblue" d="M593.37,-646.85C538.23,-637.81 455.48,-624.17 383.5,-612 380.58,-611.51 377.61,-611 374.6,-610.49"/>
<polygon fill="midnightblue" stroke="midnightblue" points="592.9,-650.32 603.34,-648.48 594.04,-643.41 592.9,-650.32"/>
</g>
<!-- Node21 -->
<g id="node21" class="node">
<title>Node21</title>
<g id="a_node21"><a xlink:href="SingleAgentAStarProblemWithConstraints_8h.html" target="_top" xlink:title=" ">
<polygon fill="white" stroke="black" points="758.5,-581.5 758.5,-611.5 928.5,-611.5 928.5,-581.5 758.5,-581.5"/>
<text text-anchor="start" x="766.5" y="-599.5" font-family="Helvetica,sans-Serif" font-size="10.00">AStarProblems/SingleAgent</text>
<text text-anchor="middle" x="843.5" y="-588.5" font-family="Helvetica,sans-Serif" font-size="10.00">AStarProblemWithConstraints.h</text>
</a>
</g>
</g>
<!-- Node1&#45;&gt;Node21 -->
<g id="edge25" class="edge">
<title>Node1&#45;&gt;Node21</title>
<path fill="none" stroke="midnightblue" d="M692.29,-645.36C722.92,-635.66 766.64,-621.83 799.19,-611.52"/>
<polygon fill="midnightblue" stroke="midnightblue" points="690.91,-642.12 682.44,-648.48 693.03,-648.79 690.91,-642.12"/>
</g>
<!-- Node23 -->
<g id="node23" class="node">
<title>Node23</title>
<g id="a_node23"><a xlink:href="StandardMultiAgentAStarProblem_8h.html" target="_top" xlink:title=" ">
<polygon fill="white" stroke="black" points="946.5,-581.5 946.5,-611.5 1106.5,-611.5 1106.5,-581.5 946.5,-581.5"/>
<text text-anchor="start" x="954.5" y="-599.5" font-family="Helvetica,sans-Serif" font-size="10.00">AStarProblems/StandardMulti</text>
<text text-anchor="middle" x="1026.5" y="-588.5" font-family="Helvetica,sans-Serif" font-size="10.00">AgentAStarProblem.h</text>
</a>
</g>
</g>
<!-- Node1&#45;&gt;Node23 -->
<g id="edge28" class="edge">
<title>Node1&#45;&gt;Node23</title>
<path fill="none" stroke="midnightblue" d="M719.28,-646.88C776.44,-637.8 862.58,-624.08 937.5,-612 940.44,-611.53 943.43,-611.04 946.45,-610.55"/>
<polygon fill="midnightblue" stroke="midnightblue" points="718.63,-643.44 709.31,-648.47 719.73,-650.36 718.63,-643.44"/>
</g>
<!-- Node25 -->
<g id="node25" class="node">
<title>Node25</title>
<g id="a_node25"><a xlink:href="StandardMultiAgentAStarProblemWithConstraints_8h.html" target="_top" xlink:title=" ">
<polygon fill="white" stroke="black" points="1125,-581.5 1125,-611.5 1324,-611.5 1324,-581.5 1125,-581.5"/>
<text text-anchor="start" x="1133" y="-599.5" font-family="Helvetica,sans-Serif" font-size="10.00">AStarProblems/StandardMulti</text>
<text text-anchor="middle" x="1224.5" y="-588.5" font-family="Helvetica,sans-Serif" font-size="10.00">AgentAStarProblemWithConstraints.h</text>
</a>
</g>
</g>
<!-- Node1&#45;&gt;Node25 -->
<g id="edge31" class="edge">
<title>Node1&#45;&gt;Node25</title>
<path fill="none" stroke="midnightblue" d="M749.35,-648.78C842.38,-640.41 988.92,-626.61 1115.5,-612 1118.53,-611.65 1121.62,-611.29 1124.72,-610.91"/>
<polygon fill="midnightblue" stroke="midnightblue" points="748.76,-645.32 739.11,-649.7 749.39,-652.29 748.76,-645.32"/>
</g>
<!-- Node3 -->
<g id="node3" class="node">
<title>Node3</title>
<g id="a_node3"><a xlink:href="ODMultiAgentAStarProblem_8cpp.html" target="_top" xlink:title=" ">
<polygon fill="white" stroke="black" points="353.5,-514.5 353.5,-544.5 513.5,-544.5 513.5,-514.5 353.5,-514.5"/>
<text text-anchor="start" x="361.5" y="-532.5" font-family="Helvetica,sans-Serif" font-size="10.00">AStarProblems/ODMultiAgent</text>
<text text-anchor="middle" x="433.5" y="-521.5" font-family="Helvetica,sans-Serif" font-size="10.00">AStarProblem.cpp</text>
</a>
</g>
</g>
<!-- Node2&#45;&gt;Node3 -->
<g id="edge2" class="edge">
<title>Node2&#45;&gt;Node3</title>
<path fill="none" stroke="midnightblue" d="M458.75,-572.58C453.14,-563.24 446.85,-552.75 441.95,-544.58"/>
<polygon fill="midnightblue" stroke="midnightblue" points="455.89,-574.62 464.04,-581.4 461.89,-571.02 455.89,-574.62"/>
</g>
<!-- Node4 -->
<g id="node4" class="node">
<title>Node4</title>
<g id="a_node4"><a xlink:href="HeuristicManhattan_8h.html" target="_top" xlink:title=" ">
<polygon fill="white" stroke="black" points="732,-520 732,-539 905,-539 905,-520 732,-520"/>
<text text-anchor="middle" x="818.5" y="-527" font-family="Helvetica,sans-Serif" font-size="10.00">Heuristics/HeuristicManhattan.h</text>
</a>
</g>
</g>
<!-- Node2&#45;&gt;Node4 -->
<g id="edge3" class="edge">
<title>Node2&#45;&gt;Node4</title>
<path fill="none" stroke="midnightblue" d="M557.01,-579.62C625.15,-566.82 718.34,-549.32 773.1,-539.03"/>
<polygon fill="midnightblue" stroke="midnightblue" points="556.33,-576.19 547.15,-581.48 557.63,-583.07 556.33,-576.19"/>
</g>
<!-- Node5 -->
<g id="node5" class="node">
<title>Node5</title>
<g id="a_node5"><a xlink:href="HeuristicOptimal_8h.html" target="_top" xlink:title=" ">
<polygon fill="white" stroke="black" points="542.5,-386 542.5,-405 702.5,-405 702.5,-386 542.5,-386"/>
<text text-anchor="middle" x="622.5" y="-393" font-family="Helvetica,sans-Serif" font-size="10.00">Heuristics/HeuristicOptimal.h</text>
</a>
</g>
</g>
<!-- Node4&#45;&gt;Node5 -->
<g id="edge4" class="edge">
<title>Node4&#45;&gt;Node5</title>
<path fill="none" stroke="midnightblue" d="M797.23,-514.17C756.36,-486.65 668.02,-427.15 635.15,-405.02"/>
<polygon fill="midnightblue" stroke="midnightblue" points="795.39,-517.16 805.64,-519.84 799.3,-511.35 795.39,-517.16"/>
</g>
<!-- Node15 -->
<g id="node15" class="node">
<title>Node15</title>
<g id="a_node15"><a xlink:href="ReverseResumableAStar_8h.html" target="_top" xlink:title=" ">
<polygon fill="white" stroke="black" points="406,-447.5 406,-477.5 585,-477.5 585,-447.5 406,-447.5"/>
<text text-anchor="start" x="414" y="-465.5" font-family="Helvetica,sans-Serif" font-size="10.00">Solvers/AStar/ReverseResumable</text>
<text text-anchor="middle" x="495.5" y="-454.5" font-family="Helvetica,sans-Serif" font-size="10.00">AStar.h</text>
</a>
</g>
</g>
<!-- Node4&#45;&gt;Node15 -->
<g id="edge15" class="edge">
<title>Node4&#45;&gt;Node15</title>
<path fill="none" stroke="midnightblue" d="M766.13,-517.96C711.54,-506.98 625.7,-489.7 565.36,-477.56"/>
<polygon fill="midnightblue" stroke="midnightblue" points="765.45,-521.39 775.94,-519.94 766.83,-514.53 765.45,-521.39"/>
</g>
<!-- Node5&#45;&gt;Node6 -->
<g id="edge5" class="edge">
<title>Node5&#45;&gt;Node6</title>
<path fill="none" stroke="midnightblue" d="M563.4,-384.19C497.39,-372.67 391.76,-354.24 330.27,-343.51"/>
<polygon fill="midnightblue" stroke="midnightblue" points="563.19,-387.7 573.64,-385.98 564.39,-380.81 563.19,-387.7"/>
</g>
<!-- Node7 -->
<g id="node7" class="node">
<title>Node7</title>
<g id="a_node7"><a xlink:href="GeneralAStar_8h.html" target="_top" xlink:title=" ">
<polygon fill="white" stroke="black" points="118.5,-263 118.5,-282 276.5,-282 276.5,-263 118.5,-263"/>
<text text-anchor="middle" x="197.5" y="-270" font-family="Helvetica,sans-Serif" font-size="10.00">Solvers/AStar/GeneralAStar.h</text>
</a>
</g>
</g>
<!-- Node6&#45;&gt;Node7 -->
<g id="edge6" class="edge">
<title>Node6&#45;&gt;Node7</title>
<path fill="none" stroke="midnightblue" d="M261.19,-318.61C245.03,-307.17 222.98,-291.55 209.51,-282.01"/>
<polygon fill="midnightblue" stroke="midnightblue" points="259.28,-321.55 269.46,-324.48 263.33,-315.84 259.28,-321.55"/>
</g>
<!-- Node14 -->
<g id="node14" class="node">
<title>Node14</title>
<g id="a_node14"><a xlink:href="CooperativeAStar_8h.html" target="_top" xlink:title=" ">
<polygon fill="white" stroke="black" points="294.5,-257.5 294.5,-287.5 436.5,-287.5 436.5,-257.5 294.5,-257.5"/>
<text text-anchor="start" x="302.5" y="-275.5" font-family="Helvetica,sans-Serif" font-size="10.00">Solvers/SuboptimalSolver</text>
<text text-anchor="middle" x="365.5" y="-264.5" font-family="Helvetica,sans-Serif" font-size="10.00">/CooperativeAStar.h</text>
</a>
</g>
</g>
<!-- Node6&#45;&gt;Node14 -->
<g id="edge14" class="edge">
<title>Node6&#45;&gt;Node14</title>
<path fill="none" stroke="midnightblue" d="M302.02,-318.47C315.32,-309.05 332.55,-296.84 345.7,-287.52"/>
<polygon fill="midnightblue" stroke="midnightblue" points="299.67,-315.84 293.54,-324.48 303.72,-321.55 299.67,-315.84"/>
</g>
<!-- Node8 -->
<g id="node8" class="node">
<title>Node8</title>
<g id="a_node8"><a xlink:href="ConflictBasedSearch_8h.html" target="_top" xlink:title=" ">
<polygon fill="white" stroke="black" points="75,-190.5 75,-220.5 220,-220.5 220,-190.5 75,-190.5"/>
<text text-anchor="start" x="83" y="-208.5" font-family="Helvetica,sans-Serif" font-size="10.00">Solvers/CBS/ConflictBased</text>
<text text-anchor="middle" x="147.5" y="-197.5" font-family="Helvetica,sans-Serif" font-size="10.00">Search.h</text>
</a>
</g>
</g>
<!-- Node7&#45;&gt;Node8 -->
<g id="edge7" class="edge">
<title>Node7&#45;&gt;Node8</title>
<path fill="none" stroke="midnightblue" d="M184.56,-254.67C176.42,-244.09 166.04,-230.6 158.34,-220.59"/>
<polygon fill="midnightblue" stroke="midnightblue" points="181.89,-256.94 190.76,-262.73 187.43,-252.67 181.89,-256.94"/>
</g>
<!-- Node10 -->
<g id="node10" class="node">
<title>Node10</title>
<g id="a_node10"><a xlink:href="SimpleIndependenceDetection_8h.html" target="_top" xlink:title=" ">
<polygon fill="white" stroke="black" points="163,-123.5 163,-153.5 334,-153.5 334,-123.5 163,-123.5"/>
<text text-anchor="start" x="171" y="-141.5" font-family="Helvetica,sans-Serif" font-size="10.00">Solvers/ID/SimpleIndependence</text>
<text text-anchor="middle" x="248.5" y="-130.5" font-family="Helvetica,sans-Serif" font-size="10.00">Detection.h</text>
</a>
</g>
</g>
<!-- Node7&#45;&gt;Node10 -->
<g id="edge13" class="edge">
<title>Node7&#45;&gt;Node10</title>
<path fill="none" stroke="midnightblue" d="M209.96,-254.23C216.28,-244.79 223.62,-232.68 228.5,-221 237.93,-198.41 243.6,-170.37 246.38,-153.76"/>
<polygon fill="midnightblue" stroke="midnightblue" points="206.94,-252.44 204.11,-262.65 212.69,-256.43 206.94,-252.44"/>
</g>
<!-- Node9 -->
<g id="node9" class="node">
<title>Node9</title>
<g id="a_node9"><a xlink:href="ConflictBasedSearch_8cpp.html" target="_top" xlink:title=" ">
<polygon fill="white" stroke="black" points="0,-123.5 0,-153.5 145,-153.5 145,-123.5 0,-123.5"/>
<text text-anchor="start" x="8" y="-141.5" font-family="Helvetica,sans-Serif" font-size="10.00">Solvers/CBS/ConflictBased</text>
<text text-anchor="middle" x="72.5" y="-130.5" font-family="Helvetica,sans-Serif" font-size="10.00">Search.cpp</text>
</a>
</g>
</g>
<!-- Node8&#45;&gt;Node9 -->
<g id="edge8" class="edge">
<title>Node8&#45;&gt;Node9</title>
<path fill="none" stroke="midnightblue" d="M123.38,-183.6C112.06,-173.78 98.86,-162.34 88.74,-153.58"/>
<polygon fill="midnightblue" stroke="midnightblue" points="121.38,-186.49 131.23,-190.4 125.96,-181.2 121.38,-186.49"/>
</g>
<!-- Node8&#45;&gt;Node10 -->
<g id="edge9" class="edge">
<title>Node8&#45;&gt;Node10</title>
<path fill="none" stroke="midnightblue" d="M178.21,-184.73C193.84,-174.68 212.47,-162.68 226.63,-153.58"/>
<polygon fill="midnightblue" stroke="midnightblue" points="175.93,-182.04 169.42,-190.4 179.72,-187.93 175.93,-182.04"/>
</g>
<!-- Node11 -->
<g id="node11" class="node">
<title>Node11</title>
<g id="a_node11"><a xlink:href="IndependenceDetection_8h.html" target="_top" xlink:title=" ">
<polygon fill="white" stroke="black" points="50.5,-62 50.5,-81 244.5,-81 244.5,-62 50.5,-62"/>
<text text-anchor="middle" x="147.5" y="-69" font-family="Helvetica,sans-Serif" font-size="10.00">Solvers/ID/IndependenceDetection.h</text>
</a>
</g>
</g>
<!-- Node10&#45;&gt;Node11 -->
<g id="edge10" class="edge">
<title>Node10&#45;&gt;Node11</title>
<path fill="none" stroke="midnightblue" d="M218.16,-117.97C199.01,-105.65 175.23,-90.35 160.72,-81.01"/>
<polygon fill="midnightblue" stroke="midnightblue" points="216.28,-120.93 226.58,-123.4 220.07,-115.04 216.28,-120.93"/>
</g>
<!-- Node13 -->
<g id="node13" class="node">
<title>Node13</title>
<g id="a_node13"><a xlink:href="SimpleIndependenceDetection_8cpp.html" target="_top" xlink:title=" ">
<polygon fill="white" stroke="black" points="263,-56.5 263,-86.5 434,-86.5 434,-56.5 263,-56.5"/>
<text text-anchor="start" x="271" y="-74.5" font-family="Helvetica,sans-Serif" font-size="10.00">Solvers/ID/SimpleIndependence</text>
<text text-anchor="middle" x="348.5" y="-63.5" font-family="Helvetica,sans-Serif" font-size="10.00">Detection.cpp</text>
</a>
</g>
</g>
<!-- Node10&#45;&gt;Node13 -->
<g id="edge12" class="edge">
<title>Node10&#45;&gt;Node13</title>
<path fill="none" stroke="midnightblue" d="M278.91,-117.73C294.38,-107.68 312.83,-95.68 326.84,-86.58"/>
<polygon fill="midnightblue" stroke="midnightblue" points="276.68,-115.01 270.2,-123.4 280.49,-120.88 276.68,-115.01"/>
</g>
<!-- Node12 -->
<g id="node12" class="node">
<title>Node12</title>
<g id="a_node12"><a xlink:href="IndependenceDetection_8cpp.html" target="_top" xlink:title=" ">
<polygon fill="white" stroke="black" points="45,-0.5 45,-19.5 250,-19.5 250,-0.5 45,-0.5"/>
<text text-anchor="middle" x="147.5" y="-7.5" font-family="Helvetica,sans-Serif" font-size="10.00">Solvers/ID/IndependenceDetection.cpp</text>
</a>
</g>
</g>
<!-- Node11&#45;&gt;Node12 -->
<g id="edge11" class="edge">
<title>Node11&#45;&gt;Node12</title>
<path fill="none" stroke="midnightblue" d="M147.5,-51.82C147.5,-41 147.5,-27.9 147.5,-19.51"/>
<polygon fill="midnightblue" stroke="midnightblue" points="144,-51.98 147.5,-61.98 151,-51.98 144,-51.98"/>
</g>
<!-- Node15&#45;&gt;Node5 -->
<g id="edge16" class="edge">
<title>Node15&#45;&gt;Node5</title>
<path fill="none" stroke="midnightblue" d="M532.03,-442.8C556.38,-430.34 587.22,-414.56 605.88,-405.01"/>
<polygon fill="midnightblue" stroke="midnightblue" points="530.36,-439.72 523.06,-447.4 533.55,-445.96 530.36,-439.72"/>
</g>
<!-- Node16 -->
<g id="node16" class="node">
<title>Node16</title>
<g id="a_node16"><a xlink:href="ReverseResumableAStar_8cpp.html" target="_top" xlink:title=" ">
<polygon fill="white" stroke="black" points="345,-380.5 345,-410.5 524,-410.5 524,-380.5 345,-380.5"/>
<text text-anchor="start" x="353" y="-398.5" font-family="Helvetica,sans-Serif" font-size="10.00">Solvers/AStar/ReverseResumable</text>
<text text-anchor="middle" x="434.5" y="-387.5" font-family="Helvetica,sans-Serif" font-size="10.00">AStar.cpp</text>
</a>
</g>
</g>
<!-- Node15&#45;&gt;Node16 -->
<g id="edge17" class="edge">
<title>Node15&#45;&gt;Node16</title>
<path fill="none" stroke="midnightblue" d="M475.35,-440.02C466.26,-430.34 455.78,-419.17 447.71,-410.58"/>
<polygon fill="midnightblue" stroke="midnightblue" points="472.87,-442.5 482.26,-447.4 477.97,-437.71 472.87,-442.5"/>
</g>
<!-- Node17&#45;&gt;Node4 -->
<g id="edge20" class="edge">
<title>Node17&#45;&gt;Node4</title>
<path fill="none" stroke="midnightblue" d="M700.33,-577.62C731.88,-565.04 772.69,-548.77 797.17,-539.01"/>
<polygon fill="midnightblue" stroke="midnightblue" points="698.86,-574.44 690.87,-581.4 701.45,-580.94 698.86,-574.44"/>
</g>
<!-- Node18 -->
<g id="node18" class="node">
<title>Node18</title>
<g id="a_node18"><a xlink:href="ODMultiAgentAStarProblemWithConstraints_8cpp.html" target="_top" xlink:title=" ">
<polygon fill="white" stroke="black" points="531.5,-514.5 531.5,-544.5 713.5,-544.5 713.5,-514.5 531.5,-514.5"/>
<text text-anchor="start" x="539.5" y="-532.5" font-family="Helvetica,sans-Serif" font-size="10.00">AStarProblems/ODMultiAgent</text>
<text text-anchor="middle" x="622.5" y="-521.5" font-family="Helvetica,sans-Serif" font-size="10.00">AStarProblemWithConstraints.cpp</text>
</a>
</g>
</g>
<!-- Node17&#45;&gt;Node18 -->
<g id="edge19" class="edge">
<title>Node17&#45;&gt;Node18</title>
<path fill="none" stroke="midnightblue" d="M643.71,-572.28C639.01,-563.02 633.75,-552.66 629.65,-544.58"/>
<polygon fill="midnightblue" stroke="midnightblue" points="640.69,-574.06 648.34,-581.4 646.93,-570.89 640.69,-574.06"/>
</g>
<!-- Node19&#45;&gt;Node4 -->
<g id="edge23" class="edge">
<title>Node19&#45;&gt;Node4</title>
<path fill="none" stroke="midnightblue" d="M384.65,-580.9C535.28,-560.27 575.45,-563.9 722.5,-545 736.29,-543.23 751.17,-541.09 764.99,-539.01"/>
<polygon fill="midnightblue" stroke="midnightblue" points="383.99,-577.46 374.57,-582.29 384.95,-584.39 383.99,-577.46"/>
</g>
<!-- Node19&#45;&gt;Node15 -->
<g id="edge24" class="edge">
<title>Node19&#45;&gt;Node15</title>
<path fill="none" stroke="midnightblue" d="M307.22,-571.7C314.26,-553.53 326.35,-529.12 344.5,-514 365.42,-496.57 392.6,-485.08 418.12,-477.54"/>
<polygon fill="midnightblue" stroke="midnightblue" points="303.86,-570.72 303.74,-581.31 310.44,-573.1 303.86,-570.72"/>
</g>
<!-- Node20 -->
<g id="node20" class="node">
<title>Node20</title>
<g id="a_node20"><a xlink:href="SingleAgentAStarProblem_8cpp.html" target="_top" xlink:title=" ">
<polygon fill="white" stroke="black" points="147.5,-514.5 147.5,-544.5 297.5,-544.5 297.5,-514.5 147.5,-514.5"/>
<text text-anchor="start" x="155.5" y="-532.5" font-family="Helvetica,sans-Serif" font-size="10.00">AStarProblems/SingleAgent</text>
<text text-anchor="middle" x="222.5" y="-521.5" font-family="Helvetica,sans-Serif" font-size="10.00">AStarProblem.cpp</text>
</a>
</g>
</g>
<!-- Node19&#45;&gt;Node20 -->
<g id="edge22" class="edge">
<title>Node19&#45;&gt;Node20</title>
<path fill="none" stroke="midnightblue" d="M275.08,-574.88C263.38,-565.01 249.66,-553.43 239.18,-544.58"/>
<polygon fill="midnightblue" stroke="midnightblue" points="272.89,-577.62 282.79,-581.4 277.41,-572.27 272.89,-577.62"/>
</g>
<!-- Node21&#45;&gt;Node4 -->
<g id="edge27" class="edge">
<title>Node21&#45;&gt;Node4</title>
<path fill="none" stroke="midnightblue" d="M834.44,-571.94C830.05,-560.54 825.06,-547.55 821.84,-539.19"/>
<polygon fill="midnightblue" stroke="midnightblue" points="831.22,-573.32 838.08,-581.4 837.75,-570.81 831.22,-573.32"/>
</g>
<!-- Node22 -->
<g id="node22" class="node">
<title>Node22</title>
<g id="a_node22"><a xlink:href="SingleAgentAStarProblemWithConstraints_8cpp.html" target="_top" xlink:title=" ">
<polygon fill="white" stroke="black" points="923.5,-514.5 923.5,-544.5 1105.5,-544.5 1105.5,-514.5 923.5,-514.5"/>
<text text-anchor="start" x="931.5" y="-532.5" font-family="Helvetica,sans-Serif" font-size="10.00">AStarProblems/SingleAgent</text>
<text text-anchor="middle" x="1014.5" y="-521.5" font-family="Helvetica,sans-Serif" font-size="10.00">AStarProblemWithConstraints.cpp</text>
</a>
</g>
</g>
<!-- Node21&#45;&gt;Node22 -->
<g id="edge26" class="edge">
<title>Node21&#45;&gt;Node22</title>
<path fill="none" stroke="midnightblue" d="M890.02,-577.82C917.5,-567.37 951.83,-554.32 977.47,-544.58"/>
<polygon fill="midnightblue" stroke="midnightblue" points="888.71,-574.57 880.6,-581.4 891.2,-581.11 888.71,-574.57"/>
</g>
<!-- Node23&#45;&gt;Node4 -->
<g id="edge30" class="edge">
<title>Node23&#45;&gt;Node4</title>
<path fill="none" stroke="midnightblue" d="M971.88,-578.43C931.31,-565.75 877.7,-549 845.79,-539.03"/>
<polygon fill="midnightblue" stroke="midnightblue" points="971.03,-581.83 981.62,-581.48 973.12,-575.15 971.03,-581.83"/>
</g>
<!-- Node24 -->
<g id="node24" class="node">
<title>Node24</title>
<g id="a_node24"><a xlink:href="StandardMultiAgentAStarProblem_8cpp.html" target="_top" xlink:title=" ">
<polygon fill="white" stroke="black" points="1123.5,-514.5 1123.5,-544.5 1283.5,-544.5 1283.5,-514.5 1123.5,-514.5"/>
<text text-anchor="start" x="1131.5" y="-532.5" font-family="Helvetica,sans-Serif" font-size="10.00">AStarProblems/StandardMulti</text>
<text text-anchor="middle" x="1203.5" y="-521.5" font-family="Helvetica,sans-Serif" font-size="10.00">AgentAStarProblem.cpp</text>
</a>
</g>
</g>
<!-- Node23&#45;&gt;Node24 -->
<g id="edge29" class="edge">
<title>Node23&#45;&gt;Node24</title>
<path fill="none" stroke="midnightblue" d="M1074.65,-577.82C1103.1,-567.37 1138.63,-554.32 1165.17,-544.58"/>
<polygon fill="midnightblue" stroke="midnightblue" points="1073.09,-574.66 1064.91,-581.4 1075.5,-581.23 1073.09,-574.66"/>
</g>
<!-- Node25&#45;&gt;Node4 -->
<g id="edge33" class="edge">
<title>Node25&#45;&gt;Node4</title>
<path fill="none" stroke="midnightblue" d="M1126.8,-579.86C1046.73,-567.04 936.43,-549.38 871.77,-539.03"/>
<polygon fill="midnightblue" stroke="midnightblue" points="1126.48,-583.35 1136.9,-581.48 1127.58,-576.44 1126.48,-583.35"/>
</g>
<!-- Node26 -->
<g id="node26" class="node">
<title>Node26</title>
<g id="a_node26"><a xlink:href="StandardMultiAgentAStarProblemWithConstraints_8cpp.html" target="_top" xlink:title=" ">
<polygon fill="white" stroke="black" points="1301.5,-514.5 1301.5,-544.5 1511.5,-544.5 1511.5,-514.5 1301.5,-514.5"/>
<text text-anchor="start" x="1309.5" y="-532.5" font-family="Helvetica,sans-Serif" font-size="10.00">AStarProblems/StandardMulti</text>
<text text-anchor="middle" x="1406.5" y="-521.5" font-family="Helvetica,sans-Serif" font-size="10.00">AgentAStarProblemWithConstraints.cpp</text>
</a>
</g>
</g>
<!-- Node25&#45;&gt;Node26 -->
<g id="edge32" class="edge">
<title>Node25&#45;&gt;Node26</title>
<path fill="none" stroke="midnightblue" d="M1273.63,-577.96C1302.94,-567.48 1339.68,-554.37 1367.09,-544.58"/>
<polygon fill="midnightblue" stroke="midnightblue" points="1272.23,-574.74 1263.99,-581.4 1274.59,-581.33 1272.23,-574.74"/>
</g>
</g>
</svg>
        <g id="navigator" transform="translate(0 0)" fill="#404254">
                <rect fill="#f2f5e9" fill-opacity="0.5" stroke="#606060" stroke-width=".5" x="0" y="0" width="60" height="60"/>
                <use id="zoomplus" xlink:href="#zoomPlus" x="17" y="9" onmousedown="handleZoom(evt,'in')"/>
                <use id="zoomminus" xlink:href="#zoomMin" x="42" y="9" onmousedown="handleZoom(evt,'out')"/>
                <use id="reset" xlink:href="#resetDef" x="30" y="36" onmousedown="handleReset()"/>
                <g id="arrowUp" xlink:href="#dirArrow" transform="translate(30 24)" onmousedown="handlePan(0,-1)">
                  <use xlink:href="#rim" fill="#404040">
                        <set attributeName="fill" to="#808080" begin="arrowUp.mouseover" end="arrowUp.mouseout"/>
                  </use>
                  <path fill="none" stroke="white" stroke-width="1.5" d="M0,-3.0v7 M-2.5,-0.5L0,-3.0L2.5,-0.5"/>
                </g>
                <g id="arrowRight" xlink:href="#dirArrow" transform="rotate(90) translate(36 -43)" onmousedown="handlePan(1,0)">
                  <use xlink:href="#rim" fill="#404040">
                        <set attributeName="fill" to="#808080" begin="arrowRight.mouseover" end="arrowRight.mouseout"/>
                  </use>
                  <path fill="none" stroke="white" stroke-width="1.5" d="M0,-3.0v7 M-2.5,-0.5L0,-3.0L2.5,-0.5"/>
                </g>
                <g id="arrowDown" xlink:href="#dirArrow" transform="rotate(180) translate(-30 -48)" onmousedown="handlePan(0,1)">
                  <use xlink:href="#rim" fill="#404040">
                        <set attributeName="fill" to="#808080" begin="arrowDown.mouseover" end="arrowDown.mouseout"/>
                  </use>
                  <path fill="none" stroke="white" stroke-width="1.5" d="M0,-3.0v7 M-2.5,-0.5L0,-3.0L2.5,-0.5"/>
                </g>
                <g id="arrowLeft" xlink:href="#dirArrow" transform="rotate(270) translate(-36 17)" onmousedown="handlePan(-1,0)">
                  <use xlink:href="#rim" fill="#404040">
                        <set attributeName="fill" to="#808080" begin="arrowLeft.mouseover" end="arrowLeft.mouseout"/>
                  </use>
                  <path fill="none" stroke="white" stroke-width="1.5" d="M0,-3.0v7 M-2.5,-0.5L0,-3.0L2.5,-0.5"/>
                </g>
        </g>
        <svg viewBox="0 0 15 15" width="100%" height="30px" preserveAspectRatio="xMaxYMin meet">
         <g id="arrow_out" transform="scale(0.3 0.3)">
          <a xlink:href="AStarProblem_8h__dep__incl_org.svg" target="_base">
           <rect id="button" ry="5" rx="5" y="6" x="6" height="38" width="38"
                fill="#f2f5e9" fill-opacity="0.5" stroke="#606060" stroke-width="1.0"/>
           <path id="arrow"
             d="M 11.500037,31.436501 C 11.940474,20.09759 22.043105,11.32322 32.158766,21.979434 L 37.068811,17.246167 C 37.068811,17.246167 37.088388,32 37.088388,32 L 22.160133,31.978069 C 22.160133,31.978069 26.997745,27.140456 26.997745,27.140456 C 18.528582,18.264221 13.291696,25.230495 11.500037,31.436501 z"
             style="fill:#404040;"/>
          </a>
         </g>
        </svg>
</svg>
