<?xml version="1.0" encoding="UTF-8" standalone="no"?>
<!DOCTYPE svg PUBLIC "-//W3C//DTD SVG 1.1//EN"
 "http://www.w3.org/Graphics/SVG/1.1/DTD/svg11.dtd">
<!-- Generated by graphviz version 2.43.0 (0)
 -->
<!-- Title: AStar.h Pages: 1 -->
<svg width="1245pt" height="553pt"
 viewBox="0.00 0.00 1245.00 553.00" xmlns="http://www.w3.org/2000/svg" xmlns:xlink="http://www.w3.org/1999/xlink">
<g id="graph0" class="graph" transform="scale(1 1) rotate(0) translate(4 549)">
<title>AStar.h</title>
<polygon fill="white" stroke="transparent" points="-4,4 -4,-549 1241,-549 1241,4 -4,4"/>
<!-- Node1 -->
<g id="node1" class="node">
<title>Node1</title>
<g id="a_node1"><a xlink:title=" ">
<polygon fill="#bfbfbf" stroke="black" points="549.5,-525.5 549.5,-544.5 600.5,-544.5 600.5,-525.5 549.5,-525.5"/>
<text text-anchor="middle" x="575" y="-532.5" font-family="Helvetica,sans-Serif" font-size="10.00">AStar.h</text>
</a>
</g>
</g>
<!-- Node2 -->
<g id="node2" class="node">
<title>Node2</title>
<g id="a_node2"><a xlink:href="AStarProblem_8h.html" target="_top" xlink:title=" ">
<polygon fill="white" stroke="black" points="485.5,-190.5 485.5,-220.5 592.5,-220.5 592.5,-190.5 485.5,-190.5"/>
<text text-anchor="start" x="493.5" y="-208.5" font-family="Helvetica,sans-Serif" font-size="10.00">../../AStarProblems</text>
<text text-anchor="middle" x="539" y="-197.5" font-family="Helvetica,sans-Serif" font-size="10.00">/AStarProblem.h</text>
</a>
</g>
</g>
<!-- Node1&#45;&gt;Node2 -->
<g id="edge1" class="edge">
<title>Node1&#45;&gt;Node2</title>
<path fill="none" stroke="midnightblue" d="M575,-525.41C575,-504.98 575,-451.86 575,-407.5 575,-407.5 575,-407.5 575,-338.5 575,-299.5 560.19,-256.22 549.57,-230.2"/>
<polygon fill="midnightblue" stroke="midnightblue" points="552.71,-228.65 545.6,-220.8 546.26,-231.37 552.71,-228.65"/>
</g>
<!-- Node3 -->
<g id="node3" class="node">
<title>Node3</title>
<g id="a_node3"><a xlink:href="HeuristicOptimal_8h.html" target="_top" xlink:title=" ">
<polygon fill="white" stroke="black" points="365,-458.5 365,-488.5 495,-488.5 495,-458.5 365,-458.5"/>
<text text-anchor="start" x="373" y="-476.5" font-family="Helvetica,sans-Serif" font-size="10.00">../../Heuristics/Heuristic</text>
<text text-anchor="middle" x="430" y="-465.5" font-family="Helvetica,sans-Serif" font-size="10.00">Optimal.h</text>
</a>
</g>
</g>
<!-- Node1&#45;&gt;Node3 -->
<g id="edge2" class="edge">
<title>Node1&#45;&gt;Node3</title>
<path fill="none" stroke="midnightblue" d="M554.23,-525.48C533.3,-516.89 500.39,-503.38 473.69,-492.43"/>
<polygon fill="midnightblue" stroke="midnightblue" points="474.75,-489.08 464.17,-488.52 472.1,-495.56 474.75,-489.08"/>
</g>
<!-- Node27 -->
<g id="node27" class="node">
<title>Node27</title>
<g id="a_node27"><a xlink:href="Solution_8h.html" target="_top" xlink:title=" ">
<polygon fill="white" stroke="black" points="888,-397 888,-416 1014,-416 1014,-397 888,-397"/>
<text text-anchor="middle" x="951" y="-404" font-family="Helvetica,sans-Serif" font-size="10.00">../../Solution/Solution.h</text>
</a>
</g>
</g>
<!-- Node1&#45;&gt;Node27 -->
<g id="edge45" class="edge">
<title>Node1&#45;&gt;Node27</title>
<path fill="none" stroke="midnightblue" d="M600.55,-525.4C666.2,-503.32 840.88,-444.55 915.93,-419.3"/>
<polygon fill="midnightblue" stroke="midnightblue" points="917.05,-422.61 925.42,-416.11 914.82,-415.98 917.05,-422.61"/>
</g>
<!-- Node4 -->
<g id="node4" class="node">
<title>Node4</title>
<g id="a_node4"><a xlink:href="Graph_8h.html" target="_top" xlink:title=" ">
<polygon fill="white" stroke="black" points="0,-62 0,-81 126,-81 126,-62 0,-62"/>
<text text-anchor="middle" x="63" y="-69" font-family="Helvetica,sans-Serif" font-size="10.00">../GraphParser/Graph.h</text>
</a>
</g>
</g>
<!-- Node3&#45;&gt;Node4 -->
<g id="edge3" class="edge">
<title>Node3&#45;&gt;Node4</title>
<path fill="none" stroke="midnightblue" d="M364.88,-465.25C248.98,-450.52 19,-412.26 19,-340.5 19,-340.5 19,-340.5 19,-204.5 19,-161.61 40.16,-114.72 53.13,-90.01"/>
<polygon fill="midnightblue" stroke="midnightblue" points="56.26,-91.59 57.95,-81.13 50.11,-88.25 56.26,-91.59"/>
</g>
<!-- Node5 -->
<g id="node5" class="node">
<title>Node5</title>
<g id="a_node5"><a xlink:href="ReverseResumableAStar_8h.html" target="_top" xlink:title=" ">
<polygon fill="white" stroke="black" points="315,-391.5 315,-421.5 449,-421.5 449,-391.5 315,-391.5"/>
<text text-anchor="start" x="323" y="-409.5" font-family="Helvetica,sans-Serif" font-size="10.00">../Solvers/AStar/Reverse</text>
<text text-anchor="middle" x="382" y="-398.5" font-family="Helvetica,sans-Serif" font-size="10.00">ResumableAStar.h</text>
</a>
</g>
</g>
<!-- Node3&#45;&gt;Node5 -->
<g id="edge4" class="edge">
<title>Node3&#45;&gt;Node5</title>
<path fill="none" stroke="midnightblue" d="M419.58,-458.4C413.42,-450.05 405.47,-439.29 398.48,-429.81"/>
<polygon fill="midnightblue" stroke="midnightblue" points="401.15,-427.54 392.39,-421.58 395.52,-431.7 401.15,-427.54"/>
</g>
<!-- Node14 -->
<g id="node14" class="node">
<title>Node14</title>
<g id="a_node14"><a xlink:href="HeuristicManhattan_8h.html" target="_top" xlink:title=" ">
<polygon fill="white" stroke="black" points="412,-324.5 412,-354.5 542,-354.5 542,-324.5 412,-324.5"/>
<text text-anchor="start" x="420" y="-342.5" font-family="Helvetica,sans-Serif" font-size="10.00">../../Heuristics/Heuristic</text>
<text text-anchor="middle" x="477" y="-331.5" font-family="Helvetica,sans-Serif" font-size="10.00">Manhattan.h</text>
</a>
</g>
</g>
<!-- Node3&#45;&gt;Node14 -->
<g id="edge44" class="edge">
<title>Node3&#45;&gt;Node14</title>
<path fill="none" stroke="midnightblue" d="M439.19,-458.43C445.28,-448.58 453.03,-434.91 458,-422 465.2,-403.32 470.15,-381.13 473.19,-364.63"/>
<polygon fill="midnightblue" stroke="midnightblue" points="476.65,-365.15 474.92,-354.7 469.76,-363.95 476.65,-365.15"/>
</g>
<!-- Node6 -->
<g id="node6" class="node">
<title>Node6</title>
<g id="a_node6"><a xlink:href="SingleAgentAStarProblem_8h.html" target="_top" xlink:title=" ">
<polygon fill="white" stroke="black" points="47,-257.5 47,-287.5 201,-287.5 201,-257.5 47,-257.5"/>
<text text-anchor="start" x="55" y="-275.5" font-family="Helvetica,sans-Serif" font-size="10.00">../../AStarProblems</text>
<text text-anchor="middle" x="124" y="-264.5" font-family="Helvetica,sans-Serif" font-size="10.00">/SingleAgentAStarProblem.h</text>
</a>
</g>
</g>
<!-- Node5&#45;&gt;Node6 -->
<g id="edge5" class="edge">
<title>Node5&#45;&gt;Node6</title>
<path fill="none" stroke="midnightblue" d="M382.76,-391.2C382.9,-372.95 380.21,-341.64 362,-324 356.31,-318.49 275.53,-302.09 209.63,-289.46"/>
<polygon fill="midnightblue" stroke="midnightblue" points="210.1,-285.98 199.62,-287.54 208.78,-292.86 210.1,-285.98"/>
</g>
<!-- Node5&#45;&gt;Node14 -->
<g id="edge15" class="edge">
<title>Node5&#45;&gt;Node14</title>
<path fill="none" stroke="midnightblue" d="M402.61,-391.4C415.93,-382.28 433.46,-370.29 448.16,-360.24"/>
<polygon fill="midnightblue" stroke="midnightblue" points="450.15,-363.11 456.43,-354.58 446.2,-357.33 450.15,-363.11"/>
</g>
<!-- Node26 -->
<g id="node26" class="node">
<title>Node26</title>
<g id="a_node26"><a xlink:href="Node_8h.html" target="_top" xlink:title=" ">
<polygon fill="white" stroke="black" points="302.5,-330 302.5,-349 353.5,-349 353.5,-330 302.5,-330"/>
<text text-anchor="middle" x="328" y="-337" font-family="Helvetica,sans-Serif" font-size="10.00">Node.h</text>
</a>
</g>
</g>
<!-- Node5&#45;&gt;Node26 -->
<g id="edge43" class="edge">
<title>Node5&#45;&gt;Node26</title>
<path fill="none" stroke="midnightblue" d="M370.28,-391.4C361.86,-381.26 350.49,-367.57 341.66,-356.94"/>
<polygon fill="midnightblue" stroke="midnightblue" points="344.31,-354.65 335.22,-349.19 338.92,-359.12 344.31,-354.65"/>
</g>
<!-- Node6&#45;&gt;Node2 -->
<g id="edge14" class="edge">
<title>Node6&#45;&gt;Node2</title>
<path fill="none" stroke="midnightblue" d="M201.35,-258.4C204.27,-257.93 207.16,-257.46 210,-257 302.06,-242.17 408.79,-225.97 475.11,-216.02"/>
<polygon fill="midnightblue" stroke="midnightblue" points="476.03,-219.42 485.4,-214.48 474.99,-212.5 476.03,-219.42"/>
</g>
<!-- Node7 -->
<g id="node7" class="node">
<title>Node7</title>
<g id="a_node7"><a xlink:href="SingleAgentProblem_8h.html" target="_top" xlink:title=" ">
<polygon fill="white" stroke="black" points="183,-196 183,-215 365,-215 365,-196 183,-196"/>
<text text-anchor="middle" x="274" y="-203" font-family="Helvetica,sans-Serif" font-size="10.00">../Problems/SingleAgentProblem.h</text>
</a>
</g>
</g>
<!-- Node6&#45;&gt;Node7 -->
<g id="edge6" class="edge">
<title>Node6&#45;&gt;Node7</title>
<path fill="none" stroke="midnightblue" d="M156.55,-257.4C182.87,-245.99 219.59,-230.08 244.93,-219.1"/>
<polygon fill="midnightblue" stroke="midnightblue" points="246.58,-222.19 254.37,-215.01 243.8,-215.77 246.58,-222.19"/>
</g>
<!-- Node12 -->
<g id="node12" class="node">
<title>Node12</title>
<g id="a_node12"><a xlink:href="SingleAgentState_8h.html" target="_top" xlink:title=" ">
<polygon fill="white" stroke="black" points="65,-129 65,-148 217,-148 217,-129 65,-129"/>
<text text-anchor="middle" x="141" y="-136" font-family="Helvetica,sans-Serif" font-size="10.00">../States/SingleAgentState.h</text>
</a>
</g>
</g>
<!-- Node6&#45;&gt;Node12 -->
<g id="edge12" class="edge">
<title>Node6&#45;&gt;Node12</title>
<path fill="none" stroke="midnightblue" d="M125.82,-257.37C128.91,-233.4 135.17,-184.75 138.61,-158.06"/>
<polygon fill="midnightblue" stroke="midnightblue" points="142.09,-158.46 139.89,-148.1 135.14,-157.57 142.09,-158.46"/>
</g>
<!-- Node8 -->
<g id="node8" class="node">
<title>Node8</title>
<g id="a_node8"><a xlink:href="Problem_8h.html" target="_top" xlink:title=" ">
<polygon fill="white" stroke="black" points="241,-129 241,-148 307,-148 307,-129 241,-129"/>
<text text-anchor="middle" x="274" y="-136" font-family="Helvetica,sans-Serif" font-size="10.00">Problem.h</text>
</a>
</g>
</g>
<!-- Node7&#45;&gt;Node8 -->
<g id="edge7" class="edge">
<title>Node7&#45;&gt;Node8</title>
<path fill="none" stroke="midnightblue" d="M274,-195.73C274,-186.18 274,-170.62 274,-158.28"/>
<polygon fill="midnightblue" stroke="midnightblue" points="277.5,-158.13 274,-148.13 270.5,-158.13 277.5,-158.13"/>
</g>
<!-- Node8&#45;&gt;Node4 -->
<g id="edge11" class="edge">
<title>Node8&#45;&gt;Node4</title>
<path fill="none" stroke="midnightblue" d="M245.98,-128.87C208.59,-117.35 142.28,-96.92 100.58,-84.08"/>
<polygon fill="midnightblue" stroke="midnightblue" points="101.39,-80.66 90.8,-81.06 99.33,-87.35 101.39,-80.66"/>
</g>
<!-- Node9 -->
<g id="node9" class="node">
<title>Node9</title>
<g id="a_node9"><a xlink:href="ConstraintsSet_8h.html" target="_top" xlink:title=" ">
<polygon fill="white" stroke="black" points="209,-56.5 209,-86.5 349,-86.5 349,-56.5 209,-56.5"/>
<text text-anchor="start" x="217" y="-74.5" font-family="Helvetica,sans-Serif" font-size="10.00">../Constraints/Constraints</text>
<text text-anchor="middle" x="279" y="-63.5" font-family="Helvetica,sans-Serif" font-size="10.00">Set.h</text>
</a>
</g>
</g>
<!-- Node8&#45;&gt;Node9 -->
<g id="edge8" class="edge">
<title>Node8&#45;&gt;Node9</title>
<path fill="none" stroke="midnightblue" d="M274.67,-128.73C275.3,-120.54 276.28,-107.92 277.14,-96.71"/>
<polygon fill="midnightblue" stroke="midnightblue" points="280.64,-96.83 277.92,-86.59 273.66,-96.29 280.64,-96.83"/>
</g>
<!-- Node10 -->
<g id="node10" class="node">
<title>Node10</title>
<g id="a_node10"><a xlink:href="EdgeConstraint_8h.html" target="_top" xlink:title=" ">
<polygon fill="white" stroke="black" points="229,-0.5 229,-19.5 329,-19.5 329,-0.5 229,-0.5"/>
<text text-anchor="middle" x="279" y="-7.5" font-family="Helvetica,sans-Serif" font-size="10.00">EdgeConstraint.h</text>
</a>
</g>
</g>
<!-- Node9&#45;&gt;Node10 -->
<g id="edge9" class="edge">
<title>Node9&#45;&gt;Node10</title>
<path fill="none" stroke="midnightblue" d="M279,-56.4C279,-48.47 279,-38.46 279,-29.86"/>
<polygon fill="midnightblue" stroke="midnightblue" points="282.5,-29.66 279,-19.66 275.5,-29.66 282.5,-29.66"/>
</g>
<!-- Node11 -->
<g id="node11" class="node">
<title>Node11</title>
<g id="a_node11"><a xlink:href="VertexConstraint_8h.html" target="_top" xlink:title=" ">
<polygon fill="white" stroke="black" points="754.5,-0.5 754.5,-19.5 861.5,-19.5 861.5,-0.5 754.5,-0.5"/>
<text text-anchor="middle" x="808" y="-7.5" font-family="Helvetica,sans-Serif" font-size="10.00">VertexConstraint.h</text>
</a>
</g>
</g>
<!-- Node9&#45;&gt;Node11 -->
<g id="edge10" class="edge">
<title>Node9&#45;&gt;Node11</title>
<path fill="none" stroke="midnightblue" d="M349.25,-62.6C452.67,-50.97 644.39,-29.4 744.07,-18.19"/>
<polygon fill="midnightblue" stroke="midnightblue" points="744.76,-21.64 754.3,-17.04 743.97,-14.68 744.76,-21.64"/>
</g>
<!-- Node13 -->
<g id="node13" class="node">
<title>Node13</title>
<g id="a_node13"><a xlink:href="State_8h.html" target="_top" xlink:title=" ">
<polygon fill="white" stroke="black" points="459.5,-62 459.5,-81 510.5,-81 510.5,-62 459.5,-62"/>
<text text-anchor="middle" x="485" y="-69" font-family="Helvetica,sans-Serif" font-size="10.00">State.h</text>
</a>
</g>
</g>
<!-- Node12&#45;&gt;Node13 -->
<g id="edge13" class="edge">
<title>Node12&#45;&gt;Node13</title>
<path fill="none" stroke="midnightblue" d="M186.33,-128.94C255.63,-115.84 386.49,-91.11 449.43,-79.22"/>
<polygon fill="midnightblue" stroke="midnightblue" points="450.11,-82.65 459.29,-77.36 448.81,-75.78 450.11,-82.65"/>
</g>
<!-- Node14&#45;&gt;Node6 -->
<g id="edge27" class="edge">
<title>Node14&#45;&gt;Node6</title>
<path fill="none" stroke="midnightblue" d="M411.84,-326.5C355.14,-316.06 272.51,-300.85 210.32,-289.39"/>
<polygon fill="midnightblue" stroke="midnightblue" points="210.6,-285.89 200.13,-287.52 209.33,-292.77 210.6,-285.89"/>
</g>
<!-- Node15 -->
<g id="node15" class="node">
<title>Node15</title>
<g id="a_node15"><a xlink:href="ODMultiAgentAStarProblem_8h.html" target="_top" xlink:title=" ">
<polygon fill="white" stroke="black" points="407,-257.5 407,-287.5 547,-287.5 547,-257.5 407,-257.5"/>
<text text-anchor="start" x="415" y="-275.5" font-family="Helvetica,sans-Serif" font-size="10.00">../AStarProblems/ODMulti</text>
<text text-anchor="middle" x="477" y="-264.5" font-family="Helvetica,sans-Serif" font-size="10.00">AgentAStarProblem.h</text>
</a>
</g>
</g>
<!-- Node14&#45;&gt;Node15 -->
<g id="edge16" class="edge">
<title>Node14&#45;&gt;Node15</title>
<path fill="none" stroke="midnightblue" d="M477,-324.4C477,-316.64 477,-306.81 477,-297.86"/>
<polygon fill="midnightblue" stroke="midnightblue" points="480.5,-297.58 477,-287.58 473.5,-297.58 480.5,-297.58"/>
</g>
<!-- Node18 -->
<g id="node18" class="node">
<title>Node18</title>
<g id="a_node18"><a xlink:href="ODMultiAgentAStarProblemWithConstraints_8h.html" target="_top" xlink:title=" ">
<polygon fill="white" stroke="black" points="603.5,-257.5 603.5,-287.5 802.5,-287.5 802.5,-257.5 603.5,-257.5"/>
<text text-anchor="start" x="611.5" y="-275.5" font-family="Helvetica,sans-Serif" font-size="10.00">../AStarProblems/ODMulti</text>
<text text-anchor="middle" x="703" y="-264.5" font-family="Helvetica,sans-Serif" font-size="10.00">AgentAStarProblemWithConstraints.h</text>
</a>
</g>
</g>
<!-- Node14&#45;&gt;Node18 -->
<g id="edge22" class="edge">
<title>Node14&#45;&gt;Node18</title>
<path fill="none" stroke="midnightblue" d="M525.76,-324.48C560.54,-314.47 607.48,-300.97 644.32,-290.38"/>
<polygon fill="midnightblue" stroke="midnightblue" points="645.29,-293.74 653.94,-287.61 643.36,-287.01 645.29,-293.74"/>
</g>
<!-- Node20 -->
<g id="node20" class="node">
<title>Node20</title>
<g id="a_node20"><a xlink:href="SingleAgentAStarProblemWithConstraints_8h.html" target="_top" xlink:title=" ">
<polygon fill="white" stroke="black" points="219,-257.5 219,-287.5 389,-287.5 389,-257.5 219,-257.5"/>
<text text-anchor="start" x="227" y="-275.5" font-family="Helvetica,sans-Serif" font-size="10.00">../AStarProblems/SingleAgent</text>
<text text-anchor="middle" x="304" y="-264.5" font-family="Helvetica,sans-Serif" font-size="10.00">AStarProblemWithConstraints.h</text>
</a>
</g>
</g>
<!-- Node14&#45;&gt;Node20 -->
<g id="edge28" class="edge">
<title>Node14&#45;&gt;Node20</title>
<path fill="none" stroke="midnightblue" d="M439.46,-324.4C413.5,-314.64 378.78,-301.59 350.98,-291.15"/>
<polygon fill="midnightblue" stroke="midnightblue" points="352.06,-287.82 341.47,-287.58 349.6,-294.37 352.06,-287.82"/>
</g>
<!-- Node22 -->
<g id="node22" class="node">
<title>Node22</title>
<g id="a_node22"><a xlink:href="StandardMultiAgentAStarProblem_8h.html" target="_top" xlink:title=" ">
<polygon fill="white" stroke="black" points="821,-257.5 821,-287.5 967,-287.5 967,-257.5 821,-257.5"/>
<text text-anchor="start" x="829" y="-275.5" font-family="Helvetica,sans-Serif" font-size="10.00">../AStarProblems/Standard</text>
<text text-anchor="middle" x="894" y="-264.5" font-family="Helvetica,sans-Serif" font-size="10.00">MultiAgentAStarProblem.h</text>
</a>
</g>
</g>
<!-- Node14&#45;&gt;Node22 -->
<g id="edge33" class="edge">
<title>Node14&#45;&gt;Node22</title>
<path fill="none" stroke="midnightblue" d="M542.04,-329.12C607.22,-319.61 710.73,-304.24 810.72,-288.02"/>
<polygon fill="midnightblue" stroke="midnightblue" points="811.39,-291.46 820.69,-286.4 810.26,-284.55 811.39,-291.46"/>
</g>
<!-- Node24 -->
<g id="node24" class="node">
<title>Node24</title>
<g id="a_node24"><a xlink:href="StandardMultiAgentAStarProblemWithConstraints_8h.html" target="_top" xlink:title=" ">
<polygon fill="white" stroke="black" points="985,-257.5 985,-287.5 1209,-287.5 1209,-257.5 985,-257.5"/>
<text text-anchor="start" x="993" y="-275.5" font-family="Helvetica,sans-Serif" font-size="10.00">../AStarProblems/Standard</text>
<text text-anchor="middle" x="1097" y="-264.5" font-family="Helvetica,sans-Serif" font-size="10.00">MultiAgentAStarProblemWithConstraints.h</text>
</a>
</g>
</g>
<!-- Node14&#45;&gt;Node24 -->
<g id="edge38" class="edge">
<title>Node14&#45;&gt;Node24</title>
<path fill="none" stroke="midnightblue" d="M542.03,-332.3C635.36,-323.33 812.96,-305.92 974.8,-288.12"/>
<polygon fill="midnightblue" stroke="midnightblue" points="975.38,-291.58 984.94,-287 974.62,-284.62 975.38,-291.58"/>
</g>
<!-- Node15&#45;&gt;Node2 -->
<g id="edge21" class="edge">
<title>Node15&#45;&gt;Node2</title>
<path fill="none" stroke="midnightblue" d="M490.45,-257.4C498.66,-248.79 509.31,-237.63 518.55,-227.94"/>
<polygon fill="midnightblue" stroke="midnightblue" points="521.2,-230.23 525.57,-220.58 516.14,-225.4 521.2,-230.23"/>
</g>
<!-- Node16 -->
<g id="node16" class="node">
<title>Node16</title>
<g id="a_node16"><a xlink:href="MultiAgentProblem_8h.html" target="_top" xlink:title=" ">
<polygon fill="white" stroke="black" points="610.5,-196 610.5,-215 787.5,-215 787.5,-196 610.5,-196"/>
<text text-anchor="middle" x="699" y="-203" font-family="Helvetica,sans-Serif" font-size="10.00">../Problems/MultiAgentProblem.h</text>
</a>
</g>
</g>
<!-- Node15&#45;&gt;Node16 -->
<g id="edge17" class="edge">
<title>Node15&#45;&gt;Node16</title>
<path fill="none" stroke="midnightblue" d="M524.9,-257.48C565.21,-245.67 622.15,-229 659.8,-217.98"/>
<polygon fill="midnightblue" stroke="midnightblue" points="661.26,-221.2 669.87,-215.03 659.29,-214.48 661.26,-221.2"/>
</g>
<!-- Node17 -->
<g id="node17" class="node">
<title>Node17</title>
<g id="a_node17"><a xlink:href="ODMultiAgentState_8h.html" target="_top" xlink:title=" ">
<polygon fill="white" stroke="black" points="491,-129 491,-148 653,-148 653,-129 491,-129"/>
<text text-anchor="middle" x="572" y="-136" font-family="Helvetica,sans-Serif" font-size="10.00">../States/ODMultiAgentState.h</text>
</a>
</g>
</g>
<!-- Node15&#45;&gt;Node17 -->
<g id="edge19" class="edge">
<title>Node15&#45;&gt;Node17</title>
<path fill="none" stroke="midnightblue" d="M472.61,-257.36C468.14,-240.12 463.49,-210.71 476,-190 487.24,-171.38 507.88,-159.29 527.15,-151.61"/>
<polygon fill="midnightblue" stroke="midnightblue" points="528.56,-154.82 536.74,-148.1 526.15,-148.25 528.56,-154.82"/>
</g>
<!-- Node16&#45;&gt;Node8 -->
<g id="edge18" class="edge">
<title>Node16&#45;&gt;Node8</title>
<path fill="none" stroke="midnightblue" d="M642.8,-195.98C629.13,-193.96 614.55,-191.86 601,-190 474.51,-172.66 440.34,-182.99 316,-154 312.59,-153.21 309.07,-152.24 305.59,-151.18"/>
<polygon fill="midnightblue" stroke="midnightblue" points="306.57,-147.82 295.98,-148.05 304.4,-154.48 306.57,-147.82"/>
</g>
<!-- Node17&#45;&gt;Node13 -->
<g id="edge20" class="edge">
<title>Node17&#45;&gt;Node13</title>
<path fill="none" stroke="midnightblue" d="M560.27,-128.73C546.05,-118.11 521.87,-100.05 504.76,-87.26"/>
<polygon fill="midnightblue" stroke="midnightblue" points="506.65,-84.31 496.55,-81.13 502.46,-89.92 506.65,-84.31"/>
</g>
<!-- Node18&#45;&gt;Node2 -->
<g id="edge26" class="edge">
<title>Node18&#45;&gt;Node2</title>
<path fill="none" stroke="midnightblue" d="M667.41,-257.4C642.91,-247.69 610.17,-234.71 583.88,-224.29"/>
<polygon fill="midnightblue" stroke="midnightblue" points="585.1,-221.01 574.52,-220.58 582.52,-227.51 585.1,-221.01"/>
</g>
<!-- Node18&#45;&gt;Node16 -->
<g id="edge23" class="edge">
<title>Node18&#45;&gt;Node16</title>
<path fill="none" stroke="midnightblue" d="M702.13,-257.4C701.55,-247.96 700.78,-235.45 700.15,-225.19"/>
<polygon fill="midnightblue" stroke="midnightblue" points="703.64,-224.96 699.54,-215.19 696.66,-225.39 703.64,-224.96"/>
</g>
<!-- Node19 -->
<g id="node19" class="node">
<title>Node19</title>
<g id="a_node19"><a xlink:href="ODMultiAgentSpaceTimeState_8h.html" target="_top" xlink:title=" ">
<polygon fill="white" stroke="black" points="805.5,-190.5 805.5,-220.5 962.5,-220.5 962.5,-190.5 805.5,-190.5"/>
<text text-anchor="start" x="813.5" y="-208.5" font-family="Helvetica,sans-Serif" font-size="10.00">../States/ODMultiAgentSpace</text>
<text text-anchor="middle" x="884" y="-197.5" font-family="Helvetica,sans-Serif" font-size="10.00">TimeState.h</text>
</a>
</g>
</g>
<!-- Node18&#45;&gt;Node19 -->
<g id="edge24" class="edge">
<title>Node18&#45;&gt;Node19</title>
<path fill="none" stroke="midnightblue" d="M742.27,-257.4C769.55,-247.6 806.08,-234.48 835.23,-224.02"/>
<polygon fill="midnightblue" stroke="midnightblue" points="836.57,-227.25 844.8,-220.58 834.21,-220.66 836.57,-227.25"/>
</g>
<!-- Node19&#45;&gt;Node17 -->
<g id="edge25" class="edge">
<title>Node19&#45;&gt;Node17</title>
<path fill="none" stroke="midnightblue" d="M816.68,-190.48C758.46,-178.34 675.54,-161.07 622.75,-150.07"/>
<polygon fill="midnightblue" stroke="midnightblue" points="623.44,-146.64 612.94,-148.03 622.01,-153.49 623.44,-146.64"/>
</g>
<!-- Node20&#45;&gt;Node2 -->
<g id="edge32" class="edge">
<title>Node20&#45;&gt;Node2</title>
<path fill="none" stroke="midnightblue" d="M354.7,-257.48C390.87,-247.47 439.68,-233.97 477.98,-223.38"/>
<polygon fill="midnightblue" stroke="midnightblue" points="479.28,-226.65 487.98,-220.61 477.41,-219.9 479.28,-226.65"/>
</g>
<!-- Node20&#45;&gt;Node7 -->
<g id="edge29" class="edge">
<title>Node20&#45;&gt;Node7</title>
<path fill="none" stroke="midnightblue" d="M297.49,-257.4C293.04,-247.76 287.11,-234.91 282.32,-224.54"/>
<polygon fill="midnightblue" stroke="midnightblue" points="285.38,-222.81 278.01,-215.19 279.03,-225.74 285.38,-222.81"/>
</g>
<!-- Node21 -->
<g id="node21" class="node">
<title>Node21</title>
<g id="a_node21"><a xlink:href="SingleAgentSpaceTimeState_8h.html" target="_top" xlink:title=" ">
<polygon fill="white" stroke="black" points="325.5,-123.5 325.5,-153.5 472.5,-153.5 472.5,-123.5 325.5,-123.5"/>
<text text-anchor="start" x="333.5" y="-141.5" font-family="Helvetica,sans-Serif" font-size="10.00">../States/SingleAgentSpace</text>
<text text-anchor="middle" x="399" y="-130.5" font-family="Helvetica,sans-Serif" font-size="10.00">TimeState.h</text>
</a>
</g>
</g>
<!-- Node20&#45;&gt;Node21 -->
<g id="edge30" class="edge">
<title>Node20&#45;&gt;Node21</title>
<path fill="none" stroke="midnightblue" d="M331.66,-257.32C346.14,-248.62 363.09,-236.23 374,-221 386.21,-203.96 392.56,-180.84 395.8,-163.57"/>
<polygon fill="midnightblue" stroke="midnightblue" points="399.25,-164.12 397.44,-153.68 392.35,-162.98 399.25,-164.12"/>
</g>
<!-- Node21&#45;&gt;Node13 -->
<g id="edge31" class="edge">
<title>Node21&#45;&gt;Node13</title>
<path fill="none" stroke="midnightblue" d="M417.66,-123.4C431.73,-112.76 450.99,-98.2 465.31,-87.38"/>
<polygon fill="midnightblue" stroke="midnightblue" points="467.63,-90.02 473.5,-81.19 463.41,-84.43 467.63,-90.02"/>
</g>
<!-- Node22&#45;&gt;Node2 -->
<g id="edge37" class="edge">
<title>Node22&#45;&gt;Node2</title>
<path fill="none" stroke="midnightblue" d="M820.68,-258.68C817.41,-258.11 814.17,-257.55 811,-257 720.79,-241.39 695.47,-239.88 602.54,-221.25"/>
<polygon fill="midnightblue" stroke="midnightblue" points="603.22,-217.82 592.73,-219.27 601.84,-224.68 603.22,-217.82"/>
</g>
<!-- Node22&#45;&gt;Node16 -->
<g id="edge34" class="edge">
<title>Node22&#45;&gt;Node16</title>
<path fill="none" stroke="midnightblue" d="M851.69,-257.4C816.56,-245.69 767.19,-229.23 734.2,-218.23"/>
<polygon fill="midnightblue" stroke="midnightblue" points="735.11,-214.85 724.52,-215.01 732.9,-221.49 735.11,-214.85"/>
</g>
<!-- Node23 -->
<g id="node23" class="node">
<title>Node23</title>
<g id="a_node23"><a xlink:href="StandardMultiAgentState_8h.html" target="_top" xlink:title=" ">
<polygon fill="white" stroke="black" points="913,-123.5 913,-153.5 1069,-153.5 1069,-123.5 913,-123.5"/>
<text text-anchor="start" x="921" y="-141.5" font-family="Helvetica,sans-Serif" font-size="10.00">../States/StandardMultiAgent</text>
<text text-anchor="middle" x="991" y="-130.5" font-family="Helvetica,sans-Serif" font-size="10.00">State.h</text>
</a>
</g>
</g>
<!-- Node22&#45;&gt;Node23 -->
<g id="edge35" class="edge">
<title>Node22&#45;&gt;Node23</title>
<path fill="none" stroke="midnightblue" d="M927.23,-257.3C943.03,-248.92 960.87,-236.84 972,-221 983.72,-204.33 988.3,-181.46 990.05,-164.18"/>
<polygon fill="midnightblue" stroke="midnightblue" points="993.57,-164 990.83,-153.77 986.59,-163.47 993.57,-164"/>
</g>
<!-- Node23&#45;&gt;Node13 -->
<g id="edge36" class="edge">
<title>Node23&#45;&gt;Node13</title>
<path fill="none" stroke="midnightblue" d="M912.77,-127.45C801.53,-113.16 602.14,-87.55 520.92,-77.11"/>
<polygon fill="midnightblue" stroke="midnightblue" points="521.07,-73.61 510.71,-75.8 520.18,-80.55 521.07,-73.61"/>
</g>
<!-- Node24&#45;&gt;Node2 -->
<g id="edge42" class="edge">
<title>Node24&#45;&gt;Node2</title>
<path fill="none" stroke="midnightblue" d="M984.94,-257.98C981.93,-257.64 978.94,-257.32 976,-257 812.78,-239.39 767.96,-247.78 602.7,-221.15"/>
<polygon fill="midnightblue" stroke="midnightblue" points="603.11,-217.67 592.68,-219.52 601.99,-224.58 603.11,-217.67"/>
</g>
<!-- Node24&#45;&gt;Node16 -->
<g id="edge39" class="edge">
<title>Node24&#45;&gt;Node16</title>
<path fill="none" stroke="midnightblue" d="M1011.13,-257.48C935.92,-245.19 828.44,-227.64 761.24,-216.67"/>
<polygon fill="midnightblue" stroke="midnightblue" points="761.66,-213.19 751.22,-215.03 760.53,-220.09 761.66,-213.19"/>
</g>
<!-- Node25 -->
<g id="node25" class="node">
<title>Node25</title>
<g id="a_node25"><a xlink:href="StandardMultiAgentSpaceTimeState_8h.html" target="_top" xlink:title=" ">
<polygon fill="white" stroke="black" points="1019,-190.5 1019,-220.5 1175,-220.5 1175,-190.5 1019,-190.5"/>
<text text-anchor="start" x="1027" y="-208.5" font-family="Helvetica,sans-Serif" font-size="10.00">../States/StandardMultiAgent</text>
<text text-anchor="middle" x="1097" y="-197.5" font-family="Helvetica,sans-Serif" font-size="10.00">SpaceTimeState.h</text>
</a>
</g>
</g>
<!-- Node24&#45;&gt;Node25 -->
<g id="edge40" class="edge">
<title>Node24&#45;&gt;Node25</title>
<path fill="none" stroke="midnightblue" d="M1097,-257.4C1097,-249.64 1097,-239.81 1097,-230.86"/>
<polygon fill="midnightblue" stroke="midnightblue" points="1100.5,-230.58 1097,-220.58 1093.5,-230.58 1100.5,-230.58"/>
</g>
<!-- Node25&#45;&gt;Node23 -->
<g id="edge41" class="edge">
<title>Node25&#45;&gt;Node23</title>
<path fill="none" stroke="midnightblue" d="M1074,-190.4C1059,-181.2 1039.21,-169.07 1022.73,-158.95"/>
<polygon fill="midnightblue" stroke="midnightblue" points="1024.31,-155.82 1013.96,-153.58 1020.65,-161.79 1024.31,-155.82"/>
</g>
<!-- Node27&#45;&gt;Node11 -->
<g id="edge46" class="edge">
<title>Node27&#45;&gt;Node11</title>
<path fill="none" stroke="midnightblue" d="M1014.12,-403.34C1098.34,-396.71 1237,-370.98 1237,-273.5 1237,-273.5 1237,-273.5 1237,-137.5 1237,-62.33 991.63,-28.51 872.03,-16.48"/>
<polygon fill="midnightblue" stroke="midnightblue" points="872.19,-12.98 861.9,-15.49 871.51,-19.95 872.19,-12.98"/>
</g>
</g>
</svg>
