<?xml version="1.0" encoding="UTF-8" standalone="no"?>
<!DOCTYPE svg PUBLIC "-//W3C//DTD SVG 1.1//EN"
 "http://www.w3.org/Graphics/SVG/1.1/DTD/svg11.dtd">
<!-- Generated by graphviz version 2.43.0 (0)
 -->
<!-- Title: AStarProblem.h Pages: 1 -->
<svg width="1431pt" height="610pt"
 viewBox="0.00 0.00 1430.50 610.00" xmlns="http://www.w3.org/2000/svg" xmlns:xlink="http://www.w3.org/1999/xlink">
<g id="graph0" class="graph" transform="scale(1 1) rotate(0) translate(4 606)">
<title>AStarProblem.h</title>
<polygon fill="white" stroke="transparent" points="-4,4 -4,-606 1426.5,-606 1426.5,4 -4,4"/>
<!-- Node1 -->
<g id="node1" class="node">
<title>Node1</title>
<g id="a_node1"><a xlink:title=" ">
<polygon fill="#bfbfbf" stroke="black" points="589.5,-582.5 589.5,-601.5 681.5,-601.5 681.5,-582.5 589.5,-582.5"/>
<text text-anchor="middle" x="635.5" y="-589.5" font-family="Helvetica,sans-Serif" font-size="10.00">AStarProblem.h</text>
</a>
</g>
</g>
<!-- Node2 -->
<g id="node2" class="node">
<title>Node2</title>
<g id="a_node2"><a xlink:href="ODMultiAgentAStarProblem_8h.html" target="_top" xlink:title=" ">
<polygon fill="white" stroke="black" points="380,-521 380,-540 541,-540 541,-521 380,-521"/>
<text text-anchor="middle" x="460.5" y="-528" font-family="Helvetica,sans-Serif" font-size="10.00">ODMultiAgentAStarProblem.h</text>
</a>
</g>
</g>
<!-- Node1&#45;&gt;Node2 -->
<g id="edge1" class="edge">
<title>Node1&#45;&gt;Node2</title>
<path fill="none" stroke="midnightblue" d="M600.89,-579.23C566.87,-567.67 515.78,-550.3 485.53,-540.01"/>
<polygon fill="midnightblue" stroke="midnightblue" points="599.83,-582.57 610.43,-582.48 602.09,-575.94 599.83,-582.57"/>
</g>
<!-- Node6 -->
<g id="node6" class="node">
<title>Node6</title>
<g id="a_node6"><a xlink:href="AStar_8h.html" target="_top" xlink:title=" ">
<polygon fill="white" stroke="black" points="230,-280.5 230,-299.5 281,-299.5 281,-280.5 230,-280.5"/>
<text text-anchor="middle" x="255.5" y="-287.5" font-family="Helvetica,sans-Serif" font-size="10.00">AStar.h</text>
</a>
</g>
</g>
<!-- Node1&#45;&gt;Node6 -->
<g id="edge34" class="edge">
<title>Node1&#45;&gt;Node6</title>
<path fill="none" stroke="midnightblue" d="M579.43,-589.01C478.11,-584.79 268.79,-573.01 201.5,-546 146.68,-524 96.5,-523.57 96.5,-464.5 96.5,-464.5 96.5,-464.5 96.5,-401 96.5,-336.89 185.01,-307.21 229.95,-296.27"/>
<polygon fill="midnightblue" stroke="midnightblue" points="579.35,-592.51 589.48,-589.42 579.63,-585.51 579.35,-592.51"/>
</g>
<!-- Node17 -->
<g id="node17" class="node">
<title>Node17</title>
<g id="a_node17"><a xlink:href="ODMultiAgentAStarProblemWithConstraints_8h.html" target="_top" xlink:title=" ">
<polygon fill="white" stroke="black" points="559.5,-515.5 559.5,-545.5 711.5,-545.5 711.5,-515.5 559.5,-515.5"/>
<text text-anchor="start" x="567.5" y="-533.5" font-family="Helvetica,sans-Serif" font-size="10.00">ODMultiAgentAStarProblem</text>
<text text-anchor="middle" x="635.5" y="-522.5" font-family="Helvetica,sans-Serif" font-size="10.00">WithConstraints.h</text>
</a>
</g>
</g>
<!-- Node1&#45;&gt;Node17 -->
<g id="edge18" class="edge">
<title>Node1&#45;&gt;Node17</title>
<path fill="none" stroke="midnightblue" d="M635.5,-572.23C635.5,-563.59 635.5,-553.5 635.5,-545.52"/>
<polygon fill="midnightblue" stroke="midnightblue" points="632,-572.48 635.5,-582.48 639,-572.48 632,-572.48"/>
</g>
<!-- Node19 -->
<g id="node19" class="node">
<title>Node19</title>
<g id="a_node19"><a xlink:href="SingleAgentAStarProblem_8h.html" target="_top" xlink:title=" ">
<polygon fill="white" stroke="black" points="211,-521 211,-540 362,-540 362,-521 211,-521"/>
<text text-anchor="middle" x="286.5" y="-528" font-family="Helvetica,sans-Serif" font-size="10.00">SingleAgentAStarProblem.h</text>
</a>
</g>
</g>
<!-- Node1&#45;&gt;Node19 -->
<g id="edge21" class="edge">
<title>Node1&#45;&gt;Node19</title>
<path fill="none" stroke="midnightblue" d="M579.06,-581.46C525.41,-572.38 442.45,-558.32 370.5,-546 359.27,-544.08 347.19,-542 335.8,-540.03"/>
<polygon fill="midnightblue" stroke="midnightblue" points="578.62,-584.94 589.06,-583.15 579.78,-578.03 578.62,-584.94"/>
</g>
<!-- Node21 -->
<g id="node21" class="node">
<title>Node21</title>
<g id="a_node21"><a xlink:href="SingleAgentAStarProblemWithConstraints_8h.html" target="_top" xlink:title=" ">
<polygon fill="white" stroke="black" points="729.5,-515.5 729.5,-545.5 893.5,-545.5 893.5,-515.5 729.5,-515.5"/>
<text text-anchor="start" x="737.5" y="-533.5" font-family="Helvetica,sans-Serif" font-size="10.00">SingleAgentAStarProblemWith</text>
<text text-anchor="middle" x="811.5" y="-522.5" font-family="Helvetica,sans-Serif" font-size="10.00">Constraints.h</text>
</a>
</g>
</g>
<!-- Node1&#45;&gt;Node21 -->
<g id="edge25" class="edge">
<title>Node1&#45;&gt;Node21</title>
<path fill="none" stroke="midnightblue" d="M670.31,-579.23C698.97,-569.54 739.68,-555.78 770.02,-545.52"/>
<polygon fill="midnightblue" stroke="midnightblue" points="669.07,-575.96 660.72,-582.48 671.31,-582.59 669.07,-575.96"/>
</g>
<!-- Node23 -->
<g id="node23" class="node">
<title>Node23</title>
<g id="a_node23"><a xlink:href="StandardMultiAgentAStarProblem_8h.html" target="_top" xlink:title=" ">
<polygon fill="white" stroke="black" points="912,-521 912,-540 1101,-540 1101,-521 912,-521"/>
<text text-anchor="middle" x="1006.5" y="-528" font-family="Helvetica,sans-Serif" font-size="10.00">StandardMultiAgentAStarProblem.h</text>
</a>
</g>
</g>
<!-- Node1&#45;&gt;Node23 -->
<g id="edge28" class="edge">
<title>Node1&#45;&gt;Node23</title>
<path fill="none" stroke="midnightblue" d="M691.84,-581.97C762.83,-570.58 883.94,-551.16 953.38,-540.02"/>
<polygon fill="midnightblue" stroke="midnightblue" points="691.06,-578.55 681.74,-583.58 692.17,-585.46 691.06,-578.55"/>
</g>
<!-- Node25 -->
<g id="node25" class="node">
<title>Node25</title>
<g id="a_node25"><a xlink:href="StandardMultiAgentAStarProblemWithConstraints_8h.html" target="_top" xlink:title=" ">
<polygon fill="white" stroke="black" points="1119.5,-515.5 1119.5,-545.5 1299.5,-545.5 1299.5,-515.5 1119.5,-515.5"/>
<text text-anchor="start" x="1127.5" y="-533.5" font-family="Helvetica,sans-Serif" font-size="10.00">StandardMultiAgentAStarProblem</text>
<text text-anchor="middle" x="1209.5" y="-522.5" font-family="Helvetica,sans-Serif" font-size="10.00">WithConstraints.h</text>
</a>
</g>
</g>
<!-- Node1&#45;&gt;Node25 -->
<g id="edge31" class="edge">
<title>Node1&#45;&gt;Node25</title>
<path fill="none" stroke="midnightblue" d="M691.92,-586.59C781,-579.42 959.6,-564.19 1110.5,-546 1113.43,-545.65 1116.41,-545.28 1119.42,-544.89"/>
<polygon fill="midnightblue" stroke="midnightblue" points="691.46,-583.12 681.77,-587.4 692.02,-590.09 691.46,-583.12"/>
</g>
<!-- Node3 -->
<g id="node3" class="node">
<title>Node3</title>
<g id="a_node3"><a xlink:href="ODMultiAgentAStarProblem_8cpp.html" target="_top" xlink:title=" ">
<polygon fill="white" stroke="black" points="342.5,-454 342.5,-473 514.5,-473 514.5,-454 342.5,-454"/>
<text text-anchor="middle" x="428.5" y="-461" font-family="Helvetica,sans-Serif" font-size="10.00">ODMultiAgentAStarProblem.cpp</text>
</a>
</g>
</g>
<!-- Node2&#45;&gt;Node3 -->
<g id="edge2" class="edge">
<title>Node2&#45;&gt;Node3</title>
<path fill="none" stroke="midnightblue" d="M451.72,-511.66C445.55,-499.13 437.56,-482.91 432.75,-473.13"/>
<polygon fill="midnightblue" stroke="midnightblue" points="448.63,-513.31 456.18,-520.73 454.91,-510.22 448.63,-513.31"/>
</g>
<!-- Node4 -->
<g id="node4" class="node">
<title>Node4</title>
<g id="a_node4"><a xlink:href="HeuristicManhattan_8h.html" target="_top" xlink:title=" ">
<polygon fill="white" stroke="black" points="702.5,-454 702.5,-473 824.5,-473 824.5,-454 702.5,-454"/>
<text text-anchor="middle" x="763.5" y="-461" font-family="Helvetica,sans-Serif" font-size="10.00">HeuristicManhattan.h</text>
</a>
</g>
</g>
<!-- Node2&#45;&gt;Node4 -->
<g id="edge3" class="edge">
<title>Node2&#45;&gt;Node4</title>
<path fill="none" stroke="midnightblue" d="M510.36,-518.8C569.99,-506.01 668.6,-484.86 723.49,-473.08"/>
<polygon fill="midnightblue" stroke="midnightblue" points="509.47,-515.42 500.42,-520.94 510.94,-522.26 509.47,-515.42"/>
</g>
<!-- Node5 -->
<g id="node5" class="node">
<title>Node5</title>
<g id="a_node5"><a xlink:href="HeuristicOptimal_8h.html" target="_top" xlink:title=" ">
<polygon fill="white" stroke="black" points="504.5,-336.5 504.5,-355.5 612.5,-355.5 612.5,-336.5 504.5,-336.5"/>
<text text-anchor="middle" x="558.5" y="-343.5" font-family="Helvetica,sans-Serif" font-size="10.00">HeuristicOptimal.h</text>
</a>
</g>
</g>
<!-- Node4&#45;&gt;Node5 -->
<g id="edge4" class="edge">
<title>Node4&#45;&gt;Node5</title>
<path fill="none" stroke="midnightblue" d="M739.21,-448.81C696.49,-424.75 609.11,-375.52 573.81,-355.62"/>
<polygon fill="midnightblue" stroke="midnightblue" points="737.66,-451.96 748.09,-453.82 741.1,-445.86 737.66,-451.96"/>
</g>
<!-- Node15 -->
<g id="node15" class="node">
<title>Node15</title>
<g id="a_node15"><a xlink:href="ReverseResumableAStar_8h.html" target="_top" xlink:title=" ">
<polygon fill="white" stroke="black" points="402.5,-392.5 402.5,-411.5 548.5,-411.5 548.5,-392.5 402.5,-392.5"/>
<text text-anchor="middle" x="475.5" y="-399.5" font-family="Helvetica,sans-Serif" font-size="10.00">ReverseResumableAStar.h</text>
</a>
</g>
</g>
<!-- Node4&#45;&gt;Node15 -->
<g id="edge15" class="edge">
<title>Node4&#45;&gt;Node15</title>
<path fill="none" stroke="midnightblue" d="M712.47,-451.93C706.09,-450.6 699.64,-449.27 693.5,-448 632,-435.28 560.74,-420.58 516.89,-411.53"/>
<polygon fill="midnightblue" stroke="midnightblue" points="711.91,-455.38 722.41,-453.98 713.33,-448.53 711.91,-455.38"/>
</g>
<!-- Node5&#45;&gt;Node6 -->
<g id="edge5" class="edge">
<title>Node5&#45;&gt;Node6</title>
<path fill="none" stroke="midnightblue" d="M500.24,-334.62C434.21,-322.85 329.53,-304.19 281.34,-295.6"/>
<polygon fill="midnightblue" stroke="midnightblue" points="500.03,-338.13 510.49,-336.44 501.26,-331.24 500.03,-338.13"/>
</g>
<!-- Node7 -->
<g id="node7" class="node">
<title>Node7</title>
<g id="a_node7"><a xlink:href="GeneralAStar_8h.html" target="_top" xlink:title=" ">
<polygon fill="white" stroke="black" points="152,-224.5 152,-243.5 241,-243.5 241,-224.5 152,-224.5"/>
<text text-anchor="middle" x="196.5" y="-231.5" font-family="Helvetica,sans-Serif" font-size="10.00">GeneralAStar.h</text>
</a>
</g>
</g>
<!-- Node6&#45;&gt;Node7 -->
<g id="edge6" class="edge">
<title>Node6&#45;&gt;Node7</title>
<path fill="none" stroke="midnightblue" d="M238.61,-273.54C228.09,-263.91 214.93,-251.87 206.15,-243.83"/>
<polygon fill="midnightblue" stroke="midnightblue" points="236.28,-276.15 246.02,-280.32 241.01,-270.99 236.28,-276.15"/>
</g>
<!-- Node14 -->
<g id="node14" class="node">
<title>Node14</title>
<g id="a_node14"><a xlink:href="CooperativeAStar_8h.html" target="_top" xlink:title=" ">
<polygon fill="white" stroke="black" points="259.5,-224.5 259.5,-243.5 369.5,-243.5 369.5,-224.5 259.5,-224.5"/>
<text text-anchor="middle" x="314.5" y="-231.5" font-family="Helvetica,sans-Serif" font-size="10.00">CooperativeAStar.h</text>
</a>
</g>
</g>
<!-- Node6&#45;&gt;Node14 -->
<g id="edge14" class="edge">
<title>Node6&#45;&gt;Node14</title>
<path fill="none" stroke="midnightblue" d="M272.39,-273.54C282.91,-263.91 296.07,-251.87 304.85,-243.83"/>
<polygon fill="midnightblue" stroke="midnightblue" points="269.99,-270.99 264.98,-280.32 274.72,-276.15 269.99,-270.99"/>
</g>
<!-- Node8 -->
<g id="node8" class="node">
<title>Node8</title>
<g id="a_node8"><a xlink:href="ConflictBasedSearch_8h.html" target="_top" xlink:title=" ">
<polygon fill="white" stroke="black" points="89,-168.5 89,-187.5 214,-187.5 214,-168.5 89,-168.5"/>
<text text-anchor="middle" x="151.5" y="-175.5" font-family="Helvetica,sans-Serif" font-size="10.00">ConflictBasedSearch.h</text>
</a>
</g>
</g>
<!-- Node7&#45;&gt;Node8 -->
<g id="edge7" class="edge">
<title>Node7&#45;&gt;Node8</title>
<path fill="none" stroke="midnightblue" d="M182.45,-216.14C174.61,-206.74 165.17,-195.4 158.79,-187.75"/>
<polygon fill="midnightblue" stroke="midnightblue" points="179.98,-218.64 189.07,-224.08 185.36,-214.16 179.98,-218.64"/>
</g>
<!-- Node10 -->
<g id="node10" class="node">
<title>Node10</title>
<g id="a_node10"><a xlink:href="SimpleIndependenceDetection_8h.html" target="_top" xlink:title=" ">
<polygon fill="white" stroke="black" points="155,-112.5 155,-131.5 330,-131.5 330,-112.5 155,-112.5"/>
<text text-anchor="middle" x="242.5" y="-119.5" font-family="Helvetica,sans-Serif" font-size="10.00">SimpleIndependenceDetection.h</text>
</a>
</g>
</g>
<!-- Node7&#45;&gt;Node10 -->
<g id="edge13" class="edge">
<title>Node7&#45;&gt;Node10</title>
<path fill="none" stroke="midnightblue" d="M207.7,-215.74C212.68,-207.56 218.35,-197.51 222.5,-188 230.99,-168.52 237.43,-144.3 240.5,-131.63"/>
<polygon fill="midnightblue" stroke="midnightblue" points="204.65,-214.02 202.29,-224.34 210.58,-217.74 204.65,-214.02"/>
</g>
<!-- Node9 -->
<g id="node9" class="node">
<title>Node9</title>
<g id="a_node9"><a xlink:href="ConflictBasedSearch_8cpp.html" target="_top" xlink:title=" ">
<polygon fill="white" stroke="black" points="0,-112.5 0,-131.5 137,-131.5 137,-112.5 0,-112.5"/>
<text text-anchor="middle" x="68.5" y="-119.5" font-family="Helvetica,sans-Serif" font-size="10.00">ConflictBasedSearch.cpp</text>
</a>
</g>
</g>
<!-- Node8&#45;&gt;Node9 -->
<g id="edge8" class="edge">
<title>Node8&#45;&gt;Node9</title>
<path fill="none" stroke="midnightblue" d="M129.4,-162.62C114.24,-152.76 94.62,-139.99 81.8,-131.65"/>
<polygon fill="midnightblue" stroke="midnightblue" points="127.87,-165.8 138.16,-168.32 131.69,-159.94 127.87,-165.8"/>
</g>
<!-- Node8&#45;&gt;Node10 -->
<g id="edge9" class="edge">
<title>Node8&#45;&gt;Node10</title>
<path fill="none" stroke="midnightblue" d="M174.79,-163.18C191.54,-153.24 213.6,-140.15 227.92,-131.65"/>
<polygon fill="midnightblue" stroke="midnightblue" points="172.93,-160.21 166.12,-168.32 176.51,-166.23 172.93,-160.21"/>
</g>
<!-- Node11 -->
<g id="node11" class="node">
<title>Node11</title>
<g id="a_node11"><a xlink:href="IndependenceDetection_8h.html" target="_top" xlink:title=" ">
<polygon fill="white" stroke="black" points="81,-56.5 81,-75.5 222,-75.5 222,-56.5 81,-56.5"/>
<text text-anchor="middle" x="151.5" y="-63.5" font-family="Helvetica,sans-Serif" font-size="10.00">IndependenceDetection.h</text>
</a>
</g>
</g>
<!-- Node10&#45;&gt;Node11 -->
<g id="edge10" class="edge">
<title>Node10&#45;&gt;Node11</title>
<path fill="none" stroke="midnightblue" d="M219.21,-107.18C202.46,-97.24 180.4,-84.15 166.08,-75.65"/>
<polygon fill="midnightblue" stroke="midnightblue" points="217.49,-110.23 227.88,-112.32 221.07,-104.21 217.49,-110.23"/>
</g>
<!-- Node13 -->
<g id="node13" class="node">
<title>Node13</title>
<g id="a_node13"><a xlink:href="SimpleIndependenceDetection_8cpp.html" target="_top" xlink:title=" ">
<polygon fill="white" stroke="black" points="240.5,-56.5 240.5,-75.5 426.5,-75.5 426.5,-56.5 240.5,-56.5"/>
<text text-anchor="middle" x="333.5" y="-63.5" font-family="Helvetica,sans-Serif" font-size="10.00">SimpleIndependenceDetection.cpp</text>
</a>
</g>
</g>
<!-- Node10&#45;&gt;Node13 -->
<g id="edge12" class="edge">
<title>Node10&#45;&gt;Node13</title>
<path fill="none" stroke="midnightblue" d="M265.79,-107.18C282.54,-97.24 304.6,-84.15 318.92,-75.65"/>
<polygon fill="midnightblue" stroke="midnightblue" points="263.93,-104.21 257.12,-112.32 267.51,-110.23 263.93,-104.21"/>
</g>
<!-- Node12 -->
<g id="node12" class="node">
<title>Node12</title>
<g id="a_node12"><a xlink:href="IndependenceDetection_8cpp.html" target="_top" xlink:title=" ">
<polygon fill="white" stroke="black" points="75.5,-0.5 75.5,-19.5 227.5,-19.5 227.5,-0.5 75.5,-0.5"/>
<text text-anchor="middle" x="151.5" y="-7.5" font-family="Helvetica,sans-Serif" font-size="10.00">IndependenceDetection.cpp</text>
</a>
</g>
</g>
<!-- Node11&#45;&gt;Node12 -->
<g id="edge11" class="edge">
<title>Node11&#45;&gt;Node12</title>
<path fill="none" stroke="midnightblue" d="M151.5,-45.8C151.5,-36.91 151.5,-26.78 151.5,-19.75"/>
<polygon fill="midnightblue" stroke="midnightblue" points="148,-46.08 151.5,-56.08 155,-46.08 148,-46.08"/>
</g>
<!-- Node15&#45;&gt;Node5 -->
<g id="edge16" class="edge">
<title>Node15&#45;&gt;Node5</title>
<path fill="none" stroke="midnightblue" d="M497.6,-386.62C512.76,-376.76 532.38,-363.99 545.2,-355.65"/>
<polygon fill="midnightblue" stroke="midnightblue" points="495.31,-383.94 488.84,-392.32 499.13,-389.8 495.31,-383.94"/>
</g>
<!-- Node16 -->
<g id="node16" class="node">
<title>Node16</title>
<g id="a_node16"><a xlink:href="ReverseResumableAStar_8cpp.html" target="_top" xlink:title=" ">
<polygon fill="white" stroke="black" points="329,-336.5 329,-355.5 486,-355.5 486,-336.5 329,-336.5"/>
<text text-anchor="middle" x="407.5" y="-343.5" font-family="Helvetica,sans-Serif" font-size="10.00">ReverseResumableAStar.cpp</text>
</a>
</g>
</g>
<!-- Node15&#45;&gt;Node16 -->
<g id="edge17" class="edge">
<title>Node15&#45;&gt;Node16</title>
<path fill="none" stroke="midnightblue" d="M456.74,-386.1C444.5,-376.38 428.94,-364.03 418.62,-355.83"/>
<polygon fill="midnightblue" stroke="midnightblue" points="454.57,-388.85 464.57,-392.32 458.92,-383.36 454.57,-388.85"/>
</g>
<!-- Node17&#45;&gt;Node4 -->
<g id="edge20" class="edge">
<title>Node17&#45;&gt;Node4</title>
<path fill="none" stroke="midnightblue" d="M672.32,-510.8C696.86,-498.34 727.94,-482.56 746.75,-473.01"/>
<polygon fill="midnightblue" stroke="midnightblue" points="670.61,-507.75 663.27,-515.4 673.78,-513.99 670.61,-507.75"/>
</g>
<!-- Node18 -->
<g id="node18" class="node">
<title>Node18</title>
<g id="a_node18"><a xlink:href="ODMultiAgentAStarProblemWithConstraints_8cpp.html" target="_top" xlink:title=" ">
<polygon fill="white" stroke="black" points="532.5,-448.5 532.5,-478.5 684.5,-478.5 684.5,-448.5 532.5,-448.5"/>
<text text-anchor="start" x="540.5" y="-466.5" font-family="Helvetica,sans-Serif" font-size="10.00">ODMultiAgentAStarProblem</text>
<text text-anchor="middle" x="608.5" y="-455.5" font-family="Helvetica,sans-Serif" font-size="10.00">WithConstraints.cpp</text>
</a>
</g>
</g>
<!-- Node17&#45;&gt;Node18 -->
<g id="edge19" class="edge">
<title>Node17&#45;&gt;Node18</title>
<path fill="none" stroke="midnightblue" d="M625.73,-505.99C621.92,-496.8 617.67,-486.58 614.35,-478.58"/>
<polygon fill="midnightblue" stroke="midnightblue" points="622.57,-507.5 629.64,-515.4 629.04,-504.82 622.57,-507.5"/>
</g>
<!-- Node19&#45;&gt;Node4 -->
<g id="edge23" class="edge">
<title>Node19&#45;&gt;Node4</title>
<path fill="none" stroke="midnightblue" d="M343.22,-519.23C352.33,-517.72 361.66,-516.25 370.5,-515 513.51,-494.71 550.85,-501.67 693.5,-479 703.92,-477.34 715.14,-475.19 725.47,-473.05"/>
<polygon fill="midnightblue" stroke="midnightblue" points="342.35,-515.83 333.07,-520.95 343.52,-522.73 342.35,-515.83"/>
</g>
<!-- Node19&#45;&gt;Node15 -->
<g id="edge24" class="edge">
<title>Node19&#45;&gt;Node15</title>
<path fill="none" stroke="midnightblue" d="M292.49,-511.37C299.51,-492.87 312.86,-464.6 333.5,-448 357.18,-428.96 389.04,-417.91 416.58,-411.54"/>
<polygon fill="midnightblue" stroke="midnightblue" points="289.13,-510.37 289.09,-520.97 295.73,-512.71 289.13,-510.37"/>
</g>
<!-- Node20 -->
<g id="node20" class="node">
<title>Node20</title>
<g id="a_node20"><a xlink:href="SingleAgentAStarProblem_8cpp.html" target="_top" xlink:title=" ">
<polygon fill="white" stroke="black" points="124.5,-454 124.5,-473 286.5,-473 286.5,-454 124.5,-454"/>
<text text-anchor="middle" x="205.5" y="-461" font-family="Helvetica,sans-Serif" font-size="10.00">SingleAgentAStarProblem.cpp</text>
</a>
</g>
</g>
<!-- Node19&#45;&gt;Node20 -->
<g id="edge22" class="edge">
<title>Node19&#45;&gt;Node20</title>
<path fill="none" stroke="midnightblue" d="M267.45,-514.21C251.49,-501.41 229.29,-483.59 216.25,-473.13"/>
<polygon fill="midnightblue" stroke="midnightblue" points="265.59,-517.2 275.58,-520.73 269.97,-511.75 265.59,-517.2"/>
</g>
<!-- Node21&#45;&gt;Node4 -->
<g id="edge27" class="edge">
<title>Node21&#45;&gt;Node4</title>
<path fill="none" stroke="midnightblue" d="M795.12,-507.32C786.46,-495.6 776.34,-481.88 769.92,-473.19"/>
<polygon fill="midnightblue" stroke="midnightblue" points="792.33,-509.43 801.08,-515.4 797.96,-505.27 792.33,-509.43"/>
</g>
<!-- Node22 -->
<g id="node22" class="node">
<title>Node22</title>
<g id="a_node22"><a xlink:href="SingleAgentAStarProblemWithConstraints_8cpp.html" target="_top" xlink:title=" ">
<polygon fill="white" stroke="black" points="842.5,-448.5 842.5,-478.5 1006.5,-478.5 1006.5,-448.5 842.5,-448.5"/>
<text text-anchor="start" x="850.5" y="-466.5" font-family="Helvetica,sans-Serif" font-size="10.00">SingleAgentAStarProblemWith</text>
<text text-anchor="middle" x="924.5" y="-455.5" font-family="Helvetica,sans-Serif" font-size="10.00">Constraints.cpp</text>
</a>
</g>
</g>
<!-- Node21&#45;&gt;Node22 -->
<g id="edge26" class="edge">
<title>Node21&#45;&gt;Node22</title>
<path fill="none" stroke="midnightblue" d="M844.89,-510.3C862.57,-500.12 883.9,-487.85 900.03,-478.58"/>
<polygon fill="midnightblue" stroke="midnightblue" points="842.94,-507.38 836.02,-515.4 846.43,-513.44 842.94,-507.38"/>
</g>
<!-- Node23&#45;&gt;Node4 -->
<g id="edge30" class="edge">
<title>Node23&#45;&gt;Node4</title>
<path fill="none" stroke="midnightblue" d="M964.72,-518.32C916.73,-505.49 839.06,-484.71 795.59,-473.08"/>
<polygon fill="midnightblue" stroke="midnightblue" points="963.92,-521.73 974.48,-520.94 965.73,-514.97 963.92,-521.73"/>
</g>
<!-- Node24 -->
<g id="node24" class="node">
<title>Node24</title>
<g id="a_node24"><a xlink:href="StandardMultiAgentAStarProblem_8cpp.html" target="_top" xlink:title=" ">
<polygon fill="white" stroke="black" points="1024.5,-454 1024.5,-473 1224.5,-473 1224.5,-454 1024.5,-454"/>
<text text-anchor="middle" x="1124.5" y="-461" font-family="Helvetica,sans-Serif" font-size="10.00">StandardMultiAgentAStarProblem.cpp</text>
</a>
</g>
</g>
<!-- Node23&#45;&gt;Node24 -->
<g id="edge29" class="edge">
<title>Node23&#45;&gt;Node24</title>
<path fill="none" stroke="midnightblue" d="M1031.39,-515.79C1054.78,-502.9 1089.06,-484.02 1108.84,-473.13"/>
<polygon fill="midnightblue" stroke="midnightblue" points="1029.48,-512.84 1022.41,-520.73 1032.86,-518.97 1029.48,-512.84"/>
</g>
<!-- Node25&#45;&gt;Node4 -->
<g id="edge33" class="edge">
<title>Node25&#45;&gt;Node4</title>
<path fill="none" stroke="midnightblue" d="M1109.17,-514.84C985.79,-498.07 952.7,-499.06 833.5,-479 823.34,-477.29 812.41,-475.17 802.28,-473.07"/>
<polygon fill="midnightblue" stroke="midnightblue" points="1109.02,-518.35 1119.4,-516.24 1109.97,-511.41 1109.02,-518.35"/>
</g>
<!-- Node26 -->
<g id="node26" class="node">
<title>Node26</title>
<g id="a_node26"><a xlink:href="StandardMultiAgentAStarProblemWithConstraints_8cpp.html" target="_top" xlink:title=" ">
<polygon fill="white" stroke="black" points="1242.5,-448.5 1242.5,-478.5 1422.5,-478.5 1422.5,-448.5 1242.5,-448.5"/>
<text text-anchor="start" x="1250.5" y="-466.5" font-family="Helvetica,sans-Serif" font-size="10.00">StandardMultiAgentAStarProblem</text>
<text text-anchor="middle" x="1332.5" y="-455.5" font-family="Helvetica,sans-Serif" font-size="10.00">WithConstraints.cpp</text>
</a>
</g>
</g>
<!-- Node25&#45;&gt;Node26 -->
<g id="edge32" class="edge">
<title>Node25&#45;&gt;Node26</title>
<path fill="none" stroke="midnightblue" d="M1245.05,-510.71C1264.45,-500.46 1288.06,-487.98 1305.86,-478.58"/>
<polygon fill="midnightblue" stroke="midnightblue" points="1243.4,-507.63 1236.19,-515.4 1246.67,-513.82 1243.4,-507.63"/>
</g>
</g>
</svg>
