<?xml version="1.0" encoding="UTF-8" standalone="no"?>
<!DOCTYPE svg PUBLIC "-//W3C//DTD SVG 1.1//EN"
 "http://www.w3.org/Graphics/SVG/1.1/DTD/svg11.dtd">
<!-- Generated by graphviz version 2.43.0 (0)
 -->
<!-- Title: ConflictBasedSearch::solve Pages: 1 -->
<!--zoomable 415 -->
<svg id="main" version="1.1" xmlns="http://www.w3.org/2000/svg" xmlns:xlink="http://www.w3.org/1999/xlink" xml:space="preserve" onload="init(evt)">
<style type="text/css"><![CDATA[
.edge:hover path { stroke: red; }
.edge:hover polygon { stroke: red; fill: red; }
]]></style>
<script type="text/javascript"><![CDATA[
var edges = document.getElementsByTagName('g');
if (edges && edges.length) {
  for (var i=0;i<edges.length;i++) {
    if (edges[i].id.substr(0,4)=='edge') {
      edges[i].setAttribute('class','edge');
    }
  }
}
]]></script>
        <defs>
                <circle id="rim" cx="0" cy="0" r="7"/>
                <circle id="rim2" cx="0" cy="0" r="3.5"/>
                <g id="zoomPlus">
                        <use xlink:href="#rim" fill="#404040">
                                <set attributeName="fill" to="#808080" begin="zoomplus.mouseover" end="zoomplus.mouseout"/>
                        </use>
                        <path d="M-4,0h8M0,-4v8" fill="none" stroke="white" stroke-width="1.5" pointer-events="none"/>
                </g>
                <g id="zoomMin">
                        <use xlink:href="#rim" fill="#404040">
                                <set attributeName="fill" to="#808080" begin="zoomminus.mouseover" end="zoomminus.mouseout"/>
                        </use>
                        <path d="M-4,0h8" fill="none" stroke="white" stroke-width="1.5" pointer-events="none"/>
                </g>
                <g id="dirArrow">
                        <path fill="none" stroke="white" stroke-width="1.5" d="M0,-3.0v7 M-2.5,-0.5L0,-3.0L2.5,-0.5"/>
                </g>
               <g id="resetDef">
                       <use xlink:href="#rim2" fill="#404040">
                               <set attributeName="fill" to="#808080" begin="reset.mouseover" end="reset.mouseout"/>
                       </use>
               </g>
        </defs>

<script type="text/javascript">
var viewWidth = 701;
var viewHeight = 415;
var sectionId = 'dynsection-12';
</script>
<script xlink:href="svgpan.js"/>
<svg id="graph" class="graph">
<g id="viewport">
<title>ConflictBasedSearch::solve</title>
<polygon fill="white" stroke="transparent" points="-4,4 -4,-410.5 697,-410.5 697,4 -4,4"/>
<!-- Node1 -->
<g id="node1" class="node">
<title>Node1</title>
<g id="a_node1"><a xlink:title=" ">
<polygon fill="#bfbfbf" stroke="black" points="0,-128 0,-158 116,-158 116,-128 0,-128"/>
<text text-anchor="start" x="8" y="-146" font-family="Helvetica,sans-Serif" font-size="10.00">ConflictBasedSearch</text>
<text text-anchor="middle" x="58" y="-135" font-family="Helvetica,sans-Serif" font-size="10.00">::solve</text>
</a>
</g>
</g>
<!-- Node2 -->
<g id="node2" class="node">
<title>Node2</title>
<g id="a_node2"><a xlink:href="classConflictBasedSearch.html#a6070f03e97d9e3ea822f5ed1a0bfe9a1" target="_top" xlink:title=" ">
<polygon fill="white" stroke="black" points="371,-376 371,-406 507,-406 507,-376 371,-376"/>
<text text-anchor="start" x="379" y="-394" font-family="Helvetica,sans-Serif" font-size="10.00">ConflictBasedSearch</text>
<text text-anchor="middle" x="439" y="-383" font-family="Helvetica,sans-Serif" font-size="10.00">::calculateSetOfConflicts</text>
</a>
</g>
</g>
<!-- Node1&#45;&gt;Node2 -->
<g id="edge1" class="edge">
<title>Node1&#45;&gt;Node2</title>
<path fill="none" stroke="midnightblue" d="M66.96,-158.03C81.16,-183.7 113.07,-236.48 152,-270 222.36,-330.57 250.05,-334.46 337,-367 344.7,-369.88 352.87,-372.5 361.09,-374.86"/>
<polygon fill="midnightblue" stroke="midnightblue" points="360.17,-378.23 370.74,-377.5 362.02,-371.48 360.17,-378.23"/>
</g>
<!-- Node3 -->
<g id="node3" class="node">
<title>Node3</title>
<g id="a_node3"><a xlink:href="classConflictBasedSearch.html#a6d17a328ed4bd26bf58503a87761164c" target="_top" xlink:title=" ">
<polygon fill="white" stroke="black" points="381,-327 381,-357 497,-357 497,-327 381,-327"/>
<text text-anchor="start" x="389" y="-345" font-family="Helvetica,sans-Serif" font-size="10.00">ConflictBasedSearch</text>
<text text-anchor="middle" x="439" y="-334" font-family="Helvetica,sans-Serif" font-size="10.00">::combineSolutions</text>
</a>
</g>
</g>
<!-- Node1&#45;&gt;Node3 -->
<g id="edge2" class="edge">
<title>Node1&#45;&gt;Node3</title>
<path fill="none" stroke="midnightblue" d="M77.99,-158.12C121.31,-191.87 231.84,-273.84 337,-318 347.67,-322.48 359.34,-326.22 370.83,-329.31"/>
<polygon fill="midnightblue" stroke="midnightblue" points="370.31,-332.79 380.86,-331.87 372.03,-326.01 370.31,-332.79"/>
</g>
<!-- Node5 -->
<g id="node5" class="node">
<title>Node5</title>
<g id="a_node5"><a xlink:href="classConflictBasedSearch.html#a1e9a1fbd7e074039fee97bc5ad4c6b55" target="_top" xlink:title=" ">
<polygon fill="white" stroke="black" points="163.5,-155 163.5,-185 289.5,-185 289.5,-155 163.5,-155"/>
<text text-anchor="start" x="171.5" y="-173" font-family="Helvetica,sans-Serif" font-size="10.00">ConflictBasedSearch</text>
<text text-anchor="middle" x="226.5" y="-162" font-family="Helvetica,sans-Serif" font-size="10.00">::disjointSplittingSolve</text>
</a>
</g>
</g>
<!-- Node1&#45;&gt;Node5 -->
<g id="edge4" class="edge">
<title>Node1&#45;&gt;Node5</title>
<path fill="none" stroke="midnightblue" d="M116.3,-145.84C130.97,-147.87 146.84,-150.4 161.82,-153.09"/>
<polygon fill="midnightblue" stroke="midnightblue" points="161.55,-156.6 172.02,-154.98 162.82,-149.72 161.55,-156.6"/>
</g>
<!-- Node10 -->
<g id="node10" class="node">
<title>Node10</title>
<g id="a_node10"><a xlink:href="classConflictBasedSearch.html#a2d4ce8cb5d44727d73f4489b39ad1d54" target="_top" xlink:title=" ">
<polygon fill="white" stroke="black" points="380,-54 380,-84 498,-84 498,-54 380,-54"/>
<text text-anchor="start" x="388" y="-72" font-family="Helvetica,sans-Serif" font-size="10.00">ConflictBasedSearch</text>
<text text-anchor="middle" x="439" y="-61" font-family="Helvetica,sans-Serif" font-size="10.00">::planIndividualPaths</text>
</a>
</g>
</g>
<!-- Node1&#45;&gt;Node10 -->
<g id="edge16" class="edge">
<title>Node1&#45;&gt;Node10</title>
<path fill="none" stroke="midnightblue" d="M111.3,-127.96C178.5,-112.46 295.32,-89.48 369.54,-77.03"/>
<polygon fill="midnightblue" stroke="midnightblue" points="370.42,-80.43 379.72,-75.35 369.28,-73.53 370.42,-80.43"/>
</g>
<!-- Node12 -->
<g id="node12" class="node">
<title>Node12</title>
<g id="a_node12"><a xlink:href="classConflictBasedSearch.html#a727a9172ea3f3fbf4eca9f247d3f5356" target="_top" xlink:title=" ">
<polygon fill="white" stroke="black" points="376.5,-5 376.5,-35 501.5,-35 501.5,-5 376.5,-5"/>
<text text-anchor="start" x="384.5" y="-23" font-family="Helvetica,sans-Serif" font-size="10.00">ConflictBasedSearch</text>
<text text-anchor="middle" x="439" y="-12" font-family="Helvetica,sans-Serif" font-size="10.00">::updateSetOfConflicts</text>
</a>
</g>
</g>
<!-- Node1&#45;&gt;Node12 -->
<g id="edge18" class="edge">
<title>Node1&#45;&gt;Node12</title>
<path fill="none" stroke="midnightblue" d="M83.94,-127.92C102.27,-117.32 128.05,-103.41 152,-94 190.69,-78.79 295.08,-53.17 366.44,-36.42"/>
<polygon fill="midnightblue" stroke="midnightblue" points="367.34,-39.8 376.28,-34.12 365.74,-32.99 367.34,-39.8"/>
</g>
<!-- Node13 -->
<g id="node13" class="node">
<title>Node13</title>
<g id="a_node13"><a xlink:href="classConflictBasedSearch.html#adfcf0b5e67e17a8eada77fed4ed4ea20" target="_top" xlink:title=" ">
<polygon fill="white" stroke="black" points="152,-0.5 152,-41.5 301,-41.5 301,-0.5 152,-0.5"/>
<text text-anchor="start" x="160" y="-29.5" font-family="Helvetica,sans-Serif" font-size="10.00">ConflictBasedSearch</text>
<text text-anchor="start" x="160" y="-18.5" font-family="Helvetica,sans-Serif" font-size="10.00">::retrieveSetsOfConstraints</text>
<text text-anchor="middle" x="226.5" y="-7.5" font-family="Helvetica,sans-Serif" font-size="10.00">AndCostsAndSolutions</text>
</a>
</g>
</g>
<!-- Node1&#45;&gt;Node13 -->
<g id="edge17" class="edge">
<title>Node1&#45;&gt;Node13</title>
<path fill="none" stroke="midnightblue" d="M72.32,-127.96C89.4,-109.33 120.58,-77.42 152,-56 156.94,-52.63 162.25,-49.43 167.68,-46.41"/>
<polygon fill="midnightblue" stroke="midnightblue" points="169.68,-49.31 176.87,-41.54 166.4,-43.13 169.68,-49.31"/>
</g>
<!-- Node4 -->
<g id="node4" class="node">
<title>Node4</title>
<g id="a_node4"><a xlink:href="classConflictBasedSearch.html#a3a9f295491df3b7ceec1b1d2ce7bacf3" target="_top" xlink:title=" ">
<polygon fill="white" stroke="black" points="577,-327 577,-357 693,-357 693,-327 577,-327"/>
<text text-anchor="start" x="585" y="-345" font-family="Helvetica,sans-Serif" font-size="10.00">ConflictBasedSearch</text>
<text text-anchor="middle" x="635" y="-334" font-family="Helvetica,sans-Serif" font-size="10.00">::retrieveSolutions</text>
</a>
</g>
</g>
<!-- Node3&#45;&gt;Node4 -->
<g id="edge3" class="edge">
<title>Node3&#45;&gt;Node4</title>
<path fill="none" stroke="midnightblue" d="M497.16,-342C518.96,-342 544.02,-342 566.69,-342"/>
<polygon fill="midnightblue" stroke="midnightblue" points="566.92,-345.5 576.92,-342 566.92,-338.5 566.92,-345.5"/>
</g>
<!-- Node5&#45;&gt;Node1 -->
<g id="edge14" class="edge">
<title>Node5&#45;&gt;Node1</title>
<path fill="none" stroke="midnightblue" d="M163.31,-166.47C150.02,-164.57 135.97,-162.3 122.63,-159.9"/>
<polygon fill="midnightblue" stroke="midnightblue" points="123.07,-156.42 112.6,-158.05 121.8,-163.3 123.07,-156.42"/>
</g>
<!-- Node5&#45;&gt;Node2 -->
<g id="edge5" class="edge">
<title>Node5&#45;&gt;Node2</title>
<path fill="none" stroke="midnightblue" d="M231.34,-185.12C241.62,-222.32 273.38,-318.79 337,-367 344.28,-372.52 352.63,-376.79 361.35,-380.09"/>
<polygon fill="midnightblue" stroke="midnightblue" points="360.33,-383.44 370.92,-383.31 362.56,-376.81 360.33,-383.44"/>
</g>
<!-- Node5&#45;&gt;Node3 -->
<g id="edge6" class="edge">
<title>Node5&#45;&gt;Node3</title>
<path fill="none" stroke="midnightblue" d="M238.18,-185.01C264.38,-221.75 330.18,-313.5 337,-318 347.16,-324.71 359,-329.55 370.92,-333.04"/>
<polygon fill="midnightblue" stroke="midnightblue" points="370.35,-336.51 380.91,-335.67 372.13,-329.74 370.35,-336.51"/>
</g>
<!-- Node6 -->
<g id="node6" class="node">
<title>Node6</title>
<g id="a_node6"><a xlink:href="Solution_8cpp.html#a1668e5fa72e047531e95f29f5deaf233" target="_top" xlink:title=" ">
<polygon fill="white" stroke="black" points="410.5,-179.5 410.5,-198.5 467.5,-198.5 467.5,-179.5 410.5,-179.5"/>
<text text-anchor="middle" x="439" y="-186.5" font-family="Helvetica,sans-Serif" font-size="10.00">fuelCost</text>
</a>
</g>
</g>
<!-- Node5&#45;&gt;Node6 -->
<g id="edge7" class="edge">
<title>Node5&#45;&gt;Node6</title>
<path fill="none" stroke="midnightblue" d="M289.52,-175.6C325.32,-178.83 369.19,-182.79 399.93,-185.56"/>
<polygon fill="midnightblue" stroke="midnightblue" points="399.95,-189.08 410.22,-186.49 400.58,-182.11 399.95,-189.08"/>
</g>
<!-- Node7 -->
<g id="node7" class="node">
<title>Node7</title>
<g id="a_node7"><a xlink:href="classVertexConstraint.html#ae4a5ede3e21dcbc4dec0060a90682c15" target="_top" xlink:title=" ">
<polygon fill="white" stroke="black" points="366.5,-141.5 366.5,-160.5 511.5,-160.5 511.5,-141.5 366.5,-141.5"/>
<text text-anchor="middle" x="439" y="-148.5" font-family="Helvetica,sans-Serif" font-size="10.00">VertexConstraint::getTime</text>
</a>
</g>
</g>
<!-- Node5&#45;&gt;Node7 -->
<g id="edge8" class="edge">
<title>Node5&#45;&gt;Node7</title>
<path fill="none" stroke="midnightblue" d="M289.52,-164.4C310.45,-162.51 334.14,-160.37 356.35,-158.37"/>
<polygon fill="midnightblue" stroke="midnightblue" points="356.79,-161.84 366.43,-157.46 356.16,-154.87 356.79,-161.84"/>
</g>
<!-- Node8 -->
<g id="node8" class="node">
<title>Node8</title>
<g id="a_node8"><a xlink:href="Solution_8cpp.html#a88b7fad200133f09ed5879a14d0171c6" target="_top" xlink:title=" ">
<polygon fill="white" stroke="black" points="394.5,-103.5 394.5,-122.5 483.5,-122.5 483.5,-103.5 394.5,-103.5"/>
<text text-anchor="middle" x="439" y="-110.5" font-family="Helvetica,sans-Serif" font-size="10.00">makespanCost</text>
</a>
</g>
</g>
<!-- Node5&#45;&gt;Node8 -->
<g id="edge9" class="edge">
<title>Node5&#45;&gt;Node8</title>
<path fill="none" stroke="midnightblue" d="M266.34,-154.95C287.08,-147.31 313.18,-138.34 337,-132 352.28,-127.94 369.07,-124.41 384.51,-121.54"/>
<polygon fill="midnightblue" stroke="midnightblue" points="385.22,-124.97 394.43,-119.74 383.97,-118.08 385.22,-124.97"/>
</g>
<!-- Node9 -->
<g id="node9" class="node">
<title>Node9</title>
<g id="a_node9"><a xlink:href="classConflictBasedSearch.html#a9a97b362b4e2df901352732921975454" target="_top" xlink:title=" ">
<polygon fill="white" stroke="black" points="375,-278 375,-308 503,-308 503,-278 375,-278"/>
<text text-anchor="start" x="383" y="-296" font-family="Helvetica,sans-Serif" font-size="10.00">ConflictBasedSearch</text>
<text text-anchor="middle" x="439" y="-285" font-family="Helvetica,sans-Serif" font-size="10.00">::okForHardConstraints</text>
</a>
</g>
</g>
<!-- Node5&#45;&gt;Node9 -->
<g id="edge10" class="edge">
<title>Node5&#45;&gt;Node9</title>
<path fill="none" stroke="midnightblue" d="M239.99,-185.11C258.76,-206.81 296.4,-246.54 337,-268 345.74,-272.62 355.37,-276.41 365.09,-279.51"/>
<polygon fill="midnightblue" stroke="midnightblue" points="364.24,-282.91 374.83,-282.39 366.23,-276.2 364.24,-282.91"/>
</g>
<!-- Node5&#45;&gt;Node10 -->
<g id="edge11" class="edge">
<title>Node5&#45;&gt;Node10</title>
<path fill="none" stroke="midnightblue" d="M274.94,-154.89C284.06,-150.83 293.19,-145.9 301,-140 321.71,-124.35 315.21,-108.11 337,-94 347.01,-87.52 358.57,-82.72 370.22,-79.16"/>
<polygon fill="midnightblue" stroke="midnightblue" points="371.29,-82.5 380,-76.46 369.43,-75.75 371.29,-82.5"/>
</g>
<!-- Node11 -->
<g id="node11" class="node">
<title>Node11</title>
<g id="a_node11"><a xlink:href="classConflictBasedSearch.html#aeea91c6d2aa04bbd44b4f6a1382d81d4" target="_top" xlink:title=" ">
<polygon fill="white" stroke="black" points="337,-217.5 337,-258.5 541,-258.5 541,-217.5 337,-217.5"/>
<text text-anchor="start" x="345" y="-246.5" font-family="Helvetica,sans-Serif" font-size="10.00">ConflictBasedSearch</text>
<text text-anchor="start" x="345" y="-235.5" font-family="Helvetica,sans-Serif" font-size="10.00">::retrieveSetsOfConstraints</text>
<text text-anchor="middle" x="439" y="-224.5" font-family="Helvetica,sans-Serif" font-size="10.00">AndCostsAndSolutionsDisjointSplitting</text>
</a>
</g>
</g>
<!-- Node5&#45;&gt;Node11 -->
<g id="edge13" class="edge">
<title>Node5&#45;&gt;Node11</title>
<path fill="none" stroke="midnightblue" d="M269.47,-185.06C289.79,-192.23 314.59,-200.79 337,-208 343.55,-210.11 350.36,-212.25 357.21,-214.36"/>
<polygon fill="midnightblue" stroke="midnightblue" points="356.65,-217.85 367.24,-217.42 358.7,-211.15 356.65,-217.85"/>
</g>
<!-- Node5&#45;&gt;Node12 -->
<g id="edge15" class="edge">
<title>Node5&#45;&gt;Node12</title>
<path fill="none" stroke="midnightblue" d="M240.48,-154.82C268.81,-121.73 333.9,-45.88 337,-44 346,-38.55 356.14,-34.34 366.44,-31.09"/>
<polygon fill="midnightblue" stroke="midnightblue" points="367.68,-34.37 376.33,-28.25 365.75,-27.65 367.68,-34.37"/>
</g>
<!-- Node10&#45;&gt;Node1 -->
<g id="edge12" class="edge">
<title>Node10&#45;&gt;Node1</title>
<path fill="none" stroke="midnightblue" d="M385.88,-84C318.36,-99.58 200.55,-122.74 126.32,-135.16"/>
<polygon fill="midnightblue" stroke="midnightblue" points="125.45,-131.76 116.15,-136.84 126.59,-138.66 125.45,-131.76"/>
</g>
</g>
</svg>
        <g id="navigator" transform="translate(0 0)" fill="#404254">
                <rect fill="#f2f5e9" fill-opacity="0.5" stroke="#606060" stroke-width=".5" x="0" y="0" width="60" height="60"/>
                <use id="zoomplus" xlink:href="#zoomPlus" x="17" y="9" onmousedown="handleZoom(evt,'in')"/>
                <use id="zoomminus" xlink:href="#zoomMin" x="42" y="9" onmousedown="handleZoom(evt,'out')"/>
                <use id="reset" xlink:href="#resetDef" x="30" y="36" onmousedown="handleReset()"/>
                <g id="arrowUp" xlink:href="#dirArrow" transform="translate(30 24)" onmousedown="handlePan(0,-1)">
                  <use xlink:href="#rim" fill="#404040">
                        <set attributeName="fill" to="#808080" begin="arrowUp.mouseover" end="arrowUp.mouseout"/>
                  </use>
                  <path fill="none" stroke="white" stroke-width="1.5" d="M0,-3.0v7 M-2.5,-0.5L0,-3.0L2.5,-0.5"/>
                </g>
                <g id="arrowRight" xlink:href="#dirArrow" transform="rotate(90) translate(36 -43)" onmousedown="handlePan(1,0)">
                  <use xlink:href="#rim" fill="#404040">
                        <set attributeName="fill" to="#808080" begin="arrowRight.mouseover" end="arrowRight.mouseout"/>
                  </use>
                  <path fill="none" stroke="white" stroke-width="1.5" d="M0,-3.0v7 M-2.5,-0.5L0,-3.0L2.5,-0.5"/>
                </g>
                <g id="arrowDown" xlink:href="#dirArrow" transform="rotate(180) translate(-30 -48)" onmousedown="handlePan(0,1)">
                  <use xlink:href="#rim" fill="#404040">
                        <set attributeName="fill" to="#808080" begin="arrowDown.mouseover" end="arrowDown.mouseout"/>
                  </use>
                  <path fill="none" stroke="white" stroke-width="1.5" d="M0,-3.0v7 M-2.5,-0.5L0,-3.0L2.5,-0.5"/>
                </g>
                <g id="arrowLeft" xlink:href="#dirArrow" transform="rotate(270) translate(-36 17)" onmousedown="handlePan(-1,0)">
                  <use xlink:href="#rim" fill="#404040">
                        <set attributeName="fill" to="#808080" begin="arrowLeft.mouseover" end="arrowLeft.mouseout"/>
                  </use>
                  <path fill="none" stroke="white" stroke-width="1.5" d="M0,-3.0v7 M-2.5,-0.5L0,-3.0L2.5,-0.5"/>
                </g>
        </g>
        <svg viewBox="0 0 15 15" width="100%" height="30px" preserveAspectRatio="xMaxYMin meet">
         <g id="arrow_out" transform="scale(0.3 0.3)">
          <a xlink:href="classConflictBasedSearch_a6aadc55f462faad9ce67903a59b96c62_cgraph_org.svg" target="_base">
           <rect id="button" ry="5" rx="5" y="6" x="6" height="38" width="38"
                fill="#f2f5e9" fill-opacity="0.5" stroke="#606060" stroke-width="1.0"/>
           <path id="arrow"
             d="M 11.500037,31.436501 C 11.940474,20.09759 22.043105,11.32322 32.158766,21.979434 L 37.068811,17.246167 C 37.068811,17.246167 37.088388,32 37.088388,32 L 22.160133,31.978069 C 22.160133,31.978069 26.997745,27.140456 26.997745,27.140456 C 18.528582,18.264221 13.291696,25.230495 11.500037,31.436501 z"
             style="fill:#404040;"/>
          </a>
         </g>
        </svg>
</svg>
