<?xml version="1.0" encoding="UTF-8" standalone="no"?>
<!DOCTYPE svg PUBLIC "-//W3C//DTD SVG 1.1//EN"
 "http://www.w3.org/Graphics/SVG/1.1/DTD/svg11.dtd">
<!-- Generated by graphviz version 2.43.0 (0)
 -->
<!-- Title: GeneralAStar::solve Pages: 1 -->
<svg width="544pt" height="47pt"
 viewBox="0.00 0.00 544.00 47.00" xmlns="http://www.w3.org/2000/svg" xmlns:xlink="http://www.w3.org/1999/xlink">
<g id="graph0" class="graph" transform="scale(1 1) rotate(0) translate(4 43)">
<title>GeneralAStar::solve</title>
<polygon fill="white" stroke="transparent" points="-4,4 -4,-43 540,-43 540,4 -4,4"/>
<!-- Node1 -->
<g id="node1" class="node">
<title>Node1</title>
<g id="a_node1"><a xlink:title=" ">
<polygon fill="#bfbfbf" stroke="black" points="0,-19.5 0,-38.5 113,-38.5 113,-19.5 0,-19.5"/>
<text text-anchor="middle" x="56.5" y="-26.5" font-family="Helvetica,sans-Serif" font-size="10.00">GeneralAStar::solve</text>
</a>
</g>
</g>
<!-- Node2 -->
<g id="node2" class="node">
<title>Node2</title>
<g id="a_node2"><a xlink:href="classAStar.html#aee8daf3c1ab228779d19a62fe4b9ceea" target="_top" xlink:title=" ">
<polygon fill="white" stroke="black" points="298,-19.5 298,-38.5 373,-38.5 373,-19.5 298,-19.5"/>
<text text-anchor="middle" x="335.5" y="-26.5" font-family="Helvetica,sans-Serif" font-size="10.00">AStar::solve</text>
</a>
</g>
</g>
<!-- Node1&#45;&gt;Node2 -->
<g id="edge1" class="edge">
<title>Node1&#45;&gt;Node2</title>
<path fill="none" stroke="midnightblue" d="M113.22,-29C164.44,-29 239.52,-29 287.71,-29"/>
<polygon fill="midnightblue" stroke="midnightblue" points="287.86,-32.5 297.86,-29 287.86,-25.5 287.86,-32.5"/>
</g>
<!-- Node4 -->
<g id="node4" class="node">
<title>Node4</title>
<g id="a_node4"><a xlink:href="classGeneralAStar.html#a51f6f9e1d855becaada1943dc5d9be76" target="_top" xlink:title=" ">
<polygon fill="white" stroke="black" points="149,-0.5 149,-19.5 262,-19.5 262,-0.5 149,-0.5"/>
<text text-anchor="middle" x="205.5" y="-7.5" font-family="Helvetica,sans-Serif" font-size="10.00">GeneralAStar::solve</text>
</a>
</g>
</g>
<!-- Node1&#45;&gt;Node4 -->
<g id="edge3" class="edge">
<title>Node1&#45;&gt;Node4</title>
<path fill="none" stroke="midnightblue" d="M113.07,-21.82C121.49,-20.73 130.24,-19.6 138.84,-18.49"/>
<polygon fill="midnightblue" stroke="midnightblue" points="139.38,-21.95 148.85,-17.19 138.48,-15 139.38,-21.95"/>
</g>
<!-- Node3 -->
<g id="node3" class="node">
<title>Node3</title>
<g id="a_node3"><a xlink:href="classAStar.html#aad923ebe077dc466a454e290ba36342c" target="_top" xlink:title=" ">
<polygon fill="white" stroke="black" points="409,-19.5 409,-38.5 536,-38.5 536,-19.5 409,-19.5"/>
<text text-anchor="middle" x="472.5" y="-26.5" font-family="Helvetica,sans-Serif" font-size="10.00">AStar::retrieveSolution</text>
</a>
</g>
</g>
<!-- Node2&#45;&gt;Node3 -->
<g id="edge2" class="edge">
<title>Node2&#45;&gt;Node3</title>
<path fill="none" stroke="midnightblue" d="M373.03,-29C381.09,-29 389.9,-29 398.83,-29"/>
<polygon fill="midnightblue" stroke="midnightblue" points="398.93,-32.5 408.93,-29 398.93,-25.5 398.93,-32.5"/>
</g>
<!-- Node4&#45;&gt;Node2 -->
<g id="edge4" class="edge">
<title>Node4&#45;&gt;Node2</title>
<path fill="none" stroke="midnightblue" d="M262.27,-18.28C270.7,-19.53 279.33,-20.81 287.55,-22.03"/>
<polygon fill="midnightblue" stroke="midnightblue" points="287.29,-25.53 297.7,-23.54 288.32,-18.61 287.29,-25.53"/>
</g>
</g>
</svg>
