<?xml version="1.0" encoding="UTF-8" standalone="no"?>
<!DOCTYPE svg PUBLIC "-//W3C//DTD SVG 1.1//EN"
 "http://www.w3.org/Graphics/SVG/1.1/DTD/svg11.dtd">
<!-- Generated by graphviz version 2.43.0 (0)
 -->
<!-- Title: EdgeConstraint::getPosition2 Pages: 1 -->
<svg width="343pt" height="186pt"
 viewBox="0.00 0.00 343.00 186.00" xmlns="http://www.w3.org/2000/svg" xmlns:xlink="http://www.w3.org/1999/xlink">
<g id="graph0" class="graph" transform="scale(1 1) rotate(0) translate(4 182)">
<title>EdgeConstraint::getPosition2</title>
<polygon fill="white" stroke="transparent" points="-4,4 -4,-182 339,-182 339,4 -4,4"/>
<!-- Node1 -->
<g id="node1" class="node">
<title>Node1</title>
<g id="a_node1"><a xlink:title=" ">
<polygon fill="#bfbfbf" stroke="black" points="177,-79 177,-98 335,-98 335,-79 177,-79"/>
<text text-anchor="middle" x="256" y="-86" font-family="Helvetica,sans-Serif" font-size="10.00">EdgeConstraint::getPosition2</text>
</a>
</g>
</g>
<!-- Node2 -->
<g id="node2" class="node">
<title>Node2</title>
<g id="a_node2"><a xlink:href="structSoftEdgeConstraintHash.html#a291c5f174c730e4691ba53fea16b350f" target="_top" xlink:title=" ">
<polygon fill="white" stroke="black" points="3.5,-147.5 3.5,-177.5 137.5,-177.5 137.5,-147.5 3.5,-147.5"/>
<text text-anchor="start" x="11.5" y="-165.5" font-family="Helvetica,sans-Serif" font-size="10.00">SoftEdgeConstraintHash</text>
<text text-anchor="middle" x="70.5" y="-154.5" font-family="Helvetica,sans-Serif" font-size="10.00">::operator()</text>
</a>
</g>
</g>
<!-- Node1&#45;&gt;Node2 -->
<g id="edge1" class="edge">
<title>Node1&#45;&gt;Node2</title>
<path fill="none" stroke="midnightblue" d="M225.45,-102.24C202.6,-112.68 170.06,-127.13 141,-138.5 133.27,-141.52 124.99,-144.56 116.93,-147.4"/>
<polygon fill="midnightblue" stroke="midnightblue" points="226.99,-105.39 234.61,-98.04 224.07,-99.03 226.99,-105.39"/>
</g>
<!-- Node3 -->
<g id="node3" class="node">
<title>Node3</title>
<g id="a_node3"><a xlink:href="structHardEdgeConstraintHash.html#adb69e40ffe269128d15111d65f882e51" target="_top" xlink:title=" ">
<polygon fill="white" stroke="black" points="1,-98.5 1,-128.5 140,-128.5 140,-98.5 1,-98.5"/>
<text text-anchor="start" x="9" y="-116.5" font-family="Helvetica,sans-Serif" font-size="10.00">HardEdgeConstraintHash</text>
<text text-anchor="middle" x="70.5" y="-105.5" font-family="Helvetica,sans-Serif" font-size="10.00">::operator()</text>
</a>
</g>
</g>
<!-- Node1&#45;&gt;Node3 -->
<g id="edge2" class="edge">
<title>Node1&#45;&gt;Node3</title>
<path fill="none" stroke="midnightblue" d="M175.02,-99.4C163.45,-100.97 151.62,-102.58 140.29,-104.13"/>
<polygon fill="midnightblue" stroke="midnightblue" points="175.67,-102.84 185.1,-98.02 174.72,-95.9 175.67,-102.84"/>
</g>
<!-- Node4 -->
<g id="node4" class="node">
<title>Node4</title>
<g id="a_node4"><a xlink:href="structSoftEdgeConstraintEqual.html#aeea861971adf29b17db59f090463e680" target="_top" xlink:title=" ">
<polygon fill="white" stroke="black" points="2,-49.5 2,-79.5 139,-79.5 139,-49.5 2,-49.5"/>
<text text-anchor="start" x="10" y="-67.5" font-family="Helvetica,sans-Serif" font-size="10.00">SoftEdgeConstraintEqual</text>
<text text-anchor="middle" x="70.5" y="-56.5" font-family="Helvetica,sans-Serif" font-size="10.00">::operator()</text>
</a>
</g>
</g>
<!-- Node1&#45;&gt;Node4 -->
<g id="edge3" class="edge">
<title>Node1&#45;&gt;Node4</title>
<path fill="none" stroke="midnightblue" d="M172.14,-77.66C161.09,-76.22 149.87,-74.75 139.13,-73.34"/>
<polygon fill="midnightblue" stroke="midnightblue" points="171.84,-81.15 182.21,-78.98 172.75,-74.21 171.84,-81.15"/>
</g>
<!-- Node5 -->
<g id="node5" class="node">
<title>Node5</title>
<g id="a_node5"><a xlink:href="structHardEdgeConstraintEqual.html#a4c93a140a6c125eed5912fa048f2af77" target="_top" xlink:title=" ">
<polygon fill="white" stroke="black" points="0,-0.5 0,-30.5 141,-30.5 141,-0.5 0,-0.5"/>
<text text-anchor="start" x="8" y="-18.5" font-family="Helvetica,sans-Serif" font-size="10.00">HardEdgeConstraintEqual</text>
<text text-anchor="middle" x="70.5" y="-7.5" font-family="Helvetica,sans-Serif" font-size="10.00">::operator()</text>
</a>
</g>
</g>
<!-- Node1&#45;&gt;Node5 -->
<g id="edge4" class="edge">
<title>Node1&#45;&gt;Node5</title>
<path fill="none" stroke="midnightblue" d="M224.09,-74.96C201.26,-65.09 169.36,-51.56 141,-40.5 132.52,-37.19 123.4,-33.8 114.64,-30.61"/>
<polygon fill="midnightblue" stroke="midnightblue" points="222.72,-78.18 233.29,-78.95 225.51,-71.76 222.72,-78.18"/>
</g>
</g>
</svg>
