<?xml version="1.0" encoding="UTF-8" standalone="no"?>
<!DOCTYPE svg PUBLIC "-//W3C//DTD SVG 1.1//EN"
 "http://www.w3.org/Graphics/SVG/1.1/DTD/svg11.dtd">
<!-- Generated by graphviz version 2.43.0 (0)
 -->
<!-- Title: ConflictBasedSearch::retrieveSolutions Pages: 1 -->
<svg width="744pt" height="88pt"
 viewBox="0.00 0.00 744.00 88.00" xmlns="http://www.w3.org/2000/svg" xmlns:xlink="http://www.w3.org/1999/xlink">
<g id="graph0" class="graph" transform="scale(1 1) rotate(0) translate(4 84)">
<title>ConflictBasedSearch::retrieveSolutions</title>
<polygon fill="white" stroke="transparent" points="-4,4 -4,-84 740,-84 740,4 -4,4"/>
<!-- Node1 -->
<g id="node1" class="node">
<title>Node1</title>
<g id="a_node1"><a xlink:title=" ">
<polygon fill="#bfbfbf" stroke="black" points="620,-22.5 620,-52.5 736,-52.5 736,-22.5 620,-22.5"/>
<text text-anchor="start" x="628" y="-40.5" font-family="Helvetica,sans-Serif" font-size="10.00">ConflictBasedSearch</text>
<text text-anchor="middle" x="678" y="-29.5" font-family="Helvetica,sans-Serif" font-size="10.00">::retrieveSolutions</text>
</a>
</g>
</g>
<!-- Node2 -->
<g id="node2" class="node">
<title>Node2</title>
<g id="a_node2"><a xlink:href="classConflictBasedSearch.html#a6d17a328ed4bd26bf58503a87761164c" target="_top" xlink:title=" ">
<polygon fill="white" stroke="black" points="468,-22.5 468,-52.5 584,-52.5 584,-22.5 468,-22.5"/>
<text text-anchor="start" x="476" y="-40.5" font-family="Helvetica,sans-Serif" font-size="10.00">ConflictBasedSearch</text>
<text text-anchor="middle" x="526" y="-29.5" font-family="Helvetica,sans-Serif" font-size="10.00">::combineSolutions</text>
</a>
</g>
</g>
<!-- Node1&#45;&gt;Node2 -->
<g id="edge1" class="edge">
<title>Node1&#45;&gt;Node2</title>
<path fill="none" stroke="midnightblue" d="M609.69,-37.5C601.27,-37.5 592.72,-37.5 584.47,-37.5"/>
<polygon fill="midnightblue" stroke="midnightblue" points="609.86,-41 619.86,-37.5 609.86,-34 609.86,-41"/>
</g>
<!-- Node3 -->
<g id="node3" class="node">
<title>Node3</title>
<g id="a_node3"><a xlink:href="classConflictBasedSearch.html#a1e9a1fbd7e074039fee97bc5ad4c6b55" target="_top" xlink:title=" ">
<polygon fill="white" stroke="black" points="306,-0.5 306,-30.5 432,-30.5 432,-0.5 306,-0.5"/>
<text text-anchor="start" x="314" y="-18.5" font-family="Helvetica,sans-Serif" font-size="10.00">ConflictBasedSearch</text>
<text text-anchor="middle" x="369" y="-7.5" font-family="Helvetica,sans-Serif" font-size="10.00">::disjointSplittingSolve</text>
</a>
</g>
</g>
<!-- Node2&#45;&gt;Node3 -->
<g id="edge2" class="edge">
<title>Node2&#45;&gt;Node3</title>
<path fill="none" stroke="midnightblue" d="M457.57,-27.93C449.16,-26.73 440.58,-25.52 432.25,-24.34"/>
<polygon fill="midnightblue" stroke="midnightblue" points="457.33,-31.43 467.72,-29.37 458.32,-24.5 457.33,-31.43"/>
</g>
<!-- Node4 -->
<g id="node4" class="node">
<title>Node4</title>
<g id="a_node4"><a xlink:href="classConflictBasedSearch.html#a6aadc55f462faad9ce67903a59b96c62" target="_top" xlink:title=" ">
<polygon fill="white" stroke="black" points="154,-22.5 154,-52.5 270,-52.5 270,-22.5 154,-22.5"/>
<text text-anchor="start" x="162" y="-40.5" font-family="Helvetica,sans-Serif" font-size="10.00">ConflictBasedSearch</text>
<text text-anchor="middle" x="212" y="-29.5" font-family="Helvetica,sans-Serif" font-size="10.00">::solve</text>
</a>
</g>
</g>
<!-- Node2&#45;&gt;Node4 -->
<g id="edge9" class="edge">
<title>Node2&#45;&gt;Node4</title>
<path fill="none" stroke="midnightblue" d="M457.83,-39.92C449.14,-40.16 440.36,-40.37 432,-40.5 376.01,-41.4 361.99,-41.4 306,-40.5 294.37,-40.31 281.93,-39.99 270.05,-39.63"/>
<polygon fill="midnightblue" stroke="midnightblue" points="458.06,-43.42 467.95,-39.63 457.86,-36.42 458.06,-43.42"/>
</g>
<!-- Node3&#45;&gt;Node4 -->
<g id="edge3" class="edge">
<title>Node3&#45;&gt;Node4</title>
<path fill="none" stroke="midnightblue" d="M295.81,-19.01C287.2,-20.19 278.5,-21.49 270.15,-22.85"/>
<polygon fill="midnightblue" stroke="midnightblue" points="296.39,-22.46 305.85,-17.69 295.48,-15.52 296.39,-22.46"/>
</g>
<!-- Node4&#45;&gt;Node3 -->
<g id="edge4" class="edge">
<title>Node4&#45;&gt;Node3</title>
<path fill="none" stroke="midnightblue" d="M280.16,-34.66C289.59,-33.42 299.24,-32.02 308.52,-30.53"/>
<polygon fill="midnightblue" stroke="midnightblue" points="279.51,-31.22 270.03,-35.94 280.39,-38.16 279.51,-31.22"/>
</g>
<!-- Node5 -->
<g id="node5" class="node">
<title>Node5</title>
<g id="a_node5"><a xlink:href="classConflictBasedSearch.html#a2d4ce8cb5d44727d73f4489b39ad1d54" target="_top" xlink:title=" ">
<polygon fill="white" stroke="black" points="0,-0.5 0,-30.5 118,-30.5 118,-0.5 0,-0.5"/>
<text text-anchor="start" x="8" y="-18.5" font-family="Helvetica,sans-Serif" font-size="10.00">ConflictBasedSearch</text>
<text text-anchor="middle" x="59" y="-7.5" font-family="Helvetica,sans-Serif" font-size="10.00">::planIndividualPaths</text>
</a>
</g>
</g>
<!-- Node4&#45;&gt;Node5 -->
<g id="edge5" class="edge">
<title>Node4&#45;&gt;Node5</title>
<path fill="none" stroke="midnightblue" d="M143.93,-21.02C135.34,-19.69 126.6,-18.46 118.17,-17.39"/>
<polygon fill="midnightblue" stroke="midnightblue" points="143.49,-24.49 153.91,-22.61 144.59,-17.58 143.49,-24.49"/>
</g>
<!-- Node6 -->
<g id="node6" class="node">
<title>Node6</title>
<g id="a_node6"><a xlink:href="classConflictBasedSearch.html#a4dac9eef3a5e99677a116bf1dd3e02b0" target="_top" xlink:title=" ">
<polygon fill="white" stroke="black" points="1,-49.5 1,-79.5 117,-79.5 117,-49.5 1,-49.5"/>
<text text-anchor="start" x="9" y="-67.5" font-family="Helvetica,sans-Serif" font-size="10.00">ConflictBasedSearch</text>
<text text-anchor="middle" x="59" y="-56.5" font-family="Helvetica,sans-Serif" font-size="10.00">::solve</text>
</a>
</g>
</g>
<!-- Node4&#45;&gt;Node6 -->
<g id="edge8" class="edge">
<title>Node4&#45;&gt;Node6</title>
<path fill="none" stroke="midnightblue" d="M143.93,-49.49C135,-51.09 125.91,-52.72 117.17,-54.28"/>
<polygon fill="midnightblue" stroke="midnightblue" points="144.69,-52.91 153.91,-47.71 143.45,-46.02 144.69,-52.91"/>
</g>
<!-- Node5&#45;&gt;Node3 -->
<g id="edge6" class="edge">
<title>Node5&#45;&gt;Node3</title>
<path fill="none" stroke="midnightblue" d="M128.26,-13.88C136.93,-13.72 145.67,-13.59 154,-13.5 205.55,-12.95 218.45,-12.97 270,-13.5 281.57,-13.62 293.91,-13.81 305.79,-14.04"/>
<polygon fill="midnightblue" stroke="midnightblue" points="128.09,-10.38 118.16,-14.07 128.23,-17.38 128.09,-10.38"/>
</g>
<!-- Node5&#45;&gt;Node4 -->
<g id="edge7" class="edge">
<title>Node5&#45;&gt;Node4</title>
<path fill="none" stroke="midnightblue" d="M128,-32.13C136.66,-33.46 145.45,-34.69 153.91,-35.75"/>
<polygon fill="midnightblue" stroke="midnightblue" points="128.35,-28.64 117.92,-30.52 127.25,-35.55 128.35,-28.64"/>
</g>
</g>
</svg>
