<?xml version="1.0" encoding="UTF-8" standalone="no"?>
<!DOCTYPE svg PUBLIC "-//W3C//DTD SVG 1.1//EN"
 "http://www.w3.org/Graphics/SVG/1.1/DTD/svg11.dtd">
<!-- Generated by graphviz version 2.43.0 (0)
 -->
<!-- Title: MIOCheuristic2&lt; S, &gt; Pages: 1 -->
<svg width="130pt" height="182pt"
 viewBox="0.00 0.00 130.00 182.00" xmlns="http://www.w3.org/2000/svg" xmlns:xlink="http://www.w3.org/1999/xlink">
<g id="graph0" class="graph" transform="scale(1 1) rotate(0) translate(4 178)">
<title>MIOCheuristic2&lt; S, &gt;</title>
<polygon fill="white" stroke="transparent" points="-4,4 -4,-178 126,-178 126,4 -4,4"/>
<!-- Node1 -->
<g id="node1" class="node">
<title>Node1</title>
<g id="a_node1"><a xlink:title=" ">
<polygon fill="#bfbfbf" stroke="black" points="0,-0.5 0,-68.5 122,-68.5 122,-0.5 0,-0.5"/>
<text text-anchor="middle" x="61" y="-56.5" font-family="Helvetica,sans-Serif" font-size="10.00">MIOCheuristic2&lt; S, &gt;</text>
<polyline fill="none" stroke="black" points="0,-49.5 122,-49.5 "/>
<text text-anchor="start" x="8" y="-37.5" font-family="Helvetica,sans-Serif" font-size="10.00">&#45; rraStarSearches</text>
<polyline fill="none" stroke="black" points="0,-30.5 122,-30.5 "/>
<text text-anchor="start" x="8" y="-18.5" font-family="Helvetica,sans-Serif" font-size="10.00">+ MIOCheuristic2()</text>
<text text-anchor="start" x="8" y="-7.5" font-family="Helvetica,sans-Serif" font-size="10.00">+ heuristicFunction()</text>
</a>
</g>
</g>
<!-- Node2 -->
<g id="node2" class="node">
<title>Node2</title>
<g id="a_node2"><a xlink:href="classHeuristic.html" target="_top" xlink:title=" ">
<polygon fill="white" stroke="black" points="1.5,-105.5 1.5,-173.5 120.5,-173.5 120.5,-105.5 1.5,-105.5"/>
<text text-anchor="middle" x="61" y="-161.5" font-family="Helvetica,sans-Serif" font-size="10.00">Heuristic&lt; S &gt;</text>
<polyline fill="none" stroke="black" points="1.5,-154.5 120.5,-154.5 "/>
<text text-anchor="middle" x="61" y="-142.5" font-family="Helvetica,sans-Serif" font-size="10.00"> </text>
<polyline fill="none" stroke="black" points="1.5,-135.5 120.5,-135.5 "/>
<text text-anchor="start" x="9.5" y="-123.5" font-family="Helvetica,sans-Serif" font-size="10.00">+ heuristicFunction()</text>
<text text-anchor="start" x="9.5" y="-112.5" font-family="Helvetica,sans-Serif" font-size="10.00">+ ~Heuristic()</text>
</a>
</g>
</g>
<!-- Node2&#45;&gt;Node1 -->
<g id="edge1" class="edge">
<title>Node2&#45;&gt;Node1</title>
<path fill="none" stroke="midnightblue" d="M61,-95.14C61,-86.26 61,-77.04 61,-68.59"/>
<polygon fill="none" stroke="midnightblue" points="57.5,-95.34 61,-105.34 64.5,-95.34 57.5,-95.34"/>
</g>
</g>
</svg>
