<?xml version="1.0" encoding="UTF-8" standalone="no"?>
<!DOCTYPE svg PUBLIC "-//W3C//DTD SVG 1.1//EN"
 "http://www.w3.org/Graphics/SVG/1.1/DTD/svg11.dtd">
<!-- Generated by graphviz version 2.43.0 (0)
 -->
<!-- Title: Solution::print Pages: 1 -->
<svg width="289pt" height="104pt"
 viewBox="0.00 0.00 289.00 104.00" xmlns="http://www.w3.org/2000/svg" xmlns:xlink="http://www.w3.org/1999/xlink">
<g id="graph0" class="graph" transform="scale(1 1) rotate(0) translate(4 100)">
<title>Solution::print</title>
<polygon fill="white" stroke="transparent" points="-4,4 -4,-100 285,-100 285,4 -4,4"/>
<!-- Node1 -->
<g id="node1" class="node">
<title>Node1</title>
<g id="a_node1"><a xlink:title=" ">
<polygon fill="#bfbfbf" stroke="black" points="0,-38.5 0,-57.5 85,-57.5 85,-38.5 0,-38.5"/>
<text text-anchor="middle" x="42.5" y="-45.5" font-family="Helvetica,sans-Serif" font-size="10.00">Solution::print</text>
</a>
</g>
</g>
<!-- Node2 -->
<g id="node2" class="node">
<title>Node2</title>
<g id="a_node2"><a xlink:href="classSolution.html#abf90913431c8c9dd2c130b4ba0457c26" target="_top" xlink:title="Fuel : Total amount of distance traveled by all agents.">
<polygon fill="white" stroke="black" points="141,-76.5 141,-95.5 261,-95.5 261,-76.5 141,-76.5"/>
<text text-anchor="middle" x="201" y="-83.5" font-family="Helvetica,sans-Serif" font-size="10.00">Solution::getFuelCost</text>
</a>
</g>
</g>
<!-- Node1&#45;&gt;Node2 -->
<g id="edge1" class="edge">
<title>Node1&#45;&gt;Node2</title>
<path fill="none" stroke="midnightblue" d="M82.12,-57.5C94.54,-60.55 108.35,-63.93 121,-67 130.46,-69.3 140.56,-71.74 150.27,-74.08"/>
<polygon fill="midnightblue" stroke="midnightblue" points="149.67,-77.53 160.21,-76.47 151.3,-70.72 149.67,-77.53"/>
</g>
<!-- Node3 -->
<g id="node3" class="node">
<title>Node3</title>
<g id="a_node3"><a xlink:href="classSolution.html#a97722ea3357d75b35017841666633fe1" target="_top" xlink:title="Makespan : Total time for the last agent to reach its goal.">
<polygon fill="white" stroke="black" points="126.5,-38.5 126.5,-57.5 275.5,-57.5 275.5,-38.5 126.5,-38.5"/>
<text text-anchor="middle" x="201" y="-45.5" font-family="Helvetica,sans-Serif" font-size="10.00">Solution::getMakespanCost</text>
</a>
</g>
</g>
<!-- Node1&#45;&gt;Node3 -->
<g id="edge2" class="edge">
<title>Node1&#45;&gt;Node3</title>
<path fill="none" stroke="midnightblue" d="M85.03,-48C94.8,-48 105.57,-48 116.47,-48"/>
<polygon fill="midnightblue" stroke="midnightblue" points="116.5,-51.5 126.5,-48 116.5,-44.5 116.5,-51.5"/>
</g>
<!-- Node4 -->
<g id="node4" class="node">
<title>Node4</title>
<g id="a_node4"><a xlink:href="classSolution.html#aeb23218d4957d969d4d89252f3e31cdb" target="_top" xlink:title=" ">
<polygon fill="white" stroke="black" points="121,-0.5 121,-19.5 281,-19.5 281,-0.5 121,-0.5"/>
<text text-anchor="middle" x="201" y="-7.5" font-family="Helvetica,sans-Serif" font-size="10.00">Solution::getSumOfCostsCost</text>
</a>
</g>
</g>
<!-- Node1&#45;&gt;Node4 -->
<g id="edge3" class="edge">
<title>Node1&#45;&gt;Node4</title>
<path fill="none" stroke="midnightblue" d="M82.12,-38.5C94.54,-35.45 108.35,-32.07 121,-29 130.46,-26.7 140.56,-24.26 150.27,-21.92"/>
<polygon fill="midnightblue" stroke="midnightblue" points="151.3,-25.28 160.21,-19.53 149.67,-18.47 151.3,-25.28"/>
</g>
</g>
</svg>
