<?xml version="1.0" encoding="UTF-8" standalone="no"?>
<!DOCTYPE svg PUBLIC "-//W3C//DTD SVG 1.1//EN"
 "http://www.w3.org/Graphics/SVG/1.1/DTD/svg11.dtd">
<!-- Generated by graphviz version 2.43.0 (0)
 -->
<!-- Title: VertexConstraint::getTime Pages: 1 -->
<svg width="644pt" height="257pt"
 viewBox="0.00 0.00 644.00 257.00" xmlns="http://www.w3.org/2000/svg" xmlns:xlink="http://www.w3.org/1999/xlink">
<g id="graph0" class="graph" transform="scale(1 1) rotate(0) translate(4 253)">
<title>VertexConstraint::getTime</title>
<polygon fill="white" stroke="transparent" points="-4,4 -4,-253 640,-253 640,4 -4,4"/>
<!-- Node1 -->
<g id="node1" class="node">
<title>Node1</title>
<g id="a_node1"><a xlink:title=" ">
<polygon fill="#bfbfbf" stroke="black" points="491,-104 491,-123 636,-123 636,-104 491,-104"/>
<text text-anchor="middle" x="563.5" y="-111" font-family="Helvetica,sans-Serif" font-size="10.00">VertexConstraint::getTime</text>
</a>
</g>
</g>
<!-- Node2 -->
<g id="node2" class="node">
<title>Node2</title>
<g id="a_node2"><a xlink:href="classConflictBasedSearch.html#a1e9a1fbd7e074039fee97bc5ad4c6b55" target="_top" xlink:title=" ">
<polygon fill="white" stroke="black" points="317.5,-196.5 317.5,-226.5 443.5,-226.5 443.5,-196.5 317.5,-196.5"/>
<text text-anchor="start" x="325.5" y="-214.5" font-family="Helvetica,sans-Serif" font-size="10.00">ConflictBasedSearch</text>
<text text-anchor="middle" x="380.5" y="-203.5" font-family="Helvetica,sans-Serif" font-size="10.00">::disjointSplittingSolve</text>
</a>
</g>
</g>
<!-- Node1&#45;&gt;Node2 -->
<g id="edge1" class="edge">
<title>Node1&#45;&gt;Node2</title>
<path fill="none" stroke="midnightblue" d="M542.51,-129.51C521.65,-145.61 487.51,-170.3 455,-186.5 447.64,-190.17 439.62,-193.5 431.66,-196.46"/>
<polygon fill="midnightblue" stroke="midnightblue" points="544.87,-132.1 550.59,-123.18 540.56,-126.59 544.87,-132.1"/>
</g>
<!-- Node6 -->
<g id="node6" class="node">
<title>Node6</title>
<g id="a_node6"><a xlink:href="structSoftVertexConstraintHash.html#a442294c654fbec6f15ead5eaf57a4567" target="_top" xlink:title=" ">
<polygon fill="white" stroke="black" points="309.5,-147.5 309.5,-177.5 451.5,-177.5 451.5,-147.5 309.5,-147.5"/>
<text text-anchor="start" x="317.5" y="-165.5" font-family="Helvetica,sans-Serif" font-size="10.00">SoftVertexConstraintHash</text>
<text text-anchor="middle" x="380.5" y="-154.5" font-family="Helvetica,sans-Serif" font-size="10.00">::operator()</text>
</a>
</g>
</g>
<!-- Node1&#45;&gt;Node6 -->
<g id="edge8" class="edge">
<title>Node1&#45;&gt;Node6</title>
<path fill="none" stroke="midnightblue" d="M517.47,-125.69C493.13,-132.28 462.85,-140.48 437.04,-147.46"/>
<polygon fill="midnightblue" stroke="midnightblue" points="518.43,-129.06 527.17,-123.06 516.6,-122.3 518.43,-129.06"/>
</g>
<!-- Node7 -->
<g id="node7" class="node">
<title>Node7</title>
<g id="a_node7"><a xlink:href="structHardVertexConstraintHash.html#a27aa2fed1a7d82ab0d3248f3c628f60f" target="_top" xlink:title=" ">
<polygon fill="white" stroke="black" points="307.5,-98.5 307.5,-128.5 453.5,-128.5 453.5,-98.5 307.5,-98.5"/>
<text text-anchor="start" x="315.5" y="-116.5" font-family="Helvetica,sans-Serif" font-size="10.00">HardVertexConstraintHash</text>
<text text-anchor="middle" x="380.5" y="-105.5" font-family="Helvetica,sans-Serif" font-size="10.00">::operator()</text>
</a>
</g>
</g>
<!-- Node1&#45;&gt;Node7 -->
<g id="edge9" class="edge">
<title>Node1&#45;&gt;Node7</title>
<path fill="none" stroke="midnightblue" d="M480.82,-113.5C471.78,-113.5 462.62,-113.5 453.7,-113.5"/>
<polygon fill="midnightblue" stroke="midnightblue" points="480.96,-117 490.96,-113.5 480.96,-110 480.96,-117"/>
</g>
<!-- Node8 -->
<g id="node8" class="node">
<title>Node8</title>
<g id="a_node8"><a xlink:href="structSoftVertexConstraintEqual.html#a0f6a58955643e80f129f89d79be3851f" target="_top" xlink:title=" ">
<polygon fill="white" stroke="black" points="308.5,-49.5 308.5,-79.5 452.5,-79.5 452.5,-49.5 308.5,-49.5"/>
<text text-anchor="start" x="316.5" y="-67.5" font-family="Helvetica,sans-Serif" font-size="10.00">SoftVertexConstraintEqual</text>
<text text-anchor="middle" x="380.5" y="-56.5" font-family="Helvetica,sans-Serif" font-size="10.00">::operator()</text>
</a>
</g>
</g>
<!-- Node1&#45;&gt;Node8 -->
<g id="edge10" class="edge">
<title>Node1&#45;&gt;Node8</title>
<path fill="none" stroke="midnightblue" d="M517.47,-101.31C493.13,-94.72 462.85,-86.52 437.04,-79.54"/>
<polygon fill="midnightblue" stroke="midnightblue" points="516.6,-104.7 527.17,-103.94 518.43,-97.94 516.6,-104.7"/>
</g>
<!-- Node9 -->
<g id="node9" class="node">
<title>Node9</title>
<g id="a_node9"><a xlink:href="structHardVertexConstraintEqual.html#a220f722a1d132b4d05805a45442713f8" target="_top" xlink:title=" ">
<polygon fill="white" stroke="black" points="306,-0.5 306,-30.5 455,-30.5 455,-0.5 306,-0.5"/>
<text text-anchor="start" x="314" y="-18.5" font-family="Helvetica,sans-Serif" font-size="10.00">HardVertexConstraintEqual</text>
<text text-anchor="middle" x="380.5" y="-7.5" font-family="Helvetica,sans-Serif" font-size="10.00">::operator()</text>
</a>
</g>
</g>
<!-- Node1&#45;&gt;Node9 -->
<g id="edge11" class="edge">
<title>Node1&#45;&gt;Node9</title>
<path fill="none" stroke="midnightblue" d="M542.92,-97.44C522.16,-81.04 487.88,-55.76 455,-39.5 448.38,-36.23 441.22,-33.25 434.04,-30.6"/>
<polygon fill="midnightblue" stroke="midnightblue" points="540.96,-100.35 550.95,-103.87 545.33,-94.89 540.96,-100.35"/>
</g>
<!-- Node3 -->
<g id="node3" class="node">
<title>Node3</title>
<g id="a_node3"><a xlink:href="classConflictBasedSearch.html#a6aadc55f462faad9ce67903a59b96c62" target="_top" xlink:title=" ">
<polygon fill="white" stroke="black" points="154,-196.5 154,-226.5 270,-226.5 270,-196.5 154,-196.5"/>
<text text-anchor="start" x="162" y="-214.5" font-family="Helvetica,sans-Serif" font-size="10.00">ConflictBasedSearch</text>
<text text-anchor="middle" x="212" y="-203.5" font-family="Helvetica,sans-Serif" font-size="10.00">::solve</text>
</a>
</g>
</g>
<!-- Node2&#45;&gt;Node3 -->
<g id="edge2" class="edge">
<title>Node2&#45;&gt;Node3</title>
<path fill="none" stroke="midnightblue" d="M306.79,-204.8C294.49,-204.68 281.88,-204.77 270.06,-205.06"/>
<polygon fill="midnightblue" stroke="midnightblue" points="306.98,-208.3 317.03,-204.94 307.08,-201.3 306.98,-208.3"/>
</g>
<!-- Node3&#45;&gt;Node2 -->
<g id="edge3" class="edge">
<title>Node3&#45;&gt;Node2</title>
<path fill="none" stroke="midnightblue" d="M280.15,-218.14C292.33,-218.31 304.99,-218.28 317.03,-218.06"/>
<polygon fill="midnightblue" stroke="midnightblue" points="280.12,-214.64 270.06,-217.94 279.99,-221.63 280.12,-214.64"/>
</g>
<!-- Node4 -->
<g id="node4" class="node">
<title>Node4</title>
<g id="a_node4"><a xlink:href="classConflictBasedSearch.html#a2d4ce8cb5d44727d73f4489b39ad1d54" target="_top" xlink:title=" ">
<polygon fill="white" stroke="black" points="0,-218.5 0,-248.5 118,-248.5 118,-218.5 0,-218.5"/>
<text text-anchor="start" x="8" y="-236.5" font-family="Helvetica,sans-Serif" font-size="10.00">ConflictBasedSearch</text>
<text text-anchor="middle" x="59" y="-225.5" font-family="Helvetica,sans-Serif" font-size="10.00">::planIndividualPaths</text>
</a>
</g>
</g>
<!-- Node3&#45;&gt;Node4 -->
<g id="edge4" class="edge">
<title>Node3&#45;&gt;Node4</title>
<path fill="none" stroke="midnightblue" d="M143.85,-214.57C135.2,-215.75 126.4,-217.08 117.92,-218.48"/>
<polygon fill="midnightblue" stroke="midnightblue" points="144.45,-218.02 153.91,-213.25 143.54,-211.08 144.45,-218.02"/>
</g>
<!-- Node5 -->
<g id="node5" class="node">
<title>Node5</title>
<g id="a_node5"><a xlink:href="classConflictBasedSearch.html#a4dac9eef3a5e99677a116bf1dd3e02b0" target="_top" xlink:title=" ">
<polygon fill="white" stroke="black" points="1,-169.5 1,-199.5 117,-199.5 117,-169.5 1,-169.5"/>
<text text-anchor="start" x="9" y="-187.5" font-family="Helvetica,sans-Serif" font-size="10.00">ConflictBasedSearch</text>
<text text-anchor="middle" x="59" y="-176.5" font-family="Helvetica,sans-Serif" font-size="10.00">::solve</text>
</a>
</g>
</g>
<!-- Node3&#45;&gt;Node5 -->
<g id="edge7" class="edge">
<title>Node3&#45;&gt;Node5</title>
<path fill="none" stroke="midnightblue" d="M143.93,-199.51C135,-197.91 125.91,-196.28 117.17,-194.72"/>
<polygon fill="midnightblue" stroke="midnightblue" points="143.45,-202.98 153.91,-201.29 144.69,-196.09 143.45,-202.98"/>
</g>
<!-- Node4&#45;&gt;Node2 -->
<g id="edge5" class="edge">
<title>Node4&#45;&gt;Node2</title>
<path fill="none" stroke="midnightblue" d="M128.26,-235.93C136.92,-236.17 145.67,-236.37 154,-236.5 205.55,-237.32 218.77,-242.27 270,-236.5 288.02,-234.47 307.4,-230.61 324.77,-226.53"/>
<polygon fill="midnightblue" stroke="midnightblue" points="128.26,-232.43 118.16,-235.65 128.06,-239.43 128.26,-232.43"/>
</g>
<!-- Node4&#45;&gt;Node3 -->
<g id="edge6" class="edge">
<title>Node4&#45;&gt;Node3</title>
<path fill="none" stroke="midnightblue" d="M128.18,-230.29C136.78,-229.1 145.51,-227.78 153.91,-226.39"/>
<polygon fill="midnightblue" stroke="midnightblue" points="127.62,-226.83 118.17,-231.61 128.54,-233.77 127.62,-226.83"/>
</g>
</g>
</svg>
