<?xml version="1.0" encoding="UTF-8" standalone="no"?>
<!DOCTYPE svg PUBLIC "-//W3C//DTD SVG 1.1//EN"
 "http://www.w3.org/Graphics/SVG/1.1/DTD/svg11.dtd">
<!-- Generated by graphviz version 2.43.0 (0)
 -->
<!-- Title: Group::getAgents Pages: 1 -->
<svg width="255pt" height="66pt"
 viewBox="0.00 0.00 255.00 66.00" xmlns="http://www.w3.org/2000/svg" xmlns:xlink="http://www.w3.org/1999/xlink">
<g id="graph0" class="graph" transform="scale(1 1) rotate(0) translate(4 62)">
<title>Group::getAgents</title>
<polygon fill="white" stroke="transparent" points="-4,4 -4,-62 251,-62 251,4 -4,4"/>
<!-- Node1 -->
<g id="node1" class="node">
<title>Node1</title>
<g id="a_node1"><a xlink:title=" ">
<polygon fill="#bfbfbf" stroke="black" points="146,-19.5 146,-38.5 247,-38.5 247,-19.5 146,-19.5"/>
<text text-anchor="middle" x="196.5" y="-26.5" font-family="Helvetica,sans-Serif" font-size="10.00">Group::getAgents</text>
</a>
</g>
</g>
<!-- Node2 -->
<g id="node2" class="node">
<title>Node2</title>
<g id="a_node2"><a xlink:href="classGroup.html#ae071a2279f3499848a7990c3144c4299" target="_top" xlink:title=" ">
<polygon fill="white" stroke="black" points="2.5,-38.5 2.5,-57.5 107.5,-57.5 107.5,-38.5 2.5,-38.5"/>
<text text-anchor="middle" x="55" y="-45.5" font-family="Helvetica,sans-Serif" font-size="10.00">Group::operator!=</text>
</a>
</g>
</g>
<!-- Node1&#45;&gt;Node2 -->
<g id="edge1" class="edge">
<title>Node1&#45;&gt;Node2</title>
<path fill="none" stroke="midnightblue" d="M135.9,-37.12C126.54,-38.39 116.94,-39.7 107.77,-40.95"/>
<polygon fill="midnightblue" stroke="midnightblue" points="136.49,-40.57 145.92,-35.75 135.54,-33.63 136.49,-40.57"/>
</g>
<!-- Node3 -->
<g id="node3" class="node">
<title>Node3</title>
<g id="a_node3"><a xlink:href="classGroup.html#abed1b3c5cc6a1b5d6f469ba07168fcde" target="_top" xlink:title=" ">
<polygon fill="white" stroke="black" points="0,-0.5 0,-19.5 110,-19.5 110,-0.5 0,-0.5"/>
<text text-anchor="middle" x="55" y="-7.5" font-family="Helvetica,sans-Serif" font-size="10.00">Group::operator==</text>
</a>
</g>
</g>
<!-- Node1&#45;&gt;Node3 -->
<g id="edge2" class="edge">
<title>Node1&#45;&gt;Node3</title>
<path fill="none" stroke="midnightblue" d="M135.98,-20.89C127.41,-19.73 118.62,-18.53 110.15,-17.38"/>
<polygon fill="midnightblue" stroke="midnightblue" points="135.54,-24.37 145.92,-22.25 136.49,-17.43 135.54,-24.37"/>
</g>
</g>
</svg>
