<?xml version="1.0" encoding="UTF-8" standalone="no"?>
<!DOCTYPE svg PUBLIC "-//W3C//DTD SVG 1.1//EN"
 "http://www.w3.org/Graphics/SVG/1.1/DTD/svg11.dtd">
<!-- Generated by graphviz version 2.43.0 (0)
 -->
<!-- Title: ConflictBasedSearch::planIndividualPaths Pages: 1 -->
<svg width="440pt" height="92pt"
 viewBox="0.00 0.00 440.00 92.00" xmlns="http://www.w3.org/2000/svg" xmlns:xlink="http://www.w3.org/1999/xlink">
<g id="graph0" class="graph" transform="scale(1 1) rotate(0) translate(4 88)">
<title>ConflictBasedSearch::planIndividualPaths</title>
<polygon fill="white" stroke="transparent" points="-4,4 -4,-88 436,-88 436,4 -4,4"/>
<!-- Node1 -->
<g id="node1" class="node">
<title>Node1</title>
<g id="a_node1"><a xlink:title=" ">
<polygon fill="#bfbfbf" stroke="black" points="314,-0.5 314,-30.5 432,-30.5 432,-0.5 314,-0.5"/>
<text text-anchor="start" x="322" y="-18.5" font-family="Helvetica,sans-Serif" font-size="10.00">ConflictBasedSearch</text>
<text text-anchor="middle" x="373" y="-7.5" font-family="Helvetica,sans-Serif" font-size="10.00">::planIndividualPaths</text>
</a>
</g>
</g>
<!-- Node2 -->
<g id="node2" class="node">
<title>Node2</title>
<g id="a_node2"><a xlink:href="classConflictBasedSearch.html#a1e9a1fbd7e074039fee97bc5ad4c6b55" target="_top" xlink:title=" ">
<polygon fill="white" stroke="black" points="152,-53.5 152,-83.5 278,-83.5 278,-53.5 152,-53.5"/>
<text text-anchor="start" x="160" y="-71.5" font-family="Helvetica,sans-Serif" font-size="10.00">ConflictBasedSearch</text>
<text text-anchor="middle" x="215" y="-60.5" font-family="Helvetica,sans-Serif" font-size="10.00">::disjointSplittingSolve</text>
</a>
</g>
</g>
<!-- Node1&#45;&gt;Node2 -->
<g id="edge1" class="edge">
<title>Node1&#45;&gt;Node2</title>
<path fill="none" stroke="midnightblue" d="M318.09,-33.82C299.26,-40.21 278.36,-47.31 260.4,-53.42"/>
<polygon fill="midnightblue" stroke="midnightblue" points="319.37,-37.08 327.71,-30.55 317.12,-30.45 319.37,-37.08"/>
</g>
<!-- Node3 -->
<g id="node3" class="node">
<title>Node3</title>
<g id="a_node3"><a xlink:href="classConflictBasedSearch.html#a6aadc55f462faad9ce67903a59b96c62" target="_top" xlink:title=" ">
<polygon fill="white" stroke="red" points="0,-26.5 0,-56.5 116,-56.5 116,-26.5 0,-26.5"/>
<text text-anchor="start" x="8" y="-44.5" font-family="Helvetica,sans-Serif" font-size="10.00">ConflictBasedSearch</text>
<text text-anchor="middle" x="58" y="-33.5" font-family="Helvetica,sans-Serif" font-size="10.00">::solve</text>
</a>
</g>
</g>
<!-- Node1&#45;&gt;Node3 -->
<g id="edge5" class="edge">
<title>Node1&#45;&gt;Node3</title>
<path fill="none" stroke="midnightblue" d="M303.65,-15.49C247.49,-18.63 168.86,-25.28 116.04,-31.41"/>
<polygon fill="midnightblue" stroke="midnightblue" points="304.06,-18.97 313.86,-14.94 303.69,-11.98 304.06,-18.97"/>
</g>
<!-- Node2&#45;&gt;Node3 -->
<g id="edge2" class="edge">
<title>Node2&#45;&gt;Node3</title>
<path fill="none" stroke="midnightblue" d="M154.22,-51.5C141.69,-49.08 128.51,-46.81 116.08,-44.91"/>
<polygon fill="midnightblue" stroke="midnightblue" points="153.61,-54.94 164.1,-53.45 154.97,-48.08 153.61,-54.94"/>
</g>
<!-- Node3&#45;&gt;Node1 -->
<g id="edge4" class="edge">
<title>Node3&#45;&gt;Node1</title>
<path fill="none" stroke="midnightblue" d="M126.19,-41.58C182.03,-38.48 260.69,-31.86 313.86,-25.72"/>
<polygon fill="midnightblue" stroke="midnightblue" points="125.84,-38.09 116.04,-42.11 126.21,-45.08 125.84,-38.09"/>
</g>
<!-- Node3&#45;&gt;Node2 -->
<g id="edge3" class="edge">
<title>Node3&#45;&gt;Node2</title>
<path fill="none" stroke="midnightblue" d="M118.61,-58.47C129.5,-60.57 140.89,-62.57 151.85,-64.3"/>
<polygon fill="midnightblue" stroke="midnightblue" points="119.26,-55.03 108.77,-56.52 117.9,-61.9 119.26,-55.03"/>
</g>
</g>
</svg>
