<?xml version="1.0" encoding="UTF-8" standalone="no"?>
<!DOCTYPE svg PUBLIC "-//W3C//DTD SVG 1.1//EN"
 "http://www.w3.org/Graphics/SVG/1.1/DTD/svg11.dtd">
<!-- Generated by graphviz version 2.43.0 (0)
 -->
<!-- Title: ConflictBasedSearch::disjointSplittingSolve Pages: 1 -->
<!--zoomable 437 -->
<svg id="main" version="1.1" xmlns="http://www.w3.org/2000/svg" xmlns:xlink="http://www.w3.org/1999/xlink" xml:space="preserve" onload="init(evt)">
<style type="text/css"><![CDATA[
.edge:hover path { stroke: red; }
.edge:hover polygon { stroke: red; fill: red; }
]]></style>
<script type="text/javascript"><![CDATA[
var edges = document.getElementsByTagName('g');
if (edges && edges.length) {
  for (var i=0;i<edges.length;i++) {
    if (edges[i].id.substr(0,4)=='edge') {
      edges[i].setAttribute('class','edge');
    }
  }
}
]]></script>
        <defs>
                <circle id="rim" cx="0" cy="0" r="7"/>
                <circle id="rim2" cx="0" cy="0" r="3.5"/>
                <g id="zoomPlus">
                        <use xlink:href="#rim" fill="#404040">
                                <set attributeName="fill" to="#808080" begin="zoomplus.mouseover" end="zoomplus.mouseout"/>
                        </use>
                        <path d="M-4,0h8M0,-4v8" fill="none" stroke="white" stroke-width="1.5" pointer-events="none"/>
                </g>
                <g id="zoomMin">
                        <use xlink:href="#rim" fill="#404040">
                                <set attributeName="fill" to="#808080" begin="zoomminus.mouseover" end="zoomminus.mouseout"/>
                        </use>
                        <path d="M-4,0h8" fill="none" stroke="white" stroke-width="1.5" pointer-events="none"/>
                </g>
                <g id="dirArrow">
                        <path fill="none" stroke="white" stroke-width="1.5" d="M0,-3.0v7 M-2.5,-0.5L0,-3.0L2.5,-0.5"/>
                </g>
               <g id="resetDef">
                       <use xlink:href="#rim2" fill="#404040">
                               <set attributeName="fill" to="#808080" begin="reset.mouseover" end="reset.mouseout"/>
                       </use>
               </g>
        </defs>

<script type="text/javascript">
var viewWidth = 863;
var viewHeight = 437;
var sectionId = 'dynsection-4';
</script>
<script xlink:href="svgpan.js"/>
<svg id="graph" class="graph">
<g id="viewport">
<title>ConflictBasedSearch::disjointSplittingSolve</title>
<polygon fill="white" stroke="transparent" points="-4,4 -4,-433 859,-433 859,4 -4,4"/>
<!-- Node1 -->
<g id="node1" class="node">
<title>Node1</title>
<g id="a_node1"><a xlink:title=" ">
<polygon fill="#bfbfbf" stroke="black" points="0,-219 0,-249 126,-249 126,-219 0,-219"/>
<text text-anchor="start" x="8" y="-237" font-family="Helvetica,sans-Serif" font-size="10.00">ConflictBasedSearch</text>
<text text-anchor="middle" x="63" y="-226" font-family="Helvetica,sans-Serif" font-size="10.00">::disjointSplittingSolve</text>
</a>
</g>
</g>
<!-- Node2 -->
<g id="node2" class="node">
<title>Node2</title>
<g id="a_node2"><a xlink:href="classConflictBasedSearch.html#a6070f03e97d9e3ea822f5ed1a0bfe9a1" target="_top" xlink:title=" ">
<polygon fill="white" stroke="black" points="560.5,-390 560.5,-420 696.5,-420 696.5,-390 560.5,-390"/>
<text text-anchor="start" x="568.5" y="-408" font-family="Helvetica,sans-Serif" font-size="10.00">ConflictBasedSearch</text>
<text text-anchor="middle" x="628.5" y="-397" font-family="Helvetica,sans-Serif" font-size="10.00">::calculateSetOfConflicts</text>
</a>
</g>
</g>
<!-- Node1&#45;&gt;Node2 -->
<g id="edge1" class="edge">
<title>Node1&#45;&gt;Node2</title>
<path fill="none" stroke="midnightblue" d="M69.46,-249.22C81.12,-279.23 111.6,-345.59 162,-374 283.81,-442.66 453.03,-432.81 550.32,-419.12"/>
<polygon fill="midnightblue" stroke="midnightblue" points="550.98,-422.56 560.37,-417.66 549.97,-415.63 550.98,-422.56"/>
</g>
<!-- Node3 -->
<g id="node3" class="node">
<title>Node3</title>
<g id="a_node3"><a xlink:href="classConflictBasedSearch.html#a6d17a328ed4bd26bf58503a87761164c" target="_top" xlink:title=" ">
<polygon fill="white" stroke="black" points="570.5,-268 570.5,-298 686.5,-298 686.5,-268 570.5,-268"/>
<text text-anchor="start" x="578.5" y="-286" font-family="Helvetica,sans-Serif" font-size="10.00">ConflictBasedSearch</text>
<text text-anchor="middle" x="628.5" y="-275" font-family="Helvetica,sans-Serif" font-size="10.00">::combineSolutions</text>
</a>
</g>
</g>
<!-- Node1&#45;&gt;Node3 -->
<g id="edge2" class="edge">
<title>Node1&#45;&gt;Node3</title>
<path fill="none" stroke="midnightblue" d="M126.13,-243.51C138.02,-245.15 150.38,-246.73 162,-248 303.39,-263.4 469.67,-274.13 560.28,-279.36"/>
<polygon fill="midnightblue" stroke="midnightblue" points="560.23,-282.86 570.42,-279.94 560.63,-275.87 560.23,-282.86"/>
</g>
<!-- Node5 -->
<g id="node5" class="node">
<title>Node5</title>
<g id="a_node5"><a xlink:href="Solution_8cpp.html#a1668e5fa72e047531e95f29f5deaf233" target="_top" xlink:title=" ">
<polygon fill="white" stroke="black" points="235.5,-186.5 235.5,-205.5 292.5,-205.5 292.5,-186.5 235.5,-186.5"/>
<text text-anchor="middle" x="264" y="-193.5" font-family="Helvetica,sans-Serif" font-size="10.00">fuelCost</text>
</a>
</g>
</g>
<!-- Node1&#45;&gt;Node5 -->
<g id="edge4" class="edge">
<title>Node1&#45;&gt;Node5</title>
<path fill="none" stroke="midnightblue" d="M126.15,-222.13C158.61,-215.93 197.27,-208.55 225.21,-203.22"/>
<polygon fill="midnightblue" stroke="midnightblue" points="226.19,-206.59 235.36,-201.28 224.88,-199.72 226.19,-206.59"/>
</g>
<!-- Node6 -->
<g id="node6" class="node">
<title>Node6</title>
<g id="a_node6"><a xlink:href="classVertexConstraint.html#ae4a5ede3e21dcbc4dec0060a90682c15" target="_top" xlink:title=" ">
<polygon fill="white" stroke="black" points="191.5,-148.5 191.5,-167.5 336.5,-167.5 336.5,-148.5 191.5,-148.5"/>
<text text-anchor="middle" x="264" y="-155.5" font-family="Helvetica,sans-Serif" font-size="10.00">VertexConstraint::getTime</text>
</a>
</g>
</g>
<!-- Node1&#45;&gt;Node6 -->
<g id="edge5" class="edge">
<title>Node1&#45;&gt;Node6</title>
<path fill="none" stroke="midnightblue" d="M85.12,-218.85C104.29,-205.81 133.78,-187.51 162,-177 169.29,-174.29 177.03,-171.95 184.84,-169.93"/>
<polygon fill="midnightblue" stroke="midnightblue" points="185.86,-173.29 194.76,-167.55 184.22,-166.48 185.86,-173.29"/>
</g>
<!-- Node7 -->
<g id="node7" class="node">
<title>Node7</title>
<g id="a_node7"><a xlink:href="Solution_8cpp.html#a88b7fad200133f09ed5879a14d0171c6" target="_top" xlink:title=" ">
<polygon fill="white" stroke="black" points="219.5,-110.5 219.5,-129.5 308.5,-129.5 308.5,-110.5 219.5,-110.5"/>
<text text-anchor="middle" x="264" y="-117.5" font-family="Helvetica,sans-Serif" font-size="10.00">makespanCost</text>
</a>
</g>
</g>
<!-- Node1&#45;&gt;Node7 -->
<g id="edge6" class="edge">
<title>Node1&#45;&gt;Node7</title>
<path fill="none" stroke="midnightblue" d="M75.04,-218.68C91.43,-197.18 124.34,-158.51 162,-139 176.43,-131.53 193.37,-126.97 209.21,-124.19"/>
<polygon fill="midnightblue" stroke="midnightblue" points="210.08,-127.6 219.42,-122.61 209.01,-120.68 210.08,-127.6"/>
</g>
<!-- Node8 -->
<g id="node8" class="node">
<title>Node8</title>
<g id="a_node8"><a xlink:href="classConflictBasedSearch.html#a9a97b362b4e2df901352732921975454" target="_top" xlink:title=" ">
<polygon fill="white" stroke="black" points="200,-61 200,-91 328,-91 328,-61 200,-61"/>
<text text-anchor="start" x="208" y="-79" font-family="Helvetica,sans-Serif" font-size="10.00">ConflictBasedSearch</text>
<text text-anchor="middle" x="264" y="-68" font-family="Helvetica,sans-Serif" font-size="10.00">::okForHardConstraints</text>
</a>
</g>
</g>
<!-- Node1&#45;&gt;Node8 -->
<g id="edge7" class="edge">
<title>Node1&#45;&gt;Node8</title>
<path fill="none" stroke="midnightblue" d="M70.73,-218.96C83.98,-191.11 116.22,-131.6 162,-101 170.54,-95.29 180.26,-90.89 190.22,-87.49"/>
<polygon fill="midnightblue" stroke="midnightblue" points="191.3,-90.82 199.82,-84.53 189.23,-84.13 191.3,-90.82"/>
</g>
<!-- Node9 -->
<g id="node9" class="node">
<title>Node9</title>
<g id="a_node9"><a xlink:href="classConflictBasedSearch.html#a2d4ce8cb5d44727d73f4489b39ad1d54" target="_top" xlink:title=" ">
<polygon fill="white" stroke="black" points="205,-301 205,-331 323,-331 323,-301 205,-301"/>
<text text-anchor="start" x="213" y="-319" font-family="Helvetica,sans-Serif" font-size="10.00">ConflictBasedSearch</text>
<text text-anchor="middle" x="264" y="-308" font-family="Helvetica,sans-Serif" font-size="10.00">::planIndividualPaths</text>
</a>
</g>
</g>
<!-- Node1&#45;&gt;Node9 -->
<g id="edge8" class="edge">
<title>Node1&#45;&gt;Node9</title>
<path fill="none" stroke="midnightblue" d="M89.12,-249.12C108.53,-260.36 136.33,-275.5 162,-286 172.61,-290.34 184.07,-294.35 195.34,-297.94"/>
<polygon fill="midnightblue" stroke="midnightblue" points="194.57,-301.36 205.16,-300.97 196.64,-294.68 194.57,-301.36"/>
</g>
<!-- Node10 -->
<g id="node10" class="node">
<title>Node10</title>
<g id="a_node10"><a xlink:href="classConflictBasedSearch.html#a6aadc55f462faad9ce67903a59b96c62" target="_top" xlink:title=" ">
<polygon fill="white" stroke="black" points="402,-312 402,-342 518,-342 518,-312 402,-312"/>
<text text-anchor="start" x="410" y="-330" font-family="Helvetica,sans-Serif" font-size="10.00">ConflictBasedSearch</text>
<text text-anchor="middle" x="460" y="-319" font-family="Helvetica,sans-Serif" font-size="10.00">::solve</text>
</a>
</g>
</g>
<!-- Node1&#45;&gt;Node10 -->
<g id="edge17" class="edge">
<title>Node1&#45;&gt;Node10</title>
<path fill="none" stroke="midnightblue" d="M75.92,-249.09C91.74,-272.24 122.34,-314.55 162,-332 235.51,-364.36 329.37,-352.21 391.69,-339.73"/>
<polygon fill="midnightblue" stroke="midnightblue" points="392.71,-343.09 401.8,-337.65 391.3,-336.23 392.71,-343.09"/>
</g>
<!-- Node12 -->
<g id="node12" class="node">
<title>Node12</title>
<g id="a_node12"><a xlink:href="classConflictBasedSearch.html#a727a9172ea3f3fbf4eca9f247d3f5356" target="_top" xlink:title=" ">
<polygon fill="white" stroke="black" points="566,-219 566,-249 691,-249 691,-219 566,-219"/>
<text text-anchor="start" x="574" y="-237" font-family="Helvetica,sans-Serif" font-size="10.00">ConflictBasedSearch</text>
<text text-anchor="middle" x="628.5" y="-226" font-family="Helvetica,sans-Serif" font-size="10.00">::updateSetOfConflicts</text>
</a>
</g>
</g>
<!-- Node1&#45;&gt;Node12 -->
<g id="edge18" class="edge">
<title>Node1&#45;&gt;Node12</title>
<path fill="none" stroke="midnightblue" d="M126.19,-234C231.52,-234 444.43,-234 555.85,-234"/>
<polygon fill="midnightblue" stroke="midnightblue" points="555.98,-237.5 565.98,-234 555.98,-230.5 555.98,-237.5"/>
</g>
<!-- Node13 -->
<g id="node13" class="node">
<title>Node13</title>
<g id="a_node13"><a xlink:href="classConflictBasedSearch.html#aeea91c6d2aa04bbd44b4f6a1382d81d4" target="_top" xlink:title=" ">
<polygon fill="white" stroke="black" points="162,-0.5 162,-41.5 366,-41.5 366,-0.5 162,-0.5"/>
<text text-anchor="start" x="170" y="-29.5" font-family="Helvetica,sans-Serif" font-size="10.00">ConflictBasedSearch</text>
<text text-anchor="start" x="170" y="-18.5" font-family="Helvetica,sans-Serif" font-size="10.00">::retrieveSetsOfConstraints</text>
<text text-anchor="middle" x="264" y="-7.5" font-family="Helvetica,sans-Serif" font-size="10.00">AndCostsAndSolutionsDisjointSplitting</text>
</a>
</g>
</g>
<!-- Node1&#45;&gt;Node13 -->
<g id="edge16" class="edge">
<title>Node1&#45;&gt;Node13</title>
<path fill="none" stroke="midnightblue" d="M67.78,-218.89C77.32,-183.91 105.71,-96.88 162,-51 163.6,-49.7 165.24,-48.46 166.94,-47.27"/>
<polygon fill="midnightblue" stroke="midnightblue" points="169.15,-50.02 175.78,-41.75 165.44,-44.08 169.15,-50.02"/>
</g>
<!-- Node4 -->
<g id="node4" class="node">
<title>Node4</title>
<g id="a_node4"><a xlink:href="classConflictBasedSearch.html#a3a9f295491df3b7ceec1b1d2ce7bacf3" target="_top" xlink:title=" ">
<polygon fill="white" stroke="black" points="739,-268 739,-298 855,-298 855,-268 739,-268"/>
<text text-anchor="start" x="747" y="-286" font-family="Helvetica,sans-Serif" font-size="10.00">ConflictBasedSearch</text>
<text text-anchor="middle" x="797" y="-275" font-family="Helvetica,sans-Serif" font-size="10.00">::retrieveSolutions</text>
</a>
</g>
</g>
<!-- Node3&#45;&gt;Node4 -->
<g id="edge3" class="edge">
<title>Node3&#45;&gt;Node4</title>
<path fill="none" stroke="midnightblue" d="M686.8,-283C700.35,-283 714.92,-283 728.86,-283"/>
<polygon fill="midnightblue" stroke="midnightblue" points="728.88,-286.5 738.88,-283 728.88,-279.5 728.88,-286.5"/>
</g>
<!-- Node9&#45;&gt;Node10 -->
<g id="edge9" class="edge">
<title>Node9&#45;&gt;Node10</title>
<path fill="none" stroke="midnightblue" d="M323.21,-313.06C344.79,-313.69 369.44,-315.01 391.76,-316.73"/>
<polygon fill="midnightblue" stroke="midnightblue" points="391.59,-320.23 401.84,-317.54 392.15,-313.25 391.59,-320.23"/>
</g>
<!-- Node10&#45;&gt;Node1 -->
<g id="edge12" class="edge">
<title>Node10&#45;&gt;Node1</title>
<path fill="none" stroke="midnightblue" d="M429.17,-342.04C373.78,-362.23 252.48,-389.82 162,-350 120.78,-331.86 89.33,-286.87 74.12,-258.31"/>
<polygon fill="midnightblue" stroke="midnightblue" points="77.21,-256.68 69.59,-249.32 70.96,-259.83 77.21,-256.68"/>
</g>
<!-- Node10&#45;&gt;Node2 -->
<g id="edge10" class="edge">
<title>Node10&#45;&gt;Node2</title>
<path fill="none" stroke="midnightblue" d="M493.1,-342.04C519.51,-354.41 557.12,-372.03 585.84,-385.48"/>
<polygon fill="midnightblue" stroke="midnightblue" points="584.67,-388.8 595.21,-389.87 587.64,-382.46 584.67,-388.8"/>
</g>
<!-- Node10&#45;&gt;Node3 -->
<g id="edge11" class="edge">
<title>Node10&#45;&gt;Node3</title>
<path fill="none" stroke="midnightblue" d="M517.83,-311.98C531.69,-308.32 546.63,-304.37 560.9,-300.6"/>
<polygon fill="midnightblue" stroke="midnightblue" points="561.87,-303.97 570.64,-298.03 560.08,-297.2 561.87,-303.97"/>
</g>
<!-- Node10&#45;&gt;Node9 -->
<g id="edge13" class="edge">
<title>Node10&#45;&gt;Node9</title>
<path fill="none" stroke="midnightblue" d="M401.84,-329.98C380.35,-329.37 355.72,-328.06 333.32,-326.35"/>
<polygon fill="midnightblue" stroke="midnightblue" points="333.45,-322.85 323.21,-325.55 332.9,-329.83 333.45,-322.85"/>
</g>
<!-- Node11 -->
<g id="node11" class="node">
<title>Node11</title>
<g id="a_node11"><a xlink:href="classConflictBasedSearch.html#adfcf0b5e67e17a8eada77fed4ed4ea20" target="_top" xlink:title=" ">
<polygon fill="white" stroke="black" points="554,-317.5 554,-358.5 703,-358.5 703,-317.5 554,-317.5"/>
<text text-anchor="start" x="562" y="-346.5" font-family="Helvetica,sans-Serif" font-size="10.00">ConflictBasedSearch</text>
<text text-anchor="start" x="562" y="-335.5" font-family="Helvetica,sans-Serif" font-size="10.00">::retrieveSetsOfConstraints</text>
<text text-anchor="middle" x="628.5" y="-324.5" font-family="Helvetica,sans-Serif" font-size="10.00">AndCostsAndSolutions</text>
</a>
</g>
</g>
<!-- Node10&#45;&gt;Node11 -->
<g id="edge14" class="edge">
<title>Node10&#45;&gt;Node11</title>
<path fill="none" stroke="midnightblue" d="M518.3,-330.79C526.55,-331.33 535.17,-331.9 543.81,-332.47"/>
<polygon fill="midnightblue" stroke="midnightblue" points="543.71,-335.97 553.92,-333.14 544.17,-328.99 543.71,-335.97"/>
</g>
<!-- Node10&#45;&gt;Node12 -->
<g id="edge15" class="edge">
<title>Node10&#45;&gt;Node12</title>
<path fill="none" stroke="midnightblue" d="M477.71,-311.97C495.51,-296.61 525.07,-272.95 554,-258 557.52,-256.18 561.21,-254.46 564.98,-252.84"/>
<polygon fill="midnightblue" stroke="midnightblue" points="566.49,-256.01 574.46,-249.03 563.88,-249.51 566.49,-256.01"/>
</g>
</g>
</svg>
        <g id="navigator" transform="translate(0 0)" fill="#404254">
                <rect fill="#f2f5e9" fill-opacity="0.5" stroke="#606060" stroke-width=".5" x="0" y="0" width="60" height="60"/>
                <use id="zoomplus" xlink:href="#zoomPlus" x="17" y="9" onmousedown="handleZoom(evt,'in')"/>
                <use id="zoomminus" xlink:href="#zoomMin" x="42" y="9" onmousedown="handleZoom(evt,'out')"/>
                <use id="reset" xlink:href="#resetDef" x="30" y="36" onmousedown="handleReset()"/>
                <g id="arrowUp" xlink:href="#dirArrow" transform="translate(30 24)" onmousedown="handlePan(0,-1)">
                  <use xlink:href="#rim" fill="#404040">
                        <set attributeName="fill" to="#808080" begin="arrowUp.mouseover" end="arrowUp.mouseout"/>
                  </use>
                  <path fill="none" stroke="white" stroke-width="1.5" d="M0,-3.0v7 M-2.5,-0.5L0,-3.0L2.5,-0.5"/>
                </g>
                <g id="arrowRight" xlink:href="#dirArrow" transform="rotate(90) translate(36 -43)" onmousedown="handlePan(1,0)">
                  <use xlink:href="#rim" fill="#404040">
                        <set attributeName="fill" to="#808080" begin="arrowRight.mouseover" end="arrowRight.mouseout"/>
                  </use>
                  <path fill="none" stroke="white" stroke-width="1.5" d="M0,-3.0v7 M-2.5,-0.5L0,-3.0L2.5,-0.5"/>
                </g>
                <g id="arrowDown" xlink:href="#dirArrow" transform="rotate(180) translate(-30 -48)" onmousedown="handlePan(0,1)">
                  <use xlink:href="#rim" fill="#404040">
                        <set attributeName="fill" to="#808080" begin="arrowDown.mouseover" end="arrowDown.mouseout"/>
                  </use>
                  <path fill="none" stroke="white" stroke-width="1.5" d="M0,-3.0v7 M-2.5,-0.5L0,-3.0L2.5,-0.5"/>
                </g>
                <g id="arrowLeft" xlink:href="#dirArrow" transform="rotate(270) translate(-36 17)" onmousedown="handlePan(-1,0)">
                  <use xlink:href="#rim" fill="#404040">
                        <set attributeName="fill" to="#808080" begin="arrowLeft.mouseover" end="arrowLeft.mouseout"/>
                  </use>
                  <path fill="none" stroke="white" stroke-width="1.5" d="M0,-3.0v7 M-2.5,-0.5L0,-3.0L2.5,-0.5"/>
                </g>
        </g>
        <svg viewBox="0 0 15 15" width="100%" height="30px" preserveAspectRatio="xMaxYMin meet">
         <g id="arrow_out" transform="scale(0.3 0.3)">
          <a xlink:href="classConflictBasedSearch_a1e9a1fbd7e074039fee97bc5ad4c6b55_cgraph_org.svg" target="_base">
           <rect id="button" ry="5" rx="5" y="6" x="6" height="38" width="38"
                fill="#f2f5e9" fill-opacity="0.5" stroke="#606060" stroke-width="1.0"/>
           <path id="arrow"
             d="M 11.500037,31.436501 C 11.940474,20.09759 22.043105,11.32322 32.158766,21.979434 L 37.068811,17.246167 C 37.068811,17.246167 37.088388,32 37.088388,32 L 22.160133,31.978069 C 22.160133,31.978069 26.997745,27.140456 26.997745,27.140456 C 18.528582,18.264221 13.291696,25.230495 11.500037,31.436501 z"
             style="fill:#404040;"/>
          </a>
         </g>
        </svg>
</svg>
