<?xml version="1.0" encoding="UTF-8" standalone="no"?>
<!DOCTYPE svg PUBLIC "-//W3C//DTD SVG 1.1//EN"
 "http://www.w3.org/Graphics/SVG/1.1/DTD/svg11.dtd">
<!-- Generated by graphviz version 2.43.0 (0)
 -->
<!-- Title: EdgeConstraint::getAgent Pages: 1 -->
<svg width="326pt" height="88pt"
 viewBox="0.00 0.00 326.00 88.00" xmlns="http://www.w3.org/2000/svg" xmlns:xlink="http://www.w3.org/1999/xlink">
<g id="graph0" class="graph" transform="scale(1 1) rotate(0) translate(4 84)">
<title>EdgeConstraint::getAgent</title>
<polygon fill="white" stroke="transparent" points="-4,4 -4,-84 322,-84 322,4 -4,4"/>
<!-- Node1 -->
<g id="node1" class="node">
<title>Node1</title>
<g id="a_node1"><a xlink:title=" ">
<polygon fill="#bfbfbf" stroke="black" points="177,-30 177,-49 318,-49 318,-30 177,-30"/>
<text text-anchor="middle" x="247.5" y="-37" font-family="Helvetica,sans-Serif" font-size="10.00">EdgeConstraint::getAgent</text>
</a>
</g>
</g>
<!-- Node2 -->
<g id="node2" class="node">
<title>Node2</title>
<g id="a_node2"><a xlink:href="structHardEdgeConstraintHash.html#adb69e40ffe269128d15111d65f882e51" target="_top" xlink:title=" ">
<polygon fill="white" stroke="black" points="1,-49.5 1,-79.5 140,-79.5 140,-49.5 1,-49.5"/>
<text text-anchor="start" x="9" y="-67.5" font-family="Helvetica,sans-Serif" font-size="10.00">HardEdgeConstraintHash</text>
<text text-anchor="middle" x="70.5" y="-56.5" font-family="Helvetica,sans-Serif" font-size="10.00">::operator()</text>
</a>
</g>
</g>
<!-- Node1&#45;&gt;Node2 -->
<g id="edge1" class="edge">
<title>Node1&#45;&gt;Node2</title>
<path fill="none" stroke="midnightblue" d="M169.65,-50.48C159.78,-51.89 149.73,-53.32 140.01,-54.71"/>
<polygon fill="midnightblue" stroke="midnightblue" points="170.44,-53.9 179.84,-49.02 169.45,-46.97 170.44,-53.9"/>
</g>
<!-- Node3 -->
<g id="node3" class="node">
<title>Node3</title>
<g id="a_node3"><a xlink:href="structHardEdgeConstraintEqual.html#a4c93a140a6c125eed5912fa048f2af77" target="_top" xlink:title=" ">
<polygon fill="white" stroke="black" points="0,-0.5 0,-30.5 141,-30.5 141,-0.5 0,-0.5"/>
<text text-anchor="start" x="8" y="-18.5" font-family="Helvetica,sans-Serif" font-size="10.00">HardEdgeConstraintEqual</text>
<text text-anchor="middle" x="70.5" y="-7.5" font-family="Helvetica,sans-Serif" font-size="10.00">::operator()</text>
</a>
</g>
</g>
<!-- Node1&#45;&gt;Node3 -->
<g id="edge2" class="edge">
<title>Node1&#45;&gt;Node3</title>
<path fill="none" stroke="midnightblue" d="M167.01,-28.6C158.37,-27.41 149.63,-26.21 141.12,-25.05"/>
<polygon fill="midnightblue" stroke="midnightblue" points="166.7,-32.09 177.08,-29.98 167.65,-25.15 166.7,-32.09"/>
</g>
</g>
</svg>
