<?xml version="1.0" encoding="UTF-8" standalone="no"?>
<!DOCTYPE svg PUBLIC "-//W3C//DTD SVG 1.1//EN"
 "http://www.w3.org/Graphics/SVG/1.1/DTD/svg11.dtd">
<!-- Generated by graphviz version 2.43.0 (0)
 -->
<!-- Title: ConflictBasedSearch::retrieveSetsOfConstraintsAndCostsAndSolutions Pages: 1 -->
<svg width="625pt" height="141pt"
 viewBox="0.00 0.00 625.00 141.00" xmlns="http://www.w3.org/2000/svg" xmlns:xlink="http://www.w3.org/1999/xlink">
<g id="graph0" class="graph" transform="scale(1 1) rotate(0) translate(4 137)">
<title>ConflictBasedSearch::retrieveSetsOfConstraintsAndCostsAndSolutions</title>
<polygon fill="white" stroke="transparent" points="-4,4 -4,-137 621,-137 621,4 -4,4"/>
<!-- Node1 -->
<g id="node1" class="node">
<title>Node1</title>
<g id="a_node1"><a xlink:title=" ">
<polygon fill="#bfbfbf" stroke="black" points="468,-44 468,-85 617,-85 617,-44 468,-44"/>
<text text-anchor="start" x="476" y="-73" font-family="Helvetica,sans-Serif" font-size="10.00">ConflictBasedSearch</text>
<text text-anchor="start" x="476" y="-62" font-family="Helvetica,sans-Serif" font-size="10.00">::retrieveSetsOfConstraints</text>
<text text-anchor="middle" x="542.5" y="-51" font-family="Helvetica,sans-Serif" font-size="10.00">AndCostsAndSolutions</text>
</a>
</g>
</g>
<!-- Node2 -->
<g id="node2" class="node">
<title>Node2</title>
<g id="a_node2"><a xlink:href="classConflictBasedSearch.html#a6aadc55f462faad9ce67903a59b96c62" target="_top" xlink:title=" ">
<polygon fill="white" stroke="black" points="316,-49.5 316,-79.5 432,-79.5 432,-49.5 316,-49.5"/>
<text text-anchor="start" x="324" y="-67.5" font-family="Helvetica,sans-Serif" font-size="10.00">ConflictBasedSearch</text>
<text text-anchor="middle" x="374" y="-56.5" font-family="Helvetica,sans-Serif" font-size="10.00">::solve</text>
</a>
</g>
</g>
<!-- Node1&#45;&gt;Node2 -->
<g id="edge1" class="edge">
<title>Node1&#45;&gt;Node2</title>
<path fill="none" stroke="midnightblue" d="M457.8,-64.5C449.11,-64.5 440.42,-64.5 432.12,-64.5"/>
<polygon fill="midnightblue" stroke="midnightblue" points="457.99,-68 467.99,-64.5 457.99,-61 457.99,-68"/>
</g>
<!-- Node3 -->
<g id="node3" class="node">
<title>Node3</title>
<g id="a_node3"><a xlink:href="classConflictBasedSearch.html#a1e9a1fbd7e074039fee97bc5ad4c6b55" target="_top" xlink:title=" ">
<polygon fill="white" stroke="black" points="0,-102.5 0,-132.5 126,-132.5 126,-102.5 0,-102.5"/>
<text text-anchor="start" x="8" y="-120.5" font-family="Helvetica,sans-Serif" font-size="10.00">ConflictBasedSearch</text>
<text text-anchor="middle" x="63" y="-109.5" font-family="Helvetica,sans-Serif" font-size="10.00">::disjointSplittingSolve</text>
</a>
</g>
</g>
<!-- Node2&#45;&gt;Node3 -->
<g id="edge2" class="edge">
<title>Node2&#45;&gt;Node3</title>
<path fill="none" stroke="midnightblue" d="M305.99,-74.73C297.29,-76.81 288.46,-78.82 280,-80.5 228.63,-90.69 169.62,-98.05 126.27,-104.08"/>
<polygon fill="midnightblue" stroke="midnightblue" points="306.84,-78.12 315.73,-72.37 305.19,-71.32 306.84,-78.12"/>
</g>
<!-- Node4 -->
<g id="node4" class="node">
<title>Node4</title>
<g id="a_node4"><a xlink:href="classConflictBasedSearch.html#a2d4ce8cb5d44727d73f4489b39ad1d54" target="_top" xlink:title=" ">
<polygon fill="white" stroke="black" points="162,-49.5 162,-79.5 280,-79.5 280,-49.5 162,-49.5"/>
<text text-anchor="start" x="170" y="-67.5" font-family="Helvetica,sans-Serif" font-size="10.00">ConflictBasedSearch</text>
<text text-anchor="middle" x="221" y="-56.5" font-family="Helvetica,sans-Serif" font-size="10.00">::planIndividualPaths</text>
</a>
</g>
</g>
<!-- Node2&#45;&gt;Node4 -->
<g id="edge4" class="edge">
<title>Node2&#45;&gt;Node4</title>
<path fill="none" stroke="midnightblue" d="M305.65,-57.79C297.15,-57.71 288.51,-57.75 280.17,-57.91"/>
<polygon fill="midnightblue" stroke="midnightblue" points="305.86,-61.29 315.91,-57.93 305.96,-54.29 305.86,-61.29"/>
</g>
<!-- Node5 -->
<g id="node5" class="node">
<title>Node5</title>
<g id="a_node5"><a xlink:href="classConflictBasedSearch.html#a4dac9eef3a5e99677a116bf1dd3e02b0" target="_top" xlink:title=" ">
<polygon fill="white" stroke="black" points="163,-0.5 163,-30.5 279,-30.5 279,-0.5 163,-0.5"/>
<text text-anchor="start" x="171" y="-18.5" font-family="Helvetica,sans-Serif" font-size="10.00">ConflictBasedSearch</text>
<text text-anchor="middle" x="221" y="-7.5" font-family="Helvetica,sans-Serif" font-size="10.00">::solve</text>
</a>
</g>
</g>
<!-- Node2&#45;&gt;Node5 -->
<g id="edge7" class="edge">
<title>Node2&#45;&gt;Node5</title>
<path fill="none" stroke="midnightblue" d="M316.73,-46.24C300.81,-41.07 283.66,-35.51 268.38,-30.55"/>
<polygon fill="midnightblue" stroke="midnightblue" points="315.87,-49.64 326.46,-49.4 318.03,-42.98 315.87,-49.64"/>
</g>
<!-- Node3&#45;&gt;Node2 -->
<g id="edge3" class="edge">
<title>Node3&#45;&gt;Node2</title>
<path fill="none" stroke="midnightblue" d="M136.44,-118.43C178.56,-114.91 232.54,-107.91 280,-98.5 303.45,-93.85 329.72,-86.59 348.34,-79.53"/>
<polygon fill="midnightblue" stroke="midnightblue" points="135.97,-114.96 126.27,-119.23 136.52,-121.94 135.97,-114.96"/>
</g>
<!-- Node4&#45;&gt;Node2 -->
<g id="edge6" class="edge">
<title>Node4&#45;&gt;Node2</title>
<path fill="none" stroke="midnightblue" d="M290.18,-71.22C298.78,-71.29 307.51,-71.24 315.91,-71.07"/>
<polygon fill="midnightblue" stroke="midnightblue" points="290.22,-67.72 280.17,-71.09 290.12,-74.72 290.22,-67.72"/>
</g>
<!-- Node4&#45;&gt;Node3 -->
<g id="edge5" class="edge">
<title>Node4&#45;&gt;Node3</title>
<path fill="none" stroke="midnightblue" d="M166.09,-82.82C147.26,-89.21 126.36,-96.31 108.4,-102.42"/>
<polygon fill="midnightblue" stroke="midnightblue" points="167.37,-86.08 175.71,-79.55 165.12,-79.45 167.37,-86.08"/>
</g>
</g>
</svg>
