<?xml version="1.0" encoding="UTF-8" standalone="no"?>
<!DOCTYPE svg PUBLIC "-//W3C//DTD SVG 1.1//EN"
 "http://www.w3.org/Graphics/SVG/1.1/DTD/svg11.dtd">
<!-- Generated by graphviz version 2.43.0 (0)
 -->
<!-- Title: State Pages: 1 -->
<!--zoomable 441 -->
<svg id="main" version="1.1" xmlns="http://www.w3.org/2000/svg" xmlns:xlink="http://www.w3.org/1999/xlink" xml:space="preserve" onload="init(evt)">
<style type="text/css"><![CDATA[
.edge:hover path { stroke: red; }
.edge:hover polygon { stroke: red; fill: red; }
]]></style>
<script type="text/javascript"><![CDATA[
var edges = document.getElementsByTagName('g');
if (edges && edges.length) {
  for (var i=0;i<edges.length;i++) {
    if (edges[i].id.substr(0,4)=='edge') {
      edges[i].setAttribute('class','edge');
    }
  }
}
]]></script>
        <defs>
                <circle id="rim" cx="0" cy="0" r="7"/>
                <circle id="rim2" cx="0" cy="0" r="3.5"/>
                <g id="zoomPlus">
                        <use xlink:href="#rim" fill="#404040">
                                <set attributeName="fill" to="#808080" begin="zoomplus.mouseover" end="zoomplus.mouseout"/>
                        </use>
                        <path d="M-4,0h8M0,-4v8" fill="none" stroke="white" stroke-width="1.5" pointer-events="none"/>
                </g>
                <g id="zoomMin">
                        <use xlink:href="#rim" fill="#404040">
                                <set attributeName="fill" to="#808080" begin="zoomminus.mouseover" end="zoomminus.mouseout"/>
                        </use>
                        <path d="M-4,0h8" fill="none" stroke="white" stroke-width="1.5" pointer-events="none"/>
                </g>
                <g id="dirArrow">
                        <path fill="none" stroke="white" stroke-width="1.5" d="M0,-3.0v7 M-2.5,-0.5L0,-3.0L2.5,-0.5"/>
                </g>
               <g id="resetDef">
                       <use xlink:href="#rim2" fill="#404040">
                               <set attributeName="fill" to="#808080" begin="reset.mouseover" end="reset.mouseout"/>
                       </use>
               </g>
        </defs>

<script type="text/javascript">
var viewWidth = 697;
var viewHeight = 441;
var sectionId = 'dynsection-0';
</script>
<script xlink:href="svgpan.js"/>
<svg id="graph" class="graph">
<g id="viewport">
<title>State</title>
<polygon fill="white" stroke="transparent" points="-4,4 -4,-437 693,-437 693,4 -4,4"/>
<!-- Node1 -->
<g id="node1" class="node">
<title>Node1</title>
<g id="a_node1"><a xlink:title=" ">
<polygon fill="#bfbfbf" stroke="black" points="313.5,-375.5 313.5,-432.5 389.5,-432.5 389.5,-375.5 313.5,-375.5"/>
<text text-anchor="middle" x="351.5" y="-420.5" font-family="Helvetica,sans-Serif" font-size="10.00">State</text>
<polyline fill="none" stroke="black" points="313.5,-413.5 389.5,-413.5 "/>
<text text-anchor="middle" x="351.5" y="-401.5" font-family="Helvetica,sans-Serif" font-size="10.00"> </text>
<polyline fill="none" stroke="black" points="313.5,-394.5 389.5,-394.5 "/>
<text text-anchor="start" x="321.5" y="-382.5" font-family="Helvetica,sans-Serif" font-size="10.00">+ getHash()</text>
</a>
</g>
</g>
<!-- Node2 -->
<g id="node2" class="node">
<title>Node2</title>
<g id="a_node2"><a xlink:href="classODMultiAgentState.html" target="_top" xlink:title=" ">
<polygon fill="white" stroke="black" points="27,-149.5 27,-338.5 156,-338.5 156,-149.5 27,-149.5"/>
<text text-anchor="middle" x="91.5" y="-326.5" font-family="Helvetica,sans-Serif" font-size="10.00">ODMultiAgentState</text>
<polyline fill="none" stroke="black" points="27,-319.5 156,-319.5 "/>
<text text-anchor="start" x="35" y="-307.5" font-family="Helvetica,sans-Serif" font-size="10.00"># positions</text>
<text text-anchor="start" x="35" y="-296.5" font-family="Helvetica,sans-Serif" font-size="10.00"># agentToAssign</text>
<text text-anchor="start" x="35" y="-285.5" font-family="Helvetica,sans-Serif" font-size="10.00"># standard</text>
<text text-anchor="start" x="35" y="-274.5" font-family="Helvetica,sans-Serif" font-size="10.00"># prePositions</text>
<text text-anchor="start" x="35" y="-263.5" font-family="Helvetica,sans-Serif" font-size="10.00"># cannotMove</text>
<polyline fill="none" stroke="black" points="27,-256.5 156,-256.5 "/>
<text text-anchor="start" x="35" y="-244.5" font-family="Helvetica,sans-Serif" font-size="10.00">+ ODMultiAgentState()</text>
<text text-anchor="start" x="35" y="-233.5" font-family="Helvetica,sans-Serif" font-size="10.00">+ getHash()</text>
<text text-anchor="start" x="35" y="-222.5" font-family="Helvetica,sans-Serif" font-size="10.00">+ isEqual()</text>
<text text-anchor="start" x="35" y="-211.5" font-family="Helvetica,sans-Serif" font-size="10.00">+ getPositions()</text>
<text text-anchor="start" x="35" y="-200.5" font-family="Helvetica,sans-Serif" font-size="10.00">+ getPrePositions()</text>
<text text-anchor="start" x="35" y="-189.5" font-family="Helvetica,sans-Serif" font-size="10.00">+ getAgentToAssign()</text>
<text text-anchor="start" x="35" y="-178.5" font-family="Helvetica,sans-Serif" font-size="10.00">+ isStandard()</text>
<text text-anchor="start" x="35" y="-167.5" font-family="Helvetica,sans-Serif" font-size="10.00">+ getCannotMove()</text>
<text text-anchor="start" x="35" y="-156.5" font-family="Helvetica,sans-Serif" font-size="10.00">+ canMove()</text>
</a>
</g>
</g>
<!-- Node1&#45;&gt;Node2 -->
<g id="edge1" class="edge">
<title>Node1&#45;&gt;Node2</title>
<path fill="none" stroke="midnightblue" d="M303.31,-394.34C263.55,-385.42 207.12,-368.56 165.5,-339 162.28,-336.71 159.14,-334.25 156.07,-331.65"/>
<polygon fill="none" stroke="midnightblue" points="302.78,-397.8 313.29,-396.49 304.25,-390.96 302.78,-397.8"/>
</g>
<!-- Node4 -->
<g id="node4" class="node">
<title>Node4</title>
<g id="a_node4"><a xlink:href="classSingleAgentSpaceTimeState.html" target="_top" xlink:title=" ">
<polygon fill="white" stroke="black" points="174.5,-182.5 174.5,-305.5 356.5,-305.5 356.5,-182.5 174.5,-182.5"/>
<text text-anchor="middle" x="265.5" y="-293.5" font-family="Helvetica,sans-Serif" font-size="10.00">SingleAgentSpaceTimeState</text>
<polyline fill="none" stroke="black" points="174.5,-286.5 356.5,-286.5 "/>
<text text-anchor="start" x="182.5" y="-274.5" font-family="Helvetica,sans-Serif" font-size="10.00">&#45; position</text>
<text text-anchor="start" x="182.5" y="-263.5" font-family="Helvetica,sans-Serif" font-size="10.00">&#45; timestep</text>
<polyline fill="none" stroke="black" points="174.5,-256.5 356.5,-256.5 "/>
<text text-anchor="start" x="182.5" y="-244.5" font-family="Helvetica,sans-Serif" font-size="10.00">+ SingleAgentSpaceTimeState()</text>
<text text-anchor="start" x="182.5" y="-233.5" font-family="Helvetica,sans-Serif" font-size="10.00">+ ~SingleAgentSpaceTimeState()</text>
<text text-anchor="start" x="182.5" y="-222.5" font-family="Helvetica,sans-Serif" font-size="10.00">+ getHash()</text>
<text text-anchor="start" x="182.5" y="-211.5" font-family="Helvetica,sans-Serif" font-size="10.00">+ isEqual()</text>
<text text-anchor="start" x="182.5" y="-200.5" font-family="Helvetica,sans-Serif" font-size="10.00">+ getPosition()</text>
<text text-anchor="start" x="182.5" y="-189.5" font-family="Helvetica,sans-Serif" font-size="10.00">+ getTimestep()</text>
</a>
</g>
</g>
<!-- Node1&#45;&gt;Node4 -->
<g id="edge3" class="edge">
<title>Node1&#45;&gt;Node4</title>
<path fill="none" stroke="midnightblue" d="M331.6,-366.45C321.77,-348.39 309.65,-326.11 298.48,-305.59"/>
<polygon fill="none" stroke="midnightblue" points="328.67,-368.37 336.52,-375.48 334.81,-365.02 328.67,-368.37"/>
</g>
<!-- Node5 -->
<g id="node5" class="node">
<title>Node5</title>
<g id="a_node5"><a xlink:href="classSingleAgentState.html" target="_top" xlink:title=" ">
<polygon fill="white" stroke="black" points="374.5,-193.5 374.5,-294.5 502.5,-294.5 502.5,-193.5 374.5,-193.5"/>
<text text-anchor="middle" x="438.5" y="-282.5" font-family="Helvetica,sans-Serif" font-size="10.00">SingleAgentState</text>
<polyline fill="none" stroke="black" points="374.5,-275.5 502.5,-275.5 "/>
<text text-anchor="start" x="382.5" y="-263.5" font-family="Helvetica,sans-Serif" font-size="10.00">&#45; position</text>
<polyline fill="none" stroke="black" points="374.5,-256.5 502.5,-256.5 "/>
<text text-anchor="start" x="382.5" y="-244.5" font-family="Helvetica,sans-Serif" font-size="10.00">+ SingleAgentState()</text>
<text text-anchor="start" x="382.5" y="-233.5" font-family="Helvetica,sans-Serif" font-size="10.00">+ ~SingleAgentState()</text>
<text text-anchor="start" x="382.5" y="-222.5" font-family="Helvetica,sans-Serif" font-size="10.00">+ getHash()</text>
<text text-anchor="start" x="382.5" y="-211.5" font-family="Helvetica,sans-Serif" font-size="10.00">+ isEqual()</text>
<text text-anchor="start" x="382.5" y="-200.5" font-family="Helvetica,sans-Serif" font-size="10.00">+ getPosition()</text>
</a>
</g>
</g>
<!-- Node1&#45;&gt;Node5 -->
<g id="edge4" class="edge">
<title>Node1&#45;&gt;Node5</title>
<path fill="none" stroke="midnightblue" d="M371.49,-366.7C383.28,-345.29 398.36,-317.9 411.23,-294.53"/>
<polygon fill="none" stroke="midnightblue" points="368.41,-365.03 366.65,-375.48 374.54,-368.41 368.41,-365.03"/>
</g>
<!-- Node6 -->
<g id="node6" class="node">
<title>Node6</title>
<g id="a_node6"><a xlink:href="classStandardMultiAgentState.html" target="_top" xlink:title=" ">
<polygon fill="white" stroke="black" points="520.5,-188 520.5,-300 678.5,-300 678.5,-188 520.5,-188"/>
<text text-anchor="middle" x="599.5" y="-288" font-family="Helvetica,sans-Serif" font-size="10.00">StandardMultiAgentState</text>
<polyline fill="none" stroke="black" points="520.5,-281 678.5,-281 "/>
<text text-anchor="start" x="528.5" y="-269" font-family="Helvetica,sans-Serif" font-size="10.00"># positions</text>
<text text-anchor="start" x="528.5" y="-258" font-family="Helvetica,sans-Serif" font-size="10.00"># cannotMove</text>
<polyline fill="none" stroke="black" points="520.5,-251 678.5,-251 "/>
<text text-anchor="start" x="528.5" y="-239" font-family="Helvetica,sans-Serif" font-size="10.00">+ StandardMultiAgentState()</text>
<text text-anchor="start" x="528.5" y="-228" font-family="Helvetica,sans-Serif" font-size="10.00">+ getHash()</text>
<text text-anchor="start" x="528.5" y="-217" font-family="Helvetica,sans-Serif" font-size="10.00">+ isEqual()</text>
<text text-anchor="start" x="528.5" y="-206" font-family="Helvetica,sans-Serif" font-size="10.00">+ getPositions()</text>
<text text-anchor="start" x="528.5" y="-195" font-family="Helvetica,sans-Serif" font-size="10.00">+ getCannotMove()</text>
</a>
</g>
</g>
<!-- Node1&#45;&gt;Node6 -->
<g id="edge5" class="edge">
<title>Node1&#45;&gt;Node6</title>
<path fill="none" stroke="midnightblue" d="M399.62,-389.84C432.88,-379.34 477.14,-362.48 511.5,-339 527.19,-328.28 542.16,-314.32 555.16,-300.44"/>
<polygon fill="none" stroke="midnightblue" points="398.21,-386.61 389.67,-392.9 400.26,-393.31 398.21,-386.61"/>
</g>
<!-- Node3 -->
<g id="node3" class="node">
<title>Node3</title>
<g id="a_node3"><a xlink:href="classODMultiAgentSpaceTimeState.html" target="_top" xlink:title=" ">
<polygon fill="white" stroke="black" points="0,-11.5 0,-101.5 183,-101.5 183,-11.5 0,-11.5"/>
<text text-anchor="middle" x="91.5" y="-89.5" font-family="Helvetica,sans-Serif" font-size="10.00">ODMultiAgentSpaceTimeState</text>
<polyline fill="none" stroke="black" points="0,-82.5 183,-82.5 "/>
<text text-anchor="start" x="8" y="-70.5" font-family="Helvetica,sans-Serif" font-size="10.00">&#45; timestep</text>
<polyline fill="none" stroke="black" points="0,-63.5 183,-63.5 "/>
<text text-anchor="start" x="8" y="-51.5" font-family="Helvetica,sans-Serif" font-size="10.00">+ ODMultiAgentSpaceTimeState()</text>
<text text-anchor="start" x="8" y="-40.5" font-family="Helvetica,sans-Serif" font-size="10.00">+ getHash()</text>
<text text-anchor="start" x="8" y="-29.5" font-family="Helvetica,sans-Serif" font-size="10.00">+ isEqual()</text>
<text text-anchor="start" x="8" y="-18.5" font-family="Helvetica,sans-Serif" font-size="10.00">+ getTimestep()</text>
</a>
</g>
</g>
<!-- Node2&#45;&gt;Node3 -->
<g id="edge2" class="edge">
<title>Node2&#45;&gt;Node3</title>
<path fill="none" stroke="midnightblue" d="M91.5,-139.36C91.5,-126.24 91.5,-113.41 91.5,-101.95"/>
<polygon fill="none" stroke="midnightblue" points="88,-139.43 91.5,-149.43 95,-139.43 88,-139.43"/>
</g>
<!-- Node7 -->
<g id="node7" class="node">
<title>Node7</title>
<g id="a_node7"><a xlink:href="classStandardMultiAgentSpaceTimeState.html" target="_top" xlink:title=" ">
<polygon fill="white" stroke="black" points="510,-0.5 510,-112.5 689,-112.5 689,-0.5 510,-0.5"/>
<text text-anchor="start" x="518" y="-100.5" font-family="Helvetica,sans-Serif" font-size="10.00">StandardMultiAgentSpaceTime</text>
<text text-anchor="middle" x="599.5" y="-89.5" font-family="Helvetica,sans-Serif" font-size="10.00">State</text>
<polyline fill="none" stroke="black" points="510,-82.5 689,-82.5 "/>
<text text-anchor="start" x="518" y="-70.5" font-family="Helvetica,sans-Serif" font-size="10.00">&#45; timestep</text>
<polyline fill="none" stroke="black" points="510,-63.5 689,-63.5 "/>
<text text-anchor="start" x="518" y="-51.5" font-family="Helvetica,sans-Serif" font-size="10.00">+ StandardMultiAgentSpaceTime</text>
<text text-anchor="start" x="518" y="-40.5" font-family="Helvetica,sans-Serif" font-size="10.00">State()</text>
<text text-anchor="start" x="518" y="-29.5" font-family="Helvetica,sans-Serif" font-size="10.00">+ getHash()</text>
<text text-anchor="start" x="518" y="-18.5" font-family="Helvetica,sans-Serif" font-size="10.00">+ isEqual()</text>
<text text-anchor="start" x="518" y="-7.5" font-family="Helvetica,sans-Serif" font-size="10.00">+ getTimestep()</text>
</a>
</g>
</g>
<!-- Node6&#45;&gt;Node7 -->
<g id="edge6" class="edge">
<title>Node6&#45;&gt;Node7</title>
<path fill="none" stroke="midnightblue" d="M599.5,-177.63C599.5,-156.44 599.5,-133.15 599.5,-112.76"/>
<polygon fill="none" stroke="midnightblue" points="596,-177.85 599.5,-187.85 603,-177.85 596,-177.85"/>
</g>
</g>
</svg>
        <g id="navigator" transform="translate(0 0)" fill="#404254">
                <rect fill="#f2f5e9" fill-opacity="0.5" stroke="#606060" stroke-width=".5" x="0" y="0" width="60" height="60"/>
                <use id="zoomplus" xlink:href="#zoomPlus" x="17" y="9" onmousedown="handleZoom(evt,'in')"/>
                <use id="zoomminus" xlink:href="#zoomMin" x="42" y="9" onmousedown="handleZoom(evt,'out')"/>
                <use id="reset" xlink:href="#resetDef" x="30" y="36" onmousedown="handleReset()"/>
                <g id="arrowUp" xlink:href="#dirArrow" transform="translate(30 24)" onmousedown="handlePan(0,-1)">
                  <use xlink:href="#rim" fill="#404040">
                        <set attributeName="fill" to="#808080" begin="arrowUp.mouseover" end="arrowUp.mouseout"/>
                  </use>
                  <path fill="none" stroke="white" stroke-width="1.5" d="M0,-3.0v7 M-2.5,-0.5L0,-3.0L2.5,-0.5"/>
                </g>
                <g id="arrowRight" xlink:href="#dirArrow" transform="rotate(90) translate(36 -43)" onmousedown="handlePan(1,0)">
                  <use xlink:href="#rim" fill="#404040">
                        <set attributeName="fill" to="#808080" begin="arrowRight.mouseover" end="arrowRight.mouseout"/>
                  </use>
                  <path fill="none" stroke="white" stroke-width="1.5" d="M0,-3.0v7 M-2.5,-0.5L0,-3.0L2.5,-0.5"/>
                </g>
                <g id="arrowDown" xlink:href="#dirArrow" transform="rotate(180) translate(-30 -48)" onmousedown="handlePan(0,1)">
                  <use xlink:href="#rim" fill="#404040">
                        <set attributeName="fill" to="#808080" begin="arrowDown.mouseover" end="arrowDown.mouseout"/>
                  </use>
                  <path fill="none" stroke="white" stroke-width="1.5" d="M0,-3.0v7 M-2.5,-0.5L0,-3.0L2.5,-0.5"/>
                </g>
                <g id="arrowLeft" xlink:href="#dirArrow" transform="rotate(270) translate(-36 17)" onmousedown="handlePan(-1,0)">
                  <use xlink:href="#rim" fill="#404040">
                        <set attributeName="fill" to="#808080" begin="arrowLeft.mouseover" end="arrowLeft.mouseout"/>
                  </use>
                  <path fill="none" stroke="white" stroke-width="1.5" d="M0,-3.0v7 M-2.5,-0.5L0,-3.0L2.5,-0.5"/>
                </g>
        </g>
        <svg viewBox="0 0 15 15" width="100%" height="30px" preserveAspectRatio="xMaxYMin meet">
         <g id="arrow_out" transform="scale(0.3 0.3)">
          <a xlink:href="classState__inherit__graph_org.svg" target="_base">
           <rect id="button" ry="5" rx="5" y="6" x="6" height="38" width="38"
                fill="#f2f5e9" fill-opacity="0.5" stroke="#606060" stroke-width="1.0"/>
           <path id="arrow"
             d="M 11.500037,31.436501 C 11.940474,20.09759 22.043105,11.32322 32.158766,21.979434 L 37.068811,17.246167 C 37.068811,17.246167 37.088388,32 37.088388,32 L 22.160133,31.978069 C 22.160133,31.978069 26.997745,27.140456 26.997745,27.140456 C 18.528582,18.264221 13.291696,25.230495 11.500037,31.436501 z"
             style="fill:#404040;"/>
          </a>
         </g>
        </svg>
</svg>
