<?xml version="1.0" encoding="UTF-8" standalone="no"?>
<!DOCTYPE svg PUBLIC "-//W3C//DTD SVG 1.1//EN"
 "http://www.w3.org/Graphics/SVG/1.1/DTD/svg11.dtd">
<!-- Generated by graphviz version 2.43.0 (0)
 -->
<!-- Title: Heuristic&lt; S &gt; Pages: 1 -->
<!--zoomable 204 -->
<svg id="main" version="1.1" xmlns="http://www.w3.org/2000/svg" xmlns:xlink="http://www.w3.org/1999/xlink" xml:space="preserve" onload="init(evt)">
<style type="text/css"><![CDATA[
.edge:hover path { stroke: red; }
.edge:hover polygon { stroke: red; fill: red; }
]]></style>
<script type="text/javascript"><![CDATA[
var edges = document.getElementsByTagName('g');
if (edges && edges.length) {
  for (var i=0;i<edges.length;i++) {
    if (edges[i].id.substr(0,4)=='edge') {
      edges[i].setAttribute('class','edge');
    }
  }
}
]]></script>
        <defs>
                <circle id="rim" cx="0" cy="0" r="7"/>
                <circle id="rim2" cx="0" cy="0" r="3.5"/>
                <g id="zoomPlus">
                        <use xlink:href="#rim" fill="#404040">
                                <set attributeName="fill" to="#808080" begin="zoomplus.mouseover" end="zoomplus.mouseout"/>
                        </use>
                        <path d="M-4,0h8M0,-4v8" fill="none" stroke="white" stroke-width="1.5" pointer-events="none"/>
                </g>
                <g id="zoomMin">
                        <use xlink:href="#rim" fill="#404040">
                                <set attributeName="fill" to="#808080" begin="zoomminus.mouseover" end="zoomminus.mouseout"/>
                        </use>
                        <path d="M-4,0h8" fill="none" stroke="white" stroke-width="1.5" pointer-events="none"/>
                </g>
                <g id="dirArrow">
                        <path fill="none" stroke="white" stroke-width="1.5" d="M0,-3.0v7 M-2.5,-0.5L0,-3.0L2.5,-0.5"/>
                </g>
               <g id="resetDef">
                       <use xlink:href="#rim2" fill="#404040">
                               <set attributeName="fill" to="#808080" begin="reset.mouseover" end="reset.mouseout"/>
                       </use>
               </g>
        </defs>

<script type="text/javascript">
var viewWidth = 1144;
var viewHeight = 204;
var sectionId = 'dynsection-0';
</script>
<script xlink:href="svgpan.js"/>
<svg id="graph" class="graph">
<g id="viewport">
<title>Heuristic&lt; S &gt;</title>
<polygon fill="white" stroke="transparent" points="-4,4 -4,-200 1140,-200 1140,4 -4,4"/>
<!-- Node1 -->
<g id="node1" class="node">
<title>Node1</title>
<g id="a_node1"><a xlink:title=" ">
<polygon fill="#bfbfbf" stroke="black" points="485,-127.5 485,-195.5 604,-195.5 604,-127.5 485,-127.5"/>
<text text-anchor="middle" x="544.5" y="-183.5" font-family="Helvetica,sans-Serif" font-size="10.00">Heuristic&lt; S &gt;</text>
<polyline fill="none" stroke="black" points="485,-176.5 604,-176.5 "/>
<text text-anchor="middle" x="544.5" y="-164.5" font-family="Helvetica,sans-Serif" font-size="10.00"> </text>
<polyline fill="none" stroke="black" points="485,-157.5 604,-157.5 "/>
<text text-anchor="start" x="493" y="-145.5" font-family="Helvetica,sans-Serif" font-size="10.00">+ heuristicFunction()</text>
<text text-anchor="start" x="493" y="-134.5" font-family="Helvetica,sans-Serif" font-size="10.00">+ ~Heuristic()</text>
</a>
</g>
</g>
<!-- Node2 -->
<g id="node2" class="node">
<title>Node2</title>
<g id="a_node2"><a xlink:href="classMICheuristic.html" target="_top" xlink:title=" ">
<polygon fill="white" stroke="black" points="0,-6 0,-85 119,-85 119,-6 0,-6"/>
<text text-anchor="middle" x="59.5" y="-73" font-family="Helvetica,sans-Serif" font-size="10.00">MICheuristic&lt; S, &gt;</text>
<polyline fill="none" stroke="black" points="0,-66 119,-66 "/>
<text text-anchor="start" x="8" y="-54" font-family="Helvetica,sans-Serif" font-size="10.00">&#45; targets</text>
<text text-anchor="start" x="8" y="-43" font-family="Helvetica,sans-Serif" font-size="10.00">&#45; width</text>
<polyline fill="none" stroke="black" points="0,-36 119,-36 "/>
<text text-anchor="start" x="8" y="-24" font-family="Helvetica,sans-Serif" font-size="10.00">+ MICheuristic()</text>
<text text-anchor="start" x="8" y="-13" font-family="Helvetica,sans-Serif" font-size="10.00">+ heuristicFunction()</text>
</a>
</g>
</g>
<!-- Node1&#45;&gt;Node2 -->
<g id="edge1" class="edge">
<title>Node1&#45;&gt;Node2</title>
<path fill="none" stroke="midnightblue" d="M474.77,-157.64C390.03,-152.2 243.95,-136.47 127.5,-91 123.16,-89.31 118.81,-87.31 114.53,-85.12"/>
<polygon fill="none" stroke="midnightblue" points="474.6,-161.13 484.8,-158.25 475.03,-154.15 474.6,-161.13"/>
</g>
<!-- Node3 -->
<g id="node3" class="node">
<title>Node3</title>
<g id="a_node3"><a xlink:href="classMICheuristic2.html" target="_top" xlink:title=" ">
<polygon fill="white" stroke="black" points="137,-6 137,-85 256,-85 256,-6 137,-6"/>
<text text-anchor="middle" x="196.5" y="-73" font-family="Helvetica,sans-Serif" font-size="10.00">MICheuristic2&lt; S, &gt;</text>
<polyline fill="none" stroke="black" points="137,-66 256,-66 "/>
<text text-anchor="start" x="145" y="-54" font-family="Helvetica,sans-Serif" font-size="10.00">&#45; targets</text>
<text text-anchor="start" x="145" y="-43" font-family="Helvetica,sans-Serif" font-size="10.00">&#45; width</text>
<polyline fill="none" stroke="black" points="137,-36 256,-36 "/>
<text text-anchor="start" x="145" y="-24" font-family="Helvetica,sans-Serif" font-size="10.00">+ MICheuristic2()</text>
<text text-anchor="start" x="145" y="-13" font-family="Helvetica,sans-Serif" font-size="10.00">+ heuristicFunction()</text>
</a>
</g>
</g>
<!-- Node1&#45;&gt;Node3 -->
<g id="edge2" class="edge">
<title>Node1&#45;&gt;Node3</title>
<path fill="none" stroke="midnightblue" d="M474.83,-149.92C416.85,-139.56 333.03,-120.9 264.5,-91 260.49,-89.25 256.46,-87.27 252.46,-85.15"/>
<polygon fill="none" stroke="midnightblue" points="474.53,-153.43 484.98,-151.7 475.73,-146.53 474.53,-153.43"/>
</g>
<!-- Node4 -->
<g id="node4" class="node">
<title>Node4</title>
<g id="a_node4"><a xlink:href="classMIOCheuristic.html" target="_top" xlink:title=" ">
<polygon fill="white" stroke="black" points="274,-11.5 274,-79.5 393,-79.5 393,-11.5 274,-11.5"/>
<text text-anchor="middle" x="333.5" y="-67.5" font-family="Helvetica,sans-Serif" font-size="10.00">MIOCheuristic&lt; S, &gt;</text>
<polyline fill="none" stroke="black" points="274,-60.5 393,-60.5 "/>
<text text-anchor="start" x="282" y="-48.5" font-family="Helvetica,sans-Serif" font-size="10.00">&#45; rraStarSearches</text>
<polyline fill="none" stroke="black" points="274,-41.5 393,-41.5 "/>
<text text-anchor="start" x="282" y="-29.5" font-family="Helvetica,sans-Serif" font-size="10.00">+ MIOCheuristic()</text>
<text text-anchor="start" x="282" y="-18.5" font-family="Helvetica,sans-Serif" font-size="10.00">+ heuristicFunction()</text>
</a>
</g>
</g>
<!-- Node1&#45;&gt;Node4 -->
<g id="edge3" class="edge">
<title>Node1&#45;&gt;Node4</title>
<path fill="none" stroke="midnightblue" d="M475.76,-128.87C452.22,-117.51 425.92,-104.22 402.5,-91 396.17,-87.43 389.62,-83.51 383.2,-79.53"/>
<polygon fill="none" stroke="midnightblue" points="474.44,-132.12 484.97,-133.28 477.47,-125.81 474.44,-132.12"/>
</g>
<!-- Node5 -->
<g id="node5" class="node">
<title>Node5</title>
<g id="a_node5"><a xlink:href="classMIOCheuristic2.html" target="_top" xlink:title=" ">
<polygon fill="white" stroke="black" points="411.5,-11.5 411.5,-79.5 533.5,-79.5 533.5,-11.5 411.5,-11.5"/>
<text text-anchor="middle" x="472.5" y="-67.5" font-family="Helvetica,sans-Serif" font-size="10.00">MIOCheuristic2&lt; S, &gt;</text>
<polyline fill="none" stroke="black" points="411.5,-60.5 533.5,-60.5 "/>
<text text-anchor="start" x="419.5" y="-48.5" font-family="Helvetica,sans-Serif" font-size="10.00">&#45; rraStarSearches</text>
<polyline fill="none" stroke="black" points="411.5,-41.5 533.5,-41.5 "/>
<text text-anchor="start" x="419.5" y="-29.5" font-family="Helvetica,sans-Serif" font-size="10.00">+ MIOCheuristic2()</text>
<text text-anchor="start" x="419.5" y="-18.5" font-family="Helvetica,sans-Serif" font-size="10.00">+ heuristicFunction()</text>
</a>
</g>
</g>
<!-- Node1&#45;&gt;Node5 -->
<g id="edge4" class="edge">
<title>Node1&#45;&gt;Node5</title>
<path fill="none" stroke="midnightblue" d="M518,-118.55C509.9,-105.71 501.1,-91.78 493.42,-79.62"/>
<polygon fill="none" stroke="midnightblue" points="515.18,-120.63 523.48,-127.22 521.1,-116.9 515.18,-120.63"/>
</g>
<!-- Node6 -->
<g id="node6" class="node">
<title>Node6</title>
<g id="a_node6"><a xlink:href="classManhattanHeuristic.html" target="_top" xlink:title=" ">
<polygon fill="white" stroke="black" points="552,-0.5 552,-90.5 683,-90.5 683,-0.5 552,-0.5"/>
<text text-anchor="start" x="560" y="-78.5" font-family="Helvetica,sans-Serif" font-size="10.00">ManhattanHeuristic</text>
<text text-anchor="middle" x="617.5" y="-67.5" font-family="Helvetica,sans-Serif" font-size="10.00">&lt; S, &gt;</text>
<polyline fill="none" stroke="black" points="552,-60.5 683,-60.5 "/>
<text text-anchor="start" x="560" y="-48.5" font-family="Helvetica,sans-Serif" font-size="10.00">&#45; target</text>
<text text-anchor="start" x="560" y="-37.5" font-family="Helvetica,sans-Serif" font-size="10.00">&#45; width</text>
<polyline fill="none" stroke="black" points="552,-30.5 683,-30.5 "/>
<text text-anchor="start" x="560" y="-18.5" font-family="Helvetica,sans-Serif" font-size="10.00">+ ManhattanHeuristic()</text>
<text text-anchor="start" x="560" y="-7.5" font-family="Helvetica,sans-Serif" font-size="10.00">+ heuristicFunction()</text>
</a>
</g>
</g>
<!-- Node1&#45;&gt;Node6 -->
<g id="edge5" class="edge">
<title>Node1&#45;&gt;Node6</title>
<path fill="none" stroke="midnightblue" d="M571.28,-118.67C577.13,-109.54 583.33,-99.85 589.24,-90.64"/>
<polygon fill="none" stroke="midnightblue" points="568.26,-116.91 565.81,-127.22 574.15,-120.69 568.26,-116.91"/>
</g>
<!-- Node7 -->
<g id="node7" class="node">
<title>Node7</title>
<g id="a_node7"><a xlink:href="classOptimalDistanceHeuristic.html" target="_top" xlink:title=" ">
<polygon fill="white" stroke="black" points="701,-6 701,-85 862,-85 862,-6 701,-6"/>
<text text-anchor="start" x="709" y="-73" font-family="Helvetica,sans-Serif" font-size="10.00">OptimalDistanceHeuristic</text>
<text text-anchor="middle" x="781.5" y="-62" font-family="Helvetica,sans-Serif" font-size="10.00">&lt; S, &gt;</text>
<polyline fill="none" stroke="black" points="701,-55 862,-55 "/>
<text text-anchor="start" x="709" y="-43" font-family="Helvetica,sans-Serif" font-size="10.00">&#45; rraStarSearch</text>
<polyline fill="none" stroke="black" points="701,-36 862,-36 "/>
<text text-anchor="start" x="709" y="-24" font-family="Helvetica,sans-Serif" font-size="10.00">+ OptimalDistanceHeuristic()</text>
<text text-anchor="start" x="709" y="-13" font-family="Helvetica,sans-Serif" font-size="10.00">+ heuristicFunction()</text>
</a>
</g>
</g>
<!-- Node1&#45;&gt;Node7 -->
<g id="edge6" class="edge">
<title>Node1&#45;&gt;Node7</title>
<path fill="none" stroke="midnightblue" d="M613.46,-128.55C638.42,-116.87 666.79,-103.46 692.5,-91 696.39,-89.12 700.36,-87.18 704.37,-85.21"/>
<polygon fill="none" stroke="midnightblue" points="611.65,-125.53 604.07,-132.93 614.61,-131.87 611.65,-125.53"/>
</g>
<!-- Node8 -->
<g id="node8" class="node">
<title>Node8</title>
<g id="a_node8"><a xlink:href="classSICheuristic.html" target="_top" xlink:title=" ">
<polygon fill="white" stroke="black" points="880,-6 880,-85 999,-85 999,-6 880,-6"/>
<text text-anchor="middle" x="939.5" y="-73" font-family="Helvetica,sans-Serif" font-size="10.00">SICheuristic&lt; S, &gt;</text>
<polyline fill="none" stroke="black" points="880,-66 999,-66 "/>
<text text-anchor="start" x="888" y="-54" font-family="Helvetica,sans-Serif" font-size="10.00">&#45; targets</text>
<text text-anchor="start" x="888" y="-43" font-family="Helvetica,sans-Serif" font-size="10.00">&#45; width</text>
<polyline fill="none" stroke="black" points="880,-36 999,-36 "/>
<text text-anchor="start" x="888" y="-24" font-family="Helvetica,sans-Serif" font-size="10.00">+ SICheuristic()</text>
<text text-anchor="start" x="888" y="-13" font-family="Helvetica,sans-Serif" font-size="10.00">+ heuristicFunction()</text>
</a>
</g>
</g>
<!-- Node1&#45;&gt;Node8 -->
<g id="edge7" class="edge">
<title>Node1&#45;&gt;Node8</title>
<path fill="none" stroke="midnightblue" d="M614.18,-153.26C681.95,-144.49 786.77,-126.27 871.5,-91 875.67,-89.26 879.86,-87.27 884,-85.1"/>
<polygon fill="none" stroke="midnightblue" points="613.53,-149.81 604.05,-154.54 614.41,-156.76 613.53,-149.81"/>
</g>
<!-- Node9 -->
<g id="node9" class="node">
<title>Node9</title>
<g id="a_node9"><a xlink:href="classSIOCheuristic.html" target="_top" xlink:title=" ">
<polygon fill="white" stroke="black" points="1017,-11.5 1017,-79.5 1136,-79.5 1136,-11.5 1017,-11.5"/>
<text text-anchor="middle" x="1076.5" y="-67.5" font-family="Helvetica,sans-Serif" font-size="10.00">SIOCheuristic&lt; S, &gt;</text>
<polyline fill="none" stroke="black" points="1017,-60.5 1136,-60.5 "/>
<text text-anchor="start" x="1025" y="-48.5" font-family="Helvetica,sans-Serif" font-size="10.00">&#45; rraStarSearches</text>
<polyline fill="none" stroke="black" points="1017,-41.5 1136,-41.5 "/>
<text text-anchor="start" x="1025" y="-29.5" font-family="Helvetica,sans-Serif" font-size="10.00">+ SIOCheuristic()</text>
<text text-anchor="start" x="1025" y="-18.5" font-family="Helvetica,sans-Serif" font-size="10.00">+ heuristicFunction()</text>
</a>
</g>
</g>
<!-- Node1&#45;&gt;Node9 -->
<g id="edge8" class="edge">
<title>Node1&#45;&gt;Node9</title>
<path fill="none" stroke="midnightblue" d="M614.16,-159.29C707.03,-155.63 875.16,-141.81 1008.5,-91 1016.41,-87.99 1024.35,-83.94 1031.87,-79.51"/>
<polygon fill="none" stroke="midnightblue" points="613.91,-155.79 604.04,-159.66 614.17,-162.79 613.91,-155.79"/>
</g>
</g>
</svg>
        <g id="navigator" transform="translate(0 0)" fill="#404254">
                <rect fill="#f2f5e9" fill-opacity="0.5" stroke="#606060" stroke-width=".5" x="0" y="0" width="60" height="60"/>
                <use id="zoomplus" xlink:href="#zoomPlus" x="17" y="9" onmousedown="handleZoom(evt,'in')"/>
                <use id="zoomminus" xlink:href="#zoomMin" x="42" y="9" onmousedown="handleZoom(evt,'out')"/>
                <use id="reset" xlink:href="#resetDef" x="30" y="36" onmousedown="handleReset()"/>
                <g id="arrowUp" xlink:href="#dirArrow" transform="translate(30 24)" onmousedown="handlePan(0,-1)">
                  <use xlink:href="#rim" fill="#404040">
                        <set attributeName="fill" to="#808080" begin="arrowUp.mouseover" end="arrowUp.mouseout"/>
                  </use>
                  <path fill="none" stroke="white" stroke-width="1.5" d="M0,-3.0v7 M-2.5,-0.5L0,-3.0L2.5,-0.5"/>
                </g>
                <g id="arrowRight" xlink:href="#dirArrow" transform="rotate(90) translate(36 -43)" onmousedown="handlePan(1,0)">
                  <use xlink:href="#rim" fill="#404040">
                        <set attributeName="fill" to="#808080" begin="arrowRight.mouseover" end="arrowRight.mouseout"/>
                  </use>
                  <path fill="none" stroke="white" stroke-width="1.5" d="M0,-3.0v7 M-2.5,-0.5L0,-3.0L2.5,-0.5"/>
                </g>
                <g id="arrowDown" xlink:href="#dirArrow" transform="rotate(180) translate(-30 -48)" onmousedown="handlePan(0,1)">
                  <use xlink:href="#rim" fill="#404040">
                        <set attributeName="fill" to="#808080" begin="arrowDown.mouseover" end="arrowDown.mouseout"/>
                  </use>
                  <path fill="none" stroke="white" stroke-width="1.5" d="M0,-3.0v7 M-2.5,-0.5L0,-3.0L2.5,-0.5"/>
                </g>
                <g id="arrowLeft" xlink:href="#dirArrow" transform="rotate(270) translate(-36 17)" onmousedown="handlePan(-1,0)">
                  <use xlink:href="#rim" fill="#404040">
                        <set attributeName="fill" to="#808080" begin="arrowLeft.mouseover" end="arrowLeft.mouseout"/>
                  </use>
                  <path fill="none" stroke="white" stroke-width="1.5" d="M0,-3.0v7 M-2.5,-0.5L0,-3.0L2.5,-0.5"/>
                </g>
        </g>
        <svg viewBox="0 0 15 15" width="100%" height="30px" preserveAspectRatio="xMaxYMin meet">
         <g id="arrow_out" transform="scale(0.3 0.3)">
          <a xlink:href="classHeuristic__inherit__graph_org.svg" target="_base">
           <rect id="button" ry="5" rx="5" y="6" x="6" height="38" width="38"
                fill="#f2f5e9" fill-opacity="0.5" stroke="#606060" stroke-width="1.0"/>
           <path id="arrow"
             d="M 11.500037,31.436501 C 11.940474,20.09759 22.043105,11.32322 32.158766,21.979434 L 37.068811,17.246167 C 37.068811,17.246167 37.088388,32 37.088388,32 L 22.160133,31.978069 C 22.160133,31.978069 26.997745,27.140456 26.997745,27.140456 C 18.528582,18.264221 13.291696,25.230495 11.500037,31.436501 z"
             style="fill:#404040;"/>
          </a>
         </g>
        </svg>
</svg>
