<?xml version="1.0" encoding="UTF-8" standalone="no"?>
<!DOCTYPE svg PUBLIC "-//W3C//DTD SVG 1.1//EN"
 "http://www.w3.org/Graphics/SVG/1.1/DTD/svg11.dtd">
<!-- Generated by graphviz version 2.43.0 (0)
 -->
<!-- Title: ConflictBasedSearch::okForHardConstraints Pages: 1 -->
<svg width="604pt" height="88pt"
 viewBox="0.00 0.00 604.00 88.00" xmlns="http://www.w3.org/2000/svg" xmlns:xlink="http://www.w3.org/1999/xlink">
<g id="graph0" class="graph" transform="scale(1 1) rotate(0) translate(4 84)">
<title>ConflictBasedSearch::okForHardConstraints</title>
<polygon fill="white" stroke="transparent" points="-4,4 -4,-84 600,-84 600,4 -4,4"/>
<!-- Node1 -->
<g id="node1" class="node">
<title>Node1</title>
<g id="a_node1"><a xlink:title=" ">
<polygon fill="#bfbfbf" stroke="black" points="468,-27.5 468,-57.5 596,-57.5 596,-27.5 468,-27.5"/>
<text text-anchor="start" x="476" y="-45.5" font-family="Helvetica,sans-Serif" font-size="10.00">ConflictBasedSearch</text>
<text text-anchor="middle" x="532" y="-34.5" font-family="Helvetica,sans-Serif" font-size="10.00">::okForHardConstraints</text>
</a>
</g>
</g>
<!-- Node2 -->
<g id="node2" class="node">
<title>Node2</title>
<g id="a_node2"><a xlink:href="classConflictBasedSearch.html#a1e9a1fbd7e074039fee97bc5ad4c6b55" target="_top" xlink:title=" ">
<polygon fill="white" stroke="black" points="306,-27.5 306,-57.5 432,-57.5 432,-27.5 306,-27.5"/>
<text text-anchor="start" x="314" y="-45.5" font-family="Helvetica,sans-Serif" font-size="10.00">ConflictBasedSearch</text>
<text text-anchor="middle" x="369" y="-34.5" font-family="Helvetica,sans-Serif" font-size="10.00">::disjointSplittingSolve</text>
</a>
</g>
</g>
<!-- Node1&#45;&gt;Node2 -->
<g id="edge1" class="edge">
<title>Node1&#45;&gt;Node2</title>
<path fill="none" stroke="midnightblue" d="M457.57,-42.5C449.09,-42.5 440.5,-42.5 432.2,-42.5"/>
<polygon fill="midnightblue" stroke="midnightblue" points="457.83,-46 467.83,-42.5 457.83,-39 457.83,-46"/>
</g>
<!-- Node3 -->
<g id="node3" class="node">
<title>Node3</title>
<g id="a_node3"><a xlink:href="classConflictBasedSearch.html#a6aadc55f462faad9ce67903a59b96c62" target="_top" xlink:title=" ">
<polygon fill="white" stroke="black" points="154,-27.5 154,-57.5 270,-57.5 270,-27.5 154,-27.5"/>
<text text-anchor="start" x="162" y="-45.5" font-family="Helvetica,sans-Serif" font-size="10.00">ConflictBasedSearch</text>
<text text-anchor="middle" x="212" y="-34.5" font-family="Helvetica,sans-Serif" font-size="10.00">::solve</text>
</a>
</g>
</g>
<!-- Node2&#45;&gt;Node3 -->
<g id="edge2" class="edge">
<title>Node2&#45;&gt;Node3</title>
<path fill="none" stroke="midnightblue" d="M295.81,-35.76C287.2,-35.72 278.5,-35.78 270.15,-35.96"/>
<polygon fill="midnightblue" stroke="midnightblue" points="295.81,-39.26 305.85,-35.87 295.89,-32.26 295.81,-39.26"/>
</g>
<!-- Node3&#45;&gt;Node2 -->
<g id="edge3" class="edge">
<title>Node3&#45;&gt;Node2</title>
<path fill="none" stroke="midnightblue" d="M280.37,-49.2C288.83,-49.29 297.47,-49.26 305.85,-49.13"/>
<polygon fill="midnightblue" stroke="midnightblue" points="280.2,-45.7 270.15,-49.04 280.09,-52.69 280.2,-45.7"/>
</g>
<!-- Node4 -->
<g id="node4" class="node">
<title>Node4</title>
<g id="a_node4"><a xlink:href="classConflictBasedSearch.html#a2d4ce8cb5d44727d73f4489b39ad1d54" target="_top" xlink:title=" ">
<polygon fill="white" stroke="black" points="0,-49.5 0,-79.5 118,-79.5 118,-49.5 0,-49.5"/>
<text text-anchor="start" x="8" y="-67.5" font-family="Helvetica,sans-Serif" font-size="10.00">ConflictBasedSearch</text>
<text text-anchor="middle" x="59" y="-56.5" font-family="Helvetica,sans-Serif" font-size="10.00">::planIndividualPaths</text>
</a>
</g>
</g>
<!-- Node3&#45;&gt;Node4 -->
<g id="edge4" class="edge">
<title>Node3&#45;&gt;Node4</title>
<path fill="none" stroke="midnightblue" d="M143.85,-45.57C135.2,-46.75 126.4,-48.08 117.92,-49.48"/>
<polygon fill="midnightblue" stroke="midnightblue" points="144.45,-49.02 153.91,-44.25 143.54,-42.08 144.45,-49.02"/>
</g>
<!-- Node5 -->
<g id="node5" class="node">
<title>Node5</title>
<g id="a_node5"><a xlink:href="classConflictBasedSearch.html#a4dac9eef3a5e99677a116bf1dd3e02b0" target="_top" xlink:title=" ">
<polygon fill="white" stroke="black" points="1,-0.5 1,-30.5 117,-30.5 117,-0.5 1,-0.5"/>
<text text-anchor="start" x="9" y="-18.5" font-family="Helvetica,sans-Serif" font-size="10.00">ConflictBasedSearch</text>
<text text-anchor="middle" x="59" y="-7.5" font-family="Helvetica,sans-Serif" font-size="10.00">::solve</text>
</a>
</g>
</g>
<!-- Node3&#45;&gt;Node5 -->
<g id="edge7" class="edge">
<title>Node3&#45;&gt;Node5</title>
<path fill="none" stroke="midnightblue" d="M143.93,-30.51C135,-28.91 125.91,-27.28 117.17,-25.72"/>
<polygon fill="midnightblue" stroke="midnightblue" points="143.45,-33.98 153.91,-32.29 144.69,-27.09 143.45,-33.98"/>
</g>
<!-- Node4&#45;&gt;Node2 -->
<g id="edge5" class="edge">
<title>Node4&#45;&gt;Node2</title>
<path fill="none" stroke="midnightblue" d="M128.37,-70.26C169.56,-72.54 222.97,-73.4 270,-67.5 286.2,-65.47 303.57,-61.61 319.11,-57.53"/>
<polygon fill="midnightblue" stroke="midnightblue" points="128.37,-66.75 118.18,-69.65 127.95,-73.74 128.37,-66.75"/>
</g>
<!-- Node4&#45;&gt;Node3 -->
<g id="edge6" class="edge">
<title>Node4&#45;&gt;Node3</title>
<path fill="none" stroke="midnightblue" d="M128.18,-61.29C136.78,-60.1 145.51,-58.78 153.91,-57.39"/>
<polygon fill="midnightblue" stroke="midnightblue" points="127.62,-57.83 118.17,-62.61 128.54,-64.77 127.62,-57.83"/>
</g>
</g>
</svg>
