<?xml version="1.0" encoding="UTF-8" standalone="no"?>
<!DOCTYPE svg PUBLIC "-//W3C//DTD SVG 1.1//EN"
 "http://www.w3.org/Graphics/SVG/1.1/DTD/svg11.dtd">
<!-- Generated by graphviz version 2.43.0 (0)
 -->
<!-- Title: ConflictBasedSearch::solve Pages: 1 -->
<svg width="853pt" height="415pt"
 viewBox="0.00 0.00 853.00 414.50" xmlns="http://www.w3.org/2000/svg" xmlns:xlink="http://www.w3.org/1999/xlink">
<g id="graph0" class="graph" transform="scale(1 1) rotate(0) translate(4 410.5)">
<title>ConflictBasedSearch::solve</title>
<polygon fill="white" stroke="transparent" points="-4,4 -4,-410.5 849,-410.5 849,4 -4,4"/>
<!-- Node1 -->
<g id="node1" class="node">
<title>Node1</title>
<g id="a_node1"><a xlink:title=" ">
<polygon fill="#bfbfbf" stroke="black" points="0,-128 0,-158 116,-158 116,-128 0,-128"/>
<text text-anchor="start" x="8" y="-146" font-family="Helvetica,sans-Serif" font-size="10.00">ConflictBasedSearch</text>
<text text-anchor="middle" x="58" y="-135" font-family="Helvetica,sans-Serif" font-size="10.00">::solve</text>
</a>
</g>
</g>
<!-- Node2 -->
<g id="node2" class="node">
<title>Node2</title>
<g id="a_node2"><a xlink:href="classConflictBasedSearch.html#a6aadc55f462faad9ce67903a59b96c62" target="_top" xlink:title=" ">
<polygon fill="white" stroke="black" points="152,-128 152,-158 268,-158 268,-128 152,-128"/>
<text text-anchor="start" x="160" y="-146" font-family="Helvetica,sans-Serif" font-size="10.00">ConflictBasedSearch</text>
<text text-anchor="middle" x="210" y="-135" font-family="Helvetica,sans-Serif" font-size="10.00">::solve</text>
</a>
</g>
</g>
<!-- Node1&#45;&gt;Node2 -->
<g id="edge1" class="edge">
<title>Node1&#45;&gt;Node2</title>
<path fill="none" stroke="midnightblue" d="M116.14,-143C124.38,-143 132.92,-143 141.34,-143"/>
<polygon fill="midnightblue" stroke="midnightblue" points="141.53,-146.5 151.53,-143 141.53,-139.5 141.53,-146.5"/>
</g>
<!-- Node3 -->
<g id="node3" class="node">
<title>Node3</title>
<g id="a_node3"><a xlink:href="classConflictBasedSearch.html#a6070f03e97d9e3ea822f5ed1a0bfe9a1" target="_top" xlink:title=" ">
<polygon fill="white" stroke="black" points="523,-376 523,-406 659,-406 659,-376 523,-376"/>
<text text-anchor="start" x="531" y="-394" font-family="Helvetica,sans-Serif" font-size="10.00">ConflictBasedSearch</text>
<text text-anchor="middle" x="591" y="-383" font-family="Helvetica,sans-Serif" font-size="10.00">::calculateSetOfConflicts</text>
</a>
</g>
</g>
<!-- Node2&#45;&gt;Node3 -->
<g id="edge2" class="edge">
<title>Node2&#45;&gt;Node3</title>
<path fill="none" stroke="midnightblue" d="M218.96,-158.03C233.16,-183.7 265.07,-236.48 304,-270 374.36,-330.57 402.05,-334.46 489,-367 496.7,-369.88 504.87,-372.5 513.09,-374.86"/>
<polygon fill="midnightblue" stroke="midnightblue" points="512.17,-378.23 522.74,-377.5 514.02,-371.48 512.17,-378.23"/>
</g>
<!-- Node4 -->
<g id="node4" class="node">
<title>Node4</title>
<g id="a_node4"><a xlink:href="classConflictBasedSearch.html#a6d17a328ed4bd26bf58503a87761164c" target="_top" xlink:title=" ">
<polygon fill="white" stroke="black" points="533,-327 533,-357 649,-357 649,-327 533,-327"/>
<text text-anchor="start" x="541" y="-345" font-family="Helvetica,sans-Serif" font-size="10.00">ConflictBasedSearch</text>
<text text-anchor="middle" x="591" y="-334" font-family="Helvetica,sans-Serif" font-size="10.00">::combineSolutions</text>
</a>
</g>
</g>
<!-- Node2&#45;&gt;Node4 -->
<g id="edge3" class="edge">
<title>Node2&#45;&gt;Node4</title>
<path fill="none" stroke="midnightblue" d="M229.99,-158.12C273.31,-191.87 383.84,-273.84 489,-318 499.67,-322.48 511.34,-326.22 522.83,-329.31"/>
<polygon fill="midnightblue" stroke="midnightblue" points="522.31,-332.79 532.86,-331.87 524.03,-326.01 522.31,-332.79"/>
</g>
<!-- Node6 -->
<g id="node6" class="node">
<title>Node6</title>
<g id="a_node6"><a xlink:href="classConflictBasedSearch.html#a1e9a1fbd7e074039fee97bc5ad4c6b55" target="_top" xlink:title=" ">
<polygon fill="white" stroke="black" points="315.5,-155 315.5,-185 441.5,-185 441.5,-155 315.5,-155"/>
<text text-anchor="start" x="323.5" y="-173" font-family="Helvetica,sans-Serif" font-size="10.00">ConflictBasedSearch</text>
<text text-anchor="middle" x="378.5" y="-162" font-family="Helvetica,sans-Serif" font-size="10.00">::disjointSplittingSolve</text>
</a>
</g>
</g>
<!-- Node2&#45;&gt;Node6 -->
<g id="edge5" class="edge">
<title>Node2&#45;&gt;Node6</title>
<path fill="none" stroke="midnightblue" d="M268.3,-145.84C282.97,-147.87 298.84,-150.4 313.82,-153.09"/>
<polygon fill="midnightblue" stroke="midnightblue" points="313.55,-156.6 324.02,-154.98 314.82,-149.72 313.55,-156.6"/>
</g>
<!-- Node11 -->
<g id="node11" class="node">
<title>Node11</title>
<g id="a_node11"><a xlink:href="classConflictBasedSearch.html#a2d4ce8cb5d44727d73f4489b39ad1d54" target="_top" xlink:title=" ">
<polygon fill="white" stroke="black" points="532,-54 532,-84 650,-84 650,-54 532,-54"/>
<text text-anchor="start" x="540" y="-72" font-family="Helvetica,sans-Serif" font-size="10.00">ConflictBasedSearch</text>
<text text-anchor="middle" x="591" y="-61" font-family="Helvetica,sans-Serif" font-size="10.00">::planIndividualPaths</text>
</a>
</g>
</g>
<!-- Node2&#45;&gt;Node11 -->
<g id="edge17" class="edge">
<title>Node2&#45;&gt;Node11</title>
<path fill="none" stroke="midnightblue" d="M263.3,-127.96C330.5,-112.46 447.32,-89.48 521.54,-77.03"/>
<polygon fill="midnightblue" stroke="midnightblue" points="522.42,-80.43 531.72,-75.35 521.28,-73.53 522.42,-80.43"/>
</g>
<!-- Node13 -->
<g id="node13" class="node">
<title>Node13</title>
<g id="a_node13"><a xlink:href="classConflictBasedSearch.html#a727a9172ea3f3fbf4eca9f247d3f5356" target="_top" xlink:title=" ">
<polygon fill="white" stroke="black" points="528.5,-5 528.5,-35 653.5,-35 653.5,-5 528.5,-5"/>
<text text-anchor="start" x="536.5" y="-23" font-family="Helvetica,sans-Serif" font-size="10.00">ConflictBasedSearch</text>
<text text-anchor="middle" x="591" y="-12" font-family="Helvetica,sans-Serif" font-size="10.00">::updateSetOfConflicts</text>
</a>
</g>
</g>
<!-- Node2&#45;&gt;Node13 -->
<g id="edge19" class="edge">
<title>Node2&#45;&gt;Node13</title>
<path fill="none" stroke="midnightblue" d="M235.94,-127.92C254.27,-117.32 280.05,-103.41 304,-94 342.69,-78.79 447.08,-53.17 518.44,-36.42"/>
<polygon fill="midnightblue" stroke="midnightblue" points="519.34,-39.8 528.28,-34.12 517.74,-32.99 519.34,-39.8"/>
</g>
<!-- Node14 -->
<g id="node14" class="node">
<title>Node14</title>
<g id="a_node14"><a xlink:href="classConflictBasedSearch.html#adfcf0b5e67e17a8eada77fed4ed4ea20" target="_top" xlink:title=" ">
<polygon fill="white" stroke="black" points="304,-0.5 304,-41.5 453,-41.5 453,-0.5 304,-0.5"/>
<text text-anchor="start" x="312" y="-29.5" font-family="Helvetica,sans-Serif" font-size="10.00">ConflictBasedSearch</text>
<text text-anchor="start" x="312" y="-18.5" font-family="Helvetica,sans-Serif" font-size="10.00">::retrieveSetsOfConstraints</text>
<text text-anchor="middle" x="378.5" y="-7.5" font-family="Helvetica,sans-Serif" font-size="10.00">AndCostsAndSolutions</text>
</a>
</g>
</g>
<!-- Node2&#45;&gt;Node14 -->
<g id="edge18" class="edge">
<title>Node2&#45;&gt;Node14</title>
<path fill="none" stroke="midnightblue" d="M224.32,-127.96C241.4,-109.33 272.58,-77.42 304,-56 308.94,-52.63 314.25,-49.43 319.68,-46.41"/>
<polygon fill="midnightblue" stroke="midnightblue" points="321.68,-49.31 328.87,-41.54 318.4,-43.13 321.68,-49.31"/>
</g>
<!-- Node5 -->
<g id="node5" class="node">
<title>Node5</title>
<g id="a_node5"><a xlink:href="classConflictBasedSearch.html#a3a9f295491df3b7ceec1b1d2ce7bacf3" target="_top" xlink:title=" ">
<polygon fill="white" stroke="black" points="729,-327 729,-357 845,-357 845,-327 729,-327"/>
<text text-anchor="start" x="737" y="-345" font-family="Helvetica,sans-Serif" font-size="10.00">ConflictBasedSearch</text>
<text text-anchor="middle" x="787" y="-334" font-family="Helvetica,sans-Serif" font-size="10.00">::retrieveSolutions</text>
</a>
</g>
</g>
<!-- Node4&#45;&gt;Node5 -->
<g id="edge4" class="edge">
<title>Node4&#45;&gt;Node5</title>
<path fill="none" stroke="midnightblue" d="M649.16,-342C670.96,-342 696.02,-342 718.69,-342"/>
<polygon fill="midnightblue" stroke="midnightblue" points="718.92,-345.5 728.92,-342 718.92,-338.5 718.92,-345.5"/>
</g>
<!-- Node6&#45;&gt;Node2 -->
<g id="edge15" class="edge">
<title>Node6&#45;&gt;Node2</title>
<path fill="none" stroke="midnightblue" d="M315.31,-166.47C302.02,-164.57 287.97,-162.3 274.63,-159.9"/>
<polygon fill="midnightblue" stroke="midnightblue" points="275.07,-156.42 264.6,-158.05 273.8,-163.3 275.07,-156.42"/>
</g>
<!-- Node6&#45;&gt;Node3 -->
<g id="edge6" class="edge">
<title>Node6&#45;&gt;Node3</title>
<path fill="none" stroke="midnightblue" d="M383.34,-185.12C393.62,-222.32 425.38,-318.79 489,-367 496.28,-372.52 504.63,-376.79 513.35,-380.09"/>
<polygon fill="midnightblue" stroke="midnightblue" points="512.33,-383.44 522.92,-383.31 514.56,-376.81 512.33,-383.44"/>
</g>
<!-- Node6&#45;&gt;Node4 -->
<g id="edge7" class="edge">
<title>Node6&#45;&gt;Node4</title>
<path fill="none" stroke="midnightblue" d="M390.18,-185.01C416.38,-221.75 482.18,-313.5 489,-318 499.16,-324.71 511,-329.55 522.92,-333.04"/>
<polygon fill="midnightblue" stroke="midnightblue" points="522.35,-336.51 532.91,-335.67 524.13,-329.74 522.35,-336.51"/>
</g>
<!-- Node7 -->
<g id="node7" class="node">
<title>Node7</title>
<g id="a_node7"><a xlink:href="Solution_8cpp.html#a1668e5fa72e047531e95f29f5deaf233" target="_top" xlink:title=" ">
<polygon fill="white" stroke="black" points="562.5,-179.5 562.5,-198.5 619.5,-198.5 619.5,-179.5 562.5,-179.5"/>
<text text-anchor="middle" x="591" y="-186.5" font-family="Helvetica,sans-Serif" font-size="10.00">fuelCost</text>
</a>
</g>
</g>
<!-- Node6&#45;&gt;Node7 -->
<g id="edge8" class="edge">
<title>Node6&#45;&gt;Node7</title>
<path fill="none" stroke="midnightblue" d="M441.52,-175.6C477.32,-178.83 521.19,-182.79 551.93,-185.56"/>
<polygon fill="midnightblue" stroke="midnightblue" points="551.95,-189.08 562.22,-186.49 552.58,-182.11 551.95,-189.08"/>
</g>
<!-- Node8 -->
<g id="node8" class="node">
<title>Node8</title>
<g id="a_node8"><a xlink:href="classVertexConstraint.html#ae4a5ede3e21dcbc4dec0060a90682c15" target="_top" xlink:title=" ">
<polygon fill="white" stroke="black" points="518.5,-141.5 518.5,-160.5 663.5,-160.5 663.5,-141.5 518.5,-141.5"/>
<text text-anchor="middle" x="591" y="-148.5" font-family="Helvetica,sans-Serif" font-size="10.00">VertexConstraint::getTime</text>
</a>
</g>
</g>
<!-- Node6&#45;&gt;Node8 -->
<g id="edge9" class="edge">
<title>Node6&#45;&gt;Node8</title>
<path fill="none" stroke="midnightblue" d="M441.52,-164.4C462.45,-162.51 486.14,-160.37 508.35,-158.37"/>
<polygon fill="midnightblue" stroke="midnightblue" points="508.79,-161.84 518.43,-157.46 508.16,-154.87 508.79,-161.84"/>
</g>
<!-- Node9 -->
<g id="node9" class="node">
<title>Node9</title>
<g id="a_node9"><a xlink:href="Solution_8cpp.html#a88b7fad200133f09ed5879a14d0171c6" target="_top" xlink:title=" ">
<polygon fill="white" stroke="black" points="546.5,-103.5 546.5,-122.5 635.5,-122.5 635.5,-103.5 546.5,-103.5"/>
<text text-anchor="middle" x="591" y="-110.5" font-family="Helvetica,sans-Serif" font-size="10.00">makespanCost</text>
</a>
</g>
</g>
<!-- Node6&#45;&gt;Node9 -->
<g id="edge10" class="edge">
<title>Node6&#45;&gt;Node9</title>
<path fill="none" stroke="midnightblue" d="M418.34,-154.95C439.08,-147.31 465.18,-138.34 489,-132 504.28,-127.94 521.07,-124.41 536.51,-121.54"/>
<polygon fill="midnightblue" stroke="midnightblue" points="537.22,-124.97 546.43,-119.74 535.97,-118.08 537.22,-124.97"/>
</g>
<!-- Node10 -->
<g id="node10" class="node">
<title>Node10</title>
<g id="a_node10"><a xlink:href="classConflictBasedSearch.html#a9a97b362b4e2df901352732921975454" target="_top" xlink:title=" ">
<polygon fill="white" stroke="black" points="527,-278 527,-308 655,-308 655,-278 527,-278"/>
<text text-anchor="start" x="535" y="-296" font-family="Helvetica,sans-Serif" font-size="10.00">ConflictBasedSearch</text>
<text text-anchor="middle" x="591" y="-285" font-family="Helvetica,sans-Serif" font-size="10.00">::okForHardConstraints</text>
</a>
</g>
</g>
<!-- Node6&#45;&gt;Node10 -->
<g id="edge11" class="edge">
<title>Node6&#45;&gt;Node10</title>
<path fill="none" stroke="midnightblue" d="M391.99,-185.11C410.76,-206.81 448.4,-246.54 489,-268 497.74,-272.62 507.37,-276.41 517.09,-279.51"/>
<polygon fill="midnightblue" stroke="midnightblue" points="516.24,-282.91 526.83,-282.39 518.23,-276.2 516.24,-282.91"/>
</g>
<!-- Node6&#45;&gt;Node11 -->
<g id="edge12" class="edge">
<title>Node6&#45;&gt;Node11</title>
<path fill="none" stroke="midnightblue" d="M426.94,-154.89C436.06,-150.83 445.19,-145.9 453,-140 473.71,-124.35 467.21,-108.11 489,-94 499.01,-87.52 510.57,-82.72 522.22,-79.16"/>
<polygon fill="midnightblue" stroke="midnightblue" points="523.29,-82.5 532,-76.46 521.43,-75.75 523.29,-82.5"/>
</g>
<!-- Node12 -->
<g id="node12" class="node">
<title>Node12</title>
<g id="a_node12"><a xlink:href="classConflictBasedSearch.html#aeea91c6d2aa04bbd44b4f6a1382d81d4" target="_top" xlink:title=" ">
<polygon fill="white" stroke="black" points="489,-217.5 489,-258.5 693,-258.5 693,-217.5 489,-217.5"/>
<text text-anchor="start" x="497" y="-246.5" font-family="Helvetica,sans-Serif" font-size="10.00">ConflictBasedSearch</text>
<text text-anchor="start" x="497" y="-235.5" font-family="Helvetica,sans-Serif" font-size="10.00">::retrieveSetsOfConstraints</text>
<text text-anchor="middle" x="591" y="-224.5" font-family="Helvetica,sans-Serif" font-size="10.00">AndCostsAndSolutionsDisjointSplitting</text>
</a>
</g>
</g>
<!-- Node6&#45;&gt;Node12 -->
<g id="edge14" class="edge">
<title>Node6&#45;&gt;Node12</title>
<path fill="none" stroke="midnightblue" d="M421.47,-185.06C441.79,-192.23 466.59,-200.79 489,-208 495.55,-210.11 502.36,-212.25 509.21,-214.36"/>
<polygon fill="midnightblue" stroke="midnightblue" points="508.65,-217.85 519.24,-217.42 510.7,-211.15 508.65,-217.85"/>
</g>
<!-- Node6&#45;&gt;Node13 -->
<g id="edge16" class="edge">
<title>Node6&#45;&gt;Node13</title>
<path fill="none" stroke="midnightblue" d="M392.48,-154.82C420.81,-121.73 485.9,-45.88 489,-44 498,-38.55 508.14,-34.34 518.44,-31.09"/>
<polygon fill="midnightblue" stroke="midnightblue" points="519.68,-34.37 528.33,-28.25 517.75,-27.65 519.68,-34.37"/>
</g>
<!-- Node11&#45;&gt;Node2 -->
<g id="edge13" class="edge">
<title>Node11&#45;&gt;Node2</title>
<path fill="none" stroke="midnightblue" d="M537.88,-84C470.36,-99.58 352.55,-122.74 278.32,-135.16"/>
<polygon fill="midnightblue" stroke="midnightblue" points="277.45,-131.76 268.15,-136.84 278.59,-138.66 277.45,-131.76"/>
</g>
</g>
</svg>
