<?xml version="1.0" encoding="UTF-8" standalone="no"?>
<!DOCTYPE svg PUBLIC "-//W3C//DTD SVG 1.1//EN"
 "http://www.w3.org/Graphics/SVG/1.1/DTD/svg11.dtd">
<!-- Generated by graphviz version 2.43.0 (0)
 -->
<!-- Title: VertexConstraint::getPosition Pages: 1 -->
<svg width="352pt" height="186pt"
 viewBox="0.00 0.00 352.00 186.00" xmlns="http://www.w3.org/2000/svg" xmlns:xlink="http://www.w3.org/1999/xlink">
<g id="graph0" class="graph" transform="scale(1 1) rotate(0) translate(4 182)">
<title>VertexConstraint::getPosition</title>
<polygon fill="white" stroke="transparent" points="-4,4 -4,-182 348,-182 348,4 -4,4"/>
<!-- Node1 -->
<g id="node1" class="node">
<title>Node1</title>
<g id="a_node1"><a xlink:title=" ">
<polygon fill="#bfbfbf" stroke="black" points="185,-79 185,-98 344,-98 344,-79 185,-79"/>
<text text-anchor="middle" x="264.5" y="-86" font-family="Helvetica,sans-Serif" font-size="10.00">VertexConstraint::getPosition</text>
</a>
</g>
</g>
<!-- Node2 -->
<g id="node2" class="node">
<title>Node2</title>
<g id="a_node2"><a xlink:href="structSoftVertexConstraintHash.html#a442294c654fbec6f15ead5eaf57a4567" target="_top" xlink:title=" ">
<polygon fill="white" stroke="black" points="3.5,-147.5 3.5,-177.5 145.5,-177.5 145.5,-147.5 3.5,-147.5"/>
<text text-anchor="start" x="11.5" y="-165.5" font-family="Helvetica,sans-Serif" font-size="10.00">SoftVertexConstraintHash</text>
<text text-anchor="middle" x="74.5" y="-154.5" font-family="Helvetica,sans-Serif" font-size="10.00">::operator()</text>
</a>
</g>
</g>
<!-- Node1&#45;&gt;Node2 -->
<g id="edge1" class="edge">
<title>Node1&#45;&gt;Node2</title>
<path fill="none" stroke="midnightblue" d="M233.87,-102.38C210.94,-112.88 178.27,-127.36 149,-138.5 140.97,-141.56 132.36,-144.58 123.97,-147.41"/>
<polygon fill="midnightblue" stroke="midnightblue" points="235.45,-105.5 243.06,-98.14 232.52,-99.15 235.45,-105.5"/>
</g>
<!-- Node3 -->
<g id="node3" class="node">
<title>Node3</title>
<g id="a_node3"><a xlink:href="structHardVertexConstraintHash.html#a27aa2fed1a7d82ab0d3248f3c628f60f" target="_top" xlink:title=" ">
<polygon fill="white" stroke="black" points="1.5,-98.5 1.5,-128.5 147.5,-128.5 147.5,-98.5 1.5,-98.5"/>
<text text-anchor="start" x="9.5" y="-116.5" font-family="Helvetica,sans-Serif" font-size="10.00">HardVertexConstraintHash</text>
<text text-anchor="middle" x="74.5" y="-105.5" font-family="Helvetica,sans-Serif" font-size="10.00">::operator()</text>
</a>
</g>
</g>
<!-- Node1&#45;&gt;Node3 -->
<g id="edge2" class="edge">
<title>Node1&#45;&gt;Node3</title>
<path fill="none" stroke="midnightblue" d="M181.92,-99.35C170.47,-100.87 158.78,-102.43 147.53,-103.92"/>
<polygon fill="midnightblue" stroke="midnightblue" points="182.44,-102.81 191.89,-98.02 181.51,-95.87 182.44,-102.81"/>
</g>
<!-- Node4 -->
<g id="node4" class="node">
<title>Node4</title>
<g id="a_node4"><a xlink:href="structSoftVertexConstraintEqual.html#a0f6a58955643e80f129f89d79be3851f" target="_top" xlink:title=" ">
<polygon fill="white" stroke="black" points="2.5,-49.5 2.5,-79.5 146.5,-79.5 146.5,-49.5 2.5,-49.5"/>
<text text-anchor="start" x="10.5" y="-67.5" font-family="Helvetica,sans-Serif" font-size="10.00">SoftVertexConstraintEqual</text>
<text text-anchor="middle" x="74.5" y="-56.5" font-family="Helvetica,sans-Serif" font-size="10.00">::operator()</text>
</a>
</g>
</g>
<!-- Node1&#45;&gt;Node4 -->
<g id="edge3" class="edge">
<title>Node1&#45;&gt;Node4</title>
<path fill="none" stroke="midnightblue" d="M178.71,-77.68C167.98,-76.31 157.1,-74.92 146.61,-73.58"/>
<polygon fill="midnightblue" stroke="midnightblue" points="178.56,-81.19 188.93,-78.98 179.45,-74.24 178.56,-81.19"/>
</g>
<!-- Node5 -->
<g id="node5" class="node">
<title>Node5</title>
<g id="a_node5"><a xlink:href="structHardVertexConstraintEqual.html#a220f722a1d132b4d05805a45442713f8" target="_top" xlink:title=" ">
<polygon fill="white" stroke="black" points="0,-0.5 0,-30.5 149,-30.5 149,-0.5 0,-0.5"/>
<text text-anchor="start" x="8" y="-18.5" font-family="Helvetica,sans-Serif" font-size="10.00">HardVertexConstraintEqual</text>
<text text-anchor="middle" x="74.5" y="-7.5" font-family="Helvetica,sans-Serif" font-size="10.00">::operator()</text>
</a>
</g>
</g>
<!-- Node1&#45;&gt;Node5 -->
<g id="edge4" class="edge">
<title>Node1&#45;&gt;Node5</title>
<path fill="none" stroke="midnightblue" d="M232.51,-74.82C209.61,-64.89 177.57,-51.33 149,-40.5 140.18,-37.16 130.69,-33.77 121.55,-30.62"/>
<polygon fill="midnightblue" stroke="midnightblue" points="231.16,-78.06 241.73,-78.84 233.96,-71.64 231.16,-78.06"/>
</g>
</g>
</svg>
