<?xml version="1.0" encoding="UTF-8" standalone="no"?>
<!DOCTYPE svg PUBLIC "-//W3C//DTD SVG 1.1//EN"
 "http://www.w3.org/Graphics/SVG/1.1/DTD/svg11.dtd">
<!-- Generated by graphviz version 2.43.0 (0)
 -->
<!-- Title: VertexConstraint::getAgent Pages: 1 -->
<svg width="342pt" height="88pt"
 viewBox="0.00 0.00 342.00 88.00" xmlns="http://www.w3.org/2000/svg" xmlns:xlink="http://www.w3.org/1999/xlink">
<g id="graph0" class="graph" transform="scale(1 1) rotate(0) translate(4 84)">
<title>VertexConstraint::getAgent</title>
<polygon fill="white" stroke="transparent" points="-4,4 -4,-84 338,-84 338,4 -4,4"/>
<!-- Node1 -->
<g id="node1" class="node">
<title>Node1</title>
<g id="a_node1"><a xlink:title=" ">
<polygon fill="#bfbfbf" stroke="black" points="185,-30 185,-49 334,-49 334,-30 185,-30"/>
<text text-anchor="middle" x="259.5" y="-37" font-family="Helvetica,sans-Serif" font-size="10.00">VertexConstraint::getAgent</text>
</a>
</g>
</g>
<!-- Node2 -->
<g id="node2" class="node">
<title>Node2</title>
<g id="a_node2"><a xlink:href="structHardVertexConstraintHash.html#a27aa2fed1a7d82ab0d3248f3c628f60f" target="_top" xlink:title=" ">
<polygon fill="white" stroke="black" points="1.5,-49.5 1.5,-79.5 147.5,-79.5 147.5,-49.5 1.5,-49.5"/>
<text text-anchor="start" x="9.5" y="-67.5" font-family="Helvetica,sans-Serif" font-size="10.00">HardVertexConstraintHash</text>
<text text-anchor="middle" x="74.5" y="-56.5" font-family="Helvetica,sans-Serif" font-size="10.00">::operator()</text>
</a>
</g>
</g>
<!-- Node1&#45;&gt;Node2 -->
<g id="edge1" class="edge">
<title>Node1&#45;&gt;Node2</title>
<path fill="none" stroke="midnightblue" d="M178.61,-50.41C168.35,-51.82 157.88,-53.25 147.75,-54.63"/>
<polygon fill="midnightblue" stroke="midnightblue" points="179.36,-53.84 188.79,-49.02 178.41,-46.91 179.36,-53.84"/>
</g>
<!-- Node3 -->
<g id="node3" class="node">
<title>Node3</title>
<g id="a_node3"><a xlink:href="structHardVertexConstraintEqual.html#a220f722a1d132b4d05805a45442713f8" target="_top" xlink:title=" ">
<polygon fill="white" stroke="black" points="0,-0.5 0,-30.5 149,-30.5 149,-0.5 0,-0.5"/>
<text text-anchor="start" x="8" y="-18.5" font-family="Helvetica,sans-Serif" font-size="10.00">HardVertexConstraintEqual</text>
<text text-anchor="middle" x="74.5" y="-7.5" font-family="Helvetica,sans-Serif" font-size="10.00">::operator()</text>
</a>
</g>
</g>
<!-- Node1&#45;&gt;Node3 -->
<g id="edge2" class="edge">
<title>Node1&#45;&gt;Node3</title>
<path fill="none" stroke="midnightblue" d="M175.92,-28.67C167.01,-27.5 157.99,-26.32 149.2,-25.17"/>
<polygon fill="midnightblue" stroke="midnightblue" points="175.54,-32.15 185.91,-29.98 176.45,-25.21 175.54,-32.15"/>
</g>
</g>
</svg>
