<?xml version="1.0" encoding="UTF-8" standalone="no"?>
<!DOCTYPE svg PUBLIC "-//W3C//DTD SVG 1.1//EN"
 "http://www.w3.org/Graphics/SVG/1.1/DTD/svg11.dtd">
<!-- Generated by graphviz version 2.43.0 (0)
 -->
<!-- Title: ConflictBasedSearch::planIndividualPaths Pages: 1 -->
<svg width="592pt" height="92pt"
 viewBox="0.00 0.00 592.00 92.00" xmlns="http://www.w3.org/2000/svg" xmlns:xlink="http://www.w3.org/1999/xlink">
<g id="graph0" class="graph" transform="scale(1 1) rotate(0) translate(4 88)">
<title>ConflictBasedSearch::planIndividualPaths</title>
<polygon fill="white" stroke="transparent" points="-4,4 -4,-88 588,-88 588,4 -4,4"/>
<!-- Node1 -->
<g id="node1" class="node">
<title>Node1</title>
<g id="a_node1"><a xlink:title=" ">
<polygon fill="#bfbfbf" stroke="black" points="466,-0.5 466,-30.5 584,-30.5 584,-0.5 466,-0.5"/>
<text text-anchor="start" x="474" y="-18.5" font-family="Helvetica,sans-Serif" font-size="10.00">ConflictBasedSearch</text>
<text text-anchor="middle" x="525" y="-7.5" font-family="Helvetica,sans-Serif" font-size="10.00">::planIndividualPaths</text>
</a>
</g>
</g>
<!-- Node2 -->
<g id="node2" class="node">
<title>Node2</title>
<g id="a_node2"><a xlink:href="classConflictBasedSearch.html#a1e9a1fbd7e074039fee97bc5ad4c6b55" target="_top" xlink:title=" ">
<polygon fill="white" stroke="black" points="304,-53.5 304,-83.5 430,-83.5 430,-53.5 304,-53.5"/>
<text text-anchor="start" x="312" y="-71.5" font-family="Helvetica,sans-Serif" font-size="10.00">ConflictBasedSearch</text>
<text text-anchor="middle" x="367" y="-60.5" font-family="Helvetica,sans-Serif" font-size="10.00">::disjointSplittingSolve</text>
</a>
</g>
</g>
<!-- Node1&#45;&gt;Node2 -->
<g id="edge1" class="edge">
<title>Node1&#45;&gt;Node2</title>
<path fill="none" stroke="midnightblue" d="M470.09,-33.82C451.26,-40.21 430.36,-47.31 412.4,-53.42"/>
<polygon fill="midnightblue" stroke="midnightblue" points="471.37,-37.08 479.71,-30.55 469.12,-30.45 471.37,-37.08"/>
</g>
<!-- Node3 -->
<g id="node3" class="node">
<title>Node3</title>
<g id="a_node3"><a xlink:href="classConflictBasedSearch.html#a6aadc55f462faad9ce67903a59b96c62" target="_top" xlink:title=" ">
<polygon fill="white" stroke="black" points="152,-26.5 152,-56.5 268,-56.5 268,-26.5 152,-26.5"/>
<text text-anchor="start" x="160" y="-44.5" font-family="Helvetica,sans-Serif" font-size="10.00">ConflictBasedSearch</text>
<text text-anchor="middle" x="210" y="-33.5" font-family="Helvetica,sans-Serif" font-size="10.00">::solve</text>
</a>
</g>
</g>
<!-- Node1&#45;&gt;Node3 -->
<g id="edge6" class="edge">
<title>Node1&#45;&gt;Node3</title>
<path fill="none" stroke="midnightblue" d="M455.65,-15.49C399.49,-18.63 320.86,-25.28 268.04,-31.41"/>
<polygon fill="midnightblue" stroke="midnightblue" points="456.06,-18.97 465.86,-14.94 455.69,-11.98 456.06,-18.97"/>
</g>
<!-- Node2&#45;&gt;Node3 -->
<g id="edge2" class="edge">
<title>Node2&#45;&gt;Node3</title>
<path fill="none" stroke="midnightblue" d="M306.22,-51.5C293.69,-49.08 280.51,-46.81 268.08,-44.91"/>
<polygon fill="midnightblue" stroke="midnightblue" points="305.61,-54.94 316.1,-53.45 306.97,-48.08 305.61,-54.94"/>
</g>
<!-- Node3&#45;&gt;Node1 -->
<g id="edge4" class="edge">
<title>Node3&#45;&gt;Node1</title>
<path fill="none" stroke="midnightblue" d="M278.19,-41.58C334.03,-38.48 412.69,-31.86 465.86,-25.72"/>
<polygon fill="midnightblue" stroke="midnightblue" points="277.84,-38.09 268.04,-42.11 278.21,-45.08 277.84,-38.09"/>
</g>
<!-- Node3&#45;&gt;Node2 -->
<g id="edge3" class="edge">
<title>Node3&#45;&gt;Node2</title>
<path fill="none" stroke="midnightblue" d="M270.61,-58.47C281.5,-60.57 292.89,-62.57 303.85,-64.3"/>
<polygon fill="midnightblue" stroke="midnightblue" points="271.26,-55.03 260.77,-56.52 269.9,-61.9 271.26,-55.03"/>
</g>
<!-- Node4 -->
<g id="node4" class="node">
<title>Node4</title>
<g id="a_node4"><a xlink:href="classConflictBasedSearch.html#a4dac9eef3a5e99677a116bf1dd3e02b0" target="_top" xlink:title=" ">
<polygon fill="white" stroke="black" points="0,-26.5 0,-56.5 116,-56.5 116,-26.5 0,-26.5"/>
<text text-anchor="start" x="8" y="-44.5" font-family="Helvetica,sans-Serif" font-size="10.00">ConflictBasedSearch</text>
<text text-anchor="middle" x="58" y="-33.5" font-family="Helvetica,sans-Serif" font-size="10.00">::solve</text>
</a>
</g>
</g>
<!-- Node3&#45;&gt;Node4 -->
<g id="edge5" class="edge">
<title>Node3&#45;&gt;Node4</title>
<path fill="none" stroke="midnightblue" d="M141.69,-41.5C133.27,-41.5 124.72,-41.5 116.47,-41.5"/>
<polygon fill="midnightblue" stroke="midnightblue" points="141.86,-45 151.86,-41.5 141.86,-38 141.86,-45"/>
</g>
</g>
</svg>
