<?xml version="1.0" encoding="UTF-8" standalone="no"?>
<!DOCTYPE svg PUBLIC "-//W3C//DTD SVG 1.1//EN"
 "http://www.w3.org/Graphics/SVG/1.1/DTD/svg11.dtd">
<!-- Generated by graphviz version 2.43.0 (0)
 -->
<!-- Title: ConflictBasedSearch::planIndividualPaths Pages: 1 -->
<svg width="855pt" height="362pt"
 viewBox="0.00 0.00 855.00 361.50" xmlns="http://www.w3.org/2000/svg" xmlns:xlink="http://www.w3.org/1999/xlink">
<g id="graph0" class="graph" transform="scale(1 1) rotate(0) translate(4 357.5)">
<title>ConflictBasedSearch::planIndividualPaths</title>
<polygon fill="white" stroke="transparent" points="-4,4 -4,-357.5 851,-357.5 851,4 -4,4"/>
<!-- Node1 -->
<g id="node1" class="node">
<title>Node1</title>
<g id="a_node1"><a xlink:title=" ">
<polygon fill="#bfbfbf" stroke="black" points="0,-136.5 0,-166.5 118,-166.5 118,-136.5 0,-136.5"/>
<text text-anchor="start" x="8" y="-154.5" font-family="Helvetica,sans-Serif" font-size="10.00">ConflictBasedSearch</text>
<text text-anchor="middle" x="59" y="-143.5" font-family="Helvetica,sans-Serif" font-size="10.00">::planIndividualPaths</text>
</a>
</g>
</g>
<!-- Node2 -->
<g id="node2" class="node">
<title>Node2</title>
<g id="a_node2"><a xlink:href="classConflictBasedSearch.html#a6aadc55f462faad9ce67903a59b96c62" target="_top" xlink:title=" ">
<polygon fill="white" stroke="black" points="154,-136.5 154,-166.5 270,-166.5 270,-136.5 154,-136.5"/>
<text text-anchor="start" x="162" y="-154.5" font-family="Helvetica,sans-Serif" font-size="10.00">ConflictBasedSearch</text>
<text text-anchor="middle" x="212" y="-143.5" font-family="Helvetica,sans-Serif" font-size="10.00">::solve</text>
</a>
</g>
</g>
<!-- Node1&#45;&gt;Node2 -->
<g id="edge1" class="edge">
<title>Node1&#45;&gt;Node2</title>
<path fill="none" stroke="midnightblue" d="M118.38,-144.91C126.64,-144.75 135.19,-144.71 143.6,-144.78"/>
<polygon fill="midnightblue" stroke="midnightblue" points="143.72,-148.29 153.77,-144.93 143.82,-141.29 143.72,-148.29"/>
</g>
<!-- Node2&#45;&gt;Node1 -->
<g id="edge16" class="edge">
<title>Node2&#45;&gt;Node1</title>
<path fill="none" stroke="midnightblue" d="M153.77,-158.07C145.54,-158.24 137,-158.29 128.57,-158.22"/>
<polygon fill="midnightblue" stroke="midnightblue" points="128.42,-154.72 118.38,-158.09 128.33,-161.72 128.42,-154.72"/>
</g>
<!-- Node3 -->
<g id="node3" class="node">
<title>Node3</title>
<g id="a_node3"><a xlink:href="classConflictBasedSearch.html#a6070f03e97d9e3ea822f5ed1a0bfe9a1" target="_top" xlink:title=" ">
<polygon fill="white" stroke="black" points="525,-49.5 525,-79.5 661,-79.5 661,-49.5 525,-49.5"/>
<text text-anchor="start" x="533" y="-67.5" font-family="Helvetica,sans-Serif" font-size="10.00">ConflictBasedSearch</text>
<text text-anchor="middle" x="593" y="-56.5" font-family="Helvetica,sans-Serif" font-size="10.00">::calculateSetOfConflicts</text>
</a>
</g>
</g>
<!-- Node2&#45;&gt;Node3 -->
<g id="edge2" class="edge">
<title>Node2&#45;&gt;Node3</title>
<path fill="none" stroke="midnightblue" d="M238.14,-136.33C256.36,-126.03 281.91,-112.97 306,-105.5 374.69,-84.19 456.16,-73.89 514.54,-68.95"/>
<polygon fill="midnightblue" stroke="midnightblue" points="515.12,-72.41 524.8,-68.12 514.55,-65.44 515.12,-72.41"/>
</g>
<!-- Node4 -->
<g id="node4" class="node">
<title>Node4</title>
<g id="a_node4"><a xlink:href="classConflictBasedSearch.html#a6d17a328ed4bd26bf58503a87761164c" target="_top" xlink:title=" ">
<polygon fill="white" stroke="black" points="535,-0.5 535,-30.5 651,-30.5 651,-0.5 535,-0.5"/>
<text text-anchor="start" x="543" y="-18.5" font-family="Helvetica,sans-Serif" font-size="10.00">ConflictBasedSearch</text>
<text text-anchor="middle" x="593" y="-7.5" font-family="Helvetica,sans-Serif" font-size="10.00">::combineSolutions</text>
</a>
</g>
</g>
<!-- Node2&#45;&gt;Node4 -->
<g id="edge3" class="edge">
<title>Node2&#45;&gt;Node4</title>
<path fill="none" stroke="midnightblue" d="M226.16,-136.37C242.85,-118.22 273.39,-88.27 306,-72.5 375.91,-38.69 464.71,-24.93 524.67,-19.34"/>
<polygon fill="midnightblue" stroke="midnightblue" points="525.13,-22.81 534.78,-18.44 524.51,-15.84 525.13,-22.81"/>
</g>
<!-- Node6 -->
<g id="node6" class="node">
<title>Node6</title>
<g id="a_node6"><a xlink:href="classConflictBasedSearch.html#a1e9a1fbd7e074039fee97bc5ad4c6b55" target="_top" xlink:title=" ">
<polygon fill="white" stroke="black" points="317.5,-191.5 317.5,-221.5 443.5,-221.5 443.5,-191.5 317.5,-191.5"/>
<text text-anchor="start" x="325.5" y="-209.5" font-family="Helvetica,sans-Serif" font-size="10.00">ConflictBasedSearch</text>
<text text-anchor="middle" x="380.5" y="-198.5" font-family="Helvetica,sans-Serif" font-size="10.00">::disjointSplittingSolve</text>
</a>
</g>
</g>
<!-- Node2&#45;&gt;Node6 -->
<g id="edge5" class="edge">
<title>Node2&#45;&gt;Node6</title>
<path fill="none" stroke="midnightblue" d="M270.3,-163.98C293.36,-171.05 319.38,-179.85 340.23,-187.7"/>
<polygon fill="midnightblue" stroke="midnightblue" points="339.13,-191.02 349.72,-191.34 341.64,-184.49 339.13,-191.02"/>
</g>
<!-- Node12 -->
<g id="node12" class="node">
<title>Node12</title>
<g id="a_node12"><a xlink:href="classConflictBasedSearch.html#a727a9172ea3f3fbf4eca9f247d3f5356" target="_top" xlink:title=" ">
<polygon fill="white" stroke="black" points="530.5,-98.5 530.5,-128.5 655.5,-128.5 655.5,-98.5 530.5,-98.5"/>
<text text-anchor="start" x="538.5" y="-116.5" font-family="Helvetica,sans-Serif" font-size="10.00">ConflictBasedSearch</text>
<text text-anchor="middle" x="593" y="-105.5" font-family="Helvetica,sans-Serif" font-size="10.00">::updateSetOfConflicts</text>
</a>
</g>
</g>
<!-- Node2&#45;&gt;Node12 -->
<g id="edge18" class="edge">
<title>Node2&#45;&gt;Node12</title>
<path fill="none" stroke="midnightblue" d="M251.3,-136.44C267.85,-130.64 287.61,-124.66 306,-121.5 378.16,-109.11 462.04,-108.34 520.22,-109.91"/>
<polygon fill="midnightblue" stroke="midnightblue" points="520.31,-113.41 530.41,-110.22 520.52,-106.42 520.31,-113.41"/>
</g>
<!-- Node13 -->
<g id="node13" class="node">
<title>Node13</title>
<g id="a_node13"><a xlink:href="classConflictBasedSearch.html#adfcf0b5e67e17a8eada77fed4ed4ea20" target="_top" xlink:title=" ">
<polygon fill="white" stroke="black" points="306,-131 306,-172 455,-172 455,-131 306,-131"/>
<text text-anchor="start" x="314" y="-160" font-family="Helvetica,sans-Serif" font-size="10.00">ConflictBasedSearch</text>
<text text-anchor="start" x="314" y="-149" font-family="Helvetica,sans-Serif" font-size="10.00">::retrieveSetsOfConstraints</text>
<text text-anchor="middle" x="380.5" y="-138" font-family="Helvetica,sans-Serif" font-size="10.00">AndCostsAndSolutions</text>
</a>
</g>
</g>
<!-- Node2&#45;&gt;Node13 -->
<g id="edge17" class="edge">
<title>Node2&#45;&gt;Node13</title>
<path fill="none" stroke="midnightblue" d="M270.3,-151.5C278.55,-151.5 287.17,-151.5 295.81,-151.5"/>
<polygon fill="midnightblue" stroke="midnightblue" points="295.92,-155 305.92,-151.5 295.92,-148 295.92,-155"/>
</g>
<!-- Node5 -->
<g id="node5" class="node">
<title>Node5</title>
<g id="a_node5"><a xlink:href="classConflictBasedSearch.html#a3a9f295491df3b7ceec1b1d2ce7bacf3" target="_top" xlink:title=" ">
<polygon fill="white" stroke="black" points="731,-0.5 731,-30.5 847,-30.5 847,-0.5 731,-0.5"/>
<text text-anchor="start" x="739" y="-18.5" font-family="Helvetica,sans-Serif" font-size="10.00">ConflictBasedSearch</text>
<text text-anchor="middle" x="789" y="-7.5" font-family="Helvetica,sans-Serif" font-size="10.00">::retrieveSolutions</text>
</a>
</g>
</g>
<!-- Node4&#45;&gt;Node5 -->
<g id="edge4" class="edge">
<title>Node4&#45;&gt;Node5</title>
<path fill="none" stroke="midnightblue" d="M651.16,-15.5C672.96,-15.5 698.02,-15.5 720.69,-15.5"/>
<polygon fill="midnightblue" stroke="midnightblue" points="720.92,-19 730.92,-15.5 720.92,-12 720.92,-19"/>
</g>
<!-- Node6&#45;&gt;Node1 -->
<g id="edge12" class="edge">
<title>Node6&#45;&gt;Node1</title>
<path fill="none" stroke="midnightblue" d="M317.45,-199.89C271.98,-194.58 208.88,-186.24 154,-175.5 144.33,-173.61 134.17,-171.33 124.25,-168.93"/>
<polygon fill="midnightblue" stroke="midnightblue" points="124.99,-165.51 114.44,-166.51 123.31,-172.31 124.99,-165.51"/>
</g>
<!-- Node6&#45;&gt;Node2 -->
<g id="edge14" class="edge">
<title>Node6&#45;&gt;Node2</title>
<path fill="none" stroke="midnightblue" d="M317.23,-192.49C295.42,-185.69 271.56,-177.57 252.18,-170.27"/>
<polygon fill="midnightblue" stroke="midnightblue" points="253.36,-166.97 242.77,-166.65 250.84,-173.51 253.36,-166.97"/>
</g>
<!-- Node6&#45;&gt;Node3 -->
<g id="edge6" class="edge">
<title>Node6&#45;&gt;Node3</title>
<path fill="none" stroke="midnightblue" d="M441.51,-191.31C446.42,-188.57 451.01,-185.33 455,-181.5 486.98,-150.82 457.6,-117.64 491,-88.5 498.03,-82.37 506.35,-77.73 515.15,-74.24"/>
<polygon fill="midnightblue" stroke="midnightblue" points="516.54,-77.46 524.84,-70.88 514.25,-70.85 516.54,-77.46"/>
</g>
<!-- Node6&#45;&gt;Node4 -->
<g id="edge7" class="edge">
<title>Node6&#45;&gt;Node4</title>
<path fill="none" stroke="midnightblue" d="M442.72,-191.39C447.25,-188.63 451.43,-185.36 455,-181.5 499.17,-133.67 444.62,-85.19 491,-39.5 500.31,-30.33 512.45,-24.43 525.07,-20.68"/>
<polygon fill="midnightblue" stroke="midnightblue" points="525.94,-24.07 534.77,-18.21 524.22,-17.28 525.94,-24.07"/>
</g>
<!-- Node7 -->
<g id="node7" class="node">
<title>Node7</title>
<g id="a_node7"><a xlink:href="Solution_8cpp.html#a1668e5fa72e047531e95f29f5deaf233" target="_top" xlink:title=" ">
<polygon fill="white" stroke="black" points="564.5,-148 564.5,-167 621.5,-167 621.5,-148 564.5,-148"/>
<text text-anchor="middle" x="593" y="-155" font-family="Helvetica,sans-Serif" font-size="10.00">fuelCost</text>
</a>
</g>
</g>
<!-- Node6&#45;&gt;Node7 -->
<g id="edge8" class="edge">
<title>Node6&#45;&gt;Node7</title>
<path fill="none" stroke="midnightblue" d="M433.08,-191.44C451.3,-186.37 471.99,-180.89 491,-176.5 511.83,-171.7 535.29,-167.23 554.35,-163.83"/>
<polygon fill="midnightblue" stroke="midnightblue" points="555.19,-167.24 564.44,-162.06 553.98,-160.34 555.19,-167.24"/>
</g>
<!-- Node8 -->
<g id="node8" class="node">
<title>Node8</title>
<g id="a_node8"><a xlink:href="classVertexConstraint.html#ae4a5ede3e21dcbc4dec0060a90682c15" target="_top" xlink:title=" ">
<polygon fill="white" stroke="black" points="520.5,-334 520.5,-353 665.5,-353 665.5,-334 520.5,-334"/>
<text text-anchor="middle" x="593" y="-341" font-family="Helvetica,sans-Serif" font-size="10.00">VertexConstraint::getTime</text>
</a>
</g>
</g>
<!-- Node6&#45;&gt;Node8 -->
<g id="edge9" class="edge">
<title>Node6&#45;&gt;Node8</title>
<path fill="none" stroke="midnightblue" d="M390.84,-221.68C407.51,-247.37 445,-299.11 491,-324.5 497.09,-327.86 503.66,-330.64 510.43,-332.93"/>
<polygon fill="midnightblue" stroke="midnightblue" points="509.88,-336.42 520.46,-335.96 511.9,-329.72 509.88,-336.42"/>
</g>
<!-- Node9 -->
<g id="node9" class="node">
<title>Node9</title>
<g id="a_node9"><a xlink:href="Solution_8cpp.html#a88b7fad200133f09ed5879a14d0171c6" target="_top" xlink:title=" ">
<polygon fill="white" stroke="black" points="548.5,-296 548.5,-315 637.5,-315 637.5,-296 548.5,-296"/>
<text text-anchor="middle" x="593" y="-303" font-family="Helvetica,sans-Serif" font-size="10.00">makespanCost</text>
</a>
</g>
</g>
<!-- Node6&#45;&gt;Node9 -->
<g id="edge10" class="edge">
<title>Node6&#45;&gt;Node9</title>
<path fill="none" stroke="midnightblue" d="M397.48,-221.81C417.61,-240.19 454.05,-270.51 491,-286.5 505.78,-292.89 522.68,-297.14 538.38,-299.96"/>
<polygon fill="midnightblue" stroke="midnightblue" points="538.06,-303.45 548.49,-301.62 539.19,-296.55 538.06,-303.45"/>
</g>
<!-- Node10 -->
<g id="node10" class="node">
<title>Node10</title>
<g id="a_node10"><a xlink:href="classConflictBasedSearch.html#a9a97b362b4e2df901352732921975454" target="_top" xlink:title=" ">
<polygon fill="white" stroke="black" points="529,-246.5 529,-276.5 657,-276.5 657,-246.5 529,-246.5"/>
<text text-anchor="start" x="537" y="-264.5" font-family="Helvetica,sans-Serif" font-size="10.00">ConflictBasedSearch</text>
<text text-anchor="middle" x="593" y="-253.5" font-family="Helvetica,sans-Serif" font-size="10.00">::okForHardConstraints</text>
</a>
</g>
</g>
<!-- Node6&#45;&gt;Node10 -->
<g id="edge11" class="edge">
<title>Node6&#45;&gt;Node10</title>
<path fill="none" stroke="midnightblue" d="M435.45,-221.57C453.13,-226.43 472.88,-231.78 491,-236.5 500.5,-238.98 510.53,-241.53 520.42,-244.02"/>
<polygon fill="midnightblue" stroke="midnightblue" points="519.7,-247.44 530.25,-246.47 521.39,-240.65 519.7,-247.44"/>
</g>
<!-- Node11 -->
<g id="node11" class="node">
<title>Node11</title>
<g id="a_node11"><a xlink:href="classConflictBasedSearch.html#aeea91c6d2aa04bbd44b4f6a1382d81d4" target="_top" xlink:title=" ">
<polygon fill="white" stroke="black" points="491,-186 491,-227 695,-227 695,-186 491,-186"/>
<text text-anchor="start" x="499" y="-215" font-family="Helvetica,sans-Serif" font-size="10.00">ConflictBasedSearch</text>
<text text-anchor="start" x="499" y="-204" font-family="Helvetica,sans-Serif" font-size="10.00">::retrieveSetsOfConstraints</text>
<text text-anchor="middle" x="593" y="-193" font-family="Helvetica,sans-Serif" font-size="10.00">AndCostsAndSolutionsDisjointSplitting</text>
</a>
</g>
</g>
<!-- Node6&#45;&gt;Node11 -->
<g id="edge13" class="edge">
<title>Node6&#45;&gt;Node11</title>
<path fill="none" stroke="midnightblue" d="M443.52,-206.5C455.29,-206.5 467.93,-206.5 480.69,-206.5"/>
<polygon fill="midnightblue" stroke="midnightblue" points="480.94,-210 490.94,-206.5 480.94,-203 480.94,-210"/>
</g>
<!-- Node6&#45;&gt;Node12 -->
<g id="edge15" class="edge">
<title>Node6&#45;&gt;Node12</title>
<path fill="none" stroke="midnightblue" d="M436.89,-191.39C443.25,-188.59 449.44,-185.31 455,-181.5 475.56,-167.41 469.86,-151.7 491,-138.5 500.09,-132.82 510.39,-128.43 520.86,-125.04"/>
<polygon fill="midnightblue" stroke="midnightblue" points="521.89,-128.39 530.48,-122.2 519.9,-121.68 521.89,-128.39"/>
</g>
</g>
</svg>
