<?xml version="1.0" encoding="UTF-8" standalone="no"?>
<!DOCTYPE svg PUBLIC "-//W3C//DTD SVG 1.1//EN"
 "http://www.w3.org/Graphics/SVG/1.1/DTD/svg11.dtd">
<!-- Generated by graphviz version 2.43.0 (0)
 -->
<!-- Title: AStarProblem&lt; S &gt; Pages: 1 -->
<svg width="1166pt" height="585pt"
 viewBox="0.00 0.00 1165.50 585.00" xmlns="http://www.w3.org/2000/svg" xmlns:xlink="http://www.w3.org/1999/xlink">
<g id="graph0" class="graph" transform="scale(1 1) rotate(0) translate(4 581)">
<title>AStarProblem&lt; S &gt;</title>
<polygon fill="white" stroke="transparent" points="-4,4 -4,-581 1161.5,-581 1161.5,4 -4,4"/>
<!-- Node1 -->
<g id="node1" class="node">
<title>Node1</title>
<g id="a_node1"><a xlink:title="Search problem formulated for the A* algorithm.">
<polygon fill="#bfbfbf" stroke="black" points="549.5,-442.5 549.5,-576.5 661.5,-576.5 661.5,-442.5 549.5,-442.5"/>
<text text-anchor="middle" x="605.5" y="-564.5" font-family="Helvetica,sans-Serif" font-size="10.00">AStarProblem&lt; S &gt;</text>
<polyline fill="none" stroke="black" points="549.5,-557.5 661.5,-557.5 "/>
<text text-anchor="middle" x="605.5" y="-545.5" font-family="Helvetica,sans-Serif" font-size="10.00"> </text>
<polyline fill="none" stroke="black" points="549.5,-538.5 661.5,-538.5 "/>
<text text-anchor="start" x="557.5" y="-526.5" font-family="Helvetica,sans-Serif" font-size="10.00">+ AStarProblem()</text>
<text text-anchor="start" x="557.5" y="-515.5" font-family="Helvetica,sans-Serif" font-size="10.00">+ ~AStarProblem()</text>
<text text-anchor="start" x="557.5" y="-504.5" font-family="Helvetica,sans-Serif" font-size="10.00">+ getStartState()</text>
<text text-anchor="start" x="557.5" y="-493.5" font-family="Helvetica,sans-Serif" font-size="10.00">+ isGoalState()</text>
<text text-anchor="start" x="557.5" y="-482.5" font-family="Helvetica,sans-Serif" font-size="10.00">+ getSuccessors()</text>
<text text-anchor="start" x="557.5" y="-471.5" font-family="Helvetica,sans-Serif" font-size="10.00">+ getPositions()</text>
<text text-anchor="start" x="557.5" y="-460.5" font-family="Helvetica,sans-Serif" font-size="10.00">+ getMaxCost()</text>
<text text-anchor="start" x="557.5" y="-449.5" font-family="Helvetica,sans-Serif" font-size="10.00">+ getStartTime()</text>
</a>
</g>
</g>
<!-- Node2 -->
<g id="node2" class="node">
<title>Node2</title>
<g id="a_node2"><a xlink:href="classAStarProblem.html" target="_top" xlink:title=" ">
<polygon fill="white" stroke="black" points="27,-238.5 27,-383.5 190,-383.5 190,-238.5 27,-238.5"/>
<text text-anchor="start" x="35" y="-371.5" font-family="Helvetica,sans-Serif" font-size="10.00">AStarProblem&lt; StandardMulti</text>
<text text-anchor="middle" x="108.5" y="-360.5" font-family="Helvetica,sans-Serif" font-size="10.00">AgentSpaceTimeState &gt;</text>
<polyline fill="none" stroke="black" points="27,-353.5 190,-353.5 "/>
<text text-anchor="middle" x="108.5" y="-341.5" font-family="Helvetica,sans-Serif" font-size="10.00"> </text>
<polyline fill="none" stroke="black" points="27,-334.5 190,-334.5 "/>
<text text-anchor="start" x="35" y="-322.5" font-family="Helvetica,sans-Serif" font-size="10.00">+ AStarProblem()</text>
<text text-anchor="start" x="35" y="-311.5" font-family="Helvetica,sans-Serif" font-size="10.00">+ ~AStarProblem()</text>
<text text-anchor="start" x="35" y="-300.5" font-family="Helvetica,sans-Serif" font-size="10.00">+ getStartState()</text>
<text text-anchor="start" x="35" y="-289.5" font-family="Helvetica,sans-Serif" font-size="10.00">+ isGoalState()</text>
<text text-anchor="start" x="35" y="-278.5" font-family="Helvetica,sans-Serif" font-size="10.00">+ getSuccessors()</text>
<text text-anchor="start" x="35" y="-267.5" font-family="Helvetica,sans-Serif" font-size="10.00">+ getPositions()</text>
<text text-anchor="start" x="35" y="-256.5" font-family="Helvetica,sans-Serif" font-size="10.00">+ getMaxCost()</text>
<text text-anchor="start" x="35" y="-245.5" font-family="Helvetica,sans-Serif" font-size="10.00">+ getStartTime()</text>
</a>
</g>
</g>
<!-- Node1&#45;&gt;Node2 -->
<g id="edge1" class="edge">
<title>Node1&#45;&gt;Node2</title>
<path fill="none" stroke="orange" d="M539.14,-503.21C430.17,-493.34 219.59,-468.94 161.5,-424 148.06,-413.6 137.87,-398.96 130.2,-383.67"/>
<polygon fill="orange" stroke="orange" points="539.09,-506.72 549.36,-504.12 539.71,-499.75 539.09,-506.72"/>
<text text-anchor="start" x="161.5" y="-416" font-family="Helvetica,sans-Serif" font-size="10.00"> &lt; StandardMultiAgentSpace</text>
<text text-anchor="middle" x="232" y="-405" font-family="Helvetica,sans-Serif" font-size="10.00">TimeState &gt;</text>
</g>
<!-- Node4 -->
<g id="node4" class="node">
<title>Node4</title>
<g id="a_node4"><a xlink:href="classAStarProblem.html" target="_top" xlink:title=" ">
<polygon fill="white" stroke="black" points="218,-238.5 218,-383.5 381,-383.5 381,-238.5 218,-238.5"/>
<text text-anchor="start" x="226" y="-371.5" font-family="Helvetica,sans-Serif" font-size="10.00">AStarProblem&lt; ODMultiAgent</text>
<text text-anchor="middle" x="299.5" y="-360.5" font-family="Helvetica,sans-Serif" font-size="10.00">SpaceTimeState &gt;</text>
<polyline fill="none" stroke="black" points="218,-353.5 381,-353.5 "/>
<text text-anchor="middle" x="299.5" y="-341.5" font-family="Helvetica,sans-Serif" font-size="10.00"> </text>
<polyline fill="none" stroke="black" points="218,-334.5 381,-334.5 "/>
<text text-anchor="start" x="226" y="-322.5" font-family="Helvetica,sans-Serif" font-size="10.00">+ AStarProblem()</text>
<text text-anchor="start" x="226" y="-311.5" font-family="Helvetica,sans-Serif" font-size="10.00">+ ~AStarProblem()</text>
<text text-anchor="start" x="226" y="-300.5" font-family="Helvetica,sans-Serif" font-size="10.00">+ getStartState()</text>
<text text-anchor="start" x="226" y="-289.5" font-family="Helvetica,sans-Serif" font-size="10.00">+ isGoalState()</text>
<text text-anchor="start" x="226" y="-278.5" font-family="Helvetica,sans-Serif" font-size="10.00">+ getSuccessors()</text>
<text text-anchor="start" x="226" y="-267.5" font-family="Helvetica,sans-Serif" font-size="10.00">+ getPositions()</text>
<text text-anchor="start" x="226" y="-256.5" font-family="Helvetica,sans-Serif" font-size="10.00">+ getMaxCost()</text>
<text text-anchor="start" x="226" y="-245.5" font-family="Helvetica,sans-Serif" font-size="10.00">+ getStartTime()</text>
</a>
</g>
</g>
<!-- Node1&#45;&gt;Node4 -->
<g id="edge3" class="edge">
<title>Node1&#45;&gt;Node4</title>
<path fill="none" stroke="orange" d="M539.08,-508.05C473.1,-503.8 374,-486.48 318.5,-424 308.55,-412.79 302.83,-398.37 299.71,-383.63"/>
<polygon fill="orange" stroke="orange" points="539.19,-511.56 549.37,-508.62 539.58,-504.57 539.19,-511.56"/>
<text text-anchor="middle" x="405.5" y="-410.5" font-family="Helvetica,sans-Serif" font-size="10.00"> &lt; ODMultiAgentSpaceTimeState &gt;</text>
</g>
<!-- Node6 -->
<g id="node6" class="node">
<title>Node6</title>
<g id="a_node6"><a xlink:href="classAStarProblem.html" target="_top" xlink:title=" ">
<polygon fill="white" stroke="black" points="419,-238.5 419,-383.5 582,-383.5 582,-238.5 419,-238.5"/>
<text text-anchor="start" x="427" y="-371.5" font-family="Helvetica,sans-Serif" font-size="10.00">AStarProblem&lt; StandardMulti</text>
<text text-anchor="middle" x="500.5" y="-360.5" font-family="Helvetica,sans-Serif" font-size="10.00">AgentState &gt;</text>
<polyline fill="none" stroke="black" points="419,-353.5 582,-353.5 "/>
<text text-anchor="middle" x="500.5" y="-341.5" font-family="Helvetica,sans-Serif" font-size="10.00"> </text>
<polyline fill="none" stroke="black" points="419,-334.5 582,-334.5 "/>
<text text-anchor="start" x="427" y="-322.5" font-family="Helvetica,sans-Serif" font-size="10.00">+ AStarProblem()</text>
<text text-anchor="start" x="427" y="-311.5" font-family="Helvetica,sans-Serif" font-size="10.00">+ ~AStarProblem()</text>
<text text-anchor="start" x="427" y="-300.5" font-family="Helvetica,sans-Serif" font-size="10.00">+ getStartState()</text>
<text text-anchor="start" x="427" y="-289.5" font-family="Helvetica,sans-Serif" font-size="10.00">+ isGoalState()</text>
<text text-anchor="start" x="427" y="-278.5" font-family="Helvetica,sans-Serif" font-size="10.00">+ getSuccessors()</text>
<text text-anchor="start" x="427" y="-267.5" font-family="Helvetica,sans-Serif" font-size="10.00">+ getPositions()</text>
<text text-anchor="start" x="427" y="-256.5" font-family="Helvetica,sans-Serif" font-size="10.00">+ getMaxCost()</text>
<text text-anchor="start" x="427" y="-245.5" font-family="Helvetica,sans-Serif" font-size="10.00">+ getStartTime()</text>
</a>
</g>
</g>
<!-- Node1&#45;&gt;Node6 -->
<g id="edge5" class="edge">
<title>Node1&#45;&gt;Node6</title>
<path fill="none" stroke="orange" d="M541.26,-470.08C525.78,-457.47 511.21,-441.99 502.5,-424 496.53,-411.66 493.69,-397.62 492.72,-383.76"/>
<polygon fill="orange" stroke="orange" points="539.37,-473.04 549.41,-476.41 543.66,-467.51 539.37,-473.04"/>
<text text-anchor="middle" x="576.5" y="-410.5" font-family="Helvetica,sans-Serif" font-size="10.00"> &lt; StandardMultiAgentState &gt;</text>
</g>
<!-- Node8 -->
<g id="node8" class="node">
<title>Node8</title>
<g id="a_node8"><a xlink:href="classAStarProblem.html" target="_top" xlink:title=" ">
<polygon fill="white" stroke="black" points="610,-238.5 610,-383.5 763,-383.5 763,-238.5 610,-238.5"/>
<text text-anchor="start" x="618" y="-371.5" font-family="Helvetica,sans-Serif" font-size="10.00">AStarProblem&lt; SingleAgent</text>
<text text-anchor="middle" x="686.5" y="-360.5" font-family="Helvetica,sans-Serif" font-size="10.00">SpaceTimeState &gt;</text>
<polyline fill="none" stroke="black" points="610,-353.5 763,-353.5 "/>
<text text-anchor="middle" x="686.5" y="-341.5" font-family="Helvetica,sans-Serif" font-size="10.00"> </text>
<polyline fill="none" stroke="black" points="610,-334.5 763,-334.5 "/>
<text text-anchor="start" x="618" y="-322.5" font-family="Helvetica,sans-Serif" font-size="10.00">+ AStarProblem()</text>
<text text-anchor="start" x="618" y="-311.5" font-family="Helvetica,sans-Serif" font-size="10.00">+ ~AStarProblem()</text>
<text text-anchor="start" x="618" y="-300.5" font-family="Helvetica,sans-Serif" font-size="10.00">+ getStartState()</text>
<text text-anchor="start" x="618" y="-289.5" font-family="Helvetica,sans-Serif" font-size="10.00">+ isGoalState()</text>
<text text-anchor="start" x="618" y="-278.5" font-family="Helvetica,sans-Serif" font-size="10.00">+ getSuccessors()</text>
<text text-anchor="start" x="618" y="-267.5" font-family="Helvetica,sans-Serif" font-size="10.00">+ getPositions()</text>
<text text-anchor="start" x="618" y="-256.5" font-family="Helvetica,sans-Serif" font-size="10.00">+ getMaxCost()</text>
<text text-anchor="start" x="618" y="-245.5" font-family="Helvetica,sans-Serif" font-size="10.00">+ getStartTime()</text>
</a>
</g>
</g>
<!-- Node1&#45;&gt;Node8 -->
<g id="edge7" class="edge">
<title>Node1&#45;&gt;Node8</title>
<path fill="none" stroke="orange" d="M650.38,-433.19C651.83,-430.11 653.21,-427.04 654.5,-424 659.92,-411.25 664.73,-397.31 668.87,-383.72"/>
<polygon fill="orange" stroke="orange" points="647.12,-431.89 645.86,-442.41 653.4,-434.97 647.12,-431.89"/>
<text text-anchor="middle" x="744.5" y="-410.5" font-family="Helvetica,sans-Serif" font-size="10.00"> &lt; SingleAgentSpaceTimeState &gt;</text>
</g>
<!-- Node10 -->
<g id="node10" class="node">
<title>Node10</title>
<g id="a_node10"><a xlink:href="classAStarProblem.html" target="_top" xlink:title=" ">
<polygon fill="white" stroke="black" points="805,-238.5 805,-383.5 958,-383.5 958,-238.5 805,-238.5"/>
<text text-anchor="start" x="813" y="-371.5" font-family="Helvetica,sans-Serif" font-size="10.00">AStarProblem&lt; SingleAgent</text>
<text text-anchor="middle" x="881.5" y="-360.5" font-family="Helvetica,sans-Serif" font-size="10.00">State &gt;</text>
<polyline fill="none" stroke="black" points="805,-353.5 958,-353.5 "/>
<text text-anchor="middle" x="881.5" y="-341.5" font-family="Helvetica,sans-Serif" font-size="10.00"> </text>
<polyline fill="none" stroke="black" points="805,-334.5 958,-334.5 "/>
<text text-anchor="start" x="813" y="-322.5" font-family="Helvetica,sans-Serif" font-size="10.00">+ AStarProblem()</text>
<text text-anchor="start" x="813" y="-311.5" font-family="Helvetica,sans-Serif" font-size="10.00">+ ~AStarProblem()</text>
<text text-anchor="start" x="813" y="-300.5" font-family="Helvetica,sans-Serif" font-size="10.00">+ getStartState()</text>
<text text-anchor="start" x="813" y="-289.5" font-family="Helvetica,sans-Serif" font-size="10.00">+ isGoalState()</text>
<text text-anchor="start" x="813" y="-278.5" font-family="Helvetica,sans-Serif" font-size="10.00">+ getSuccessors()</text>
<text text-anchor="start" x="813" y="-267.5" font-family="Helvetica,sans-Serif" font-size="10.00">+ getPositions()</text>
<text text-anchor="start" x="813" y="-256.5" font-family="Helvetica,sans-Serif" font-size="10.00">+ getMaxCost()</text>
<text text-anchor="start" x="813" y="-245.5" font-family="Helvetica,sans-Serif" font-size="10.00">+ getStartTime()</text>
</a>
</g>
</g>
<!-- Node1&#45;&gt;Node10 -->
<g id="edge9" class="edge">
<title>Node1&#45;&gt;Node10</title>
<path fill="none" stroke="orange" d="M671.73,-497.7C720.82,-486.65 786.57,-465.04 830.5,-424 842.44,-412.84 851.8,-398.35 859.06,-383.52"/>
<polygon fill="orange" stroke="orange" points="670.87,-494.31 661.83,-499.84 672.34,-501.15 670.87,-494.31"/>
<text text-anchor="middle" x="903.5" y="-410.5" font-family="Helvetica,sans-Serif" font-size="10.00"> &lt; SingleAgentState &gt;</text>
</g>
<!-- Node12 -->
<g id="node12" class="node">
<title>Node12</title>
<g id="a_node12"><a xlink:href="classAStarProblem.html" target="_top" xlink:title=" ">
<polygon fill="white" stroke="black" points="984,-238.5 984,-383.5 1147,-383.5 1147,-238.5 984,-238.5"/>
<text text-anchor="start" x="992" y="-371.5" font-family="Helvetica,sans-Serif" font-size="10.00">AStarProblem&lt; ODMultiAgent</text>
<text text-anchor="middle" x="1065.5" y="-360.5" font-family="Helvetica,sans-Serif" font-size="10.00">State &gt;</text>
<polyline fill="none" stroke="black" points="984,-353.5 1147,-353.5 "/>
<text text-anchor="middle" x="1065.5" y="-341.5" font-family="Helvetica,sans-Serif" font-size="10.00"> </text>
<polyline fill="none" stroke="black" points="984,-334.5 1147,-334.5 "/>
<text text-anchor="start" x="992" y="-322.5" font-family="Helvetica,sans-Serif" font-size="10.00">+ AStarProblem()</text>
<text text-anchor="start" x="992" y="-311.5" font-family="Helvetica,sans-Serif" font-size="10.00">+ ~AStarProblem()</text>
<text text-anchor="start" x="992" y="-300.5" font-family="Helvetica,sans-Serif" font-size="10.00">+ getStartState()</text>
<text text-anchor="start" x="992" y="-289.5" font-family="Helvetica,sans-Serif" font-size="10.00">+ isGoalState()</text>
<text text-anchor="start" x="992" y="-278.5" font-family="Helvetica,sans-Serif" font-size="10.00">+ getSuccessors()</text>
<text text-anchor="start" x="992" y="-267.5" font-family="Helvetica,sans-Serif" font-size="10.00">+ getPositions()</text>
<text text-anchor="start" x="992" y="-256.5" font-family="Helvetica,sans-Serif" font-size="10.00">+ getMaxCost()</text>
<text text-anchor="start" x="992" y="-245.5" font-family="Helvetica,sans-Serif" font-size="10.00">+ getStartTime()</text>
</a>
</g>
</g>
<!-- Node1&#45;&gt;Node12 -->
<g id="edge11" class="edge">
<title>Node1&#45;&gt;Node12</title>
<path fill="none" stroke="orange" d="M671.8,-504.44C746.91,-497.31 870.77,-477.72 962.5,-424 980.39,-413.52 997,-398.94 1011.42,-383.75"/>
<polygon fill="orange" stroke="orange" points="671.18,-500.98 661.53,-505.37 671.81,-507.95 671.18,-500.98"/>
<text text-anchor="middle" x="1052.5" y="-410.5" font-family="Helvetica,sans-Serif" font-size="10.00"> &lt; ODMultiAgentState &gt;</text>
</g>
<!-- Node3 -->
<g id="node3" class="node">
<title>Node3</title>
<g id="a_node3"><a xlink:href="classStandardMultiAgentAStarProblemWithConstraints.html" target="_top" xlink:title="MAPF problem with space&#45;time search but no OD.">
<polygon fill="white" stroke="black" points="0,-0.5 0,-200.5 191,-200.5 191,-0.5 0,-0.5"/>
<text text-anchor="start" x="8" y="-188.5" font-family="Helvetica,sans-Serif" font-size="10.00">StandardMultiAgentAStarProblem</text>
<text text-anchor="middle" x="95.5" y="-177.5" font-family="Helvetica,sans-Serif" font-size="10.00">WithConstraints</text>
<polyline fill="none" stroke="black" points="0,-170.5 191,-170.5 "/>
<text text-anchor="start" x="8" y="-158.5" font-family="Helvetica,sans-Serif" font-size="10.00">&#45; problem</text>
<polyline fill="none" stroke="black" points="0,-151.5 191,-151.5 "/>
<text text-anchor="start" x="8" y="-139.5" font-family="Helvetica,sans-Serif" font-size="10.00">+ StandardMultiAgentAStarProblem</text>
<text text-anchor="start" x="8" y="-128.5" font-family="Helvetica,sans-Serif" font-size="10.00">WithConstraints()</text>
<text text-anchor="start" x="8" y="-117.5" font-family="Helvetica,sans-Serif" font-size="10.00">+ getStartState()</text>
<text text-anchor="start" x="8" y="-106.5" font-family="Helvetica,sans-Serif" font-size="10.00">+ isGoalState()</text>
<text text-anchor="start" x="8" y="-95.5" font-family="Helvetica,sans-Serif" font-size="10.00">+ getSuccessors()</text>
<text text-anchor="start" x="8" y="-84.5" font-family="Helvetica,sans-Serif" font-size="10.00">+ getPositions()</text>
<text text-anchor="start" x="8" y="-73.5" font-family="Helvetica,sans-Serif" font-size="10.00">+ getMaxCost()</text>
<text text-anchor="start" x="8" y="-62.5" font-family="Helvetica,sans-Serif" font-size="10.00">+ getStartTime()</text>
<text text-anchor="start" x="8" y="-51.5" font-family="Helvetica,sans-Serif" font-size="10.00">+ getProblem()</text>
<text text-anchor="start" x="8" y="-40.5" font-family="Helvetica,sans-Serif" font-size="10.00">&#45; notAlreadyOccupiedPosition()</text>
<text text-anchor="start" x="8" y="-29.5" font-family="Helvetica,sans-Serif" font-size="10.00">&#45; notAlreadyOccupiedEdge()</text>
<text text-anchor="start" x="8" y="-18.5" font-family="Helvetica,sans-Serif" font-size="10.00">&#45; recursiveAssignAMoveToAn</text>
<text text-anchor="start" x="8" y="-7.5" font-family="Helvetica,sans-Serif" font-size="10.00">Agent()</text>
</a>
</g>
</g>
<!-- Node2&#45;&gt;Node3 -->
<g id="edge2" class="edge">
<title>Node2&#45;&gt;Node3</title>
<path fill="none" stroke="#8b1a1a" d="M103.4,-228.16C102.83,-219.13 102.26,-209.86 101.68,-200.64"/>
<polygon fill="none" stroke="#8b1a1a" points="99.91,-228.48 104.03,-238.25 106.9,-228.05 99.91,-228.48"/>
</g>
<!-- Node5 -->
<g id="node5" class="node">
<title>Node5</title>
<g id="a_node5"><a xlink:href="classODMultiAgentAStarProblemWithConstraints.html" target="_top" xlink:title="MAPF problem with space&#45;time search and OD.">
<polygon fill="white" stroke="black" points="209.5,-11.5 209.5,-189.5 377.5,-189.5 377.5,-11.5 209.5,-11.5"/>
<text text-anchor="start" x="217.5" y="-177.5" font-family="Helvetica,sans-Serif" font-size="10.00">ODMultiAgentAStarProblem</text>
<text text-anchor="middle" x="293.5" y="-166.5" font-family="Helvetica,sans-Serif" font-size="10.00">WithConstraints</text>
<polyline fill="none" stroke="black" points="209.5,-159.5 377.5,-159.5 "/>
<text text-anchor="start" x="217.5" y="-147.5" font-family="Helvetica,sans-Serif" font-size="10.00">&#45; problem</text>
<polyline fill="none" stroke="black" points="209.5,-140.5 377.5,-140.5 "/>
<text text-anchor="start" x="217.5" y="-128.5" font-family="Helvetica,sans-Serif" font-size="10.00">+ ODMultiAgentAStarProblem</text>
<text text-anchor="start" x="217.5" y="-117.5" font-family="Helvetica,sans-Serif" font-size="10.00">WithConstraints()</text>
<text text-anchor="start" x="217.5" y="-106.5" font-family="Helvetica,sans-Serif" font-size="10.00">+ getStartState()</text>
<text text-anchor="start" x="217.5" y="-95.5" font-family="Helvetica,sans-Serif" font-size="10.00">+ isGoalState()</text>
<text text-anchor="start" x="217.5" y="-84.5" font-family="Helvetica,sans-Serif" font-size="10.00">+ getSuccessors()</text>
<text text-anchor="start" x="217.5" y="-73.5" font-family="Helvetica,sans-Serif" font-size="10.00">+ getPositions()</text>
<text text-anchor="start" x="217.5" y="-62.5" font-family="Helvetica,sans-Serif" font-size="10.00">+ getMaxCost()</text>
<text text-anchor="start" x="217.5" y="-51.5" font-family="Helvetica,sans-Serif" font-size="10.00">+ getStartTime()</text>
<text text-anchor="start" x="217.5" y="-40.5" font-family="Helvetica,sans-Serif" font-size="10.00">+ getProblem()</text>
<text text-anchor="start" x="217.5" y="-29.5" font-family="Helvetica,sans-Serif" font-size="10.00">&#45; notAlreadyOccupiedPosition()</text>
<text text-anchor="start" x="217.5" y="-18.5" font-family="Helvetica,sans-Serif" font-size="10.00">&#45; notAlreadyOccupiedEdge()</text>
</a>
</g>
</g>
<!-- Node4&#45;&gt;Node5 -->
<g id="edge4" class="edge">
<title>Node4&#45;&gt;Node5</title>
<path fill="none" stroke="#8b1a1a" d="M297.15,-228.2C296.78,-215.53 296.4,-202.4 296.04,-189.6"/>
<polygon fill="none" stroke="#8b1a1a" points="293.65,-228.35 297.44,-238.25 300.65,-228.15 293.65,-228.35"/>
</g>
<!-- Node7 -->
<g id="node7" class="node">
<title>Node7</title>
<g id="a_node7"><a xlink:href="classStandardMultiAgentAStarProblem.html" target="_top" xlink:title="MAPF problem with space search only (no OD)">
<polygon fill="white" stroke="black" points="396,-11.5 396,-189.5 595,-189.5 595,-11.5 396,-11.5"/>
<text text-anchor="middle" x="495.5" y="-177.5" font-family="Helvetica,sans-Serif" font-size="10.00">StandardMultiAgentAStarProblem</text>
<polyline fill="none" stroke="black" points="396,-170.5 595,-170.5 "/>
<text text-anchor="start" x="404" y="-158.5" font-family="Helvetica,sans-Serif" font-size="10.00">&#45; problem</text>
<polyline fill="none" stroke="black" points="396,-151.5 595,-151.5 "/>
<text text-anchor="start" x="404" y="-139.5" font-family="Helvetica,sans-Serif" font-size="10.00">+ StandardMultiAgentAStarProblem()</text>
<text text-anchor="start" x="404" y="-128.5" font-family="Helvetica,sans-Serif" font-size="10.00">+ getStartState()</text>
<text text-anchor="start" x="404" y="-117.5" font-family="Helvetica,sans-Serif" font-size="10.00">+ isGoalState()</text>
<text text-anchor="start" x="404" y="-106.5" font-family="Helvetica,sans-Serif" font-size="10.00">+ getSuccessors()</text>
<text text-anchor="start" x="404" y="-95.5" font-family="Helvetica,sans-Serif" font-size="10.00">+ getPositions()</text>
<text text-anchor="start" x="404" y="-84.5" font-family="Helvetica,sans-Serif" font-size="10.00">+ getMaxCost()</text>
<text text-anchor="start" x="404" y="-73.5" font-family="Helvetica,sans-Serif" font-size="10.00">+ getStartTime()</text>
<text text-anchor="start" x="404" y="-62.5" font-family="Helvetica,sans-Serif" font-size="10.00">+ getProblem()</text>
<text text-anchor="start" x="404" y="-51.5" font-family="Helvetica,sans-Serif" font-size="10.00">&#45; notAlreadyOccupiedPosition()</text>
<text text-anchor="start" x="404" y="-40.5" font-family="Helvetica,sans-Serif" font-size="10.00">&#45; notAlreadyOccupiedEdge()</text>
<text text-anchor="start" x="404" y="-29.5" font-family="Helvetica,sans-Serif" font-size="10.00">&#45; recursiveAssignAMoveToAn</text>
<text text-anchor="start" x="404" y="-18.5" font-family="Helvetica,sans-Serif" font-size="10.00">Agent()</text>
</a>
</g>
</g>
<!-- Node6&#45;&gt;Node7 -->
<g id="edge6" class="edge">
<title>Node6&#45;&gt;Node7</title>
<path fill="none" stroke="#8b1a1a" d="M498.54,-228.2C498.23,-215.53 497.92,-202.4 497.61,-189.6"/>
<polygon fill="none" stroke="#8b1a1a" points="495.04,-228.33 498.78,-238.25 502.04,-228.17 495.04,-228.33"/>
</g>
<!-- Node9 -->
<g id="node9" class="node">
<title>Node9</title>
<g id="a_node9"><a xlink:href="classSingleAgentAStarProblemWithConstraints.html" target="_top" xlink:title="SAPF problem with space&#45;time search.">
<polygon fill="white" stroke="black" points="613.5,-22.5 613.5,-178.5 789.5,-178.5 789.5,-22.5 613.5,-22.5"/>
<text text-anchor="start" x="621.5" y="-166.5" font-family="Helvetica,sans-Serif" font-size="10.00">SingleAgentAStarProblemWith</text>
<text text-anchor="middle" x="701.5" y="-155.5" font-family="Helvetica,sans-Serif" font-size="10.00">Constraints</text>
<polyline fill="none" stroke="black" points="613.5,-148.5 789.5,-148.5 "/>
<text text-anchor="start" x="621.5" y="-136.5" font-family="Helvetica,sans-Serif" font-size="10.00">&#45; problem</text>
<polyline fill="none" stroke="black" points="613.5,-129.5 789.5,-129.5 "/>
<text text-anchor="start" x="621.5" y="-117.5" font-family="Helvetica,sans-Serif" font-size="10.00">+ SingleAgentAStarProblemWith</text>
<text text-anchor="start" x="621.5" y="-106.5" font-family="Helvetica,sans-Serif" font-size="10.00">Constraints()</text>
<text text-anchor="start" x="621.5" y="-95.5" font-family="Helvetica,sans-Serif" font-size="10.00">+ getStartState()</text>
<text text-anchor="start" x="621.5" y="-84.5" font-family="Helvetica,sans-Serif" font-size="10.00">+ isGoalState()</text>
<text text-anchor="start" x="621.5" y="-73.5" font-family="Helvetica,sans-Serif" font-size="10.00">+ getSuccessors()</text>
<text text-anchor="start" x="621.5" y="-62.5" font-family="Helvetica,sans-Serif" font-size="10.00">+ getPositions()</text>
<text text-anchor="start" x="621.5" y="-51.5" font-family="Helvetica,sans-Serif" font-size="10.00">+ getMaxCost()</text>
<text text-anchor="start" x="621.5" y="-40.5" font-family="Helvetica,sans-Serif" font-size="10.00">+ getStartTime()</text>
<text text-anchor="start" x="621.5" y="-29.5" font-family="Helvetica,sans-Serif" font-size="10.00">+ getProblem()</text>
</a>
</g>
</g>
<!-- Node8&#45;&gt;Node9 -->
<g id="edge8" class="edge">
<title>Node8&#45;&gt;Node9</title>
<path fill="none" stroke="midnightblue" d="M692.38,-228.22C693.56,-211.92 694.78,-194.86 695.94,-178.73"/>
<polygon fill="none" stroke="midnightblue" points="688.89,-228.02 691.66,-238.25 695.87,-228.52 688.89,-228.02"/>
</g>
<!-- Node11 -->
<g id="node11" class="node">
<title>Node11</title>
<g id="a_node11"><a xlink:href="classSingleAgentAStarProblem.html" target="_top" xlink:title="SAPF problem with space search only.">
<polygon fill="white" stroke="black" points="808,-28 808,-173 969,-173 969,-28 808,-28"/>
<text text-anchor="middle" x="888.5" y="-161" font-family="Helvetica,sans-Serif" font-size="10.00">SingleAgentAStarProblem</text>
<polyline fill="none" stroke="black" points="808,-154 969,-154 "/>
<text text-anchor="start" x="816" y="-142" font-family="Helvetica,sans-Serif" font-size="10.00">&#45; problem</text>
<polyline fill="none" stroke="black" points="808,-135 969,-135 "/>
<text text-anchor="start" x="816" y="-123" font-family="Helvetica,sans-Serif" font-size="10.00">+ SingleAgentAStarProblem()</text>
<text text-anchor="start" x="816" y="-112" font-family="Helvetica,sans-Serif" font-size="10.00">+ getStartState()</text>
<text text-anchor="start" x="816" y="-101" font-family="Helvetica,sans-Serif" font-size="10.00">+ getGoalState()</text>
<text text-anchor="start" x="816" y="-90" font-family="Helvetica,sans-Serif" font-size="10.00">+ isGoalState()</text>
<text text-anchor="start" x="816" y="-79" font-family="Helvetica,sans-Serif" font-size="10.00">+ getSuccessors()</text>
<text text-anchor="start" x="816" y="-68" font-family="Helvetica,sans-Serif" font-size="10.00">+ getPositions()</text>
<text text-anchor="start" x="816" y="-57" font-family="Helvetica,sans-Serif" font-size="10.00">+ getMaxCost()</text>
<text text-anchor="start" x="816" y="-46" font-family="Helvetica,sans-Serif" font-size="10.00">+ getStartTime()</text>
<text text-anchor="start" x="816" y="-35" font-family="Helvetica,sans-Serif" font-size="10.00">+ getProblem()</text>
</a>
</g>
</g>
<!-- Node10&#45;&gt;Node11 -->
<g id="edge10" class="edge">
<title>Node10&#45;&gt;Node11</title>
<path fill="none" stroke="midnightblue" d="M884.25,-228.23C884.86,-210 885.5,-190.81 886.1,-173.03"/>
<polygon fill="none" stroke="midnightblue" points="880.75,-228.13 883.91,-238.25 887.74,-228.37 880.75,-228.13"/>
</g>
<!-- Node13 -->
<g id="node13" class="node">
<title>Node13</title>
<g id="a_node13"><a xlink:href="classODMultiAgentAStarProblem.html" target="_top" xlink:title="MAPF problem with space search only and OD.">
<polygon fill="white" stroke="black" points="987.5,-22.5 987.5,-178.5 1157.5,-178.5 1157.5,-22.5 987.5,-22.5"/>
<text text-anchor="middle" x="1072.5" y="-166.5" font-family="Helvetica,sans-Serif" font-size="10.00">ODMultiAgentAStarProblem</text>
<polyline fill="none" stroke="black" points="987.5,-159.5 1157.5,-159.5 "/>
<text text-anchor="start" x="995.5" y="-147.5" font-family="Helvetica,sans-Serif" font-size="10.00">&#45; problem</text>
<polyline fill="none" stroke="black" points="987.5,-140.5 1157.5,-140.5 "/>
<text text-anchor="start" x="995.5" y="-128.5" font-family="Helvetica,sans-Serif" font-size="10.00">+ ODMultiAgentAStarProblem()</text>
<text text-anchor="start" x="995.5" y="-117.5" font-family="Helvetica,sans-Serif" font-size="10.00">+ getStartState()</text>
<text text-anchor="start" x="995.5" y="-106.5" font-family="Helvetica,sans-Serif" font-size="10.00">+ isGoalState()</text>
<text text-anchor="start" x="995.5" y="-95.5" font-family="Helvetica,sans-Serif" font-size="10.00">+ getSuccessors()</text>
<text text-anchor="start" x="995.5" y="-84.5" font-family="Helvetica,sans-Serif" font-size="10.00">+ getPositions()</text>
<text text-anchor="start" x="995.5" y="-73.5" font-family="Helvetica,sans-Serif" font-size="10.00">+ getMaxCost()</text>
<text text-anchor="start" x="995.5" y="-62.5" font-family="Helvetica,sans-Serif" font-size="10.00">+ getStartTime()</text>
<text text-anchor="start" x="995.5" y="-51.5" font-family="Helvetica,sans-Serif" font-size="10.00">+ getProblem()</text>
<text text-anchor="start" x="995.5" y="-40.5" font-family="Helvetica,sans-Serif" font-size="10.00">&#45; notAlreadyOccupiedPosition()</text>
<text text-anchor="start" x="995.5" y="-29.5" font-family="Helvetica,sans-Serif" font-size="10.00">&#45; notAlreadyOccupiedEdge()</text>
</a>
</g>
</g>
<!-- Node12&#45;&gt;Node13 -->
<g id="edge12" class="edge">
<title>Node12&#45;&gt;Node13</title>
<path fill="none" stroke="#8b1a1a" d="M1068.25,-228.22C1068.79,-211.92 1069.37,-194.86 1069.91,-178.73"/>
<polygon fill="none" stroke="#8b1a1a" points="1064.75,-228.13 1067.91,-238.25 1071.74,-228.37 1064.75,-228.13"/>
</g>
</g>
</svg>
