<?xml version="1.0" encoding="UTF-8" standalone="no"?>
<!DOCTYPE svg PUBLIC "-//W3C//DTD SVG 1.1//EN"
 "http://www.w3.org/Graphics/SVG/1.1/DTD/svg11.dtd">
<!-- Generated by graphviz version 2.43.0 (0)
 -->
<!-- Title: ConflictBasedSearch::solve Pages: 1 -->
<svg width="633pt" height="267pt"
 viewBox="0.00 0.00 633.00 266.50" xmlns="http://www.w3.org/2000/svg" xmlns:xlink="http://www.w3.org/1999/xlink">
<g id="graph0" class="graph" transform="scale(1 1) rotate(0) translate(4 262.5)">
<title>ConflictBasedSearch::solve</title>
<polygon fill="white" stroke="transparent" points="-4,4 -4,-262.5 629,-262.5 629,4 -4,4"/>
<!-- Node1 -->
<g id="node1" class="node">
<title>Node1</title>
<g id="a_node1"><a xlink:title=" ">
<polygon fill="#bfbfbf" stroke="black" points="0,-128 0,-158 116,-158 116,-128 0,-128"/>
<text text-anchor="start" x="8" y="-146" font-family="Helvetica,sans-Serif" font-size="10.00">ConflictBasedSearch</text>
<text text-anchor="middle" x="58" y="-135" font-family="Helvetica,sans-Serif" font-size="10.00">::solve</text>
</a>
</g>
</g>
<!-- Node2 -->
<g id="node2" class="node">
<title>Node2</title>
<g id="a_node2"><a xlink:href="classConflictBasedSearch.html#a6aadc55f462faad9ce67903a59b96c62" target="_top" xlink:title=" ">
<polygon fill="white" stroke="black" points="152,-128 152,-158 268,-158 268,-128 152,-128"/>
<text text-anchor="start" x="160" y="-146" font-family="Helvetica,sans-Serif" font-size="10.00">ConflictBasedSearch</text>
<text text-anchor="middle" x="210" y="-135" font-family="Helvetica,sans-Serif" font-size="10.00">::solve</text>
</a>
</g>
</g>
<!-- Node1&#45;&gt;Node2 -->
<g id="edge1" class="edge">
<title>Node1&#45;&gt;Node2</title>
<path fill="none" stroke="midnightblue" d="M116.14,-143C124.38,-143 132.92,-143 141.34,-143"/>
<polygon fill="midnightblue" stroke="midnightblue" points="141.53,-146.5 151.53,-143 141.53,-139.5 141.53,-146.5"/>
</g>
<!-- Node3 -->
<g id="node3" class="node">
<title>Node3</title>
<g id="a_node3"><a xlink:href="classConflictBasedSearch.html#a6070f03e97d9e3ea822f5ed1a0bfe9a1" target="_top" xlink:title=" ">
<polygon fill="white" stroke="black" points="489,-228 489,-258 625,-258 625,-228 489,-228"/>
<text text-anchor="start" x="497" y="-246" font-family="Helvetica,sans-Serif" font-size="10.00">ConflictBasedSearch</text>
<text text-anchor="middle" x="557" y="-235" font-family="Helvetica,sans-Serif" font-size="10.00">::calculateSetOfConflicts</text>
</a>
</g>
</g>
<!-- Node2&#45;&gt;Node3 -->
<g id="edge2" class="edge">
<title>Node2&#45;&gt;Node3</title>
<path fill="none" stroke="midnightblue" d="M225.86,-158.24C243.01,-174.78 272.87,-200.5 304,-213 359.77,-235.4 427.65,-242.44 478.91,-244.14"/>
<polygon fill="midnightblue" stroke="midnightblue" points="478.84,-247.64 488.93,-244.41 479.03,-240.64 478.84,-247.64"/>
</g>
<!-- Node4 -->
<g id="node4" class="node">
<title>Node4</title>
<g id="a_node4"><a xlink:href="classConflictBasedSearch.html#a6d17a328ed4bd26bf58503a87761164c" target="_top" xlink:title=" ">
<polygon fill="white" stroke="red" points="499,-163 499,-193 615,-193 615,-163 499,-163"/>
<text text-anchor="start" x="507" y="-181" font-family="Helvetica,sans-Serif" font-size="10.00">ConflictBasedSearch</text>
<text text-anchor="middle" x="557" y="-170" font-family="Helvetica,sans-Serif" font-size="10.00">::combineSolutions</text>
</a>
</g>
</g>
<!-- Node2&#45;&gt;Node4 -->
<g id="edge3" class="edge">
<title>Node2&#45;&gt;Node4</title>
<path fill="none" stroke="midnightblue" d="M230.75,-158.01C248.74,-170.68 276.61,-187.86 304,-195 365.26,-210.96 437.57,-203.51 488.99,-193.98"/>
<polygon fill="midnightblue" stroke="midnightblue" points="489.83,-197.39 498.98,-192.06 488.5,-190.51 489.83,-197.39"/>
</g>
<!-- Node6 -->
<g id="node5" class="node">
<title>Node6</title>
<g id="a_node5"><a xlink:href="classConflictBasedSearch.html#a1e9a1fbd7e074039fee97bc5ad4c6b55" target="_top" xlink:title=" ">
<polygon fill="white" stroke="red" points="315.5,-155 315.5,-185 441.5,-185 441.5,-155 315.5,-155"/>
<text text-anchor="start" x="323.5" y="-173" font-family="Helvetica,sans-Serif" font-size="10.00">ConflictBasedSearch</text>
<text text-anchor="middle" x="378.5" y="-162" font-family="Helvetica,sans-Serif" font-size="10.00">::disjointSplittingSolve</text>
</a>
</g>
</g>
<!-- Node2&#45;&gt;Node6 -->
<g id="edge4" class="edge">
<title>Node2&#45;&gt;Node6</title>
<path fill="none" stroke="midnightblue" d="M268.3,-145.84C282.97,-147.87 298.84,-150.4 313.82,-153.09"/>
<polygon fill="midnightblue" stroke="midnightblue" points="313.55,-156.6 324.02,-154.98 314.82,-149.72 313.55,-156.6"/>
</g>
<!-- Node11 -->
<g id="node6" class="node">
<title>Node11</title>
<g id="a_node6"><a xlink:href="classConflictBasedSearch.html#a2d4ce8cb5d44727d73f4489b39ad1d54" target="_top" xlink:title=" ">
<polygon fill="white" stroke="black" points="498,-104 498,-134 616,-134 616,-104 498,-104"/>
<text text-anchor="start" x="506" y="-122" font-family="Helvetica,sans-Serif" font-size="10.00">ConflictBasedSearch</text>
<text text-anchor="middle" x="557" y="-111" font-family="Helvetica,sans-Serif" font-size="10.00">::planIndividualPaths</text>
</a>
</g>
</g>
<!-- Node2&#45;&gt;Node11 -->
<g id="edge11" class="edge">
<title>Node2&#45;&gt;Node11</title>
<path fill="none" stroke="midnightblue" d="M268.36,-133.83C328.74,-127.65 423.76,-120.93 487.91,-118.23"/>
<polygon fill="midnightblue" stroke="midnightblue" points="488.08,-121.73 497.93,-117.84 487.8,-114.74 488.08,-121.73"/>
</g>
<!-- Node13 -->
<g id="node7" class="node">
<title>Node13</title>
<g id="a_node7"><a xlink:href="classConflictBasedSearch.html#a727a9172ea3f3fbf4eca9f247d3f5356" target="_top" xlink:title=" ">
<polygon fill="white" stroke="black" points="494.5,-55 494.5,-85 619.5,-85 619.5,-55 494.5,-55"/>
<text text-anchor="start" x="502.5" y="-73" font-family="Helvetica,sans-Serif" font-size="10.00">ConflictBasedSearch</text>
<text text-anchor="middle" x="557" y="-62" font-family="Helvetica,sans-Serif" font-size="10.00">::updateSetOfConflicts</text>
</a>
</g>
</g>
<!-- Node2&#45;&gt;Node13 -->
<g id="edge13" class="edge">
<title>Node2&#45;&gt;Node13</title>
<path fill="none" stroke="midnightblue" d="M268.02,-129.95C279.9,-127.28 292.35,-124.52 304,-122 364.79,-108.87 433.99,-94.64 484.47,-84.39"/>
<polygon fill="midnightblue" stroke="midnightblue" points="485.21,-87.81 494.31,-82.4 483.82,-80.95 485.21,-87.81"/>
</g>
<!-- Node14 -->
<g id="node8" class="node">
<title>Node14</title>
<g id="a_node8"><a xlink:href="classConflictBasedSearch.html#adfcf0b5e67e17a8eada77fed4ed4ea20" target="_top" xlink:title=" ">
<polygon fill="white" stroke="black" points="304,-0.5 304,-41.5 453,-41.5 453,-0.5 304,-0.5"/>
<text text-anchor="start" x="312" y="-29.5" font-family="Helvetica,sans-Serif" font-size="10.00">ConflictBasedSearch</text>
<text text-anchor="start" x="312" y="-18.5" font-family="Helvetica,sans-Serif" font-size="10.00">::retrieveSetsOfConstraints</text>
<text text-anchor="middle" x="378.5" y="-7.5" font-family="Helvetica,sans-Serif" font-size="10.00">AndCostsAndSolutions</text>
</a>
</g>
</g>
<!-- Node2&#45;&gt;Node14 -->
<g id="edge12" class="edge">
<title>Node2&#45;&gt;Node14</title>
<path fill="none" stroke="midnightblue" d="M224.32,-127.96C241.4,-109.33 272.58,-77.42 304,-56 308.94,-52.63 314.25,-49.43 319.68,-46.41"/>
<polygon fill="midnightblue" stroke="midnightblue" points="321.68,-49.31 328.87,-41.54 318.4,-43.13 321.68,-49.31"/>
</g>
<!-- Node6&#45;&gt;Node2 -->
<g id="edge9" class="edge">
<title>Node6&#45;&gt;Node2</title>
<path fill="none" stroke="midnightblue" d="M315.31,-166.47C302.02,-164.57 287.97,-162.3 274.63,-159.9"/>
<polygon fill="midnightblue" stroke="midnightblue" points="275.07,-156.42 264.6,-158.05 273.8,-163.3 275.07,-156.42"/>
</g>
<!-- Node6&#45;&gt;Node3 -->
<g id="edge5" class="edge">
<title>Node6&#45;&gt;Node3</title>
<path fill="none" stroke="midnightblue" d="M416.07,-185.13C443.29,-196.38 480.63,-211.83 509.89,-223.93"/>
<polygon fill="midnightblue" stroke="midnightblue" points="508.9,-227.31 519.48,-227.89 511.57,-220.84 508.9,-227.31"/>
</g>
<!-- Node6&#45;&gt;Node4 -->
<g id="edge6" class="edge">
<title>Node6&#45;&gt;Node4</title>
<path fill="none" stroke="midnightblue" d="M441.73,-172.82C456.95,-173.51 473.31,-174.25 488.76,-174.95"/>
<polygon fill="midnightblue" stroke="midnightblue" points="488.61,-178.45 498.76,-175.41 488.93,-171.46 488.61,-178.45"/>
</g>
<!-- Node6&#45;&gt;Node11 -->
<g id="edge7" class="edge">
<title>Node6&#45;&gt;Node11</title>
<path fill="none" stroke="midnightblue" d="M431.5,-154.97C451.16,-149.29 473.73,-142.77 494.2,-136.86"/>
<polygon fill="midnightblue" stroke="midnightblue" points="495.43,-140.14 504.07,-134.01 493.49,-133.42 495.43,-140.14"/>
</g>
<!-- Node6&#45;&gt;Node13 -->
<g id="edge10" class="edge">
<title>Node6&#45;&gt;Node13</title>
<path fill="none" stroke="midnightblue" d="M397.92,-154.94C418.94,-138.32 454.85,-111.58 489,-94 492.33,-92.29 495.8,-90.64 499.35,-89.08"/>
<polygon fill="midnightblue" stroke="midnightblue" points="500.96,-92.2 508.84,-85.12 498.26,-85.74 500.96,-92.2"/>
</g>
<!-- Node11&#45;&gt;Node2 -->
<g id="edge8" class="edge">
<title>Node11&#45;&gt;Node2</title>
<path fill="none" stroke="midnightblue" d="M497.93,-128.24C437.4,-134.41 342.63,-141.1 278.73,-143.78"/>
<polygon fill="midnightblue" stroke="midnightblue" points="278.21,-140.3 268.36,-144.19 278.49,-147.29 278.21,-140.3"/>
</g>
</g>
</svg>
