<?xml version="1.0" encoding="UTF-8" standalone="no"?>
<!DOCTYPE svg PUBLIC "-//W3C//DTD SVG 1.1//EN"
 "http://www.w3.org/Graphics/SVG/1.1/DTD/svg11.dtd">
<!-- Generated by graphviz version 2.43.0 (0)
 -->
<!-- Title: EdgeConstraint::getTime Pages: 1 -->
<svg width="322pt" height="186pt"
 viewBox="0.00 0.00 322.00 186.00" xmlns="http://www.w3.org/2000/svg" xmlns:xlink="http://www.w3.org/1999/xlink">
<g id="graph0" class="graph" transform="scale(1 1) rotate(0) translate(4 182)">
<title>EdgeConstraint::getTime</title>
<polygon fill="white" stroke="transparent" points="-4,4 -4,-182 318,-182 318,4 -4,4"/>
<!-- Node1 -->
<g id="node1" class="node">
<title>Node1</title>
<g id="a_node1"><a xlink:title=" ">
<polygon fill="#bfbfbf" stroke="black" points="177,-79 177,-98 314,-98 314,-79 177,-79"/>
<text text-anchor="middle" x="245.5" y="-86" font-family="Helvetica,sans-Serif" font-size="10.00">EdgeConstraint::getTime</text>
</a>
</g>
</g>
<!-- Node2 -->
<g id="node2" class="node">
<title>Node2</title>
<g id="a_node2"><a xlink:href="structSoftEdgeConstraintHash.html#a291c5f174c730e4691ba53fea16b350f" target="_top" xlink:title=" ">
<polygon fill="white" stroke="black" points="3.5,-147.5 3.5,-177.5 137.5,-177.5 137.5,-147.5 3.5,-147.5"/>
<text text-anchor="start" x="11.5" y="-165.5" font-family="Helvetica,sans-Serif" font-size="10.00">SoftEdgeConstraintHash</text>
<text text-anchor="middle" x="70.5" y="-154.5" font-family="Helvetica,sans-Serif" font-size="10.00">::operator()</text>
</a>
</g>
</g>
<!-- Node1&#45;&gt;Node2 -->
<g id="edge1" class="edge">
<title>Node1&#45;&gt;Node2</title>
<path fill="none" stroke="midnightblue" d="M217.36,-102.7C196.71,-113.23 167.44,-127.59 141,-138.5 133.57,-141.57 125.58,-144.58 117.77,-147.37"/>
<polygon fill="midnightblue" stroke="midnightblue" points="219.18,-105.7 226.47,-98.01 215.98,-99.47 219.18,-105.7"/>
</g>
<!-- Node3 -->
<g id="node3" class="node">
<title>Node3</title>
<g id="a_node3"><a xlink:href="structHardEdgeConstraintHash.html#adb69e40ffe269128d15111d65f882e51" target="_top" xlink:title=" ">
<polygon fill="white" stroke="black" points="1,-98.5 1,-128.5 140,-128.5 140,-98.5 1,-98.5"/>
<text text-anchor="start" x="9" y="-116.5" font-family="Helvetica,sans-Serif" font-size="10.00">HardEdgeConstraintHash</text>
<text text-anchor="middle" x="70.5" y="-105.5" font-family="Helvetica,sans-Serif" font-size="10.00">::operator()</text>
</a>
</g>
</g>
<!-- Node1&#45;&gt;Node3 -->
<g id="edge2" class="edge">
<title>Node1&#45;&gt;Node3</title>
<path fill="none" stroke="midnightblue" d="M168.45,-99.49C159.01,-100.85 149.4,-102.24 140.09,-103.59"/>
<polygon fill="midnightblue" stroke="midnightblue" points="169.21,-102.92 178.6,-98.02 168.2,-95.99 169.21,-102.92"/>
</g>
<!-- Node4 -->
<g id="node4" class="node">
<title>Node4</title>
<g id="a_node4"><a xlink:href="structSoftEdgeConstraintEqual.html#aeea861971adf29b17db59f090463e680" target="_top" xlink:title=" ">
<polygon fill="white" stroke="black" points="2,-49.5 2,-79.5 139,-79.5 139,-49.5 2,-49.5"/>
<text text-anchor="start" x="10" y="-67.5" font-family="Helvetica,sans-Serif" font-size="10.00">SoftEdgeConstraintEqual</text>
<text text-anchor="middle" x="70.5" y="-56.5" font-family="Helvetica,sans-Serif" font-size="10.00">::operator()</text>
</a>
</g>
</g>
<!-- Node1&#45;&gt;Node4 -->
<g id="edge3" class="edge">
<title>Node1&#45;&gt;Node4</title>
<path fill="none" stroke="midnightblue" d="M166.43,-77.67C157.34,-76.41 148.12,-75.13 139.18,-73.89"/>
<polygon fill="midnightblue" stroke="midnightblue" points="166.24,-81.18 176.62,-79.08 167.2,-74.24 166.24,-81.18"/>
</g>
<!-- Node5 -->
<g id="node5" class="node">
<title>Node5</title>
<g id="a_node5"><a xlink:href="structHardEdgeConstraintEqual.html#a4c93a140a6c125eed5912fa048f2af77" target="_top" xlink:title=" ">
<polygon fill="white" stroke="black" points="0,-0.5 0,-30.5 141,-30.5 141,-0.5 0,-0.5"/>
<text text-anchor="start" x="8" y="-18.5" font-family="Helvetica,sans-Serif" font-size="10.00">HardEdgeConstraintEqual</text>
<text text-anchor="middle" x="70.5" y="-7.5" font-family="Helvetica,sans-Serif" font-size="10.00">::operator()</text>
</a>
</g>
</g>
<!-- Node1&#45;&gt;Node5 -->
<g id="edge4" class="edge">
<title>Node1&#45;&gt;Node5</title>
<path fill="none" stroke="midnightblue" d="M216.12,-74.51C195.49,-64.54 166.78,-51.09 141,-40.5 132.7,-37.09 123.74,-33.67 115.1,-30.51"/>
<polygon fill="midnightblue" stroke="midnightblue" points="214.75,-77.73 225.27,-78.96 217.81,-71.44 214.75,-77.73"/>
</g>
</g>
</svg>
