<?xml version="1.0" encoding="UTF-8" standalone="no"?>
<!DOCTYPE svg PUBLIC "-//W3C//DTD SVG 1.1//EN"
 "http://www.w3.org/Graphics/SVG/1.1/DTD/svg11.dtd">
<!-- Generated by graphviz version 2.43.0 (0)
 -->
<!-- Title: VertexConstraint::getTime Pages: 1 -->
<svg width="490pt" height="235pt"
 viewBox="0.00 0.00 490.00 235.00" xmlns="http://www.w3.org/2000/svg" xmlns:xlink="http://www.w3.org/1999/xlink">
<g id="graph0" class="graph" transform="scale(1 1) rotate(0) translate(4 231)">
<title>VertexConstraint::getTime</title>
<polygon fill="white" stroke="transparent" points="-4,4 -4,-231 486,-231 486,4 -4,4"/>
<!-- Node1 -->
<g id="node1" class="node">
<title>Node1</title>
<g id="a_node1"><a xlink:title=" ">
<polygon fill="#bfbfbf" stroke="black" points="337,-104 337,-123 482,-123 482,-104 337,-104"/>
<text text-anchor="middle" x="409.5" y="-111" font-family="Helvetica,sans-Serif" font-size="10.00">VertexConstraint::getTime</text>
</a>
</g>
</g>
<!-- Node2 -->
<g id="node2" class="node">
<title>Node2</title>
<g id="a_node2"><a xlink:href="classConflictBasedSearch.html#a1e9a1fbd7e074039fee97bc5ad4c6b55" target="_top" xlink:title=" ">
<polygon fill="white" stroke="black" points="163.5,-196.5 163.5,-226.5 289.5,-226.5 289.5,-196.5 163.5,-196.5"/>
<text text-anchor="start" x="171.5" y="-214.5" font-family="Helvetica,sans-Serif" font-size="10.00">ConflictBasedSearch</text>
<text text-anchor="middle" x="226.5" y="-203.5" font-family="Helvetica,sans-Serif" font-size="10.00">::disjointSplittingSolve</text>
</a>
</g>
</g>
<!-- Node1&#45;&gt;Node2 -->
<g id="edge1" class="edge">
<title>Node1&#45;&gt;Node2</title>
<path fill="none" stroke="midnightblue" d="M388.92,-129.56C368.16,-145.96 333.88,-171.24 301,-187.5 294.38,-190.77 287.22,-193.75 280.04,-196.4"/>
<polygon fill="midnightblue" stroke="midnightblue" points="391.33,-132.11 396.95,-123.13 386.96,-126.65 391.33,-132.11"/>
</g>
<!-- Node6 -->
<g id="node4" class="node">
<title>Node6</title>
<g id="a_node4"><a xlink:href="structSoftVertexConstraintHash.html#a442294c654fbec6f15ead5eaf57a4567" target="_top" xlink:title=" ">
<polygon fill="white" stroke="black" points="155.5,-147.5 155.5,-177.5 297.5,-177.5 297.5,-147.5 155.5,-147.5"/>
<text text-anchor="start" x="163.5" y="-165.5" font-family="Helvetica,sans-Serif" font-size="10.00">SoftVertexConstraintHash</text>
<text text-anchor="middle" x="226.5" y="-154.5" font-family="Helvetica,sans-Serif" font-size="10.00">::operator()</text>
</a>
</g>
</g>
<!-- Node1&#45;&gt;Node6 -->
<g id="edge4" class="edge">
<title>Node1&#45;&gt;Node6</title>
<path fill="none" stroke="midnightblue" d="M363.47,-125.69C339.13,-132.28 308.85,-140.48 283.04,-147.46"/>
<polygon fill="midnightblue" stroke="midnightblue" points="364.43,-129.06 373.17,-123.06 362.6,-122.3 364.43,-129.06"/>
</g>
<!-- Node7 -->
<g id="node5" class="node">
<title>Node7</title>
<g id="a_node5"><a xlink:href="structHardVertexConstraintHash.html#a27aa2fed1a7d82ab0d3248f3c628f60f" target="_top" xlink:title=" ">
<polygon fill="white" stroke="black" points="153.5,-98.5 153.5,-128.5 299.5,-128.5 299.5,-98.5 153.5,-98.5"/>
<text text-anchor="start" x="161.5" y="-116.5" font-family="Helvetica,sans-Serif" font-size="10.00">HardVertexConstraintHash</text>
<text text-anchor="middle" x="226.5" y="-105.5" font-family="Helvetica,sans-Serif" font-size="10.00">::operator()</text>
</a>
</g>
</g>
<!-- Node1&#45;&gt;Node7 -->
<g id="edge5" class="edge">
<title>Node1&#45;&gt;Node7</title>
<path fill="none" stroke="midnightblue" d="M326.82,-113.5C317.78,-113.5 308.62,-113.5 299.7,-113.5"/>
<polygon fill="midnightblue" stroke="midnightblue" points="326.96,-117 336.96,-113.5 326.96,-110 326.96,-117"/>
</g>
<!-- Node8 -->
<g id="node6" class="node">
<title>Node8</title>
<g id="a_node6"><a xlink:href="structSoftVertexConstraintEqual.html#a0f6a58955643e80f129f89d79be3851f" target="_top" xlink:title=" ">
<polygon fill="white" stroke="black" points="154.5,-49.5 154.5,-79.5 298.5,-79.5 298.5,-49.5 154.5,-49.5"/>
<text text-anchor="start" x="162.5" y="-67.5" font-family="Helvetica,sans-Serif" font-size="10.00">SoftVertexConstraintEqual</text>
<text text-anchor="middle" x="226.5" y="-56.5" font-family="Helvetica,sans-Serif" font-size="10.00">::operator()</text>
</a>
</g>
</g>
<!-- Node1&#45;&gt;Node8 -->
<g id="edge6" class="edge">
<title>Node1&#45;&gt;Node8</title>
<path fill="none" stroke="midnightblue" d="M363.47,-101.31C339.13,-94.72 308.85,-86.52 283.04,-79.54"/>
<polygon fill="midnightblue" stroke="midnightblue" points="362.6,-104.7 373.17,-103.94 364.43,-97.94 362.6,-104.7"/>
</g>
<!-- Node9 -->
<g id="node7" class="node">
<title>Node9</title>
<g id="a_node7"><a xlink:href="structHardVertexConstraintEqual.html#a220f722a1d132b4d05805a45442713f8" target="_top" xlink:title=" ">
<polygon fill="white" stroke="black" points="152,-0.5 152,-30.5 301,-30.5 301,-0.5 152,-0.5"/>
<text text-anchor="start" x="160" y="-18.5" font-family="Helvetica,sans-Serif" font-size="10.00">HardVertexConstraintEqual</text>
<text text-anchor="middle" x="226.5" y="-7.5" font-family="Helvetica,sans-Serif" font-size="10.00">::operator()</text>
</a>
</g>
</g>
<!-- Node1&#45;&gt;Node9 -->
<g id="edge7" class="edge">
<title>Node1&#45;&gt;Node9</title>
<path fill="none" stroke="midnightblue" d="M388.51,-97.49C367.65,-81.39 333.51,-56.7 301,-40.5 293.64,-36.83 285.62,-33.5 277.66,-30.54"/>
<polygon fill="midnightblue" stroke="midnightblue" points="386.56,-100.41 396.59,-103.82 390.87,-94.9 386.56,-100.41"/>
</g>
<!-- Node3 -->
<g id="node3" class="node">
<title>Node3</title>
<g id="a_node3"><a xlink:href="classConflictBasedSearch.html#a6aadc55f462faad9ce67903a59b96c62" target="_top" xlink:title=" ">
<polygon fill="white" stroke="red" points="0,-196.5 0,-226.5 116,-226.5 116,-196.5 0,-196.5"/>
<text text-anchor="start" x="8" y="-214.5" font-family="Helvetica,sans-Serif" font-size="10.00">ConflictBasedSearch</text>
<text text-anchor="middle" x="58" y="-203.5" font-family="Helvetica,sans-Serif" font-size="10.00">::solve</text>
</a>
</g>
</g>
<!-- Node2&#45;&gt;Node3 -->
<g id="edge2" class="edge">
<title>Node2&#45;&gt;Node3</title>
<path fill="none" stroke="midnightblue" d="M152.79,-204.8C140.49,-204.68 127.88,-204.77 116.06,-205.06"/>
<polygon fill="midnightblue" stroke="midnightblue" points="152.98,-208.3 163.03,-204.94 153.08,-201.3 152.98,-208.3"/>
</g>
<!-- Node3&#45;&gt;Node2 -->
<g id="edge3" class="edge">
<title>Node3&#45;&gt;Node2</title>
<path fill="none" stroke="midnightblue" d="M126.15,-218.14C138.33,-218.31 150.99,-218.28 163.03,-218.06"/>
<polygon fill="midnightblue" stroke="midnightblue" points="126.12,-214.64 116.06,-217.94 125.99,-221.63 126.12,-214.64"/>
</g>
</g>
</svg>
