<?xml version="1.0" encoding="UTF-8" standalone="no"?>
<!DOCTYPE svg PUBLIC "-//W3C//DTD SVG 1.1//EN"
 "http://www.w3.org/Graphics/SVG/1.1/DTD/svg11.dtd">
<!-- Generated by graphviz version 2.43.0 (0)
 -->
<!-- Title: ConflictBasedSearch::disjointSplittingSolve Pages: 1 -->
<svg width="850pt" height="428pt"
 viewBox="0.00 0.00 850.00 427.75" xmlns="http://www.w3.org/2000/svg" xmlns:xlink="http://www.w3.org/1999/xlink">
<g id="graph0" class="graph" transform="scale(1 1) rotate(0) translate(4 423.75)">
<title>ConflictBasedSearch::disjointSplittingSolve</title>
<polygon fill="white" stroke="transparent" points="-4,4 -4,-423.75 846,-423.75 846,4 -4,4"/>
<!-- Node1 -->
<g id="node1" class="node">
<title>Node1</title>
<g id="a_node1"><a xlink:title=" ">
<polygon fill="#bfbfbf" stroke="black" points="0,-219 0,-249 126,-249 126,-219 0,-219"/>
<text text-anchor="start" x="8" y="-237" font-family="Helvetica,sans-Serif" font-size="10.00">ConflictBasedSearch</text>
<text text-anchor="middle" x="63" y="-226" font-family="Helvetica,sans-Serif" font-size="10.00">::disjointSplittingSolve</text>
</a>
</g>
</g>
<!-- Node2 -->
<g id="node2" class="node">
<title>Node2</title>
<g id="a_node2"><a xlink:href="classConflictBasedSearch.html#a6070f03e97d9e3ea822f5ed1a0bfe9a1" target="_top" xlink:title=" ">
<polygon fill="white" stroke="black" points="554,-371 554,-401 690,-401 690,-371 554,-371"/>
<text text-anchor="start" x="562" y="-389" font-family="Helvetica,sans-Serif" font-size="10.00">ConflictBasedSearch</text>
<text text-anchor="middle" x="622" y="-378" font-family="Helvetica,sans-Serif" font-size="10.00">::calculateSetOfConflicts</text>
</a>
</g>
</g>
<!-- Node1&#45;&gt;Node2 -->
<g id="edge1" class="edge">
<title>Node1&#45;&gt;Node2</title>
<path fill="none" stroke="midnightblue" d="M69.4,-249.28C80.96,-279.38 111.27,-345.78 162,-373 284.33,-438.65 452.65,-420.99 547.76,-402.99"/>
<polygon fill="midnightblue" stroke="midnightblue" points="548.72,-406.37 557.86,-401.03 547.38,-399.5 548.72,-406.37"/>
</g>
<!-- Node3 -->
<g id="node3" class="node">
<title>Node3</title>
<g id="a_node3"><a xlink:href="classConflictBasedSearch.html#a6d17a328ed4bd26bf58503a87761164c" target="_top" xlink:title=" ">
<polygon fill="white" stroke="black" points="564,-292 564,-322 680,-322 680,-292 564,-292"/>
<text text-anchor="start" x="572" y="-310" font-family="Helvetica,sans-Serif" font-size="10.00">ConflictBasedSearch</text>
<text text-anchor="middle" x="622" y="-299" font-family="Helvetica,sans-Serif" font-size="10.00">::combineSolutions</text>
</a>
</g>
</g>
<!-- Node1&#45;&gt;Node3 -->
<g id="edge2" class="edge">
<title>Node1&#45;&gt;Node3</title>
<path fill="none" stroke="midnightblue" d="M126.05,-247.62C137.94,-249.96 150.33,-252.21 162,-254 319.23,-278.16 360.24,-270.56 518,-291 529.64,-292.51 541.99,-294.28 553.94,-296.08"/>
<polygon fill="midnightblue" stroke="midnightblue" points="553.45,-299.55 563.87,-297.6 554.51,-292.63 553.45,-299.55"/>
</g>
<!-- Node5 -->
<g id="node5" class="node">
<title>Node5</title>
<g id="a_node5"><a xlink:href="Solution_8cpp.html#a1668e5fa72e047531e95f29f5deaf233" target="_top" xlink:title=" ">
<polygon fill="white" stroke="black" points="235.5,-186.5 235.5,-205.5 292.5,-205.5 292.5,-186.5 235.5,-186.5"/>
<text text-anchor="middle" x="264" y="-193.5" font-family="Helvetica,sans-Serif" font-size="10.00">fuelCost</text>
</a>
</g>
</g>
<!-- Node1&#45;&gt;Node5 -->
<g id="edge4" class="edge">
<title>Node1&#45;&gt;Node5</title>
<path fill="none" stroke="midnightblue" d="M126.15,-222.13C158.61,-215.93 197.27,-208.55 225.21,-203.22"/>
<polygon fill="midnightblue" stroke="midnightblue" points="226.19,-206.59 235.36,-201.28 224.88,-199.72 226.19,-206.59"/>
</g>
<!-- Node6 -->
<g id="node6" class="node">
<title>Node6</title>
<g id="a_node6"><a xlink:href="classVertexConstraint.html#ae4a5ede3e21dcbc4dec0060a90682c15" target="_top" xlink:title=" ">
<polygon fill="white" stroke="black" points="191.5,-148.5 191.5,-167.5 336.5,-167.5 336.5,-148.5 191.5,-148.5"/>
<text text-anchor="middle" x="264" y="-155.5" font-family="Helvetica,sans-Serif" font-size="10.00">VertexConstraint::getTime</text>
</a>
</g>
</g>
<!-- Node1&#45;&gt;Node6 -->
<g id="edge5" class="edge">
<title>Node1&#45;&gt;Node6</title>
<path fill="none" stroke="midnightblue" d="M85.12,-218.85C104.29,-205.81 133.78,-187.51 162,-177 169.29,-174.29 177.03,-171.95 184.84,-169.93"/>
<polygon fill="midnightblue" stroke="midnightblue" points="185.86,-173.29 194.76,-167.55 184.22,-166.48 185.86,-173.29"/>
</g>
<!-- Node7 -->
<g id="node7" class="node">
<title>Node7</title>
<g id="a_node7"><a xlink:href="Solution_8cpp.html#a88b7fad200133f09ed5879a14d0171c6" target="_top" xlink:title=" ">
<polygon fill="white" stroke="black" points="219.5,-110.5 219.5,-129.5 308.5,-129.5 308.5,-110.5 219.5,-110.5"/>
<text text-anchor="middle" x="264" y="-117.5" font-family="Helvetica,sans-Serif" font-size="10.00">makespanCost</text>
</a>
</g>
</g>
<!-- Node1&#45;&gt;Node7 -->
<g id="edge6" class="edge">
<title>Node1&#45;&gt;Node7</title>
<path fill="none" stroke="midnightblue" d="M75.04,-218.68C91.43,-197.18 124.34,-158.51 162,-139 176.43,-131.53 193.37,-126.97 209.21,-124.19"/>
<polygon fill="midnightblue" stroke="midnightblue" points="210.08,-127.6 219.42,-122.61 209.01,-120.68 210.08,-127.6"/>
</g>
<!-- Node8 -->
<g id="node8" class="node">
<title>Node8</title>
<g id="a_node8"><a xlink:href="classConflictBasedSearch.html#a9a97b362b4e2df901352732921975454" target="_top" xlink:title=" ">
<polygon fill="white" stroke="black" points="200,-61 200,-91 328,-91 328,-61 200,-61"/>
<text text-anchor="start" x="208" y="-79" font-family="Helvetica,sans-Serif" font-size="10.00">ConflictBasedSearch</text>
<text text-anchor="middle" x="264" y="-68" font-family="Helvetica,sans-Serif" font-size="10.00">::okForHardConstraints</text>
</a>
</g>
</g>
<!-- Node1&#45;&gt;Node8 -->
<g id="edge7" class="edge">
<title>Node1&#45;&gt;Node8</title>
<path fill="none" stroke="midnightblue" d="M70.73,-218.96C83.98,-191.11 116.22,-131.6 162,-101 170.54,-95.29 180.26,-90.89 190.22,-87.49"/>
<polygon fill="midnightblue" stroke="midnightblue" points="191.3,-90.82 199.82,-84.53 189.23,-84.13 191.3,-90.82"/>
</g>
<!-- Node9 -->
<g id="node9" class="node">
<title>Node9</title>
<g id="a_node9"><a xlink:href="classConflictBasedSearch.html#a2d4ce8cb5d44727d73f4489b39ad1d54" target="_top" xlink:title=" ">
<polygon fill="white" stroke="black" points="205,-301 205,-331 323,-331 323,-301 205,-301"/>
<text text-anchor="start" x="213" y="-319" font-family="Helvetica,sans-Serif" font-size="10.00">ConflictBasedSearch</text>
<text text-anchor="middle" x="264" y="-308" font-family="Helvetica,sans-Serif" font-size="10.00">::planIndividualPaths</text>
</a>
</g>
</g>
<!-- Node1&#45;&gt;Node9 -->
<g id="edge8" class="edge">
<title>Node1&#45;&gt;Node9</title>
<path fill="none" stroke="midnightblue" d="M89.12,-249.12C108.53,-260.36 136.33,-275.5 162,-286 172.61,-290.34 184.07,-294.35 195.34,-297.94"/>
<polygon fill="midnightblue" stroke="midnightblue" points="194.57,-301.36 205.16,-300.97 196.64,-294.68 194.57,-301.36"/>
</g>
<!-- Node10 -->
<g id="node10" class="node">
<title>Node10</title>
<g id="a_node10"><a xlink:href="classConflictBasedSearch.html#a6aadc55f462faad9ce67903a59b96c62" target="_top" xlink:title=" ">
<polygon fill="white" stroke="red" points="402,-301 402,-331 518,-331 518,-301 402,-301"/>
<text text-anchor="start" x="410" y="-319" font-family="Helvetica,sans-Serif" font-size="10.00">ConflictBasedSearch</text>
<text text-anchor="middle" x="460" y="-308" font-family="Helvetica,sans-Serif" font-size="10.00">::solve</text>
</a>
</g>
</g>
<!-- Node1&#45;&gt;Node10 -->
<g id="edge16" class="edge">
<title>Node1&#45;&gt;Node10</title>
<path fill="none" stroke="midnightblue" d="M75.92,-249.09C91.74,-272.24 122.34,-314.55 162,-332 235.84,-364.5 329.9,-348.14 392.16,-332.41"/>
<polygon fill="midnightblue" stroke="midnightblue" points="393.07,-335.79 401.87,-329.9 391.32,-329.02 393.07,-335.79"/>
</g>
<!-- Node12 -->
<g id="node11" class="node">
<title>Node12</title>
<g id="a_node11"><a xlink:href="classConflictBasedSearch.html#a727a9172ea3f3fbf4eca9f247d3f5356" target="_top" xlink:title=" ">
<polygon fill="white" stroke="black" points="559.5,-235 559.5,-265 684.5,-265 684.5,-235 559.5,-235"/>
<text text-anchor="start" x="567.5" y="-253" font-family="Helvetica,sans-Serif" font-size="10.00">ConflictBasedSearch</text>
<text text-anchor="middle" x="622" y="-242" font-family="Helvetica,sans-Serif" font-size="10.00">::updateSetOfConflicts</text>
</a>
</g>
</g>
<!-- Node1&#45;&gt;Node12 -->
<g id="edge17" class="edge">
<title>Node1&#45;&gt;Node12</title>
<path fill="none" stroke="midnightblue" d="M126.01,-235.78C230.08,-238.77 439.32,-244.78 549.46,-247.95"/>
<polygon fill="midnightblue" stroke="midnightblue" points="549.38,-251.44 559.48,-248.23 549.59,-244.45 549.38,-251.44"/>
</g>
<!-- Node13 -->
<g id="node12" class="node">
<title>Node13</title>
<g id="a_node12"><a xlink:href="classConflictBasedSearch.html#aeea91c6d2aa04bbd44b4f6a1382d81d4" target="_top" xlink:title=" ">
<polygon fill="white" stroke="black" points="162,-0.5 162,-41.5 366,-41.5 366,-0.5 162,-0.5"/>
<text text-anchor="start" x="170" y="-29.5" font-family="Helvetica,sans-Serif" font-size="10.00">ConflictBasedSearch</text>
<text text-anchor="start" x="170" y="-18.5" font-family="Helvetica,sans-Serif" font-size="10.00">::retrieveSetsOfConstraints</text>
<text text-anchor="middle" x="264" y="-7.5" font-family="Helvetica,sans-Serif" font-size="10.00">AndCostsAndSolutionsDisjointSplitting</text>
</a>
</g>
</g>
<!-- Node1&#45;&gt;Node13 -->
<g id="edge15" class="edge">
<title>Node1&#45;&gt;Node13</title>
<path fill="none" stroke="midnightblue" d="M67.78,-218.89C77.32,-183.91 105.71,-96.88 162,-51 163.6,-49.7 165.24,-48.46 166.94,-47.27"/>
<polygon fill="midnightblue" stroke="midnightblue" points="169.15,-50.02 175.78,-41.75 165.44,-44.08 169.15,-50.02"/>
</g>
<!-- Node4 -->
<g id="node4" class="node">
<title>Node4</title>
<g id="a_node4"><a xlink:href="classConflictBasedSearch.html#a3a9f295491df3b7ceec1b1d2ce7bacf3" target="_top" xlink:title=" ">
<polygon fill="white" stroke="black" points="726,-292 726,-322 842,-322 842,-292 726,-292"/>
<text text-anchor="start" x="734" y="-310" font-family="Helvetica,sans-Serif" font-size="10.00">ConflictBasedSearch</text>
<text text-anchor="middle" x="784" y="-299" font-family="Helvetica,sans-Serif" font-size="10.00">::retrieveSolutions</text>
</a>
</g>
</g>
<!-- Node3&#45;&gt;Node4 -->
<g id="edge3" class="edge">
<title>Node3&#45;&gt;Node4</title>
<path fill="none" stroke="midnightblue" d="M680.31,-307C691.75,-307 703.87,-307 715.62,-307"/>
<polygon fill="midnightblue" stroke="midnightblue" points="715.82,-310.5 725.82,-307 715.82,-303.5 715.82,-310.5"/>
</g>
<!-- Node9&#45;&gt;Node10 -->
<g id="edge9" class="edge">
<title>Node9&#45;&gt;Node10</title>
<path fill="none" stroke="midnightblue" d="M323.21,-309.75C344.79,-309.16 369.44,-309.09 391.76,-309.54"/>
<polygon fill="midnightblue" stroke="midnightblue" points="391.76,-313.04 401.84,-309.78 391.92,-306.04 391.76,-313.04"/>
</g>
<!-- Node10&#45;&gt;Node1 -->
<g id="edge12" class="edge">
<title>Node10&#45;&gt;Node1</title>
<path fill="none" stroke="midnightblue" d="M433,-331.17C379.61,-354.5 254.83,-390.86 162,-350 120.78,-331.86 89.33,-286.87 74.12,-258.31"/>
<polygon fill="midnightblue" stroke="midnightblue" points="77.21,-256.68 69.59,-249.32 70.96,-259.83 77.21,-256.68"/>
</g>
<!-- Node10&#45;&gt;Node2 -->
<g id="edge10" class="edge">
<title>Node10&#45;&gt;Node2</title>
<path fill="none" stroke="midnightblue" d="M495.32,-331.02C519.29,-341.5 551.47,-355.58 577.27,-366.87"/>
<polygon fill="midnightblue" stroke="midnightblue" points="575.89,-370.09 586.46,-370.89 578.7,-363.67 575.89,-370.09"/>
</g>
<!-- Node10&#45;&gt;Node3 -->
<g id="edge11" class="edge">
<title>Node10&#45;&gt;Node3</title>
<path fill="none" stroke="midnightblue" d="M518.31,-312.78C529.75,-312.13 541.87,-311.45 553.62,-310.79"/>
<polygon fill="midnightblue" stroke="midnightblue" points="554.03,-314.27 563.82,-310.22 553.64,-307.28 554.03,-314.27"/>
</g>
<!-- Node10&#45;&gt;Node9 -->
<g id="edge13" class="edge">
<title>Node10&#45;&gt;Node9</title>
<path fill="none" stroke="midnightblue" d="M401.84,-322.22C380.35,-322.82 355.72,-322.91 333.32,-322.48"/>
<polygon fill="midnightblue" stroke="midnightblue" points="333.29,-318.98 323.21,-322.25 333.12,-325.98 333.29,-318.98"/>
</g>
<!-- Node10&#45;&gt;Node12 -->
<g id="edge14" class="edge">
<title>Node10&#45;&gt;Node12</title>
<path fill="none" stroke="midnightblue" d="M497.71,-300.86C520.68,-291.38 550.46,-279.1 575,-268.98"/>
<polygon fill="midnightblue" stroke="midnightblue" points="576.55,-272.12 584.46,-265.07 573.88,-265.65 576.55,-272.12"/>
</g>
</g>
</svg>
