<?xml version="1.0" encoding="UTF-8" standalone="no"?>
<!DOCTYPE svg PUBLIC "-//W3C//DTD SVG 1.1//EN"
 "http://www.w3.org/Graphics/SVG/1.1/DTD/svg11.dtd">
<!-- Generated by graphviz version 2.43.0 (0)
 -->
<!-- Title: AStar::retrieveSolution Pages: 1 -->
<svg width="395pt" height="28pt"
 viewBox="0.00 0.00 395.00 28.00" xmlns="http://www.w3.org/2000/svg" xmlns:xlink="http://www.w3.org/1999/xlink">
<g id="graph0" class="graph" transform="scale(1 1) rotate(0) translate(4 24)">
<title>AStar::retrieveSolution</title>
<polygon fill="white" stroke="transparent" points="-4,4 -4,-24 391,-24 391,4 -4,4"/>
<!-- Node1 -->
<g id="node1" class="node">
<title>Node1</title>
<g id="a_node1"><a xlink:title="Goes from the Node node to the root and extract the Solution.">
<polygon fill="#bfbfbf" stroke="black" points="260,-0.5 260,-19.5 387,-19.5 387,-0.5 260,-0.5"/>
<text text-anchor="middle" x="323.5" y="-7.5" font-family="Helvetica,sans-Serif" font-size="10.00">AStar::retrieveSolution</text>
</a>
</g>
</g>
<!-- Node2 -->
<g id="node2" class="node">
<title>Node2</title>
<g id="a_node2"><a xlink:href="classAStar.html#aee8daf3c1ab228779d19a62fe4b9ceea" target="_top" xlink:title="Solve problem and return Solution.">
<polygon fill="white" stroke="black" points="149,-0.5 149,-19.5 224,-19.5 224,-0.5 149,-0.5"/>
<text text-anchor="middle" x="186.5" y="-7.5" font-family="Helvetica,sans-Serif" font-size="10.00">AStar::solve</text>
</a>
</g>
</g>
<!-- Node1&#45;&gt;Node2 -->
<g id="edge1" class="edge">
<title>Node1&#45;&gt;Node2</title>
<path fill="none" stroke="midnightblue" d="M249.5,-10C240.8,-10 232.22,-10 224.34,-10"/>
<polygon fill="midnightblue" stroke="midnightblue" points="249.74,-13.5 259.74,-10 249.74,-6.5 249.74,-13.5"/>
</g>
<!-- Node3 -->
<g id="node3" class="node">
<title>Node3</title>
<g id="a_node3"><a xlink:href="classGeneralAStar.html#a51f6f9e1d855becaada1943dc5d9be76" target="_top" xlink:title=" ">
<polygon fill="white" stroke="red" points="0,-0.5 0,-19.5 113,-19.5 113,-0.5 0,-0.5"/>
<text text-anchor="middle" x="56.5" y="-7.5" font-family="Helvetica,sans-Serif" font-size="10.00">GeneralAStar::solve</text>
</a>
</g>
</g>
<!-- Node2&#45;&gt;Node3 -->
<g id="edge2" class="edge">
<title>Node2&#45;&gt;Node3</title>
<path fill="none" stroke="midnightblue" d="M138.64,-10C130.4,-10 121.74,-10 113.28,-10"/>
<polygon fill="midnightblue" stroke="midnightblue" points="138.82,-13.5 148.82,-10 138.82,-6.5 138.82,-13.5"/>
</g>
</g>
</svg>
