<?xml version="1.0" encoding="UTF-8" standalone="no"?>
<!DOCTYPE svg PUBLIC "-//W3C//DTD SVG 1.1//EN"
 "http://www.w3.org/Graphics/SVG/1.1/DTD/svg11.dtd">
<!-- Generated by graphviz version 2.43.0 (0)
 -->
<!-- Title: AStar::retrieveSolution Pages: 1 -->
<svg width="544pt" height="28pt"
 viewBox="0.00 0.00 544.00 28.00" xmlns="http://www.w3.org/2000/svg" xmlns:xlink="http://www.w3.org/1999/xlink">
<g id="graph0" class="graph" transform="scale(1 1) rotate(0) translate(4 24)">
<title>AStar::retrieveSolution</title>
<polygon fill="white" stroke="transparent" points="-4,4 -4,-24 540,-24 540,4 -4,4"/>
<!-- Node1 -->
<g id="node1" class="node">
<title>Node1</title>
<g id="a_node1"><a xlink:title=" ">
<polygon fill="#bfbfbf" stroke="black" points="409,-0.5 409,-19.5 536,-19.5 536,-0.5 409,-0.5"/>
<text text-anchor="middle" x="472.5" y="-7.5" font-family="Helvetica,sans-Serif" font-size="10.00">AStar::retrieveSolution</text>
</a>
</g>
</g>
<!-- Node2 -->
<g id="node2" class="node">
<title>Node2</title>
<g id="a_node2"><a xlink:href="classAStar.html#aee8daf3c1ab228779d19a62fe4b9ceea" target="_top" xlink:title=" ">
<polygon fill="white" stroke="black" points="298,-0.5 298,-19.5 373,-19.5 373,-0.5 298,-0.5"/>
<text text-anchor="middle" x="335.5" y="-7.5" font-family="Helvetica,sans-Serif" font-size="10.00">AStar::solve</text>
</a>
</g>
</g>
<!-- Node1&#45;&gt;Node2 -->
<g id="edge1" class="edge">
<title>Node1&#45;&gt;Node2</title>
<path fill="none" stroke="midnightblue" d="M398.5,-10C389.8,-10 381.22,-10 373.34,-10"/>
<polygon fill="midnightblue" stroke="midnightblue" points="398.74,-13.5 408.74,-10 398.74,-6.5 398.74,-13.5"/>
</g>
<!-- Node3 -->
<g id="node3" class="node">
<title>Node3</title>
<g id="a_node3"><a xlink:href="classGeneralAStar.html#a51f6f9e1d855becaada1943dc5d9be76" target="_top" xlink:title=" ">
<polygon fill="white" stroke="black" points="149,-0.5 149,-19.5 262,-19.5 262,-0.5 149,-0.5"/>
<text text-anchor="middle" x="205.5" y="-7.5" font-family="Helvetica,sans-Serif" font-size="10.00">GeneralAStar::solve</text>
</a>
</g>
</g>
<!-- Node2&#45;&gt;Node3 -->
<g id="edge2" class="edge">
<title>Node2&#45;&gt;Node3</title>
<path fill="none" stroke="midnightblue" d="M287.64,-10C279.4,-10 270.74,-10 262.28,-10"/>
<polygon fill="midnightblue" stroke="midnightblue" points="287.82,-13.5 297.82,-10 287.82,-6.5 287.82,-13.5"/>
</g>
<!-- Node4 -->
<g id="node4" class="node">
<title>Node4</title>
<g id="a_node4"><a xlink:href="classGeneralAStar.html#aae659c79e694be1be67a2893762f8410" target="_top" xlink:title=" ">
<polygon fill="white" stroke="black" points="0,-0.5 0,-19.5 113,-19.5 113,-0.5 0,-0.5"/>
<text text-anchor="middle" x="56.5" y="-7.5" font-family="Helvetica,sans-Serif" font-size="10.00">GeneralAStar::solve</text>
</a>
</g>
</g>
<!-- Node3&#45;&gt;Node4 -->
<g id="edge3" class="edge">
<title>Node3&#45;&gt;Node4</title>
<path fill="none" stroke="midnightblue" d="M138.92,-10C130.32,-10 121.57,-10 113.15,-10"/>
<polygon fill="midnightblue" stroke="midnightblue" points="138.93,-13.5 148.93,-10 138.93,-6.5 138.93,-13.5"/>
</g>
</g>
</svg>
