<?xml version="1.0" encoding="UTF-8" standalone="no"?>
<!DOCTYPE svg PUBLIC "-//W3C//DTD SVG 1.1//EN"
 "http://www.w3.org/Graphics/SVG/1.1/DTD/svg11.dtd">
<!-- Generated by graphviz version 2.43.0 (0)
 -->
<!-- Title: Solvers/CBS/ConflictBasedSearch.cpp Pages: 1 -->
<svg width="418pt" height="162pt"
 viewBox="0.00 0.00 417.50 162.00" xmlns="http://www.w3.org/2000/svg" xmlns:xlink="http://www.w3.org/1999/xlink">
<g id="graph0" class="graph" transform="scale(1 1) rotate(0) translate(4 158)">
<title>Solvers/CBS/ConflictBasedSearch.cpp</title>
<polygon fill="white" stroke="transparent" points="-4,4 -4,-158 413.5,-158 413.5,4 -4,4"/>
<!-- Node1 -->
<g id="node1" class="node">
<title>Node1</title>
<g id="a_node1"><a xlink:title=" ">
<polygon fill="#bfbfbf" stroke="black" points="147,-123.5 147,-153.5 292,-153.5 292,-123.5 147,-123.5"/>
<text text-anchor="start" x="155" y="-141.5" font-family="Helvetica,sans-Serif" font-size="10.00">Solvers/CBS/ConflictBased</text>
<text text-anchor="middle" x="219.5" y="-130.5" font-family="Helvetica,sans-Serif" font-size="10.00">Search.cpp</text>
</a>
</g>
</g>
<!-- Node2 -->
<g id="node2" class="node">
<title>Node2</title>
<g id="a_node2"><a xlink:href="ConflictBasedSearch_8h.html" target="_top" xlink:title=" ">
<polygon fill="white" stroke="black" points="157,-67.5 157,-86.5 282,-86.5 282,-67.5 157,-67.5"/>
<text text-anchor="middle" x="219.5" y="-74.5" font-family="Helvetica,sans-Serif" font-size="10.00">ConflictBasedSearch.h</text>
</a>
</g>
</g>
<!-- Node1&#45;&gt;Node2 -->
<g id="edge1" class="edge">
<title>Node1&#45;&gt;Node2</title>
<path fill="none" stroke="midnightblue" d="M219.5,-123.4C219.5,-115.47 219.5,-105.46 219.5,-96.86"/>
<polygon fill="midnightblue" stroke="midnightblue" points="223,-96.66 219.5,-86.66 216,-96.66 223,-96.66"/>
</g>
<!-- Node3 -->
<g id="node3" class="node">
<title>Node3</title>
<g id="a_node3"><a xlink:href="MultiAgentProblem_8h.html" target="_top" xlink:title=" ">
<polygon fill="white" stroke="red" points="0,-0.5 0,-30.5 137,-30.5 137,-0.5 0,-0.5"/>
<text text-anchor="start" x="8" y="-18.5" font-family="Helvetica,sans-Serif" font-size="10.00">../../Problems/MultiAgent</text>
<text text-anchor="middle" x="68.5" y="-7.5" font-family="Helvetica,sans-Serif" font-size="10.00">Problem.h</text>
</a>
</g>
</g>
<!-- Node2&#45;&gt;Node3 -->
<g id="edge2" class="edge">
<title>Node2&#45;&gt;Node3</title>
<path fill="none" stroke="midnightblue" d="M197.87,-67.48C175.98,-58.85 141.5,-45.26 113.64,-34.29"/>
<polygon fill="midnightblue" stroke="midnightblue" points="114.67,-30.93 104.09,-30.52 112.11,-37.45 114.67,-30.93"/>
</g>
<!-- Node9 -->
<g id="node4" class="node">
<title>Node9</title>
<g id="a_node4"><a xlink:href="GeneralAStar_8h.html" target="_top" xlink:title=" ">
<polygon fill="white" stroke="red" points="155.5,-6 155.5,-25 283.5,-25 283.5,-6 155.5,-6"/>
<text text-anchor="middle" x="219.5" y="-13" font-family="Helvetica,sans-Serif" font-size="10.00">../AStar/GeneralAStar.h</text>
</a>
</g>
</g>
<!-- Node2&#45;&gt;Node9 -->
<g id="edge3" class="edge">
<title>Node2&#45;&gt;Node9</title>
<path fill="none" stroke="midnightblue" d="M219.5,-67.48C219.5,-59.08 219.5,-45.98 219.5,-35.16"/>
<polygon fill="midnightblue" stroke="midnightblue" points="223,-35.01 219.5,-25.01 216,-35.01 223,-35.01"/>
</g>
<!-- Node31 -->
<g id="node5" class="node">
<title>Node31</title>
<g id="a_node5"><a xlink:href="ConflictTreeNode_8h.html" target="_top" xlink:title=" ">
<polygon fill="white" stroke="red" points="301.5,-6 301.5,-25 409.5,-25 409.5,-6 301.5,-6"/>
<text text-anchor="middle" x="355.5" y="-13" font-family="Helvetica,sans-Serif" font-size="10.00">ConflictTreeNode.h</text>
</a>
</g>
</g>
<!-- Node2&#45;&gt;Node31 -->
<g id="edge4" class="edge">
<title>Node2&#45;&gt;Node31</title>
<path fill="none" stroke="midnightblue" d="M238.99,-67.48C261.91,-57.45 300.19,-40.7 326.58,-29.15"/>
<polygon fill="midnightblue" stroke="midnightblue" points="328.29,-32.22 336.05,-25.01 325.49,-25.81 328.29,-32.22"/>
</g>
</g>
</svg>
