<?xml version="1.0" encoding="UTF-8" standalone="no"?>
<!DOCTYPE svg PUBLIC "-//W3C//DTD SVG 1.1//EN"
 "http://www.w3.org/Graphics/SVG/1.1/DTD/svg11.dtd">
<!-- Generated by graphviz version 2.43.0 (0)
 -->
<!-- Title: Solvers/CBS/ConflictBasedSearch.h Pages: 1 -->
<svg width="587pt" height="162pt"
 viewBox="0.00 0.00 587.00 162.00" xmlns="http://www.w3.org/2000/svg" xmlns:xlink="http://www.w3.org/1999/xlink">
<g id="graph0" class="graph" transform="scale(1 1) rotate(0) translate(4 158)">
<title>Solvers/CBS/ConflictBasedSearch.h</title>
<polygon fill="white" stroke="transparent" points="-4,4 -4,-158 583,-158 583,4 -4,4"/>
<!-- Node1 -->
<g id="node1" class="node">
<title>Node1</title>
<g id="a_node1"><a xlink:title=" ">
<polygon fill="#bfbfbf" stroke="black" points="147,-123.5 147,-153.5 292,-153.5 292,-123.5 147,-123.5"/>
<text text-anchor="start" x="155" y="-141.5" font-family="Helvetica,sans-Serif" font-size="10.00">Solvers/CBS/ConflictBased</text>
<text text-anchor="middle" x="219.5" y="-130.5" font-family="Helvetica,sans-Serif" font-size="10.00">Search.h</text>
</a>
</g>
</g>
<!-- Node2 -->
<g id="node2" class="node">
<title>Node2</title>
<g id="a_node2"><a xlink:href="MultiAgentProblem_8h.html" target="_top" xlink:title=" ">
<polygon fill="white" stroke="black" points="0,-56.5 0,-86.5 137,-86.5 137,-56.5 0,-56.5"/>
<text text-anchor="start" x="8" y="-74.5" font-family="Helvetica,sans-Serif" font-size="10.00">../../Problems/MultiAgent</text>
<text text-anchor="middle" x="68.5" y="-63.5" font-family="Helvetica,sans-Serif" font-size="10.00">Problem.h</text>
</a>
</g>
</g>
<!-- Node1&#45;&gt;Node2 -->
<g id="edge1" class="edge">
<title>Node1&#45;&gt;Node2</title>
<path fill="none" stroke="midnightblue" d="M186.74,-123.4C164.38,-113.77 134.56,-100.94 110.46,-90.56"/>
<polygon fill="midnightblue" stroke="midnightblue" points="111.77,-87.32 101.2,-86.58 109,-93.75 111.77,-87.32"/>
</g>
<!-- Node8 -->
<g id="node4" class="node">
<title>Node8</title>
<g id="a_node4"><a xlink:href="GeneralAStar_8h.html" target="_top" xlink:title=" ">
<polygon fill="white" stroke="black" points="155.5,-62 155.5,-81 283.5,-81 283.5,-62 155.5,-62"/>
<text text-anchor="middle" x="219.5" y="-69" font-family="Helvetica,sans-Serif" font-size="10.00">../AStar/GeneralAStar.h</text>
</a>
</g>
</g>
<!-- Node1&#45;&gt;Node8 -->
<g id="edge3" class="edge">
<title>Node1&#45;&gt;Node8</title>
<path fill="none" stroke="midnightblue" d="M219.5,-123.4C219.5,-114.06 219.5,-101.71 219.5,-91.52"/>
<polygon fill="midnightblue" stroke="midnightblue" points="223,-91.19 219.5,-81.19 216,-91.19 223,-91.19"/>
</g>
<!-- Node30 -->
<g id="node6" class="node">
<title>Node30</title>
<g id="a_node6"><a xlink:href="ConflictTreeNode_8h.html" target="_top" xlink:title=" ">
<polygon fill="white" stroke="black" points="322.5,-62 322.5,-81 430.5,-81 430.5,-62 322.5,-62"/>
<text text-anchor="middle" x="376.5" y="-69" font-family="Helvetica,sans-Serif" font-size="10.00">ConflictTreeNode.h</text>
</a>
</g>
</g>
<!-- Node1&#45;&gt;Node30 -->
<g id="edge6" class="edge">
<title>Node1&#45;&gt;Node30</title>
<path fill="none" stroke="midnightblue" d="M253.57,-123.4C281.24,-111.94 319.89,-95.94 346.42,-84.95"/>
<polygon fill="midnightblue" stroke="midnightblue" points="348.05,-88.07 355.95,-81.01 345.37,-81.6 348.05,-88.07"/>
</g>
<!-- Node3 -->
<g id="node3" class="node">
<title>Node3</title>
<g id="a_node3"><a xlink:href="Problem_8h.html" target="_top" xlink:title=" ">
<polygon fill="white" stroke="red" points="72.5,-0.5 72.5,-19.5 138.5,-19.5 138.5,-0.5 72.5,-0.5"/>
<text text-anchor="middle" x="105.5" y="-7.5" font-family="Helvetica,sans-Serif" font-size="10.00">Problem.h</text>
</a>
</g>
</g>
<!-- Node2&#45;&gt;Node3 -->
<g id="edge2" class="edge">
<title>Node2&#45;&gt;Node3</title>
<path fill="none" stroke="midnightblue" d="M77.27,-56.4C82.48,-48.02 89.13,-37.33 94.67,-28.42"/>
<polygon fill="midnightblue" stroke="midnightblue" points="97.81,-30 100.12,-19.66 91.86,-26.3 97.81,-30"/>
</g>
<!-- Node8&#45;&gt;Node3 -->
<g id="edge5" class="edge">
<title>Node8&#45;&gt;Node3</title>
<path fill="none" stroke="midnightblue" d="M203.17,-61.98C184.29,-52.12 152.99,-35.79 130.92,-24.27"/>
<polygon fill="midnightblue" stroke="midnightblue" points="132.29,-21.03 121.8,-19.51 129.05,-27.24 132.29,-21.03"/>
</g>
<!-- Node9 -->
<g id="node5" class="node">
<title>Node9</title>
<g id="a_node5"><a xlink:href="AStar_8h.html" target="_top" xlink:title=" ">
<polygon fill="white" stroke="red" points="175,-0.5 175,-19.5 226,-19.5 226,-0.5 175,-0.5"/>
<text text-anchor="middle" x="200.5" y="-7.5" font-family="Helvetica,sans-Serif" font-size="10.00">AStar.h</text>
</a>
</g>
</g>
<!-- Node8&#45;&gt;Node9 -->
<g id="edge4" class="edge">
<title>Node8&#45;&gt;Node9</title>
<path fill="none" stroke="midnightblue" d="M216.78,-61.98C214.07,-53.49 209.83,-40.2 206.35,-29.32"/>
<polygon fill="midnightblue" stroke="midnightblue" points="209.59,-27.97 203.22,-19.51 202.93,-30.1 209.59,-27.97"/>
</g>
<!-- Node5 -->
<g id="node7" class="node">
<title>Node5</title>
<g id="a_node7"><a xlink:href="EdgeConstraint_8h.html" target="_top" xlink:title=" ">
<polygon fill="white" stroke="black" points="244.5,-0.5 244.5,-19.5 344.5,-19.5 344.5,-0.5 244.5,-0.5"/>
<text text-anchor="middle" x="294.5" y="-7.5" font-family="Helvetica,sans-Serif" font-size="10.00">EdgeConstraint.h</text>
</a>
</g>
</g>
<!-- Node30&#45;&gt;Node5 -->
<g id="edge7" class="edge">
<title>Node30&#45;&gt;Node5</title>
<path fill="none" stroke="midnightblue" d="M364.75,-61.98C351.72,-52.52 330.46,-37.1 314.74,-25.69"/>
<polygon fill="midnightblue" stroke="midnightblue" points="316.38,-22.55 306.23,-19.51 312.27,-28.21 316.38,-22.55"/>
</g>
<!-- Node6 -->
<g id="node8" class="node">
<title>Node6</title>
<g id="a_node8"><a xlink:href="VertexConstraint_8h.html" target="_top" xlink:title=" ">
<polygon fill="white" stroke="black" points="363,-0.5 363,-19.5 470,-19.5 470,-0.5 363,-0.5"/>
<text text-anchor="middle" x="416.5" y="-7.5" font-family="Helvetica,sans-Serif" font-size="10.00">VertexConstraint.h</text>
</a>
</g>
</g>
<!-- Node30&#45;&gt;Node6 -->
<g id="edge8" class="edge">
<title>Node30&#45;&gt;Node6</title>
<path fill="none" stroke="midnightblue" d="M382.23,-61.98C388.17,-53.14 397.62,-39.09 405.09,-27.98"/>
<polygon fill="midnightblue" stroke="midnightblue" points="408.11,-29.76 410.78,-19.51 402.3,-25.86 408.11,-29.76"/>
</g>
<!-- Node31 -->
<g id="node9" class="node">
<title>Node31</title>
<g id="a_node9"><a xlink:href="AgentConflict_8h.html" target="_top" xlink:title=" ">
<polygon fill="white" stroke="black" points="488,-0.5 488,-19.5 579,-19.5 579,-0.5 488,-0.5"/>
<text text-anchor="middle" x="533.5" y="-7.5" font-family="Helvetica,sans-Serif" font-size="10.00">AgentConflict.h</text>
</a>
</g>
</g>
<!-- Node30&#45;&gt;Node31 -->
<g id="edge9" class="edge">
<title>Node30&#45;&gt;Node31</title>
<path fill="none" stroke="midnightblue" d="M398.99,-61.98C425.81,-51.81 470.82,-34.76 501.31,-23.2"/>
<polygon fill="midnightblue" stroke="midnightblue" points="502.94,-26.33 511.05,-19.51 500.46,-19.78 502.94,-26.33"/>
</g>
</g>
</svg>
