<?xml version="1.0" encoding="UTF-8" standalone="no"?>
<!DOCTYPE svg PUBLIC "-//W3C//DTD SVG 1.1//EN"
 "http://www.w3.org/Graphics/SVG/1.1/DTD/svg11.dtd">
<!-- Generated by graphviz version 2.43.0 (0)
 -->
<!-- Title: ConflictBasedSearch.h Pages: 1 -->
<svg width="1510pt" height="665pt"
 viewBox="0.00 0.00 1510.00 665.00" xmlns="http://www.w3.org/2000/svg" xmlns:xlink="http://www.w3.org/1999/xlink">
<g id="graph0" class="graph" transform="scale(1 1) rotate(0) translate(4 661)">
<title>ConflictBasedSearch.h</title>
<polygon fill="white" stroke="transparent" points="-4,4 -4,-661 1506,-661 1506,4 -4,4"/>
<!-- Node1 -->
<g id="node1" class="node">
<title>Node1</title>
<g id="a_node1"><a xlink:title=" ">
<polygon fill="#bfbfbf" stroke="black" points="1071.5,-637.5 1071.5,-656.5 1196.5,-656.5 1196.5,-637.5 1071.5,-637.5"/>
<text text-anchor="middle" x="1134" y="-644.5" font-family="Helvetica,sans-Serif" font-size="10.00">ConflictBasedSearch.h</text>
</a>
</g>
</g>
<!-- Node2 -->
<g id="node2" class="node">
<title>Node2</title>
<g id="a_node2"><a xlink:href="MultiAgentProblem_8h.html" target="_top" xlink:title=" ">
<polygon fill="white" stroke="black" points="451.5,-190.5 451.5,-220.5 588.5,-220.5 588.5,-190.5 451.5,-190.5"/>
<text text-anchor="start" x="459.5" y="-208.5" font-family="Helvetica,sans-Serif" font-size="10.00">../../Problems/MultiAgent</text>
<text text-anchor="middle" x="520" y="-197.5" font-family="Helvetica,sans-Serif" font-size="10.00">Problem.h</text>
</a>
</g>
</g>
<!-- Node1&#45;&gt;Node2 -->
<g id="edge1" class="edge">
<title>Node1&#45;&gt;Node2</title>
<path fill="none" stroke="midnightblue" d="M1071.21,-645.57C854.91,-643.27 154,-628.67 154,-536 154,-536 154,-536 154,-338.5 154,-301.31 145.61,-282.17 173,-257 182.82,-247.98 341.78,-227.65 441.11,-215.71"/>
<polygon fill="midnightblue" stroke="midnightblue" points="441.61,-219.18 451.12,-214.52 440.77,-212.23 441.61,-219.18"/>
</g>
<!-- Node8 -->
<g id="node8" class="node">
<title>Node8</title>
<g id="a_node8"><a xlink:href="GeneralAStar_8h.html" target="_top" xlink:title=" ">
<polygon fill="white" stroke="black" points="1070,-581.5 1070,-600.5 1198,-600.5 1198,-581.5 1070,-581.5"/>
<text text-anchor="middle" x="1134" y="-588.5" font-family="Helvetica,sans-Serif" font-size="10.00">../AStar/GeneralAStar.h</text>
</a>
</g>
</g>
<!-- Node1&#45;&gt;Node8 -->
<g id="edge7" class="edge">
<title>Node1&#45;&gt;Node8</title>
<path fill="none" stroke="midnightblue" d="M1134,-637.08C1134,-630.01 1134,-619.86 1134,-610.99"/>
<polygon fill="midnightblue" stroke="midnightblue" points="1137.5,-610.75 1134,-600.75 1130.5,-610.75 1137.5,-610.75"/>
</g>
<!-- Node30 -->
<g id="node30" class="node">
<title>Node30</title>
<g id="a_node30"><a xlink:href="ConflictTreeNode_8h.html" target="_top" xlink:title=" ">
<polygon fill="white" stroke="black" points="1394,-62 1394,-81 1502,-81 1502,-62 1394,-62"/>
<text text-anchor="middle" x="1448" y="-69" font-family="Helvetica,sans-Serif" font-size="10.00">ConflictTreeNode.h</text>
</a>
</g>
</g>
<!-- Node1&#45;&gt;Node30 -->
<g id="edge51" class="edge">
<title>Node1&#45;&gt;Node30</title>
<path fill="none" stroke="midnightblue" d="M1194.17,-637.46C1285.35,-622.81 1448,-589.21 1448,-536 1448,-536 1448,-536 1448,-204.5 1448,-164.16 1448,-116.88 1448,-91.28"/>
<polygon fill="midnightblue" stroke="midnightblue" points="1451.5,-91.15 1448,-81.15 1444.5,-91.15 1451.5,-91.15"/>
</g>
<!-- Node3 -->
<g id="node3" class="node">
<title>Node3</title>
<g id="a_node3"><a xlink:href="Problem_8h.html" target="_top" xlink:title=" ">
<polygon fill="white" stroke="black" points="1222,-129 1222,-148 1288,-148 1288,-129 1222,-129"/>
<text text-anchor="middle" x="1255" y="-136" font-family="Helvetica,sans-Serif" font-size="10.00">Problem.h</text>
</a>
</g>
</g>
<!-- Node2&#45;&gt;Node3 -->
<g id="edge2" class="edge">
<title>Node2&#45;&gt;Node3</title>
<path fill="none" stroke="midnightblue" d="M588.78,-191.1C591.55,-190.7 594.3,-190.33 597,-190 869.2,-156.56 943.97,-207.25 1213,-154 1216.7,-153.27 1220.52,-152.29 1224.27,-151.18"/>
<polygon fill="midnightblue" stroke="midnightblue" points="1225.52,-154.45 1233.95,-148.03 1223.35,-147.8 1225.52,-154.45"/>
</g>
<!-- Node4 -->
<g id="node4" class="node">
<title>Node4</title>
<g id="a_node4"><a xlink:href="ConstraintsSet_8h.html" target="_top" xlink:title=" ">
<polygon fill="white" stroke="black" points="1092,-56.5 1092,-86.5 1232,-86.5 1232,-56.5 1092,-56.5"/>
<text text-anchor="start" x="1100" y="-74.5" font-family="Helvetica,sans-Serif" font-size="10.00">../Constraints/Constraints</text>
<text text-anchor="middle" x="1162" y="-63.5" font-family="Helvetica,sans-Serif" font-size="10.00">Set.h</text>
</a>
</g>
</g>
<!-- Node3&#45;&gt;Node4 -->
<g id="edge3" class="edge">
<title>Node3&#45;&gt;Node4</title>
<path fill="none" stroke="midnightblue" d="M1242.46,-128.73C1229.28,-119.53 1208.12,-104.73 1190.8,-92.63"/>
<polygon fill="midnightblue" stroke="midnightblue" points="1192.36,-89.45 1182.16,-86.59 1188.35,-95.19 1192.36,-89.45"/>
</g>
<!-- Node7 -->
<g id="node7" class="node">
<title>Node7</title>
<g id="a_node7"><a xlink:href="Graph_8h.html" target="_top" xlink:title=" ">
<polygon fill="white" stroke="black" points="1250,-62 1250,-81 1376,-81 1376,-62 1250,-62"/>
<text text-anchor="middle" x="1313" y="-69" font-family="Helvetica,sans-Serif" font-size="10.00">../GraphParser/Graph.h</text>
</a>
</g>
</g>
<!-- Node3&#45;&gt;Node7 -->
<g id="edge6" class="edge">
<title>Node3&#45;&gt;Node7</title>
<path fill="none" stroke="midnightblue" d="M1262.82,-128.73C1271.95,-118.5 1287.24,-101.36 1298.55,-88.69"/>
<polygon fill="midnightblue" stroke="midnightblue" points="1301.26,-90.92 1305.3,-81.13 1296.03,-86.26 1301.26,-90.92"/>
</g>
<!-- Node5 -->
<g id="node5" class="node">
<title>Node5</title>
<g id="a_node5"><a xlink:href="EdgeConstraint_8h.html" target="_top" xlink:title=" ">
<polygon fill="white" stroke="black" points="1259,-0.5 1259,-19.5 1359,-19.5 1359,-0.5 1259,-0.5"/>
<text text-anchor="middle" x="1309" y="-7.5" font-family="Helvetica,sans-Serif" font-size="10.00">EdgeConstraint.h</text>
</a>
</g>
</g>
<!-- Node4&#45;&gt;Node5 -->
<g id="edge4" class="edge">
<title>Node4&#45;&gt;Node5</title>
<path fill="none" stroke="midnightblue" d="M1196.84,-56.4C1221.5,-46.42 1254.29,-33.15 1278.03,-23.53"/>
<polygon fill="midnightblue" stroke="midnightblue" points="1279.65,-26.65 1287.61,-19.66 1277.03,-20.17 1279.65,-26.65"/>
</g>
<!-- Node6 -->
<g id="node6" class="node">
<title>Node6</title>
<g id="a_node6"><a xlink:href="VertexConstraint_8h.html" target="_top" xlink:title=" ">
<polygon fill="white" stroke="black" points="1108.5,-0.5 1108.5,-19.5 1215.5,-19.5 1215.5,-0.5 1108.5,-0.5"/>
<text text-anchor="middle" x="1162" y="-7.5" font-family="Helvetica,sans-Serif" font-size="10.00">VertexConstraint.h</text>
</a>
</g>
</g>
<!-- Node4&#45;&gt;Node6 -->
<g id="edge5" class="edge">
<title>Node4&#45;&gt;Node6</title>
<path fill="none" stroke="midnightblue" d="M1162,-56.4C1162,-48.47 1162,-38.46 1162,-29.86"/>
<polygon fill="midnightblue" stroke="midnightblue" points="1165.5,-29.66 1162,-19.66 1158.5,-29.66 1165.5,-29.66"/>
</g>
<!-- Node8&#45;&gt;Node3 -->
<g id="edge50" class="edge">
<title>Node8&#45;&gt;Node3</title>
<path fill="none" stroke="midnightblue" d="M1198.09,-585.9C1268.58,-577.52 1372,-552 1372,-474.5 1372,-474.5 1372,-474.5 1372,-271.5 1372,-234.31 1375.86,-219.34 1353,-190 1338.74,-171.71 1316.03,-159.42 1296.05,-151.55"/>
<polygon fill="midnightblue" stroke="midnightblue" points="1297.11,-148.21 1286.52,-148.03 1294.69,-154.77 1297.11,-148.21"/>
</g>
<!-- Node9 -->
<g id="node9" class="node">
<title>Node9</title>
<g id="a_node9"><a xlink:href="AStar_8h.html" target="_top" xlink:title=" ">
<polygon fill="white" stroke="black" points="886.5,-525.5 886.5,-544.5 937.5,-544.5 937.5,-525.5 886.5,-525.5"/>
<text text-anchor="middle" x="912" y="-532.5" font-family="Helvetica,sans-Serif" font-size="10.00">AStar.h</text>
</a>
</g>
</g>
<!-- Node8&#45;&gt;Node9 -->
<g id="edge8" class="edge">
<title>Node8&#45;&gt;Node9</title>
<path fill="none" stroke="midnightblue" d="M1098.82,-581.44C1057.46,-571.38 989.18,-554.77 947.63,-544.67"/>
<polygon fill="midnightblue" stroke="midnightblue" points="948.21,-541.21 937.67,-542.24 946.56,-548.01 948.21,-541.21"/>
</g>
<!-- Node10 -->
<g id="node10" class="node">
<title>Node10</title>
<g id="a_node10"><a xlink:href="AStarProblem_8h.html" target="_top" xlink:title=" ">
<polygon fill="white" stroke="black" points="781.5,-190.5 781.5,-220.5 888.5,-220.5 888.5,-190.5 781.5,-190.5"/>
<text text-anchor="start" x="789.5" y="-208.5" font-family="Helvetica,sans-Serif" font-size="10.00">../../AStarProblems</text>
<text text-anchor="middle" x="835" y="-197.5" font-family="Helvetica,sans-Serif" font-size="10.00">/AStarProblem.h</text>
</a>
</g>
</g>
<!-- Node9&#45;&gt;Node10 -->
<g id="edge9" class="edge">
<title>Node9&#45;&gt;Node10</title>
<path fill="none" stroke="midnightblue" d="M898.65,-525.32C872.27,-506.98 816,-461.54 816,-407.5 816,-407.5 816,-407.5 816,-338.5 816,-300.45 823.83,-256.85 829.44,-230.51"/>
<polygon fill="midnightblue" stroke="midnightblue" points="832.87,-231.18 831.6,-220.66 826.04,-229.68 832.87,-231.18"/>
</g>
<!-- Node11 -->
<g id="node11" class="node">
<title>Node11</title>
<g id="a_node11"><a xlink:href="HeuristicOptimal_8h.html" target="_top" xlink:title=" ">
<polygon fill="white" stroke="black" points="897,-458.5 897,-488.5 1027,-488.5 1027,-458.5 897,-458.5"/>
<text text-anchor="start" x="905" y="-476.5" font-family="Helvetica,sans-Serif" font-size="10.00">../../Heuristics/Heuristic</text>
<text text-anchor="middle" x="962" y="-465.5" font-family="Helvetica,sans-Serif" font-size="10.00">Optimal.h</text>
</a>
</g>
</g>
<!-- Node9&#45;&gt;Node11 -->
<g id="edge10" class="edge">
<title>Node9&#45;&gt;Node11</title>
<path fill="none" stroke="midnightblue" d="M919.16,-525.48C925.56,-517.87 935.19,-506.4 943.71,-496.26"/>
<polygon fill="midnightblue" stroke="midnightblue" points="946.46,-498.43 950.22,-488.52 941.1,-493.93 946.46,-498.43"/>
</g>
<!-- Node29 -->
<g id="node29" class="node">
<title>Node29</title>
<g id="a_node29"><a xlink:href="Solution_8h.html" target="_top" xlink:title=" ">
<polygon fill="white" stroke="black" points="0,-397 0,-416 126,-416 126,-397 0,-397"/>
<text text-anchor="middle" x="63" y="-404" font-family="Helvetica,sans-Serif" font-size="10.00">../../Solution/Solution.h</text>
</a>
</g>
</g>
<!-- Node9&#45;&gt;Node29 -->
<g id="edge48" class="edge">
<title>Node9&#45;&gt;Node29</title>
<path fill="none" stroke="midnightblue" d="M886.13,-530.15C771.28,-513.03 305.56,-443.64 130.21,-417.51"/>
<polygon fill="midnightblue" stroke="midnightblue" points="130.49,-414.02 120.08,-416.01 129.46,-420.94 130.49,-414.02"/>
</g>
<!-- Node11&#45;&gt;Node7 -->
<g id="edge11" class="edge">
<title>Node11&#45;&gt;Node7</title>
<path fill="none" stroke="midnightblue" d="M1027.14,-466.96C1151.39,-454.58 1410,-419.35 1410,-340.5 1410,-340.5 1410,-340.5 1410,-204.5 1410,-153.47 1362.34,-109.13 1333.84,-87.16"/>
<polygon fill="midnightblue" stroke="midnightblue" points="1335.79,-84.25 1325.68,-81.09 1331.61,-89.87 1335.79,-84.25"/>
</g>
<!-- Node12 -->
<g id="node12" class="node">
<title>Node12</title>
<g id="a_node12"><a xlink:href="ReverseResumableAStar_8h.html" target="_top" xlink:title=" ">
<polygon fill="white" stroke="black" points="942,-391.5 942,-421.5 1076,-421.5 1076,-391.5 942,-391.5"/>
<text text-anchor="start" x="950" y="-409.5" font-family="Helvetica,sans-Serif" font-size="10.00">../Solvers/AStar/Reverse</text>
<text text-anchor="middle" x="1009" y="-398.5" font-family="Helvetica,sans-Serif" font-size="10.00">ResumableAStar.h</text>
</a>
</g>
</g>
<!-- Node11&#45;&gt;Node12 -->
<g id="edge12" class="edge">
<title>Node11&#45;&gt;Node12</title>
<path fill="none" stroke="midnightblue" d="M972.2,-458.4C978.23,-450.05 986.02,-439.29 992.87,-429.81"/>
<polygon fill="midnightblue" stroke="midnightblue" points="995.8,-431.73 998.82,-421.58 990.13,-427.63 995.8,-431.73"/>
</g>
<!-- Node17 -->
<g id="node17" class="node">
<title>Node17</title>
<g id="a_node17"><a xlink:href="HeuristicManhattan_8h.html" target="_top" xlink:title=" ">
<polygon fill="white" stroke="black" points="849,-324.5 849,-354.5 979,-354.5 979,-324.5 849,-324.5"/>
<text text-anchor="start" x="857" y="-342.5" font-family="Helvetica,sans-Serif" font-size="10.00">../../Heuristics/Heuristic</text>
<text text-anchor="middle" x="914" y="-331.5" font-family="Helvetica,sans-Serif" font-size="10.00">Manhattan.h</text>
</a>
</g>
</g>
<!-- Node11&#45;&gt;Node17 -->
<g id="edge47" class="edge">
<title>Node11&#45;&gt;Node17</title>
<path fill="none" stroke="midnightblue" d="M952.45,-458.48C946.14,-448.64 938.11,-434.98 933,-422 925.66,-403.37 920.72,-381.18 917.72,-364.66"/>
<polygon fill="midnightblue" stroke="midnightblue" points="921.15,-363.99 916.02,-354.72 914.25,-365.17 921.15,-363.99"/>
</g>
<!-- Node13 -->
<g id="node13" class="node">
<title>Node13</title>
<g id="a_node13"><a xlink:href="SingleAgentAStarProblem_8h.html" target="_top" xlink:title=" ">
<polygon fill="white" stroke="black" points="1190,-257.5 1190,-287.5 1344,-287.5 1344,-257.5 1190,-257.5"/>
<text text-anchor="start" x="1198" y="-275.5" font-family="Helvetica,sans-Serif" font-size="10.00">../../AStarProblems</text>
<text text-anchor="middle" x="1267" y="-264.5" font-family="Helvetica,sans-Serif" font-size="10.00">/SingleAgentAStarProblem.h</text>
</a>
</g>
</g>
<!-- Node12&#45;&gt;Node13 -->
<g id="edge13" class="edge">
<title>Node12&#45;&gt;Node13</title>
<path fill="none" stroke="midnightblue" d="M1008.04,-391.22C1007.65,-372.98 1009.94,-341.69 1028,-324 1033.68,-318.43 1114.81,-302.04 1180.99,-289.43"/>
<polygon fill="midnightblue" stroke="midnightblue" points="1181.88,-292.82 1191.05,-287.52 1180.57,-285.95 1181.88,-292.82"/>
</g>
<!-- Node12&#45;&gt;Node17 -->
<g id="edge19" class="edge">
<title>Node12&#45;&gt;Node17</title>
<path fill="none" stroke="midnightblue" d="M988.39,-391.4C975.07,-382.28 957.54,-370.29 942.84,-360.24"/>
<polygon fill="midnightblue" stroke="midnightblue" points="944.8,-357.33 934.57,-354.58 940.85,-363.11 944.8,-357.33"/>
</g>
<!-- Node28 -->
<g id="node28" class="node">
<title>Node28</title>
<g id="a_node28"><a xlink:href="Node_8h.html" target="_top" xlink:title=" ">
<polygon fill="white" stroke="black" points="1037.5,-330 1037.5,-349 1088.5,-349 1088.5,-330 1037.5,-330"/>
<text text-anchor="middle" x="1063" y="-337" font-family="Helvetica,sans-Serif" font-size="10.00">Node.h</text>
</a>
</g>
</g>
<!-- Node12&#45;&gt;Node28 -->
<g id="edge46" class="edge">
<title>Node12&#45;&gt;Node28</title>
<path fill="none" stroke="midnightblue" d="M1020.72,-391.4C1029.14,-381.26 1040.51,-367.57 1049.34,-356.94"/>
<polygon fill="midnightblue" stroke="midnightblue" points="1052.08,-359.12 1055.78,-349.19 1046.69,-354.65 1052.08,-359.12"/>
</g>
<!-- Node13&#45;&gt;Node10 -->
<g id="edge18" class="edge">
<title>Node13&#45;&gt;Node10</title>
<path fill="none" stroke="midnightblue" d="M1189.66,-258.38C1186.74,-257.91 1183.84,-257.45 1181,-257 1082.55,-241.52 968.07,-225.12 898.61,-215.35"/>
<polygon fill="midnightblue" stroke="midnightblue" points="899.09,-211.89 888.7,-213.96 898.11,-218.82 899.09,-211.89"/>
</g>
<!-- Node14 -->
<g id="node14" class="node">
<title>Node14</title>
<g id="a_node14"><a xlink:href="SingleAgentProblem_8h.html" target="_top" xlink:title=" ">
<polygon fill="white" stroke="black" points="1162,-196 1162,-215 1344,-215 1344,-196 1162,-196"/>
<text text-anchor="middle" x="1253" y="-203" font-family="Helvetica,sans-Serif" font-size="10.00">../Problems/SingleAgentProblem.h</text>
</a>
</g>
</g>
<!-- Node13&#45;&gt;Node14 -->
<g id="edge14" class="edge">
<title>Node13&#45;&gt;Node14</title>
<path fill="none" stroke="midnightblue" d="M1263.96,-257.4C1261.93,-247.96 1259.24,-235.45 1257.03,-225.19"/>
<polygon fill="midnightblue" stroke="midnightblue" points="1260.4,-224.23 1254.87,-215.19 1253.56,-225.71 1260.4,-224.23"/>
</g>
<!-- Node15 -->
<g id="node15" class="node">
<title>Node15</title>
<g id="a_node15"><a xlink:href="SingleAgentState_8h.html" target="_top" xlink:title=" ">
<polygon fill="white" stroke="black" points="1052,-129 1052,-148 1204,-148 1204,-129 1052,-129"/>
<text text-anchor="middle" x="1128" y="-136" font-family="Helvetica,sans-Serif" font-size="10.00">../States/SingleAgentState.h</text>
</a>
</g>
</g>
<!-- Node13&#45;&gt;Node15 -->
<g id="edge16" class="edge">
<title>Node13&#45;&gt;Node15</title>
<path fill="none" stroke="midnightblue" d="M1211.13,-257.48C1190.39,-249.77 1168.23,-238.16 1153,-221 1137.46,-203.48 1131.58,-176.48 1129.35,-158.41"/>
<polygon fill="midnightblue" stroke="midnightblue" points="1132.82,-157.87 1128.37,-148.25 1125.85,-158.54 1132.82,-157.87"/>
</g>
<!-- Node14&#45;&gt;Node3 -->
<g id="edge15" class="edge">
<title>Node14&#45;&gt;Node3</title>
<path fill="none" stroke="midnightblue" d="M1253.27,-195.73C1253.56,-186.18 1254.04,-170.62 1254.42,-158.28"/>
<polygon fill="midnightblue" stroke="midnightblue" points="1257.93,-158.23 1254.73,-148.13 1250.93,-158.01 1257.93,-158.23"/>
</g>
<!-- Node16 -->
<g id="node16" class="node">
<title>Node16</title>
<g id="a_node16"><a xlink:href="State_8h.html" target="_top" xlink:title=" ">
<polygon fill="white" stroke="black" points="848.5,-62 848.5,-81 899.5,-81 899.5,-62 848.5,-62"/>
<text text-anchor="middle" x="874" y="-69" font-family="Helvetica,sans-Serif" font-size="10.00">State.h</text>
</a>
</g>
</g>
<!-- Node15&#45;&gt;Node16 -->
<g id="edge17" class="edge">
<title>Node15&#45;&gt;Node16</title>
<path fill="none" stroke="midnightblue" d="M1094.53,-128.94C1046.62,-116.67 958.84,-94.21 909.71,-81.64"/>
<polygon fill="midnightblue" stroke="midnightblue" points="910.4,-78.2 899.84,-79.11 908.66,-84.98 910.4,-78.2"/>
</g>
<!-- Node17&#45;&gt;Node13 -->
<g id="edge30" class="edge">
<title>Node17&#45;&gt;Node13</title>
<path fill="none" stroke="midnightblue" d="M979.16,-326.5C1035.86,-316.06 1118.49,-300.85 1180.68,-289.39"/>
<polygon fill="midnightblue" stroke="midnightblue" points="1181.67,-292.77 1190.87,-287.52 1180.4,-285.89 1181.67,-292.77"/>
</g>
<!-- Node18 -->
<g id="node18" class="node">
<title>Node18</title>
<g id="a_node18"><a xlink:href="ODMultiAgentAStarProblem_8h.html" target="_top" xlink:title=" ">
<polygon fill="white" stroke="black" points="844,-257.5 844,-287.5 984,-287.5 984,-257.5 844,-257.5"/>
<text text-anchor="start" x="852" y="-275.5" font-family="Helvetica,sans-Serif" font-size="10.00">../AStarProblems/ODMulti</text>
<text text-anchor="middle" x="914" y="-264.5" font-family="Helvetica,sans-Serif" font-size="10.00">AgentAStarProblem.h</text>
</a>
</g>
</g>
<!-- Node17&#45;&gt;Node18 -->
<g id="edge20" class="edge">
<title>Node17&#45;&gt;Node18</title>
<path fill="none" stroke="midnightblue" d="M914,-324.4C914,-316.64 914,-306.81 914,-297.86"/>
<polygon fill="midnightblue" stroke="midnightblue" points="917.5,-297.58 914,-287.58 910.5,-297.58 917.5,-297.58"/>
</g>
<!-- Node20 -->
<g id="node20" class="node">
<title>Node20</title>
<g id="a_node20"><a xlink:href="ODMultiAgentAStarProblemWithConstraints_8h.html" target="_top" xlink:title=" ">
<polygon fill="white" stroke="black" points="588.5,-257.5 588.5,-287.5 787.5,-287.5 787.5,-257.5 588.5,-257.5"/>
<text text-anchor="start" x="596.5" y="-275.5" font-family="Helvetica,sans-Serif" font-size="10.00">../AStarProblems/ODMulti</text>
<text text-anchor="middle" x="688" y="-264.5" font-family="Helvetica,sans-Serif" font-size="10.00">AgentAStarProblemWithConstraints.h</text>
</a>
</g>
</g>
<!-- Node17&#45;&gt;Node20 -->
<g id="edge25" class="edge">
<title>Node17&#45;&gt;Node20</title>
<path fill="none" stroke="midnightblue" d="M865.24,-324.48C830.46,-314.47 783.52,-300.97 746.68,-290.38"/>
<polygon fill="midnightblue" stroke="midnightblue" points="747.64,-287.01 737.06,-287.61 745.71,-293.74 747.64,-287.01"/>
</g>
<!-- Node22 -->
<g id="node22" class="node">
<title>Node22</title>
<g id="a_node22"><a xlink:href="SingleAgentAStarProblemWithConstraints_8h.html" target="_top" xlink:title=" ">
<polygon fill="white" stroke="black" points="1002,-257.5 1002,-287.5 1172,-287.5 1172,-257.5 1002,-257.5"/>
<text text-anchor="start" x="1010" y="-275.5" font-family="Helvetica,sans-Serif" font-size="10.00">../AStarProblems/SingleAgent</text>
<text text-anchor="middle" x="1087" y="-264.5" font-family="Helvetica,sans-Serif" font-size="10.00">AStarProblemWithConstraints.h</text>
</a>
</g>
</g>
<!-- Node17&#45;&gt;Node22 -->
<g id="edge31" class="edge">
<title>Node17&#45;&gt;Node22</title>
<path fill="none" stroke="midnightblue" d="M951.54,-324.4C977.5,-314.64 1012.22,-301.59 1040.02,-291.15"/>
<polygon fill="midnightblue" stroke="midnightblue" points="1041.4,-294.37 1049.53,-287.58 1038.94,-287.82 1041.4,-294.37"/>
</g>
<!-- Node24 -->
<g id="node24" class="node">
<title>Node24</title>
<g id="a_node24"><a xlink:href="StandardMultiAgentAStarProblem_8h.html" target="_top" xlink:title=" ">
<polygon fill="white" stroke="black" points="424,-257.5 424,-287.5 570,-287.5 570,-257.5 424,-257.5"/>
<text text-anchor="start" x="432" y="-275.5" font-family="Helvetica,sans-Serif" font-size="10.00">../AStarProblems/Standard</text>
<text text-anchor="middle" x="497" y="-264.5" font-family="Helvetica,sans-Serif" font-size="10.00">MultiAgentAStarProblem.h</text>
</a>
</g>
</g>
<!-- Node17&#45;&gt;Node24 -->
<g id="edge36" class="edge">
<title>Node17&#45;&gt;Node24</title>
<path fill="none" stroke="midnightblue" d="M848.76,-329.17C783.37,-319.7 679.55,-304.36 580.21,-288.18"/>
<polygon fill="midnightblue" stroke="midnightblue" points="580.74,-284.72 570.3,-286.56 579.61,-291.62 580.74,-284.72"/>
</g>
<!-- Node26 -->
<g id="node26" class="node">
<title>Node26</title>
<g id="a_node26"><a xlink:href="StandardMultiAgentAStarProblemWithConstraints_8h.html" target="_top" xlink:title=" ">
<polygon fill="white" stroke="black" points="182,-257.5 182,-287.5 406,-287.5 406,-257.5 182,-257.5"/>
<text text-anchor="start" x="190" y="-275.5" font-family="Helvetica,sans-Serif" font-size="10.00">../AStarProblems/Standard</text>
<text text-anchor="middle" x="294" y="-264.5" font-family="Helvetica,sans-Serif" font-size="10.00">MultiAgentAStarProblemWithConstraints.h</text>
</a>
</g>
</g>
<!-- Node17&#45;&gt;Node26 -->
<g id="edge41" class="edge">
<title>Node17&#45;&gt;Node26</title>
<path fill="none" stroke="midnightblue" d="M848.97,-332.3C755.64,-323.33 578.04,-305.92 416.2,-288.12"/>
<polygon fill="midnightblue" stroke="midnightblue" points="416.38,-284.62 406.06,-287 415.62,-291.58 416.38,-284.62"/>
</g>
<!-- Node18&#45;&gt;Node2 -->
<g id="edge21" class="edge">
<title>Node18&#45;&gt;Node2</title>
<path fill="none" stroke="midnightblue" d="M843.71,-260.88C781.73,-251.39 688.71,-236.82 598.91,-221.31"/>
<polygon fill="midnightblue" stroke="midnightblue" points="599.28,-217.82 588.83,-219.56 598.08,-224.72 599.28,-217.82"/>
</g>
<!-- Node18&#45;&gt;Node10 -->
<g id="edge24" class="edge">
<title>Node18&#45;&gt;Node10</title>
<path fill="none" stroke="midnightblue" d="M896.86,-257.4C886.09,-248.54 872.02,-236.96 860.02,-227.09"/>
<polygon fill="midnightblue" stroke="midnightblue" points="862.05,-224.23 852.11,-220.58 857.61,-229.63 862.05,-224.23"/>
</g>
<!-- Node19 -->
<g id="node19" class="node">
<title>Node19</title>
<g id="a_node19"><a xlink:href="ODMultiAgentState_8h.html" target="_top" xlink:title=" ">
<polygon fill="white" stroke="black" points="706,-129 706,-148 868,-148 868,-129 706,-129"/>
<text text-anchor="middle" x="787" y="-136" font-family="Helvetica,sans-Serif" font-size="10.00">../States/ODMultiAgentState.h</text>
</a>
</g>
</g>
<!-- Node18&#45;&gt;Node19 -->
<g id="edge22" class="edge">
<title>Node18&#45;&gt;Node19</title>
<path fill="none" stroke="midnightblue" d="M914.72,-257.21C914.84,-239.55 912.5,-209.44 897,-190 881.84,-170.98 857.89,-158.83 836.21,-151.23"/>
<polygon fill="midnightblue" stroke="midnightblue" points="837.04,-147.82 826.44,-148.06 834.87,-154.48 837.04,-147.82"/>
</g>
<!-- Node19&#45;&gt;Node16 -->
<g id="edge23" class="edge">
<title>Node19&#45;&gt;Node16</title>
<path fill="none" stroke="midnightblue" d="M798.73,-128.73C812.95,-118.11 837.13,-100.05 854.24,-87.26"/>
<polygon fill="midnightblue" stroke="midnightblue" points="856.54,-89.92 862.45,-81.13 852.35,-84.31 856.54,-89.92"/>
</g>
<!-- Node20&#45;&gt;Node2 -->
<g id="edge26" class="edge">
<title>Node20&#45;&gt;Node2</title>
<path fill="none" stroke="midnightblue" d="M651.55,-257.4C626.45,-247.69 592.91,-234.71 565.98,-224.29"/>
<polygon fill="midnightblue" stroke="midnightblue" points="566.97,-220.92 556.38,-220.58 564.45,-227.45 566.97,-220.92"/>
</g>
<!-- Node20&#45;&gt;Node10 -->
<g id="edge29" class="edge">
<title>Node20&#45;&gt;Node10</title>
<path fill="none" stroke="midnightblue" d="M719.9,-257.4C741.57,-247.81 770.43,-235.05 793.84,-224.7"/>
<polygon fill="midnightblue" stroke="midnightblue" points="795.44,-227.82 803.17,-220.58 792.6,-221.42 795.44,-227.82"/>
</g>
<!-- Node21 -->
<g id="node21" class="node">
<title>Node21</title>
<g id="a_node21"><a xlink:href="ODMultiAgentSpaceTimeState_8h.html" target="_top" xlink:title=" ">
<polygon fill="white" stroke="black" points="606.5,-190.5 606.5,-220.5 763.5,-220.5 763.5,-190.5 606.5,-190.5"/>
<text text-anchor="start" x="614.5" y="-208.5" font-family="Helvetica,sans-Serif" font-size="10.00">../States/ODMultiAgentSpace</text>
<text text-anchor="middle" x="685" y="-197.5" font-family="Helvetica,sans-Serif" font-size="10.00">TimeState.h</text>
</a>
</g>
</g>
<!-- Node20&#45;&gt;Node21 -->
<g id="edge27" class="edge">
<title>Node20&#45;&gt;Node21</title>
<path fill="none" stroke="midnightblue" d="M687.35,-257.4C686.99,-249.64 686.54,-239.81 686.12,-230.86"/>
<polygon fill="midnightblue" stroke="midnightblue" points="689.61,-230.4 685.65,-220.58 682.61,-230.73 689.61,-230.4"/>
</g>
<!-- Node21&#45;&gt;Node19 -->
<g id="edge28" class="edge">
<title>Node21&#45;&gt;Node19</title>
<path fill="none" stroke="midnightblue" d="M707.13,-190.4C724.24,-179.5 747.8,-164.48 764.9,-153.58"/>
<polygon fill="midnightblue" stroke="midnightblue" points="767.1,-156.33 773.65,-148.01 763.34,-150.43 767.1,-156.33"/>
</g>
<!-- Node22&#45;&gt;Node10 -->
<g id="edge35" class="edge">
<title>Node22&#45;&gt;Node10</title>
<path fill="none" stroke="midnightblue" d="M1032.63,-257.48C993.25,-247.32 939.89,-233.55 898.54,-222.89"/>
<polygon fill="midnightblue" stroke="midnightblue" points="899.4,-219.5 888.84,-220.39 897.65,-226.27 899.4,-219.5"/>
</g>
<!-- Node22&#45;&gt;Node14 -->
<g id="edge32" class="edge">
<title>Node22&#45;&gt;Node14</title>
<path fill="none" stroke="midnightblue" d="M1123.02,-257.4C1152.53,-245.84 1193.86,-229.66 1221.94,-218.66"/>
<polygon fill="midnightblue" stroke="midnightblue" points="1223.24,-221.91 1231.27,-215.01 1220.69,-215.39 1223.24,-221.91"/>
</g>
<!-- Node23 -->
<g id="node23" class="node">
<title>Node23</title>
<g id="a_node23"><a xlink:href="SingleAgentSpaceTimeState_8h.html" target="_top" xlink:title=" ">
<polygon fill="white" stroke="black" points="886.5,-123.5 886.5,-153.5 1033.5,-153.5 1033.5,-123.5 886.5,-123.5"/>
<text text-anchor="start" x="894.5" y="-141.5" font-family="Helvetica,sans-Serif" font-size="10.00">../States/SingleAgentSpace</text>
<text text-anchor="middle" x="960" y="-130.5" font-family="Helvetica,sans-Serif" font-size="10.00">TimeState.h</text>
</a>
</g>
</g>
<!-- Node22&#45;&gt;Node23 -->
<g id="edge33" class="edge">
<title>Node22&#45;&gt;Node23</title>
<path fill="none" stroke="midnightblue" d="M1073.41,-257.37C1051.16,-234.25 1006.83,-188.18 980.67,-160.99"/>
<polygon fill="midnightblue" stroke="midnightblue" points="982.95,-158.3 973.49,-153.52 977.9,-163.16 982.95,-158.3"/>
</g>
<!-- Node23&#45;&gt;Node16 -->
<g id="edge34" class="edge">
<title>Node23&#45;&gt;Node16</title>
<path fill="none" stroke="midnightblue" d="M941.34,-123.4C927.27,-112.76 908.01,-98.2 893.69,-87.38"/>
<polygon fill="midnightblue" stroke="midnightblue" points="895.59,-84.43 885.5,-81.19 891.37,-90.02 895.59,-84.43"/>
</g>
<!-- Node24&#45;&gt;Node2 -->
<g id="edge37" class="edge">
<title>Node24&#45;&gt;Node2</title>
<path fill="none" stroke="midnightblue" d="M501.99,-257.4C504.79,-249.47 508.37,-239.38 511.59,-230.27"/>
<polygon fill="midnightblue" stroke="midnightblue" points="514.98,-231.17 515.02,-220.58 508.38,-228.84 514.98,-231.17"/>
</g>
<!-- Node24&#45;&gt;Node10 -->
<g id="edge40" class="edge">
<title>Node24&#45;&gt;Node10</title>
<path fill="none" stroke="midnightblue" d="M570.21,-258.44C633.68,-247.05 721.74,-231.07 771.42,-221.05"/>
<polygon fill="midnightblue" stroke="midnightblue" points="772.32,-224.44 781.42,-219 770.92,-217.58 772.32,-224.44"/>
</g>
<!-- Node25 -->
<g id="node25" class="node">
<title>Node25</title>
<g id="a_node25"><a xlink:href="StandardMultiAgentState_8h.html" target="_top" xlink:title=" ">
<polygon fill="white" stroke="black" points="345,-123.5 345,-153.5 501,-153.5 501,-123.5 345,-123.5"/>
<text text-anchor="start" x="353" y="-141.5" font-family="Helvetica,sans-Serif" font-size="10.00">../States/StandardMultiAgent</text>
<text text-anchor="middle" x="423" y="-130.5" font-family="Helvetica,sans-Serif" font-size="10.00">State.h</text>
</a>
</g>
</g>
<!-- Node24&#45;&gt;Node25 -->
<g id="edge38" class="edge">
<title>Node24&#45;&gt;Node25</title>
<path fill="none" stroke="midnightblue" d="M476.32,-257.42C464.55,-248.35 450.5,-235.55 442,-221 431.78,-203.5 427.06,-180.89 424.88,-163.92"/>
<polygon fill="midnightblue" stroke="midnightblue" points="428.33,-163.26 423.78,-153.69 421.37,-164.01 428.33,-163.26"/>
</g>
<!-- Node25&#45;&gt;Node16 -->
<g id="edge39" class="edge">
<title>Node25&#45;&gt;Node16</title>
<path fill="none" stroke="midnightblue" d="M501.04,-126.25C599.8,-112.02 765.76,-88.1 838.28,-77.65"/>
<polygon fill="midnightblue" stroke="midnightblue" points="838.88,-81.1 848.28,-76.21 837.89,-74.17 838.88,-81.1"/>
</g>
<!-- Node26&#45;&gt;Node2 -->
<g id="edge42" class="edge">
<title>Node26&#45;&gt;Node2</title>
<path fill="none" stroke="midnightblue" d="M342.76,-257.48C377.54,-247.47 424.48,-233.97 461.32,-223.38"/>
<polygon fill="midnightblue" stroke="midnightblue" points="462.29,-226.74 470.94,-220.61 460.36,-220.01 462.29,-226.74"/>
</g>
<!-- Node26&#45;&gt;Node10 -->
<g id="edge45" class="edge">
<title>Node26&#45;&gt;Node10</title>
<path fill="none" stroke="midnightblue" d="M406.06,-258C409.07,-257.66 412.06,-257.32 415,-257 570.26,-239.87 612.91,-246.64 771.37,-220.96"/>
<polygon fill="midnightblue" stroke="midnightblue" points="772.17,-224.37 781.47,-219.3 771.04,-217.46 772.17,-224.37"/>
</g>
<!-- Node27 -->
<g id="node27" class="node">
<title>Node27</title>
<g id="a_node27"><a xlink:href="StandardMultiAgentSpaceTimeState_8h.html" target="_top" xlink:title=" ">
<polygon fill="white" stroke="black" points="229,-190.5 229,-220.5 385,-220.5 385,-190.5 229,-190.5"/>
<text text-anchor="start" x="237" y="-208.5" font-family="Helvetica,sans-Serif" font-size="10.00">../States/StandardMultiAgent</text>
<text text-anchor="middle" x="307" y="-197.5" font-family="Helvetica,sans-Serif" font-size="10.00">SpaceTimeState.h</text>
</a>
</g>
</g>
<!-- Node26&#45;&gt;Node27 -->
<g id="edge43" class="edge">
<title>Node26&#45;&gt;Node27</title>
<path fill="none" stroke="midnightblue" d="M296.82,-257.4C298.39,-249.56 300.38,-239.6 302.19,-230.57"/>
<polygon fill="midnightblue" stroke="midnightblue" points="305.66,-231.07 304.18,-220.58 298.79,-229.7 305.66,-231.07"/>
</g>
<!-- Node27&#45;&gt;Node25 -->
<g id="edge44" class="edge">
<title>Node27&#45;&gt;Node25</title>
<path fill="none" stroke="midnightblue" d="M332.17,-190.4C348.74,-181.11 370.64,-168.84 388.78,-158.67"/>
<polygon fill="midnightblue" stroke="midnightblue" points="390.87,-161.52 397.88,-153.58 387.44,-155.41 390.87,-161.52"/>
</g>
<!-- Node29&#45;&gt;Node6 -->
<g id="edge49" class="edge">
<title>Node29&#45;&gt;Node6</title>
<path fill="none" stroke="midnightblue" d="M65.99,-396.98C73.02,-376.16 90,-320.98 90,-273.5 90,-273.5 90,-273.5 90,-137.5 90,-35.35 867.54,-15.44 1098.23,-11.78"/>
<polygon fill="midnightblue" stroke="midnightblue" points="1098.53,-15.28 1108.47,-11.62 1098.42,-8.28 1098.53,-15.28"/>
</g>
<!-- Node30&#45;&gt;Node5 -->
<g id="edge52" class="edge">
<title>Node30&#45;&gt;Node5</title>
<path fill="none" stroke="midnightblue" d="M1428.08,-61.98C1404.55,-51.9 1365.19,-35.05 1338.21,-23.5"/>
<polygon fill="midnightblue" stroke="midnightblue" points="1339.45,-20.23 1328.88,-19.51 1336.69,-26.66 1339.45,-20.23"/>
</g>
<!-- Node30&#45;&gt;Node6 -->
<g id="edge53" class="edge">
<title>Node30&#45;&gt;Node6</title>
<path fill="none" stroke="midnightblue" d="M1411.72,-61.97C1402.98,-59.97 1393.67,-57.87 1385,-56 1327.39,-43.56 1261.18,-30.33 1215.96,-21.46"/>
<polygon fill="midnightblue" stroke="midnightblue" points="1216.56,-18.02 1206.08,-19.53 1215.22,-24.89 1216.56,-18.02"/>
</g>
<!-- Node31 -->
<g id="node31" class="node">
<title>Node31</title>
<g id="a_node31"><a xlink:href="AgentConflict_8h.html" target="_top" xlink:title=" ">
<polygon fill="white" stroke="black" points="1402.5,-0.5 1402.5,-19.5 1493.5,-19.5 1493.5,-0.5 1402.5,-0.5"/>
<text text-anchor="middle" x="1448" y="-7.5" font-family="Helvetica,sans-Serif" font-size="10.00">AgentConflict.h</text>
</a>
</g>
</g>
<!-- Node30&#45;&gt;Node31 -->
<g id="edge54" class="edge">
<title>Node30&#45;&gt;Node31</title>
<path fill="none" stroke="midnightblue" d="M1448,-61.98C1448,-53.58 1448,-40.48 1448,-29.66"/>
<polygon fill="midnightblue" stroke="midnightblue" points="1451.5,-29.51 1448,-19.51 1444.5,-29.51 1451.5,-29.51"/>
</g>
</g>
</svg>
