<?xml version="1.0" encoding="UTF-8" standalone="no"?>
<!DOCTYPE svg PUBLIC "-//W3C//DTD SVG 1.1//EN"
 "http://www.w3.org/Graphics/SVG/1.1/DTD/svg11.dtd">
<!-- Generated by graphviz version 2.43.0 (0)
 -->
<!-- Title: Solvers/CBS/ConflictBasedSearch.h Pages: 1 -->
<svg width="443pt" height="229pt"
 viewBox="0.00 0.00 443.00 229.00" xmlns="http://www.w3.org/2000/svg" xmlns:xlink="http://www.w3.org/1999/xlink">
<g id="graph0" class="graph" transform="scale(1 1) rotate(0) translate(4 225)">
<title>Solvers/CBS/ConflictBasedSearch.h</title>
<polygon fill="white" stroke="transparent" points="-4,4 -4,-225 439,-225 439,4 -4,4"/>
<!-- Node1 -->
<g id="node1" class="node">
<title>Node1</title>
<g id="a_node1"><a xlink:title=" ">
<polygon fill="#bfbfbf" stroke="black" points="88,-190.5 88,-220.5 233,-220.5 233,-190.5 88,-190.5"/>
<text text-anchor="start" x="96" y="-208.5" font-family="Helvetica,sans-Serif" font-size="10.00">Solvers/CBS/ConflictBased</text>
<text text-anchor="middle" x="160.5" y="-197.5" font-family="Helvetica,sans-Serif" font-size="10.00">Search.h</text>
</a>
</g>
</g>
<!-- Node2 -->
<g id="node2" class="node">
<title>Node2</title>
<g id="a_node2"><a xlink:href="ConflictBasedSearch_8cpp.html" target="_top" xlink:title=" ">
<polygon fill="white" stroke="black" points="0,-123.5 0,-153.5 145,-153.5 145,-123.5 0,-123.5"/>
<text text-anchor="start" x="8" y="-141.5" font-family="Helvetica,sans-Serif" font-size="10.00">Solvers/CBS/ConflictBased</text>
<text text-anchor="middle" x="72.5" y="-130.5" font-family="Helvetica,sans-Serif" font-size="10.00">Search.cpp</text>
</a>
</g>
</g>
<!-- Node1&#45;&gt;Node2 -->
<g id="edge1" class="edge">
<title>Node1&#45;&gt;Node2</title>
<path fill="none" stroke="midnightblue" d="M133.36,-184.45C119.82,-174.45 103.77,-162.6 91.56,-153.58"/>
<polygon fill="midnightblue" stroke="midnightblue" points="131.28,-187.27 141.41,-190.4 135.44,-181.64 131.28,-187.27"/>
</g>
<!-- Node3 -->
<g id="node3" class="node">
<title>Node3</title>
<g id="a_node3"><a xlink:href="SimpleIndependenceDetection_8h.html" target="_top" xlink:title=" ">
<polygon fill="white" stroke="black" points="163,-123.5 163,-153.5 334,-153.5 334,-123.5 163,-123.5"/>
<text text-anchor="start" x="171" y="-141.5" font-family="Helvetica,sans-Serif" font-size="10.00">Solvers/ID/SimpleIndependence</text>
<text text-anchor="middle" x="248.5" y="-130.5" font-family="Helvetica,sans-Serif" font-size="10.00">Detection.h</text>
</a>
</g>
</g>
<!-- Node1&#45;&gt;Node3 -->
<g id="edge2" class="edge">
<title>Node1&#45;&gt;Node3</title>
<path fill="none" stroke="midnightblue" d="M187.64,-184.45C201.18,-174.45 217.23,-162.6 229.44,-153.58"/>
<polygon fill="midnightblue" stroke="midnightblue" points="185.56,-181.64 179.59,-190.4 189.72,-187.27 185.56,-181.64"/>
</g>
<!-- Node4 -->
<g id="node4" class="node">
<title>Node4</title>
<g id="a_node4"><a xlink:href="IndependenceDetection_8h.html" target="_top" xlink:title=" ">
<polygon fill="white" stroke="black" points="51.5,-62 51.5,-81 245.5,-81 245.5,-62 51.5,-62"/>
<text text-anchor="middle" x="148.5" y="-69" font-family="Helvetica,sans-Serif" font-size="10.00">Solvers/ID/IndependenceDetection.h</text>
</a>
</g>
</g>
<!-- Node3&#45;&gt;Node4 -->
<g id="edge3" class="edge">
<title>Node3&#45;&gt;Node4</title>
<path fill="none" stroke="midnightblue" d="M218.2,-117.81C199.29,-105.51 175.89,-90.3 161.59,-81.01"/>
<polygon fill="midnightblue" stroke="midnightblue" points="216.51,-120.88 226.8,-123.4 220.32,-115.01 216.51,-120.88"/>
</g>
<!-- Node6 -->
<g id="node6" class="node">
<title>Node6</title>
<g id="a_node6"><a xlink:href="SimpleIndependenceDetection_8cpp.html" target="_top" xlink:title=" ">
<polygon fill="white" stroke="black" points="264,-56.5 264,-86.5 435,-86.5 435,-56.5 264,-56.5"/>
<text text-anchor="start" x="272" y="-74.5" font-family="Helvetica,sans-Serif" font-size="10.00">Solvers/ID/SimpleIndependence</text>
<text text-anchor="middle" x="349.5" y="-63.5" font-family="Helvetica,sans-Serif" font-size="10.00">Detection.cpp</text>
</a>
</g>
</g>
<!-- Node3&#45;&gt;Node6 -->
<g id="edge5" class="edge">
<title>Node3&#45;&gt;Node6</title>
<path fill="none" stroke="midnightblue" d="M279.21,-117.73C294.84,-107.68 313.47,-95.68 327.63,-86.58"/>
<polygon fill="midnightblue" stroke="midnightblue" points="276.93,-115.04 270.42,-123.4 280.72,-120.93 276.93,-115.04"/>
</g>
<!-- Node5 -->
<g id="node5" class="node">
<title>Node5</title>
<g id="a_node5"><a xlink:href="IndependenceDetection_8cpp.html" target="_top" xlink:title=" ">
<polygon fill="white" stroke="black" points="46,-0.5 46,-19.5 251,-19.5 251,-0.5 46,-0.5"/>
<text text-anchor="middle" x="148.5" y="-7.5" font-family="Helvetica,sans-Serif" font-size="10.00">Solvers/ID/IndependenceDetection.cpp</text>
</a>
</g>
</g>
<!-- Node4&#45;&gt;Node5 -->
<g id="edge4" class="edge">
<title>Node4&#45;&gt;Node5</title>
<path fill="none" stroke="midnightblue" d="M148.5,-51.82C148.5,-41 148.5,-27.9 148.5,-19.51"/>
<polygon fill="midnightblue" stroke="midnightblue" points="145,-51.98 148.5,-61.98 152,-51.98 145,-51.98"/>
</g>
</g>
</svg>
