<?xml version="1.0" encoding="UTF-8" standalone="no"?>
<!DOCTYPE svg PUBLIC "-//W3C//DTD SVG 1.1//EN"
 "http://www.w3.org/Graphics/SVG/1.1/DTD/svg11.dtd">
<!-- Generated by graphviz version 2.43.0 (0)
 -->
<!-- Title: ConstraintsSet.h Pages: 1 -->
<!--zoomable 722 -->
<svg id="main" version="1.1" xmlns="http://www.w3.org/2000/svg" xmlns:xlink="http://www.w3.org/1999/xlink" xml:space="preserve" onload="init(evt)">
<style type="text/css"><![CDATA[
.edge:hover path { stroke: red; }
.edge:hover polygon { stroke: red; fill: red; }
]]></style>
<script type="text/javascript"><![CDATA[
var edges = document.getElementsByTagName('g');
if (edges && edges.length) {
  for (var i=0;i<edges.length;i++) {
    if (edges[i].id.substr(0,4)=='edge') {
      edges[i].setAttribute('class','edge');
    }
  }
}
]]></script>
        <defs>
                <circle id="rim" cx="0" cy="0" r="7"/>
                <circle id="rim2" cx="0" cy="0" r="3.5"/>
                <g id="zoomPlus">
                        <use xlink:href="#rim" fill="#404040">
                                <set attributeName="fill" to="#808080" begin="zoomplus.mouseover" end="zoomplus.mouseout"/>
                        </use>
                        <path d="M-4,0h8M0,-4v8" fill="none" stroke="white" stroke-width="1.5" pointer-events="none"/>
                </g>
                <g id="zoomMin">
                        <use xlink:href="#rim" fill="#404040">
                                <set attributeName="fill" to="#808080" begin="zoomminus.mouseover" end="zoomminus.mouseout"/>
                        </use>
                        <path d="M-4,0h8" fill="none" stroke="white" stroke-width="1.5" pointer-events="none"/>
                </g>
                <g id="dirArrow">
                        <path fill="none" stroke="white" stroke-width="1.5" d="M0,-3.0v7 M-2.5,-0.5L0,-3.0L2.5,-0.5"/>
                </g>
               <g id="resetDef">
                       <use xlink:href="#rim2" fill="#404040">
                               <set attributeName="fill" to="#808080" begin="reset.mouseover" end="reset.mouseout"/>
                       </use>
               </g>
        </defs>

<script type="text/javascript">
var viewWidth = 1905;
var viewHeight = 722;
var sectionId = 'dynsection-1';
</script>
<script xlink:href="svgpan.js"/>
<svg id="graph" class="graph">
<g id="viewport">
<title>ConstraintsSet.h</title>
<polygon fill="white" stroke="transparent" points="-4,4 -4,-718 1900.5,-718 1900.5,4 -4,4"/>
<!-- Node1 -->
<g id="node1" class="node">
<title>Node1</title>
<g id="a_node1"><a xlink:title=" ">
<polygon fill="#bfbfbf" stroke="black" points="368,-694.5 368,-713.5 465,-713.5 465,-694.5 368,-694.5"/>
<text text-anchor="middle" x="416.5" y="-701.5" font-family="Helvetica,sans-Serif" font-size="10.00">ConstraintsSet.h</text>
</a>
</g>
</g>
<!-- Node2 -->
<g id="node2" class="node">
<title>Node2</title>
<g id="a_node2"><a xlink:href="Problem_8h.html" target="_top" xlink:title=" ">
<polygon fill="white" stroke="black" points="383.5,-638.5 383.5,-657.5 449.5,-657.5 449.5,-638.5 383.5,-638.5"/>
<text text-anchor="middle" x="416.5" y="-645.5" font-family="Helvetica,sans-Serif" font-size="10.00">Problem.h</text>
</a>
</g>
</g>
<!-- Node1&#45;&gt;Node2 -->
<g id="edge1" class="edge">
<title>Node1&#45;&gt;Node2</title>
<path fill="none" stroke="midnightblue" d="M416.5,-683.8C416.5,-674.91 416.5,-664.78 416.5,-657.75"/>
<polygon fill="midnightblue" stroke="midnightblue" points="413,-684.08 416.5,-694.08 420,-684.08 413,-684.08"/>
</g>
<!-- Node3 -->
<g id="node3" class="node">
<title>Node3</title>
<g id="a_node3"><a xlink:href="MultiAgentProblem_8h.html" target="_top" xlink:title=" ">
<polygon fill="white" stroke="black" points="357,-582.5 357,-601.5 476,-601.5 476,-582.5 357,-582.5"/>
<text text-anchor="middle" x="416.5" y="-589.5" font-family="Helvetica,sans-Serif" font-size="10.00">MultiAgentProblem.h</text>
</a>
</g>
</g>
<!-- Node2&#45;&gt;Node3 -->
<g id="edge2" class="edge">
<title>Node2&#45;&gt;Node3</title>
<path fill="none" stroke="midnightblue" d="M416.5,-627.8C416.5,-618.91 416.5,-608.78 416.5,-601.75"/>
<polygon fill="midnightblue" stroke="midnightblue" points="413,-628.08 416.5,-638.08 420,-628.08 413,-628.08"/>
</g>
<!-- Node9 -->
<g id="node9" class="node">
<title>Node9</title>
<g id="a_node9"><a xlink:href="GeneralAStar_8h.html" target="_top" xlink:title=" ">
<polygon fill="white" stroke="black" points="125,-224.5 125,-243.5 214,-243.5 214,-224.5 125,-224.5"/>
<text text-anchor="middle" x="169.5" y="-231.5" font-family="Helvetica,sans-Serif" font-size="10.00">GeneralAStar.h</text>
</a>
</g>
</g>
<!-- Node2&#45;&gt;Node9 -->
<g id="edge44" class="edge">
<title>Node2&#45;&gt;Node9</title>
<path fill="none" stroke="midnightblue" d="M373.29,-642.3C278.07,-630.73 58.5,-596.97 58.5,-531.5 58.5,-531.5 58.5,-531.5 58.5,-345 58.5,-294.27 117.73,-258.96 149.66,-243.61"/>
<polygon fill="midnightblue" stroke="midnightblue" points="373.12,-645.8 383.46,-643.5 373.94,-638.85 373.12,-645.8"/>
</g>
<!-- Node26 -->
<g id="node26" class="node">
<title>Node26</title>
<g id="a_node26"><a xlink:href="SingleAgentProblem_8h.html" target="_top" xlink:title=" ">
<polygon fill="white" stroke="black" points="1577,-582.5 1577,-601.5 1702,-601.5 1702,-582.5 1577,-582.5"/>
<text text-anchor="middle" x="1639.5" y="-589.5" font-family="Helvetica,sans-Serif" font-size="10.00">SingleAgentProblem.h</text>
</a>
</g>
</g>
<!-- Node2&#45;&gt;Node26 -->
<g id="edge33" class="edge">
<title>Node2&#45;&gt;Node26</title>
<path fill="none" stroke="midnightblue" d="M459.61,-645.1C643.15,-636.99 1360.04,-605.34 1576.97,-595.76"/>
<polygon fill="midnightblue" stroke="midnightblue" points="459.36,-641.6 449.53,-645.54 459.67,-648.6 459.36,-641.6"/>
</g>
<!-- Node4 -->
<g id="node4" class="node">
<title>Node4</title>
<g id="a_node4"><a xlink:href="ODMultiAgentAStarProblem_8h.html" target="_top" xlink:title=" ">
<polygon fill="white" stroke="black" points="790,-521 790,-540 951,-540 951,-521 790,-521"/>
<text text-anchor="middle" x="870.5" y="-528" font-family="Helvetica,sans-Serif" font-size="10.00">ODMultiAgentAStarProblem.h</text>
</a>
</g>
</g>
<!-- Node3&#45;&gt;Node4 -->
<g id="edge3" class="edge">
<title>Node3&#45;&gt;Node4</title>
<path fill="none" stroke="midnightblue" d="M486.21,-583.15C559.55,-574.72 678.3,-560.55 780.5,-546 793.19,-544.19 806.86,-542.08 819.62,-540.03"/>
<polygon fill="midnightblue" stroke="midnightblue" points="485.71,-579.69 476.17,-584.3 486.51,-586.64 485.71,-579.69"/>
</g>
<!-- Node10 -->
<g id="node10" class="node">
<title>Node10</title>
<g id="a_node10"><a xlink:href="ConflictBasedSearch_8h.html" target="_top" xlink:title=" ">
<polygon fill="white" stroke="black" points="42,-168.5 42,-187.5 167,-187.5 167,-168.5 42,-168.5"/>
<text text-anchor="middle" x="104.5" y="-175.5" font-family="Helvetica,sans-Serif" font-size="10.00">ConflictBasedSearch.h</text>
</a>
</g>
</g>
<!-- Node3&#45;&gt;Node10 -->
<g id="edge30" class="edge">
<title>Node3&#45;&gt;Node10</title>
<path fill="none" stroke="midnightblue" d="M346.83,-585.17C280.03,-578.5 184.85,-565.87 153.5,-546 116.17,-522.33 96.5,-508.7 96.5,-464.5 96.5,-464.5 96.5,-464.5 96.5,-289 96.5,-251.09 101.29,-206.02 103.45,-187.54"/>
<polygon fill="midnightblue" stroke="midnightblue" points="346.59,-588.66 356.88,-586.15 347.27,-581.69 346.59,-588.66"/>
</g>
<!-- Node12 -->
<g id="node12" class="node">
<title>Node12</title>
<g id="a_node12"><a xlink:href="SimpleIndependenceDetection_8h.html" target="_top" xlink:title=" ">
<polygon fill="white" stroke="black" points="155,-112.5 155,-131.5 330,-131.5 330,-112.5 155,-112.5"/>
<text text-anchor="middle" x="242.5" y="-119.5" font-family="Helvetica,sans-Serif" font-size="10.00">SimpleIndependenceDetection.h</text>
</a>
</g>
</g>
<!-- Node3&#45;&gt;Node12 -->
<g id="edge31" class="edge">
<title>Node3&#45;&gt;Node12</title>
<path fill="none" stroke="midnightblue" d="M346.74,-586.88C286.66,-581.71 206.55,-570.35 186.5,-546 177.74,-535.36 185.52,-528.74 186.5,-515 192.12,-435.97 233.02,-181.46 241.11,-131.54"/>
<polygon fill="midnightblue" stroke="midnightblue" points="346.7,-590.39 356.95,-587.72 347.27,-583.42 346.7,-590.39"/>
</g>
<!-- Node16 -->
<g id="node16" class="node">
<title>Node16</title>
<g id="a_node16"><a xlink:href="CooperativeAStar_8h.html" target="_top" xlink:title=" ">
<polygon fill="white" stroke="black" points="285.5,-224.5 285.5,-243.5 395.5,-243.5 395.5,-224.5 285.5,-224.5"/>
<text text-anchor="middle" x="340.5" y="-231.5" font-family="Helvetica,sans-Serif" font-size="10.00">CooperativeAStar.h</text>
</a>
</g>
</g>
<!-- Node3&#45;&gt;Node16 -->
<g id="edge32" class="edge">
<title>Node3&#45;&gt;Node16</title>
<path fill="none" stroke="midnightblue" d="M398.29,-575.6C389.88,-567.58 380.47,-557.13 374.5,-546 343.63,-488.43 340.5,-468.33 340.5,-403 340.5,-403 340.5,-403 340.5,-345 340.5,-307.19 340.5,-262.06 340.5,-243.56"/>
<polygon fill="midnightblue" stroke="midnightblue" points="396.13,-578.37 405.89,-582.49 400.83,-573.18 396.13,-578.37"/>
</g>
<!-- Node19 -->
<g id="node19" class="node">
<title>Node19</title>
<g id="a_node19"><a xlink:href="ODMultiAgentAStarProblemWithConstraints_8h.html" target="_top" xlink:title=" ">
<polygon fill="white" stroke="black" points="969.5,-515.5 969.5,-545.5 1121.5,-545.5 1121.5,-515.5 969.5,-515.5"/>
<text text-anchor="start" x="977.5" y="-533.5" font-family="Helvetica,sans-Serif" font-size="10.00">ODMultiAgentAStarProblem</text>
<text text-anchor="middle" x="1045.5" y="-522.5" font-family="Helvetica,sans-Serif" font-size="10.00">WithConstraints.h</text>
</a>
</g>
</g>
<!-- Node3&#45;&gt;Node19 -->
<g id="edge20" class="edge">
<title>Node3&#45;&gt;Node19</title>
<path fill="none" stroke="midnightblue" d="M486.28,-587.16C589.98,-581.02 790.81,-567.45 960.5,-546 963.32,-545.64 966.19,-545.26 969.09,-544.86"/>
<polygon fill="midnightblue" stroke="midnightblue" points="486.02,-583.67 476.24,-587.75 486.43,-590.66 486.02,-583.67"/>
</g>
<!-- Node21 -->
<g id="node21" class="node">
<title>Node21</title>
<g id="a_node21"><a xlink:href="StandardMultiAgentAStarProblem_8h.html" target="_top" xlink:title=" ">
<polygon fill="white" stroke="black" points="384,-521 384,-540 573,-540 573,-521 384,-521"/>
<text text-anchor="middle" x="478.5" y="-528" font-family="Helvetica,sans-Serif" font-size="10.00">StandardMultiAgentAStarProblem.h</text>
</a>
</g>
</g>
<!-- Node3&#45;&gt;Node21 -->
<g id="edge23" class="edge">
<title>Node3&#45;&gt;Node21</title>
<path fill="none" stroke="midnightblue" d="M432.83,-575.32C444.61,-564.02 460.06,-549.19 469.63,-540.01"/>
<polygon fill="midnightblue" stroke="midnightblue" points="430.17,-573.03 425.38,-582.48 435.02,-578.08 430.17,-573.03"/>
</g>
<!-- Node23 -->
<g id="node23" class="node">
<title>Node23</title>
<g id="a_node23"><a xlink:href="StandardMultiAgentAStarProblemWithConstraints_8h.html" target="_top" xlink:title=" ">
<polygon fill="white" stroke="black" points="591.5,-515.5 591.5,-545.5 771.5,-545.5 771.5,-515.5 591.5,-515.5"/>
<text text-anchor="start" x="599.5" y="-533.5" font-family="Helvetica,sans-Serif" font-size="10.00">StandardMultiAgentAStarProblem</text>
<text text-anchor="middle" x="681.5" y="-522.5" font-family="Helvetica,sans-Serif" font-size="10.00">WithConstraints.h</text>
</a>
</g>
</g>
<!-- Node3&#45;&gt;Node23 -->
<g id="edge26" class="edge">
<title>Node3&#45;&gt;Node23</title>
<path fill="none" stroke="midnightblue" d="M464.47,-580.23C507.77,-570.51 571.76,-556.14 619.04,-545.52"/>
<polygon fill="midnightblue" stroke="midnightblue" points="463.46,-576.87 454.47,-582.48 464.99,-583.7 463.46,-576.87"/>
</g>
<!-- Node25 -->
<g id="node25" class="node">
<title>Node25</title>
<g id="a_node25"><a xlink:href="MultiAgentProblem_8cpp.html" target="_top" xlink:title=" ">
<polygon fill="white" stroke="black" points="196,-521 196,-540 327,-540 327,-521 196,-521"/>
<text text-anchor="middle" x="261.5" y="-528" font-family="Helvetica,sans-Serif" font-size="10.00">MultiAgentProblem.cpp</text>
</a>
</g>
</g>
<!-- Node3&#45;&gt;Node25 -->
<g id="edge29" class="edge">
<title>Node3&#45;&gt;Node25</title>
<path fill="none" stroke="midnightblue" d="M384.67,-578.78C354.55,-567.22 310.12,-550.16 283.67,-540.01"/>
<polygon fill="midnightblue" stroke="midnightblue" points="383.7,-582.16 394.29,-582.48 386.21,-575.62 383.7,-582.16"/>
</g>
<!-- Node5 -->
<g id="node5" class="node">
<title>Node5</title>
<g id="a_node5"><a xlink:href="ODMultiAgentAStarProblem_8cpp.html" target="_top" xlink:title=" ">
<polygon fill="white" stroke="black" points="784.5,-454 784.5,-473 956.5,-473 956.5,-454 784.5,-454"/>
<text text-anchor="middle" x="870.5" y="-461" font-family="Helvetica,sans-Serif" font-size="10.00">ODMultiAgentAStarProblem.cpp</text>
</a>
</g>
</g>
<!-- Node4&#45;&gt;Node5 -->
<g id="edge4" class="edge">
<title>Node4&#45;&gt;Node5</title>
<path fill="none" stroke="midnightblue" d="M870.5,-510.54C870.5,-498.17 870.5,-482.62 870.5,-473.13"/>
<polygon fill="midnightblue" stroke="midnightblue" points="867,-510.73 870.5,-520.73 874,-510.73 867,-510.73"/>
</g>
<!-- Node6 -->
<g id="node6" class="node">
<title>Node6</title>
<g id="a_node6"><a xlink:href="HeuristicManhattan_8h.html" target="_top" xlink:title=" ">
<polygon fill="white" stroke="black" points="974.5,-454 974.5,-473 1096.5,-473 1096.5,-454 974.5,-454"/>
<text text-anchor="middle" x="1035.5" y="-461" font-family="Helvetica,sans-Serif" font-size="10.00">HeuristicManhattan.h</text>
</a>
</g>
</g>
<!-- Node4&#45;&gt;Node6 -->
<g id="edge5" class="edge">
<title>Node4&#45;&gt;Node6</title>
<path fill="none" stroke="midnightblue" d="M901.97,-517.1C934.73,-504.2 985.17,-484.33 1013.76,-473.06"/>
<polygon fill="midnightblue" stroke="midnightblue" points="900.43,-513.95 892.41,-520.87 903,-520.46 900.43,-513.95"/>
</g>
<!-- Node7 -->
<g id="node7" class="node">
<title>Node7</title>
<g id="a_node7"><a xlink:href="HeuristicOptimal_8h.html" target="_top" xlink:title=" ">
<polygon fill="white" stroke="black" points="906.5,-336.5 906.5,-355.5 1014.5,-355.5 1014.5,-336.5 906.5,-336.5"/>
<text text-anchor="middle" x="960.5" y="-343.5" font-family="Helvetica,sans-Serif" font-size="10.00">HeuristicOptimal.h</text>
</a>
</g>
</g>
<!-- Node6&#45;&gt;Node7 -->
<g id="edge6" class="edge">
<title>Node6&#45;&gt;Node7</title>
<path fill="none" stroke="midnightblue" d="M1024.36,-445.34C1008.13,-420.36 978.59,-374.86 966.2,-355.78"/>
<polygon fill="midnightblue" stroke="midnightblue" points="1021.48,-447.34 1029.86,-453.82 1027.35,-443.53 1021.48,-447.34"/>
</g>
<!-- Node17 -->
<g id="node17" class="node">
<title>Node17</title>
<g id="a_node17"><a xlink:href="ReverseResumableAStar_8h.html" target="_top" xlink:title=" ">
<polygon fill="white" stroke="black" points="1025.5,-392.5 1025.5,-411.5 1171.5,-411.5 1171.5,-392.5 1025.5,-392.5"/>
<text text-anchor="middle" x="1098.5" y="-399.5" font-family="Helvetica,sans-Serif" font-size="10.00">ReverseResumableAStar.h</text>
</a>
</g>
</g>
<!-- Node6&#45;&gt;Node17 -->
<g id="edge17" class="edge">
<title>Node6&#45;&gt;Node17</title>
<path fill="none" stroke="midnightblue" d="M1052.1,-446.82C1064.07,-435.52 1079.77,-420.69 1089.49,-411.51"/>
<polygon fill="midnightblue" stroke="midnightblue" points="1049.39,-444.56 1044.53,-453.98 1054.2,-449.65 1049.39,-444.56"/>
</g>
<!-- Node8 -->
<g id="node8" class="node">
<title>Node8</title>
<g id="a_node8"><a xlink:href="AStar_8h.html" target="_top" xlink:title=" ">
<polygon fill="white" stroke="black" points="261,-280.5 261,-299.5 312,-299.5 312,-280.5 261,-280.5"/>
<text text-anchor="middle" x="286.5" y="-287.5" font-family="Helvetica,sans-Serif" font-size="10.00">AStar.h</text>
</a>
</g>
</g>
<!-- Node7&#45;&gt;Node8 -->
<g id="edge7" class="edge">
<title>Node7&#45;&gt;Node8</title>
<path fill="none" stroke="midnightblue" d="M896.47,-339.87C752.53,-328.34 408.45,-300.77 312.01,-293.04"/>
<polygon fill="midnightblue" stroke="midnightblue" points="896.24,-343.36 906.48,-340.67 896.79,-336.38 896.24,-343.36"/>
</g>
<!-- Node8&#45;&gt;Node9 -->
<g id="edge8" class="edge">
<title>Node8&#45;&gt;Node9</title>
<path fill="none" stroke="midnightblue" d="M258.84,-276.23C236.95,-266.13 207,-252.31 187.95,-243.52"/>
<polygon fill="midnightblue" stroke="midnightblue" points="257.41,-279.43 267.96,-280.44 260.35,-273.08 257.41,-279.43"/>
</g>
<!-- Node8&#45;&gt;Node16 -->
<g id="edge16" class="edge">
<title>Node8&#45;&gt;Node16</title>
<path fill="none" stroke="midnightblue" d="M302.5,-273C312.07,-263.43 323.86,-251.64 331.75,-243.75"/>
<polygon fill="midnightblue" stroke="midnightblue" points="300.01,-270.54 295.42,-280.08 304.96,-275.49 300.01,-270.54"/>
</g>
<!-- Node9&#45;&gt;Node10 -->
<g id="edge9" class="edge">
<title>Node9&#45;&gt;Node10</title>
<path fill="none" stroke="midnightblue" d="M151.23,-217.82C139.58,-208.15 124.9,-195.95 115.13,-187.83"/>
<polygon fill="midnightblue" stroke="midnightblue" points="149.13,-220.63 159.06,-224.32 153.6,-215.24 149.13,-220.63"/>
</g>
<!-- Node9&#45;&gt;Node12 -->
<g id="edge15" class="edge">
<title>Node9&#45;&gt;Node12</title>
<path fill="none" stroke="midnightblue" d="M180.81,-215.96C196.63,-192.12 224.78,-149.71 236.8,-131.59"/>
<polygon fill="midnightblue" stroke="midnightblue" points="177.84,-214.1 175.23,-224.37 183.67,-217.97 177.84,-214.1"/>
</g>
<!-- Node11 -->
<g id="node11" class="node">
<title>Node11</title>
<g id="a_node11"><a xlink:href="ConflictBasedSearch_8cpp.html" target="_top" xlink:title=" ">
<polygon fill="white" stroke="black" points="0,-112.5 0,-131.5 137,-131.5 137,-112.5 0,-112.5"/>
<text text-anchor="middle" x="68.5" y="-119.5" font-family="Helvetica,sans-Serif" font-size="10.00">ConflictBasedSearch.cpp</text>
</a>
</g>
</g>
<!-- Node10&#45;&gt;Node11 -->
<g id="edge10" class="edge">
<title>Node10&#45;&gt;Node11</title>
<path fill="none" stroke="midnightblue" d="M92.88,-159.57C86.68,-150.27 79.33,-139.25 74.33,-131.75"/>
<polygon fill="midnightblue" stroke="midnightblue" points="90.1,-161.7 98.56,-168.08 95.92,-157.82 90.1,-161.7"/>
</g>
<!-- Node10&#45;&gt;Node12 -->
<g id="edge11" class="edge">
<title>Node10&#45;&gt;Node12</title>
<path fill="none" stroke="midnightblue" d="M135.75,-164.77C161.67,-154.63 197.86,-140.47 220.74,-131.52"/>
<polygon fill="midnightblue" stroke="midnightblue" points="134.4,-161.54 126.37,-168.44 136.95,-168.06 134.4,-161.54"/>
</g>
<!-- Node13 -->
<g id="node13" class="node">
<title>Node13</title>
<g id="a_node13"><a xlink:href="IndependenceDetection_8h.html" target="_top" xlink:title=" ">
<polygon fill="white" stroke="black" points="81,-56.5 81,-75.5 222,-75.5 222,-56.5 81,-56.5"/>
<text text-anchor="middle" x="151.5" y="-63.5" font-family="Helvetica,sans-Serif" font-size="10.00">IndependenceDetection.h</text>
</a>
</g>
</g>
<!-- Node12&#45;&gt;Node13 -->
<g id="edge12" class="edge">
<title>Node12&#45;&gt;Node13</title>
<path fill="none" stroke="midnightblue" d="M219.21,-107.18C202.46,-97.24 180.4,-84.15 166.08,-75.65"/>
<polygon fill="midnightblue" stroke="midnightblue" points="217.49,-110.23 227.88,-112.32 221.07,-104.21 217.49,-110.23"/>
</g>
<!-- Node15 -->
<g id="node15" class="node">
<title>Node15</title>
<g id="a_node15"><a xlink:href="SimpleIndependenceDetection_8cpp.html" target="_top" xlink:title=" ">
<polygon fill="white" stroke="black" points="240.5,-56.5 240.5,-75.5 426.5,-75.5 426.5,-56.5 240.5,-56.5"/>
<text text-anchor="middle" x="333.5" y="-63.5" font-family="Helvetica,sans-Serif" font-size="10.00">SimpleIndependenceDetection.cpp</text>
</a>
</g>
</g>
<!-- Node12&#45;&gt;Node15 -->
<g id="edge14" class="edge">
<title>Node12&#45;&gt;Node15</title>
<path fill="none" stroke="midnightblue" d="M265.79,-107.18C282.54,-97.24 304.6,-84.15 318.92,-75.65"/>
<polygon fill="midnightblue" stroke="midnightblue" points="263.93,-104.21 257.12,-112.32 267.51,-110.23 263.93,-104.21"/>
</g>
<!-- Node14 -->
<g id="node14" class="node">
<title>Node14</title>
<g id="a_node14"><a xlink:href="IndependenceDetection_8cpp.html" target="_top" xlink:title=" ">
<polygon fill="white" stroke="black" points="75.5,-0.5 75.5,-19.5 227.5,-19.5 227.5,-0.5 75.5,-0.5"/>
<text text-anchor="middle" x="151.5" y="-7.5" font-family="Helvetica,sans-Serif" font-size="10.00">IndependenceDetection.cpp</text>
</a>
</g>
</g>
<!-- Node13&#45;&gt;Node14 -->
<g id="edge13" class="edge">
<title>Node13&#45;&gt;Node14</title>
<path fill="none" stroke="midnightblue" d="M151.5,-45.8C151.5,-36.91 151.5,-26.78 151.5,-19.75"/>
<polygon fill="midnightblue" stroke="midnightblue" points="148,-46.08 151.5,-56.08 155,-46.08 148,-46.08"/>
</g>
<!-- Node17&#45;&gt;Node7 -->
<g id="edge18" class="edge">
<title>Node17&#45;&gt;Node7</title>
<path fill="none" stroke="midnightblue" d="M1067.25,-388.77C1041.33,-378.63 1005.14,-364.47 982.26,-355.52"/>
<polygon fill="midnightblue" stroke="midnightblue" points="1066.05,-392.06 1076.63,-392.44 1068.6,-385.54 1066.05,-392.06"/>
</g>
<!-- Node18 -->
<g id="node18" class="node">
<title>Node18</title>
<g id="a_node18"><a xlink:href="ReverseResumableAStar_8cpp.html" target="_top" xlink:title=" ">
<polygon fill="white" stroke="black" points="1033,-336.5 1033,-355.5 1190,-355.5 1190,-336.5 1033,-336.5"/>
<text text-anchor="middle" x="1111.5" y="-343.5" font-family="Helvetica,sans-Serif" font-size="10.00">ReverseResumableAStar.cpp</text>
</a>
</g>
</g>
<!-- Node17&#45;&gt;Node18 -->
<g id="edge19" class="edge">
<title>Node17&#45;&gt;Node18</title>
<path fill="none" stroke="midnightblue" d="M1103.05,-382.1C1105.21,-373.14 1107.68,-362.86 1109.39,-355.75"/>
<polygon fill="midnightblue" stroke="midnightblue" points="1099.58,-381.54 1100.65,-392.08 1106.39,-383.18 1099.58,-381.54"/>
</g>
<!-- Node19&#45;&gt;Node6 -->
<g id="edge22" class="edge">
<title>Node19&#45;&gt;Node6</title>
<path fill="none" stroke="midnightblue" d="M1041.77,-505.25C1040.04,-494.02 1038.1,-481.38 1036.84,-473.19"/>
<polygon fill="midnightblue" stroke="midnightblue" points="1038.35,-506.04 1043.33,-515.4 1045.27,-504.98 1038.35,-506.04"/>
</g>
<!-- Node20 -->
<g id="node20" class="node">
<title>Node20</title>
<g id="a_node20"><a xlink:href="ODMultiAgentAStarProblemWithConstraints_8cpp.html" target="_top" xlink:title=" ">
<polygon fill="white" stroke="black" points="1114.5,-448.5 1114.5,-478.5 1266.5,-478.5 1266.5,-448.5 1114.5,-448.5"/>
<text text-anchor="start" x="1122.5" y="-466.5" font-family="Helvetica,sans-Serif" font-size="10.00">ODMultiAgentAStarProblem</text>
<text text-anchor="middle" x="1190.5" y="-455.5" font-family="Helvetica,sans-Serif" font-size="10.00">WithConstraints.cpp</text>
</a>
</g>
</g>
<!-- Node19&#45;&gt;Node20 -->
<g id="edge21" class="edge">
<title>Node19&#45;&gt;Node20</title>
<path fill="none" stroke="midnightblue" d="M1086.17,-511.27C1109.26,-500.92 1137.74,-488.15 1159.1,-478.58"/>
<polygon fill="midnightblue" stroke="midnightblue" points="1084.66,-508.11 1076.96,-515.4 1087.52,-514.5 1084.66,-508.11"/>
</g>
<!-- Node21&#45;&gt;Node6 -->
<g id="edge25" class="edge">
<title>Node21&#45;&gt;Node6</title>
<path fill="none" stroke="midnightblue" d="M546.22,-519.61C558.29,-517.98 570.76,-516.37 582.5,-515 752.32,-495.19 796.42,-504.38 965.5,-479 976.18,-477.4 987.68,-475.21 998.22,-473.02"/>
<polygon fill="midnightblue" stroke="midnightblue" points="545.63,-516.16 536.2,-520.99 546.58,-523.09 545.63,-516.16"/>
</g>
<!-- Node22 -->
<g id="node22" class="node">
<title>Node22</title>
<g id="a_node22"><a xlink:href="StandardMultiAgentAStarProblem_8cpp.html" target="_top" xlink:title=" ">
<polygon fill="white" stroke="black" points="368.5,-454 368.5,-473 568.5,-473 568.5,-454 368.5,-454"/>
<text text-anchor="middle" x="468.5" y="-461" font-family="Helvetica,sans-Serif" font-size="10.00">StandardMultiAgentAStarProblem.cpp</text>
</a>
</g>
</g>
<!-- Node21&#45;&gt;Node22 -->
<g id="edge24" class="edge">
<title>Node21&#45;&gt;Node22</title>
<path fill="none" stroke="midnightblue" d="M475.58,-510.54C473.68,-498.17 471.29,-482.62 469.83,-473.13"/>
<polygon fill="midnightblue" stroke="midnightblue" points="472.17,-511.38 477.15,-520.73 479.09,-510.32 472.17,-511.38"/>
</g>
<!-- Node23&#45;&gt;Node6 -->
<g id="edge28" class="edge">
<title>Node23&#45;&gt;Node6</title>
<path fill="none" stroke="midnightblue" d="M774.12,-513.71C829.69,-504.07 901.73,-491.27 965.5,-479 975.13,-477.15 985.48,-475.06 995.19,-473.05"/>
<polygon fill="midnightblue" stroke="midnightblue" points="773.2,-510.32 763.95,-515.47 774.4,-517.22 773.2,-510.32"/>
</g>
<!-- Node24 -->
<g id="node24" class="node">
<title>Node24</title>
<g id="a_node24"><a xlink:href="StandardMultiAgentAStarProblemWithConstraints_8cpp.html" target="_top" xlink:title=" ">
<polygon fill="white" stroke="black" points="586.5,-448.5 586.5,-478.5 766.5,-478.5 766.5,-448.5 586.5,-448.5"/>
<text text-anchor="start" x="594.5" y="-466.5" font-family="Helvetica,sans-Serif" font-size="10.00">StandardMultiAgentAStarProblem</text>
<text text-anchor="middle" x="676.5" y="-455.5" font-family="Helvetica,sans-Serif" font-size="10.00">WithConstraints.cpp</text>
</a>
</g>
</g>
<!-- Node23&#45;&gt;Node24 -->
<g id="edge27" class="edge">
<title>Node23&#45;&gt;Node24</title>
<path fill="none" stroke="midnightblue" d="M679.65,-505.4C678.95,-496.37 678.19,-486.41 677.58,-478.58"/>
<polygon fill="midnightblue" stroke="midnightblue" points="676.16,-505.69 680.42,-515.4 683.14,-505.16 676.16,-505.69"/>
</g>
<!-- Node26&#45;&gt;Node12 -->
<g id="edge42" class="edge">
<title>Node26&#45;&gt;Node12</title>
<path fill="none" stroke="midnightblue" d="M1661.93,-576.7C1673.12,-568.72 1686.21,-557.97 1695.5,-546 1719.89,-514.57 1732.5,-504.28 1732.5,-464.5 1732.5,-464.5 1732.5,-464.5 1732.5,-233 1732.5,-162.24 649.53,-132.18 330.14,-124.85"/>
<polygon fill="midnightblue" stroke="midnightblue" points="1659.76,-573.95 1653.48,-582.49 1663.71,-579.73 1659.76,-573.95"/>
</g>
<!-- Node26&#45;&gt;Node16 -->
<g id="edge43" class="edge">
<title>Node26&#45;&gt;Node16</title>
<path fill="none" stroke="midnightblue" d="M1655.52,-574.67C1662.6,-566.62 1670.44,-556.42 1675.5,-546 1691.74,-512.54 1694.5,-501.69 1694.5,-464.5 1694.5,-464.5 1694.5,-464.5 1694.5,-345 1694.5,-278.71 649.73,-244 395.68,-236.54"/>
<polygon fill="midnightblue" stroke="midnightblue" points="1652.78,-572.47 1648.57,-582.19 1657.92,-577.22 1652.78,-572.47"/>
</g>
<!-- Node27 -->
<g id="node27" class="node">
<title>Node27</title>
<g id="a_node27"><a xlink:href="SingleAgentAStarProblem_8h.html" target="_top" xlink:title=" ">
<polygon fill="white" stroke="black" points="1274,-521 1274,-540 1425,-540 1425,-521 1274,-521"/>
<text text-anchor="middle" x="1349.5" y="-528" font-family="Helvetica,sans-Serif" font-size="10.00">SingleAgentAStarProblem.h</text>
</a>
</g>
</g>
<!-- Node26&#45;&gt;Node27 -->
<g id="edge34" class="edge">
<title>Node26&#45;&gt;Node27</title>
<path fill="none" stroke="midnightblue" d="M1587.85,-580.4C1531.63,-568.87 1442.84,-550.65 1390.97,-540.01"/>
<polygon fill="midnightblue" stroke="midnightblue" points="1587.45,-583.89 1597.95,-582.48 1588.86,-577.04 1587.45,-583.89"/>
</g>
<!-- Node29 -->
<g id="node29" class="node">
<title>Node29</title>
<g id="a_node29"><a xlink:href="SingleAgentAStarProblemWithConstraints_8h.html" target="_top" xlink:title=" ">
<polygon fill="white" stroke="black" points="1502.5,-515.5 1502.5,-545.5 1666.5,-545.5 1666.5,-515.5 1502.5,-515.5"/>
<text text-anchor="start" x="1510.5" y="-533.5" font-family="Helvetica,sans-Serif" font-size="10.00">SingleAgentAStarProblemWith</text>
<text text-anchor="middle" x="1584.5" y="-522.5" font-family="Helvetica,sans-Serif" font-size="10.00">Constraints.h</text>
</a>
</g>
</g>
<!-- Node26&#45;&gt;Node29 -->
<g id="edge38" class="edge">
<title>Node26&#45;&gt;Node29</title>
<path fill="none" stroke="midnightblue" d="M1624.79,-575.09C1616.28,-565.88 1605.66,-554.39 1597.46,-545.52"/>
<polygon fill="midnightblue" stroke="midnightblue" points="1622.26,-577.51 1631.62,-582.48 1627.4,-572.76 1622.26,-577.51"/>
</g>
<!-- Node31 -->
<g id="node31" class="node">
<title>Node31</title>
<g id="a_node31"><a xlink:href="SingleAgentProblem_8cpp.html" target="_top" xlink:title=" ">
<polygon fill="white" stroke="black" points="1760.5,-521 1760.5,-540 1896.5,-540 1896.5,-521 1760.5,-521"/>
<text text-anchor="middle" x="1828.5" y="-528" font-family="Helvetica,sans-Serif" font-size="10.00">SingleAgentProblem.cpp</text>
</a>
</g>
</g>
<!-- Node26&#45;&gt;Node31 -->
<g id="edge41" class="edge">
<title>Node26&#45;&gt;Node31</title>
<path fill="none" stroke="midnightblue" d="M1676.41,-579.38C1713.15,-567.82 1768.65,-550.34 1801.47,-540.01"/>
<polygon fill="midnightblue" stroke="midnightblue" points="1675.07,-576.13 1666.58,-582.48 1677.17,-582.81 1675.07,-576.13"/>
</g>
<!-- Node27&#45;&gt;Node6 -->
<g id="edge36" class="edge">
<title>Node27&#45;&gt;Node6</title>
<path fill="none" stroke="midnightblue" d="M1298.25,-518.9C1248.88,-508.68 1172.08,-492.79 1105.5,-479 1096.14,-477.06 1086.08,-474.98 1076.59,-473.01"/>
<polygon fill="midnightblue" stroke="midnightblue" points="1297.55,-522.33 1308.05,-520.92 1298.97,-515.47 1297.55,-522.33"/>
</g>
<!-- Node27&#45;&gt;Node17 -->
<g id="edge37" class="edge">
<title>Node27&#45;&gt;Node17</title>
<path fill="none" stroke="midnightblue" d="M1338.57,-512.41C1325.72,-493.75 1302.68,-464.34 1275.5,-448 1243.84,-428.97 1204.34,-417.94 1170.69,-411.57"/>
<polygon fill="midnightblue" stroke="midnightblue" points="1335.72,-514.45 1344.17,-520.84 1341.55,-510.57 1335.72,-514.45"/>
</g>
<!-- Node28 -->
<g id="node28" class="node">
<title>Node28</title>
<g id="a_node28"><a xlink:href="SingleAgentAStarProblem_8cpp.html" target="_top" xlink:title=" ">
<polygon fill="white" stroke="black" points="1322.5,-454 1322.5,-473 1484.5,-473 1484.5,-454 1322.5,-454"/>
<text text-anchor="middle" x="1403.5" y="-461" font-family="Helvetica,sans-Serif" font-size="10.00">SingleAgentAStarProblem.cpp</text>
</a>
</g>
</g>
<!-- Node27&#45;&gt;Node28 -->
<g id="edge35" class="edge">
<title>Node27&#45;&gt;Node28</title>
<path fill="none" stroke="midnightblue" d="M1363.4,-512.77C1373.93,-500.1 1387.96,-483.2 1396.33,-473.13"/>
<polygon fill="midnightblue" stroke="midnightblue" points="1360.48,-510.81 1356.78,-520.73 1365.87,-515.28 1360.48,-510.81"/>
</g>
<!-- Node29&#45;&gt;Node6 -->
<g id="edge40" class="edge">
<title>Node29&#45;&gt;Node6</title>
<path fill="none" stroke="midnightblue" d="M1492.23,-520.27C1363.79,-507.35 1142.63,-484.79 1105.5,-479 1094.95,-477.36 1083.59,-475.18 1073.16,-473.02"/>
<polygon fill="midnightblue" stroke="midnightblue" points="1492.15,-523.78 1502.45,-521.3 1492.85,-516.82 1492.15,-523.78"/>
</g>
<!-- Node30 -->
<g id="node30" class="node">
<title>Node30</title>
<g id="a_node30"><a xlink:href="SingleAgentAStarProblemWithConstraints_8cpp.html" target="_top" xlink:title=" ">
<polygon fill="white" stroke="black" points="1502.5,-448.5 1502.5,-478.5 1666.5,-478.5 1666.5,-448.5 1502.5,-448.5"/>
<text text-anchor="start" x="1510.5" y="-466.5" font-family="Helvetica,sans-Serif" font-size="10.00">SingleAgentAStarProblemWith</text>
<text text-anchor="middle" x="1584.5" y="-455.5" font-family="Helvetica,sans-Serif" font-size="10.00">Constraints.cpp</text>
</a>
</g>
</g>
<!-- Node29&#45;&gt;Node30 -->
<g id="edge39" class="edge">
<title>Node29&#45;&gt;Node30</title>
<path fill="none" stroke="midnightblue" d="M1584.5,-505.11C1584.5,-496.15 1584.5,-486.32 1584.5,-478.58"/>
<polygon fill="midnightblue" stroke="midnightblue" points="1581,-505.4 1584.5,-515.4 1588,-505.4 1581,-505.4"/>
</g>
</g>
</svg>
        <g id="navigator" transform="translate(0 0)" fill="#404254">
                <rect fill="#f2f5e9" fill-opacity="0.5" stroke="#606060" stroke-width=".5" x="0" y="0" width="60" height="60"/>
                <use id="zoomplus" xlink:href="#zoomPlus" x="17" y="9" onmousedown="handleZoom(evt,'in')"/>
                <use id="zoomminus" xlink:href="#zoomMin" x="42" y="9" onmousedown="handleZoom(evt,'out')"/>
                <use id="reset" xlink:href="#resetDef" x="30" y="36" onmousedown="handleReset()"/>
                <g id="arrowUp" xlink:href="#dirArrow" transform="translate(30 24)" onmousedown="handlePan(0,-1)">
                  <use xlink:href="#rim" fill="#404040">
                        <set attributeName="fill" to="#808080" begin="arrowUp.mouseover" end="arrowUp.mouseout"/>
                  </use>
                  <path fill="none" stroke="white" stroke-width="1.5" d="M0,-3.0v7 M-2.5,-0.5L0,-3.0L2.5,-0.5"/>
                </g>
                <g id="arrowRight" xlink:href="#dirArrow" transform="rotate(90) translate(36 -43)" onmousedown="handlePan(1,0)">
                  <use xlink:href="#rim" fill="#404040">
                        <set attributeName="fill" to="#808080" begin="arrowRight.mouseover" end="arrowRight.mouseout"/>
                  </use>
                  <path fill="none" stroke="white" stroke-width="1.5" d="M0,-3.0v7 M-2.5,-0.5L0,-3.0L2.5,-0.5"/>
                </g>
                <g id="arrowDown" xlink:href="#dirArrow" transform="rotate(180) translate(-30 -48)" onmousedown="handlePan(0,1)">
                  <use xlink:href="#rim" fill="#404040">
                        <set attributeName="fill" to="#808080" begin="arrowDown.mouseover" end="arrowDown.mouseout"/>
                  </use>
                  <path fill="none" stroke="white" stroke-width="1.5" d="M0,-3.0v7 M-2.5,-0.5L0,-3.0L2.5,-0.5"/>
                </g>
                <g id="arrowLeft" xlink:href="#dirArrow" transform="rotate(270) translate(-36 17)" onmousedown="handlePan(-1,0)">
                  <use xlink:href="#rim" fill="#404040">
                        <set attributeName="fill" to="#808080" begin="arrowLeft.mouseover" end="arrowLeft.mouseout"/>
                  </use>
                  <path fill="none" stroke="white" stroke-width="1.5" d="M0,-3.0v7 M-2.5,-0.5L0,-3.0L2.5,-0.5"/>
                </g>
        </g>
        <svg viewBox="0 0 15 15" width="100%" height="30px" preserveAspectRatio="xMaxYMin meet">
         <g id="arrow_out" transform="scale(0.3 0.3)">
          <a xlink:href="ConstraintsSet_8h__dep__incl_org.svg" target="_base">
           <rect id="button" ry="5" rx="5" y="6" x="6" height="38" width="38"
                fill="#f2f5e9" fill-opacity="0.5" stroke="#606060" stroke-width="1.0"/>
           <path id="arrow"
             d="M 11.500037,31.436501 C 11.940474,20.09759 22.043105,11.32322 32.158766,21.979434 L 37.068811,17.246167 C 37.068811,17.246167 37.088388,32 37.088388,32 L 22.160133,31.978069 C 22.160133,31.978069 26.997745,27.140456 26.997745,27.140456 C 18.528582,18.264221 13.291696,25.230495 11.500037,31.436501 z"
             style="fill:#404040;"/>
          </a>
         </g>
        </svg>
</svg>
