<?xml version="1.0" encoding="UTF-8" standalone="no"?>
<!DOCTYPE svg PUBLIC "-//W3C//DTD SVG 1.1//EN"
 "http://www.w3.org/Graphics/SVG/1.1/DTD/svg11.dtd">
<!-- Generated by graphviz version 2.43.0 (0)
 -->
<!-- Title: Solvers/SuboptimalSolver/CooperativeAStar.h Pages: 1 -->
<!--zoomable 620 -->
<svg id="main" version="1.1" xmlns="http://www.w3.org/2000/svg" xmlns:xlink="http://www.w3.org/1999/xlink" xml:space="preserve" onload="init(evt)">
<style type="text/css"><![CDATA[
.edge:hover path { stroke: red; }
.edge:hover polygon { stroke: red; fill: red; }
]]></style>
<script type="text/javascript"><![CDATA[
var edges = document.getElementsByTagName('g');
if (edges && edges.length) {
  for (var i=0;i<edges.length;i++) {
    if (edges[i].id.substr(0,4)=='edge') {
      edges[i].setAttribute('class','edge');
    }
  }
}
]]></script>
        <defs>
                <circle id="rim" cx="0" cy="0" r="7"/>
                <circle id="rim2" cx="0" cy="0" r="3.5"/>
                <g id="zoomPlus">
                        <use xlink:href="#rim" fill="#404040">
                                <set attributeName="fill" to="#808080" begin="zoomplus.mouseover" end="zoomplus.mouseout"/>
                        </use>
                        <path d="M-4,0h8M0,-4v8" fill="none" stroke="white" stroke-width="1.5" pointer-events="none"/>
                </g>
                <g id="zoomMin">
                        <use xlink:href="#rim" fill="#404040">
                                <set attributeName="fill" to="#808080" begin="zoomminus.mouseover" end="zoomminus.mouseout"/>
                        </use>
                        <path d="M-4,0h8" fill="none" stroke="white" stroke-width="1.5" pointer-events="none"/>
                </g>
                <g id="dirArrow">
                        <path fill="none" stroke="white" stroke-width="1.5" d="M0,-3.0v7 M-2.5,-0.5L0,-3.0L2.5,-0.5"/>
                </g>
               <g id="resetDef">
                       <use xlink:href="#rim2" fill="#404040">
                               <set attributeName="fill" to="#808080" begin="reset.mouseover" end="reset.mouseout"/>
                       </use>
               </g>
        </defs>

<script type="text/javascript">
var viewWidth = 1293;
var viewHeight = 620;
var sectionId = 'dynsection-0';
</script>
<script xlink:href="svgpan.js"/>
<svg id="graph" class="graph">
<g id="viewport">
<title>Solvers/SuboptimalSolver/CooperativeAStar.h</title>
<polygon fill="white" stroke="transparent" points="-4,4 -4,-616 1289,-616 1289,4 -4,4"/>
<!-- Node1 -->
<g id="node1" class="node">
<title>Node1</title>
<g id="a_node1"><a xlink:title=" ">
<polygon fill="#bfbfbf" stroke="black" points="960,-581.5 960,-611.5 1102,-611.5 1102,-581.5 960,-581.5"/>
<text text-anchor="start" x="968" y="-599.5" font-family="Helvetica,sans-Serif" font-size="10.00">Solvers/SuboptimalSolver</text>
<text text-anchor="middle" x="1031" y="-588.5" font-family="Helvetica,sans-Serif" font-size="10.00">/CooperativeAStar.h</text>
</a>
</g>
</g>
<!-- Node2 -->
<g id="node2" class="node">
<title>Node2</title>
<g id="a_node2"><a xlink:href="MultiAgentProblem_8h.html" target="_top" xlink:title=" ">
<polygon fill="white" stroke="black" points="530.5,-190.5 530.5,-220.5 667.5,-220.5 667.5,-190.5 530.5,-190.5"/>
<text text-anchor="start" x="538.5" y="-208.5" font-family="Helvetica,sans-Serif" font-size="10.00">../../Problems/MultiAgent</text>
<text text-anchor="middle" x="599" y="-197.5" font-family="Helvetica,sans-Serif" font-size="10.00">Problem.h</text>
</a>
</g>
</g>
<!-- Node1&#45;&gt;Node2 -->
<g id="edge1" class="edge">
<title>Node1&#45;&gt;Node2</title>
<path fill="none" stroke="midnightblue" d="M1031,-581.34C1031,-558.75 1031,-513.15 1031,-474.5 1031,-474.5 1031,-474.5 1031,-405.5 1031,-254.83 852.99,-343.73 713,-288 677.72,-273.96 643.09,-246.75 621.43,-227.64"/>
<polygon fill="midnightblue" stroke="midnightblue" points="623.56,-224.85 613.79,-220.76 618.88,-230.05 623.56,-224.85"/>
</g>
<!-- Node8 -->
<g id="node8" class="node">
<title>Node8</title>
<g id="a_node8"><a xlink:href="SingleAgentProblem_8h.html" target="_top" xlink:title=" ">
<polygon fill="white" stroke="black" points="1080,-190.5 1080,-220.5 1222,-220.5 1222,-190.5 1080,-190.5"/>
<text text-anchor="start" x="1088" y="-208.5" font-family="Helvetica,sans-Serif" font-size="10.00">../../Problems/SingleAgent</text>
<text text-anchor="middle" x="1151" y="-197.5" font-family="Helvetica,sans-Serif" font-size="10.00">Problem.h</text>
</a>
</g>
</g>
<!-- Node1&#45;&gt;Node8 -->
<g id="edge7" class="edge">
<title>Node1&#45;&gt;Node8</title>
<path fill="none" stroke="midnightblue" d="M1102.19,-587.15C1168.11,-574.99 1256,-545.46 1256,-474.5 1256,-474.5 1256,-474.5 1256,-338.5 1256,-301.31 1259.05,-286.96 1237,-257 1227.06,-243.49 1212.32,-232.97 1197.84,-225.12"/>
<polygon fill="midnightblue" stroke="midnightblue" points="1199.41,-221.99 1188.91,-220.57 1196.23,-228.22 1199.41,-221.99"/>
</g>
<!-- Node9 -->
<g id="node9" class="node">
<title>Node9</title>
<g id="a_node9"><a xlink:href="AStar_8h.html" target="_top" xlink:title=" ">
<polygon fill="white" stroke="black" points="700.5,-525.5 700.5,-544.5 789.5,-544.5 789.5,-525.5 700.5,-525.5"/>
<text text-anchor="middle" x="745" y="-532.5" font-family="Helvetica,sans-Serif" font-size="10.00">../AStar/AStar.h</text>
</a>
</g>
</g>
<!-- Node1&#45;&gt;Node9 -->
<g id="edge9" class="edge">
<title>Node1&#45;&gt;Node9</title>
<path fill="none" stroke="midnightblue" d="M963.58,-581.47C912.2,-570.78 842.53,-556.29 795.79,-546.57"/>
<polygon fill="midnightblue" stroke="midnightblue" points="796.39,-543.12 785.89,-544.51 794.97,-549.97 796.39,-543.12"/>
</g>
<!-- Node3 -->
<g id="node3" class="node">
<title>Node3</title>
<g id="a_node3"><a xlink:href="Problem_8h.html" target="_top" xlink:title=" ">
<polygon fill="white" stroke="black" points="1118,-129 1118,-148 1184,-148 1184,-129 1118,-129"/>
<text text-anchor="middle" x="1151" y="-136" font-family="Helvetica,sans-Serif" font-size="10.00">Problem.h</text>
</a>
</g>
</g>
<!-- Node2&#45;&gt;Node3 -->
<g id="edge2" class="edge">
<title>Node2&#45;&gt;Node3</title>
<path fill="none" stroke="midnightblue" d="M667.79,-191.18C670.56,-190.76 673.3,-190.36 676,-190 867.36,-164.1 920.04,-193.82 1109,-154 1112.5,-153.26 1116.12,-152.31 1119.68,-151.26"/>
<polygon fill="midnightblue" stroke="midnightblue" points="1121.06,-154.49 1129.49,-148.08 1118.9,-147.83 1121.06,-154.49"/>
</g>
<!-- Node4 -->
<g id="node4" class="node">
<title>Node4</title>
<g id="a_node4"><a xlink:href="ConstraintsSet_8h.html" target="_top" xlink:title=" ">
<polygon fill="white" stroke="black" points="915,-56.5 915,-86.5 1055,-86.5 1055,-56.5 915,-56.5"/>
<text text-anchor="start" x="923" y="-74.5" font-family="Helvetica,sans-Serif" font-size="10.00">../Constraints/Constraints</text>
<text text-anchor="middle" x="985" y="-63.5" font-family="Helvetica,sans-Serif" font-size="10.00">Set.h</text>
</a>
</g>
</g>
<!-- Node3&#45;&gt;Node4 -->
<g id="edge3" class="edge">
<title>Node3&#45;&gt;Node4</title>
<path fill="none" stroke="midnightblue" d="M1128.96,-128.87C1103.94,-119.07 1062.46,-102.83 1030.43,-90.29"/>
<polygon fill="midnightblue" stroke="midnightblue" points="1031.41,-86.92 1020.83,-86.53 1028.86,-93.43 1031.41,-86.92"/>
</g>
<!-- Node7 -->
<g id="node7" class="node">
<title>Node7</title>
<g id="a_node7"><a xlink:href="Graph_8h.html" target="_top" xlink:title=" ">
<polygon fill="white" stroke="black" points="1159,-62 1159,-81 1285,-81 1285,-62 1159,-62"/>
<text text-anchor="middle" x="1222" y="-69" font-family="Helvetica,sans-Serif" font-size="10.00">../GraphParser/Graph.h</text>
</a>
</g>
</g>
<!-- Node3&#45;&gt;Node7 -->
<g id="edge6" class="edge">
<title>Node3&#45;&gt;Node7</title>
<path fill="none" stroke="midnightblue" d="M1160.58,-128.73C1171.97,-118.31 1191.19,-100.71 1205.1,-87.97"/>
<polygon fill="midnightblue" stroke="midnightblue" points="1207.56,-90.46 1212.58,-81.13 1202.84,-85.3 1207.56,-90.46"/>
</g>
<!-- Node5 -->
<g id="node5" class="node">
<title>Node5</title>
<g id="a_node5"><a xlink:href="EdgeConstraint_8h.html" target="_top" xlink:title=" ">
<polygon fill="white" stroke="black" points="935,-0.5 935,-19.5 1035,-19.5 1035,-0.5 935,-0.5"/>
<text text-anchor="middle" x="985" y="-7.5" font-family="Helvetica,sans-Serif" font-size="10.00">EdgeConstraint.h</text>
</a>
</g>
</g>
<!-- Node4&#45;&gt;Node5 -->
<g id="edge4" class="edge">
<title>Node4&#45;&gt;Node5</title>
<path fill="none" stroke="midnightblue" d="M985,-56.4C985,-48.47 985,-38.46 985,-29.86"/>
<polygon fill="midnightblue" stroke="midnightblue" points="988.5,-29.66 985,-19.66 981.5,-29.66 988.5,-29.66"/>
</g>
<!-- Node6 -->
<g id="node6" class="node">
<title>Node6</title>
<g id="a_node6"><a xlink:href="VertexConstraint_8h.html" target="_top" xlink:title=" ">
<polygon fill="white" stroke="black" points="470.5,-0.5 470.5,-19.5 577.5,-19.5 577.5,-0.5 470.5,-0.5"/>
<text text-anchor="middle" x="524" y="-7.5" font-family="Helvetica,sans-Serif" font-size="10.00">VertexConstraint.h</text>
</a>
</g>
</g>
<!-- Node4&#45;&gt;Node6 -->
<g id="edge5" class="edge">
<title>Node4&#45;&gt;Node6</title>
<path fill="none" stroke="midnightblue" d="M914.98,-61.46C826.03,-49.98 673.78,-30.33 587.87,-19.24"/>
<polygon fill="midnightblue" stroke="midnightblue" points="588.1,-15.74 577.73,-17.93 587.2,-22.69 588.1,-15.74"/>
</g>
<!-- Node8&#45;&gt;Node3 -->
<g id="edge8" class="edge">
<title>Node8&#45;&gt;Node3</title>
<path fill="none" stroke="midnightblue" d="M1151,-190.4C1151,-181.06 1151,-168.71 1151,-158.52"/>
<polygon fill="midnightblue" stroke="midnightblue" points="1154.5,-158.19 1151,-148.19 1147.5,-158.19 1154.5,-158.19"/>
</g>
<!-- Node10 -->
<g id="node10" class="node">
<title>Node10</title>
<g id="a_node10"><a xlink:href="AStarProblem_8h.html" target="_top" xlink:title=" ">
<polygon fill="white" stroke="black" points="685.5,-190.5 685.5,-220.5 792.5,-220.5 792.5,-190.5 685.5,-190.5"/>
<text text-anchor="start" x="693.5" y="-208.5" font-family="Helvetica,sans-Serif" font-size="10.00">../../AStarProblems</text>
<text text-anchor="middle" x="739" y="-197.5" font-family="Helvetica,sans-Serif" font-size="10.00">/AStarProblem.h</text>
</a>
</g>
</g>
<!-- Node9&#45;&gt;Node10 -->
<g id="edge10" class="edge">
<title>Node9&#45;&gt;Node10</title>
<path fill="none" stroke="midnightblue" d="M738.75,-525.29C725.13,-505.43 694,-454.86 694,-407.5 694,-407.5 694,-407.5 694,-338.5 694,-301.31 700.17,-291.91 713,-257 716.41,-247.72 721.14,-237.96 725.63,-229.53"/>
<polygon fill="midnightblue" stroke="midnightblue" points="728.75,-231.1 730.51,-220.66 722.62,-227.73 728.75,-231.1"/>
</g>
<!-- Node11 -->
<g id="node11" class="node">
<title>Node11</title>
<g id="a_node11"><a xlink:href="HeuristicOptimal_8h.html" target="_top" xlink:title=" ">
<polygon fill="white" stroke="black" points="774,-458.5 774,-488.5 904,-488.5 904,-458.5 774,-458.5"/>
<text text-anchor="start" x="782" y="-476.5" font-family="Helvetica,sans-Serif" font-size="10.00">../../Heuristics/Heuristic</text>
<text text-anchor="middle" x="839" y="-465.5" font-family="Helvetica,sans-Serif" font-size="10.00">Optimal.h</text>
</a>
</g>
</g>
<!-- Node9&#45;&gt;Node11 -->
<g id="edge11" class="edge">
<title>Node9&#45;&gt;Node11</title>
<path fill="none" stroke="midnightblue" d="M758.47,-525.48C771.44,-517.27 791.51,-504.56 808.38,-493.88"/>
<polygon fill="midnightblue" stroke="midnightblue" points="810.27,-496.83 816.85,-488.52 806.52,-490.91 810.27,-496.83"/>
</g>
<!-- Node28 -->
<g id="node28" class="node">
<title>Node28</title>
<g id="a_node28"><a xlink:href="Solution_8h.html" target="_top" xlink:title=" ">
<polygon fill="white" stroke="black" points="238,-397 238,-416 364,-416 364,-397 238,-397"/>
<text text-anchor="middle" x="301" y="-404" font-family="Helvetica,sans-Serif" font-size="10.00">../../Solution/Solution.h</text>
</a>
</g>
</g>
<!-- Node9&#45;&gt;Node28 -->
<g id="edge48" class="edge">
<title>Node9&#45;&gt;Node28</title>
<path fill="none" stroke="midnightblue" d="M714.83,-525.4C636.82,-503.18 428.43,-443.81 340.75,-418.83"/>
<polygon fill="midnightblue" stroke="midnightblue" points="341.49,-415.4 330.92,-416.02 339.58,-422.13 341.49,-415.4"/>
</g>
<!-- Node11&#45;&gt;Node7 -->
<g id="edge12" class="edge">
<title>Node11&#45;&gt;Node7</title>
<path fill="none" stroke="midnightblue" d="M904.19,-464.11C997.09,-448.23 1164.33,-404.24 1237,-288 1276.52,-224.79 1245.62,-129.81 1229.84,-90.51"/>
<polygon fill="midnightblue" stroke="midnightblue" points="1233.02,-89.06 1225.94,-81.18 1226.56,-91.75 1233.02,-89.06"/>
</g>
<!-- Node12 -->
<g id="node12" class="node">
<title>Node12</title>
<g id="a_node12"><a xlink:href="ReverseResumableAStar_8h.html" target="_top" xlink:title=" ">
<polygon fill="white" stroke="black" points="819,-391.5 819,-421.5 953,-421.5 953,-391.5 819,-391.5"/>
<text text-anchor="start" x="827" y="-409.5" font-family="Helvetica,sans-Serif" font-size="10.00">../Solvers/AStar/Reverse</text>
<text text-anchor="middle" x="886" y="-398.5" font-family="Helvetica,sans-Serif" font-size="10.00">ResumableAStar.h</text>
</a>
</g>
</g>
<!-- Node11&#45;&gt;Node12 -->
<g id="edge13" class="edge">
<title>Node11&#45;&gt;Node12</title>
<path fill="none" stroke="midnightblue" d="M849.2,-458.4C855.23,-450.05 863.02,-439.29 869.87,-429.81"/>
<polygon fill="midnightblue" stroke="midnightblue" points="872.8,-431.73 875.82,-421.58 867.13,-427.63 872.8,-431.73"/>
</g>
<!-- Node16 -->
<g id="node16" class="node">
<title>Node16</title>
<g id="a_node16"><a xlink:href="HeuristicManhattan_8h.html" target="_top" xlink:title=" ">
<polygon fill="white" stroke="black" points="726,-324.5 726,-354.5 856,-354.5 856,-324.5 726,-324.5"/>
<text text-anchor="start" x="734" y="-342.5" font-family="Helvetica,sans-Serif" font-size="10.00">../../Heuristics/Heuristic</text>
<text text-anchor="middle" x="791" y="-331.5" font-family="Helvetica,sans-Serif" font-size="10.00">Manhattan.h</text>
</a>
</g>
</g>
<!-- Node11&#45;&gt;Node16 -->
<g id="edge47" class="edge">
<title>Node11&#45;&gt;Node16</title>
<path fill="none" stroke="midnightblue" d="M829.45,-458.48C823.14,-448.64 815.11,-434.98 810,-422 802.66,-403.37 797.72,-381.18 794.72,-364.66"/>
<polygon fill="midnightblue" stroke="midnightblue" points="798.15,-363.99 793.02,-354.72 791.25,-365.17 798.15,-363.99"/>
</g>
<!-- Node13 -->
<g id="node13" class="node">
<title>Node13</title>
<g id="a_node13"><a xlink:href="SingleAgentAStarProblem_8h.html" target="_top" xlink:title=" ">
<polygon fill="white" stroke="black" points="1074,-257.5 1074,-287.5 1228,-287.5 1228,-257.5 1074,-257.5"/>
<text text-anchor="start" x="1082" y="-275.5" font-family="Helvetica,sans-Serif" font-size="10.00">../../AStarProblems</text>
<text text-anchor="middle" x="1151" y="-264.5" font-family="Helvetica,sans-Serif" font-size="10.00">/SingleAgentAStarProblem.h</text>
</a>
</g>
</g>
<!-- Node12&#45;&gt;Node13 -->
<g id="edge14" class="edge">
<title>Node12&#45;&gt;Node13</title>
<path fill="none" stroke="midnightblue" d="M885.02,-391.2C884.62,-372.95 886.89,-341.64 905,-324 910.9,-318.26 995.5,-301.71 1063.87,-289.1"/>
<polygon fill="midnightblue" stroke="midnightblue" points="1064.62,-292.52 1073.82,-287.27 1063.36,-285.64 1064.62,-292.52"/>
</g>
<!-- Node12&#45;&gt;Node16 -->
<g id="edge19" class="edge">
<title>Node12&#45;&gt;Node16</title>
<path fill="none" stroke="midnightblue" d="M865.39,-391.4C852.07,-382.28 834.54,-370.29 819.84,-360.24"/>
<polygon fill="midnightblue" stroke="midnightblue" points="821.8,-357.33 811.57,-354.58 817.85,-363.11 821.8,-357.33"/>
</g>
<!-- Node27 -->
<g id="node27" class="node">
<title>Node27</title>
<g id="a_node27"><a xlink:href="Node_8h.html" target="_top" xlink:title=" ">
<polygon fill="white" stroke="black" points="913.5,-330 913.5,-349 964.5,-349 964.5,-330 913.5,-330"/>
<text text-anchor="middle" x="939" y="-337" font-family="Helvetica,sans-Serif" font-size="10.00">Node.h</text>
</a>
</g>
</g>
<!-- Node12&#45;&gt;Node27 -->
<g id="edge46" class="edge">
<title>Node12&#45;&gt;Node27</title>
<path fill="none" stroke="midnightblue" d="M897.5,-391.4C905.68,-381.36 916.71,-367.84 925.34,-357.25"/>
<polygon fill="midnightblue" stroke="midnightblue" points="928.3,-359.16 931.91,-349.19 922.88,-354.73 928.3,-359.16"/>
</g>
<!-- Node13&#45;&gt;Node8 -->
<g id="edge15" class="edge">
<title>Node13&#45;&gt;Node8</title>
<path fill="none" stroke="midnightblue" d="M1151,-257.4C1151,-249.64 1151,-239.81 1151,-230.86"/>
<polygon fill="midnightblue" stroke="midnightblue" points="1154.5,-230.58 1151,-220.58 1147.5,-230.58 1154.5,-230.58"/>
</g>
<!-- Node13&#45;&gt;Node10 -->
<g id="edge18" class="edge">
<title>Node13&#45;&gt;Node10</title>
<path fill="none" stroke="midnightblue" d="M1073.65,-258.41C1070.73,-257.93 1067.84,-257.46 1065,-257 974.04,-242.29 868.64,-226.12 802.89,-216.14"/>
<polygon fill="midnightblue" stroke="midnightblue" points="803.09,-212.63 792.68,-214.59 802.05,-219.55 803.09,-212.63"/>
</g>
<!-- Node14 -->
<g id="node14" class="node">
<title>Node14</title>
<g id="a_node14"><a xlink:href="SingleAgentState_8h.html" target="_top" xlink:title=" ">
<polygon fill="white" stroke="black" points="948,-129 948,-148 1100,-148 1100,-129 948,-129"/>
<text text-anchor="middle" x="1024" y="-136" font-family="Helvetica,sans-Serif" font-size="10.00">../States/SingleAgentState.h</text>
</a>
</g>
</g>
<!-- Node13&#45;&gt;Node14 -->
<g id="edge16" class="edge">
<title>Node13&#45;&gt;Node14</title>
<path fill="none" stroke="midnightblue" d="M1121.54,-257.41C1105.25,-248.59 1085.45,-236.04 1071,-221 1052.93,-202.19 1039.12,-175.14 1031.28,-157.45"/>
<polygon fill="midnightblue" stroke="midnightblue" points="1034.5,-156.08 1027.37,-148.24 1028.06,-158.82 1034.5,-156.08"/>
</g>
<!-- Node15 -->
<g id="node15" class="node">
<title>Node15</title>
<g id="a_node15"><a xlink:href="State_8h.html" target="_top" xlink:title=" ">
<polygon fill="white" stroke="black" points="745.5,-62 745.5,-81 796.5,-81 796.5,-62 745.5,-62"/>
<text text-anchor="middle" x="771" y="-69" font-family="Helvetica,sans-Serif" font-size="10.00">State.h</text>
</a>
</g>
</g>
<!-- Node14&#45;&gt;Node15 -->
<g id="edge17" class="edge">
<title>Node14&#45;&gt;Node15</title>
<path fill="none" stroke="midnightblue" d="M990.66,-128.94C942.94,-116.67 855.5,-94.21 806.57,-81.64"/>
<polygon fill="midnightblue" stroke="midnightblue" points="807.3,-78.21 796.74,-79.11 805.56,-84.99 807.3,-78.21"/>
</g>
<!-- Node16&#45;&gt;Node13 -->
<g id="edge30" class="edge">
<title>Node16&#45;&gt;Node13</title>
<path fill="none" stroke="midnightblue" d="M856.05,-326.7C861.11,-325.79 866.14,-324.88 871,-324 935.52,-312.33 1008.41,-299.19 1063.64,-289.24"/>
<polygon fill="midnightblue" stroke="midnightblue" points="1064.53,-292.63 1073.75,-287.41 1063.28,-285.74 1064.53,-292.63"/>
</g>
<!-- Node17 -->
<g id="node17" class="node">
<title>Node17</title>
<g id="a_node17"><a xlink:href="ODMultiAgentAStarProblem_8h.html" target="_top" xlink:title=" ">
<polygon fill="white" stroke="black" points="28,-257.5 28,-287.5 168,-287.5 168,-257.5 28,-257.5"/>
<text text-anchor="start" x="36" y="-275.5" font-family="Helvetica,sans-Serif" font-size="10.00">../AStarProblems/ODMulti</text>
<text text-anchor="middle" x="98" y="-264.5" font-family="Helvetica,sans-Serif" font-size="10.00">AgentAStarProblem.h</text>
</a>
</g>
</g>
<!-- Node16&#45;&gt;Node17 -->
<g id="edge20" class="edge">
<title>Node16&#45;&gt;Node17</title>
<path fill="none" stroke="midnightblue" d="M725.79,-335.27C615.21,-329.33 383.69,-314.87 178.23,-288.08"/>
<polygon fill="midnightblue" stroke="midnightblue" points="178.53,-284.59 168.15,-286.75 177.61,-291.53 178.53,-284.59"/>
</g>
<!-- Node19 -->
<g id="node19" class="node">
<title>Node19</title>
<g id="a_node19"><a xlink:href="ODMultiAgentAStarProblemWithConstraints_8h.html" target="_top" xlink:title=" ">
<polygon fill="white" stroke="black" points="186.5,-257.5 186.5,-287.5 385.5,-287.5 385.5,-257.5 186.5,-257.5"/>
<text text-anchor="start" x="194.5" y="-275.5" font-family="Helvetica,sans-Serif" font-size="10.00">../AStarProblems/ODMulti</text>
<text text-anchor="middle" x="286" y="-264.5" font-family="Helvetica,sans-Serif" font-size="10.00">AgentAStarProblemWithConstraints.h</text>
</a>
</g>
</g>
<!-- Node16&#45;&gt;Node19 -->
<g id="edge25" class="edge">
<title>Node16&#45;&gt;Node19</title>
<path fill="none" stroke="midnightblue" d="M725.82,-330.3C649.39,-320.66 518.61,-304.08 395.75,-288.09"/>
<polygon fill="midnightblue" stroke="midnightblue" points="396.16,-284.62 385.79,-286.8 395.25,-291.56 396.16,-284.62"/>
</g>
<!-- Node21 -->
<g id="node21" class="node">
<title>Node21</title>
<g id="a_node21"><a xlink:href="SingleAgentAStarProblemWithConstraints_8h.html" target="_top" xlink:title=" ">
<polygon fill="white" stroke="black" points="886,-257.5 886,-287.5 1056,-287.5 1056,-257.5 886,-257.5"/>
<text text-anchor="start" x="894" y="-275.5" font-family="Helvetica,sans-Serif" font-size="10.00">../AStarProblems/SingleAgent</text>
<text text-anchor="middle" x="971" y="-264.5" font-family="Helvetica,sans-Serif" font-size="10.00">AStarProblemWithConstraints.h</text>
</a>
</g>
</g>
<!-- Node16&#45;&gt;Node21 -->
<g id="edge31" class="edge">
<title>Node16&#45;&gt;Node21</title>
<path fill="none" stroke="midnightblue" d="M830.06,-324.4C857.18,-314.6 893.51,-301.48 922.5,-291.02"/>
<polygon fill="midnightblue" stroke="midnightblue" points="923.8,-294.26 932.02,-287.58 921.42,-287.68 923.8,-294.26"/>
</g>
<!-- Node23 -->
<g id="node23" class="node">
<title>Node23</title>
<g id="a_node23"><a xlink:href="StandardMultiAgentAStarProblem_8h.html" target="_top" xlink:title=" ">
<polygon fill="white" stroke="black" points="722,-257.5 722,-287.5 868,-287.5 868,-257.5 722,-257.5"/>
<text text-anchor="start" x="730" y="-275.5" font-family="Helvetica,sans-Serif" font-size="10.00">../AStarProblems/Standard</text>
<text text-anchor="middle" x="795" y="-264.5" font-family="Helvetica,sans-Serif" font-size="10.00">MultiAgentAStarProblem.h</text>
</a>
</g>
</g>
<!-- Node16&#45;&gt;Node23 -->
<g id="edge36" class="edge">
<title>Node16&#45;&gt;Node23</title>
<path fill="none" stroke="midnightblue" d="M791.87,-324.4C792.35,-316.56 792.96,-306.6 793.52,-297.57"/>
<polygon fill="midnightblue" stroke="midnightblue" points="797.01,-297.77 794.13,-287.58 790.03,-297.34 797.01,-297.77"/>
</g>
<!-- Node25 -->
<g id="node25" class="node">
<title>Node25</title>
<g id="a_node25"><a xlink:href="StandardMultiAgentAStarProblemWithConstraints_8h.html" target="_top" xlink:title=" ">
<polygon fill="white" stroke="black" points="404,-257.5 404,-287.5 628,-287.5 628,-257.5 404,-257.5"/>
<text text-anchor="start" x="412" y="-275.5" font-family="Helvetica,sans-Serif" font-size="10.00">../AStarProblems/Standard</text>
<text text-anchor="middle" x="516" y="-264.5" font-family="Helvetica,sans-Serif" font-size="10.00">MultiAgentAStarProblemWithConstraints.h</text>
</a>
</g>
</g>
<!-- Node16&#45;&gt;Node25 -->
<g id="edge41" class="edge">
<title>Node16&#45;&gt;Node25</title>
<path fill="none" stroke="midnightblue" d="M731.67,-324.48C688.8,-314.34 630.76,-300.63 585.69,-289.97"/>
<polygon fill="midnightblue" stroke="midnightblue" points="586.24,-286.51 575.7,-287.61 584.63,-293.32 586.24,-286.51"/>
</g>
<!-- Node17&#45;&gt;Node2 -->
<g id="edge21" class="edge">
<title>Node17&#45;&gt;Node2</title>
<path fill="none" stroke="midnightblue" d="M168.17,-258.33C171.15,-257.86 174.1,-257.42 177,-257 325.89,-235.58 367.11,-242.74 519.92,-221.08"/>
<polygon fill="midnightblue" stroke="midnightblue" points="520.74,-224.49 530.15,-219.61 519.75,-217.56 520.74,-224.49"/>
</g>
<!-- Node17&#45;&gt;Node10 -->
<g id="edge24" class="edge">
<title>Node17&#45;&gt;Node10</title>
<path fill="none" stroke="midnightblue" d="M168.15,-258.21C171.14,-257.78 174.1,-257.37 177,-257 394.34,-229.3 454.36,-253.31 675.52,-220.89"/>
<polygon fill="midnightblue" stroke="midnightblue" points="676.12,-224.34 685.49,-219.41 675.09,-217.42 676.12,-224.34"/>
</g>
<!-- Node18 -->
<g id="node18" class="node">
<title>Node18</title>
<g id="a_node18"><a xlink:href="ODMultiAgentState_8h.html" target="_top" xlink:title=" ">
<polygon fill="white" stroke="black" points="178,-129 178,-148 340,-148 340,-129 178,-129"/>
<text text-anchor="middle" x="259" y="-136" font-family="Helvetica,sans-Serif" font-size="10.00">../States/ODMultiAgentState.h</text>
</a>
</g>
</g>
<!-- Node17&#45;&gt;Node18 -->
<g id="edge22" class="edge">
<title>Node17&#45;&gt;Node18</title>
<path fill="none" stroke="midnightblue" d="M108.45,-257.27C121.67,-239.94 145.76,-210.44 171,-190 189.37,-175.13 212.65,-161.98 230.65,-152.82"/>
<polygon fill="midnightblue" stroke="midnightblue" points="232.64,-155.74 240.05,-148.17 229.53,-149.47 232.64,-155.74"/>
</g>
<!-- Node18&#45;&gt;Node15 -->
<g id="edge23" class="edge">
<title>Node18&#45;&gt;Node15</title>
<path fill="none" stroke="midnightblue" d="M326.2,-128.97C436.12,-115.01 650.62,-87.78 735.34,-77.03"/>
<polygon fill="midnightblue" stroke="midnightblue" points="736,-80.47 745.48,-75.74 735.12,-73.53 736,-80.47"/>
</g>
<!-- Node19&#45;&gt;Node2 -->
<g id="edge26" class="edge">
<title>Node19&#45;&gt;Node2</title>
<path fill="none" stroke="midnightblue" d="M353.53,-257.48C402.81,-247.24 469.72,-233.35 521.23,-222.65"/>
<polygon fill="midnightblue" stroke="midnightblue" points="522.24,-226.02 531.32,-220.55 520.82,-219.16 522.24,-226.02"/>
</g>
<!-- Node19&#45;&gt;Node10 -->
<g id="edge29" class="edge">
<title>Node19&#45;&gt;Node10</title>
<path fill="none" stroke="midnightblue" d="M385.79,-258.21C388.9,-257.8 391.97,-257.4 395,-257 516.68,-241.11 550.36,-243.04 675.49,-220.98"/>
<polygon fill="midnightblue" stroke="midnightblue" points="676.23,-224.4 685.46,-219.2 675,-217.51 676.23,-224.4"/>
</g>
<!-- Node20 -->
<g id="node20" class="node">
<title>Node20</title>
<g id="a_node20"><a xlink:href="ODMultiAgentSpaceTimeState_8h.html" target="_top" xlink:title=" ">
<polygon fill="white" stroke="black" points="180.5,-190.5 180.5,-220.5 337.5,-220.5 337.5,-190.5 180.5,-190.5"/>
<text text-anchor="start" x="188.5" y="-208.5" font-family="Helvetica,sans-Serif" font-size="10.00">../States/ODMultiAgentSpace</text>
<text text-anchor="middle" x="259" y="-197.5" font-family="Helvetica,sans-Serif" font-size="10.00">TimeState.h</text>
</a>
</g>
</g>
<!-- Node19&#45;&gt;Node20 -->
<g id="edge27" class="edge">
<title>Node19&#45;&gt;Node20</title>
<path fill="none" stroke="midnightblue" d="M280.14,-257.4C276.82,-249.39 272.57,-239.16 268.75,-229.98"/>
<polygon fill="midnightblue" stroke="midnightblue" points="271.92,-228.47 264.85,-220.58 265.45,-231.15 271.92,-228.47"/>
</g>
<!-- Node20&#45;&gt;Node18 -->
<g id="edge28" class="edge">
<title>Node20&#45;&gt;Node18</title>
<path fill="none" stroke="midnightblue" d="M259,-190.4C259,-181.06 259,-168.71 259,-158.52"/>
<polygon fill="midnightblue" stroke="midnightblue" points="262.5,-158.19 259,-148.19 255.5,-158.19 262.5,-158.19"/>
</g>
<!-- Node21&#45;&gt;Node8 -->
<g id="edge32" class="edge">
<title>Node21&#45;&gt;Node8</title>
<path fill="none" stroke="midnightblue" d="M1010.06,-257.4C1037.18,-247.6 1073.51,-234.48 1102.5,-224.02"/>
<polygon fill="midnightblue" stroke="midnightblue" points="1103.8,-227.26 1112.02,-220.58 1101.42,-220.68 1103.8,-227.26"/>
</g>
<!-- Node21&#45;&gt;Node10 -->
<g id="edge35" class="edge">
<title>Node21&#45;&gt;Node10</title>
<path fill="none" stroke="midnightblue" d="M920.95,-257.48C885.24,-247.47 837.05,-233.97 799.24,-223.38"/>
<polygon fill="midnightblue" stroke="midnightblue" points="799.94,-219.94 789.37,-220.61 798.05,-226.68 799.94,-219.94"/>
</g>
<!-- Node22 -->
<g id="node22" class="node">
<title>Node22</title>
<g id="a_node22"><a xlink:href="SingleAgentSpaceTimeState_8h.html" target="_top" xlink:title=" ">
<polygon fill="white" stroke="black" points="782.5,-123.5 782.5,-153.5 929.5,-153.5 929.5,-123.5 782.5,-123.5"/>
<text text-anchor="start" x="790.5" y="-141.5" font-family="Helvetica,sans-Serif" font-size="10.00">../States/SingleAgentSpace</text>
<text text-anchor="middle" x="856" y="-130.5" font-family="Helvetica,sans-Serif" font-size="10.00">TimeState.h</text>
</a>
</g>
</g>
<!-- Node21&#45;&gt;Node22 -->
<g id="edge33" class="edge">
<title>Node21&#45;&gt;Node22</title>
<path fill="none" stroke="midnightblue" d="M958.69,-257.37C938.63,-234.35 898.75,-188.57 875.02,-161.34"/>
<polygon fill="midnightblue" stroke="midnightblue" points="877.43,-158.77 868.22,-153.52 872.15,-163.36 877.43,-158.77"/>
</g>
<!-- Node22&#45;&gt;Node15 -->
<g id="edge34" class="edge">
<title>Node22&#45;&gt;Node15</title>
<path fill="none" stroke="midnightblue" d="M837.56,-123.4C823.65,-112.76 804.61,-98.2 790.46,-87.38"/>
<polygon fill="midnightblue" stroke="midnightblue" points="792.44,-84.49 782.37,-81.19 788.19,-90.05 792.44,-84.49"/>
</g>
<!-- Node23&#45;&gt;Node2 -->
<g id="edge37" class="edge">
<title>Node23&#45;&gt;Node2</title>
<path fill="none" stroke="midnightblue" d="M752.47,-257.4C722.68,-247.52 682.68,-234.25 650.99,-223.74"/>
<polygon fill="midnightblue" stroke="midnightblue" points="652.04,-220.4 641.45,-220.58 649.84,-227.05 652.04,-220.4"/>
</g>
<!-- Node23&#45;&gt;Node10 -->
<g id="edge40" class="edge">
<title>Node23&#45;&gt;Node10</title>
<path fill="none" stroke="midnightblue" d="M782.85,-257.4C775.51,-248.88 766.01,-237.85 757.72,-228.23"/>
<polygon fill="midnightblue" stroke="midnightblue" points="760.31,-225.87 751.13,-220.58 755,-230.44 760.31,-225.87"/>
</g>
<!-- Node24 -->
<g id="node24" class="node">
<title>Node24</title>
<g id="a_node24"><a xlink:href="StandardMultiAgentState_8h.html" target="_top" xlink:title=" ">
<polygon fill="white" stroke="black" points="608,-123.5 608,-153.5 764,-153.5 764,-123.5 608,-123.5"/>
<text text-anchor="start" x="616" y="-141.5" font-family="Helvetica,sans-Serif" font-size="10.00">../States/StandardMultiAgent</text>
<text text-anchor="middle" x="686" y="-130.5" font-family="Helvetica,sans-Serif" font-size="10.00">State.h</text>
</a>
</g>
</g>
<!-- Node23&#45;&gt;Node24 -->
<g id="edge38" class="edge">
<title>Node23&#45;&gt;Node24</title>
<path fill="none" stroke="midnightblue" d="M800.93,-257.23C807.13,-239.85 814.27,-210.31 801,-190 791.48,-175.42 776.72,-165.03 760.9,-157.62"/>
<polygon fill="midnightblue" stroke="midnightblue" points="762.07,-154.32 751.5,-153.6 759.32,-160.75 762.07,-154.32"/>
</g>
<!-- Node24&#45;&gt;Node15 -->
<g id="edge39" class="edge">
<title>Node24&#45;&gt;Node15</title>
<path fill="none" stroke="midnightblue" d="M704.44,-123.4C718.35,-112.76 737.39,-98.2 751.54,-87.38"/>
<polygon fill="midnightblue" stroke="midnightblue" points="753.81,-90.05 759.63,-81.19 749.56,-84.49 753.81,-90.05"/>
</g>
<!-- Node25&#45;&gt;Node2 -->
<g id="edge42" class="edge">
<title>Node25&#45;&gt;Node2</title>
<path fill="none" stroke="midnightblue" d="M534.01,-257.4C545.43,-248.45 560.39,-236.74 573.08,-226.8"/>
<polygon fill="midnightblue" stroke="midnightblue" points="575.31,-229.5 581.03,-220.58 570.99,-223.99 575.31,-229.5"/>
</g>
<!-- Node25&#45;&gt;Node10 -->
<g id="edge45" class="edge">
<title>Node25&#45;&gt;Node10</title>
<path fill="none" stroke="midnightblue" d="M564.11,-257.48C598.29,-247.51 644.36,-234.09 680.63,-223.51"/>
<polygon fill="midnightblue" stroke="midnightblue" points="681.97,-226.77 690.59,-220.61 680.01,-220.05 681.97,-226.77"/>
</g>
<!-- Node26 -->
<g id="node26" class="node">
<title>Node26</title>
<g id="a_node26"><a xlink:href="StandardMultiAgentSpaceTimeState_8h.html" target="_top" xlink:title=" ">
<polygon fill="white" stroke="black" points="356,-190.5 356,-220.5 512,-220.5 512,-190.5 356,-190.5"/>
<text text-anchor="start" x="364" y="-208.5" font-family="Helvetica,sans-Serif" font-size="10.00">../States/StandardMultiAgent</text>
<text text-anchor="middle" x="434" y="-197.5" font-family="Helvetica,sans-Serif" font-size="10.00">SpaceTimeState.h</text>
</a>
</g>
</g>
<!-- Node25&#45;&gt;Node26 -->
<g id="edge43" class="edge">
<title>Node25&#45;&gt;Node26</title>
<path fill="none" stroke="midnightblue" d="M498.21,-257.4C486.92,-248.45 472.15,-236.74 459.61,-226.8"/>
<polygon fill="midnightblue" stroke="midnightblue" points="461.77,-224.05 451.76,-220.58 457.42,-229.53 461.77,-224.05"/>
</g>
<!-- Node26&#45;&gt;Node24 -->
<g id="edge44" class="edge">
<title>Node26&#45;&gt;Node24</title>
<path fill="none" stroke="midnightblue" d="M488.37,-190.48C527.4,-180.41 580.16,-166.8 621.35,-156.17"/>
<polygon fill="midnightblue" stroke="midnightblue" points="622.48,-159.5 631.29,-153.61 620.74,-152.72 622.48,-159.5"/>
</g>
<!-- Node28&#45;&gt;Node6 -->
<g id="edge49" class="edge">
<title>Node28&#45;&gt;Node6</title>
<path fill="none" stroke="midnightblue" d="M237.9,-404.7C149.64,-399.87 0,-376.5 0,-273.5 0,-273.5 0,-273.5 0,-137.5 0,-43.8 320.59,-19.29 460.25,-13.05"/>
<polygon fill="midnightblue" stroke="midnightblue" points="460.54,-16.54 470.39,-12.62 460.24,-9.55 460.54,-16.54"/>
</g>
</g>
</svg>
        <g id="navigator" transform="translate(0 0)" fill="#404254">
                <rect fill="#f2f5e9" fill-opacity="0.5" stroke="#606060" stroke-width=".5" x="0" y="0" width="60" height="60"/>
                <use id="zoomplus" xlink:href="#zoomPlus" x="17" y="9" onmousedown="handleZoom(evt,'in')"/>
                <use id="zoomminus" xlink:href="#zoomMin" x="42" y="9" onmousedown="handleZoom(evt,'out')"/>
                <use id="reset" xlink:href="#resetDef" x="30" y="36" onmousedown="handleReset()"/>
                <g id="arrowUp" xlink:href="#dirArrow" transform="translate(30 24)" onmousedown="handlePan(0,-1)">
                  <use xlink:href="#rim" fill="#404040">
                        <set attributeName="fill" to="#808080" begin="arrowUp.mouseover" end="arrowUp.mouseout"/>
                  </use>
                  <path fill="none" stroke="white" stroke-width="1.5" d="M0,-3.0v7 M-2.5,-0.5L0,-3.0L2.5,-0.5"/>
                </g>
                <g id="arrowRight" xlink:href="#dirArrow" transform="rotate(90) translate(36 -43)" onmousedown="handlePan(1,0)">
                  <use xlink:href="#rim" fill="#404040">
                        <set attributeName="fill" to="#808080" begin="arrowRight.mouseover" end="arrowRight.mouseout"/>
                  </use>
                  <path fill="none" stroke="white" stroke-width="1.5" d="M0,-3.0v7 M-2.5,-0.5L0,-3.0L2.5,-0.5"/>
                </g>
                <g id="arrowDown" xlink:href="#dirArrow" transform="rotate(180) translate(-30 -48)" onmousedown="handlePan(0,1)">
                  <use xlink:href="#rim" fill="#404040">
                        <set attributeName="fill" to="#808080" begin="arrowDown.mouseover" end="arrowDown.mouseout"/>
                  </use>
                  <path fill="none" stroke="white" stroke-width="1.5" d="M0,-3.0v7 M-2.5,-0.5L0,-3.0L2.5,-0.5"/>
                </g>
                <g id="arrowLeft" xlink:href="#dirArrow" transform="rotate(270) translate(-36 17)" onmousedown="handlePan(-1,0)">
                  <use xlink:href="#rim" fill="#404040">
                        <set attributeName="fill" to="#808080" begin="arrowLeft.mouseover" end="arrowLeft.mouseout"/>
                  </use>
                  <path fill="none" stroke="white" stroke-width="1.5" d="M0,-3.0v7 M-2.5,-0.5L0,-3.0L2.5,-0.5"/>
                </g>
        </g>
        <svg viewBox="0 0 15 15" width="100%" height="30px" preserveAspectRatio="xMaxYMin meet">
         <g id="arrow_out" transform="scale(0.3 0.3)">
          <a xlink:href="CooperativeAStar_8h__incl_org.svg" target="_base">
           <rect id="button" ry="5" rx="5" y="6" x="6" height="38" width="38"
                fill="#f2f5e9" fill-opacity="0.5" stroke="#606060" stroke-width="1.0"/>
           <path id="arrow"
             d="M 11.500037,31.436501 C 11.940474,20.09759 22.043105,11.32322 32.158766,21.979434 L 37.068811,17.246167 C 37.068811,17.246167 37.088388,32 37.088388,32 L 22.160133,31.978069 C 22.160133,31.978069 26.997745,27.140456 26.997745,27.140456 C 18.528582,18.264221 13.291696,25.230495 11.500037,31.436501 z"
             style="fill:#404040;"/>
          </a>
         </g>
        </svg>
</svg>
