<?xml version="1.0" encoding="UTF-8" standalone="no"?>
<!DOCTYPE svg PUBLIC "-//W3C//DTD SVG 1.1//EN"
 "http://www.w3.org/Graphics/SVG/1.1/DTD/svg11.dtd">
<!-- Generated by graphviz version 2.43.0 (0)
 -->
<!-- Title: Solvers/ID Pages: 1 -->
<svg width="160pt" height="295pt"
 viewBox="0.00 0.00 160.00 295.00" xmlns="http://www.w3.org/2000/svg" xmlns:xlink="http://www.w3.org/1999/xlink">
<g id="graph0" class="graph" transform="scale(1 1) rotate(0) translate(4 291)">
<title>Solvers/ID</title>
<polygon fill="white" stroke="transparent" points="-4,4 -4,-291 156,-291 156,4 -4,4"/>
<g id="clust1" class="cluster">
<title>clusterdir_bdfa83abd3770e9236d0774c4efb3ff7</title>
<g id="a_clust1"><a xlink:href="dir_bdfa83abd3770e9236d0774c4efb3ff7.html" target="_top" xlink:title="Solvers">
<polygon fill="#ddddee" stroke="black" points="31,-64 31,-279 121,-279 121,-64 31,-64"/>
<text text-anchor="middle" x="76" y="-267" font-family="Helvetica,sans-Serif" font-size="10.00">Solvers</text>
</a>
</g>
</g>
<!-- dir_5d93a6f2113cdcaee6d36fb92369a2e4 -->
<g id="node1" class="node">
<title>dir_5d93a6f2113cdcaee6d36fb92369a2e4</title>
<g id="a_node1"><a xlink:href="dir_5d93a6f2113cdcaee6d36fb92369a2e4.html" target="_top" xlink:title="AStar">
<polygon fill="none" stroke="black" points="93,-108 39,-108 39,-72 93,-72 93,-108"/>
<text text-anchor="middle" x="66" y="-87.5" font-family="Helvetica,sans-Serif" font-size="10.00">AStar</text>
</a>
</g>
</g>
<!-- dir_23c761be539445bc999d8c9cd7f0d160 -->
<g id="node4" class="node">
<title>dir_23c761be539445bc999d8c9cd7f0d160</title>
<g id="a_node4"><a xlink:href="dir_23c761be539445bc999d8c9cd7f0d160.html" target="_top" xlink:title="Solution">
<polygon fill="none" stroke="black" points="56,-36 0,-36 0,0 56,0 56,-36"/>
<text text-anchor="middle" x="28" y="-15.5" font-family="Helvetica,sans-Serif" font-size="10.00">Solution</text>
</a>
</g>
</g>
<!-- dir_5d93a6f2113cdcaee6d36fb92369a2e4&#45;&gt;dir_23c761be539445bc999d8c9cd7f0d160 -->
<g id="edge1" class="edge">
<title>dir_5d93a6f2113cdcaee6d36fb92369a2e4&#45;&gt;dir_23c761be539445bc999d8c9cd7f0d160</title>
<path fill="none" stroke="black" d="M56.61,-71.7C52.24,-63.64 46.94,-53.89 42.1,-44.98"/>
<polygon fill="black" stroke="black" points="45.13,-43.22 37.29,-36.1 38.98,-46.56 45.13,-43.22"/>
<g id="a_edge1&#45;headlabel"><a xlink:href="dir_000007_000005.html" target="_top" xlink:title="1">
<text text-anchor="middle" x="49.34" y="-42.53" font-family="Helvetica,sans-Serif" font-size="10.00">1</text>
</a>
</g>
</g>
<!-- dir_9568da6f45be3ef680f9a4c839aac725 -->
<g id="node5" class="node">
<title>dir_9568da6f45be3ef680f9a4c839aac725</title>
<g id="a_node5"><a xlink:href="dir_9568da6f45be3ef680f9a4c839aac725.html" target="_top" xlink:title="Problems">
<polygon fill="none" stroke="black" points="152,-36 90,-36 90,0 152,0 152,-36"/>
<text text-anchor="middle" x="121" y="-15.5" font-family="Helvetica,sans-Serif" font-size="10.00">Problems</text>
</a>
</g>
</g>
<!-- dir_5d93a6f2113cdcaee6d36fb92369a2e4&#45;&gt;dir_9568da6f45be3ef680f9a4c839aac725 -->
<g id="edge2" class="edge">
<title>dir_5d93a6f2113cdcaee6d36fb92369a2e4&#45;&gt;dir_9568da6f45be3ef680f9a4c839aac725</title>
<path fill="none" stroke="black" d="M79.6,-71.7C86.12,-63.39 94.07,-53.28 101.25,-44.14"/>
<polygon fill="black" stroke="black" points="104.13,-46.13 107.56,-36.1 98.63,-41.81 104.13,-46.13"/>
<g id="a_edge2&#45;headlabel"><a xlink:href="dir_000007_000004.html" target="_top" xlink:title="1">
<text text-anchor="middle" x="104.15" y="-48.21" font-family="Helvetica,sans-Serif" font-size="10.00">1</text>
</a>
</g>
</g>
<!-- dir_abd426de364fe121d209867c04ac8144 -->
<g id="node2" class="node">
<title>dir_abd426de364fe121d209867c04ac8144</title>
<g id="a_node2"><a xlink:href="dir_abd426de364fe121d209867c04ac8144.html" target="_top" xlink:title="CBS">
<polygon fill="none" stroke="black" points="113,-180 59,-180 59,-144 113,-144 113,-180"/>
<text text-anchor="middle" x="86" y="-159.5" font-family="Helvetica,sans-Serif" font-size="10.00">CBS</text>
</a>
</g>
</g>
<!-- dir_abd426de364fe121d209867c04ac8144&#45;&gt;dir_5d93a6f2113cdcaee6d36fb92369a2e4 -->
<g id="edge7" class="edge">
<title>dir_abd426de364fe121d209867c04ac8144&#45;&gt;dir_5d93a6f2113cdcaee6d36fb92369a2e4</title>
<path fill="none" stroke="black" d="M81.06,-143.7C78.83,-135.9 76.15,-126.51 73.67,-117.83"/>
<polygon fill="black" stroke="black" points="77,-116.76 70.89,-108.1 70.27,-118.68 77,-116.76"/>
<g id="a_edge7&#45;headlabel"><a xlink:href="dir_000008_000007.html" target="_top" xlink:title="1">
<text text-anchor="middle" x="80.72" y="-116.93" font-family="Helvetica,sans-Serif" font-size="10.00">1</text>
</a>
</g>
</g>
<!-- dir_abd426de364fe121d209867c04ac8144&#45;&gt;dir_9568da6f45be3ef680f9a4c839aac725 -->
<g id="edge8" class="edge">
<title>dir_abd426de364fe121d209867c04ac8144&#45;&gt;dir_9568da6f45be3ef680f9a4c839aac725</title>
<path fill="none" stroke="black" d="M91.55,-143.92C94.81,-133.58 98.89,-120.1 102,-108 107.28,-87.47 112.24,-64.02 115.77,-46.34"/>
<polygon fill="black" stroke="black" points="119.28,-46.65 117.78,-36.16 112.41,-45.3 119.28,-46.65"/>
<g id="a_edge8&#45;headlabel"><a xlink:href="dir_000008_000004.html" target="_top" xlink:title="1">
<text text-anchor="middle" x="121.37" y="-48.22" font-family="Helvetica,sans-Serif" font-size="10.00">1</text>
</a>
</g>
</g>
<!-- dir_5f28d2c3ec909465699eddda813b2a4c -->
<g id="node3" class="node">
<title>dir_5f28d2c3ec909465699eddda813b2a4c</title>
<g id="a_node3"><a xlink:href="dir_5f28d2c3ec909465699eddda813b2a4c.html" target="_top" xlink:title="ID">
<polygon fill="#eeeeff" stroke="black" points="103,-252 49,-252 49,-216 103,-216 103,-252"/>
<text text-anchor="middle" x="76" y="-231.5" font-family="Helvetica,sans-Serif" font-size="10.00">ID</text>
</a>
</g>
</g>
<!-- dir_5f28d2c3ec909465699eddda813b2a4c&#45;&gt;dir_5d93a6f2113cdcaee6d36fb92369a2e4 -->
<g id="edge4" class="edge">
<title>dir_5f28d2c3ec909465699eddda813b2a4c&#45;&gt;dir_5d93a6f2113cdcaee6d36fb92369a2e4</title>
<path fill="none" stroke="black" d="M64.95,-215.61C59.26,-205.62 52.92,-192.58 50,-180 45.19,-159.29 49.95,-135.59 55.5,-117.85"/>
<polygon fill="black" stroke="black" points="58.88,-118.76 58.79,-108.17 52.26,-116.51 58.88,-118.76"/>
<g id="a_edge4&#45;headlabel"><a xlink:href="dir_000009_000007.html" target="_top" xlink:title="1">
<text text-anchor="middle" x="60.42" y="-120.58" font-family="Helvetica,sans-Serif" font-size="10.00">1</text>
</a>
</g>
</g>
<!-- dir_5f28d2c3ec909465699eddda813b2a4c&#45;&gt;dir_abd426de364fe121d209867c04ac8144 -->
<g id="edge6" class="edge">
<title>dir_5f28d2c3ec909465699eddda813b2a4c&#45;&gt;dir_abd426de364fe121d209867c04ac8144</title>
<path fill="none" stroke="black" d="M78.47,-215.7C79.57,-207.98 80.9,-198.71 82.13,-190.11"/>
<polygon fill="black" stroke="black" points="85.61,-190.5 83.56,-180.1 78.68,-189.51 85.61,-190.5"/>
<g id="a_edge6&#45;headlabel"><a xlink:href="dir_000009_000008.html" target="_top" xlink:title="1">
<text text-anchor="middle" x="87.91" y="-191.96" font-family="Helvetica,sans-Serif" font-size="10.00">1</text>
</a>
</g>
</g>
<!-- dir_5f28d2c3ec909465699eddda813b2a4c&#45;&gt;dir_23c761be539445bc999d8c9cd7f0d160 -->
<g id="edge3" class="edge">
<title>dir_5f28d2c3ec909465699eddda813b2a4c&#45;&gt;dir_23c761be539445bc999d8c9cd7f0d160</title>
<path fill="none" stroke="black" d="M63.39,-215.66C56.7,-205.67 48.87,-192.64 44,-180 26.86,-135.49 25.42,-79.19 26.39,-46.33"/>
<polygon fill="black" stroke="black" points="29.9,-46.26 26.79,-36.13 22.9,-45.99 29.9,-46.26"/>
<g id="a_edge3&#45;headlabel"><a xlink:href="dir_000009_000005.html" target="_top" xlink:title="1">
<text text-anchor="middle" x="32.59" y="-47.47" font-family="Helvetica,sans-Serif" font-size="10.00">1</text>
</a>
</g>
</g>
<!-- dir_5f28d2c3ec909465699eddda813b2a4c&#45;&gt;dir_9568da6f45be3ef680f9a4c839aac725 -->
<g id="edge5" class="edge">
<title>dir_5f28d2c3ec909465699eddda813b2a4c&#45;&gt;dir_9568da6f45be3ef680f9a4c839aac725</title>
<path fill="none" stroke="black" d="M96.82,-215.62C106.46,-206.2 116.89,-193.7 122,-180 138.6,-135.54 132.74,-79.22 126.91,-46.34"/>
<polygon fill="black" stroke="black" points="130.28,-45.31 124.97,-36.14 123.4,-46.62 130.28,-45.31"/>
<g id="a_edge5&#45;headlabel"><a xlink:href="dir_000009_000004.html" target="_top" xlink:title="2">
<text text-anchor="middle" x="133.74" y="-45.81" font-family="Helvetica,sans-Serif" font-size="10.00">2</text>
</a>
</g>
</g>
</g>
</svg>
