<?xml version="1.0" encoding="UTF-8" standalone="no"?>
<!DOCTYPE svg PUBLIC "-//W3C//DTD SVG 1.1//EN"
 "http://www.w3.org/Graphics/SVG/1.1/DTD/svg11.dtd">
<!-- Generated by graphviz version 2.43.0 (0)
 -->
<!-- Title: Problems Pages: 1 -->
<svg width="174pt" height="116pt"
 viewBox="0.00 0.00 174.00 116.00" xmlns="http://www.w3.org/2000/svg" xmlns:xlink="http://www.w3.org/1999/xlink">
<g id="graph0" class="graph" transform="scale(1 1) rotate(0) translate(4 112)">
<title>Problems</title>
<polygon fill="white" stroke="transparent" points="-4,4 -4,-112 170,-112 170,4 -4,4"/>
<!-- dir_9568da6f45be3ef680f9a4c839aac725 -->
<g id="node1" class="node">
<title>dir_9568da6f45be3ef680f9a4c839aac725</title>
<g id="a_node1"><a xlink:href="dir_9568da6f45be3ef680f9a4c839aac725.html" target="_top" xlink:title="Problems">
<polygon fill="#eeeeff" stroke="black" points="113,-108 51,-108 51,-72 113,-72 113,-108"/>
<text text-anchor="middle" x="82" y="-87.5" font-family="Helvetica,sans-Serif" font-size="10.00">Problems</text>
</a>
</g>
</g>
<!-- dir_0a4f1ba803caf780c2827f229c89a1b5 -->
<g id="node2" class="node">
<title>dir_0a4f1ba803caf780c2827f229c89a1b5</title>
<g id="a_node2"><a xlink:href="dir_0a4f1ba803caf780c2827f229c89a1b5.html" target="_top" xlink:title="Constraints">
<polygon fill="none" stroke="black" points="72,-36 0,-36 0,0 72,0 72,-36"/>
<text text-anchor="middle" x="36" y="-15.5" font-family="Helvetica,sans-Serif" font-size="10.00">Constraints</text>
</a>
</g>
</g>
<!-- dir_9568da6f45be3ef680f9a4c839aac725&#45;&gt;dir_0a4f1ba803caf780c2827f229c89a1b5 -->
<g id="edge1" class="edge">
<title>dir_9568da6f45be3ef680f9a4c839aac725&#45;&gt;dir_0a4f1ba803caf780c2827f229c89a1b5</title>
<path fill="none" stroke="black" d="M70.63,-71.7C65.28,-63.56 58.8,-53.69 52.89,-44.7"/>
<polygon fill="black" stroke="black" points="55.66,-42.54 47.24,-36.1 49.81,-46.38 55.66,-42.54"/>
<g id="a_edge1&#45;headlabel"><a xlink:href="dir_000009_000005.html" target="_top" xlink:title="1">
<text text-anchor="middle" x="60" y="-41.48" font-family="Helvetica,sans-Serif" font-size="10.00">1</text>
</a>
</g>
</g>
<!-- dir_b46252c81027d4122fff056403e62783 -->
<g id="node3" class="node">
<title>dir_b46252c81027d4122fff056403e62783</title>
<g id="a_node3"><a xlink:href="dir_b46252c81027d4122fff056403e62783.html" target="_top" xlink:title="GraphParser">
<polygon fill="none" stroke="black" points="166,-36 90,-36 90,0 166,0 166,-36"/>
<text text-anchor="middle" x="128" y="-15.5" font-family="Helvetica,sans-Serif" font-size="10.00">GraphParser</text>
</a>
</g>
</g>
<!-- dir_9568da6f45be3ef680f9a4c839aac725&#45;&gt;dir_b46252c81027d4122fff056403e62783 -->
<g id="edge2" class="edge">
<title>dir_9568da6f45be3ef680f9a4c839aac725&#45;&gt;dir_b46252c81027d4122fff056403e62783</title>
<path fill="none" stroke="black" d="M93.37,-71.7C98.72,-63.56 105.2,-53.69 111.11,-44.7"/>
<polygon fill="black" stroke="black" points="114.19,-46.38 116.76,-36.1 108.34,-42.54 114.19,-46.38"/>
<g id="a_edge2&#45;headlabel"><a xlink:href="dir_000009_000007.html" target="_top" xlink:title="1">
<text text-anchor="middle" x="114.59" y="-48.45" font-family="Helvetica,sans-Serif" font-size="10.00">1</text>
</a>
</g>
</g>
</g>
</svg>
