<?xml version="1.0" encoding="UTF-8" standalone="no"?>
<!DOCTYPE svg PUBLIC "-//W3C//DTD SVG 1.1//EN"
 "http://www.w3.org/Graphics/SVG/1.1/DTD/svg11.dtd">
<!-- Generated by graphviz version 2.43.0 (0)
 -->
<!-- Title: Solvers Pages: 1 -->
<svg width="413pt" height="420pt"
 viewBox="0.00 0.00 413.00 420.00" xmlns="http://www.w3.org/2000/svg" xmlns:xlink="http://www.w3.org/1999/xlink">
<g id="graph0" class="graph" transform="scale(1 1) rotate(0) translate(4 416)">
<title>Solvers</title>
<polygon fill="white" stroke="transparent" points="-4,4 -4,-416 409,-416 409,4 -4,4"/>
<g id="clust1" class="cluster">
<title>clusterdir_bdfa83abd3770e9236d0774c4efb3ff7</title>
<g id="a_clust1"><a xlink:href="dir_bdfa83abd3770e9236d0774c4efb3ff7.html" target="_top">
<polygon fill="#eeeeff" stroke="black" points="8,-208 8,-404 220,-404 220,-208 8,-208"/>
</a>
</g>
</g>
<!-- dir_bdfa83abd3770e9236d0774c4efb3ff7 -->
<g id="node1" class="node">
<title>dir_bdfa83abd3770e9236d0774c4efb3ff7</title>
<text text-anchor="middle" x="185" y="-375.5" font-family="Helvetica,sans-Serif" font-size="10.00">Solvers</text>
</g>
<!-- dir_5d93a6f2113cdcaee6d36fb92369a2e4 -->
<g id="node2" class="node">
<title>dir_5d93a6f2113cdcaee6d36fb92369a2e4</title>
<g id="a_node2"><a xlink:href="dir_5d93a6f2113cdcaee6d36fb92369a2e4.html" target="_top" xlink:title="AStar">
<polygon fill="white" stroke="black" points="212,-252 158,-252 158,-216 212,-216 212,-252"/>
<text text-anchor="middle" x="185" y="-231.5" font-family="Helvetica,sans-Serif" font-size="10.00">AStar</text>
</a>
</g>
</g>
<!-- dir_0b6462d643eec82adc02acc2ddc1d072 -->
<g id="node7" class="node">
<title>dir_0b6462d643eec82adc02acc2ddc1d072</title>
<g id="a_node7"><a xlink:href="dir_0b6462d643eec82adc02acc2ddc1d072.html" target="_top" xlink:title="AStarProblems">
<polygon fill="none" stroke="black" points="290.5,-180 201.5,-180 201.5,-144 290.5,-144 290.5,-180"/>
<text text-anchor="middle" x="246" y="-159.5" font-family="Helvetica,sans-Serif" font-size="10.00">AStarProblems</text>
</a>
</g>
</g>
<!-- dir_5d93a6f2113cdcaee6d36fb92369a2e4&#45;&gt;dir_0b6462d643eec82adc02acc2ddc1d072 -->
<g id="edge6" class="edge">
<title>dir_5d93a6f2113cdcaee6d36fb92369a2e4&#45;&gt;dir_0b6462d643eec82adc02acc2ddc1d072</title>
<path fill="none" stroke="black" d="M200.08,-215.7C207.39,-207.3 216.31,-197.07 224.34,-187.86"/>
<polygon fill="black" stroke="black" points="227.16,-189.94 231.09,-180.1 221.89,-185.34 227.16,-189.94"/>
<g id="a_edge6&#45;headlabel"><a xlink:href="dir_000007_000000.html" target="_top" xlink:title="2">
<text text-anchor="middle" x="226.94" y="-192.02" font-family="Helvetica,sans-Serif" font-size="10.00">2</text>
</a>
</g>
</g>
<!-- dir_23c761be539445bc999d8c9cd7f0d160 -->
<g id="node8" class="node">
<title>dir_23c761be539445bc999d8c9cd7f0d160</title>
<g id="a_node8"><a xlink:href="dir_23c761be539445bc999d8c9cd7f0d160.html" target="_top" xlink:title="Solution">
<polygon fill="none" stroke="black" points="405,-180 349,-180 349,-144 405,-144 405,-180"/>
<text text-anchor="middle" x="377" y="-159.5" font-family="Helvetica,sans-Serif" font-size="10.00">Solution</text>
</a>
</g>
</g>
<!-- dir_5d93a6f2113cdcaee6d36fb92369a2e4&#45;&gt;dir_23c761be539445bc999d8c9cd7f0d160 -->
<g id="edge7" class="edge">
<title>dir_5d93a6f2113cdcaee6d36fb92369a2e4&#45;&gt;dir_23c761be539445bc999d8c9cd7f0d160</title>
<path fill="none" stroke="black" d="M212.1,-223.12C245.31,-211.01 301.78,-190.43 339.23,-176.77"/>
<polygon fill="black" stroke="black" points="340.59,-180 348.79,-173.29 338.19,-173.42 340.59,-180"/>
<g id="a_edge7&#45;headlabel"><a xlink:href="dir_000007_000005.html" target="_top" xlink:title="1">
<text text-anchor="middle" x="338.19" y="-181.4" font-family="Helvetica,sans-Serif" font-size="10.00">1</text>
</a>
</g>
</g>
<!-- dir_6aec6be4d3c3ce01c5c26f2940f80808 -->
<g id="node9" class="node">
<title>dir_6aec6be4d3c3ce01c5c26f2940f80808</title>
<g id="a_node9"><a xlink:href="dir_6aec6be4d3c3ce01c5c26f2940f80808.html" target="_top" xlink:title="Heuristics">
<polygon fill="none" stroke="black" points="295.5,-324 230.5,-324 230.5,-288 295.5,-288 295.5,-324"/>
<text text-anchor="middle" x="263" y="-303.5" font-family="Helvetica,sans-Serif" font-size="10.00">Heuristics</text>
</a>
</g>
</g>
<!-- dir_5d93a6f2113cdcaee6d36fb92369a2e4&#45;&gt;dir_6aec6be4d3c3ce01c5c26f2940f80808 -->
<g id="edge8" class="edge">
<title>dir_5d93a6f2113cdcaee6d36fb92369a2e4&#45;&gt;dir_6aec6be4d3c3ce01c5c26f2940f80808</title>
<path fill="none" stroke="black" d="M198.16,-252.1C206.95,-260.8 218.71,-271.52 229.85,-281.03"/>
<polygon fill="black" stroke="black" points="227.89,-283.96 237.8,-287.7 232.39,-278.59 227.89,-283.96"/>
<g id="a_edge8&#45;headlabel"><a xlink:href="dir_000007_000003.html" target="_top" xlink:title="2">
<text text-anchor="middle" x="223.31" y="-281.32" font-family="Helvetica,sans-Serif" font-size="10.00">2</text>
</a>
</g>
</g>
<!-- dir_9568da6f45be3ef680f9a4c839aac725 -->
<g id="node10" class="node">
<title>dir_9568da6f45be3ef680f9a4c839aac725</title>
<g id="a_node10"><a xlink:href="dir_9568da6f45be3ef680f9a4c839aac725.html" target="_top" xlink:title="Problems">
<polygon fill="none" stroke="black" points="204,-108 142,-108 142,-72 204,-72 204,-108"/>
<text text-anchor="middle" x="173" y="-87.5" font-family="Helvetica,sans-Serif" font-size="10.00">Problems</text>
</a>
</g>
</g>
<!-- dir_5d93a6f2113cdcaee6d36fb92369a2e4&#45;&gt;dir_9568da6f45be3ef680f9a4c839aac725 -->
<g id="edge9" class="edge">
<title>dir_5d93a6f2113cdcaee6d36fb92369a2e4&#45;&gt;dir_9568da6f45be3ef680f9a4c839aac725</title>
<path fill="none" stroke="black" d="M183.55,-215.87C181.51,-191.67 177.75,-147.21 175.31,-118.39"/>
<polygon fill="black" stroke="black" points="178.78,-117.86 174.45,-108.19 171.81,-118.45 178.78,-117.86"/>
<g id="a_edge9&#45;headlabel"><a xlink:href="dir_000007_000004.html" target="_top" xlink:title="1">
<text text-anchor="middle" x="181.91" y="-118.7" font-family="Helvetica,sans-Serif" font-size="10.00">1</text>
</a>
</g>
</g>
<!-- dir_abd426de364fe121d209867c04ac8144 -->
<g id="node3" class="node">
<title>dir_abd426de364fe121d209867c04ac8144</title>
<g id="a_node3"><a xlink:href="dir_abd426de364fe121d209867c04ac8144.html" target="_top" xlink:title="CBS">
<polygon fill="white" stroke="black" points="70,-324 16,-324 16,-288 70,-288 70,-324"/>
<text text-anchor="middle" x="43" y="-303.5" font-family="Helvetica,sans-Serif" font-size="10.00">CBS</text>
</a>
</g>
</g>
<!-- dir_abd426de364fe121d209867c04ac8144&#45;&gt;dir_5d93a6f2113cdcaee6d36fb92369a2e4 -->
<g id="edge18" class="edge">
<title>dir_abd426de364fe121d209867c04ac8144&#45;&gt;dir_5d93a6f2113cdcaee6d36fb92369a2e4</title>
<path fill="none" stroke="black" d="M70.04,-291.67C92.31,-280.69 124.07,-265.03 148.57,-252.96"/>
<polygon fill="black" stroke="black" points="150.15,-256.08 157.57,-248.52 147.06,-249.8 150.15,-256.08"/>
<g id="a_edge18&#45;headlabel"><a xlink:href="dir_000008_000007.html" target="_top" xlink:title="1">
<text text-anchor="middle" x="148.18" y="-257.72" font-family="Helvetica,sans-Serif" font-size="10.00">1</text>
</a>
</g>
</g>
<!-- dir_0a4f1ba803caf780c2827f229c89a1b5 -->
<g id="node6" class="node">
<title>dir_0a4f1ba803caf780c2827f229c89a1b5</title>
<g id="a_node6"><a xlink:href="dir_0a4f1ba803caf780c2827f229c89a1b5.html" target="_top" xlink:title="Constraints">
<polygon fill="none" stroke="black" points="209,-36 137,-36 137,0 209,0 209,-36"/>
<text text-anchor="middle" x="173" y="-15.5" font-family="Helvetica,sans-Serif" font-size="10.00">Constraints</text>
</a>
</g>
</g>
<!-- dir_abd426de364fe121d209867c04ac8144&#45;&gt;dir_0a4f1ba803caf780c2827f229c89a1b5 -->
<g id="edge17" class="edge">
<title>dir_abd426de364fe121d209867c04ac8144&#45;&gt;dir_0a4f1ba803caf780c2827f229c89a1b5</title>
<path fill="none" stroke="black" d="M47.37,-287.96C52.54,-268.41 61.77,-235.51 72,-208 95.09,-145.91 99.28,-129.02 133,-72 138.55,-62.62 145.45,-52.95 151.95,-44.47"/>
<polygon fill="black" stroke="black" points="154.83,-46.47 158.25,-36.45 149.32,-42.15 154.83,-46.47"/>
<g id="a_edge17&#45;headlabel"><a xlink:href="dir_000008_000001.html" target="_top" xlink:title="2">
<text text-anchor="middle" x="154.84" y="-48.56" font-family="Helvetica,sans-Serif" font-size="10.00">2</text>
</a>
</g>
</g>
<!-- dir_abd426de364fe121d209867c04ac8144&#45;&gt;dir_9568da6f45be3ef680f9a4c839aac725 -->
<g id="edge19" class="edge">
<title>dir_abd426de364fe121d209867c04ac8144&#45;&gt;dir_9568da6f45be3ef680f9a4c839aac725</title>
<path fill="none" stroke="black" d="M53.42,-287.85C76.14,-250.44 130.28,-161.32 157.22,-116.98"/>
<polygon fill="black" stroke="black" points="160.33,-118.6 162.53,-108.23 154.35,-114.96 160.33,-118.6"/>
<g id="a_edge19&#45;headlabel"><a xlink:href="dir_000008_000004.html" target="_top" xlink:title="1">
<text text-anchor="middle" x="160.89" y="-120.64" font-family="Helvetica,sans-Serif" font-size="10.00">1</text>
</a>
</g>
</g>
<!-- dir_5f28d2c3ec909465699eddda813b2a4c -->
<g id="node4" class="node">
<title>dir_5f28d2c3ec909465699eddda813b2a4c</title>
<g id="a_node4"><a xlink:href="dir_5f28d2c3ec909465699eddda813b2a4c.html" target="_top" xlink:title="ID">
<polygon fill="white" stroke="black" points="140,-396 86,-396 86,-360 140,-360 140,-396"/>
<text text-anchor="middle" x="113" y="-375.5" font-family="Helvetica,sans-Serif" font-size="10.00">ID</text>
</a>
</g>
</g>
<!-- dir_5f28d2c3ec909465699eddda813b2a4c&#45;&gt;dir_5d93a6f2113cdcaee6d36fb92369a2e4 -->
<g id="edge3" class="edge">
<title>dir_5f28d2c3ec909465699eddda813b2a4c&#45;&gt;dir_5d93a6f2113cdcaee6d36fb92369a2e4</title>
<path fill="none" stroke="black" d="M140.25,-364.12C163.2,-352.64 193.33,-335.87 200,-324 210.73,-304.89 205.26,-280.1 198.09,-261.53"/>
<polygon fill="black" stroke="black" points="201.26,-260.04 194.14,-252.2 194.81,-262.77 201.26,-260.04"/>
<g id="a_edge3&#45;headlabel"><a xlink:href="dir_000009_000007.html" target="_top" xlink:title="1">
<text text-anchor="middle" x="205.27" y="-259.75" font-family="Helvetica,sans-Serif" font-size="10.00">1</text>
</a>
</g>
</g>
<!-- dir_5f28d2c3ec909465699eddda813b2a4c&#45;&gt;dir_abd426de364fe121d209867c04ac8144 -->
<g id="edge5" class="edge">
<title>dir_5f28d2c3ec909465699eddda813b2a4c&#45;&gt;dir_abd426de364fe121d209867c04ac8144</title>
<path fill="none" stroke="black" d="M95.7,-359.7C87.14,-351.14 76.66,-340.66 67.3,-331.3"/>
<polygon fill="black" stroke="black" points="69.65,-328.7 60.1,-324.1 64.7,-333.65 69.65,-328.7"/>
<g id="a_edge5&#45;headlabel"><a xlink:href="dir_000009_000008.html" target="_top" xlink:title="1">
<text text-anchor="middle" x="74.2" y="-326.73" font-family="Helvetica,sans-Serif" font-size="10.00">1</text>
</a>
</g>
</g>
<!-- dir_5f28d2c3ec909465699eddda813b2a4c&#45;&gt;dir_23c761be539445bc999d8c9cd7f0d160 -->
<g id="edge2" class="edge">
<title>dir_5f28d2c3ec909465699eddda813b2a4c&#45;&gt;dir_23c761be539445bc999d8c9cd7f0d160</title>
<path fill="none" stroke="black" d="M140.23,-363.27C143.15,-362.06 146.11,-360.94 149,-360 230.31,-333.53 276.06,-382.95 338,-324 374.53,-289.23 379.31,-226.55 378.7,-190.51"/>
<polygon fill="black" stroke="black" points="382.19,-190.12 378.37,-180.24 375.2,-190.35 382.19,-190.12"/>
<g id="a_edge2&#45;headlabel"><a xlink:href="dir_000009_000005.html" target="_top" xlink:title="1">
<text text-anchor="middle" x="385.15" y="-191.12" font-family="Helvetica,sans-Serif" font-size="10.00">1</text>
</a>
</g>
</g>
<!-- dir_5f28d2c3ec909465699eddda813b2a4c&#45;&gt;dir_9568da6f45be3ef680f9a4c839aac725 -->
<g id="edge4" class="edge">
<title>dir_5f28d2c3ec909465699eddda813b2a4c&#45;&gt;dir_9568da6f45be3ef680f9a4c839aac725</title>
<path fill="none" stroke="black" d="M140.26,-363.39C143.18,-362.15 146.13,-361 149,-360 216.22,-336.67 260.7,-379.68 305,-324 328.44,-294.53 384.19,-266.64 299,-144 288.79,-129.3 246.84,-113.51 214.11,-103.03"/>
<polygon fill="black" stroke="black" points="214.89,-99.61 204.3,-99.95 212.8,-106.29 214.89,-99.61"/>
<g id="a_edge4&#45;headlabel"><a xlink:href="dir_000009_000004.html" target="_top" xlink:title="2">
<text text-anchor="middle" x="219.17" y="-95.47" font-family="Helvetica,sans-Serif" font-size="10.00">2</text>
</a>
</g>
</g>
<!-- dir_678306c98280659c4636a2fdcd0f57fb -->
<g id="node5" class="node">
<title>dir_678306c98280659c4636a2fdcd0f57fb</title>
<g id="a_node5"><a xlink:href="dir_678306c98280659c4636a2fdcd0f57fb.html" target="_top" xlink:title="SuboptimalSolver">
<polygon fill="white" stroke="black" points="191.5,-324 88.5,-324 88.5,-288 191.5,-288 191.5,-324"/>
<text text-anchor="middle" x="140" y="-303.5" font-family="Helvetica,sans-Serif" font-size="10.00">SuboptimalSolver</text>
</a>
</g>
</g>
<!-- dir_678306c98280659c4636a2fdcd0f57fb&#45;&gt;dir_5d93a6f2113cdcaee6d36fb92369a2e4 -->
<g id="edge10" class="edge">
<title>dir_678306c98280659c4636a2fdcd0f57fb&#45;&gt;dir_5d93a6f2113cdcaee6d36fb92369a2e4</title>
<path fill="none" stroke="black" d="M151.12,-287.7C156.36,-279.56 162.7,-269.69 168.48,-260.7"/>
<polygon fill="black" stroke="black" points="171.54,-262.41 174,-252.1 165.65,-258.62 171.54,-262.41"/>
<g id="a_edge10&#45;headlabel"><a xlink:href="dir_000010_000007.html" target="_top" xlink:title="1">
<text text-anchor="middle" x="171.99" y="-264.47" font-family="Helvetica,sans-Serif" font-size="10.00">1</text>
</a>
</g>
</g>
<!-- dir_678306c98280659c4636a2fdcd0f57fb&#45;&gt;dir_9568da6f45be3ef680f9a4c839aac725 -->
<g id="edge11" class="edge">
<title>dir_678306c98280659c4636a2fdcd0f57fb&#45;&gt;dir_9568da6f45be3ef680f9a4c839aac725</title>
<path fill="none" stroke="black" d="M141.03,-287.76C142.32,-268.31 144.88,-235.77 149,-208 153.6,-177.05 161.11,-141.94 166.51,-118.32"/>
<polygon fill="black" stroke="black" points="169.97,-118.87 168.82,-108.34 163.16,-117.29 169.97,-118.87"/>
<g id="a_edge11&#45;headlabel"><a xlink:href="dir_000010_000004.html" target="_top" xlink:title="2">
<text text-anchor="middle" x="171.93" y="-120.51" font-family="Helvetica,sans-Serif" font-size="10.00">2</text>
</a>
</g>
</g>
<!-- dir_0b6462d643eec82adc02acc2ddc1d072&#45;&gt;dir_9568da6f45be3ef680f9a4c839aac725 -->
<g id="edge16" class="edge">
<title>dir_0b6462d643eec82adc02acc2ddc1d072&#45;&gt;dir_9568da6f45be3ef680f9a4c839aac725</title>
<path fill="none" stroke="black" d="M227.96,-143.7C218.94,-135.05 207.88,-124.45 198.06,-115.03"/>
<polygon fill="black" stroke="black" points="200.48,-112.5 190.84,-108.1 195.63,-117.55 200.48,-112.5"/>
<g id="a_edge16&#45;headlabel"><a xlink:href="dir_000000_000004.html" target="_top" xlink:title="6">
<text text-anchor="middle" x="205.04" y="-110.44" font-family="Helvetica,sans-Serif" font-size="10.00">6</text>
</a>
</g>
</g>
<!-- dir_23c761be539445bc999d8c9cd7f0d160&#45;&gt;dir_0a4f1ba803caf780c2827f229c89a1b5 -->
<g id="edge12" class="edge">
<title>dir_23c761be539445bc999d8c9cd7f0d160&#45;&gt;dir_0a4f1ba803caf780c2827f229c89a1b5</title>
<path fill="none" stroke="black" d="M352.39,-143.87C315.79,-118.39 246.92,-70.45 205.98,-41.96"/>
<polygon fill="black" stroke="black" points="207.9,-39.03 197.69,-36.19 203.9,-44.77 207.9,-39.03"/>
<g id="a_edge12&#45;headlabel"><a xlink:href="dir_000005_000001.html" target="_top" xlink:title="1">
<text text-anchor="middle" x="212.47" y="-36.25" font-family="Helvetica,sans-Serif" font-size="10.00">1</text>
</a>
</g>
</g>
<!-- dir_6aec6be4d3c3ce01c5c26f2940f80808&#45;&gt;dir_bdfa83abd3770e9236d0774c4efb3ff7 -->
<g id="edge15" class="edge">
<title>dir_6aec6be4d3c3ce01c5c26f2940f80808&#45;&gt;dir_bdfa83abd3770e9236d0774c4efb3ff7</title>
<path fill="none" stroke="black" d="M243.94,-324.1C234.34,-332.72 222.53,-343.32 212.02,-352.76"/>
<polygon fill="black" stroke="black" points="209.39,-350.41 204.28,-359.7 214.06,-355.62 209.39,-350.41"/>
<g id="a_edge15&#45;headlabel"><a xlink:href="dir_000003_000006.html" target="_top" xlink:title="1">
<text text-anchor="middle" x="210.16" y="-343.4" font-family="Helvetica,sans-Serif" font-size="10.00">1</text>
</a>
</g>
</g>
<!-- dir_6aec6be4d3c3ce01c5c26f2940f80808&#45;&gt;dir_5d93a6f2113cdcaee6d36fb92369a2e4 -->
<g id="edge14" class="edge">
<title>dir_6aec6be4d3c3ce01c5c26f2940f80808&#45;&gt;dir_5d93a6f2113cdcaee6d36fb92369a2e4</title>
<path fill="none" stroke="black" d="M249.63,-287.7C240.81,-278.97 229.03,-268.24 217.89,-258.75"/>
<polygon fill="black" stroke="black" points="219.87,-255.84 209.95,-252.1 215.38,-261.21 219.87,-255.84"/>
<g id="a_edge14&#45;headlabel"><a xlink:href="dir_000003_000007.html" target="_top" xlink:title="1">
<text text-anchor="middle" x="224.45" y="-253.47" font-family="Helvetica,sans-Serif" font-size="10.00">1</text>
</a>
</g>
</g>
<!-- dir_6aec6be4d3c3ce01c5c26f2940f80808&#45;&gt;dir_0b6462d643eec82adc02acc2ddc1d072 -->
<g id="edge13" class="edge">
<title>dir_6aec6be4d3c3ce01c5c26f2940f80808&#45;&gt;dir_0b6462d643eec82adc02acc2ddc1d072</title>
<path fill="none" stroke="black" d="M260.95,-287.87C258.05,-263.67 252.73,-219.21 249.28,-190.39"/>
<polygon fill="black" stroke="black" points="252.72,-189.7 248.06,-180.19 245.77,-190.53 252.72,-189.7"/>
<g id="a_edge13&#45;headlabel"><a xlink:href="dir_000003_000000.html" target="_top" xlink:title="6">
<text text-anchor="middle" x="255.97" y="-190.43" font-family="Helvetica,sans-Serif" font-size="10.00">6</text>
</a>
</g>
</g>
<!-- dir_9568da6f45be3ef680f9a4c839aac725&#45;&gt;dir_0a4f1ba803caf780c2827f229c89a1b5 -->
<g id="edge1" class="edge">
<title>dir_9568da6f45be3ef680f9a4c839aac725&#45;&gt;dir_0a4f1ba803caf780c2827f229c89a1b5</title>
<path fill="none" stroke="black" d="M173,-71.7C173,-63.98 173,-54.71 173,-46.11"/>
<polygon fill="black" stroke="black" points="176.5,-46.1 173,-36.1 169.5,-46.1 176.5,-46.1"/>
<g id="a_edge1&#45;headlabel"><a xlink:href="dir_000004_000001.html" target="_top" xlink:title="1">
<text text-anchor="middle" x="179.34" y="-47.2" font-family="Helvetica,sans-Serif" font-size="10.00">1</text>
</a>
</g>
</g>
</g>
</svg>
