<?xml version="1.0" encoding="UTF-8" standalone="no"?>
<!DOCTYPE svg PUBLIC "-//W3C//DTD SVG 1.1//EN"
 "http://www.w3.org/Graphics/SVG/1.1/DTD/svg11.dtd">
<!-- Generated by graphviz version 2.43.0 (0)
 -->
<!-- Title: AStar Pages: 1 -->
<svg width="184pt" height="223pt"
 viewBox="0.00 0.00 183.87 223.00" xmlns="http://www.w3.org/2000/svg" xmlns:xlink="http://www.w3.org/1999/xlink">
<g id="graph0" class="graph" transform="scale(1 1) rotate(0) translate(4 219)">
<title>AStar</title>
<polygon fill="white" stroke="transparent" points="-4,4 -4,-219 179.87,-219 179.87,4 -4,4"/>
<g id="clust1" class="cluster">
<title>clusterdir_bdfa83abd3770e9236d0774c4efb3ff7</title>
<g id="a_clust1"><a xlink:href="dir_bdfa83abd3770e9236d0774c4efb3ff7.html" target="_top" xlink:title="Solvers">
<polygon fill="#ddddee" stroke="black" points="96.5,-136 96.5,-207 166.5,-207 166.5,-136 96.5,-136"/>
<text text-anchor="middle" x="131.5" y="-195" font-family="Helvetica,sans-Serif" font-size="10.00">Solvers</text>
</a>
</g>
</g>
<!-- dir_5d93a6f2113cdcaee6d36fb92369a2e4 -->
<g id="node1" class="node">
<title>dir_5d93a6f2113cdcaee6d36fb92369a2e4</title>
<g id="a_node1"><a xlink:href="dir_5d93a6f2113cdcaee6d36fb92369a2e4.html" target="_top" xlink:title="AStar">
<polygon fill="#eeeeff" stroke="black" points="158.5,-180 104.5,-180 104.5,-144 158.5,-144 158.5,-180"/>
<text text-anchor="middle" x="131.5" y="-159.5" font-family="Helvetica,sans-Serif" font-size="10.00">AStar</text>
</a>
</g>
</g>
<!-- dir_0b6462d643eec82adc02acc2ddc1d072 -->
<g id="node2" class="node">
<title>dir_0b6462d643eec82adc02acc2ddc1d072</title>
<g id="a_node2"><a xlink:href="dir_0b6462d643eec82adc02acc2ddc1d072.html" target="_top" xlink:title="AStarProblems">
<polygon fill="none" stroke="black" points="89,-108 0,-108 0,-72 89,-72 89,-108"/>
<text text-anchor="middle" x="44.5" y="-87.5" font-family="Helvetica,sans-Serif" font-size="10.00">AStarProblems</text>
</a>
</g>
</g>
<!-- dir_5d93a6f2113cdcaee6d36fb92369a2e4&#45;&gt;dir_0b6462d643eec82adc02acc2ddc1d072 -->
<g id="edge1" class="edge">
<title>dir_5d93a6f2113cdcaee6d36fb92369a2e4&#45;&gt;dir_0b6462d643eec82adc02acc2ddc1d072</title>
<path fill="none" stroke="black" d="M109.99,-143.7C99.04,-134.88 85.55,-124.03 73.68,-114.47"/>
<polygon fill="black" stroke="black" points="75.74,-111.65 65.76,-108.1 71.36,-117.1 75.74,-111.65"/>
<g id="a_edge1&#45;headlabel"><a xlink:href="dir_000003_000004.html" target="_top" xlink:title="2">
<text text-anchor="middle" x="80.32" y="-109.19" font-family="Helvetica,sans-Serif" font-size="10.00">2</text>
</a>
</g>
</g>
<!-- dir_23c761be539445bc999d8c9cd7f0d160 -->
<g id="node3" class="node">
<title>dir_23c761be539445bc999d8c9cd7f0d160</title>
<g id="a_node3"><a xlink:href="dir_23c761be539445bc999d8c9cd7f0d160.html" target="_top" xlink:title="Solution">
<polygon fill="none" stroke="black" points="162.5,-108 106.5,-108 106.5,-72 162.5,-72 162.5,-108"/>
<text text-anchor="middle" x="134.5" y="-87.5" font-family="Helvetica,sans-Serif" font-size="10.00">Solution</text>
</a>
</g>
</g>
<!-- dir_5d93a6f2113cdcaee6d36fb92369a2e4&#45;&gt;dir_23c761be539445bc999d8c9cd7f0d160 -->
<g id="edge2" class="edge">
<title>dir_5d93a6f2113cdcaee6d36fb92369a2e4&#45;&gt;dir_23c761be539445bc999d8c9cd7f0d160</title>
<path fill="none" stroke="black" d="M132.24,-143.7C132.57,-135.98 132.97,-126.71 133.34,-118.11"/>
<polygon fill="black" stroke="black" points="136.84,-118.25 133.77,-108.1 129.84,-117.95 136.84,-118.25"/>
<g id="a_edge2&#45;headlabel"><a xlink:href="dir_000003_000011.html" target="_top" xlink:title="1">
<text text-anchor="middle" x="139.52" y="-119.46" font-family="Helvetica,sans-Serif" font-size="10.00">1</text>
</a>
</g>
</g>
<!-- dir_6aec6be4d3c3ce01c5c26f2940f80808 -->
<g id="node4" class="node">
<title>dir_6aec6be4d3c3ce01c5c26f2940f80808</title>
<g id="a_node4"><a xlink:href="dir_6aec6be4d3c3ce01c5c26f2940f80808.html" target="_top" xlink:title="Heuristics">
<polygon fill="none" stroke="black" points="80,-180 15,-180 15,-144 80,-144 80,-180"/>
<text text-anchor="middle" x="47.5" y="-159.5" font-family="Helvetica,sans-Serif" font-size="10.00">Heuristics</text>
</a>
</g>
</g>
<!-- dir_5d93a6f2113cdcaee6d36fb92369a2e4&#45;&gt;dir_6aec6be4d3c3ce01c5c26f2940f80808 -->
<g id="edge3" class="edge">
<title>dir_5d93a6f2113cdcaee6d36fb92369a2e4&#45;&gt;dir_6aec6be4d3c3ce01c5c26f2940f80808</title>
<path fill="none" stroke="black" d="M104.31,-162C99.68,-162 95.06,-162 90.44,-162"/>
<polygon fill="black" stroke="black" points="90.31,-158.5 80.31,-162 90.31,-165.5 90.31,-158.5"/>
<g id="a_edge3&#45;headlabel"><a xlink:href="dir_000003_000008.html" target="_top" xlink:title="2">
<text text-anchor="middle" x="93.91" y="-153.16" font-family="Helvetica,sans-Serif" font-size="10.00">2</text>
</a>
</g>
</g>
<!-- dir_9568da6f45be3ef680f9a4c839aac725 -->
<g id="node5" class="node">
<title>dir_9568da6f45be3ef680f9a4c839aac725</title>
<g id="a_node5"><a xlink:href="dir_9568da6f45be3ef680f9a4c839aac725.html" target="_top" xlink:title="Problems">
<polygon fill="none" stroke="black" points="148.5,-36 86.5,-36 86.5,0 148.5,0 148.5,-36"/>
<text text-anchor="middle" x="117.5" y="-15.5" font-family="Helvetica,sans-Serif" font-size="10.00">Problems</text>
</a>
</g>
</g>
<!-- dir_5d93a6f2113cdcaee6d36fb92369a2e4&#45;&gt;dir_9568da6f45be3ef680f9a4c839aac725 -->
<g id="edge4" class="edge">
<title>dir_5d93a6f2113cdcaee6d36fb92369a2e4&#45;&gt;dir_9568da6f45be3ef680f9a4c839aac725</title>
<path fill="none" stroke="black" d="M149.23,-143.6C157.74,-134 167.03,-121.34 171.5,-108 176.58,-92.83 177.69,-86.75 171.5,-72 166.86,-60.95 158.67,-51.04 150.04,-42.86"/>
<polygon fill="black" stroke="black" points="152.24,-40.14 142.43,-36.14 147.61,-45.38 152.24,-40.14"/>
<g id="a_edge4&#45;headlabel"><a xlink:href="dir_000003_000009.html" target="_top" xlink:title="1">
<text text-anchor="middle" x="156.81" y="-37.89" font-family="Helvetica,sans-Serif" font-size="10.00">1</text>
</a>
</g>
</g>
<!-- dir_0b6462d643eec82adc02acc2ddc1d072&#45;&gt;dir_9568da6f45be3ef680f9a4c839aac725 -->
<g id="edge7" class="edge">
<title>dir_0b6462d643eec82adc02acc2ddc1d072&#45;&gt;dir_9568da6f45be3ef680f9a4c839aac725</title>
<path fill="none" stroke="black" d="M62.54,-71.7C71.56,-63.05 82.62,-52.45 92.44,-43.03"/>
<polygon fill="black" stroke="black" points="94.87,-45.55 99.66,-36.1 90.02,-40.5 94.87,-45.55"/>
<g id="a_edge7&#45;headlabel"><a xlink:href="dir_000004_000009.html" target="_top" xlink:title="6">
<text text-anchor="middle" x="94.24" y="-47.59" font-family="Helvetica,sans-Serif" font-size="10.00">6</text>
</a>
</g>
</g>
<!-- dir_6aec6be4d3c3ce01c5c26f2940f80808&#45;&gt;dir_5d93a6f2113cdcaee6d36fb92369a2e4 -->
<g id="edge6" class="edge">
<title>dir_6aec6be4d3c3ce01c5c26f2940f80808&#45;&gt;dir_5d93a6f2113cdcaee6d36fb92369a2e4</title>
<path fill="none" stroke="black" d="M80.31,-162C84.94,-162 89.56,-162 94.18,-162"/>
<polygon fill="black" stroke="black" points="94.31,-165.5 104.31,-162 94.31,-158.5 94.31,-165.5"/>
<g id="a_edge6&#45;headlabel"><a xlink:href="dir_000008_000003.html" target="_top" xlink:title="1">
<text text-anchor="middle" x="90.71" y="-165.84" font-family="Helvetica,sans-Serif" font-size="10.00">1</text>
</a>
</g>
</g>
<!-- dir_6aec6be4d3c3ce01c5c26f2940f80808&#45;&gt;dir_0b6462d643eec82adc02acc2ddc1d072 -->
<g id="edge5" class="edge">
<title>dir_6aec6be4d3c3ce01c5c26f2940f80808&#45;&gt;dir_0b6462d643eec82adc02acc2ddc1d072</title>
<path fill="none" stroke="black" d="M46.76,-143.7C46.43,-135.98 46.03,-126.71 45.66,-118.11"/>
<polygon fill="black" stroke="black" points="49.16,-117.95 45.23,-108.1 42.16,-118.25 49.16,-117.95"/>
<g id="a_edge5&#45;headlabel"><a xlink:href="dir_000008_000004.html" target="_top" xlink:title="6">
<text text-anchor="middle" x="52.15" y="-118.92" font-family="Helvetica,sans-Serif" font-size="10.00">6</text>
</a>
</g>
</g>
</g>
</svg>
