<?xml version="1.0" encoding="UTF-8" standalone="no"?>
<!DOCTYPE svg PUBLIC "-//W3C//DTD SVG 1.1//EN"
 "http://www.w3.org/Graphics/SVG/1.1/DTD/svg11.dtd">
<!-- Generated by graphviz version 2.43.0 (0)
 -->
<!-- Title: AStarProblems Pages: 1 -->
<svg width="142pt" height="116pt"
 viewBox="0.00 0.00 142.00 116.00" xmlns="http://www.w3.org/2000/svg" xmlns:xlink="http://www.w3.org/1999/xlink">
<g id="graph0" class="graph" transform="scale(1 1) rotate(0) translate(4 112)">
<title>AStarProblems</title>
<polygon fill="white" stroke="transparent" points="-4,4 -4,-112 138,-112 138,4 -4,4"/>
<!-- dir_0b6462d643eec82adc02acc2ddc1d072 -->
<g id="node1" class="node">
<title>dir_0b6462d643eec82adc02acc2ddc1d072</title>
<g id="a_node1"><a xlink:href="dir_0b6462d643eec82adc02acc2ddc1d072.html" target="_top" xlink:title="AStarProblems">
<polygon fill="#eeeeff" stroke="black" points="109.5,-108 20.5,-108 20.5,-72 109.5,-72 109.5,-108"/>
<text text-anchor="middle" x="65" y="-87.5" font-family="Helvetica,sans-Serif" font-size="10.00">AStarProblems</text>
</a>
</g>
</g>
<!-- dir_633db867517fc930a7645f2dac5f41c1 -->
<g id="node2" class="node">
<title>dir_633db867517fc930a7645f2dac5f41c1</title>
<g id="a_node2"><a xlink:href="dir_633db867517fc930a7645f2dac5f41c1.html" target="_top" xlink:title="States">
<polygon fill="none" stroke="black" points="54,-36 0,-36 0,0 54,0 54,-36"/>
<text text-anchor="middle" x="27" y="-15.5" font-family="Helvetica,sans-Serif" font-size="10.00">States</text>
</a>
</g>
</g>
<!-- dir_0b6462d643eec82adc02acc2ddc1d072&#45;&gt;dir_633db867517fc930a7645f2dac5f41c1 -->
<g id="edge1" class="edge">
<title>dir_0b6462d643eec82adc02acc2ddc1d072&#45;&gt;dir_633db867517fc930a7645f2dac5f41c1</title>
<path fill="none" stroke="black" d="M55.61,-71.7C51.24,-63.64 45.94,-53.89 41.1,-44.98"/>
<polygon fill="black" stroke="black" points="44.13,-43.22 36.29,-36.1 37.98,-46.56 44.13,-43.22"/>
<g id="a_edge1&#45;headlabel"><a xlink:href="dir_000004_000010.html" target="_top" xlink:title="6">
<text text-anchor="middle" x="48.34" y="-42.53" font-family="Helvetica,sans-Serif" font-size="10.00">6</text>
</a>
</g>
</g>
<!-- dir_9568da6f45be3ef680f9a4c839aac725 -->
<g id="node3" class="node">
<title>dir_9568da6f45be3ef680f9a4c839aac725</title>
<g id="a_node3"><a xlink:href="dir_9568da6f45be3ef680f9a4c839aac725.html" target="_top" xlink:title="Problems">
<polygon fill="none" stroke="black" points="134,-36 72,-36 72,0 134,0 134,-36"/>
<text text-anchor="middle" x="103" y="-15.5" font-family="Helvetica,sans-Serif" font-size="10.00">Problems</text>
</a>
</g>
</g>
<!-- dir_0b6462d643eec82adc02acc2ddc1d072&#45;&gt;dir_9568da6f45be3ef680f9a4c839aac725 -->
<g id="edge2" class="edge">
<title>dir_0b6462d643eec82adc02acc2ddc1d072&#45;&gt;dir_9568da6f45be3ef680f9a4c839aac725</title>
<path fill="none" stroke="black" d="M74.39,-71.7C78.76,-63.64 84.06,-53.89 88.9,-44.98"/>
<polygon fill="black" stroke="black" points="92.02,-46.56 93.71,-36.1 85.87,-43.22 92.02,-46.56"/>
<g id="a_edge2&#45;headlabel"><a xlink:href="dir_000004_000009.html" target="_top" xlink:title="6">
<text text-anchor="middle" x="92.8" y="-48.58" font-family="Helvetica,sans-Serif" font-size="10.00">6</text>
</a>
</g>
</g>
</g>
</svg>
