<?xml version="1.0" encoding="UTF-8" standalone="no"?>
<!DOCTYPE svg PUBLIC "-//W3C//DTD SVG 1.1//EN"
 "http://www.w3.org/Graphics/SVG/1.1/DTD/svg11.dtd">
<!-- Generated by graphviz version 2.43.0 (0)
 -->
<!-- Title: Solvers/SuboptimalSolver Pages: 1 -->
<svg width="144pt" height="223pt"
 viewBox="0.00 0.00 144.00 223.00" xmlns="http://www.w3.org/2000/svg" xmlns:xlink="http://www.w3.org/1999/xlink">
<g id="graph0" class="graph" transform="scale(1 1) rotate(0) translate(4 219)">
<title>Solvers/SuboptimalSolver</title>
<polygon fill="white" stroke="transparent" points="-4,4 -4,-219 140,-219 140,4 -4,4"/>
<g id="clust1" class="cluster">
<title>clusterdir_bdfa83abd3770e9236d0774c4efb3ff7</title>
<g id="a_clust1"><a xlink:href="dir_bdfa83abd3770e9236d0774c4efb3ff7.html" target="_top" xlink:title="Solvers">
<polygon fill="#ddddee" stroke="black" points="8,-64 8,-207 128,-207 128,-64 8,-64"/>
<text text-anchor="middle" x="68" y="-195" font-family="Helvetica,sans-Serif" font-size="10.00">Solvers</text>
</a>
</g>
</g>
<!-- dir_5d93a6f2113cdcaee6d36fb92369a2e4 -->
<g id="node1" class="node">
<title>dir_5d93a6f2113cdcaee6d36fb92369a2e4</title>
<g id="a_node1"><a xlink:href="dir_5d93a6f2113cdcaee6d36fb92369a2e4.html" target="_top" xlink:title="AStar">
<polygon fill="none" stroke="black" points="82,-108 28,-108 28,-72 82,-72 82,-108"/>
<text text-anchor="middle" x="55" y="-87.5" font-family="Helvetica,sans-Serif" font-size="10.00">AStar</text>
</a>
</g>
</g>
<!-- dir_9568da6f45be3ef680f9a4c839aac725 -->
<g id="node3" class="node">
<title>dir_9568da6f45be3ef680f9a4c839aac725</title>
<g id="a_node3"><a xlink:href="dir_9568da6f45be3ef680f9a4c839aac725.html" target="_top" xlink:title="Problems">
<polygon fill="none" stroke="black" points="113,-36 51,-36 51,0 113,0 113,-36"/>
<text text-anchor="middle" x="82" y="-15.5" font-family="Helvetica,sans-Serif" font-size="10.00">Problems</text>
</a>
</g>
</g>
<!-- dir_5d93a6f2113cdcaee6d36fb92369a2e4&#45;&gt;dir_9568da6f45be3ef680f9a4c839aac725 -->
<g id="edge1" class="edge">
<title>dir_5d93a6f2113cdcaee6d36fb92369a2e4&#45;&gt;dir_9568da6f45be3ef680f9a4c839aac725</title>
<path fill="none" stroke="black" d="M61.67,-71.7C64.71,-63.81 68.38,-54.3 71.76,-45.55"/>
<polygon fill="black" stroke="black" points="75.07,-46.69 75.4,-36.1 68.54,-44.17 75.07,-46.69"/>
<g id="a_edge1&#45;headlabel"><a xlink:href="dir_000007_000004.html" target="_top" xlink:title="1">
<text text-anchor="middle" x="76.42" y="-48.57" font-family="Helvetica,sans-Serif" font-size="10.00">1</text>
</a>
</g>
</g>
<!-- dir_678306c98280659c4636a2fdcd0f57fb -->
<g id="node2" class="node">
<title>dir_678306c98280659c4636a2fdcd0f57fb</title>
<g id="a_node2"><a xlink:href="dir_678306c98280659c4636a2fdcd0f57fb.html" target="_top" xlink:title="SuboptimalSolver">
<polygon fill="#eeeeff" stroke="black" points="119.5,-180 16.5,-180 16.5,-144 119.5,-144 119.5,-180"/>
<text text-anchor="middle" x="68" y="-159.5" font-family="Helvetica,sans-Serif" font-size="10.00">SuboptimalSolver</text>
</a>
</g>
</g>
<!-- dir_678306c98280659c4636a2fdcd0f57fb&#45;&gt;dir_5d93a6f2113cdcaee6d36fb92369a2e4 -->
<g id="edge2" class="edge">
<title>dir_678306c98280659c4636a2fdcd0f57fb&#45;&gt;dir_5d93a6f2113cdcaee6d36fb92369a2e4</title>
<path fill="none" stroke="black" d="M64.79,-143.7C63.35,-135.98 61.63,-126.71 60.04,-118.11"/>
<polygon fill="black" stroke="black" points="63.44,-117.3 58.18,-108.1 56.56,-118.58 63.44,-117.3"/>
<g id="a_edge2&#45;headlabel"><a xlink:href="dir_000010_000007.html" target="_top" xlink:title="1">
<text text-anchor="middle" x="66.89" y="-117.81" font-family="Helvetica,sans-Serif" font-size="10.00">1</text>
</a>
</g>
</g>
<!-- dir_678306c98280659c4636a2fdcd0f57fb&#45;&gt;dir_9568da6f45be3ef680f9a4c839aac725 -->
<g id="edge3" class="edge">
<title>dir_678306c98280659c4636a2fdcd0f57fb&#45;&gt;dir_9568da6f45be3ef680f9a4c839aac725</title>
<path fill="none" stroke="black" d="M77.54,-143.93C82.64,-133.82 88.39,-120.57 91,-108 95.24,-87.6 92.56,-64.14 89.05,-46.43"/>
<polygon fill="black" stroke="black" points="92.38,-45.24 86.82,-36.22 85.54,-46.74 92.38,-45.24"/>
<g id="a_edge3&#45;headlabel"><a xlink:href="dir_000010_000004.html" target="_top" xlink:title="2">
<text text-anchor="middle" x="95.92" y="-45.65" font-family="Helvetica,sans-Serif" font-size="10.00">2</text>
</a>
</g>
</g>
</g>
</svg>
