<?xml version="1.0" encoding="UTF-8" standalone="no"?>
<!DOCTYPE svg PUBLIC "-//W3C//DTD SVG 1.1//EN"
 "http://www.w3.org/Graphics/SVG/1.1/DTD/svg11.dtd">
<!-- Generated by graphviz version 2.43.0 (0)
 -->
<!-- Title: Heuristics Pages: 1 -->
<svg width="170pt" height="188pt"
 viewBox="0.00 0.00 169.55 188.00" xmlns="http://www.w3.org/2000/svg" xmlns:xlink="http://www.w3.org/1999/xlink">
<g id="graph0" class="graph" transform="scale(1 1) rotate(0) translate(4 184)">
<title>Heuristics</title>
<polygon fill="white" stroke="transparent" points="-4,4 -4,-184 165.55,-184 165.55,4 -4,4"/>
<!-- dir_6aec6be4d3c3ce01c5c26f2940f80808 -->
<g id="node1" class="node">
<title>dir_6aec6be4d3c3ce01c5c26f2940f80808</title>
<g id="a_node1"><a xlink:href="dir_6aec6be4d3c3ce01c5c26f2940f80808.html" target="_top" xlink:title="Heuristics">
<polygon fill="#eeeeff" stroke="black" points="84.05,-180 19.05,-180 19.05,-144 84.05,-144 84.05,-180"/>
<text text-anchor="middle" x="51.55" y="-159.5" font-family="Helvetica,sans-Serif" font-size="10.00">Heuristics</text>
</a>
</g>
</g>
<!-- dir_0b6462d643eec82adc02acc2ddc1d072 -->
<g id="node2" class="node">
<title>dir_0b6462d643eec82adc02acc2ddc1d072</title>
<g id="a_node2"><a xlink:href="dir_0b6462d643eec82adc02acc2ddc1d072.html" target="_top" xlink:title="AStarProblems">
<polygon fill="none" stroke="black" points="104.05,-36 15.05,-36 15.05,0 104.05,0 104.05,-36"/>
<text text-anchor="middle" x="59.55" y="-15.5" font-family="Helvetica,sans-Serif" font-size="10.00">AStarProblems</text>
</a>
</g>
</g>
<!-- dir_6aec6be4d3c3ce01c5c26f2940f80808&#45;&gt;dir_0b6462d643eec82adc02acc2ddc1d072 -->
<g id="edge2" class="edge">
<title>dir_6aec6be4d3c3ce01c5c26f2940f80808&#45;&gt;dir_0b6462d643eec82adc02acc2ddc1d072</title>
<path fill="none" stroke="black" d="M30.28,-143.7C20.44,-134.31 9.79,-121.8 4.55,-108 -1.13,-93.04 -1.71,-86.72 4.55,-72 9.28,-60.86 17.63,-50.93 26.42,-42.76"/>
<polygon fill="black" stroke="black" points="28.9,-45.24 34.17,-36.05 24.32,-39.95 28.9,-45.24"/>
<g id="a_edge2&#45;headlabel"><a xlink:href="dir_000003_000000.html" target="_top" xlink:title="6">
<text text-anchor="middle" x="28.04" y="-47.24" font-family="Helvetica,sans-Serif" font-size="10.00">6</text>
</a>
</g>
</g>
<!-- dir_b46252c81027d4122fff056403e62783 -->
<g id="node3" class="node">
<title>dir_b46252c81027d4122fff056403e62783</title>
<g id="a_node3"><a xlink:href="dir_b46252c81027d4122fff056403e62783.html" target="_top" xlink:title="GraphParser">
<polygon fill="none" stroke="black" points="89.55,-108 13.55,-108 13.55,-72 89.55,-72 89.55,-108"/>
<text text-anchor="middle" x="51.55" y="-87.5" font-family="Helvetica,sans-Serif" font-size="10.00">GraphParser</text>
</a>
</g>
</g>
<!-- dir_6aec6be4d3c3ce01c5c26f2940f80808&#45;&gt;dir_b46252c81027d4122fff056403e62783 -->
<g id="edge3" class="edge">
<title>dir_6aec6be4d3c3ce01c5c26f2940f80808&#45;&gt;dir_b46252c81027d4122fff056403e62783</title>
<path fill="none" stroke="black" d="M51.55,-143.7C51.55,-135.98 51.55,-126.71 51.55,-118.11"/>
<polygon fill="black" stroke="black" points="55.05,-118.1 51.55,-108.1 48.05,-118.1 55.05,-118.1"/>
<g id="a_edge3&#45;headlabel"><a xlink:href="dir_000003_000002.html" target="_top" xlink:title="1">
<text text-anchor="middle" x="57.89" y="-119.2" font-family="Helvetica,sans-Serif" font-size="10.00">1</text>
</a>
</g>
</g>
<!-- dir_bdfa83abd3770e9236d0774c4efb3ff7 -->
<g id="node4" class="node">
<title>dir_bdfa83abd3770e9236d0774c4efb3ff7</title>
<g id="a_node4"><a xlink:href="dir_bdfa83abd3770e9236d0774c4efb3ff7.html" target="_top" xlink:title="Solvers">
<polygon fill="white" stroke="red" points="161.55,-108 107.55,-108 107.55,-72 161.55,-72 161.55,-108"/>
<text text-anchor="middle" x="134.55" y="-87.5" font-family="Helvetica,sans-Serif" font-size="10.00">Solvers</text>
</a>
</g>
</g>
<!-- dir_6aec6be4d3c3ce01c5c26f2940f80808&#45;&gt;dir_bdfa83abd3770e9236d0774c4efb3ff7 -->
<g id="edge4" class="edge">
<title>dir_6aec6be4d3c3ce01c5c26f2940f80808&#45;&gt;dir_bdfa83abd3770e9236d0774c4efb3ff7</title>
<path fill="none" stroke="black" d="M72.07,-143.7C82.42,-134.97 95.14,-124.24 106.39,-114.75"/>
<polygon fill="black" stroke="black" points="108.88,-117.23 114.27,-108.1 104.37,-111.88 108.88,-117.23"/>
<g id="a_edge4&#45;headlabel"><a xlink:href="dir_000003_000006.html" target="_top" xlink:title="1">
<text text-anchor="middle" x="107.96" y="-119.21" font-family="Helvetica,sans-Serif" font-size="10.00">1</text>
</a>
</g>
</g>
<!-- dir_bdfa83abd3770e9236d0774c4efb3ff7&#45;&gt;dir_0b6462d643eec82adc02acc2ddc1d072 -->
<g id="edge1" class="edge">
<title>dir_bdfa83abd3770e9236d0774c4efb3ff7&#45;&gt;dir_0b6462d643eec82adc02acc2ddc1d072</title>
<path fill="none" stroke="black" d="M116.01,-71.7C106.75,-63.05 95.39,-52.45 85.29,-43.03"/>
<polygon fill="black" stroke="black" points="87.57,-40.37 77.88,-36.1 82.8,-45.49 87.57,-40.37"/>
<g id="a_edge1&#45;headlabel"><a xlink:href="dir_000006_000000.html" target="_top" xlink:title="2">
<text text-anchor="middle" x="92.14" y="-38.25" font-family="Helvetica,sans-Serif" font-size="10.00">2</text>
</a>
</g>
</g>
</g>
</svg>
