<?xml version="1.0" encoding="UTF-8" standalone="no"?>
<!DOCTYPE svg PUBLIC "-//W3C//DTD SVG 1.1//EN"
 "http://www.w3.org/Graphics/SVG/1.1/DTD/svg11.dtd">
<!-- Generated by graphviz version 2.43.0 (0)
 -->
<!-- Title: Solvers/CBS Pages: 1 -->
<svg width="150pt" height="295pt"
 viewBox="0.00 0.00 150.00 295.00" xmlns="http://www.w3.org/2000/svg" xmlns:xlink="http://www.w3.org/1999/xlink">
<g id="graph0" class="graph" transform="scale(1 1) rotate(0) translate(4 291)">
<title>Solvers/CBS</title>
<polygon fill="white" stroke="transparent" points="-4,4 -4,-291 146,-291 146,4 -4,4"/>
<g id="clust1" class="cluster">
<title>clusterdir_bdfa83abd3770e9236d0774c4efb3ff7</title>
<g id="a_clust1"><a xlink:href="dir_bdfa83abd3770e9236d0774c4efb3ff7.html" target="_top" xlink:title="Solvers">
<polygon fill="#ddddee" stroke="black" points="8,-136 8,-279 78,-279 78,-136 8,-136"/>
<text text-anchor="middle" x="43" y="-267" font-family="Helvetica,sans-Serif" font-size="10.00">Solvers</text>
</a>
</g>
</g>
<!-- dir_5d93a6f2113cdcaee6d36fb92369a2e4 -->
<g id="node1" class="node">
<title>dir_5d93a6f2113cdcaee6d36fb92369a2e4</title>
<g id="a_node1"><a xlink:href="dir_5d93a6f2113cdcaee6d36fb92369a2e4.html" target="_top" xlink:title="AStar">
<polygon fill="none" stroke="black" points="70,-180 16,-180 16,-144 70,-144 70,-180"/>
<text text-anchor="middle" x="43" y="-159.5" font-family="Helvetica,sans-Serif" font-size="10.00">AStar</text>
</a>
</g>
</g>
<!-- dir_9568da6f45be3ef680f9a4c839aac725 -->
<g id="node4" class="node">
<title>dir_9568da6f45be3ef680f9a4c839aac725</title>
<g id="a_node4"><a xlink:href="dir_9568da6f45be3ef680f9a4c839aac725.html" target="_top" xlink:title="Problems">
<polygon fill="none" stroke="black" points="108,-108 46,-108 46,-72 108,-72 108,-108"/>
<text text-anchor="middle" x="77" y="-87.5" font-family="Helvetica,sans-Serif" font-size="10.00">Problems</text>
</a>
</g>
</g>
<!-- dir_5d93a6f2113cdcaee6d36fb92369a2e4&#45;&gt;dir_9568da6f45be3ef680f9a4c839aac725 -->
<g id="edge2" class="edge">
<title>dir_5d93a6f2113cdcaee6d36fb92369a2e4&#45;&gt;dir_9568da6f45be3ef680f9a4c839aac725</title>
<path fill="none" stroke="black" d="M51.4,-143.7C55.27,-135.73 59.95,-126.1 64.24,-117.26"/>
<polygon fill="black" stroke="black" points="67.47,-118.63 68.69,-108.1 61.17,-115.57 67.47,-118.63"/>
<g id="a_edge2&#45;headlabel"><a xlink:href="dir_000007_000004.html" target="_top" xlink:title="1">
<text text-anchor="middle" x="68.45" y="-120.6" font-family="Helvetica,sans-Serif" font-size="10.00">1</text>
</a>
</g>
</g>
<!-- dir_abd426de364fe121d209867c04ac8144 -->
<g id="node2" class="node">
<title>dir_abd426de364fe121d209867c04ac8144</title>
<g id="a_node2"><a xlink:href="dir_abd426de364fe121d209867c04ac8144.html" target="_top" xlink:title="CBS">
<polygon fill="#eeeeff" stroke="black" points="70,-252 16,-252 16,-216 70,-216 70,-252"/>
<text text-anchor="middle" x="43" y="-231.5" font-family="Helvetica,sans-Serif" font-size="10.00">CBS</text>
</a>
</g>
</g>
<!-- dir_abd426de364fe121d209867c04ac8144&#45;&gt;dir_5d93a6f2113cdcaee6d36fb92369a2e4 -->
<g id="edge4" class="edge">
<title>dir_abd426de364fe121d209867c04ac8144&#45;&gt;dir_5d93a6f2113cdcaee6d36fb92369a2e4</title>
<path fill="none" stroke="black" d="M43,-215.7C43,-207.98 43,-198.71 43,-190.11"/>
<polygon fill="black" stroke="black" points="46.5,-190.1 43,-180.1 39.5,-190.1 46.5,-190.1"/>
<g id="a_edge4&#45;headlabel"><a xlink:href="dir_000008_000007.html" target="_top" xlink:title="1">
<text text-anchor="middle" x="49.34" y="-191.2" font-family="Helvetica,sans-Serif" font-size="10.00">1</text>
</a>
</g>
</g>
<!-- dir_0a4f1ba803caf780c2827f229c89a1b5 -->
<g id="node3" class="node">
<title>dir_0a4f1ba803caf780c2827f229c89a1b5</title>
<g id="a_node3"><a xlink:href="dir_0a4f1ba803caf780c2827f229c89a1b5.html" target="_top" xlink:title="Constraints">
<polygon fill="none" stroke="black" points="142,-36 70,-36 70,0 142,0 142,-36"/>
<text text-anchor="middle" x="106" y="-15.5" font-family="Helvetica,sans-Serif" font-size="10.00">Constraints</text>
</a>
</g>
</g>
<!-- dir_abd426de364fe121d209867c04ac8144&#45;&gt;dir_0a4f1ba803caf780c2827f229c89a1b5 -->
<g id="edge3" class="edge">
<title>dir_abd426de364fe121d209867c04ac8144&#45;&gt;dir_0a4f1ba803caf780c2827f229c89a1b5</title>
<path fill="none" stroke="black" d="M63.96,-215.98C74.58,-206.4 86.9,-193.63 95,-180 120.03,-137.89 122,-120.73 117,-72 116.12,-63.46 114.47,-54.26 112.71,-45.96"/>
<polygon fill="black" stroke="black" points="116.08,-45.03 110.46,-36.05 109.26,-46.57 116.08,-45.03"/>
<g id="a_edge3&#45;headlabel"><a xlink:href="dir_000008_000001.html" target="_top" xlink:title="2">
<text text-anchor="middle" x="119.65" y="-45.41" font-family="Helvetica,sans-Serif" font-size="10.00">2</text>
</a>
</g>
</g>
<!-- dir_abd426de364fe121d209867c04ac8144&#45;&gt;dir_9568da6f45be3ef680f9a4c839aac725 -->
<g id="edge5" class="edge">
<title>dir_abd426de364fe121d209867c04ac8144&#45;&gt;dir_9568da6f45be3ef680f9a4c839aac725</title>
<path fill="none" stroke="black" d="M58.61,-215.77C66.37,-206.03 74.95,-193.18 79,-180 85.16,-159.97 84.23,-136.18 82,-118.24"/>
<polygon fill="black" stroke="black" points="85.44,-117.56 80.53,-108.17 78.51,-118.57 85.44,-117.56"/>
<g id="a_edge5&#45;headlabel"><a xlink:href="dir_000008_000004.html" target="_top" xlink:title="1">
<text text-anchor="middle" x="88.76" y="-118.21" font-family="Helvetica,sans-Serif" font-size="10.00">1</text>
</a>
</g>
</g>
<!-- dir_9568da6f45be3ef680f9a4c839aac725&#45;&gt;dir_0a4f1ba803caf780c2827f229c89a1b5 -->
<g id="edge1" class="edge">
<title>dir_9568da6f45be3ef680f9a4c839aac725&#45;&gt;dir_0a4f1ba803caf780c2827f229c89a1b5</title>
<path fill="none" stroke="black" d="M84.17,-71.7C87.43,-63.81 91.37,-54.3 95,-45.55"/>
<polygon fill="black" stroke="black" points="98.32,-46.68 98.91,-36.1 91.85,-44 98.32,-46.68"/>
<g id="a_edge1&#45;headlabel"><a xlink:href="dir_000004_000001.html" target="_top" xlink:title="1">
<text text-anchor="middle" x="99.57" y="-48.59" font-family="Helvetica,sans-Serif" font-size="10.00">1</text>
</a>
</g>
</g>
</g>
</svg>
