<?xml version="1.0" encoding="UTF-8" standalone="no"?>
<!DOCTYPE svg PUBLIC "-//W3C//DTD SVG 1.1//EN"
 "http://www.w3.org/Graphics/SVG/1.1/DTD/svg11.dtd">
<!-- Generated by graphviz version 2.43.0 (0)
 -->
<!-- Title: EdgeConstraint.h Pages: 1 -->
<svg width="1658pt" height="778pt"
 viewBox="0.00 0.00 1657.66 778.00" xmlns="http://www.w3.org/2000/svg" xmlns:xlink="http://www.w3.org/1999/xlink">
<g id="graph0" class="graph" transform="scale(1 1) rotate(0) translate(4 774)">
<title>EdgeConstraint.h</title>
<polygon fill="white" stroke="transparent" points="-4,4 -4,-774 1653.66,-774 1653.66,4 -4,4"/>
<!-- Node1 -->
<g id="node1" class="node">
<title>Node1</title>
<g id="a_node1"><a xlink:title=" ">
<polygon fill="#bfbfbf" stroke="black" points="773.16,-750.5 773.16,-769.5 873.16,-769.5 873.16,-750.5 773.16,-750.5"/>
<text text-anchor="middle" x="823.16" y="-757.5" font-family="Helvetica,sans-Serif" font-size="10.00">EdgeConstraint.h</text>
</a>
</g>
</g>
<!-- Node2 -->
<g id="node2" class="node">
<title>Node2</title>
<g id="a_node2"><a xlink:href="ConstraintsSet_8h.html" target="_top" xlink:title=" ">
<polygon fill="white" stroke="black" points="736.66,-694.5 736.66,-713.5 833.66,-713.5 833.66,-694.5 736.66,-694.5"/>
<text text-anchor="middle" x="785.16" y="-701.5" font-family="Helvetica,sans-Serif" font-size="10.00">ConstraintsSet.h</text>
</a>
</g>
</g>
<!-- Node1&#45;&gt;Node2 -->
<g id="edge1" class="edge">
<title>Node1&#45;&gt;Node2</title>
<path fill="none" stroke="midnightblue" d="M811.09,-741.86C804.51,-732.5 796.65,-721.33 791.31,-713.75"/>
<polygon fill="midnightblue" stroke="midnightblue" points="808.26,-743.92 816.88,-750.08 813.99,-739.89 808.26,-743.92"/>
</g>
<!-- Node33 -->
<g id="node33" class="node">
<title>Node33</title>
<g id="a_node33"><a xlink:href="ConflictTreeNode_8h.html" target="_top" xlink:title=" ">
<polygon fill="white" stroke="black" points="1209.16,-638.5 1209.16,-657.5 1317.16,-657.5 1317.16,-638.5 1209.16,-638.5"/>
<text text-anchor="middle" x="1263.16" y="-645.5" font-family="Helvetica,sans-Serif" font-size="10.00">ConflictTreeNode.h</text>
</a>
</g>
</g>
<!-- Node1&#45;&gt;Node33 -->
<g id="edge46" class="edge">
<title>Node1&#45;&gt;Node33</title>
<path fill="none" stroke="midnightblue" d="M867.23,-747.98C955.02,-726.03 1150.09,-677.27 1229.02,-657.53"/>
<polygon fill="midnightblue" stroke="midnightblue" points="866.17,-744.64 857.32,-750.46 867.87,-751.43 866.17,-744.64"/>
</g>
<!-- Node3 -->
<g id="node3" class="node">
<title>Node3</title>
<g id="a_node3"><a xlink:href="Problem_8h.html" target="_top" xlink:title=" ">
<polygon fill="white" stroke="black" points="738.16,-638.5 738.16,-657.5 804.16,-657.5 804.16,-638.5 738.16,-638.5"/>
<text text-anchor="middle" x="771.16" y="-645.5" font-family="Helvetica,sans-Serif" font-size="10.00">Problem.h</text>
</a>
</g>
</g>
<!-- Node2&#45;&gt;Node3 -->
<g id="edge2" class="edge">
<title>Node2&#45;&gt;Node3</title>
<path fill="none" stroke="midnightblue" d="M780.33,-684.4C777.99,-675.36 775.29,-664.94 773.42,-657.75"/>
<polygon fill="midnightblue" stroke="midnightblue" points="776.95,-685.28 782.84,-694.08 783.72,-683.52 776.95,-685.28"/>
</g>
<!-- Node4 -->
<g id="node4" class="node">
<title>Node4</title>
<g id="a_node4"><a xlink:href="MultiAgentProblem_8h.html" target="_top" xlink:title=" ">
<polygon fill="white" stroke="black" points="1107.66,-582.5 1107.66,-601.5 1226.66,-601.5 1226.66,-582.5 1107.66,-582.5"/>
<text text-anchor="middle" x="1167.16" y="-589.5" font-family="Helvetica,sans-Serif" font-size="10.00">MultiAgentProblem.h</text>
</a>
</g>
</g>
<!-- Node3&#45;&gt;Node4 -->
<g id="edge3" class="edge">
<title>Node3&#45;&gt;Node4</title>
<path fill="none" stroke="midnightblue" d="M814.18,-641.13C885.16,-631.45 1026.93,-612.12 1107.53,-601.13"/>
<polygon fill="midnightblue" stroke="midnightblue" points="813.67,-637.67 804.24,-642.49 814.62,-644.61 813.67,-637.67"/>
</g>
<!-- Node10 -->
<g id="node10" class="node">
<title>Node10</title>
<g id="a_node10"><a xlink:href="GeneralAStar_8h.html" target="_top" xlink:title=" ">
<polygon fill="white" stroke="black" points="219.66,-224.5 219.66,-243.5 308.66,-243.5 308.66,-224.5 219.66,-224.5"/>
<text text-anchor="middle" x="264.16" y="-231.5" font-family="Helvetica,sans-Serif" font-size="10.00">GeneralAStar.h</text>
</a>
</g>
</g>
<!-- Node3&#45;&gt;Node10 -->
<g id="edge45" class="edge">
<title>Node3&#45;&gt;Node10</title>
<path fill="none" stroke="midnightblue" d="M727.4,-644.58C573.7,-635.63 65.34,-601.95 21.16,-546 -73.12,-426.62 178.85,-280.41 247.45,-243.68"/>
<polygon fill="midnightblue" stroke="midnightblue" points="727.66,-648.1 737.85,-645.18 728.06,-641.11 727.66,-648.1"/>
</g>
<!-- Node27 -->
<g id="node27" class="node">
<title>Node27</title>
<g id="a_node27"><a xlink:href="SingleAgentProblem_8h.html" target="_top" xlink:title=" ">
<polygon fill="white" stroke="black" points="265.66,-582.5 265.66,-601.5 390.66,-601.5 390.66,-582.5 265.66,-582.5"/>
<text text-anchor="middle" x="328.16" y="-589.5" font-family="Helvetica,sans-Serif" font-size="10.00">SingleAgentProblem.h</text>
</a>
</g>
</g>
<!-- Node3&#45;&gt;Node27 -->
<g id="edge34" class="edge">
<title>Node3&#45;&gt;Node27</title>
<path fill="none" stroke="midnightblue" d="M727.79,-641.71C648.96,-632.1 481.92,-611.74 390.74,-600.63"/>
<polygon fill="midnightblue" stroke="midnightblue" points="727.51,-645.21 737.86,-642.94 728.36,-638.26 727.51,-645.21"/>
</g>
<!-- Node5 -->
<g id="node5" class="node">
<title>Node5</title>
<g id="a_node5"><a xlink:href="ODMultiAgentAStarProblem_8h.html" target="_top" xlink:title=" ">
<polygon fill="white" stroke="black" points="573.66,-521 573.66,-540 734.66,-540 734.66,-521 573.66,-521"/>
<text text-anchor="middle" x="654.16" y="-528" font-family="Helvetica,sans-Serif" font-size="10.00">ODMultiAgentAStarProblem.h</text>
</a>
</g>
</g>
<!-- Node4&#45;&gt;Node5 -->
<g id="edge4" class="edge">
<title>Node4&#45;&gt;Node5</title>
<path fill="none" stroke="midnightblue" d="M1097.14,-584.78C1012.95,-577.01 867.46,-562.71 743.16,-546 730.28,-544.27 716.4,-542.14 703.51,-540.04"/>
<polygon fill="midnightblue" stroke="midnightblue" points="1097.07,-588.28 1107.35,-585.71 1097.71,-581.31 1097.07,-588.28"/>
</g>
<!-- Node11 -->
<g id="node11" class="node">
<title>Node11</title>
<g id="a_node11"><a xlink:href="ConflictBasedSearch_8h.html" target="_top" xlink:title=" ">
<polygon fill="white" stroke="black" points="1518.66,-168.5 1518.66,-187.5 1643.66,-187.5 1643.66,-168.5 1518.66,-168.5"/>
<text text-anchor="middle" x="1581.16" y="-175.5" font-family="Helvetica,sans-Serif" font-size="10.00">ConflictBasedSearch.h</text>
</a>
</g>
</g>
<!-- Node4&#45;&gt;Node11 -->
<g id="edge31" class="edge">
<title>Node4&#45;&gt;Node11</title>
<path fill="none" stroke="midnightblue" d="M1236.79,-586.92C1318.74,-581.15 1449.12,-568.71 1492.16,-546 1535.43,-523.16 1566.16,-513.43 1566.16,-464.5 1566.16,-464.5 1566.16,-464.5 1566.16,-289 1566.16,-250.84 1575.13,-205.91 1579.2,-187.5"/>
<polygon fill="midnightblue" stroke="midnightblue" points="1236.53,-583.43 1226.8,-587.6 1237.01,-590.41 1236.53,-583.43"/>
</g>
<!-- Node13 -->
<g id="node13" class="node">
<title>Node13</title>
<g id="a_node13"><a xlink:href="SimpleIndependenceDetection_8h.html" target="_top" xlink:title=" ">
<polygon fill="white" stroke="black" points="748.66,-112.5 748.66,-131.5 923.66,-131.5 923.66,-112.5 748.66,-112.5"/>
<text text-anchor="middle" x="836.16" y="-119.5" font-family="Helvetica,sans-Serif" font-size="10.00">SimpleIndependenceDetection.h</text>
</a>
</g>
</g>
<!-- Node4&#45;&gt;Node13 -->
<g id="edge32" class="edge">
<title>Node4&#45;&gt;Node13</title>
<path fill="none" stroke="midnightblue" d="M1237.01,-589.31C1315.38,-585.95 1435.94,-575.92 1469.16,-546 1496.95,-520.96 1490.16,-501.91 1490.16,-464.5 1490.16,-464.5 1490.16,-464.5 1490.16,-233 1490.16,-176.22 1101.89,-141.64 923.68,-128.75"/>
<polygon fill="midnightblue" stroke="midnightblue" points="1236.57,-585.82 1226.72,-589.72 1236.85,-592.82 1236.57,-585.82"/>
</g>
<!-- Node17 -->
<g id="node17" class="node">
<title>Node17</title>
<g id="a_node17"><a xlink:href="CooperativeAStar_8h.html" target="_top" xlink:title=" ">
<polygon fill="white" stroke="black" points="327.16,-224.5 327.16,-243.5 437.16,-243.5 437.16,-224.5 327.16,-224.5"/>
<text text-anchor="middle" x="382.16" y="-231.5" font-family="Helvetica,sans-Serif" font-size="10.00">CooperativeAStar.h</text>
</a>
</g>
</g>
<!-- Node4&#45;&gt;Node17 -->
<g id="edge33" class="edge">
<title>Node4&#45;&gt;Node17</title>
<path fill="none" stroke="midnightblue" d="M1237.22,-590.56C1316.75,-588.41 1439.34,-579.57 1469.16,-546 1498.09,-513.43 1498.85,-481.63 1471.16,-448 1337.53,-285.71 640.24,-245.32 437.5,-236.94"/>
<polygon fill="midnightblue" stroke="midnightblue" points="1236.7,-587.07 1226.78,-590.81 1236.86,-594.07 1236.7,-587.07"/>
</g>
<!-- Node20 -->
<g id="node20" class="node">
<title>Node20</title>
<g id="a_node20"><a xlink:href="ODMultiAgentAStarProblemWithConstraints_8h.html" target="_top" xlink:title=" ">
<polygon fill="white" stroke="black" points="902.16,-515.5 902.16,-545.5 1054.16,-545.5 1054.16,-515.5 902.16,-515.5"/>
<text text-anchor="start" x="910.16" y="-533.5" font-family="Helvetica,sans-Serif" font-size="10.00">ODMultiAgentAStarProblem</text>
<text text-anchor="middle" x="978.16" y="-522.5" font-family="Helvetica,sans-Serif" font-size="10.00">WithConstraints.h</text>
</a>
</g>
</g>
<!-- Node4&#45;&gt;Node20 -->
<g id="edge21" class="edge">
<title>Node4&#45;&gt;Node20</title>
<path fill="none" stroke="midnightblue" d="M1130.17,-579.36C1099.38,-569.66 1055.43,-555.83 1022.7,-545.52"/>
<polygon fill="midnightblue" stroke="midnightblue" points="1129.49,-582.81 1140.08,-582.48 1131.59,-576.13 1129.49,-582.81"/>
</g>
<!-- Node22 -->
<g id="node22" class="node">
<title>Node22</title>
<g id="a_node22"><a xlink:href="StandardMultiAgentAStarProblem_8h.html" target="_top" xlink:title=" ">
<polygon fill="white" stroke="black" points="1072.66,-521 1072.66,-540 1261.66,-540 1261.66,-521 1072.66,-521"/>
<text text-anchor="middle" x="1167.16" y="-528" font-family="Helvetica,sans-Serif" font-size="10.00">StandardMultiAgentAStarProblem.h</text>
</a>
</g>
</g>
<!-- Node4&#45;&gt;Node22 -->
<g id="edge24" class="edge">
<title>Node4&#45;&gt;Node22</title>
<path fill="none" stroke="midnightblue" d="M1167.16,-572.32C1167.16,-561.5 1167.16,-548.4 1167.16,-540.01"/>
<polygon fill="midnightblue" stroke="midnightblue" points="1163.66,-572.48 1167.16,-582.48 1170.66,-572.48 1163.66,-572.48"/>
</g>
<!-- Node24 -->
<g id="node24" class="node">
<title>Node24</title>
<g id="a_node24"><a xlink:href="StandardMultiAgentAStarProblemWithConstraints_8h.html" target="_top" xlink:title=" ">
<polygon fill="white" stroke="black" points="1280.16,-515.5 1280.16,-545.5 1460.16,-545.5 1460.16,-515.5 1280.16,-515.5"/>
<text text-anchor="start" x="1288.16" y="-533.5" font-family="Helvetica,sans-Serif" font-size="10.00">StandardMultiAgentAStarProblem</text>
<text text-anchor="middle" x="1370.16" y="-522.5" font-family="Helvetica,sans-Serif" font-size="10.00">WithConstraints.h</text>
</a>
</g>
</g>
<!-- Node4&#45;&gt;Node24 -->
<g id="edge27" class="edge">
<title>Node4&#45;&gt;Node24</title>
<path fill="none" stroke="midnightblue" d="M1206.02,-579.61C1239.13,-569.9 1286.85,-555.92 1322.31,-545.52"/>
<polygon fill="midnightblue" stroke="midnightblue" points="1204.85,-576.3 1196.24,-582.48 1206.82,-583.02 1204.85,-576.3"/>
</g>
<!-- Node26 -->
<g id="node26" class="node">
<title>Node26</title>
<g id="a_node26"><a xlink:href="MultiAgentProblem_8cpp.html" target="_top" xlink:title=" ">
<polygon fill="white" stroke="black" points="752.66,-521 752.66,-540 883.66,-540 883.66,-521 752.66,-521"/>
<text text-anchor="middle" x="818.16" y="-528" font-family="Helvetica,sans-Serif" font-size="10.00">MultiAgentProblem.cpp</text>
</a>
</g>
</g>
<!-- Node4&#45;&gt;Node26 -->
<g id="edge30" class="edge">
<title>Node4&#45;&gt;Node26</title>
<path fill="none" stroke="midnightblue" d="M1102.43,-580.9C1046.86,-572.1 964.63,-558.78 893.16,-546 882.84,-544.16 871.75,-542.07 861.35,-540.07"/>
<polygon fill="midnightblue" stroke="midnightblue" points="1102.07,-584.38 1112.49,-582.49 1103.16,-577.47 1102.07,-584.38"/>
</g>
<!-- Node6 -->
<g id="node6" class="node">
<title>Node6</title>
<g id="a_node6"><a xlink:href="ODMultiAgentAStarProblem_8cpp.html" target="_top" xlink:title=" ">
<polygon fill="white" stroke="black" points="564.16,-454 564.16,-473 736.16,-473 736.16,-454 564.16,-454"/>
<text text-anchor="middle" x="650.16" y="-461" font-family="Helvetica,sans-Serif" font-size="10.00">ODMultiAgentAStarProblem.cpp</text>
</a>
</g>
</g>
<!-- Node5&#45;&gt;Node6 -->
<g id="edge5" class="edge">
<title>Node5&#45;&gt;Node6</title>
<path fill="none" stroke="midnightblue" d="M652.99,-510.54C652.23,-498.17 651.27,-482.62 650.69,-473.13"/>
<polygon fill="midnightblue" stroke="midnightblue" points="649.51,-510.97 653.62,-520.73 656.5,-510.54 649.51,-510.97"/>
</g>
<!-- Node7 -->
<g id="node7" class="node">
<title>Node7</title>
<g id="a_node7"><a xlink:href="HeuristicManhattan_8h.html" target="_top" xlink:title=" ">
<polygon fill="white" stroke="black" points="754.16,-454 754.16,-473 876.16,-473 876.16,-454 754.16,-454"/>
<text text-anchor="middle" x="815.16" y="-461" font-family="Helvetica,sans-Serif" font-size="10.00">HeuristicManhattan.h</text>
</a>
</g>
</g>
<!-- Node5&#45;&gt;Node7 -->
<g id="edge6" class="edge">
<title>Node5&#45;&gt;Node7</title>
<path fill="none" stroke="midnightblue" d="M684.86,-517.1C716.83,-504.2 766.05,-484.33 793.94,-473.06"/>
<polygon fill="midnightblue" stroke="midnightblue" points="683.5,-513.88 675.54,-520.87 686.12,-520.37 683.5,-513.88"/>
</g>
<!-- Node8 -->
<g id="node8" class="node">
<title>Node8</title>
<g id="a_node8"><a xlink:href="HeuristicOptimal_8h.html" target="_top" xlink:title=" ">
<polygon fill="white" stroke="black" points="594.16,-336.5 594.16,-355.5 702.16,-355.5 702.16,-336.5 594.16,-336.5"/>
<text text-anchor="middle" x="648.16" y="-343.5" font-family="Helvetica,sans-Serif" font-size="10.00">HeuristicOptimal.h</text>
</a>
</g>
</g>
<!-- Node7&#45;&gt;Node8 -->
<g id="edge7" class="edge">
<title>Node7&#45;&gt;Node8</title>
<path fill="none" stroke="midnightblue" d="M794.06,-447.91C758.91,-423.6 689.4,-375.53 660.85,-355.78"/>
<polygon fill="midnightblue" stroke="midnightblue" points="792.39,-451.01 802.6,-453.82 796.37,-445.25 792.39,-451.01"/>
</g>
<!-- Node18 -->
<g id="node18" class="node">
<title>Node18</title>
<g id="a_node18"><a xlink:href="ReverseResumableAStar_8h.html" target="_top" xlink:title=" ">
<polygon fill="white" stroke="black" points="495.16,-392.5 495.16,-411.5 641.16,-411.5 641.16,-392.5 495.16,-392.5"/>
<text text-anchor="middle" x="568.16" y="-399.5" font-family="Helvetica,sans-Serif" font-size="10.00">ReverseResumableAStar.h</text>
</a>
</g>
</g>
<!-- Node7&#45;&gt;Node18 -->
<g id="edge18" class="edge">
<title>Node7&#45;&gt;Node18</title>
<path fill="none" stroke="midnightblue" d="M769.96,-451.61C722.02,-440.07 647.29,-422.06 603.48,-411.51"/>
<polygon fill="midnightblue" stroke="midnightblue" points="769.23,-455.04 779.77,-453.98 770.86,-448.23 769.23,-455.04"/>
</g>
<!-- Node9 -->
<g id="node9" class="node">
<title>Node9</title>
<g id="a_node9"><a xlink:href="AStar_8h.html" target="_top" xlink:title=" ">
<polygon fill="white" stroke="black" points="238.66,-280.5 238.66,-299.5 289.66,-299.5 289.66,-280.5 238.66,-280.5"/>
<text text-anchor="middle" x="264.16" y="-287.5" font-family="Helvetica,sans-Serif" font-size="10.00">AStar.h</text>
</a>
</g>
</g>
<!-- Node8&#45;&gt;Node9 -->
<g id="edge8" class="edge">
<title>Node8&#45;&gt;Node9</title>
<path fill="none" stroke="midnightblue" d="M584.05,-335.98C498.11,-323.9 349.46,-303 289.92,-294.62"/>
<polygon fill="midnightblue" stroke="midnightblue" points="583.56,-339.45 593.95,-337.38 584.54,-332.52 583.56,-339.45"/>
</g>
<!-- Node9&#45;&gt;Node10 -->
<g id="edge9" class="edge">
<title>Node9&#45;&gt;Node10</title>
<path fill="none" stroke="midnightblue" d="M264.16,-269.8C264.16,-260.91 264.16,-250.78 264.16,-243.75"/>
<polygon fill="midnightblue" stroke="midnightblue" points="260.66,-270.08 264.16,-280.08 267.66,-270.08 260.66,-270.08"/>
</g>
<!-- Node9&#45;&gt;Node17 -->
<g id="edge17" class="edge">
<title>Node9&#45;&gt;Node17</title>
<path fill="none" stroke="midnightblue" d="M292.06,-276.23C314.13,-266.13 344.33,-252.31 363.55,-243.52"/>
<polygon fill="midnightblue" stroke="midnightblue" points="290.49,-273.1 282.85,-280.44 293.4,-279.46 290.49,-273.1"/>
</g>
<!-- Node10&#45;&gt;Node11 -->
<g id="edge10" class="edge">
<title>Node10&#45;&gt;Node11</title>
<path fill="none" stroke="midnightblue" d="M318.84,-224.09C785.01,-177.76 1335.43,-177.13 1518.54,-178.37"/>
<polygon fill="midnightblue" stroke="midnightblue" points="318.49,-220.61 308.89,-225.09 319.18,-227.57 318.49,-220.61"/>
</g>
<!-- Node10&#45;&gt;Node13 -->
<g id="edge16" class="edge">
<title>Node10&#45;&gt;Node13</title>
<path fill="none" stroke="midnightblue" d="M318.69,-222.51C431.45,-200.83 688.33,-151.43 791.78,-131.53"/>
<polygon fill="midnightblue" stroke="midnightblue" points="317.72,-219.13 308.56,-224.46 319.05,-226.01 317.72,-219.13"/>
</g>
<!-- Node12 -->
<g id="node12" class="node">
<title>Node12</title>
<g id="a_node12"><a xlink:href="ConflictBasedSearch_8cpp.html" target="_top" xlink:title=" ">
<polygon fill="white" stroke="black" points="1512.66,-112.5 1512.66,-131.5 1649.66,-131.5 1649.66,-112.5 1512.66,-112.5"/>
<text text-anchor="middle" x="1581.16" y="-119.5" font-family="Helvetica,sans-Serif" font-size="10.00">ConflictBasedSearch.cpp</text>
</a>
</g>
</g>
<!-- Node11&#45;&gt;Node12 -->
<g id="edge11" class="edge">
<title>Node11&#45;&gt;Node12</title>
<path fill="none" stroke="midnightblue" d="M1581.16,-157.8C1581.16,-148.91 1581.16,-138.78 1581.16,-131.75"/>
<polygon fill="midnightblue" stroke="midnightblue" points="1577.66,-158.08 1581.16,-168.08 1584.66,-158.08 1577.66,-158.08"/>
</g>
<!-- Node11&#45;&gt;Node13 -->
<g id="edge12" class="edge">
<title>Node11&#45;&gt;Node13</title>
<path fill="none" stroke="midnightblue" d="M1508.6,-168.42C1507.1,-168.27 1505.62,-168.13 1504.16,-168 1296.39,-148.87 1051.57,-134.44 923.8,-127.53"/>
<polygon fill="midnightblue" stroke="midnightblue" points="1508.27,-171.9 1518.57,-169.42 1508.97,-164.94 1508.27,-171.9"/>
</g>
<!-- Node14 -->
<g id="node14" class="node">
<title>Node14</title>
<g id="a_node14"><a xlink:href="IndependenceDetection_8h.html" target="_top" xlink:title=" ">
<polygon fill="white" stroke="black" points="674.66,-56.5 674.66,-75.5 815.66,-75.5 815.66,-56.5 674.66,-56.5"/>
<text text-anchor="middle" x="745.16" y="-63.5" font-family="Helvetica,sans-Serif" font-size="10.00">IndependenceDetection.h</text>
</a>
</g>
</g>
<!-- Node13&#45;&gt;Node14 -->
<g id="edge13" class="edge">
<title>Node13&#45;&gt;Node14</title>
<path fill="none" stroke="midnightblue" d="M812.86,-107.18C796.12,-97.24 774.06,-84.15 759.74,-75.65"/>
<polygon fill="midnightblue" stroke="midnightblue" points="811.15,-110.23 821.54,-112.32 814.72,-104.21 811.15,-110.23"/>
</g>
<!-- Node16 -->
<g id="node16" class="node">
<title>Node16</title>
<g id="a_node16"><a xlink:href="SimpleIndependenceDetection_8cpp.html" target="_top" xlink:title=" ">
<polygon fill="white" stroke="black" points="834.16,-56.5 834.16,-75.5 1020.16,-75.5 1020.16,-56.5 834.16,-56.5"/>
<text text-anchor="middle" x="927.16" y="-63.5" font-family="Helvetica,sans-Serif" font-size="10.00">SimpleIndependenceDetection.cpp</text>
</a>
</g>
</g>
<!-- Node13&#45;&gt;Node16 -->
<g id="edge15" class="edge">
<title>Node13&#45;&gt;Node16</title>
<path fill="none" stroke="midnightblue" d="M859.45,-107.18C876.2,-97.24 898.26,-84.15 912.57,-75.65"/>
<polygon fill="midnightblue" stroke="midnightblue" points="857.59,-104.21 850.78,-112.32 861.16,-110.23 857.59,-104.21"/>
</g>
<!-- Node15 -->
<g id="node15" class="node">
<title>Node15</title>
<g id="a_node15"><a xlink:href="IndependenceDetection_8cpp.html" target="_top" xlink:title=" ">
<polygon fill="white" stroke="black" points="669.16,-0.5 669.16,-19.5 821.16,-19.5 821.16,-0.5 669.16,-0.5"/>
<text text-anchor="middle" x="745.16" y="-7.5" font-family="Helvetica,sans-Serif" font-size="10.00">IndependenceDetection.cpp</text>
</a>
</g>
</g>
<!-- Node14&#45;&gt;Node15 -->
<g id="edge14" class="edge">
<title>Node14&#45;&gt;Node15</title>
<path fill="none" stroke="midnightblue" d="M745.16,-45.8C745.16,-36.91 745.16,-26.78 745.16,-19.75"/>
<polygon fill="midnightblue" stroke="midnightblue" points="741.66,-46.08 745.16,-56.08 748.66,-46.08 741.66,-46.08"/>
</g>
<!-- Node18&#45;&gt;Node8 -->
<g id="edge19" class="edge">
<title>Node18&#45;&gt;Node8</title>
<path fill="none" stroke="midnightblue" d="M589.46,-386.62C604.07,-376.76 622.98,-363.99 635.33,-355.65"/>
<polygon fill="midnightblue" stroke="midnightblue" points="587.34,-383.83 581.01,-392.32 591.26,-389.63 587.34,-383.83"/>
</g>
<!-- Node19 -->
<g id="node19" class="node">
<title>Node19</title>
<g id="a_node19"><a xlink:href="ReverseResumableAStar_8cpp.html" target="_top" xlink:title=" ">
<polygon fill="white" stroke="black" points="418.66,-336.5 418.66,-355.5 575.66,-355.5 575.66,-336.5 418.66,-336.5"/>
<text text-anchor="middle" x="497.16" y="-343.5" font-family="Helvetica,sans-Serif" font-size="10.00">ReverseResumableAStar.cpp</text>
</a>
</g>
</g>
<!-- Node18&#45;&gt;Node19 -->
<g id="edge20" class="edge">
<title>Node18&#45;&gt;Node19</title>
<path fill="none" stroke="midnightblue" d="M548.57,-386.1C535.79,-376.38 519.54,-364.03 508.77,-355.83"/>
<polygon fill="midnightblue" stroke="midnightblue" points="546.67,-389.06 556.75,-392.32 550.91,-383.48 546.67,-389.06"/>
</g>
<!-- Node20&#45;&gt;Node7 -->
<g id="edge23" class="edge">
<title>Node20&#45;&gt;Node7</title>
<path fill="none" stroke="midnightblue" d="M933.32,-511.62C901.77,-499.04 860.96,-482.77 836.49,-473.01"/>
<polygon fill="midnightblue" stroke="midnightblue" points="932.2,-514.94 942.79,-515.4 934.8,-508.44 932.2,-514.94"/>
</g>
<!-- Node21 -->
<g id="node21" class="node">
<title>Node21</title>
<g id="a_node21"><a xlink:href="ODMultiAgentAStarProblemWithConstraints_8cpp.html" target="_top" xlink:title=" ">
<polygon fill="white" stroke="black" points="894.16,-448.5 894.16,-478.5 1046.16,-478.5 1046.16,-448.5 894.16,-448.5"/>
<text text-anchor="start" x="902.16" y="-466.5" font-family="Helvetica,sans-Serif" font-size="10.00">ODMultiAgentAStarProblem</text>
<text text-anchor="middle" x="970.16" y="-455.5" font-family="Helvetica,sans-Serif" font-size="10.00">WithConstraints.cpp</text>
</a>
</g>
</g>
<!-- Node20&#45;&gt;Node21 -->
<g id="edge22" class="edge">
<title>Node20&#45;&gt;Node21</title>
<path fill="none" stroke="midnightblue" d="M975.19,-505.4C974.08,-496.37 972.85,-486.41 971.89,-478.58"/>
<polygon fill="midnightblue" stroke="midnightblue" points="971.72,-505.9 976.42,-515.4 978.67,-505.04 971.72,-505.9"/>
</g>
<!-- Node22&#45;&gt;Node7 -->
<g id="edge26" class="edge">
<title>Node22&#45;&gt;Node7</title>
<path fill="none" stroke="midnightblue" d="M1107.21,-519.25C1050.07,-509.36 961.63,-493.77 885.16,-479 875.53,-477.14 865.18,-475.05 855.47,-473.04"/>
<polygon fill="midnightblue" stroke="midnightblue" points="1106.71,-522.71 1117.16,-520.97 1107.9,-515.82 1106.71,-522.71"/>
</g>
<!-- Node23 -->
<g id="node23" class="node">
<title>Node23</title>
<g id="a_node23"><a xlink:href="StandardMultiAgentAStarProblem_8cpp.html" target="_top" xlink:title=" ">
<polygon fill="white" stroke="black" points="1064.16,-454 1064.16,-473 1264.16,-473 1264.16,-454 1064.16,-454"/>
<text text-anchor="middle" x="1164.16" y="-461" font-family="Helvetica,sans-Serif" font-size="10.00">StandardMultiAgentAStarProblem.cpp</text>
</a>
</g>
</g>
<!-- Node22&#45;&gt;Node23 -->
<g id="edge25" class="edge">
<title>Node22&#45;&gt;Node23</title>
<path fill="none" stroke="midnightblue" d="M1166.28,-510.54C1165.71,-498.17 1164.99,-482.62 1164.55,-473.13"/>
<polygon fill="midnightblue" stroke="midnightblue" points="1162.79,-510.91 1166.75,-520.73 1169.79,-510.58 1162.79,-510.91"/>
</g>
<!-- Node24&#45;&gt;Node7 -->
<g id="edge29" class="edge">
<title>Node24&#45;&gt;Node7</title>
<path fill="none" stroke="midnightblue" d="M1269.94,-514.9C1098.34,-494.88 1052.31,-504.03 885.16,-479 874.48,-477.4 862.97,-475.21 852.44,-473.02"/>
<polygon fill="midnightblue" stroke="midnightblue" points="1269.73,-518.4 1280.07,-516.1 1270.56,-511.45 1269.73,-518.4"/>
</g>
<!-- Node25 -->
<g id="node25" class="node">
<title>Node25</title>
<g id="a_node25"><a xlink:href="StandardMultiAgentAStarProblemWithConstraints_8cpp.html" target="_top" xlink:title=" ">
<polygon fill="white" stroke="black" points="1282.16,-448.5 1282.16,-478.5 1462.16,-478.5 1462.16,-448.5 1282.16,-448.5"/>
<text text-anchor="start" x="1290.16" y="-466.5" font-family="Helvetica,sans-Serif" font-size="10.00">StandardMultiAgentAStarProblem</text>
<text text-anchor="middle" x="1372.16" y="-455.5" font-family="Helvetica,sans-Serif" font-size="10.00">WithConstraints.cpp</text>
</a>
</g>
</g>
<!-- Node24&#45;&gt;Node25 -->
<g id="edge28" class="edge">
<title>Node24&#45;&gt;Node25</title>
<path fill="none" stroke="midnightblue" d="M1370.91,-505.11C1371.18,-496.15 1371.48,-486.32 1371.72,-478.58"/>
<polygon fill="midnightblue" stroke="midnightblue" points="1367.4,-505.29 1370.59,-515.4 1374.4,-505.51 1367.4,-505.29"/>
</g>
<!-- Node27&#45;&gt;Node13 -->
<g id="edge43" class="edge">
<title>Node27&#45;&gt;Node13</title>
<path fill="none" stroke="midnightblue" d="M255.49,-584.64C170.2,-576.52 38.16,-561.64 21.16,-546 -6.22,-520.82 2.16,-501.69 2.16,-464.5 2.16,-464.5 2.16,-464.5 2.16,-233 2.16,-158.33 534.35,-132.76 748.48,-125.5"/>
<polygon fill="midnightblue" stroke="midnightblue" points="255.36,-588.15 265.65,-585.6 256.02,-581.18 255.36,-588.15"/>
</g>
<!-- Node27&#45;&gt;Node17 -->
<g id="edge44" class="edge">
<title>Node27&#45;&gt;Node17</title>
<path fill="none" stroke="midnightblue" d="M342.14,-574.37C348,-566.34 354.14,-556.24 357.16,-546 361.05,-532.78 360.61,-528.34 357.16,-515 352.56,-497.28 343.88,-496.02 337.16,-479 324.37,-446.62 318.16,-437.82 318.16,-403 318.16,-403 318.16,-403 318.16,-345 318.16,-302.14 354.91,-261.07 372.71,-243.69"/>
<polygon fill="midnightblue" stroke="midnightblue" points="339.22,-572.42 335.83,-582.46 344.74,-576.73 339.22,-572.42"/>
</g>
<!-- Node28 -->
<g id="node28" class="node">
<title>Node28</title>
<g id="a_node28"><a xlink:href="SingleAgentAStarProblem_8h.html" target="_top" xlink:title=" ">
<polygon fill="white" stroke="black" points="404.66,-521 404.66,-540 555.66,-540 555.66,-521 404.66,-521"/>
<text text-anchor="middle" x="480.16" y="-528" font-family="Helvetica,sans-Serif" font-size="10.00">SingleAgentAStarProblem.h</text>
</a>
</g>
</g>
<!-- Node27&#45;&gt;Node28 -->
<g id="edge35" class="edge">
<title>Node27&#45;&gt;Node28</title>
<path fill="none" stroke="midnightblue" d="M359.37,-578.78C388.91,-567.22 432.48,-550.16 458.42,-540.01"/>
<polygon fill="midnightblue" stroke="midnightblue" points="357.97,-575.57 349.93,-582.48 360.52,-582.09 357.97,-575.57"/>
</g>
<!-- Node30 -->
<g id="node30" class="node">
<title>Node30</title>
<g id="a_node30"><a xlink:href="SingleAgentAStarProblemWithConstraints_8h.html" target="_top" xlink:title=" ">
<polygon fill="white" stroke="black" points="30.16,-515.5 30.16,-545.5 194.16,-545.5 194.16,-515.5 30.16,-515.5"/>
<text text-anchor="start" x="38.16" y="-533.5" font-family="Helvetica,sans-Serif" font-size="10.00">SingleAgentAStarProblemWith</text>
<text text-anchor="middle" x="112.16" y="-522.5" font-family="Helvetica,sans-Serif" font-size="10.00">Constraints.h</text>
</a>
</g>
</g>
<!-- Node27&#45;&gt;Node30 -->
<g id="edge39" class="edge">
<title>Node27&#45;&gt;Node30</title>
<path fill="none" stroke="midnightblue" d="M287.26,-579.73C252.01,-570.02 200.95,-555.96 163.06,-545.52"/>
<polygon fill="midnightblue" stroke="midnightblue" points="286.64,-583.19 297.21,-582.48 288.5,-576.44 286.64,-583.19"/>
</g>
<!-- Node32 -->
<g id="node32" class="node">
<title>Node32</title>
<g id="a_node32"><a xlink:href="SingleAgentProblem_8cpp.html" target="_top" xlink:title=" ">
<polygon fill="white" stroke="black" points="212.16,-521 212.16,-540 348.16,-540 348.16,-521 212.16,-521"/>
<text text-anchor="middle" x="280.16" y="-528" font-family="Helvetica,sans-Serif" font-size="10.00">SingleAgentProblem.cpp</text>
</a>
</g>
</g>
<!-- Node27&#45;&gt;Node32 -->
<g id="edge42" class="edge">
<title>Node27&#45;&gt;Node32</title>
<path fill="none" stroke="midnightblue" d="M314.98,-574.67C305.93,-563.45 294.29,-549.02 287.02,-540.01"/>
<polygon fill="midnightblue" stroke="midnightblue" points="312.28,-576.89 321.28,-582.48 317.72,-572.49 312.28,-576.89"/>
</g>
<!-- Node28&#45;&gt;Node7 -->
<g id="edge37" class="edge">
<title>Node28&#45;&gt;Node7</title>
<path fill="none" stroke="midnightblue" d="M536.16,-519.1C589.82,-509.06 673.09,-493.33 745.16,-479 754.65,-477.11 764.86,-475.03 774.46,-473.04"/>
<polygon fill="midnightblue" stroke="midnightblue" points="535.35,-515.69 526.16,-520.96 536.63,-522.57 535.35,-515.69"/>
</g>
<!-- Node28&#45;&gt;Node18 -->
<g id="edge38" class="edge">
<title>Node28&#45;&gt;Node18</title>
<path fill="none" stroke="midnightblue" d="M492.56,-512.94C499.83,-503.14 509.13,-490.45 517.16,-479 534.13,-454.8 553.36,-425.65 562.61,-411.51"/>
<polygon fill="midnightblue" stroke="midnightblue" points="489.72,-510.89 486.55,-521 495.33,-515.07 489.72,-510.89"/>
</g>
<!-- Node29 -->
<g id="node29" class="node">
<title>Node29</title>
<g id="a_node29"><a xlink:href="SingleAgentAStarProblem_8cpp.html" target="_top" xlink:title=" ">
<polygon fill="white" stroke="black" points="346.16,-454 346.16,-473 508.16,-473 508.16,-454 346.16,-454"/>
<text text-anchor="middle" x="427.16" y="-461" font-family="Helvetica,sans-Serif" font-size="10.00">SingleAgentAStarProblem.cpp</text>
</a>
</g>
</g>
<!-- Node28&#45;&gt;Node29 -->
<g id="edge36" class="edge">
<title>Node28&#45;&gt;Node29</title>
<path fill="none" stroke="midnightblue" d="M466.52,-512.77C456.18,-500.1 442.4,-483.2 434.19,-473.13"/>
<polygon fill="midnightblue" stroke="midnightblue" points="463.98,-515.2 473.01,-520.73 469.4,-510.77 463.98,-515.2"/>
</g>
<!-- Node30&#45;&gt;Node7 -->
<g id="edge41" class="edge">
<title>Node30&#45;&gt;Node7</title>
<path fill="none" stroke="midnightblue" d="M204.54,-514.92C444.81,-488.61 509.21,-511.12 745.16,-479 756.1,-477.51 767.9,-475.3 778.63,-473.06"/>
<polygon fill="midnightblue" stroke="midnightblue" points="204,-511.46 194.45,-516.04 204.78,-518.41 204,-511.46"/>
</g>
<!-- Node31 -->
<g id="node31" class="node">
<title>Node31</title>
<g id="a_node31"><a xlink:href="SingleAgentAStarProblemWithConstraints_8cpp.html" target="_top" xlink:title=" ">
<polygon fill="white" stroke="black" points="30.16,-448.5 30.16,-478.5 194.16,-478.5 194.16,-448.5 30.16,-448.5"/>
<text text-anchor="start" x="38.16" y="-466.5" font-family="Helvetica,sans-Serif" font-size="10.00">SingleAgentAStarProblemWith</text>
<text text-anchor="middle" x="112.16" y="-455.5" font-family="Helvetica,sans-Serif" font-size="10.00">Constraints.cpp</text>
</a>
</g>
</g>
<!-- Node30&#45;&gt;Node31 -->
<g id="edge40" class="edge">
<title>Node30&#45;&gt;Node31</title>
<path fill="none" stroke="midnightblue" d="M112.16,-505.11C112.16,-496.15 112.16,-486.32 112.16,-478.58"/>
<polygon fill="midnightblue" stroke="midnightblue" points="108.66,-505.4 112.16,-515.4 115.66,-505.4 108.66,-505.4"/>
</g>
<!-- Node33&#45;&gt;Node11 -->
<g id="edge47" class="edge">
<title>Node33&#45;&gt;Node11</title>
<path fill="none" stroke="midnightblue" d="M1327.37,-638.61C1426.16,-623.87 1604.16,-589.3 1604.16,-531.5 1604.16,-531.5 1604.16,-531.5 1604.16,-289 1604.16,-250.56 1590.54,-206.14 1584.26,-187.71"/>
<polygon fill="midnightblue" stroke="midnightblue" points="1326.58,-635.18 1317.19,-640.1 1327.59,-642.11 1326.58,-635.18"/>
</g>
</g>
</svg>
