<?xml version="1.0" encoding="UTF-8" standalone="no"?>
<!DOCTYPE svg PUBLIC "-//W3C//DTD SVG 1.1//EN"
 "http://www.w3.org/Graphics/SVG/1.1/DTD/svg11.dtd">
<!-- Generated by graphviz version 2.43.0 (0)
 -->
<!-- Title: Constraints/EdgeConstraint.h Pages: 1 -->
<!--zoomable 855 -->
<svg id="main" version="1.1" xmlns="http://www.w3.org/2000/svg" xmlns:xlink="http://www.w3.org/1999/xlink" xml:space="preserve" onload="init(evt)">
<style type="text/css"><![CDATA[
.edge:hover path { stroke: red; }
.edge:hover polygon { stroke: red; fill: red; }
]]></style>
<script type="text/javascript"><![CDATA[
var edges = document.getElementsByTagName('g');
if (edges && edges.length) {
  for (var i=0;i<edges.length;i++) {
    if (edges[i].id.substr(0,4)=='edge') {
      edges[i].setAttribute('class','edge');
    }
  }
}
]]></script>
        <defs>
                <circle id="rim" cx="0" cy="0" r="7"/>
                <circle id="rim2" cx="0" cy="0" r="3.5"/>
                <g id="zoomPlus">
                        <use xlink:href="#rim" fill="#404040">
                                <set attributeName="fill" to="#808080" begin="zoomplus.mouseover" end="zoomplus.mouseout"/>
                        </use>
                        <path d="M-4,0h8M0,-4v8" fill="none" stroke="white" stroke-width="1.5" pointer-events="none"/>
                </g>
                <g id="zoomMin">
                        <use xlink:href="#rim" fill="#404040">
                                <set attributeName="fill" to="#808080" begin="zoomminus.mouseover" end="zoomminus.mouseout"/>
                        </use>
                        <path d="M-4,0h8" fill="none" stroke="white" stroke-width="1.5" pointer-events="none"/>
                </g>
                <g id="dirArrow">
                        <path fill="none" stroke="white" stroke-width="1.5" d="M0,-3.0v7 M-2.5,-0.5L0,-3.0L2.5,-0.5"/>
                </g>
               <g id="resetDef">
                       <use xlink:href="#rim2" fill="#404040">
                               <set attributeName="fill" to="#808080" begin="reset.mouseover" end="reset.mouseout"/>
                       </use>
               </g>
        </defs>

<script type="text/javascript">
var viewWidth = 1788;
var viewHeight = 855;
var sectionId = 'dynsection-0';
</script>
<script xlink:href="svgpan.js"/>
<svg id="graph" class="graph">
<g id="viewport">
<title>Constraints/EdgeConstraint.h</title>
<polygon fill="white" stroke="transparent" points="-4,4 -4,-851 1783.99,-851 1783.99,4 -4,4"/>
<!-- Node1 -->
<g id="node1" class="node">
<title>Node1</title>
<g id="a_node1"><a xlink:title=" ">
<polygon fill="#bfbfbf" stroke="black" points="845.49,-827.5 845.49,-846.5 1003.49,-846.5 1003.49,-827.5 845.49,-827.5"/>
<text text-anchor="middle" x="924.49" y="-834.5" font-family="Helvetica,sans-Serif" font-size="10.00">Constraints/EdgeConstraint.h</text>
</a>
</g>
</g>
<!-- Node2 -->
<g id="node2" class="node">
<title>Node2</title>
<g id="a_node2"><a xlink:href="ConstraintsSet_8h.html" target="_top" xlink:title=" ">
<polygon fill="white" stroke="black" points="793.99,-771.5 793.99,-790.5 948.99,-790.5 948.99,-771.5 793.99,-771.5"/>
<text text-anchor="middle" x="871.49" y="-778.5" font-family="Helvetica,sans-Serif" font-size="10.00">Constraints/ConstraintsSet.h</text>
</a>
</g>
</g>
<!-- Node1&#45;&gt;Node2 -->
<g id="edge1" class="edge">
<title>Node1&#45;&gt;Node2</title>
<path fill="none" stroke="midnightblue" d="M908.51,-819.72C899.17,-810.2 887.74,-798.56 880.08,-790.75"/>
<polygon fill="midnightblue" stroke="midnightblue" points="906.23,-822.4 915.74,-827.08 911.23,-817.49 906.23,-822.4"/>
</g>
<!-- Node33 -->
<g id="node33" class="node">
<title>Node33</title>
<g id="a_node33"><a xlink:href="ConflictTreeNode_8h.html" target="_top" xlink:title=" ">
<polygon fill="white" stroke="black" points="1319.99,-704.5 1319.99,-734.5 1454.99,-734.5 1454.99,-704.5 1319.99,-704.5"/>
<text text-anchor="start" x="1327.99" y="-722.5" font-family="Helvetica,sans-Serif" font-size="10.00">Solvers/CBS/ConflictTree</text>
<text text-anchor="middle" x="1387.49" y="-711.5" font-family="Helvetica,sans-Serif" font-size="10.00">Node.h</text>
</a>
</g>
</g>
<!-- Node1&#45;&gt;Node33 -->
<g id="edge46" class="edge">
<title>Node1&#45;&gt;Node33</title>
<path fill="none" stroke="midnightblue" d="M968.72,-824.97C1053.28,-803.87 1237.77,-757.85 1331.07,-734.58"/>
<polygon fill="midnightblue" stroke="midnightblue" points="967.77,-821.6 958.91,-827.41 969.46,-828.39 967.77,-821.6"/>
</g>
<!-- Node3 -->
<g id="node3" class="node">
<title>Node3</title>
<g id="a_node3"><a xlink:href="Problem_8h.html" target="_top" xlink:title=" ">
<polygon fill="white" stroke="black" points="795.99,-710 795.99,-729 910.99,-729 910.99,-710 795.99,-710"/>
<text text-anchor="middle" x="853.49" y="-717" font-family="Helvetica,sans-Serif" font-size="10.00">Problems/Problem.h</text>
</a>
</g>
</g>
<!-- Node2&#45;&gt;Node3 -->
<g id="edge2" class="edge">
<title>Node2&#45;&gt;Node3</title>
<path fill="none" stroke="midnightblue" d="M865.94,-761.66C862.65,-750.77 858.63,-737.49 856.06,-729.01"/>
<polygon fill="midnightblue" stroke="midnightblue" points="862.66,-762.92 868.91,-771.48 869.36,-760.89 862.66,-762.92"/>
</g>
<!-- Node4 -->
<g id="node4" class="node">
<title>Node4</title>
<g id="a_node4"><a xlink:href="MultiAgentProblem_8h.html" target="_top" xlink:title=" ">
<polygon fill="white" stroke="black" points="1189.49,-648.5 1189.49,-667.5 1357.49,-667.5 1357.49,-648.5 1189.49,-648.5"/>
<text text-anchor="middle" x="1273.49" y="-655.5" font-family="Helvetica,sans-Serif" font-size="10.00">Problems/MultiAgentProblem.h</text>
</a>
</g>
</g>
<!-- Node3&#45;&gt;Node4 -->
<g id="edge3" class="edge">
<title>Node3&#45;&gt;Node4</title>
<path fill="none" stroke="midnightblue" d="M921.07,-708.93C1001.88,-697.48 1135.88,-678.49 1213.27,-667.53"/>
<polygon fill="midnightblue" stroke="midnightblue" points="920.42,-705.48 911.01,-710.35 921.4,-712.41 920.42,-705.48"/>
</g>
<!-- Node10 -->
<g id="node10" class="node">
<title>Node10</title>
<g id="a_node10"><a xlink:href="GeneralAStar_8h.html" target="_top" xlink:title=" ">
<polygon fill="white" stroke="black" points="219.49,-263 219.49,-282 377.49,-282 377.49,-263 219.49,-263"/>
<text text-anchor="middle" x="298.49" y="-270" font-family="Helvetica,sans-Serif" font-size="10.00">Solvers/AStar/GeneralAStar.h</text>
</a>
</g>
</g>
<!-- Node3&#45;&gt;Node10 -->
<g id="edge45" class="edge">
<title>Node3&#45;&gt;Node10</title>
<path fill="none" stroke="midnightblue" d="M785.72,-715.09C596.15,-704.84 71.13,-671.28 23.49,-612 -82.51,-480.08 206.18,-320.5 281.19,-282.1"/>
<polygon fill="midnightblue" stroke="midnightblue" points="785.67,-718.59 795.84,-715.63 786.04,-711.6 785.67,-718.59"/>
</g>
<!-- Node27 -->
<g id="node27" class="node">
<title>Node27</title>
<g id="a_node27"><a xlink:href="SingleAgentProblem_8h.html" target="_top" xlink:title=" ">
<polygon fill="white" stroke="black" points="286.99,-648.5 286.99,-667.5 459.99,-667.5 459.99,-648.5 286.99,-648.5"/>
<text text-anchor="middle" x="373.49" y="-655.5" font-family="Helvetica,sans-Serif" font-size="10.00">Problems/SingleAgentProblem.h</text>
</a>
</g>
</g>
<!-- Node3&#45;&gt;Node27 -->
<g id="edge34" class="edge">
<title>Node3&#45;&gt;Node27</title>
<path fill="none" stroke="midnightblue" d="M785.66,-710.09C694.68,-698.81 534,-678.9 442.44,-667.55"/>
<polygon fill="midnightblue" stroke="midnightblue" points="785.24,-713.57 795.59,-711.32 786.1,-706.62 785.24,-713.57"/>
</g>
<!-- Node5 -->
<g id="node5" class="node">
<title>Node5</title>
<g id="a_node5"><a xlink:href="ODMultiAgentAStarProblem_8h.html" target="_top" xlink:title=" ">
<polygon fill="white" stroke="black" points="629.49,-581.5 629.49,-611.5 789.49,-611.5 789.49,-581.5 629.49,-581.5"/>
<text text-anchor="start" x="637.49" y="-599.5" font-family="Helvetica,sans-Serif" font-size="10.00">AStarProblems/ODMultiAgent</text>
<text text-anchor="middle" x="709.49" y="-588.5" font-family="Helvetica,sans-Serif" font-size="10.00">AStarProblem.h</text>
</a>
</g>
</g>
<!-- Node4&#45;&gt;Node5 -->
<g id="edge4" class="edge">
<title>Node4&#45;&gt;Node5</title>
<path fill="none" stroke="midnightblue" d="M1179.24,-649.94C1083.25,-642.32 930.21,-628.95 798.49,-612 795.54,-611.62 792.54,-611.22 789.51,-610.8"/>
<polygon fill="midnightblue" stroke="midnightblue" points="1178.97,-653.43 1189.21,-650.73 1179.52,-646.46 1178.97,-653.43"/>
</g>
<!-- Node11 -->
<g id="node11" class="node">
<title>Node11</title>
<g id="a_node11"><a xlink:href="ConflictBasedSearch_8h.html" target="_top" xlink:title=" ">
<polygon fill="white" stroke="black" points="1634.99,-190.5 1634.99,-220.5 1779.99,-220.5 1779.99,-190.5 1634.99,-190.5"/>
<text text-anchor="start" x="1642.99" y="-208.5" font-family="Helvetica,sans-Serif" font-size="10.00">Solvers/CBS/ConflictBased</text>
<text text-anchor="middle" x="1707.49" y="-197.5" font-family="Helvetica,sans-Serif" font-size="10.00">Search.h</text>
</a>
</g>
</g>
<!-- Node4&#45;&gt;Node11 -->
<g id="edge31" class="edge">
<title>Node4&#45;&gt;Node11</title>
<path fill="none" stroke="midnightblue" d="M1367.88,-651.11C1450.8,-644.68 1564.31,-632.47 1604.49,-612 1649.16,-589.24 1682.49,-580.64 1682.49,-530.5 1682.49,-530.5 1682.49,-530.5 1682.49,-333 1682.49,-291.58 1695.54,-243.97 1702.79,-220.74"/>
<polygon fill="midnightblue" stroke="midnightblue" points="1367.38,-647.63 1357.67,-651.88 1367.9,-654.61 1367.38,-647.63"/>
</g>
<!-- Node13 -->
<g id="node13" class="node">
<title>Node13</title>
<g id="a_node13"><a xlink:href="SimpleIndependenceDetection_8h.html" target="_top" xlink:title=" ">
<polygon fill="white" stroke="black" points="1137.99,-123.5 1137.99,-153.5 1308.99,-153.5 1308.99,-123.5 1137.99,-123.5"/>
<text text-anchor="start" x="1145.99" y="-141.5" font-family="Helvetica,sans-Serif" font-size="10.00">Solvers/ID/SimpleIndependence</text>
<text text-anchor="middle" x="1223.49" y="-130.5" font-family="Helvetica,sans-Serif" font-size="10.00">Detection.h</text>
</a>
</g>
</g>
<!-- Node4&#45;&gt;Node13 -->
<g id="edge32" class="edge">
<title>Node4&#45;&gt;Node13</title>
<path fill="none" stroke="midnightblue" d="M1367.87,-653.93C1446.03,-649.48 1549.14,-638.6 1580.49,-612 1609.48,-587.4 1606.49,-568.52 1606.49,-530.5 1606.49,-530.5 1606.49,-530.5 1606.49,-271.5 1606.49,-209.08 1422.36,-169.76 1309.44,-151.52"/>
<polygon fill="midnightblue" stroke="midnightblue" points="1367.3,-650.45 1357.51,-654.49 1367.68,-657.44 1367.3,-650.45"/>
</g>
<!-- Node17 -->
<g id="node17" class="node">
<title>Node17</title>
<g id="a_node17"><a xlink:href="CooperativeAStar_8h.html" target="_top" xlink:title=" ">
<polygon fill="white" stroke="black" points="395.49,-257.5 395.49,-287.5 537.49,-287.5 537.49,-257.5 395.49,-257.5"/>
<text text-anchor="start" x="403.49" y="-275.5" font-family="Helvetica,sans-Serif" font-size="10.00">Solvers/SuboptimalSolver</text>
<text text-anchor="middle" x="466.49" y="-264.5" font-family="Helvetica,sans-Serif" font-size="10.00">/CooperativeAStar.h</text>
</a>
</g>
</g>
<!-- Node4&#45;&gt;Node17 -->
<g id="edge33" class="edge">
<title>Node4&#45;&gt;Node17</title>
<path fill="none" stroke="midnightblue" d="M1367.69,-655.49C1446.95,-652.09 1551.83,-641.87 1580.49,-612 1610.72,-580.49 1614.94,-547.96 1587.49,-514 1453.93,-348.74 763.45,-291.85 537.88,-277.52"/>
<polygon fill="midnightblue" stroke="midnightblue" points="1367.52,-652 1357.66,-655.89 1367.8,-658.99 1367.52,-652"/>
</g>
<!-- Node20 -->
<g id="node20" class="node">
<title>Node20</title>
<g id="a_node20"><a xlink:href="ODMultiAgentAStarProblemWithConstraints_8h.html" target="_top" xlink:title=" ">
<polygon fill="white" stroke="black" points="1005.49,-581.5 1005.49,-611.5 1175.49,-611.5 1175.49,-581.5 1005.49,-581.5"/>
<text text-anchor="start" x="1013.49" y="-599.5" font-family="Helvetica,sans-Serif" font-size="10.00">AStarProblems/ODMultiAgent</text>
<text text-anchor="middle" x="1090.49" y="-588.5" font-family="Helvetica,sans-Serif" font-size="10.00">AStarProblemWithConstraints.h</text>
</a>
</g>
</g>
<!-- Node4&#45;&gt;Node20 -->
<g id="edge21" class="edge">
<title>Node4&#45;&gt;Node20</title>
<path fill="none" stroke="midnightblue" d="M1237.68,-645.36C1207.86,-635.66 1165.31,-621.83 1133.62,-611.52"/>
<polygon fill="midnightblue" stroke="midnightblue" points="1236.68,-648.71 1247.27,-648.48 1238.84,-642.05 1236.68,-648.71"/>
</g>
<!-- Node22 -->
<g id="node22" class="node">
<title>Node22</title>
<g id="a_node22"><a xlink:href="StandardMultiAgentAStarProblem_8h.html" target="_top" xlink:title=" ">
<polygon fill="white" stroke="black" points="1193.49,-581.5 1193.49,-611.5 1353.49,-611.5 1353.49,-581.5 1193.49,-581.5"/>
<text text-anchor="start" x="1201.49" y="-599.5" font-family="Helvetica,sans-Serif" font-size="10.00">AStarProblems/StandardMulti</text>
<text text-anchor="middle" x="1273.49" y="-588.5" font-family="Helvetica,sans-Serif" font-size="10.00">AgentAStarProblem.h</text>
</a>
</g>
</g>
<!-- Node4&#45;&gt;Node22 -->
<g id="edge24" class="edge">
<title>Node4&#45;&gt;Node22</title>
<path fill="none" stroke="midnightblue" d="M1273.49,-638.23C1273.49,-629.59 1273.49,-619.5 1273.49,-611.52"/>
<polygon fill="midnightblue" stroke="midnightblue" points="1269.99,-638.48 1273.49,-648.48 1276.99,-638.48 1269.99,-638.48"/>
</g>
<!-- Node24 -->
<g id="node24" class="node">
<title>Node24</title>
<g id="a_node24"><a xlink:href="StandardMultiAgentAStarProblemWithConstraints_8h.html" target="_top" xlink:title=" ">
<polygon fill="white" stroke="black" points="1371.99,-581.5 1371.99,-611.5 1570.99,-611.5 1570.99,-581.5 1371.99,-581.5"/>
<text text-anchor="start" x="1379.99" y="-599.5" font-family="Helvetica,sans-Serif" font-size="10.00">AStarProblems/StandardMulti</text>
<text text-anchor="middle" x="1471.49" y="-588.5" font-family="Helvetica,sans-Serif" font-size="10.00">AgentAStarProblemWithConstraints.h</text>
</a>
</g>
</g>
<!-- Node4&#45;&gt;Node24 -->
<g id="edge27" class="edge">
<title>Node4&#45;&gt;Node24</title>
<path fill="none" stroke="midnightblue" d="M1311.81,-645.48C1344.1,-635.78 1390.39,-621.87 1424.82,-611.52"/>
<polygon fill="midnightblue" stroke="midnightblue" points="1310.43,-642.25 1301.86,-648.48 1312.44,-648.95 1310.43,-642.25"/>
</g>
<!-- Node26 -->
<g id="node26" class="node">
<title>Node26</title>
<g id="a_node26"><a xlink:href="MultiAgentProblem_8cpp.html" target="_top" xlink:title=" ">
<polygon fill="white" stroke="black" points="807.99,-587 807.99,-606 986.99,-606 986.99,-587 807.99,-587"/>
<text text-anchor="middle" x="897.49" y="-594" font-family="Helvetica,sans-Serif" font-size="10.00">Problems/MultiAgentProblem.cpp</text>
</a>
</g>
</g>
<!-- Node4&#45;&gt;Node26 -->
<g id="edge30" class="edge">
<title>Node4&#45;&gt;Node26</title>
<path fill="none" stroke="midnightblue" d="M1209.67,-646.9C1136.98,-635.4 1019.48,-616.8 951.26,-606.01"/>
<polygon fill="midnightblue" stroke="midnightblue" points="1209.19,-650.37 1219.62,-648.48 1210.29,-643.46 1209.19,-650.37"/>
</g>
<!-- Node6 -->
<g id="node6" class="node">
<title>Node6</title>
<g id="a_node6"><a xlink:href="ODMultiAgentAStarProblem_8cpp.html" target="_top" xlink:title=" ">
<polygon fill="white" stroke="black" points="620.49,-514.5 620.49,-544.5 780.49,-544.5 780.49,-514.5 620.49,-514.5"/>
<text text-anchor="start" x="628.49" y="-532.5" font-family="Helvetica,sans-Serif" font-size="10.00">AStarProblems/ODMultiAgent</text>
<text text-anchor="middle" x="700.49" y="-521.5" font-family="Helvetica,sans-Serif" font-size="10.00">AStarProblem.cpp</text>
</a>
</g>
</g>
<!-- Node5&#45;&gt;Node6 -->
<g id="edge5" class="edge">
<title>Node5&#45;&gt;Node6</title>
<path fill="none" stroke="midnightblue" d="M706.15,-571.4C704.9,-562.37 703.52,-552.41 702.44,-544.58"/>
<polygon fill="midnightblue" stroke="midnightblue" points="702.7,-571.97 707.54,-581.4 709.63,-571.01 702.7,-571.97"/>
</g>
<!-- Node7 -->
<g id="node7" class="node">
<title>Node7</title>
<g id="a_node7"><a xlink:href="HeuristicManhattan_8h.html" target="_top" xlink:title=" ">
<polygon fill="white" stroke="black" points="798.99,-520 798.99,-539 971.99,-539 971.99,-520 798.99,-520"/>
<text text-anchor="middle" x="885.49" y="-527" font-family="Helvetica,sans-Serif" font-size="10.00">Heuristics/HeuristicManhattan.h</text>
</a>
</g>
</g>
<!-- Node5&#45;&gt;Node7 -->
<g id="edge6" class="edge">
<title>Node5&#45;&gt;Node7</title>
<path fill="none" stroke="midnightblue" d="M757.46,-577.78C791.58,-565.18 835.92,-548.81 862.45,-539.01"/>
<polygon fill="midnightblue" stroke="midnightblue" points="755.85,-574.65 747.68,-581.4 758.27,-581.21 755.85,-574.65"/>
</g>
<!-- Node8 -->
<g id="node8" class="node">
<title>Node8</title>
<g id="a_node8"><a xlink:href="HeuristicOptimal_8h.html" target="_top" xlink:title=" ">
<polygon fill="white" stroke="black" points="700.49,-386 700.49,-405 860.49,-405 860.49,-386 700.49,-386"/>
<text text-anchor="middle" x="780.49" y="-393" font-family="Helvetica,sans-Serif" font-size="10.00">Heuristics/HeuristicOptimal.h</text>
</a>
</g>
</g>
<!-- Node7&#45;&gt;Node8 -->
<g id="edge7" class="edge">
<title>Node7&#45;&gt;Node8</title>
<path fill="none" stroke="midnightblue" d="M872.1,-511.66C849.44,-483.18 804.35,-426.5 787.27,-405.02"/>
<polygon fill="midnightblue" stroke="midnightblue" points="869.64,-514.19 878.6,-519.84 875.11,-509.83 869.64,-514.19"/>
</g>
<!-- Node18 -->
<g id="node18" class="node">
<title>Node18</title>
<g id="a_node18"><a xlink:href="ReverseResumableAStar_8h.html" target="_top" xlink:title=" ">
<polygon fill="white" stroke="black" points="537.99,-447.5 537.99,-477.5 716.99,-477.5 716.99,-447.5 537.99,-447.5"/>
<text text-anchor="start" x="545.99" y="-465.5" font-family="Helvetica,sans-Serif" font-size="10.00">Solvers/AStar/ReverseResumable</text>
<text text-anchor="middle" x="627.49" y="-454.5" font-family="Helvetica,sans-Serif" font-size="10.00">AStar.h</text>
</a>
</g>
</g>
<!-- Node7&#45;&gt;Node18 -->
<g id="edge18" class="edge">
<title>Node7&#45;&gt;Node18</title>
<path fill="none" stroke="midnightblue" d="M841.74,-517.48C798.06,-506.47 730.79,-489.52 683.29,-477.56"/>
<polygon fill="midnightblue" stroke="midnightblue" points="840.94,-520.89 851.49,-519.94 842.65,-514.1 840.94,-520.89"/>
</g>
<!-- Node9 -->
<g id="node9" class="node">
<title>Node9</title>
<g id="a_node9"><a xlink:href="AStar_8h.html" target="_top" xlink:title=" ">
<polygon fill="white" stroke="black" points="238.99,-324.5 238.99,-343.5 357.99,-343.5 357.99,-324.5 238.99,-324.5"/>
<text text-anchor="middle" x="298.49" y="-331.5" font-family="Helvetica,sans-Serif" font-size="10.00">Solvers/AStar/AStar.h</text>
</a>
</g>
</g>
<!-- Node8&#45;&gt;Node9 -->
<g id="edge8" class="edge">
<title>Node8&#45;&gt;Node9</title>
<path fill="none" stroke="midnightblue" d="M719.96,-384.36C710.12,-382.83 700.03,-381.32 690.49,-380 572.92,-363.79 434.95,-348.91 358.03,-340.98"/>
<polygon fill="midnightblue" stroke="midnightblue" points="719.67,-387.86 730.09,-385.97 720.76,-380.95 719.67,-387.86"/>
</g>
<!-- Node9&#45;&gt;Node10 -->
<g id="edge9" class="edge">
<title>Node9&#45;&gt;Node10</title>
<path fill="none" stroke="midnightblue" d="M298.49,-314.32C298.49,-303.5 298.49,-290.4 298.49,-282.01"/>
<polygon fill="midnightblue" stroke="midnightblue" points="294.99,-314.48 298.49,-324.48 301.99,-314.48 294.99,-314.48"/>
</g>
<!-- Node9&#45;&gt;Node17 -->
<g id="edge17" class="edge">
<title>Node9&#45;&gt;Node17</title>
<path fill="none" stroke="midnightblue" d="M332.08,-321.1C359.42,-311.42 398.06,-297.74 426.89,-287.52"/>
<polygon fill="midnightblue" stroke="midnightblue" points="330.82,-317.84 322.56,-324.48 333.15,-324.44 330.82,-317.84"/>
</g>
<!-- Node10&#45;&gt;Node11 -->
<g id="edge10" class="edge">
<title>Node10&#45;&gt;Node11</title>
<path fill="none" stroke="midnightblue" d="M353.76,-261.31C364.58,-259.62 375.87,-258.07 386.49,-257 860.87,-209.04 1435.28,-205.66 1634.95,-206.09"/>
<polygon fill="midnightblue" stroke="midnightblue" points="352.88,-257.91 343.56,-262.96 354,-264.82 352.88,-257.91"/>
</g>
<!-- Node10&#45;&gt;Node13 -->
<g id="edge16" class="edge">
<title>Node10&#45;&gt;Node13</title>
<path fill="none" stroke="midnightblue" d="M359.34,-261.28C368.43,-259.81 377.7,-258.34 386.49,-257 660.65,-215.18 986.21,-171.06 1137.84,-150.84"/>
<polygon fill="midnightblue" stroke="midnightblue" points="358.49,-257.87 349.18,-262.94 359.61,-264.78 358.49,-257.87"/>
</g>
<!-- Node12 -->
<g id="node12" class="node">
<title>Node12</title>
<g id="a_node12"><a xlink:href="ConflictBasedSearch_8cpp.html" target="_top" xlink:title=" ">
<polygon fill="white" stroke="black" points="1634.99,-123.5 1634.99,-153.5 1779.99,-153.5 1779.99,-123.5 1634.99,-123.5"/>
<text text-anchor="start" x="1642.99" y="-141.5" font-family="Helvetica,sans-Serif" font-size="10.00">Solvers/CBS/ConflictBased</text>
<text text-anchor="middle" x="1707.49" y="-130.5" font-family="Helvetica,sans-Serif" font-size="10.00">Search.cpp</text>
</a>
</g>
</g>
<!-- Node11&#45;&gt;Node12 -->
<g id="edge11" class="edge">
<title>Node11&#45;&gt;Node12</title>
<path fill="none" stroke="midnightblue" d="M1707.49,-180.11C1707.49,-171.15 1707.49,-161.32 1707.49,-153.58"/>
<polygon fill="midnightblue" stroke="midnightblue" points="1703.99,-180.4 1707.49,-190.4 1710.99,-180.4 1703.99,-180.4"/>
</g>
<!-- Node11&#45;&gt;Node13 -->
<g id="edge12" class="edge">
<title>Node11&#45;&gt;Node13</title>
<path fill="none" stroke="midnightblue" d="M1624.93,-190.66C1623.44,-190.44 1621.96,-190.22 1620.49,-190 1513.42,-174.27 1389.69,-158.99 1309.19,-149.43"/>
<polygon fill="midnightblue" stroke="midnightblue" points="1624.48,-194.13 1634.89,-192.18 1625.54,-187.21 1624.48,-194.13"/>
</g>
<!-- Node14 -->
<g id="node14" class="node">
<title>Node14</title>
<g id="a_node14"><a xlink:href="IndependenceDetection_8h.html" target="_top" xlink:title=" ">
<polygon fill="white" stroke="black" points="1026.49,-62 1026.49,-81 1220.49,-81 1220.49,-62 1026.49,-62"/>
<text text-anchor="middle" x="1123.49" y="-69" font-family="Helvetica,sans-Serif" font-size="10.00">Solvers/ID/IndependenceDetection.h</text>
</a>
</g>
</g>
<!-- Node13&#45;&gt;Node14 -->
<g id="edge13" class="edge">
<title>Node13&#45;&gt;Node14</title>
<path fill="none" stroke="midnightblue" d="M1193.19,-117.81C1174.28,-105.51 1150.88,-90.3 1136.58,-81.01"/>
<polygon fill="midnightblue" stroke="midnightblue" points="1191.5,-120.88 1201.79,-123.4 1195.31,-115.01 1191.5,-120.88"/>
</g>
<!-- Node16 -->
<g id="node16" class="node">
<title>Node16</title>
<g id="a_node16"><a xlink:href="SimpleIndependenceDetection_8cpp.html" target="_top" xlink:title=" ">
<polygon fill="white" stroke="black" points="1238.99,-56.5 1238.99,-86.5 1409.99,-86.5 1409.99,-56.5 1238.99,-56.5"/>
<text text-anchor="start" x="1246.99" y="-74.5" font-family="Helvetica,sans-Serif" font-size="10.00">Solvers/ID/SimpleIndependence</text>
<text text-anchor="middle" x="1324.49" y="-63.5" font-family="Helvetica,sans-Serif" font-size="10.00">Detection.cpp</text>
</a>
</g>
</g>
<!-- Node13&#45;&gt;Node16 -->
<g id="edge15" class="edge">
<title>Node13&#45;&gt;Node16</title>
<path fill="none" stroke="midnightblue" d="M1254.2,-117.73C1269.83,-107.68 1288.46,-95.68 1302.62,-86.58"/>
<polygon fill="midnightblue" stroke="midnightblue" points="1251.92,-115.04 1245.4,-123.4 1255.71,-120.93 1251.92,-115.04"/>
</g>
<!-- Node15 -->
<g id="node15" class="node">
<title>Node15</title>
<g id="a_node15"><a xlink:href="IndependenceDetection_8cpp.html" target="_top" xlink:title=" ">
<polygon fill="white" stroke="black" points="1020.99,-0.5 1020.99,-19.5 1225.99,-19.5 1225.99,-0.5 1020.99,-0.5"/>
<text text-anchor="middle" x="1123.49" y="-7.5" font-family="Helvetica,sans-Serif" font-size="10.00">Solvers/ID/IndependenceDetection.cpp</text>
</a>
</g>
</g>
<!-- Node14&#45;&gt;Node15 -->
<g id="edge14" class="edge">
<title>Node14&#45;&gt;Node15</title>
<path fill="none" stroke="midnightblue" d="M1123.49,-51.82C1123.49,-41 1123.49,-27.9 1123.49,-19.51"/>
<polygon fill="midnightblue" stroke="midnightblue" points="1119.99,-51.98 1123.49,-61.98 1126.99,-51.98 1119.99,-51.98"/>
</g>
<!-- Node18&#45;&gt;Node8 -->
<g id="edge19" class="edge">
<title>Node18&#45;&gt;Node8</title>
<path fill="none" stroke="midnightblue" d="M669.96,-443.46C699.52,-430.9 737.59,-414.72 760.46,-405.01"/>
<polygon fill="midnightblue" stroke="midnightblue" points="668.52,-440.26 660.69,-447.4 671.26,-446.71 668.52,-440.26"/>
</g>
<!-- Node19 -->
<g id="node19" class="node">
<title>Node19</title>
<g id="a_node19"><a xlink:href="ReverseResumableAStar_8cpp.html" target="_top" xlink:title=" ">
<polygon fill="white" stroke="black" points="502.99,-380.5 502.99,-410.5 681.99,-410.5 681.99,-380.5 502.99,-380.5"/>
<text text-anchor="start" x="510.99" y="-398.5" font-family="Helvetica,sans-Serif" font-size="10.00">Solvers/AStar/ReverseResumable</text>
<text text-anchor="middle" x="592.49" y="-387.5" font-family="Helvetica,sans-Serif" font-size="10.00">AStar.cpp</text>
</a>
</g>
</g>
<!-- Node18&#45;&gt;Node19 -->
<g id="edge20" class="edge">
<title>Node18&#45;&gt;Node19</title>
<path fill="none" stroke="midnightblue" d="M615.14,-438.58C610.12,-429.24 604.47,-418.75 600.07,-410.58"/>
<polygon fill="midnightblue" stroke="midnightblue" points="612.07,-440.25 619.89,-447.4 618.24,-436.93 612.07,-440.25"/>
</g>
<!-- Node20&#45;&gt;Node7 -->
<g id="edge23" class="edge">
<title>Node20&#45;&gt;Node7</title>
<path fill="none" stroke="midnightblue" d="M1036.65,-578.43C996.68,-565.75 943.84,-549 912.39,-539.03"/>
<polygon fill="midnightblue" stroke="midnightblue" points="1035.67,-581.79 1046.26,-581.48 1037.78,-575.12 1035.67,-581.79"/>
</g>
<!-- Node21 -->
<g id="node21" class="node">
<title>Node21</title>
<g id="a_node21"><a xlink:href="ODMultiAgentAStarProblemWithConstraints_8cpp.html" target="_top" xlink:title=" ">
<polygon fill="white" stroke="black" points="990.49,-514.5 990.49,-544.5 1172.49,-544.5 1172.49,-514.5 990.49,-514.5"/>
<text text-anchor="start" x="998.49" y="-532.5" font-family="Helvetica,sans-Serif" font-size="10.00">AStarProblems/ODMultiAgent</text>
<text text-anchor="middle" x="1081.49" y="-521.5" font-family="Helvetica,sans-Serif" font-size="10.00">AStarProblemWithConstraints.cpp</text>
</a>
</g>
</g>
<!-- Node20&#45;&gt;Node21 -->
<g id="edge22" class="edge">
<title>Node20&#45;&gt;Node21</title>
<path fill="none" stroke="midnightblue" d="M1087.15,-571.4C1085.9,-562.37 1084.52,-552.41 1083.44,-544.58"/>
<polygon fill="midnightblue" stroke="midnightblue" points="1083.7,-571.97 1088.54,-581.4 1090.63,-571.01 1083.7,-571.97"/>
</g>
<!-- Node22&#45;&gt;Node7 -->
<g id="edge26" class="edge">
<title>Node22&#45;&gt;Node7</title>
<path fill="none" stroke="midnightblue" d="M1182.95,-580.33C1106.24,-567.48 999.02,-549.52 936.46,-539.04"/>
<polygon fill="midnightblue" stroke="midnightblue" points="1182.65,-583.83 1193.1,-582.03 1183.81,-576.93 1182.65,-583.83"/>
</g>
<!-- Node23 -->
<g id="node23" class="node">
<title>Node23</title>
<g id="a_node23"><a xlink:href="StandardMultiAgentAStarProblem_8cpp.html" target="_top" xlink:title=" ">
<polygon fill="white" stroke="black" points="1190.49,-514.5 1190.49,-544.5 1350.49,-544.5 1350.49,-514.5 1190.49,-514.5"/>
<text text-anchor="start" x="1198.49" y="-532.5" font-family="Helvetica,sans-Serif" font-size="10.00">AStarProblems/StandardMulti</text>
<text text-anchor="middle" x="1270.49" y="-521.5" font-family="Helvetica,sans-Serif" font-size="10.00">AgentAStarProblem.cpp</text>
</a>
</g>
</g>
<!-- Node22&#45;&gt;Node23 -->
<g id="edge25" class="edge">
<title>Node22&#45;&gt;Node23</title>
<path fill="none" stroke="midnightblue" d="M1272.38,-571.4C1271.96,-562.37 1271.5,-552.41 1271.14,-544.58"/>
<polygon fill="midnightblue" stroke="midnightblue" points="1268.88,-571.57 1272.84,-581.4 1275.87,-571.25 1268.88,-571.57"/>
</g>
<!-- Node24&#45;&gt;Node7 -->
<g id="edge29" class="edge">
<title>Node24&#45;&gt;Node7</title>
<path fill="none" stroke="midnightblue" d="M1361.68,-580.94C1191.8,-561.92 1147.1,-565.31 981.49,-545 967.44,-543.28 952.27,-541.12 938.23,-539.01"/>
<polygon fill="midnightblue" stroke="midnightblue" points="1361.39,-584.43 1371.72,-582.07 1362.17,-577.47 1361.39,-584.43"/>
</g>
<!-- Node25 -->
<g id="node25" class="node">
<title>Node25</title>
<g id="a_node25"><a xlink:href="StandardMultiAgentAStarProblemWithConstraints_8cpp.html" target="_top" xlink:title=" ">
<polygon fill="white" stroke="black" points="1368.49,-514.5 1368.49,-544.5 1578.49,-544.5 1578.49,-514.5 1368.49,-514.5"/>
<text text-anchor="start" x="1376.49" y="-532.5" font-family="Helvetica,sans-Serif" font-size="10.00">AStarProblems/StandardMulti</text>
<text text-anchor="middle" x="1473.49" y="-521.5" font-family="Helvetica,sans-Serif" font-size="10.00">AgentAStarProblemWithConstraints.cpp</text>
</a>
</g>
</g>
<!-- Node24&#45;&gt;Node25 -->
<g id="edge28" class="edge">
<title>Node24&#45;&gt;Node25</title>
<path fill="none" stroke="midnightblue" d="M1472.24,-571.11C1472.51,-562.15 1472.82,-552.32 1473.06,-544.58"/>
<polygon fill="midnightblue" stroke="midnightblue" points="1468.73,-571.29 1471.92,-581.4 1475.73,-571.51 1468.73,-571.29"/>
</g>
<!-- Node27&#45;&gt;Node13 -->
<g id="edge43" class="edge">
<title>Node27&#45;&gt;Node13</title>
<path fill="none" stroke="midnightblue" d="M276.64,-650.19C179.62,-642.48 42.06,-628.79 23.49,-612 -4.11,-587.06 4.49,-567.69 4.49,-530.5 4.49,-530.5 4.49,-530.5 4.49,-271.5 4.49,-157.35 860.3,-141.82 1137.77,-139.78"/>
<polygon fill="midnightblue" stroke="midnightblue" points="276.54,-653.69 286.78,-650.99 277.09,-646.72 276.54,-653.69"/>
</g>
<!-- Node27&#45;&gt;Node17 -->
<g id="edge44" class="edge">
<title>Node27&#45;&gt;Node17</title>
<path fill="none" stroke="midnightblue" d="M392.74,-641.75C401.12,-633.87 410.03,-623.5 414.49,-612 419.46,-599.15 416.17,-594.67 414.49,-581 412.47,-564.63 409.36,-561.03 405.49,-545 396.76,-508.85 386.49,-500.69 386.49,-463.5 386.49,-463.5 386.49,-463.5 386.49,-394.5 386.49,-349.42 425.6,-308.23 449.13,-287.52"/>
<polygon fill="midnightblue" stroke="midnightblue" points="390.25,-639.27 385.03,-648.49 394.86,-644.54 390.25,-639.27"/>
</g>
<!-- Node28 -->
<g id="node28" class="node">
<title>Node28</title>
<g id="a_node28"><a xlink:href="SingleAgentAStarProblem_8h.html" target="_top" xlink:title=" ">
<polygon fill="white" stroke="black" points="461.49,-581.5 461.49,-611.5 611.49,-611.5 611.49,-581.5 461.49,-581.5"/>
<text text-anchor="start" x="469.49" y="-599.5" font-family="Helvetica,sans-Serif" font-size="10.00">AStarProblems/SingleAgent</text>
<text text-anchor="middle" x="536.49" y="-588.5" font-family="Helvetica,sans-Serif" font-size="10.00">AStarProblem.h</text>
</a>
</g>
</g>
<!-- Node27&#45;&gt;Node28 -->
<g id="edge35" class="edge">
<title>Node27&#45;&gt;Node28</title>
<path fill="none" stroke="midnightblue" d="M406.43,-644.98C432.93,-635.3 470.22,-621.69 498.07,-611.52"/>
<polygon fill="midnightblue" stroke="midnightblue" points="405.04,-641.76 396.84,-648.48 407.44,-648.33 405.04,-641.76"/>
</g>
<!-- Node30 -->
<g id="node30" class="node">
<title>Node30</title>
<g id="a_node30"><a xlink:href="SingleAgentAStarProblemWithConstraints_8h.html" target="_top" xlink:title=" ">
<polygon fill="white" stroke="black" points="32.49,-581.5 32.49,-611.5 202.49,-611.5 202.49,-581.5 32.49,-581.5"/>
<text text-anchor="start" x="40.49" y="-599.5" font-family="Helvetica,sans-Serif" font-size="10.00">AStarProblems/SingleAgent</text>
<text text-anchor="middle" x="117.49" y="-588.5" font-family="Helvetica,sans-Serif" font-size="10.00">AStarProblemWithConstraints.h</text>
</a>
</g>
</g>
<!-- Node27&#45;&gt;Node30 -->
<g id="edge39" class="edge">
<title>Node27&#45;&gt;Node30</title>
<path fill="none" stroke="midnightblue" d="M326.89,-646.17C285.06,-636.45 223.41,-622.12 177.82,-611.52"/>
<polygon fill="midnightblue" stroke="midnightblue" points="326.28,-649.62 336.81,-648.48 327.86,-642.8 326.28,-649.62"/>
</g>
<!-- Node32 -->
<g id="node32" class="node">
<title>Node32</title>
<g id="a_node32"><a xlink:href="SingleAgentProblem_8cpp.html" target="_top" xlink:title=" ">
<polygon fill="white" stroke="black" points="220.99,-587 220.99,-606 405.99,-606 405.99,-587 220.99,-587"/>
<text text-anchor="middle" x="313.49" y="-594" font-family="Helvetica,sans-Serif" font-size="10.00">Problems/SingleAgentProblem.cpp</text>
</a>
</g>
</g>
<!-- Node27&#45;&gt;Node32 -->
<g id="edge42" class="edge">
<title>Node27&#45;&gt;Node32</title>
<path fill="none" stroke="midnightblue" d="M357.68,-641.32C346.28,-630.02 331.33,-615.19 322.07,-606.01"/>
<polygon fill="midnightblue" stroke="midnightblue" points="355.33,-643.92 364.89,-648.48 360.26,-638.95 355.33,-643.92"/>
</g>
<!-- Node28&#45;&gt;Node7 -->
<g id="edge37" class="edge">
<title>Node28&#45;&gt;Node7</title>
<path fill="none" stroke="midnightblue" d="M621.74,-579.62C690.46,-566.82 784.46,-549.32 839.7,-539.03"/>
<polygon fill="midnightblue" stroke="midnightblue" points="620.98,-576.2 611.79,-581.48 622.26,-583.09 620.98,-576.2"/>
</g>
<!-- Node28&#45;&gt;Node18 -->
<g id="edge38" class="edge">
<title>Node28&#45;&gt;Node18</title>
<path fill="none" stroke="midnightblue" d="M553.11,-573.29C559.57,-564.54 566.96,-554.36 573.49,-545 589.7,-521.75 607.74,-494.15 618.32,-477.77"/>
<polygon fill="midnightblue" stroke="midnightblue" points="550.18,-571.36 547.04,-581.48 555.8,-575.53 550.18,-571.36"/>
</g>
<!-- Node29 -->
<g id="node29" class="node">
<title>Node29</title>
<g id="a_node29"><a xlink:href="SingleAgentAStarProblem_8cpp.html" target="_top" xlink:title=" ">
<polygon fill="white" stroke="black" points="414.49,-514.5 414.49,-544.5 564.49,-544.5 564.49,-514.5 414.49,-514.5"/>
<text text-anchor="start" x="422.49" y="-532.5" font-family="Helvetica,sans-Serif" font-size="10.00">AStarProblems/SingleAgent</text>
<text text-anchor="middle" x="489.49" y="-521.5" font-family="Helvetica,sans-Serif" font-size="10.00">AStarProblem.cpp</text>
</a>
</g>
</g>
<!-- Node28&#45;&gt;Node29 -->
<g id="edge36" class="edge">
<title>Node28&#45;&gt;Node29</title>
<path fill="none" stroke="midnightblue" d="M520.33,-573.16C513.48,-563.68 505.7,-552.92 499.67,-544.58"/>
<polygon fill="midnightblue" stroke="midnightblue" points="517.59,-575.34 526.29,-581.4 523.27,-571.24 517.59,-575.34"/>
</g>
<!-- Node30&#45;&gt;Node7 -->
<g id="edge41" class="edge">
<title>Node30&#45;&gt;Node7</title>
<path fill="none" stroke="midnightblue" d="M212.49,-580.96C469.1,-553.82 536.8,-571.9 789.49,-545 804.24,-543.43 820.19,-541.23 834.78,-539.01"/>
<polygon fill="midnightblue" stroke="midnightblue" points="212.07,-577.49 202.5,-582.03 212.81,-584.45 212.07,-577.49"/>
</g>
<!-- Node31 -->
<g id="node31" class="node">
<title>Node31</title>
<g id="a_node31"><a xlink:href="SingleAgentAStarProblemWithConstraints_8cpp.html" target="_top" xlink:title=" ">
<polygon fill="white" stroke="black" points="32.49,-514.5 32.49,-544.5 214.49,-544.5 214.49,-514.5 32.49,-514.5"/>
<text text-anchor="start" x="40.49" y="-532.5" font-family="Helvetica,sans-Serif" font-size="10.00">AStarProblems/SingleAgent</text>
<text text-anchor="middle" x="123.49" y="-521.5" font-family="Helvetica,sans-Serif" font-size="10.00">AStarProblemWithConstraints.cpp</text>
</a>
</g>
</g>
<!-- Node30&#45;&gt;Node31 -->
<g id="edge40" class="edge">
<title>Node30&#45;&gt;Node31</title>
<path fill="none" stroke="midnightblue" d="M119.71,-571.4C120.55,-562.37 121.47,-552.41 122.19,-544.58"/>
<polygon fill="midnightblue" stroke="midnightblue" points="116.22,-571.12 118.79,-581.4 123.2,-571.76 116.22,-571.12"/>
</g>
<!-- Node33&#45;&gt;Node11 -->
<g id="edge47" class="edge">
<title>Node33&#45;&gt;Node11</title>
<path fill="none" stroke="midnightblue" d="M1465.2,-706.21C1563.6,-688.4 1720.49,-651.54 1720.49,-597.5 1720.49,-597.5 1720.49,-597.5 1720.49,-333 1720.49,-292.16 1713.7,-244.28 1709.93,-220.87"/>
<polygon fill="midnightblue" stroke="midnightblue" points="1464.51,-702.78 1455.28,-707.97 1465.74,-709.67 1464.51,-702.78"/>
</g>
</g>
</svg>
        <g id="navigator" transform="translate(0 0)" fill="#404254">
                <rect fill="#f2f5e9" fill-opacity="0.5" stroke="#606060" stroke-width=".5" x="0" y="0" width="60" height="60"/>
                <use id="zoomplus" xlink:href="#zoomPlus" x="17" y="9" onmousedown="handleZoom(evt,'in')"/>
                <use id="zoomminus" xlink:href="#zoomMin" x="42" y="9" onmousedown="handleZoom(evt,'out')"/>
                <use id="reset" xlink:href="#resetDef" x="30" y="36" onmousedown="handleReset()"/>
                <g id="arrowUp" xlink:href="#dirArrow" transform="translate(30 24)" onmousedown="handlePan(0,-1)">
                  <use xlink:href="#rim" fill="#404040">
                        <set attributeName="fill" to="#808080" begin="arrowUp.mouseover" end="arrowUp.mouseout"/>
                  </use>
                  <path fill="none" stroke="white" stroke-width="1.5" d="M0,-3.0v7 M-2.5,-0.5L0,-3.0L2.5,-0.5"/>
                </g>
                <g id="arrowRight" xlink:href="#dirArrow" transform="rotate(90) translate(36 -43)" onmousedown="handlePan(1,0)">
                  <use xlink:href="#rim" fill="#404040">
                        <set attributeName="fill" to="#808080" begin="arrowRight.mouseover" end="arrowRight.mouseout"/>
                  </use>
                  <path fill="none" stroke="white" stroke-width="1.5" d="M0,-3.0v7 M-2.5,-0.5L0,-3.0L2.5,-0.5"/>
                </g>
                <g id="arrowDown" xlink:href="#dirArrow" transform="rotate(180) translate(-30 -48)" onmousedown="handlePan(0,1)">
                  <use xlink:href="#rim" fill="#404040">
                        <set attributeName="fill" to="#808080" begin="arrowDown.mouseover" end="arrowDown.mouseout"/>
                  </use>
                  <path fill="none" stroke="white" stroke-width="1.5" d="M0,-3.0v7 M-2.5,-0.5L0,-3.0L2.5,-0.5"/>
                </g>
                <g id="arrowLeft" xlink:href="#dirArrow" transform="rotate(270) translate(-36 17)" onmousedown="handlePan(-1,0)">
                  <use xlink:href="#rim" fill="#404040">
                        <set attributeName="fill" to="#808080" begin="arrowLeft.mouseover" end="arrowLeft.mouseout"/>
                  </use>
                  <path fill="none" stroke="white" stroke-width="1.5" d="M0,-3.0v7 M-2.5,-0.5L0,-3.0L2.5,-0.5"/>
                </g>
        </g>
        <svg viewBox="0 0 15 15" width="100%" height="30px" preserveAspectRatio="xMaxYMin meet">
         <g id="arrow_out" transform="scale(0.3 0.3)">
          <a xlink:href="EdgeConstraint_8h__dep__incl_org.svg" target="_base">
           <rect id="button" ry="5" rx="5" y="6" x="6" height="38" width="38"
                fill="#f2f5e9" fill-opacity="0.5" stroke="#606060" stroke-width="1.0"/>
           <path id="arrow"
             d="M 11.500037,31.436501 C 11.940474,20.09759 22.043105,11.32322 32.158766,21.979434 L 37.068811,17.246167 C 37.068811,17.246167 37.088388,32 37.088388,32 L 22.160133,31.978069 C 22.160133,31.978069 26.997745,27.140456 26.997745,27.140456 C 18.528582,18.264221 13.291696,25.230495 11.500037,31.436501 z"
             style="fill:#404040;"/>
          </a>
         </g>
        </svg>
</svg>
