<?xml version="1.0" encoding="UTF-8" standalone="no"?>
<!DOCTYPE svg PUBLIC "-//W3C//DTD SVG 1.1//EN"
 "http://www.w3.org/Graphics/SVG/1.1/DTD/svg11.dtd">
<!-- Generated by graphviz version 2.43.0 (0)
 -->
<!-- Title: Constraints/EdgeConstraint.h Pages: 1 -->
<svg width="321pt" height="162pt"
 viewBox="0.00 0.00 321.00 162.00" xmlns="http://www.w3.org/2000/svg" xmlns:xlink="http://www.w3.org/1999/xlink">
<g id="graph0" class="graph" transform="scale(1 1) rotate(0) translate(4 158)">
<title>Constraints/EdgeConstraint.h</title>
<polygon fill="white" stroke="transparent" points="-4,4 -4,-158 317,-158 317,4 -4,4"/>
<!-- Node1 -->
<g id="node1" class="node">
<title>Node1</title>
<g id="a_node1"><a xlink:title=" ">
<polygon fill="#bfbfbf" stroke="black" points="79.5,-134.5 79.5,-153.5 237.5,-153.5 237.5,-134.5 79.5,-134.5"/>
<text text-anchor="middle" x="158.5" y="-141.5" font-family="Helvetica,sans-Serif" font-size="10.00">Constraints/EdgeConstraint.h</text>
</a>
</g>
</g>
<!-- Node2 -->
<g id="node2" class="node">
<title>Node2</title>
<g id="a_node2"><a xlink:href="ConstraintsSet_8h.html" target="_top" xlink:title=" ">
<polygon fill="white" stroke="black" points="0,-73 0,-92 155,-92 155,-73 0,-73"/>
<text text-anchor="middle" x="77.5" y="-80" font-family="Helvetica,sans-Serif" font-size="10.00">Constraints/ConstraintsSet.h</text>
</a>
</g>
</g>
<!-- Node1&#45;&gt;Node2 -->
<g id="edge1" class="edge">
<title>Node1&#45;&gt;Node2</title>
<path fill="none" stroke="midnightblue" d="M138.48,-128.29C122.94,-116.88 101.95,-101.46 89.08,-92.01"/>
<polygon fill="midnightblue" stroke="midnightblue" points="136.76,-131.38 146.89,-134.48 140.91,-125.73 136.76,-131.38"/>
</g>
<!-- Node33 -->
<g id="node4" class="node">
<title>Node33</title>
<g id="a_node4"><a xlink:href="ConflictTreeNode_8h.html" target="_top" xlink:title=" ">
<polygon fill="white" stroke="black" points="173,-67.5 173,-97.5 308,-97.5 308,-67.5 173,-67.5"/>
<text text-anchor="start" x="181" y="-85.5" font-family="Helvetica,sans-Serif" font-size="10.00">Solvers/CBS/ConflictTree</text>
<text text-anchor="middle" x="240.5" y="-74.5" font-family="Helvetica,sans-Serif" font-size="10.00">Node.h</text>
</a>
</g>
</g>
<!-- Node1&#45;&gt;Node33 -->
<g id="edge3" class="edge">
<title>Node1&#45;&gt;Node33</title>
<path fill="none" stroke="midnightblue" d="M178.53,-128.47C191.51,-119.05 208.33,-106.84 221.17,-97.52"/>
<polygon fill="midnightblue" stroke="midnightblue" points="176.29,-125.77 170.25,-134.48 180.4,-131.43 176.29,-125.77"/>
</g>
<!-- Node3 -->
<g id="node3" class="node">
<title>Node3</title>
<g id="a_node3"><a xlink:href="Problem_8h.html" target="_top" xlink:title=" ">
<polygon fill="white" stroke="red" points="20,-6 20,-25 135,-25 135,-6 20,-6"/>
<text text-anchor="middle" x="77.5" y="-13" font-family="Helvetica,sans-Serif" font-size="10.00">Problems/Problem.h</text>
</a>
</g>
</g>
<!-- Node2&#45;&gt;Node3 -->
<g id="edge2" class="edge">
<title>Node2&#45;&gt;Node3</title>
<path fill="none" stroke="midnightblue" d="M77.5,-62.54C77.5,-50.17 77.5,-34.62 77.5,-25.13"/>
<polygon fill="midnightblue" stroke="midnightblue" points="74,-62.73 77.5,-72.73 81,-62.73 74,-62.73"/>
</g>
<!-- Node11 -->
<g id="node5" class="node">
<title>Node11</title>
<g id="a_node5"><a xlink:href="ConflictBasedSearch_8h.html" target="_top" xlink:title=" ">
<polygon fill="white" stroke="red" points="168,-0.5 168,-30.5 313,-30.5 313,-0.5 168,-0.5"/>
<text text-anchor="start" x="176" y="-18.5" font-family="Helvetica,sans-Serif" font-size="10.00">Solvers/CBS/ConflictBased</text>
<text text-anchor="middle" x="240.5" y="-7.5" font-family="Helvetica,sans-Serif" font-size="10.00">Search.h</text>
</a>
</g>
</g>
<!-- Node33&#45;&gt;Node11 -->
<g id="edge4" class="edge">
<title>Node33&#45;&gt;Node11</title>
<path fill="none" stroke="midnightblue" d="M240.5,-57.11C240.5,-48.15 240.5,-38.32 240.5,-30.58"/>
<polygon fill="midnightblue" stroke="midnightblue" points="237,-57.4 240.5,-67.4 244,-57.4 237,-57.4"/>
</g>
</g>
</svg>
