<?xml version="1.0" encoding="UTF-8" standalone="no"?>
<!DOCTYPE svg PUBLIC "-//W3C//DTD SVG 1.1//EN"
 "http://www.w3.org/Graphics/SVG/1.1/DTD/svg11.dtd">
<!-- Generated by graphviz version 2.43.0 (0)
 -->
<!-- Title: Solvers/AStar/GeneralAStar.h Pages: 1 -->
<!--zoomable 609 -->
<svg id="main" version="1.1" xmlns="http://www.w3.org/2000/svg" xmlns:xlink="http://www.w3.org/1999/xlink" xml:space="preserve" onload="init(evt)">
<style type="text/css"><![CDATA[
.edge:hover path { stroke: red; }
.edge:hover polygon { stroke: red; fill: red; }
]]></style>
<script type="text/javascript"><![CDATA[
var edges = document.getElementsByTagName('g');
if (edges && edges.length) {
  for (var i=0;i<edges.length;i++) {
    if (edges[i].id.substr(0,4)=='edge') {
      edges[i].setAttribute('class','edge');
    }
  }
}
]]></script>
        <defs>
                <circle id="rim" cx="0" cy="0" r="7"/>
                <circle id="rim2" cx="0" cy="0" r="3.5"/>
                <g id="zoomPlus">
                        <use xlink:href="#rim" fill="#404040">
                                <set attributeName="fill" to="#808080" begin="zoomplus.mouseover" end="zoomplus.mouseout"/>
                        </use>
                        <path d="M-4,0h8M0,-4v8" fill="none" stroke="white" stroke-width="1.5" pointer-events="none"/>
                </g>
                <g id="zoomMin">
                        <use xlink:href="#rim" fill="#404040">
                                <set attributeName="fill" to="#808080" begin="zoomminus.mouseover" end="zoomminus.mouseout"/>
                        </use>
                        <path d="M-4,0h8" fill="none" stroke="white" stroke-width="1.5" pointer-events="none"/>
                </g>
                <g id="dirArrow">
                        <path fill="none" stroke="white" stroke-width="1.5" d="M0,-3.0v7 M-2.5,-0.5L0,-3.0L2.5,-0.5"/>
                </g>
               <g id="resetDef">
                       <use xlink:href="#rim2" fill="#404040">
                               <set attributeName="fill" to="#808080" begin="reset.mouseover" end="reset.mouseout"/>
                       </use>
               </g>
        </defs>

<script type="text/javascript">
var viewWidth = 1264;
var viewHeight = 609;
var sectionId = 'dynsection-0';
</script>
<script xlink:href="svgpan.js"/>
<svg id="graph" class="graph">
<g id="viewport">
<title>Solvers/AStar/GeneralAStar.h</title>
<polygon fill="white" stroke="transparent" points="-4,4 -4,-605 1260,-605 1260,4 -4,4"/>
<!-- Node1 -->
<g id="node1" class="node">
<title>Node1</title>
<g id="a_node1"><a xlink:title=" ">
<polygon fill="#bfbfbf" stroke="black" points="133,-581.5 133,-600.5 291,-600.5 291,-581.5 133,-581.5"/>
<text text-anchor="middle" x="212" y="-588.5" font-family="Helvetica,sans-Serif" font-size="10.00">Solvers/AStar/GeneralAStar.h</text>
</a>
</g>
</g>
<!-- Node2 -->
<g id="node2" class="node">
<title>Node2</title>
<g id="a_node2"><a xlink:href="AStar_8h.html" target="_top" xlink:title=" ">
<polygon fill="white" stroke="black" points="517.5,-525.5 517.5,-544.5 568.5,-544.5 568.5,-525.5 517.5,-525.5"/>
<text text-anchor="middle" x="543" y="-532.5" font-family="Helvetica,sans-Serif" font-size="10.00">AStar.h</text>
</a>
</g>
</g>
<!-- Node1&#45;&gt;Node2 -->
<g id="edge1" class="edge">
<title>Node1&#45;&gt;Node2</title>
<path fill="none" stroke="midnightblue" d="M264.45,-581.44C332.37,-570.36 448.97,-551.34 507.42,-541.81"/>
<polygon fill="midnightblue" stroke="midnightblue" points="507.98,-545.26 517.29,-540.19 506.86,-538.35 507.98,-545.26"/>
</g>
<!-- Node9 -->
<g id="node9" class="node">
<title>Node9</title>
<g id="a_node9"><a xlink:href="Problem_8h.html" target="_top" xlink:title=" ">
<polygon fill="white" stroke="black" points="120,-129 120,-148 186,-148 186,-129 120,-129"/>
<text text-anchor="middle" x="153" y="-136" font-family="Helvetica,sans-Serif" font-size="10.00">Problem.h</text>
</a>
</g>
</g>
<!-- Node1&#45;&gt;Node9 -->
<g id="edge48" class="edge">
<title>Node1&#45;&gt;Node9</title>
<path fill="none" stroke="midnightblue" d="M169.88,-581.46C118.38,-568.27 38,-537.59 38,-474.5 38,-474.5 38,-474.5 38,-271.5 38,-234.31 34.26,-219.43 57,-190 71.05,-171.81 93.52,-159.49 113.19,-151.57"/>
<polygon fill="midnightblue" stroke="midnightblue" points="114.45,-154.84 122.57,-148.03 111.98,-148.29 114.45,-154.84"/>
</g>
<!-- Node3 -->
<g id="node3" class="node">
<title>Node3</title>
<g id="a_node3"><a xlink:href="AStarProblem_8h.html" target="_top" xlink:title=" ">
<polygon fill="white" stroke="black" points="504.5,-190.5 504.5,-220.5 611.5,-220.5 611.5,-190.5 504.5,-190.5"/>
<text text-anchor="start" x="512.5" y="-208.5" font-family="Helvetica,sans-Serif" font-size="10.00">../../AStarProblems</text>
<text text-anchor="middle" x="558" y="-197.5" font-family="Helvetica,sans-Serif" font-size="10.00">/AStarProblem.h</text>
</a>
</g>
</g>
<!-- Node2&#45;&gt;Node3 -->
<g id="edge2" class="edge">
<title>Node2&#45;&gt;Node3</title>
<path fill="none" stroke="midnightblue" d="M549.25,-525.29C562.87,-505.43 594,-454.86 594,-407.5 594,-407.5 594,-407.5 594,-338.5 594,-299.5 579.19,-256.22 568.57,-230.2"/>
<polygon fill="midnightblue" stroke="midnightblue" points="571.71,-228.65 564.6,-220.8 565.26,-231.37 571.71,-228.65"/>
</g>
<!-- Node4 -->
<g id="node4" class="node">
<title>Node4</title>
<g id="a_node4"><a xlink:href="HeuristicOptimal_8h.html" target="_top" xlink:title=" ">
<polygon fill="white" stroke="black" points="378,-458.5 378,-488.5 508,-488.5 508,-458.5 378,-458.5"/>
<text text-anchor="start" x="386" y="-476.5" font-family="Helvetica,sans-Serif" font-size="10.00">../../Heuristics/Heuristic</text>
<text text-anchor="middle" x="443" y="-465.5" font-family="Helvetica,sans-Serif" font-size="10.00">Optimal.h</text>
</a>
</g>
</g>
<!-- Node2&#45;&gt;Node4 -->
<g id="edge3" class="edge">
<title>Node2&#45;&gt;Node4</title>
<path fill="none" stroke="midnightblue" d="M528.67,-525.48C514.88,-517.27 493.52,-504.56 475.58,-493.88"/>
<polygon fill="midnightblue" stroke="midnightblue" points="476.95,-490.63 466.57,-488.52 473.37,-496.64 476.95,-490.63"/>
</g>
<!-- Node28 -->
<g id="node28" class="node">
<title>Node28</title>
<g id="a_node28"><a xlink:href="Solution_8h.html" target="_top" xlink:title=" ">
<polygon fill="white" stroke="black" points="907,-397 907,-416 1033,-416 1033,-397 907,-397"/>
<text text-anchor="middle" x="970" y="-404" font-family="Helvetica,sans-Serif" font-size="10.00">../../Solution/Solution.h</text>
</a>
</g>
</g>
<!-- Node2&#45;&gt;Node28 -->
<g id="edge46" class="edge">
<title>Node2&#45;&gt;Node28</title>
<path fill="none" stroke="midnightblue" d="M568.75,-526.37C640.99,-504.97 845.86,-444.28 931.56,-418.89"/>
<polygon fill="midnightblue" stroke="midnightblue" points="932.57,-422.24 941.17,-416.04 930.58,-415.53 932.57,-422.24"/>
</g>
<!-- Node5 -->
<g id="node5" class="node">
<title>Node5</title>
<g id="a_node5"><a xlink:href="Graph_8h.html" target="_top" xlink:title=" ">
<polygon fill="white" stroke="black" points="12,-62 12,-81 138,-81 138,-62 12,-62"/>
<text text-anchor="middle" x="75" y="-69" font-family="Helvetica,sans-Serif" font-size="10.00">../GraphParser/Graph.h</text>
</a>
</g>
</g>
<!-- Node4&#45;&gt;Node5 -->
<g id="edge4" class="edge">
<title>Node4&#45;&gt;Node5</title>
<path fill="none" stroke="midnightblue" d="M377.63,-466.72C254.41,-454.01 0,-418.34 0,-340.5 0,-340.5 0,-340.5 0,-204.5 0,-157.34 36.63,-111.63 58.69,-88.37"/>
<polygon fill="midnightblue" stroke="midnightblue" points="61.3,-90.71 65.8,-81.12 56.3,-85.81 61.3,-90.71"/>
</g>
<!-- Node6 -->
<g id="node6" class="node">
<title>Node6</title>
<g id="a_node6"><a xlink:href="ReverseResumableAStar_8h.html" target="_top" xlink:title=" ">
<polygon fill="white" stroke="black" points="327,-391.5 327,-421.5 461,-421.5 461,-391.5 327,-391.5"/>
<text text-anchor="start" x="335" y="-409.5" font-family="Helvetica,sans-Serif" font-size="10.00">../Solvers/AStar/Reverse</text>
<text text-anchor="middle" x="394" y="-398.5" font-family="Helvetica,sans-Serif" font-size="10.00">ResumableAStar.h</text>
</a>
</g>
</g>
<!-- Node4&#45;&gt;Node6 -->
<g id="edge5" class="edge">
<title>Node4&#45;&gt;Node6</title>
<path fill="none" stroke="midnightblue" d="M432.37,-458.4C426.08,-450.05 417.96,-439.29 410.82,-429.81"/>
<polygon fill="midnightblue" stroke="midnightblue" points="413.43,-427.45 404.61,-421.58 407.84,-431.67 413.43,-427.45"/>
</g>
<!-- Node15 -->
<g id="node15" class="node">
<title>Node15</title>
<g id="a_node15"><a xlink:href="HeuristicManhattan_8h.html" target="_top" xlink:title=" ">
<polygon fill="white" stroke="black" points="431,-324.5 431,-354.5 561,-354.5 561,-324.5 431,-324.5"/>
<text text-anchor="start" x="439" y="-342.5" font-family="Helvetica,sans-Serif" font-size="10.00">../../Heuristics/Heuristic</text>
<text text-anchor="middle" x="496" y="-331.5" font-family="Helvetica,sans-Serif" font-size="10.00">Manhattan.h</text>
</a>
</g>
</g>
<!-- Node4&#45;&gt;Node15 -->
<g id="edge45" class="edge">
<title>Node4&#45;&gt;Node15</title>
<path fill="none" stroke="midnightblue" d="M451.52,-458.26C457.23,-448.32 464.66,-434.64 470,-422 477.97,-403.15 484.89,-380.97 489.59,-364.52"/>
<polygon fill="midnightblue" stroke="midnightblue" points="493.03,-365.2 492.34,-354.62 486.29,-363.32 493.03,-365.2"/>
</g>
<!-- Node7 -->
<g id="node7" class="node">
<title>Node7</title>
<g id="a_node7"><a xlink:href="SingleAgentAStarProblem_8h.html" target="_top" xlink:title=" ">
<polygon fill="white" stroke="black" points="66,-257.5 66,-287.5 220,-287.5 220,-257.5 66,-257.5"/>
<text text-anchor="start" x="74" y="-275.5" font-family="Helvetica,sans-Serif" font-size="10.00">../../AStarProblems</text>
<text text-anchor="middle" x="143" y="-264.5" font-family="Helvetica,sans-Serif" font-size="10.00">/SingleAgentAStarProblem.h</text>
</a>
</g>
</g>
<!-- Node6&#45;&gt;Node7 -->
<g id="edge6" class="edge">
<title>Node6&#45;&gt;Node7</title>
<path fill="none" stroke="midnightblue" d="M367.14,-391.37C321.66,-367.46 229.49,-318.99 178.66,-292.25"/>
<polygon fill="midnightblue" stroke="midnightblue" points="180.15,-289.08 169.67,-287.52 176.89,-295.28 180.15,-289.08"/>
</g>
<!-- Node6&#45;&gt;Node15 -->
<g id="edge16" class="edge">
<title>Node6&#45;&gt;Node15</title>
<path fill="none" stroke="midnightblue" d="M416.13,-391.4C430.57,-382.2 449.6,-370.07 465.47,-359.95"/>
<polygon fill="midnightblue" stroke="midnightblue" points="467.36,-362.9 473.91,-354.58 463.6,-357 467.36,-362.9"/>
</g>
<!-- Node27 -->
<g id="node27" class="node">
<title>Node27</title>
<g id="a_node27"><a xlink:href="Node_8h.html" target="_top" xlink:title=" ">
<polygon fill="white" stroke="black" points="361.5,-330 361.5,-349 412.5,-349 412.5,-330 361.5,-330"/>
<text text-anchor="middle" x="387" y="-337" font-family="Helvetica,sans-Serif" font-size="10.00">Node.h</text>
</a>
</g>
</g>
<!-- Node6&#45;&gt;Node27 -->
<g id="edge44" class="edge">
<title>Node6&#45;&gt;Node27</title>
<path fill="none" stroke="midnightblue" d="M392.48,-391.4C391.47,-381.96 390.12,-369.45 389.01,-359.19"/>
<polygon fill="midnightblue" stroke="midnightblue" points="392.49,-358.76 387.94,-349.19 385.53,-359.51 392.49,-358.76"/>
</g>
<!-- Node7&#45;&gt;Node3 -->
<g id="edge15" class="edge">
<title>Node7&#45;&gt;Node3</title>
<path fill="none" stroke="midnightblue" d="M220.35,-258.4C223.27,-257.93 226.16,-257.46 229,-257 321.06,-242.17 427.79,-225.97 494.11,-216.02"/>
<polygon fill="midnightblue" stroke="midnightblue" points="495.03,-219.42 504.4,-214.48 493.99,-212.5 495.03,-219.42"/>
</g>
<!-- Node8 -->
<g id="node8" class="node">
<title>Node8</title>
<g id="a_node8"><a xlink:href="SingleAgentProblem_8h.html" target="_top" xlink:title=" ">
<polygon fill="white" stroke="black" points="66,-196 66,-215 248,-215 248,-196 66,-196"/>
<text text-anchor="middle" x="157" y="-203" font-family="Helvetica,sans-Serif" font-size="10.00">../Problems/SingleAgentProblem.h</text>
</a>
</g>
</g>
<!-- Node7&#45;&gt;Node8 -->
<g id="edge7" class="edge">
<title>Node7&#45;&gt;Node8</title>
<path fill="none" stroke="midnightblue" d="M146.04,-257.4C148.07,-247.96 150.76,-235.45 152.97,-225.19"/>
<polygon fill="midnightblue" stroke="midnightblue" points="156.44,-225.71 155.13,-215.19 149.6,-224.23 156.44,-225.71"/>
</g>
<!-- Node13 -->
<g id="node13" class="node">
<title>Node13</title>
<g id="a_node13"><a xlink:href="SingleAgentState_8h.html" target="_top" xlink:title=" ">
<polygon fill="white" stroke="black" points="204,-129 204,-148 356,-148 356,-129 204,-129"/>
<text text-anchor="middle" x="280" y="-136" font-family="Helvetica,sans-Serif" font-size="10.00">../States/SingleAgentState.h</text>
</a>
</g>
</g>
<!-- Node7&#45;&gt;Node13 -->
<g id="edge13" class="edge">
<title>Node7&#45;&gt;Node13</title>
<path fill="none" stroke="midnightblue" d="M199.65,-257.44C220.25,-249.75 242.11,-238.17 257,-221 272.24,-203.42 277.43,-176.43 279.17,-158.39"/>
<polygon fill="midnightblue" stroke="midnightblue" points="282.67,-158.45 279.87,-148.24 275.69,-157.97 282.67,-158.45"/>
</g>
<!-- Node8&#45;&gt;Node9 -->
<g id="edge8" class="edge">
<title>Node8&#45;&gt;Node9</title>
<path fill="none" stroke="midnightblue" d="M156.46,-195.73C155.87,-186.18 154.91,-170.62 154.16,-158.28"/>
<polygon fill="midnightblue" stroke="midnightblue" points="157.64,-157.89 153.53,-148.13 150.65,-158.32 157.64,-157.89"/>
</g>
<!-- Node9&#45;&gt;Node5 -->
<g id="edge12" class="edge">
<title>Node9&#45;&gt;Node5</title>
<path fill="none" stroke="midnightblue" d="M142.48,-128.73C129.85,-118.21 108.46,-100.38 93.14,-87.62"/>
<polygon fill="midnightblue" stroke="midnightblue" points="95.28,-84.84 85.35,-81.13 90.79,-90.22 95.28,-84.84"/>
</g>
<!-- Node10 -->
<g id="node10" class="node">
<title>Node10</title>
<g id="a_node10"><a xlink:href="ConstraintsSet_8h.html" target="_top" xlink:title=" ">
<polygon fill="white" stroke="black" points="296,-56.5 296,-86.5 436,-86.5 436,-56.5 296,-56.5"/>
<text text-anchor="start" x="304" y="-74.5" font-family="Helvetica,sans-Serif" font-size="10.00">../Constraints/Constraints</text>
<text text-anchor="middle" x="366" y="-63.5" font-family="Helvetica,sans-Serif" font-size="10.00">Set.h</text>
</a>
</g>
</g>
<!-- Node9&#45;&gt;Node10 -->
<g id="edge9" class="edge">
<title>Node9&#45;&gt;Node10</title>
<path fill="none" stroke="midnightblue" d="M177.37,-128.88C183.13,-126.9 189.27,-124.83 195,-123 231.74,-111.24 273.22,-98.96 306.14,-89.46"/>
<polygon fill="midnightblue" stroke="midnightblue" points="307.42,-92.73 316.06,-86.6 305.48,-86.01 307.42,-92.73"/>
</g>
<!-- Node11 -->
<g id="node11" class="node">
<title>Node11</title>
<g id="a_node11"><a xlink:href="EdgeConstraint_8h.html" target="_top" xlink:title=" ">
<polygon fill="white" stroke="black" points="316,-0.5 316,-19.5 416,-19.5 416,-0.5 316,-0.5"/>
<text text-anchor="middle" x="366" y="-7.5" font-family="Helvetica,sans-Serif" font-size="10.00">EdgeConstraint.h</text>
</a>
</g>
</g>
<!-- Node10&#45;&gt;Node11 -->
<g id="edge10" class="edge">
<title>Node10&#45;&gt;Node11</title>
<path fill="none" stroke="midnightblue" d="M366,-56.4C366,-48.47 366,-38.46 366,-29.86"/>
<polygon fill="midnightblue" stroke="midnightblue" points="369.5,-29.66 366,-19.66 362.5,-29.66 369.5,-29.66"/>
</g>
<!-- Node12 -->
<g id="node12" class="node">
<title>Node12</title>
<g id="a_node12"><a xlink:href="VertexConstraint_8h.html" target="_top" xlink:title=" ">
<polygon fill="white" stroke="black" points="832.5,-0.5 832.5,-19.5 939.5,-19.5 939.5,-0.5 832.5,-0.5"/>
<text text-anchor="middle" x="886" y="-7.5" font-family="Helvetica,sans-Serif" font-size="10.00">VertexConstraint.h</text>
</a>
</g>
</g>
<!-- Node10&#45;&gt;Node12 -->
<g id="edge11" class="edge">
<title>Node10&#45;&gt;Node12</title>
<path fill="none" stroke="midnightblue" d="M436.13,-62.48C537.74,-50.85 724.42,-29.49 822.3,-18.29"/>
<polygon fill="midnightblue" stroke="midnightblue" points="822.81,-21.75 832.35,-17.14 822.01,-14.8 822.81,-21.75"/>
</g>
<!-- Node14 -->
<g id="node14" class="node">
<title>Node14</title>
<g id="a_node14"><a xlink:href="State_8h.html" target="_top" xlink:title=" ">
<polygon fill="white" stroke="black" points="508.5,-62 508.5,-81 559.5,-81 559.5,-62 508.5,-62"/>
<text text-anchor="middle" x="534" y="-69" font-family="Helvetica,sans-Serif" font-size="10.00">State.h</text>
</a>
</g>
</g>
<!-- Node13&#45;&gt;Node14 -->
<g id="edge14" class="edge">
<title>Node13&#45;&gt;Node14</title>
<path fill="none" stroke="midnightblue" d="M313.47,-128.94C361.38,-116.67 449.16,-94.21 498.29,-81.64"/>
<polygon fill="midnightblue" stroke="midnightblue" points="499.34,-84.98 508.16,-79.11 497.6,-78.2 499.34,-84.98"/>
</g>
<!-- Node15&#45;&gt;Node7 -->
<g id="edge28" class="edge">
<title>Node15&#45;&gt;Node7</title>
<path fill="none" stroke="midnightblue" d="M430.64,-325.64C427.72,-325.08 424.83,-324.53 422,-324 357.79,-311.9 285.16,-298.77 230.1,-288.93"/>
<polygon fill="midnightblue" stroke="midnightblue" points="230.49,-285.45 220.03,-287.13 229.26,-292.34 230.49,-285.45"/>
</g>
<!-- Node16 -->
<g id="node16" class="node">
<title>Node16</title>
<g id="a_node16"><a xlink:href="ODMultiAgentAStarProblem_8h.html" target="_top" xlink:title=" ">
<polygon fill="white" stroke="black" points="426,-257.5 426,-287.5 566,-287.5 566,-257.5 426,-257.5"/>
<text text-anchor="start" x="434" y="-275.5" font-family="Helvetica,sans-Serif" font-size="10.00">../AStarProblems/ODMulti</text>
<text text-anchor="middle" x="496" y="-264.5" font-family="Helvetica,sans-Serif" font-size="10.00">AgentAStarProblem.h</text>
</a>
</g>
</g>
<!-- Node15&#45;&gt;Node16 -->
<g id="edge17" class="edge">
<title>Node15&#45;&gt;Node16</title>
<path fill="none" stroke="midnightblue" d="M496,-324.4C496,-316.64 496,-306.81 496,-297.86"/>
<polygon fill="midnightblue" stroke="midnightblue" points="499.5,-297.58 496,-287.58 492.5,-297.58 499.5,-297.58"/>
</g>
<!-- Node19 -->
<g id="node19" class="node">
<title>Node19</title>
<g id="a_node19"><a xlink:href="ODMultiAgentAStarProblemWithConstraints_8h.html" target="_top" xlink:title=" ">
<polygon fill="white" stroke="black" points="622.5,-257.5 622.5,-287.5 821.5,-287.5 821.5,-257.5 622.5,-257.5"/>
<text text-anchor="start" x="630.5" y="-275.5" font-family="Helvetica,sans-Serif" font-size="10.00">../AStarProblems/ODMulti</text>
<text text-anchor="middle" x="722" y="-264.5" font-family="Helvetica,sans-Serif" font-size="10.00">AgentAStarProblemWithConstraints.h</text>
</a>
</g>
</g>
<!-- Node15&#45;&gt;Node19 -->
<g id="edge23" class="edge">
<title>Node15&#45;&gt;Node19</title>
<path fill="none" stroke="midnightblue" d="M544.76,-324.48C579.54,-314.47 626.48,-300.97 663.32,-290.38"/>
<polygon fill="midnightblue" stroke="midnightblue" points="664.29,-293.74 672.94,-287.61 662.36,-287.01 664.29,-293.74"/>
</g>
<!-- Node21 -->
<g id="node21" class="node">
<title>Node21</title>
<g id="a_node21"><a xlink:href="SingleAgentAStarProblemWithConstraints_8h.html" target="_top" xlink:title=" ">
<polygon fill="white" stroke="black" points="238,-257.5 238,-287.5 408,-287.5 408,-257.5 238,-257.5"/>
<text text-anchor="start" x="246" y="-275.5" font-family="Helvetica,sans-Serif" font-size="10.00">../AStarProblems/SingleAgent</text>
<text text-anchor="middle" x="323" y="-264.5" font-family="Helvetica,sans-Serif" font-size="10.00">AStarProblemWithConstraints.h</text>
</a>
</g>
</g>
<!-- Node15&#45;&gt;Node21 -->
<g id="edge29" class="edge">
<title>Node15&#45;&gt;Node21</title>
<path fill="none" stroke="midnightblue" d="M458.46,-324.4C432.5,-314.64 397.78,-301.59 369.98,-291.15"/>
<polygon fill="midnightblue" stroke="midnightblue" points="371.06,-287.82 360.47,-287.58 368.6,-294.37 371.06,-287.82"/>
</g>
<!-- Node23 -->
<g id="node23" class="node">
<title>Node23</title>
<g id="a_node23"><a xlink:href="StandardMultiAgentAStarProblem_8h.html" target="_top" xlink:title=" ">
<polygon fill="white" stroke="black" points="840,-257.5 840,-287.5 986,-287.5 986,-257.5 840,-257.5"/>
<text text-anchor="start" x="848" y="-275.5" font-family="Helvetica,sans-Serif" font-size="10.00">../AStarProblems/Standard</text>
<text text-anchor="middle" x="913" y="-264.5" font-family="Helvetica,sans-Serif" font-size="10.00">MultiAgentAStarProblem.h</text>
</a>
</g>
</g>
<!-- Node15&#45;&gt;Node23 -->
<g id="edge34" class="edge">
<title>Node15&#45;&gt;Node23</title>
<path fill="none" stroke="midnightblue" d="M561.24,-329.17C626.63,-319.7 730.45,-304.36 829.79,-288.18"/>
<polygon fill="midnightblue" stroke="midnightblue" points="830.39,-291.62 839.7,-286.56 829.26,-284.72 830.39,-291.62"/>
</g>
<!-- Node25 -->
<g id="node25" class="node">
<title>Node25</title>
<g id="a_node25"><a xlink:href="StandardMultiAgentAStarProblemWithConstraints_8h.html" target="_top" xlink:title=" ">
<polygon fill="white" stroke="black" points="1004,-257.5 1004,-287.5 1228,-287.5 1228,-257.5 1004,-257.5"/>
<text text-anchor="start" x="1012" y="-275.5" font-family="Helvetica,sans-Serif" font-size="10.00">../AStarProblems/Standard</text>
<text text-anchor="middle" x="1116" y="-264.5" font-family="Helvetica,sans-Serif" font-size="10.00">MultiAgentAStarProblemWithConstraints.h</text>
</a>
</g>
</g>
<!-- Node15&#45;&gt;Node25 -->
<g id="edge39" class="edge">
<title>Node15&#45;&gt;Node25</title>
<path fill="none" stroke="midnightblue" d="M561.03,-332.3C654.36,-323.33 831.96,-305.92 993.8,-288.12"/>
<polygon fill="midnightblue" stroke="midnightblue" points="994.38,-291.58 1003.94,-287 993.62,-284.62 994.38,-291.58"/>
</g>
<!-- Node16&#45;&gt;Node3 -->
<g id="edge22" class="edge">
<title>Node16&#45;&gt;Node3</title>
<path fill="none" stroke="midnightblue" d="M509.45,-257.4C517.66,-248.79 528.31,-237.63 537.55,-227.94"/>
<polygon fill="midnightblue" stroke="midnightblue" points="540.2,-230.23 544.57,-220.58 535.14,-225.4 540.2,-230.23"/>
</g>
<!-- Node17 -->
<g id="node17" class="node">
<title>Node17</title>
<g id="a_node17"><a xlink:href="MultiAgentProblem_8h.html" target="_top" xlink:title=" ">
<polygon fill="white" stroke="black" points="629.5,-196 629.5,-215 806.5,-215 806.5,-196 629.5,-196"/>
<text text-anchor="middle" x="718" y="-203" font-family="Helvetica,sans-Serif" font-size="10.00">../Problems/MultiAgentProblem.h</text>
</a>
</g>
</g>
<!-- Node16&#45;&gt;Node17 -->
<g id="edge18" class="edge">
<title>Node16&#45;&gt;Node17</title>
<path fill="none" stroke="midnightblue" d="M543.9,-257.48C584.21,-245.67 641.15,-229 678.8,-217.98"/>
<polygon fill="midnightblue" stroke="midnightblue" points="680.26,-221.2 688.87,-215.03 678.29,-214.48 680.26,-221.2"/>
</g>
<!-- Node18 -->
<g id="node18" class="node">
<title>Node18</title>
<g id="a_node18"><a xlink:href="ODMultiAgentState_8h.html" target="_top" xlink:title=" ">
<polygon fill="white" stroke="black" points="540,-129 540,-148 702,-148 702,-129 540,-129"/>
<text text-anchor="middle" x="621" y="-136" font-family="Helvetica,sans-Serif" font-size="10.00">../States/ODMultiAgentState.h</text>
</a>
</g>
</g>
<!-- Node16&#45;&gt;Node18 -->
<g id="edge20" class="edge">
<title>Node16&#45;&gt;Node18</title>
<path fill="none" stroke="midnightblue" d="M491.6,-257.45C487.07,-240.03 482.39,-210.18 496,-190 509.28,-170.31 531.68,-158.29 553.87,-150.96"/>
<polygon fill="midnightblue" stroke="midnightblue" points="555.12,-154.24 563.68,-148.01 553.1,-147.54 555.12,-154.24"/>
</g>
<!-- Node17&#45;&gt;Node9 -->
<g id="edge19" class="edge">
<title>Node17&#45;&gt;Node9</title>
<path fill="none" stroke="midnightblue" d="M665.22,-195.98C650.9,-193.84 635.38,-191.68 621,-190 432.28,-167.94 380.9,-193.31 195,-154 191.5,-153.26 187.88,-152.31 184.32,-151.25"/>
<polygon fill="midnightblue" stroke="midnightblue" points="185.1,-147.83 174.51,-148.07 182.94,-154.49 185.1,-147.83"/>
</g>
<!-- Node18&#45;&gt;Node14 -->
<g id="edge21" class="edge">
<title>Node18&#45;&gt;Node14</title>
<path fill="none" stroke="midnightblue" d="M609.27,-128.73C595.05,-118.11 570.87,-100.05 553.76,-87.26"/>
<polygon fill="midnightblue" stroke="midnightblue" points="555.65,-84.31 545.55,-81.13 551.46,-89.92 555.65,-84.31"/>
</g>
<!-- Node19&#45;&gt;Node3 -->
<g id="edge27" class="edge">
<title>Node19&#45;&gt;Node3</title>
<path fill="none" stroke="midnightblue" d="M686.41,-257.4C661.91,-247.69 629.17,-234.71 602.88,-224.29"/>
<polygon fill="midnightblue" stroke="midnightblue" points="604.1,-221.01 593.52,-220.58 601.52,-227.51 604.1,-221.01"/>
</g>
<!-- Node19&#45;&gt;Node17 -->
<g id="edge24" class="edge">
<title>Node19&#45;&gt;Node17</title>
<path fill="none" stroke="midnightblue" d="M721.13,-257.4C720.55,-247.96 719.78,-235.45 719.15,-225.19"/>
<polygon fill="midnightblue" stroke="midnightblue" points="722.64,-224.96 718.54,-215.19 715.66,-225.39 722.64,-224.96"/>
</g>
<!-- Node20 -->
<g id="node20" class="node">
<title>Node20</title>
<g id="a_node20"><a xlink:href="ODMultiAgentSpaceTimeState_8h.html" target="_top" xlink:title=" ">
<polygon fill="white" stroke="black" points="824.5,-190.5 824.5,-220.5 981.5,-220.5 981.5,-190.5 824.5,-190.5"/>
<text text-anchor="start" x="832.5" y="-208.5" font-family="Helvetica,sans-Serif" font-size="10.00">../States/ODMultiAgentSpace</text>
<text text-anchor="middle" x="903" y="-197.5" font-family="Helvetica,sans-Serif" font-size="10.00">TimeState.h</text>
</a>
</g>
</g>
<!-- Node19&#45;&gt;Node20 -->
<g id="edge25" class="edge">
<title>Node19&#45;&gt;Node20</title>
<path fill="none" stroke="midnightblue" d="M761.27,-257.4C788.55,-247.6 825.08,-234.48 854.23,-224.02"/>
<polygon fill="midnightblue" stroke="midnightblue" points="855.57,-227.25 863.8,-220.58 853.21,-220.66 855.57,-227.25"/>
</g>
<!-- Node20&#45;&gt;Node18 -->
<g id="edge26" class="edge">
<title>Node20&#45;&gt;Node18</title>
<path fill="none" stroke="midnightblue" d="M842.16,-190.48C789.86,-178.42 715.52,-161.29 667.77,-150.28"/>
<polygon fill="midnightblue" stroke="midnightblue" points="668.53,-146.86 658,-148.03 666.96,-153.69 668.53,-146.86"/>
</g>
<!-- Node21&#45;&gt;Node3 -->
<g id="edge33" class="edge">
<title>Node21&#45;&gt;Node3</title>
<path fill="none" stroke="midnightblue" d="M373.7,-257.48C409.87,-247.47 458.68,-233.97 496.98,-223.38"/>
<polygon fill="midnightblue" stroke="midnightblue" points="498.28,-226.65 506.98,-220.61 496.41,-219.9 498.28,-226.65"/>
</g>
<!-- Node21&#45;&gt;Node8 -->
<g id="edge30" class="edge">
<title>Node21&#45;&gt;Node8</title>
<path fill="none" stroke="midnightblue" d="M286.98,-257.4C257.47,-245.84 216.14,-229.66 188.06,-218.66"/>
<polygon fill="midnightblue" stroke="midnightblue" points="189.31,-215.39 178.73,-215.01 186.76,-221.91 189.31,-215.39"/>
</g>
<!-- Node22 -->
<g id="node22" class="node">
<title>Node22</title>
<g id="a_node22"><a xlink:href="SingleAgentSpaceTimeState_8h.html" target="_top" xlink:title=" ">
<polygon fill="white" stroke="black" points="374.5,-123.5 374.5,-153.5 521.5,-153.5 521.5,-123.5 374.5,-123.5"/>
<text text-anchor="start" x="382.5" y="-141.5" font-family="Helvetica,sans-Serif" font-size="10.00">../States/SingleAgentSpace</text>
<text text-anchor="middle" x="448" y="-130.5" font-family="Helvetica,sans-Serif" font-size="10.00">TimeState.h</text>
</a>
</g>
</g>
<!-- Node21&#45;&gt;Node22 -->
<g id="edge31" class="edge">
<title>Node21&#45;&gt;Node22</title>
<path fill="none" stroke="midnightblue" d="M336.38,-257.37C358.27,-234.25 401.9,-188.18 427.65,-160.99"/>
<polygon fill="midnightblue" stroke="midnightblue" points="430.38,-163.19 434.72,-153.52 425.3,-158.38 430.38,-163.19"/>
</g>
<!-- Node22&#45;&gt;Node14 -->
<g id="edge32" class="edge">
<title>Node22&#45;&gt;Node14</title>
<path fill="none" stroke="midnightblue" d="M466.66,-123.4C480.73,-112.76 499.99,-98.2 514.31,-87.38"/>
<polygon fill="midnightblue" stroke="midnightblue" points="516.63,-90.02 522.5,-81.19 512.41,-84.43 516.63,-90.02"/>
</g>
<!-- Node23&#45;&gt;Node3 -->
<g id="edge38" class="edge">
<title>Node23&#45;&gt;Node3</title>
<path fill="none" stroke="midnightblue" d="M839.69,-258.52C836.75,-258 833.85,-257.5 831,-257 740.81,-241.29 715.51,-239.72 621.51,-221.03"/>
<polygon fill="midnightblue" stroke="midnightblue" points="622.06,-217.58 611.57,-219.05 620.69,-224.44 622.06,-217.58"/>
</g>
<!-- Node23&#45;&gt;Node17 -->
<g id="edge35" class="edge">
<title>Node23&#45;&gt;Node17</title>
<path fill="none" stroke="midnightblue" d="M870.69,-257.4C835.56,-245.69 786.19,-229.23 753.2,-218.23"/>
<polygon fill="midnightblue" stroke="midnightblue" points="754.11,-214.85 743.52,-215.01 751.9,-221.49 754.11,-214.85"/>
</g>
<!-- Node24 -->
<g id="node24" class="node">
<title>Node24</title>
<g id="a_node24"><a xlink:href="StandardMultiAgentState_8h.html" target="_top" xlink:title=" ">
<polygon fill="white" stroke="black" points="932,-123.5 932,-153.5 1088,-153.5 1088,-123.5 932,-123.5"/>
<text text-anchor="start" x="940" y="-141.5" font-family="Helvetica,sans-Serif" font-size="10.00">../States/StandardMultiAgent</text>
<text text-anchor="middle" x="1010" y="-130.5" font-family="Helvetica,sans-Serif" font-size="10.00">State.h</text>
</a>
</g>
</g>
<!-- Node23&#45;&gt;Node24 -->
<g id="edge36" class="edge">
<title>Node23&#45;&gt;Node24</title>
<path fill="none" stroke="midnightblue" d="M946.23,-257.3C962.03,-248.92 979.87,-236.84 991,-221 1002.72,-204.33 1007.3,-181.46 1009.05,-164.18"/>
<polygon fill="midnightblue" stroke="midnightblue" points="1012.57,-164 1009.83,-153.77 1005.59,-163.47 1012.57,-164"/>
</g>
<!-- Node24&#45;&gt;Node14 -->
<g id="edge37" class="edge">
<title>Node24&#45;&gt;Node14</title>
<path fill="none" stroke="midnightblue" d="M931.93,-126.84C827.39,-112.56 646.23,-87.83 569.73,-77.38"/>
<polygon fill="midnightblue" stroke="midnightblue" points="570.03,-73.89 559.65,-76 569.08,-80.82 570.03,-73.89"/>
</g>
<!-- Node25&#45;&gt;Node3 -->
<g id="edge43" class="edge">
<title>Node25&#45;&gt;Node3</title>
<path fill="none" stroke="midnightblue" d="M1003.94,-257.98C1000.93,-257.64 997.94,-257.32 995,-257 832.22,-239.41 787.56,-247.45 621.59,-220.94"/>
<polygon fill="midnightblue" stroke="midnightblue" points="621.95,-217.46 611.52,-219.32 620.84,-224.37 621.95,-217.46"/>
</g>
<!-- Node25&#45;&gt;Node17 -->
<g id="edge40" class="edge">
<title>Node25&#45;&gt;Node17</title>
<path fill="none" stroke="midnightblue" d="M1030.13,-257.48C954.92,-245.19 847.44,-227.64 780.24,-216.67"/>
<polygon fill="midnightblue" stroke="midnightblue" points="780.66,-213.19 770.22,-215.03 779.53,-220.09 780.66,-213.19"/>
</g>
<!-- Node26 -->
<g id="node26" class="node">
<title>Node26</title>
<g id="a_node26"><a xlink:href="StandardMultiAgentSpaceTimeState_8h.html" target="_top" xlink:title=" ">
<polygon fill="white" stroke="black" points="1038,-190.5 1038,-220.5 1194,-220.5 1194,-190.5 1038,-190.5"/>
<text text-anchor="start" x="1046" y="-208.5" font-family="Helvetica,sans-Serif" font-size="10.00">../States/StandardMultiAgent</text>
<text text-anchor="middle" x="1116" y="-197.5" font-family="Helvetica,sans-Serif" font-size="10.00">SpaceTimeState.h</text>
</a>
</g>
</g>
<!-- Node25&#45;&gt;Node26 -->
<g id="edge41" class="edge">
<title>Node25&#45;&gt;Node26</title>
<path fill="none" stroke="midnightblue" d="M1116,-257.4C1116,-249.64 1116,-239.81 1116,-230.86"/>
<polygon fill="midnightblue" stroke="midnightblue" points="1119.5,-230.58 1116,-220.58 1112.5,-230.58 1119.5,-230.58"/>
</g>
<!-- Node26&#45;&gt;Node24 -->
<g id="edge42" class="edge">
<title>Node26&#45;&gt;Node24</title>
<path fill="none" stroke="midnightblue" d="M1093,-190.4C1078,-181.2 1058.21,-169.07 1041.73,-158.95"/>
<polygon fill="midnightblue" stroke="midnightblue" points="1043.31,-155.82 1032.96,-153.58 1039.65,-161.79 1043.31,-155.82"/>
</g>
<!-- Node28&#45;&gt;Node12 -->
<g id="edge47" class="edge">
<title>Node28&#45;&gt;Node12</title>
<path fill="none" stroke="midnightblue" d="M1033.12,-403.34C1117.34,-396.71 1256,-370.98 1256,-273.5 1256,-273.5 1256,-273.5 1256,-137.5 1256,-73.54 1055.56,-35.21 949.74,-19.42"/>
<polygon fill="midnightblue" stroke="midnightblue" points="950.2,-15.95 939.8,-17.96 949.19,-22.88 950.2,-15.95"/>
</g>
</g>
</svg>
        <g id="navigator" transform="translate(0 0)" fill="#404254">
                <rect fill="#f2f5e9" fill-opacity="0.5" stroke="#606060" stroke-width=".5" x="0" y="0" width="60" height="60"/>
                <use id="zoomplus" xlink:href="#zoomPlus" x="17" y="9" onmousedown="handleZoom(evt,'in')"/>
                <use id="zoomminus" xlink:href="#zoomMin" x="42" y="9" onmousedown="handleZoom(evt,'out')"/>
                <use id="reset" xlink:href="#resetDef" x="30" y="36" onmousedown="handleReset()"/>
                <g id="arrowUp" xlink:href="#dirArrow" transform="translate(30 24)" onmousedown="handlePan(0,-1)">
                  <use xlink:href="#rim" fill="#404040">
                        <set attributeName="fill" to="#808080" begin="arrowUp.mouseover" end="arrowUp.mouseout"/>
                  </use>
                  <path fill="none" stroke="white" stroke-width="1.5" d="M0,-3.0v7 M-2.5,-0.5L0,-3.0L2.5,-0.5"/>
                </g>
                <g id="arrowRight" xlink:href="#dirArrow" transform="rotate(90) translate(36 -43)" onmousedown="handlePan(1,0)">
                  <use xlink:href="#rim" fill="#404040">
                        <set attributeName="fill" to="#808080" begin="arrowRight.mouseover" end="arrowRight.mouseout"/>
                  </use>
                  <path fill="none" stroke="white" stroke-width="1.5" d="M0,-3.0v7 M-2.5,-0.5L0,-3.0L2.5,-0.5"/>
                </g>
                <g id="arrowDown" xlink:href="#dirArrow" transform="rotate(180) translate(-30 -48)" onmousedown="handlePan(0,1)">
                  <use xlink:href="#rim" fill="#404040">
                        <set attributeName="fill" to="#808080" begin="arrowDown.mouseover" end="arrowDown.mouseout"/>
                  </use>
                  <path fill="none" stroke="white" stroke-width="1.5" d="M0,-3.0v7 M-2.5,-0.5L0,-3.0L2.5,-0.5"/>
                </g>
                <g id="arrowLeft" xlink:href="#dirArrow" transform="rotate(270) translate(-36 17)" onmousedown="handlePan(-1,0)">
                  <use xlink:href="#rim" fill="#404040">
                        <set attributeName="fill" to="#808080" begin="arrowLeft.mouseover" end="arrowLeft.mouseout"/>
                  </use>
                  <path fill="none" stroke="white" stroke-width="1.5" d="M0,-3.0v7 M-2.5,-0.5L0,-3.0L2.5,-0.5"/>
                </g>
        </g>
        <svg viewBox="0 0 15 15" width="100%" height="30px" preserveAspectRatio="xMaxYMin meet">
         <g id="arrow_out" transform="scale(0.3 0.3)">
          <a xlink:href="GeneralAStar_8h__incl_org.svg" target="_base">
           <rect id="button" ry="5" rx="5" y="6" x="6" height="38" width="38"
                fill="#f2f5e9" fill-opacity="0.5" stroke="#606060" stroke-width="1.0"/>
           <path id="arrow"
             d="M 11.500037,31.436501 C 11.940474,20.09759 22.043105,11.32322 32.158766,21.979434 L 37.068811,17.246167 C 37.068811,17.246167 37.088388,32 37.088388,32 L 22.160133,31.978069 C 22.160133,31.978069 26.997745,27.140456 26.997745,27.140456 C 18.528582,18.264221 13.291696,25.230495 11.500037,31.436501 z"
             style="fill:#404040;"/>
          </a>
         </g>
        </svg>
</svg>
