<?xml version="1.0" encoding="UTF-8" standalone="no"?>
<!DOCTYPE svg PUBLIC "-//W3C//DTD SVG 1.1//EN"
 "http://www.w3.org/Graphics/SVG/1.1/DTD/svg11.dtd">
<!-- Generated by graphviz version 2.43.0 (0)
 -->
<!-- Title: Graph.h Pages: 1 -->
<svg width="1876pt" height="722pt"
 viewBox="0.00 0.00 1875.94 722.00" xmlns="http://www.w3.org/2000/svg" xmlns:xlink="http://www.w3.org/1999/xlink">
<g id="graph0" class="graph" transform="scale(1 1) rotate(0) translate(4 718)">
<title>Graph.h</title>
<polygon fill="white" stroke="transparent" points="-4,4 -4,-718 1871.94,-718 1871.94,4 -4,4"/>
<!-- Node1 -->
<g id="node1" class="node">
<title>Node1</title>
<g id="a_node1"><a xlink:title=" ">
<polygon fill="#bfbfbf" stroke="black" points="112.5,-694.5 112.5,-713.5 167.5,-713.5 167.5,-694.5 112.5,-694.5"/>
<text text-anchor="middle" x="140" y="-701.5" font-family="Helvetica,sans-Serif" font-size="10.00">Graph.h</text>
</a>
</g>
</g>
<!-- Node2 -->
<g id="node2" class="node">
<title>Node2</title>
<g id="a_node2"><a xlink:href="Graph_8cpp.html" target="_top" xlink:title=" ">
<polygon fill="white" stroke="black" points="0,-638.5 0,-657.5 66,-657.5 66,-638.5 0,-638.5"/>
<text text-anchor="middle" x="33" y="-645.5" font-family="Helvetica,sans-Serif" font-size="10.00">Graph.cpp</text>
</a>
</g>
</g>
<!-- Node1&#45;&gt;Node2 -->
<g id="edge1" class="edge">
<title>Node1&#45;&gt;Node2</title>
<path fill="none" stroke="midnightblue" d="M113.7,-689.73C93.89,-679.73 67.29,-666.31 50.15,-657.65"/>
<polygon fill="midnightblue" stroke="midnightblue" points="112.3,-692.94 122.81,-694.32 115.46,-686.69 112.3,-692.94"/>
</g>
<!-- Node3 -->
<g id="node3" class="node">
<title>Node3</title>
<g id="a_node3"><a xlink:href="Parser_8h.html" target="_top" xlink:title=" ">
<polygon fill="white" stroke="black" points="84.5,-638.5 84.5,-657.5 139.5,-657.5 139.5,-638.5 84.5,-638.5"/>
<text text-anchor="middle" x="112" y="-645.5" font-family="Helvetica,sans-Serif" font-size="10.00">Parser.h</text>
</a>
</g>
</g>
<!-- Node1&#45;&gt;Node3 -->
<g id="edge2" class="edge">
<title>Node1&#45;&gt;Node3</title>
<path fill="none" stroke="midnightblue" d="M130.66,-684.98C125.91,-675.82 120.34,-665.09 116.54,-657.75"/>
<polygon fill="midnightblue" stroke="midnightblue" points="127.67,-686.82 135.38,-694.08 133.88,-683.59 127.67,-686.82"/>
</g>
<!-- Node5 -->
<g id="node5" class="node">
<title>Node5</title>
<g id="a_node5"><a xlink:href="Problem_8h.html" target="_top" xlink:title=" ">
<polygon fill="white" stroke="black" points="423,-638.5 423,-657.5 489,-657.5 489,-638.5 423,-638.5"/>
<text text-anchor="middle" x="456" y="-645.5" font-family="Helvetica,sans-Serif" font-size="10.00">Problem.h</text>
</a>
</g>
</g>
<!-- Node1&#45;&gt;Node5 -->
<g id="edge4" class="edge">
<title>Node1&#45;&gt;Node5</title>
<path fill="none" stroke="midnightblue" d="M177.96,-696.51C240.37,-685.85 363.63,-664.79 422.79,-654.68"/>
<polygon fill="midnightblue" stroke="midnightblue" points="177.03,-693.12 167.77,-698.26 178.21,-700.02 177.03,-693.12"/>
</g>
<!-- Node10 -->
<g id="node10" class="node">
<title>Node10</title>
<g id="a_node10"><a xlink:href="HeuristicOptimal_8h.html" target="_top" xlink:title=" ">
<polygon fill="white" stroke="black" points="857,-336.5 857,-355.5 965,-355.5 965,-336.5 857,-336.5"/>
<text text-anchor="middle" x="911" y="-343.5" font-family="Helvetica,sans-Serif" font-size="10.00">HeuristicOptimal.h</text>
</a>
</g>
</g>
<!-- Node1&#45;&gt;Node10 -->
<g id="edge48" class="edge">
<title>Node1&#45;&gt;Node10</title>
<path fill="none" stroke="midnightblue" d="M147.57,-684.88C155.87,-663.37 168,-626.21 168,-593 168,-593 168,-593 168,-462.5 168,-392.74 685.99,-358.95 856.97,-349.7"/>
<polygon fill="midnightblue" stroke="midnightblue" points="144.25,-683.77 143.78,-694.35 150.75,-686.37 144.25,-683.77"/>
</g>
<!-- Node4 -->
<g id="node4" class="node">
<title>Node4</title>
<g id="a_node4"><a xlink:href="Parser_8cpp.html" target="_top" xlink:title=" ">
<polygon fill="white" stroke="black" points="74,-582.5 74,-601.5 140,-601.5 140,-582.5 74,-582.5"/>
<text text-anchor="middle" x="107" y="-589.5" font-family="Helvetica,sans-Serif" font-size="10.00">Parser.cpp</text>
</a>
</g>
</g>
<!-- Node3&#45;&gt;Node4 -->
<g id="edge3" class="edge">
<title>Node3&#45;&gt;Node4</title>
<path fill="none" stroke="midnightblue" d="M110.25,-628.1C109.42,-619.14 108.47,-608.86 107.81,-601.75"/>
<polygon fill="midnightblue" stroke="midnightblue" points="106.77,-628.45 111.17,-638.08 113.74,-627.8 106.77,-628.45"/>
</g>
<!-- Node6 -->
<g id="node6" class="node">
<title>Node6</title>
<g id="a_node6"><a xlink:href="MultiAgentProblem_8h.html" target="_top" xlink:title=" ">
<polygon fill="white" stroke="black" points="623.5,-582.5 623.5,-601.5 742.5,-601.5 742.5,-582.5 623.5,-582.5"/>
<text text-anchor="middle" x="683" y="-589.5" font-family="Helvetica,sans-Serif" font-size="10.00">MultiAgentProblem.h</text>
</a>
</g>
</g>
<!-- Node5&#45;&gt;Node6 -->
<g id="edge5" class="edge">
<title>Node5&#45;&gt;Node6</title>
<path fill="none" stroke="midnightblue" d="M498.85,-636.81C541.65,-626.62 606.72,-611.15 646.95,-601.58"/>
<polygon fill="midnightblue" stroke="midnightblue" points="497.93,-633.43 489.01,-639.15 499.55,-640.24 497.93,-633.43"/>
</g>
<!-- Node12 -->
<g id="node12" class="node">
<title>Node12</title>
<g id="a_node12"><a xlink:href="GeneralAStar_8h.html" target="_top" xlink:title=" ">
<polygon fill="white" stroke="black" points="1056.5,-224.5 1056.5,-243.5 1145.5,-243.5 1145.5,-224.5 1056.5,-224.5"/>
<text text-anchor="middle" x="1101" y="-231.5" font-family="Helvetica,sans-Serif" font-size="10.00">GeneralAStar.h</text>
</a>
</g>
</g>
<!-- Node5&#45;&gt;Node12 -->
<g id="edge47" class="edge">
<title>Node5&#45;&gt;Node12</title>
<path fill="none" stroke="midnightblue" d="M412.73,-645.92C341.17,-641.59 206,-621.5 206,-531.5 206,-531.5 206,-531.5 206,-462.5 206,-285.04 875.27,-244.38 1056.31,-236.62"/>
<polygon fill="midnightblue" stroke="midnightblue" points="412.63,-649.42 422.8,-646.46 413,-642.43 412.63,-649.42"/>
</g>
<!-- Node29 -->
<g id="node29" class="node">
<title>Node29</title>
<g id="a_node29"><a xlink:href="SingleAgentProblem_8h.html" target="_top" xlink:title=" ">
<polygon fill="white" stroke="black" points="1556.5,-582.5 1556.5,-601.5 1681.5,-601.5 1681.5,-582.5 1556.5,-582.5"/>
<text text-anchor="middle" x="1619" y="-589.5" font-family="Helvetica,sans-Serif" font-size="10.00">SingleAgentProblem.h</text>
</a>
</g>
</g>
<!-- Node5&#45;&gt;Node29 -->
<g id="edge36" class="edge">
<title>Node5&#45;&gt;Node29</title>
<path fill="none" stroke="midnightblue" d="M499.23,-644.99C676.34,-636.77 1346.99,-605.63 1556.24,-595.91"/>
<polygon fill="midnightblue" stroke="midnightblue" points="499.07,-641.5 489.24,-645.46 499.39,-648.49 499.07,-641.5"/>
</g>
<!-- Node7 -->
<g id="node7" class="node">
<title>Node7</title>
<g id="a_node7"><a xlink:href="ODMultiAgentAStarProblem_8h.html" target="_top" xlink:title=" ">
<polygon fill="white" stroke="black" points="427.5,-521 427.5,-540 588.5,-540 588.5,-521 427.5,-521"/>
<text text-anchor="middle" x="508" y="-528" font-family="Helvetica,sans-Serif" font-size="10.00">ODMultiAgentAStarProblem.h</text>
</a>
</g>
</g>
<!-- Node6&#45;&gt;Node7 -->
<g id="edge6" class="edge">
<title>Node6&#45;&gt;Node7</title>
<path fill="none" stroke="midnightblue" d="M648.39,-579.23C614.37,-567.67 563.28,-550.3 533.03,-540.01"/>
<polygon fill="midnightblue" stroke="midnightblue" points="647.33,-582.57 657.93,-582.48 649.59,-575.94 647.33,-582.57"/>
</g>
<!-- Node13 -->
<g id="node13" class="node">
<title>Node13</title>
<g id="a_node13"><a xlink:href="ConflictBasedSearch_8h.html" target="_top" xlink:title=" ">
<polygon fill="white" stroke="black" points="1038.5,-168.5 1038.5,-187.5 1163.5,-187.5 1163.5,-168.5 1038.5,-168.5"/>
<text text-anchor="middle" x="1101" y="-175.5" font-family="Helvetica,sans-Serif" font-size="10.00">ConflictBasedSearch.h</text>
</a>
</g>
</g>
<!-- Node6&#45;&gt;Node13 -->
<g id="edge33" class="edge">
<title>Node6&#45;&gt;Node13</title>
<path fill="none" stroke="midnightblue" d="M613.21,-587.57C502.14,-581.5 294.94,-567.44 269,-546 239.8,-521.86 244,-502.39 244,-464.5 244,-464.5 244,-464.5 244,-289 244,-208.89 840.77,-185.88 1038.33,-180.46"/>
<polygon fill="midnightblue" stroke="midnightblue" points="613.15,-591.07 623.33,-588.11 613.53,-584.08 613.15,-591.07"/>
</g>
<!-- Node15 -->
<g id="node15" class="node">
<title>Node15</title>
<g id="a_node15"><a xlink:href="SimpleIndependenceDetection_8h.html" target="_top" xlink:title=" ">
<polygon fill="white" stroke="black" points="1367.5,-112.5 1367.5,-131.5 1542.5,-131.5 1542.5,-112.5 1367.5,-112.5"/>
<text text-anchor="middle" x="1455" y="-119.5" font-family="Helvetica,sans-Serif" font-size="10.00">SimpleIndependenceDetection.h</text>
</a>
</g>
</g>
<!-- Node6&#45;&gt;Node15 -->
<g id="edge34" class="edge">
<title>Node6&#45;&gt;Node15</title>
<path fill="none" stroke="midnightblue" d="M752.66,-590.67C922.28,-589.29 1346.75,-582.23 1399,-546 1539.62,-448.49 1472.06,-182.54 1457.53,-131.52"/>
<polygon fill="midnightblue" stroke="midnightblue" points="752.56,-587.17 742.58,-590.75 752.61,-594.17 752.56,-587.17"/>
</g>
<!-- Node19 -->
<g id="node19" class="node">
<title>Node19</title>
<g id="a_node19"><a xlink:href="CooperativeAStar_8h.html" target="_top" xlink:title=" ">
<polygon fill="white" stroke="black" points="1354,-224.5 1354,-243.5 1464,-243.5 1464,-224.5 1354,-224.5"/>
<text text-anchor="middle" x="1409" y="-231.5" font-family="Helvetica,sans-Serif" font-size="10.00">CooperativeAStar.h</text>
</a>
</g>
</g>
<!-- Node6&#45;&gt;Node19 -->
<g id="edge35" class="edge">
<title>Node6&#45;&gt;Node19</title>
<path fill="none" stroke="midnightblue" d="M753.09,-590.08C917.23,-587.4 1316.58,-577.67 1368,-546 1403.79,-523.95 1416,-506.54 1416,-464.5 1416,-464.5 1416,-464.5 1416,-345 1416,-307.11 1411.81,-262.03 1409.92,-243.55"/>
<polygon fill="midnightblue" stroke="midnightblue" points="752.57,-586.59 742.62,-590.24 752.68,-593.59 752.57,-586.59"/>
</g>
<!-- Node22 -->
<g id="node22" class="node">
<title>Node22</title>
<g id="a_node22"><a xlink:href="ODMultiAgentAStarProblemWithConstraints_8h.html" target="_top" xlink:title=" ">
<polygon fill="white" stroke="black" points="607,-515.5 607,-545.5 759,-545.5 759,-515.5 607,-515.5"/>
<text text-anchor="start" x="615" y="-533.5" font-family="Helvetica,sans-Serif" font-size="10.00">ODMultiAgentAStarProblem</text>
<text text-anchor="middle" x="683" y="-522.5" font-family="Helvetica,sans-Serif" font-size="10.00">WithConstraints.h</text>
</a>
</g>
</g>
<!-- Node6&#45;&gt;Node22 -->
<g id="edge23" class="edge">
<title>Node6&#45;&gt;Node22</title>
<path fill="none" stroke="midnightblue" d="M683,-572.23C683,-563.59 683,-553.5 683,-545.52"/>
<polygon fill="midnightblue" stroke="midnightblue" points="679.5,-572.48 683,-582.48 686.5,-572.48 679.5,-572.48"/>
</g>
<!-- Node24 -->
<g id="node24" class="node">
<title>Node24</title>
<g id="a_node24"><a xlink:href="StandardMultiAgentAStarProblem_8h.html" target="_top" xlink:title=" ">
<polygon fill="white" stroke="black" points="777.5,-521 777.5,-540 966.5,-540 966.5,-521 777.5,-521"/>
<text text-anchor="middle" x="872" y="-528" font-family="Helvetica,sans-Serif" font-size="10.00">StandardMultiAgentAStarProblem.h</text>
</a>
</g>
</g>
<!-- Node6&#45;&gt;Node24 -->
<g id="edge26" class="edge">
<title>Node6&#45;&gt;Node24</title>
<path fill="none" stroke="midnightblue" d="M719.91,-579.38C756.65,-567.82 812.15,-550.34 844.97,-540.01"/>
<polygon fill="midnightblue" stroke="midnightblue" points="718.57,-576.13 710.08,-582.48 720.67,-582.81 718.57,-576.13"/>
</g>
<!-- Node26 -->
<g id="node26" class="node">
<title>Node26</title>
<g id="a_node26"><a xlink:href="StandardMultiAgentAStarProblemWithConstraints_8h.html" target="_top" xlink:title=" ">
<polygon fill="white" stroke="black" points="985,-515.5 985,-545.5 1165,-545.5 1165,-515.5 985,-515.5"/>
<text text-anchor="start" x="993" y="-533.5" font-family="Helvetica,sans-Serif" font-size="10.00">StandardMultiAgentAStarProblem</text>
<text text-anchor="middle" x="1075" y="-522.5" font-family="Helvetica,sans-Serif" font-size="10.00">WithConstraints.h</text>
</a>
</g>
</g>
<!-- Node6&#45;&gt;Node26 -->
<g id="edge29" class="edge">
<title>Node6&#45;&gt;Node26</title>
<path fill="none" stroke="midnightblue" d="M749.25,-580.94C813.98,-571.12 913,-556.09 984.87,-545.18"/>
<polygon fill="midnightblue" stroke="midnightblue" points="748.53,-577.51 739.16,-582.48 749.58,-584.43 748.53,-577.51"/>
</g>
<!-- Node28 -->
<g id="node28" class="node">
<title>Node28</title>
<g id="a_node28"><a xlink:href="MultiAgentProblem_8cpp.html" target="_top" xlink:title=" ">
<polygon fill="white" stroke="black" points="278.5,-521 278.5,-540 409.5,-540 409.5,-521 278.5,-521"/>
<text text-anchor="middle" x="344" y="-528" font-family="Helvetica,sans-Serif" font-size="10.00">MultiAgentProblem.cpp</text>
</a>
</g>
</g>
<!-- Node6&#45;&gt;Node28 -->
<g id="edge32" class="edge">
<title>Node6&#45;&gt;Node28</title>
<path fill="none" stroke="midnightblue" d="M620.08,-580.77C566.33,-571.93 487,-558.62 418,-546 407.83,-544.14 396.88,-542.05 386.62,-540.04"/>
<polygon fill="midnightblue" stroke="midnightblue" points="619.7,-584.26 630.14,-582.43 620.84,-577.35 619.7,-584.26"/>
</g>
<!-- Node8 -->
<g id="node8" class="node">
<title>Node8</title>
<g id="a_node8"><a xlink:href="ODMultiAgentAStarProblem_8cpp.html" target="_top" xlink:title=" ">
<polygon fill="white" stroke="black" points="272,-454 272,-473 444,-473 444,-454 272,-454"/>
<text text-anchor="middle" x="358" y="-461" font-family="Helvetica,sans-Serif" font-size="10.00">ODMultiAgentAStarProblem.cpp</text>
</a>
</g>
</g>
<!-- Node7&#45;&gt;Node8 -->
<g id="edge7" class="edge">
<title>Node7&#45;&gt;Node8</title>
<path fill="none" stroke="midnightblue" d="M478.65,-516.78C448.94,-503.91 403.82,-484.35 378,-473.17"/>
<polygon fill="midnightblue" stroke="midnightblue" points="477.51,-520.1 488.08,-520.87 480.3,-513.68 477.51,-520.1"/>
</g>
<!-- Node9 -->
<g id="node9" class="node">
<title>Node9</title>
<g id="a_node9"><a xlink:href="HeuristicManhattan_8h.html" target="_top" xlink:title=" ">
<polygon fill="white" stroke="black" points="850,-454 850,-473 972,-473 972,-454 850,-454"/>
<text text-anchor="middle" x="911" y="-461" font-family="Helvetica,sans-Serif" font-size="10.00">HeuristicManhattan.h</text>
</a>
</g>
</g>
<!-- Node7&#45;&gt;Node9 -->
<g id="edge8" class="edge">
<title>Node7&#45;&gt;Node9</title>
<path fill="none" stroke="midnightblue" d="M570.3,-519.36C579.59,-517.88 589.04,-516.39 598,-515 705.9,-498.32 733.5,-498.08 841,-479 851.02,-477.22 861.8,-475.09 871.83,-473.03"/>
<polygon fill="midnightblue" stroke="midnightblue" points="569.65,-515.92 560.33,-520.95 570.76,-522.83 569.65,-515.92"/>
</g>
<!-- Node9&#45;&gt;Node10 -->
<g id="edge9" class="edge">
<title>Node9&#45;&gt;Node10</title>
<path fill="none" stroke="midnightblue" d="M911,-443.66C911,-418.37 911,-374.44 911,-355.78"/>
<polygon fill="midnightblue" stroke="midnightblue" points="907.5,-443.82 911,-453.82 914.5,-443.82 907.5,-443.82"/>
</g>
<!-- Node20 -->
<g id="node20" class="node">
<title>Node20</title>
<g id="a_node20"><a xlink:href="ReverseResumableAStar_8h.html" target="_top" xlink:title=" ">
<polygon fill="white" stroke="black" points="964,-392.5 964,-411.5 1110,-411.5 1110,-392.5 964,-392.5"/>
<text text-anchor="middle" x="1037" y="-399.5" font-family="Helvetica,sans-Serif" font-size="10.00">ReverseResumableAStar.h</text>
</a>
</g>
</g>
<!-- Node9&#45;&gt;Node20 -->
<g id="edge20" class="edge">
<title>Node9&#45;&gt;Node20</title>
<path fill="none" stroke="midnightblue" d="M938.16,-449.67C962.61,-438.13 997.85,-421.49 1018.98,-411.51"/>
<polygon fill="midnightblue" stroke="midnightblue" points="936.6,-446.54 929.05,-453.98 939.59,-452.87 936.6,-446.54"/>
</g>
<!-- Node11 -->
<g id="node11" class="node">
<title>Node11</title>
<g id="a_node11"><a xlink:href="AStar_8h.html" target="_top" xlink:title=" ">
<polygon fill="white" stroke="black" points="1075.5,-280.5 1075.5,-299.5 1126.5,-299.5 1126.5,-280.5 1075.5,-280.5"/>
<text text-anchor="middle" x="1101" y="-287.5" font-family="Helvetica,sans-Serif" font-size="10.00">AStar.h</text>
</a>
</g>
</g>
<!-- Node10&#45;&gt;Node11 -->
<g id="edge10" class="edge">
<title>Node10&#45;&gt;Node11</title>
<path fill="none" stroke="midnightblue" d="M951.18,-333.58C988.65,-322.93 1043.4,-307.37 1075.3,-298.3"/>
<polygon fill="midnightblue" stroke="midnightblue" points="949.77,-330.34 941.11,-336.44 951.68,-337.08 949.77,-330.34"/>
</g>
<!-- Node11&#45;&gt;Node12 -->
<g id="edge11" class="edge">
<title>Node11&#45;&gt;Node12</title>
<path fill="none" stroke="midnightblue" d="M1101,-269.8C1101,-260.91 1101,-250.78 1101,-243.75"/>
<polygon fill="midnightblue" stroke="midnightblue" points="1097.5,-270.08 1101,-280.08 1104.5,-270.08 1097.5,-270.08"/>
</g>
<!-- Node11&#45;&gt;Node19 -->
<g id="edge19" class="edge">
<title>Node11&#45;&gt;Node19</title>
<path fill="none" stroke="midnightblue" d="M1136.75,-282.73C1192,-273.04 1298.24,-254.42 1360.41,-243.52"/>
<polygon fill="midnightblue" stroke="midnightblue" points="1135.98,-279.31 1126.73,-284.49 1137.18,-286.21 1135.98,-279.31"/>
</g>
<!-- Node12&#45;&gt;Node13 -->
<g id="edge12" class="edge">
<title>Node12&#45;&gt;Node13</title>
<path fill="none" stroke="midnightblue" d="M1101,-213.8C1101,-204.91 1101,-194.78 1101,-187.75"/>
<polygon fill="midnightblue" stroke="midnightblue" points="1097.5,-214.08 1101,-224.08 1104.5,-214.08 1097.5,-214.08"/>
</g>
<!-- Node12&#45;&gt;Node15 -->
<g id="edge18" class="edge">
<title>Node12&#45;&gt;Node15</title>
<path fill="none" stroke="midnightblue" d="M1138.4,-221.38C1209.84,-199.18 1364.21,-151.21 1427.29,-131.61"/>
<polygon fill="midnightblue" stroke="midnightblue" points="1136.99,-218.15 1128.48,-224.46 1139.07,-224.83 1136.99,-218.15"/>
</g>
<!-- Node14 -->
<g id="node14" class="node">
<title>Node14</title>
<g id="a_node14"><a xlink:href="ConflictBasedSearch_8cpp.html" target="_top" xlink:title=" ">
<polygon fill="white" stroke="black" points="1032.5,-112.5 1032.5,-131.5 1169.5,-131.5 1169.5,-112.5 1032.5,-112.5"/>
<text text-anchor="middle" x="1101" y="-119.5" font-family="Helvetica,sans-Serif" font-size="10.00">ConflictBasedSearch.cpp</text>
</a>
</g>
</g>
<!-- Node13&#45;&gt;Node14 -->
<g id="edge13" class="edge">
<title>Node13&#45;&gt;Node14</title>
<path fill="none" stroke="midnightblue" d="M1101,-157.8C1101,-148.91 1101,-138.78 1101,-131.75"/>
<polygon fill="midnightblue" stroke="midnightblue" points="1097.5,-158.08 1101,-168.08 1104.5,-158.08 1097.5,-158.08"/>
</g>
<!-- Node13&#45;&gt;Node15 -->
<g id="edge14" class="edge">
<title>Node13&#45;&gt;Node15</title>
<path fill="none" stroke="midnightblue" d="M1167.1,-166.92C1233.98,-156.71 1336.23,-141.12 1399.17,-131.52"/>
<polygon fill="midnightblue" stroke="midnightblue" points="1166.45,-163.48 1157.09,-168.44 1167.51,-170.4 1166.45,-163.48"/>
</g>
<!-- Node16 -->
<g id="node16" class="node">
<title>Node16</title>
<g id="a_node16"><a xlink:href="IndependenceDetection_8h.html" target="_top" xlink:title=" ">
<polygon fill="white" stroke="black" points="1293.5,-56.5 1293.5,-75.5 1434.5,-75.5 1434.5,-56.5 1293.5,-56.5"/>
<text text-anchor="middle" x="1364" y="-63.5" font-family="Helvetica,sans-Serif" font-size="10.00">IndependenceDetection.h</text>
</a>
</g>
</g>
<!-- Node15&#45;&gt;Node16 -->
<g id="edge15" class="edge">
<title>Node15&#45;&gt;Node16</title>
<path fill="none" stroke="midnightblue" d="M1431.71,-107.18C1414.96,-97.24 1392.9,-84.15 1378.58,-75.65"/>
<polygon fill="midnightblue" stroke="midnightblue" points="1429.99,-110.23 1440.38,-112.32 1433.57,-104.21 1429.99,-110.23"/>
</g>
<!-- Node18 -->
<g id="node18" class="node">
<title>Node18</title>
<g id="a_node18"><a xlink:href="SimpleIndependenceDetection_8cpp.html" target="_top" xlink:title=" ">
<polygon fill="white" stroke="black" points="1453,-56.5 1453,-75.5 1639,-75.5 1639,-56.5 1453,-56.5"/>
<text text-anchor="middle" x="1546" y="-63.5" font-family="Helvetica,sans-Serif" font-size="10.00">SimpleIndependenceDetection.cpp</text>
</a>
</g>
</g>
<!-- Node15&#45;&gt;Node18 -->
<g id="edge17" class="edge">
<title>Node15&#45;&gt;Node18</title>
<path fill="none" stroke="midnightblue" d="M1478.29,-107.18C1495.04,-97.24 1517.1,-84.15 1531.42,-75.65"/>
<polygon fill="midnightblue" stroke="midnightblue" points="1476.43,-104.21 1469.62,-112.32 1480.01,-110.23 1476.43,-104.21"/>
</g>
<!-- Node17 -->
<g id="node17" class="node">
<title>Node17</title>
<g id="a_node17"><a xlink:href="IndependenceDetection_8cpp.html" target="_top" xlink:title=" ">
<polygon fill="white" stroke="black" points="1288,-0.5 1288,-19.5 1440,-19.5 1440,-0.5 1288,-0.5"/>
<text text-anchor="middle" x="1364" y="-7.5" font-family="Helvetica,sans-Serif" font-size="10.00">IndependenceDetection.cpp</text>
</a>
</g>
</g>
<!-- Node16&#45;&gt;Node17 -->
<g id="edge16" class="edge">
<title>Node16&#45;&gt;Node17</title>
<path fill="none" stroke="midnightblue" d="M1364,-45.8C1364,-36.91 1364,-26.78 1364,-19.75"/>
<polygon fill="midnightblue" stroke="midnightblue" points="1360.5,-46.08 1364,-56.08 1367.5,-46.08 1360.5,-46.08"/>
</g>
<!-- Node20&#45;&gt;Node10 -->
<g id="edge21" class="edge">
<title>Node20&#45;&gt;Node10</title>
<path fill="none" stroke="midnightblue" d="M1007.84,-388.5C984.22,-378.38 951.57,-364.39 930.87,-355.52"/>
<polygon fill="midnightblue" stroke="midnightblue" points="1006.46,-391.72 1017.03,-392.44 1009.22,-385.29 1006.46,-391.72"/>
</g>
<!-- Node21 -->
<g id="node21" class="node">
<title>Node21</title>
<g id="a_node21"><a xlink:href="ReverseResumableAStar_8cpp.html" target="_top" xlink:title=" ">
<polygon fill="white" stroke="black" points="983.5,-336.5 983.5,-355.5 1140.5,-355.5 1140.5,-336.5 983.5,-336.5"/>
<text text-anchor="middle" x="1062" y="-343.5" font-family="Helvetica,sans-Serif" font-size="10.00">ReverseResumableAStar.cpp</text>
</a>
</g>
</g>
<!-- Node20&#45;&gt;Node21 -->
<g id="edge22" class="edge">
<title>Node20&#45;&gt;Node21</title>
<path fill="none" stroke="midnightblue" d="M1045.34,-382.98C1049.58,-373.82 1054.55,-363.09 1057.95,-355.75"/>
<polygon fill="midnightblue" stroke="midnightblue" points="1042.15,-381.54 1041.13,-392.08 1048.51,-384.48 1042.15,-381.54"/>
</g>
<!-- Node22&#45;&gt;Node9 -->
<g id="edge25" class="edge">
<title>Node22&#45;&gt;Node9</title>
<path fill="none" stroke="midnightblue" d="M742.03,-512.67C786.59,-499.97 845.88,-483.06 881.08,-473.03"/>
<polygon fill="midnightblue" stroke="midnightblue" points="740.85,-509.37 732.19,-515.48 742.77,-516.1 740.85,-509.37"/>
</g>
<!-- Node23 -->
<g id="node23" class="node">
<title>Node23</title>
<g id="a_node23"><a xlink:href="ODMultiAgentAStarProblemWithConstraints_8cpp.html" target="_top" xlink:title=" ">
<polygon fill="white" stroke="black" points="462,-448.5 462,-478.5 614,-478.5 614,-448.5 462,-448.5"/>
<text text-anchor="start" x="470" y="-466.5" font-family="Helvetica,sans-Serif" font-size="10.00">ODMultiAgentAStarProblem</text>
<text text-anchor="middle" x="538" y="-455.5" font-family="Helvetica,sans-Serif" font-size="10.00">WithConstraints.cpp</text>
</a>
</g>
</g>
<!-- Node22&#45;&gt;Node23 -->
<g id="edge24" class="edge">
<title>Node22&#45;&gt;Node23</title>
<path fill="none" stroke="midnightblue" d="M642.33,-511.27C619.24,-500.92 590.76,-488.15 569.4,-478.58"/>
<polygon fill="midnightblue" stroke="midnightblue" points="640.98,-514.5 651.54,-515.4 643.84,-508.11 640.98,-514.5"/>
</g>
<!-- Node24&#45;&gt;Node9 -->
<g id="edge28" class="edge">
<title>Node24&#45;&gt;Node9</title>
<path fill="none" stroke="midnightblue" d="M882.48,-512.03C890.03,-499.45 899.9,-483.01 905.82,-473.13"/>
<polygon fill="midnightblue" stroke="midnightblue" points="879.4,-510.36 877.26,-520.73 885.41,-513.96 879.4,-510.36"/>
</g>
<!-- Node25 -->
<g id="node25" class="node">
<title>Node25</title>
<g id="a_node25"><a xlink:href="StandardMultiAgentAStarProblem_8cpp.html" target="_top" xlink:title=" ">
<polygon fill="white" stroke="black" points="632,-454 632,-473 832,-473 832,-454 632,-454"/>
<text text-anchor="middle" x="732" y="-461" font-family="Helvetica,sans-Serif" font-size="10.00">StandardMultiAgentAStarProblem.cpp</text>
</a>
</g>
</g>
<!-- Node24&#45;&gt;Node25 -->
<g id="edge27" class="edge">
<title>Node24&#45;&gt;Node25</title>
<path fill="none" stroke="midnightblue" d="M844.24,-516.61C816.51,-503.74 774.66,-484.31 750.67,-473.17"/>
<polygon fill="midnightblue" stroke="midnightblue" points="842.87,-519.83 853.41,-520.87 845.81,-513.48 842.87,-519.83"/>
</g>
<!-- Node26&#45;&gt;Node9 -->
<g id="edge31" class="edge">
<title>Node26&#45;&gt;Node9</title>
<path fill="none" stroke="midnightblue" d="M1029.89,-511.62C998.15,-499.04 957.09,-482.77 932.46,-473.01"/>
<polygon fill="midnightblue" stroke="midnightblue" points="1028.83,-514.97 1039.41,-515.4 1031.41,-508.46 1028.83,-514.97"/>
</g>
<!-- Node27 -->
<g id="node27" class="node">
<title>Node27</title>
<g id="a_node27"><a xlink:href="StandardMultiAgentAStarProblemWithConstraints_8cpp.html" target="_top" xlink:title=" ">
<polygon fill="white" stroke="black" points="990,-448.5 990,-478.5 1170,-478.5 1170,-448.5 990,-448.5"/>
<text text-anchor="start" x="998" y="-466.5" font-family="Helvetica,sans-Serif" font-size="10.00">StandardMultiAgentAStarProblem</text>
<text text-anchor="middle" x="1080" y="-455.5" font-family="Helvetica,sans-Serif" font-size="10.00">WithConstraints.cpp</text>
</a>
</g>
</g>
<!-- Node26&#45;&gt;Node27 -->
<g id="edge30" class="edge">
<title>Node26&#45;&gt;Node27</title>
<path fill="none" stroke="midnightblue" d="M1076.85,-505.4C1077.55,-496.37 1078.31,-486.41 1078.92,-478.58"/>
<polygon fill="midnightblue" stroke="midnightblue" points="1073.36,-505.16 1076.08,-515.4 1080.34,-505.69 1073.36,-505.16"/>
</g>
<!-- Node29&#45;&gt;Node15 -->
<g id="edge45" class="edge">
<title>Node29&#45;&gt;Node15</title>
<path fill="none" stroke="midnightblue" d="M1691.89,-585.15C1750,-578.97 1825.14,-567.13 1847,-546 1873.75,-520.15 1866,-501.69 1866,-464.5 1866,-464.5 1866,-464.5 1866,-233 1866,-166.61 1663.37,-139.22 1542.67,-128.79"/>
<polygon fill="midnightblue" stroke="midnightblue" points="1691.22,-581.7 1681.63,-586.2 1691.93,-588.66 1691.22,-581.7"/>
</g>
<!-- Node29&#45;&gt;Node19 -->
<g id="edge46" class="edge">
<title>Node29&#45;&gt;Node19</title>
<path fill="none" stroke="midnightblue" d="M1636.4,-574.82C1643.63,-566.92 1651.21,-556.79 1655,-546 1669.42,-504.9 1673.1,-487.62 1655,-448 1606.28,-341.38 1474.92,-267.66 1426.9,-243.56"/>
<polygon fill="midnightblue" stroke="midnightblue" points="1633.67,-572.6 1629.16,-582.19 1638.67,-577.51 1633.67,-572.6"/>
</g>
<!-- Node30 -->
<g id="node30" class="node">
<title>Node30</title>
<g id="a_node30"><a xlink:href="SingleAgentAStarProblem_8h.html" target="_top" xlink:title=" ">
<polygon fill="white" stroke="black" points="1207.5,-521 1207.5,-540 1358.5,-540 1358.5,-521 1207.5,-521"/>
<text text-anchor="middle" x="1283" y="-528" font-family="Helvetica,sans-Serif" font-size="10.00">SingleAgentAStarProblem.h</text>
</a>
</g>
</g>
<!-- Node29&#45;&gt;Node30 -->
<g id="edge37" class="edge">
<title>Node29&#45;&gt;Node30</title>
<path fill="none" stroke="midnightblue" d="M1560.77,-580.69C1495.72,-569.17 1391.64,-550.74 1331.05,-540.01"/>
<polygon fill="midnightblue" stroke="midnightblue" points="1560.4,-584.18 1570.86,-582.48 1561.62,-577.28 1560.4,-584.18"/>
</g>
<!-- Node32 -->
<g id="node32" class="node">
<title>Node32</title>
<g id="a_node32"><a xlink:href="SingleAgentAStarProblemWithConstraints_8h.html" target="_top" xlink:title=" ">
<polygon fill="white" stroke="black" points="1482,-515.5 1482,-545.5 1646,-545.5 1646,-515.5 1482,-515.5"/>
<text text-anchor="start" x="1490" y="-533.5" font-family="Helvetica,sans-Serif" font-size="10.00">SingleAgentAStarProblemWith</text>
<text text-anchor="middle" x="1564" y="-522.5" font-family="Helvetica,sans-Serif" font-size="10.00">Constraints.h</text>
</a>
</g>
</g>
<!-- Node29&#45;&gt;Node32 -->
<g id="edge41" class="edge">
<title>Node29&#45;&gt;Node32</title>
<path fill="none" stroke="midnightblue" d="M1604.29,-575.09C1595.78,-565.88 1585.16,-554.39 1576.96,-545.52"/>
<polygon fill="midnightblue" stroke="midnightblue" points="1601.76,-577.51 1611.12,-582.48 1606.9,-572.76 1601.76,-577.51"/>
</g>
<!-- Node34 -->
<g id="node34" class="node">
<title>Node34</title>
<g id="a_node34"><a xlink:href="SingleAgentProblem_8cpp.html" target="_top" xlink:title=" ">
<polygon fill="white" stroke="black" points="1702,-521 1702,-540 1838,-540 1838,-521 1702,-521"/>
<text text-anchor="middle" x="1770" y="-528" font-family="Helvetica,sans-Serif" font-size="10.00">SingleAgentProblem.cpp</text>
</a>
</g>
</g>
<!-- Node29&#45;&gt;Node34 -->
<g id="edge44" class="edge">
<title>Node29&#45;&gt;Node34</title>
<path fill="none" stroke="midnightblue" d="M1650.01,-578.78C1679.35,-567.22 1722.63,-550.16 1748.41,-540.01"/>
<polygon fill="midnightblue" stroke="midnightblue" points="1648.66,-575.55 1640.63,-582.48 1651.22,-582.07 1648.66,-575.55"/>
</g>
<!-- Node30&#45;&gt;Node9 -->
<g id="edge39" class="edge">
<title>Node30&#45;&gt;Node9</title>
<path fill="none" stroke="midnightblue" d="M1218.14,-519.4C1156.9,-509.68 1062.55,-494.26 981,-479 971.24,-477.17 960.75,-475.07 950.93,-473.05"/>
<polygon fill="midnightblue" stroke="midnightblue" points="1217.63,-522.86 1228.06,-520.96 1218.73,-515.94 1217.63,-522.86"/>
</g>
<!-- Node30&#45;&gt;Node20 -->
<g id="edge40" class="edge">
<title>Node30&#45;&gt;Node20</title>
<path fill="none" stroke="midnightblue" d="M1262.91,-514.38C1249.77,-504.43 1232.27,-491.06 1217,-479 1199.9,-465.49 1198.17,-458.37 1179,-448 1146.81,-430.6 1106.82,-418.69 1077.49,-411.51"/>
<polygon fill="midnightblue" stroke="midnightblue" points="1261.14,-517.44 1271.23,-520.67 1265.36,-511.85 1261.14,-517.44"/>
</g>
<!-- Node31 -->
<g id="node31" class="node">
<title>Node31</title>
<g id="a_node31"><a xlink:href="SingleAgentAStarProblem_8cpp.html" target="_top" xlink:title=" ">
<polygon fill="white" stroke="black" points="1226,-454 1226,-473 1388,-473 1388,-454 1226,-454"/>
<text text-anchor="middle" x="1307" y="-461" font-family="Helvetica,sans-Serif" font-size="10.00">SingleAgentAStarProblem.cpp</text>
</a>
</g>
</g>
<!-- Node30&#45;&gt;Node31 -->
<g id="edge38" class="edge">
<title>Node30&#45;&gt;Node31</title>
<path fill="none" stroke="midnightblue" d="M1289.72,-511.29C1294.33,-498.81 1300.24,-482.81 1303.81,-473.13"/>
<polygon fill="midnightblue" stroke="midnightblue" points="1286.42,-510.14 1286.24,-520.73 1292.98,-512.57 1286.42,-510.14"/>
</g>
<!-- Node32&#45;&gt;Node9 -->
<g id="edge43" class="edge">
<title>Node32&#45;&gt;Node9</title>
<path fill="none" stroke="midnightblue" d="M1471.69,-522.11C1319.54,-509.83 1028.17,-485.9 981,-479 970.32,-477.44 958.81,-475.26 948.27,-473.07"/>
<polygon fill="midnightblue" stroke="midnightblue" points="1471.7,-525.62 1481.95,-522.93 1472.27,-518.64 1471.7,-525.62"/>
</g>
<!-- Node33 -->
<g id="node33" class="node">
<title>Node33</title>
<g id="a_node33"><a xlink:href="SingleAgentAStarProblemWithConstraints_8cpp.html" target="_top" xlink:title=" ">
<polygon fill="white" stroke="black" points="1482,-448.5 1482,-478.5 1646,-478.5 1646,-448.5 1482,-448.5"/>
<text text-anchor="start" x="1490" y="-466.5" font-family="Helvetica,sans-Serif" font-size="10.00">SingleAgentAStarProblemWith</text>
<text text-anchor="middle" x="1564" y="-455.5" font-family="Helvetica,sans-Serif" font-size="10.00">Constraints.cpp</text>
</a>
</g>
</g>
<!-- Node32&#45;&gt;Node33 -->
<g id="edge42" class="edge">
<title>Node32&#45;&gt;Node33</title>
<path fill="none" stroke="midnightblue" d="M1564,-505.11C1564,-496.15 1564,-486.32 1564,-478.58"/>
<polygon fill="midnightblue" stroke="midnightblue" points="1560.5,-505.4 1564,-515.4 1567.5,-505.4 1560.5,-505.4"/>
</g>
</g>
</svg>
