<?xml version="1.0" encoding="UTF-8" standalone="no"?>
<!DOCTYPE svg PUBLIC "-//W3C//DTD SVG 1.1//EN"
 "http://www.w3.org/Graphics/SVG/1.1/DTD/svg11.dtd">
<!-- Generated by graphviz version 2.43.0 (0)
 -->
<!-- Title: GraphParser/Graph.h Pages: 1 -->
<svg width="2110pt" height="788pt"
 viewBox="0.00 0.00 2110.17 788.00" xmlns="http://www.w3.org/2000/svg" xmlns:xlink="http://www.w3.org/1999/xlink">
<g id="graph0" class="graph" transform="scale(1 1) rotate(0) translate(4 784)">
<title>GraphParser/Graph.h</title>
<polygon fill="white" stroke="transparent" points="-4,4 -4,-784 2106.17,-784 2106.17,4 -4,4"/>
<!-- Node1 -->
<g id="node1" class="node">
<title>Node1</title>
<g id="a_node1"><a xlink:title=" ">
<polygon fill="#bfbfbf" stroke="black" points="189.5,-760.5 189.5,-779.5 306.5,-779.5 306.5,-760.5 189.5,-760.5"/>
<text text-anchor="middle" x="248" y="-767.5" font-family="Helvetica,sans-Serif" font-size="10.00">GraphParser/Graph.h</text>
</a>
</g>
</g>
<!-- Node2 -->
<g id="node2" class="node">
<title>Node2</title>
<g id="a_node2"><a xlink:href="Graph_8cpp.html" target="_top" xlink:title=" ">
<polygon fill="white" stroke="black" points="0,-704.5 0,-723.5 128,-723.5 128,-704.5 0,-704.5"/>
<text text-anchor="middle" x="64" y="-711.5" font-family="Helvetica,sans-Serif" font-size="10.00">GraphParser/Graph.cpp</text>
</a>
</g>
</g>
<!-- Node1&#45;&gt;Node2 -->
<g id="edge1" class="edge">
<title>Node1&#45;&gt;Node2</title>
<path fill="none" stroke="midnightblue" d="M209.05,-757.57C174.34,-747.38 124.32,-732.7 93.02,-723.52"/>
<polygon fill="midnightblue" stroke="midnightblue" points="208.26,-760.99 218.84,-760.44 210.23,-754.27 208.26,-760.99"/>
</g>
<!-- Node3 -->
<g id="node3" class="node">
<title>Node3</title>
<g id="a_node3"><a xlink:href="Parser_8h.html" target="_top" xlink:title=" ">
<polygon fill="white" stroke="black" points="146.5,-704.5 146.5,-723.5 263.5,-723.5 263.5,-704.5 146.5,-704.5"/>
<text text-anchor="middle" x="205" y="-711.5" font-family="Helvetica,sans-Serif" font-size="10.00">GraphParser/Parser.h</text>
</a>
</g>
</g>
<!-- Node1&#45;&gt;Node3 -->
<g id="edge2" class="edge">
<title>Node1&#45;&gt;Node3</title>
<path fill="none" stroke="midnightblue" d="M234.58,-752.14C227.09,-742.74 218.06,-731.4 211.97,-723.75"/>
<polygon fill="midnightblue" stroke="midnightblue" points="231.93,-754.44 240.9,-760.08 237.41,-750.08 231.93,-754.44"/>
</g>
<!-- Node5 -->
<g id="node5" class="node">
<title>Node5</title>
<g id="a_node5"><a xlink:href="HeuristicOptimal_8h.html" target="_top" xlink:title=" ">
<polygon fill="white" stroke="black" points="434,-386 434,-405 594,-405 594,-386 434,-386"/>
<text text-anchor="middle" x="514" y="-393" font-family="Helvetica,sans-Serif" font-size="10.00">Heuristics/HeuristicOptimal.h</text>
</a>
</g>
</g>
<!-- Node1&#45;&gt;Node5 -->
<g id="edge4" class="edge">
<title>Node1&#45;&gt;Node5</title>
<path fill="none" stroke="midnightblue" d="M259.57,-751.93C272.6,-730.99 292,-693.96 292,-659 292,-659 292,-659 292,-595.5 292,-490.43 431.59,-426.86 489.39,-405.05"/>
<polygon fill="midnightblue" stroke="midnightblue" points="256.61,-750.05 254.12,-760.35 262.49,-753.85 256.61,-750.05"/>
</g>
<!-- Node15 -->
<g id="node15" class="node">
<title>Node15</title>
<g id="a_node15"><a xlink:href="Problem_8h.html" target="_top" xlink:title=" ">
<polygon fill="white" stroke="black" points="374.5,-704.5 374.5,-723.5 489.5,-723.5 489.5,-704.5 374.5,-704.5"/>
<text text-anchor="middle" x="432" y="-711.5" font-family="Helvetica,sans-Serif" font-size="10.00">Problems/Problem.h</text>
</a>
</g>
</g>
<!-- Node1&#45;&gt;Node15 -->
<g id="edge15" class="edge">
<title>Node1&#45;&gt;Node15</title>
<path fill="none" stroke="midnightblue" d="M286.95,-757.57C321.66,-747.38 371.68,-732.7 402.98,-723.52"/>
<polygon fill="midnightblue" stroke="midnightblue" points="285.77,-754.27 277.16,-760.44 287.74,-760.99 285.77,-754.27"/>
</g>
<!-- Node4 -->
<g id="node4" class="node">
<title>Node4</title>
<g id="a_node4"><a xlink:href="Parser_8cpp.html" target="_top" xlink:title=" ">
<polygon fill="white" stroke="black" points="136,-648.5 136,-667.5 264,-667.5 264,-648.5 136,-648.5"/>
<text text-anchor="middle" x="200" y="-655.5" font-family="Helvetica,sans-Serif" font-size="10.00">GraphParser/Parser.cpp</text>
</a>
</g>
</g>
<!-- Node3&#45;&gt;Node4 -->
<g id="edge3" class="edge">
<title>Node3&#45;&gt;Node4</title>
<path fill="none" stroke="midnightblue" d="M203.25,-694.1C202.42,-685.14 201.47,-674.86 200.81,-667.75"/>
<polygon fill="midnightblue" stroke="midnightblue" points="199.77,-694.45 204.17,-704.08 206.74,-693.8 199.77,-694.45"/>
</g>
<!-- Node6 -->
<g id="node6" class="node">
<title>Node6</title>
<g id="a_node6"><a xlink:href="AStar_8h.html" target="_top" xlink:title=" ">
<polygon fill="white" stroke="black" points="464.5,-324.5 464.5,-343.5 583.5,-343.5 583.5,-324.5 464.5,-324.5"/>
<text text-anchor="middle" x="524" y="-331.5" font-family="Helvetica,sans-Serif" font-size="10.00">Solvers/AStar/AStar.h</text>
</a>
</g>
</g>
<!-- Node5&#45;&gt;Node6 -->
<g id="edge5" class="edge">
<title>Node5&#45;&gt;Node6</title>
<path fill="none" stroke="midnightblue" d="M517.14,-375.82C518.96,-365 521.16,-351.9 522.57,-343.51"/>
<polygon fill="midnightblue" stroke="midnightblue" points="513.64,-375.53 515.43,-385.98 520.54,-376.69 513.64,-375.53"/>
</g>
<!-- Node7 -->
<g id="node7" class="node">
<title>Node7</title>
<g id="a_node7"><a xlink:href="GeneralAStar_8h.html" target="_top" xlink:title=" ">
<polygon fill="white" stroke="black" points="445,-263 445,-282 603,-282 603,-263 445,-263"/>
<text text-anchor="middle" x="524" y="-270" font-family="Helvetica,sans-Serif" font-size="10.00">Solvers/AStar/GeneralAStar.h</text>
</a>
</g>
</g>
<!-- Node6&#45;&gt;Node7 -->
<g id="edge6" class="edge">
<title>Node6&#45;&gt;Node7</title>
<path fill="none" stroke="midnightblue" d="M524,-314.32C524,-303.5 524,-290.4 524,-282.01"/>
<polygon fill="midnightblue" stroke="midnightblue" points="520.5,-314.48 524,-324.48 527.5,-314.48 520.5,-314.48"/>
</g>
<!-- Node14 -->
<g id="node14" class="node">
<title>Node14</title>
<g id="a_node14"><a xlink:href="CooperativeAStar_8h.html" target="_top" xlink:title=" ">
<polygon fill="white" stroke="black" points="621,-257.5 621,-287.5 763,-287.5 763,-257.5 621,-257.5"/>
<text text-anchor="start" x="629" y="-275.5" font-family="Helvetica,sans-Serif" font-size="10.00">Solvers/SuboptimalSolver</text>
<text text-anchor="middle" x="692" y="-264.5" font-family="Helvetica,sans-Serif" font-size="10.00">/CooperativeAStar.h</text>
</a>
</g>
</g>
<!-- Node6&#45;&gt;Node14 -->
<g id="edge14" class="edge">
<title>Node6&#45;&gt;Node14</title>
<path fill="none" stroke="midnightblue" d="M557.59,-321.1C584.93,-311.42 623.57,-297.74 652.41,-287.52"/>
<polygon fill="midnightblue" stroke="midnightblue" points="556.33,-317.84 548.07,-324.48 558.67,-324.44 556.33,-317.84"/>
</g>
<!-- Node8 -->
<g id="node8" class="node">
<title>Node8</title>
<g id="a_node8"><a xlink:href="ConflictBasedSearch_8h.html" target="_top" xlink:title=" ">
<polygon fill="white" stroke="black" points="1892.5,-190.5 1892.5,-220.5 2037.5,-220.5 2037.5,-190.5 1892.5,-190.5"/>
<text text-anchor="start" x="1900.5" y="-208.5" font-family="Helvetica,sans-Serif" font-size="10.00">Solvers/CBS/ConflictBased</text>
<text text-anchor="middle" x="1965" y="-197.5" font-family="Helvetica,sans-Serif" font-size="10.00">Search.h</text>
</a>
</g>
</g>
<!-- Node7&#45;&gt;Node8 -->
<g id="edge7" class="edge">
<title>Node7&#45;&gt;Node8</title>
<path fill="none" stroke="midnightblue" d="M579.27,-261.3C590.09,-259.61 601.38,-258.07 612,-257 1099.05,-207.98 1689.03,-205.3 1892.18,-206"/>
<polygon fill="midnightblue" stroke="midnightblue" points="578.39,-257.9 569.07,-262.95 579.51,-264.81 578.39,-257.9"/>
</g>
<!-- Node10 -->
<g id="node10" class="node">
<title>Node10</title>
<g id="a_node10"><a xlink:href="SimpleIndependenceDetection_8h.html" target="_top" xlink:title=" ">
<polygon fill="white" stroke="black" points="1066.5,-123.5 1066.5,-153.5 1237.5,-153.5 1237.5,-123.5 1066.5,-123.5"/>
<text text-anchor="start" x="1074.5" y="-141.5" font-family="Helvetica,sans-Serif" font-size="10.00">Solvers/ID/SimpleIndependence</text>
<text text-anchor="middle" x="1152" y="-130.5" font-family="Helvetica,sans-Serif" font-size="10.00">Detection.h</text>
</a>
</g>
</g>
<!-- Node7&#45;&gt;Node10 -->
<g id="edge13" class="edge">
<title>Node7&#45;&gt;Node10</title>
<path fill="none" stroke="midnightblue" d="M574.81,-260.82C687.6,-237.11 958.83,-180.1 1085.16,-153.55"/>
<polygon fill="midnightblue" stroke="midnightblue" points="573.79,-257.46 564.72,-262.94 575.23,-264.31 573.79,-257.46"/>
</g>
<!-- Node9 -->
<g id="node9" class="node">
<title>Node9</title>
<g id="a_node9"><a xlink:href="ConflictBasedSearch_8cpp.html" target="_top" xlink:title=" ">
<polygon fill="white" stroke="black" points="1892.5,-123.5 1892.5,-153.5 2037.5,-153.5 2037.5,-123.5 1892.5,-123.5"/>
<text text-anchor="start" x="1900.5" y="-141.5" font-family="Helvetica,sans-Serif" font-size="10.00">Solvers/CBS/ConflictBased</text>
<text text-anchor="middle" x="1965" y="-130.5" font-family="Helvetica,sans-Serif" font-size="10.00">Search.cpp</text>
</a>
</g>
</g>
<!-- Node8&#45;&gt;Node9 -->
<g id="edge8" class="edge">
<title>Node8&#45;&gt;Node9</title>
<path fill="none" stroke="midnightblue" d="M1965,-180.11C1965,-171.15 1965,-161.32 1965,-153.58"/>
<polygon fill="midnightblue" stroke="midnightblue" points="1961.5,-180.4 1965,-190.4 1968.5,-180.4 1961.5,-180.4"/>
</g>
<!-- Node8&#45;&gt;Node10 -->
<g id="edge9" class="edge">
<title>Node8&#45;&gt;Node10</title>
<path fill="none" stroke="midnightblue" d="M1882.46,-190.54C1880.96,-190.35 1879.47,-190.17 1878,-190 1647.43,-162.83 1373.82,-148.65 1237.75,-142.8"/>
<polygon fill="midnightblue" stroke="midnightblue" points="1882.07,-194.02 1892.44,-191.87 1882.99,-187.08 1882.07,-194.02"/>
</g>
<!-- Node11 -->
<g id="node11" class="node">
<title>Node11</title>
<g id="a_node11"><a xlink:href="IndependenceDetection_8h.html" target="_top" xlink:title=" ">
<polygon fill="white" stroke="black" points="955,-62 955,-81 1149,-81 1149,-62 955,-62"/>
<text text-anchor="middle" x="1052" y="-69" font-family="Helvetica,sans-Serif" font-size="10.00">Solvers/ID/IndependenceDetection.h</text>
</a>
</g>
</g>
<!-- Node10&#45;&gt;Node11 -->
<g id="edge10" class="edge">
<title>Node10&#45;&gt;Node11</title>
<path fill="none" stroke="midnightblue" d="M1121.7,-117.81C1102.79,-105.51 1079.39,-90.3 1065.09,-81.01"/>
<polygon fill="midnightblue" stroke="midnightblue" points="1120.01,-120.88 1130.3,-123.4 1123.82,-115.01 1120.01,-120.88"/>
</g>
<!-- Node13 -->
<g id="node13" class="node">
<title>Node13</title>
<g id="a_node13"><a xlink:href="SimpleIndependenceDetection_8cpp.html" target="_top" xlink:title=" ">
<polygon fill="white" stroke="black" points="1167.5,-56.5 1167.5,-86.5 1338.5,-86.5 1338.5,-56.5 1167.5,-56.5"/>
<text text-anchor="start" x="1175.5" y="-74.5" font-family="Helvetica,sans-Serif" font-size="10.00">Solvers/ID/SimpleIndependence</text>
<text text-anchor="middle" x="1253" y="-63.5" font-family="Helvetica,sans-Serif" font-size="10.00">Detection.cpp</text>
</a>
</g>
</g>
<!-- Node10&#45;&gt;Node13 -->
<g id="edge12" class="edge">
<title>Node10&#45;&gt;Node13</title>
<path fill="none" stroke="midnightblue" d="M1182.71,-117.73C1198.34,-107.68 1216.97,-95.68 1231.13,-86.58"/>
<polygon fill="midnightblue" stroke="midnightblue" points="1180.43,-115.04 1173.92,-123.4 1184.22,-120.93 1180.43,-115.04"/>
</g>
<!-- Node12 -->
<g id="node12" class="node">
<title>Node12</title>
<g id="a_node12"><a xlink:href="IndependenceDetection_8cpp.html" target="_top" xlink:title=" ">
<polygon fill="white" stroke="black" points="949.5,-0.5 949.5,-19.5 1154.5,-19.5 1154.5,-0.5 949.5,-0.5"/>
<text text-anchor="middle" x="1052" y="-7.5" font-family="Helvetica,sans-Serif" font-size="10.00">Solvers/ID/IndependenceDetection.cpp</text>
</a>
</g>
</g>
<!-- Node11&#45;&gt;Node12 -->
<g id="edge11" class="edge">
<title>Node11&#45;&gt;Node12</title>
<path fill="none" stroke="midnightblue" d="M1052,-51.82C1052,-41 1052,-27.9 1052,-19.51"/>
<polygon fill="midnightblue" stroke="midnightblue" points="1048.5,-51.98 1052,-61.98 1055.5,-51.98 1048.5,-51.98"/>
</g>
<!-- Node15&#45;&gt;Node7 -->
<g id="edge48" class="edge">
<title>Node15&#45;&gt;Node7</title>
<path fill="none" stroke="midnightblue" d="M406.84,-699.07C376.63,-680.3 330,-643.81 330,-597.5 330,-597.5 330,-597.5 330,-528.5 330,-409.18 466.2,-310.79 510.36,-282.02"/>
<polygon fill="midnightblue" stroke="midnightblue" points="405.23,-702.19 415.61,-704.33 408.83,-696.19 405.23,-702.19"/>
</g>
<!-- Node16 -->
<g id="node16" class="node">
<title>Node16</title>
<g id="a_node16"><a xlink:href="MultiAgentProblem_8h.html" target="_top" xlink:title=" ">
<polygon fill="white" stroke="black" points="1631,-648.5 1631,-667.5 1799,-667.5 1799,-648.5 1631,-648.5"/>
<text text-anchor="middle" x="1715" y="-655.5" font-family="Helvetica,sans-Serif" font-size="10.00">Problems/MultiAgentProblem.h</text>
</a>
</g>
</g>
<!-- Node15&#45;&gt;Node16 -->
<g id="edge16" class="edge">
<title>Node15&#45;&gt;Node16</title>
<path fill="none" stroke="midnightblue" d="M499.9,-710.14C716.78,-701.01 1392.52,-672.57 1630.79,-662.54"/>
<polygon fill="midnightblue" stroke="midnightblue" points="499.46,-706.66 489.62,-710.57 499.76,-713.65 499.46,-706.66"/>
</g>
<!-- Node29 -->
<g id="node29" class="node">
<title>Node29</title>
<g id="a_node29"><a xlink:href="SingleAgentProblem_8h.html" target="_top" xlink:title=" ">
<polygon fill="white" stroke="black" points="399.5,-648.5 399.5,-667.5 572.5,-667.5 572.5,-648.5 399.5,-648.5"/>
<text text-anchor="middle" x="486" y="-655.5" font-family="Helvetica,sans-Serif" font-size="10.00">Problems/SingleAgentProblem.h</text>
</a>
</g>
</g>
<!-- Node15&#45;&gt;Node29 -->
<g id="edge37" class="edge">
<title>Node15&#45;&gt;Node29</title>
<path fill="none" stroke="midnightblue" d="M448,-697C457.57,-687.43 469.36,-675.64 477.25,-667.75"/>
<polygon fill="midnightblue" stroke="midnightblue" points="445.51,-694.54 440.92,-704.08 450.46,-699.49 445.51,-694.54"/>
</g>
<!-- Node16&#45;&gt;Node8 -->
<g id="edge34" class="edge">
<title>Node16&#45;&gt;Node8</title>
<path fill="none" stroke="midnightblue" d="M1809.34,-657.31C1904.32,-655.59 2042.18,-646.89 2081,-612 2108.66,-587.14 2100,-567.69 2100,-530.5 2100,-530.5 2100,-530.5 2100,-333 2100,-277.76 2039.06,-239.64 1999.07,-220.58"/>
<polygon fill="midnightblue" stroke="midnightblue" points="1809.08,-653.81 1799.14,-657.47 1809.19,-660.81 1809.08,-653.81"/>
</g>
<!-- Node16&#45;&gt;Node10 -->
<g id="edge35" class="edge">
<title>Node16&#45;&gt;Node10</title>
<path fill="none" stroke="midnightblue" d="M1764.94,-645.49C1785.85,-638.62 1809.15,-628.01 1826,-612 1854.97,-584.47 1864,-570.47 1864,-530.5 1864,-530.5 1864,-530.5 1864,-271.5 1864,-208.44 1426.71,-163.15 1237.53,-146.51"/>
<polygon fill="midnightblue" stroke="midnightblue" points="1763.75,-642.2 1755.22,-648.48 1765.81,-648.89 1763.75,-642.2"/>
</g>
<!-- Node16&#45;&gt;Node14 -->
<g id="edge36" class="edge">
<title>Node16&#45;&gt;Node14</title>
<path fill="none" stroke="midnightblue" d="M1755.31,-644.94C1772.56,-637.89 1791.55,-627.3 1804,-612 1827.68,-582.9 1826,-568.02 1826,-530.5 1826,-530.5 1826,-530.5 1826,-394.5 1826,-287.15 1012.14,-274.85 763.37,-273.59"/>
<polygon fill="midnightblue" stroke="midnightblue" points="1754.07,-641.67 1745.96,-648.49 1756.56,-648.21 1754.07,-641.67"/>
</g>
<!-- Node17 -->
<g id="node17" class="node">
<title>Node17</title>
<g id="a_node17"><a xlink:href="ODMultiAgentAStarProblem_8h.html" target="_top" xlink:title=" ">
<polygon fill="white" stroke="black" points="1263,-581.5 1263,-611.5 1423,-611.5 1423,-581.5 1263,-581.5"/>
<text text-anchor="start" x="1271" y="-599.5" font-family="Helvetica,sans-Serif" font-size="10.00">AStarProblems/ODMultiAgent</text>
<text text-anchor="middle" x="1343" y="-588.5" font-family="Helvetica,sans-Serif" font-size="10.00">AStarProblem.h</text>
</a>
</g>
</g>
<!-- Node16&#45;&gt;Node17 -->
<g id="edge17" class="edge">
<title>Node16&#45;&gt;Node17</title>
<path fill="none" stroke="midnightblue" d="M1651.5,-646.84C1588.45,-636.76 1491.59,-621.27 1423.25,-610.34"/>
<polygon fill="midnightblue" stroke="midnightblue" points="1651.27,-650.35 1661.7,-648.48 1652.38,-643.44 1651.27,-650.35"/>
</g>
<!-- Node22 -->
<g id="node22" class="node">
<title>Node22</title>
<g id="a_node22"><a xlink:href="ODMultiAgentAStarProblemWithConstraints_8h.html" target="_top" xlink:title=" ">
<polygon fill="white" stroke="black" points="1444,-581.5 1444,-611.5 1614,-611.5 1614,-581.5 1444,-581.5"/>
<text text-anchor="start" x="1452" y="-599.5" font-family="Helvetica,sans-Serif" font-size="10.00">AStarProblems/ODMultiAgent</text>
<text text-anchor="middle" x="1529" y="-588.5" font-family="Helvetica,sans-Serif" font-size="10.00">AStarProblemWithConstraints.h</text>
</a>
</g>
</g>
<!-- Node16&#45;&gt;Node22 -->
<g id="edge24" class="edge">
<title>Node16&#45;&gt;Node22</title>
<path fill="none" stroke="midnightblue" d="M1678.6,-645.36C1648.3,-635.66 1605.05,-621.83 1572.84,-611.52"/>
<polygon fill="midnightblue" stroke="midnightblue" points="1677.76,-648.76 1688.35,-648.48 1679.89,-642.09 1677.76,-648.76"/>
</g>
<!-- Node24 -->
<g id="node24" class="node">
<title>Node24</title>
<g id="a_node24"><a xlink:href="StandardMultiAgentAStarProblem_8h.html" target="_top" xlink:title=" ">
<polygon fill="white" stroke="black" points="1635,-581.5 1635,-611.5 1795,-611.5 1795,-581.5 1635,-581.5"/>
<text text-anchor="start" x="1643" y="-599.5" font-family="Helvetica,sans-Serif" font-size="10.00">AStarProblems/StandardMulti</text>
<text text-anchor="middle" x="1715" y="-588.5" font-family="Helvetica,sans-Serif" font-size="10.00">AgentAStarProblem.h</text>
</a>
</g>
</g>
<!-- Node16&#45;&gt;Node24 -->
<g id="edge27" class="edge">
<title>Node16&#45;&gt;Node24</title>
<path fill="none" stroke="midnightblue" d="M1715,-638.23C1715,-629.59 1715,-619.5 1715,-611.52"/>
<polygon fill="midnightblue" stroke="midnightblue" points="1711.5,-638.48 1715,-648.48 1718.5,-638.48 1711.5,-638.48"/>
</g>
<!-- Node26 -->
<g id="node26" class="node">
<title>Node26</title>
<g id="a_node26"><a xlink:href="StandardMultiAgentAStarProblemWithConstraints_8h.html" target="_top" xlink:title=" ">
<polygon fill="white" stroke="black" points="1045.5,-581.5 1045.5,-611.5 1244.5,-611.5 1244.5,-581.5 1045.5,-581.5"/>
<text text-anchor="start" x="1053.5" y="-599.5" font-family="Helvetica,sans-Serif" font-size="10.00">AStarProblems/StandardMulti</text>
<text text-anchor="middle" x="1145" y="-588.5" font-family="Helvetica,sans-Serif" font-size="10.00">AgentAStarProblemWithConstraints.h</text>
</a>
</g>
</g>
<!-- Node16&#45;&gt;Node26 -->
<g id="edge30" class="edge">
<title>Node16&#45;&gt;Node26</title>
<path fill="none" stroke="midnightblue" d="M1620.81,-648.78C1527.57,-640.41 1380.79,-626.62 1254,-612 1250.97,-611.65 1247.88,-611.29 1244.78,-610.91"/>
<polygon fill="midnightblue" stroke="midnightblue" points="1620.51,-652.26 1630.78,-649.67 1621.14,-645.29 1620.51,-652.26"/>
</g>
<!-- Node28 -->
<g id="node28" class="node">
<title>Node28</title>
<g id="a_node28"><a xlink:href="MultiAgentProblem_8cpp.html" target="_top" xlink:title=" ">
<polygon fill="white" stroke="black" points="1892.5,-587 1892.5,-606 2071.5,-606 2071.5,-587 1892.5,-587"/>
<text text-anchor="middle" x="1982" y="-594" font-family="Helvetica,sans-Serif" font-size="10.00">Problems/MultiAgentProblem.cpp</text>
</a>
</g>
</g>
<!-- Node16&#45;&gt;Node28 -->
<g id="edge33" class="edge">
<title>Node16&#45;&gt;Node28</title>
<path fill="none" stroke="midnightblue" d="M1763.2,-646.26C1815,-634.72 1896.27,-616.61 1943.82,-606.01"/>
<polygon fill="midnightblue" stroke="midnightblue" points="1762.25,-642.88 1753.25,-648.48 1763.78,-649.72 1762.25,-642.88"/>
</g>
<!-- Node18 -->
<g id="node18" class="node">
<title>Node18</title>
<g id="a_node18"><a xlink:href="ODMultiAgentAStarProblem_8cpp.html" target="_top" xlink:title=" ">
<polygon fill="white" stroke="black" points="1260,-514.5 1260,-544.5 1420,-544.5 1420,-514.5 1260,-514.5"/>
<text text-anchor="start" x="1268" y="-532.5" font-family="Helvetica,sans-Serif" font-size="10.00">AStarProblems/ODMultiAgent</text>
<text text-anchor="middle" x="1340" y="-521.5" font-family="Helvetica,sans-Serif" font-size="10.00">AStarProblem.cpp</text>
</a>
</g>
</g>
<!-- Node17&#45;&gt;Node18 -->
<g id="edge18" class="edge">
<title>Node17&#45;&gt;Node18</title>
<path fill="none" stroke="midnightblue" d="M1341.89,-571.4C1341.47,-562.37 1341.01,-552.41 1340.65,-544.58"/>
<polygon fill="midnightblue" stroke="midnightblue" points="1338.39,-571.57 1342.35,-581.4 1345.38,-571.25 1338.39,-571.57"/>
</g>
<!-- Node19 -->
<g id="node19" class="node">
<title>Node19</title>
<g id="a_node19"><a xlink:href="HeuristicManhattan_8h.html" target="_top" xlink:title=" ">
<polygon fill="white" stroke="black" points="1068.5,-520 1068.5,-539 1241.5,-539 1241.5,-520 1068.5,-520"/>
<text text-anchor="middle" x="1155" y="-527" font-family="Helvetica,sans-Serif" font-size="10.00">Heuristics/HeuristicManhattan.h</text>
</a>
</g>
</g>
<!-- Node17&#45;&gt;Node19 -->
<g id="edge19" class="edge">
<title>Node17&#45;&gt;Node19</title>
<path fill="none" stroke="midnightblue" d="M1292.7,-578.11C1256.12,-565.46 1208.2,-548.89 1179.6,-539.01"/>
<polygon fill="midnightblue" stroke="midnightblue" points="1291.61,-581.44 1302.21,-581.4 1293.9,-574.82 1291.61,-581.44"/>
</g>
<!-- Node19&#45;&gt;Node5 -->
<g id="edge20" class="edge">
<title>Node19&#45;&gt;Node5</title>
<path fill="none" stroke="midnightblue" d="M1091.29,-518.46C1080.53,-516.88 1069.45,-515.33 1059,-514 906.07,-494.48 863.54,-515.46 714,-478 642.9,-460.19 563.75,-422.05 530.32,-405.02"/>
<polygon fill="midnightblue" stroke="midnightblue" points="1091.09,-521.97 1101.49,-519.97 1092.11,-515.04 1091.09,-521.97"/>
</g>
<!-- Node20 -->
<g id="node20" class="node">
<title>Node20</title>
<g id="a_node20"><a xlink:href="ReverseResumableAStar_8h.html" target="_top" xlink:title=" ">
<polygon fill="white" stroke="black" points="722.5,-447.5 722.5,-477.5 901.5,-477.5 901.5,-447.5 722.5,-447.5"/>
<text text-anchor="start" x="730.5" y="-465.5" font-family="Helvetica,sans-Serif" font-size="10.00">Solvers/AStar/ReverseResumable</text>
<text text-anchor="middle" x="812" y="-454.5" font-family="Helvetica,sans-Serif" font-size="10.00">AStar.h</text>
</a>
</g>
</g>
<!-- Node19&#45;&gt;Node20 -->
<g id="edge21" class="edge">
<title>Node19&#45;&gt;Node20</title>
<path fill="none" stroke="midnightblue" d="M1099.74,-518.03C1041.79,-507.05 950.39,-489.73 886.19,-477.56"/>
<polygon fill="midnightblue" stroke="midnightblue" points="1099.33,-521.51 1109.81,-519.94 1100.63,-514.63 1099.33,-521.51"/>
</g>
<!-- Node20&#45;&gt;Node5 -->
<g id="edge22" class="edge">
<title>Node20&#45;&gt;Node5</title>
<path fill="none" stroke="midnightblue" d="M737.76,-445.31C679.22,-432.54 599.88,-415.23 553.1,-405.03"/>
<polygon fill="midnightblue" stroke="midnightblue" points="737.19,-448.76 747.71,-447.48 738.68,-441.93 737.19,-448.76"/>
</g>
<!-- Node21 -->
<g id="node21" class="node">
<title>Node21</title>
<g id="a_node21"><a xlink:href="ReverseResumableAStar_8cpp.html" target="_top" xlink:title=" ">
<polygon fill="white" stroke="black" points="722.5,-380.5 722.5,-410.5 901.5,-410.5 901.5,-380.5 722.5,-380.5"/>
<text text-anchor="start" x="730.5" y="-398.5" font-family="Helvetica,sans-Serif" font-size="10.00">Solvers/AStar/ReverseResumable</text>
<text text-anchor="middle" x="812" y="-387.5" font-family="Helvetica,sans-Serif" font-size="10.00">AStar.cpp</text>
</a>
</g>
</g>
<!-- Node20&#45;&gt;Node21 -->
<g id="edge23" class="edge">
<title>Node20&#45;&gt;Node21</title>
<path fill="none" stroke="midnightblue" d="M812,-437.11C812,-428.15 812,-418.32 812,-410.58"/>
<polygon fill="midnightblue" stroke="midnightblue" points="808.5,-437.4 812,-447.4 815.5,-437.4 808.5,-437.4"/>
</g>
<!-- Node22&#45;&gt;Node19 -->
<g id="edge26" class="edge">
<title>Node22&#45;&gt;Node19</title>
<path fill="none" stroke="midnightblue" d="M1438.1,-579.7C1364.41,-566.9 1263.39,-549.34 1204.07,-539.03"/>
<polygon fill="midnightblue" stroke="midnightblue" points="1437.86,-583.21 1448.31,-581.48 1439.06,-576.32 1437.86,-583.21"/>
</g>
<!-- Node23 -->
<g id="node23" class="node">
<title>Node23</title>
<g id="a_node23"><a xlink:href="ODMultiAgentAStarProblemWithConstraints_8cpp.html" target="_top" xlink:title=" ">
<polygon fill="white" stroke="black" points="1438,-514.5 1438,-544.5 1620,-544.5 1620,-514.5 1438,-514.5"/>
<text text-anchor="start" x="1446" y="-532.5" font-family="Helvetica,sans-Serif" font-size="10.00">AStarProblems/ODMultiAgent</text>
<text text-anchor="middle" x="1529" y="-521.5" font-family="Helvetica,sans-Serif" font-size="10.00">AStarProblemWithConstraints.cpp</text>
</a>
</g>
</g>
<!-- Node22&#45;&gt;Node23 -->
<g id="edge25" class="edge">
<title>Node22&#45;&gt;Node23</title>
<path fill="none" stroke="midnightblue" d="M1529,-571.11C1529,-562.15 1529,-552.32 1529,-544.58"/>
<polygon fill="midnightblue" stroke="midnightblue" points="1525.5,-571.4 1529,-581.4 1532.5,-571.4 1525.5,-571.4"/>
</g>
<!-- Node24&#45;&gt;Node19 -->
<g id="edge29" class="edge">
<title>Node24&#45;&gt;Node19</title>
<path fill="none" stroke="midnightblue" d="M1624.81,-581.23C1624.21,-581.15 1623.6,-581.08 1623,-581 1458.22,-560.06 1415.85,-565.41 1251,-545 1237.03,-543.27 1221.96,-541.13 1208,-539.02"/>
<polygon fill="midnightblue" stroke="midnightblue" points="1624.38,-584.71 1634.76,-582.56 1625.31,-577.77 1624.38,-584.71"/>
</g>
<!-- Node25 -->
<g id="node25" class="node">
<title>Node25</title>
<g id="a_node25"><a xlink:href="StandardMultiAgentAStarProblem_8cpp.html" target="_top" xlink:title=" ">
<polygon fill="white" stroke="black" points="1638,-514.5 1638,-544.5 1798,-544.5 1798,-514.5 1638,-514.5"/>
<text text-anchor="start" x="1646" y="-532.5" font-family="Helvetica,sans-Serif" font-size="10.00">AStarProblems/StandardMulti</text>
<text text-anchor="middle" x="1718" y="-521.5" font-family="Helvetica,sans-Serif" font-size="10.00">AgentAStarProblem.cpp</text>
</a>
</g>
</g>
<!-- Node24&#45;&gt;Node25 -->
<g id="edge28" class="edge">
<title>Node24&#45;&gt;Node25</title>
<path fill="none" stroke="midnightblue" d="M1716.11,-571.4C1716.53,-562.37 1716.99,-552.41 1717.35,-544.58"/>
<polygon fill="midnightblue" stroke="midnightblue" points="1712.62,-571.25 1715.65,-581.4 1719.61,-571.57 1712.62,-571.25"/>
</g>
<!-- Node26&#45;&gt;Node19 -->
<g id="edge32" class="edge">
<title>Node26&#45;&gt;Node19</title>
<path fill="none" stroke="midnightblue" d="M1148.73,-571.25C1150.46,-560.02 1152.4,-547.38 1153.66,-539.19"/>
<polygon fill="midnightblue" stroke="midnightblue" points="1145.23,-570.98 1147.17,-581.4 1152.15,-572.04 1145.23,-570.98"/>
</g>
<!-- Node27 -->
<g id="node27" class="node">
<title>Node27</title>
<g id="a_node27"><a xlink:href="StandardMultiAgentAStarProblemWithConstraints_8cpp.html" target="_top" xlink:title=" ">
<polygon fill="white" stroke="black" points="840,-514.5 840,-544.5 1050,-544.5 1050,-514.5 840,-514.5"/>
<text text-anchor="start" x="848" y="-532.5" font-family="Helvetica,sans-Serif" font-size="10.00">AStarProblems/StandardMulti</text>
<text text-anchor="middle" x="945" y="-521.5" font-family="Helvetica,sans-Serif" font-size="10.00">AgentAStarProblemWithConstraints.cpp</text>
</a>
</g>
</g>
<!-- Node26&#45;&gt;Node27 -->
<g id="edge31" class="edge">
<title>Node26&#45;&gt;Node27</title>
<path fill="none" stroke="midnightblue" d="M1091.85,-578.23C1059.5,-567.71 1018.69,-554.45 988.31,-544.58"/>
<polygon fill="midnightblue" stroke="midnightblue" points="1091.01,-581.63 1101.6,-581.4 1093.17,-574.98 1091.01,-581.63"/>
</g>
<!-- Node29&#45;&gt;Node10 -->
<g id="edge46" class="edge">
<title>Node29&#45;&gt;Node10</title>
<path fill="none" stroke="midnightblue" d="M454.55,-644.17C439.02,-636.61 420.91,-625.81 408,-612 380.44,-582.53 368,-570.85 368,-530.5 368,-530.5 368,-530.5 368,-271.5 368,-201.32 862.8,-159.34 1066.23,-145.04"/>
<polygon fill="midnightblue" stroke="midnightblue" points="453.26,-647.43 463.81,-648.45 456.2,-641.07 453.26,-647.43"/>
</g>
<!-- Node29&#45;&gt;Node14 -->
<g id="edge47" class="edge">
<title>Node29&#45;&gt;Node14</title>
<path fill="none" stroke="midnightblue" d="M457,-643.33C444.77,-635.92 431.81,-625.48 425,-612 405.37,-573.12 403.24,-551.73 425,-514 470.66,-434.82 536.78,-474 603,-411 642.76,-373.17 673.16,-314.23 685.71,-287.51"/>
<polygon fill="midnightblue" stroke="midnightblue" points="455.66,-646.59 466.09,-648.41 459.07,-640.48 455.66,-646.59"/>
</g>
<!-- Node30 -->
<g id="node30" class="node">
<title>Node30</title>
<g id="a_node30"><a xlink:href="SingleAgentAStarProblem_8h.html" target="_top" xlink:title=" ">
<polygon fill="white" stroke="black" points="825,-581.5 825,-611.5 975,-611.5 975,-581.5 825,-581.5"/>
<text text-anchor="start" x="833" y="-599.5" font-family="Helvetica,sans-Serif" font-size="10.00">AStarProblems/SingleAgent</text>
<text text-anchor="middle" x="900" y="-588.5" font-family="Helvetica,sans-Serif" font-size="10.00">AStarProblem.h</text>
</a>
</g>
</g>
<!-- Node29&#45;&gt;Node30 -->
<g id="edge38" class="edge">
<title>Node29&#45;&gt;Node30</title>
<path fill="none" stroke="midnightblue" d="M563.78,-647.18C630.72,-638.55 729.85,-625.31 816,-612 818.93,-611.55 821.91,-611.08 824.92,-610.6"/>
<polygon fill="midnightblue" stroke="midnightblue" points="563.2,-643.73 553.73,-648.48 564.09,-650.67 563.2,-643.73"/>
</g>
<!-- Node32 -->
<g id="node32" class="node">
<title>Node32</title>
<g id="a_node32"><a xlink:href="SingleAgentAStarProblemWithConstraints_8h.html" target="_top" xlink:title=" ">
<polygon fill="white" stroke="black" points="637,-581.5 637,-611.5 807,-611.5 807,-581.5 637,-581.5"/>
<text text-anchor="start" x="645" y="-599.5" font-family="Helvetica,sans-Serif" font-size="10.00">AStarProblems/SingleAgent</text>
<text text-anchor="middle" x="722" y="-588.5" font-family="Helvetica,sans-Serif" font-size="10.00">AStarProblemWithConstraints.h</text>
</a>
</g>
</g>
<!-- Node29&#45;&gt;Node32 -->
<g id="edge42" class="edge">
<title>Node29&#45;&gt;Node32</title>
<path fill="none" stroke="midnightblue" d="M529.7,-645.98C568.24,-636.27 624.62,-622.05 666.38,-611.52"/>
<polygon fill="midnightblue" stroke="midnightblue" points="528.65,-642.64 519.81,-648.48 530.37,-649.42 528.65,-642.64"/>
</g>
<!-- Node34 -->
<g id="node34" class="node">
<title>Node34</title>
<g id="a_node34"><a xlink:href="SingleAgentProblem_8cpp.html" target="_top" xlink:title=" ">
<polygon fill="white" stroke="black" points="433.5,-587 433.5,-606 618.5,-606 618.5,-587 433.5,-587"/>
<text text-anchor="middle" x="526" y="-594" font-family="Helvetica,sans-Serif" font-size="10.00">Problems/SingleAgentProblem.cpp</text>
</a>
</g>
</g>
<!-- Node29&#45;&gt;Node34 -->
<g id="edge45" class="edge">
<title>Node29&#45;&gt;Node34</title>
<path fill="none" stroke="midnightblue" d="M497.43,-640.01C504.9,-628.89 514.34,-614.84 520.28,-606.01"/>
<polygon fill="midnightblue" stroke="midnightblue" points="494.41,-638.22 491.73,-648.48 500.21,-642.13 494.41,-638.22"/>
</g>
<!-- Node30&#45;&gt;Node19 -->
<g id="edge40" class="edge">
<title>Node30&#45;&gt;Node19</title>
<path fill="none" stroke="midnightblue" d="M964.77,-578.99C1014.74,-566.25 1081.84,-549.15 1121.54,-539.03"/>
<polygon fill="midnightblue" stroke="midnightblue" points="963.84,-575.61 955.02,-581.48 965.57,-582.4 963.84,-575.61"/>
</g>
<!-- Node30&#45;&gt;Node20 -->
<g id="edge41" class="edge">
<title>Node30&#45;&gt;Node20</title>
<path fill="none" stroke="midnightblue" d="M863.4,-575.84C851.45,-567.75 839.17,-557.36 831,-545 817.3,-524.27 813.43,-494.87 812.36,-477.63"/>
<polygon fill="midnightblue" stroke="midnightblue" points="861.67,-578.89 871.98,-581.32 865.43,-572.99 861.67,-578.89"/>
</g>
<!-- Node31 -->
<g id="node31" class="node">
<title>Node31</title>
<g id="a_node31"><a xlink:href="SingleAgentAStarProblem_8cpp.html" target="_top" xlink:title=" ">
<polygon fill="white" stroke="black" points="634,-514.5 634,-544.5 784,-544.5 784,-514.5 634,-514.5"/>
<text text-anchor="start" x="642" y="-532.5" font-family="Helvetica,sans-Serif" font-size="10.00">AStarProblems/SingleAgent</text>
<text text-anchor="middle" x="709" y="-521.5" font-family="Helvetica,sans-Serif" font-size="10.00">AStarProblem.cpp</text>
</a>
</g>
</g>
<!-- Node30&#45;&gt;Node31 -->
<g id="edge39" class="edge">
<title>Node30&#45;&gt;Node31</title>
<path fill="none" stroke="midnightblue" d="M848.85,-578.09C818.01,-567.6 779.25,-554.41 750.36,-544.58"/>
<polygon fill="midnightblue" stroke="midnightblue" points="847.96,-581.49 858.56,-581.4 850.22,-574.86 847.96,-581.49"/>
</g>
<!-- Node32&#45;&gt;Node19 -->
<g id="edge44" class="edge">
<title>Node32&#45;&gt;Node19</title>
<path fill="none" stroke="midnightblue" d="M817.1,-580.84C925.61,-564.46 954.19,-560.68 1059,-545 1071.84,-543.08 1085.64,-541 1098.66,-539.04"/>
<polygon fill="midnightblue" stroke="midnightblue" points="816.42,-577.4 807.05,-582.36 817.46,-584.32 816.42,-577.4"/>
</g>
<!-- Node33 -->
<g id="node33" class="node">
<title>Node33</title>
<g id="a_node33"><a xlink:href="SingleAgentAStarProblemWithConstraints_8cpp.html" target="_top" xlink:title=" ">
<polygon fill="white" stroke="black" points="434,-514.5 434,-544.5 616,-544.5 616,-514.5 434,-514.5"/>
<text text-anchor="start" x="442" y="-532.5" font-family="Helvetica,sans-Serif" font-size="10.00">AStarProblems/SingleAgent</text>
<text text-anchor="middle" x="525" y="-521.5" font-family="Helvetica,sans-Serif" font-size="10.00">AStarProblemWithConstraints.cpp</text>
</a>
</g>
</g>
<!-- Node32&#45;&gt;Node33 -->
<g id="edge43" class="edge">
<title>Node32&#45;&gt;Node33</title>
<path fill="none" stroke="midnightblue" d="M669.65,-578.23C637.78,-567.71 597.59,-554.45 567.66,-544.58"/>
<polygon fill="midnightblue" stroke="midnightblue" points="668.66,-581.59 679.25,-581.4 670.85,-574.94 668.66,-581.59"/>
</g>
</g>
</svg>
