<?xml version="1.0" encoding="UTF-8" standalone="no"?>
<!DOCTYPE svg PUBLIC "-//W3C//DTD SVG 1.1//EN"
 "http://www.w3.org/Graphics/SVG/1.1/DTD/svg11.dtd">
<!-- Generated by graphviz version 2.43.0 (0)
 -->
<!-- Title: GraphParser/Graph.h Pages: 1 -->
<svg width="2111pt" height="788pt"
 viewBox="0.00 0.00 2111.24 788.00" xmlns="http://www.w3.org/2000/svg" xmlns:xlink="http://www.w3.org/1999/xlink">
<g id="graph0" class="graph" transform="scale(1 1) rotate(0) translate(4 784)">
<title>GraphParser/Graph.h</title>
<polygon fill="white" stroke="transparent" points="-4,4 -4,-784 2107.24,-784 2107.24,4 -4,4"/>
<!-- Node1 -->
<g id="node1" class="node">
<title>Node1</title>
<g id="a_node1"><a xlink:title=" ">
<polygon fill="#bfbfbf" stroke="black" points="189.5,-760.5 189.5,-779.5 306.5,-779.5 306.5,-760.5 189.5,-760.5"/>
<text text-anchor="middle" x="248" y="-767.5" font-family="Helvetica,sans-Serif" font-size="10.00">GraphParser/Graph.h</text>
</a>
</g>
</g>
<!-- Node2 -->
<g id="node2" class="node">
<title>Node2</title>
<g id="a_node2"><a xlink:href="Graph_8cpp.html" target="_top" xlink:title=" ">
<polygon fill="white" stroke="black" points="0,-704.5 0,-723.5 128,-723.5 128,-704.5 0,-704.5"/>
<text text-anchor="middle" x="64" y="-711.5" font-family="Helvetica,sans-Serif" font-size="10.00">GraphParser/Graph.cpp</text>
</a>
</g>
</g>
<!-- Node1&#45;&gt;Node2 -->
<g id="edge1" class="edge">
<title>Node1&#45;&gt;Node2</title>
<path fill="none" stroke="midnightblue" d="M209.05,-757.57C174.34,-747.38 124.32,-732.7 93.02,-723.52"/>
<polygon fill="midnightblue" stroke="midnightblue" points="208.26,-760.99 218.84,-760.44 210.23,-754.27 208.26,-760.99"/>
</g>
<!-- Node3 -->
<g id="node3" class="node">
<title>Node3</title>
<g id="a_node3"><a xlink:href="Parser_8h.html" target="_top" xlink:title=" ">
<polygon fill="white" stroke="black" points="146.5,-704.5 146.5,-723.5 263.5,-723.5 263.5,-704.5 146.5,-704.5"/>
<text text-anchor="middle" x="205" y="-711.5" font-family="Helvetica,sans-Serif" font-size="10.00">GraphParser/Parser.h</text>
</a>
</g>
</g>
<!-- Node1&#45;&gt;Node3 -->
<g id="edge2" class="edge">
<title>Node1&#45;&gt;Node3</title>
<path fill="none" stroke="midnightblue" d="M234.58,-752.14C227.09,-742.74 218.06,-731.4 211.97,-723.75"/>
<polygon fill="midnightblue" stroke="midnightblue" points="231.93,-754.44 240.9,-760.08 237.41,-750.08 231.93,-754.44"/>
</g>
<!-- Node5 -->
<g id="node5" class="node">
<title>Node5</title>
<g id="a_node5"><a xlink:href="Problem_8h.html" target="_top" xlink:title=" ">
<polygon fill="white" stroke="black" points="559.5,-704.5 559.5,-723.5 674.5,-723.5 674.5,-704.5 559.5,-704.5"/>
<text text-anchor="middle" x="617" y="-711.5" font-family="Helvetica,sans-Serif" font-size="10.00">Problems/Problem.h</text>
</a>
</g>
</g>
<!-- Node1&#45;&gt;Node5 -->
<g id="edge4" class="edge">
<title>Node1&#45;&gt;Node5</title>
<path fill="none" stroke="midnightblue" d="M316.5,-758.97C386.42,-748.74 493.73,-733.04 559.41,-723.43"/>
<polygon fill="midnightblue" stroke="midnightblue" points="315.86,-755.53 306.47,-760.44 316.87,-762.46 315.86,-755.53"/>
</g>
<!-- Node10 -->
<g id="node10" class="node">
<title>Node10</title>
<g id="a_node10"><a xlink:href="HeuristicOptimal_8h.html" target="_top" xlink:title=" ">
<polygon fill="white" stroke="black" points="959,-386 959,-405 1119,-405 1119,-386 959,-386"/>
<text text-anchor="middle" x="1039" y="-393" font-family="Helvetica,sans-Serif" font-size="10.00">Heuristics/HeuristicOptimal.h</text>
</a>
</g>
</g>
<!-- Node1&#45;&gt;Node10 -->
<g id="edge48" class="edge">
<title>Node1&#45;&gt;Node10</title>
<path fill="none" stroke="midnightblue" d="M259.57,-751.93C272.6,-730.99 292,-693.96 292,-659 292,-659 292,-659 292,-528.5 292,-461.38 765.77,-417.45 958.7,-402.34"/>
<polygon fill="midnightblue" stroke="midnightblue" points="256.61,-750.05 254.12,-760.35 262.49,-753.85 256.61,-750.05"/>
</g>
<!-- Node4 -->
<g id="node4" class="node">
<title>Node4</title>
<g id="a_node4"><a xlink:href="Parser_8cpp.html" target="_top" xlink:title=" ">
<polygon fill="white" stroke="black" points="136,-648.5 136,-667.5 264,-667.5 264,-648.5 136,-648.5"/>
<text text-anchor="middle" x="200" y="-655.5" font-family="Helvetica,sans-Serif" font-size="10.00">GraphParser/Parser.cpp</text>
</a>
</g>
</g>
<!-- Node3&#45;&gt;Node4 -->
<g id="edge3" class="edge">
<title>Node3&#45;&gt;Node4</title>
<path fill="none" stroke="midnightblue" d="M203.25,-694.1C202.42,-685.14 201.47,-674.86 200.81,-667.75"/>
<polygon fill="midnightblue" stroke="midnightblue" points="199.77,-694.45 204.17,-704.08 206.74,-693.8 199.77,-694.45"/>
</g>
<!-- Node6 -->
<g id="node6" class="node">
<title>Node6</title>
<g id="a_node6"><a xlink:href="MultiAgentProblem_8h.html" target="_top" xlink:title=" ">
<polygon fill="white" stroke="black" points="773,-648.5 773,-667.5 941,-667.5 941,-648.5 773,-648.5"/>
<text text-anchor="middle" x="857" y="-655.5" font-family="Helvetica,sans-Serif" font-size="10.00">Problems/MultiAgentProblem.h</text>
</a>
</g>
</g>
<!-- Node5&#45;&gt;Node6 -->
<g id="edge5" class="edge">
<title>Node5&#45;&gt;Node6</title>
<path fill="none" stroke="midnightblue" d="M664.92,-702.22C710.27,-692.01 777.44,-676.9 819.15,-667.52"/>
<polygon fill="midnightblue" stroke="midnightblue" points="664.02,-698.83 655.03,-704.44 665.55,-705.66 664.02,-698.83"/>
</g>
<!-- Node12 -->
<g id="node12" class="node">
<title>Node12</title>
<g id="a_node12"><a xlink:href="GeneralAStar_8h.html" target="_top" xlink:title=" ">
<polygon fill="white" stroke="black" points="1139,-263 1139,-282 1297,-282 1297,-263 1139,-263"/>
<text text-anchor="middle" x="1218" y="-270" font-family="Helvetica,sans-Serif" font-size="10.00">Solvers/AStar/GeneralAStar.h</text>
</a>
</g>
</g>
<!-- Node5&#45;&gt;Node12 -->
<g id="edge47" class="edge">
<title>Node5&#45;&gt;Node12</title>
<path fill="none" stroke="midnightblue" d="M561.69,-702.46C478.3,-684.97 330,-646.92 330,-597.5 330,-597.5 330,-597.5 330,-528.5 330,-360.99 921.16,-297.07 1138.81,-279.21"/>
<polygon fill="midnightblue" stroke="midnightblue" points="561.02,-705.9 571.52,-704.49 562.44,-699.04 561.02,-705.9"/>
</g>
<!-- Node29 -->
<g id="node29" class="node">
<title>Node29</title>
<g id="a_node29"><a xlink:href="SingleAgentProblem_8h.html" target="_top" xlink:title=" ">
<polygon fill="white" stroke="black" points="1716.5,-648.5 1716.5,-667.5 1889.5,-667.5 1889.5,-648.5 1716.5,-648.5"/>
<text text-anchor="middle" x="1803" y="-655.5" font-family="Helvetica,sans-Serif" font-size="10.00">Problems/SingleAgentProblem.h</text>
</a>
</g>
</g>
<!-- Node5&#45;&gt;Node29 -->
<g id="edge36" class="edge">
<title>Node5&#45;&gt;Node29</title>
<path fill="none" stroke="midnightblue" d="M684.83,-709.91C887.84,-700.67 1490.57,-673.23 1716.33,-662.95"/>
<polygon fill="midnightblue" stroke="midnightblue" points="684.43,-706.43 674.6,-710.38 684.75,-713.42 684.43,-706.43"/>
</g>
<!-- Node7 -->
<g id="node7" class="node">
<title>Node7</title>
<g id="a_node7"><a xlink:href="ODMultiAgentAStarProblem_8h.html" target="_top" xlink:title=" ">
<polygon fill="white" stroke="black" points="594,-581.5 594,-611.5 754,-611.5 754,-581.5 594,-581.5"/>
<text text-anchor="start" x="602" y="-599.5" font-family="Helvetica,sans-Serif" font-size="10.00">AStarProblems/ODMultiAgent</text>
<text text-anchor="middle" x="674" y="-588.5" font-family="Helvetica,sans-Serif" font-size="10.00">AStarProblem.h</text>
</a>
</g>
</g>
<!-- Node6&#45;&gt;Node7 -->
<g id="edge6" class="edge">
<title>Node6&#45;&gt;Node7</title>
<path fill="none" stroke="midnightblue" d="M821.19,-645.36C791.37,-635.66 748.82,-621.83 717.13,-611.52"/>
<polygon fill="midnightblue" stroke="midnightblue" points="820.19,-648.71 830.78,-648.48 822.35,-642.05 820.19,-648.71"/>
</g>
<!-- Node13 -->
<g id="node13" class="node">
<title>Node13</title>
<g id="a_node13"><a xlink:href="ConflictBasedSearch_8h.html" target="_top" xlink:title=" ">
<polygon fill="white" stroke="black" points="1145.5,-190.5 1145.5,-220.5 1290.5,-220.5 1290.5,-190.5 1145.5,-190.5"/>
<text text-anchor="start" x="1153.5" y="-208.5" font-family="Helvetica,sans-Serif" font-size="10.00">Solvers/CBS/ConflictBased</text>
<text text-anchor="middle" x="1218" y="-197.5" font-family="Helvetica,sans-Serif" font-size="10.00">Search.h</text>
</a>
</g>
</g>
<!-- Node6&#45;&gt;Node13 -->
<g id="edge33" class="edge">
<title>Node6&#45;&gt;Node13</title>
<path fill="none" stroke="midnightblue" d="M762.57,-653.79C633.46,-648.53 414.62,-636.15 387,-612 359,-587.51 368,-567.69 368,-530.5 368,-530.5 368,-530.5 368,-333 368,-254.72 939.29,-219.77 1145.16,-209.72"/>
<polygon fill="midnightblue" stroke="midnightblue" points="762.72,-657.3 772.85,-654.2 763,-650.31 762.72,-657.3"/>
</g>
<!-- Node15 -->
<g id="node15" class="node">
<title>Node15</title>
<g id="a_node15"><a xlink:href="SimpleIndependenceDetection_8h.html" target="_top" xlink:title=" ">
<polygon fill="white" stroke="black" points="1443.5,-123.5 1443.5,-153.5 1614.5,-153.5 1614.5,-123.5 1443.5,-123.5"/>
<text text-anchor="start" x="1451.5" y="-141.5" font-family="Helvetica,sans-Serif" font-size="10.00">Solvers/ID/SimpleIndependence</text>
<text text-anchor="middle" x="1529" y="-130.5" font-family="Helvetica,sans-Serif" font-size="10.00">Detection.h</text>
</a>
</g>
</g>
<!-- Node6&#45;&gt;Node15 -->
<g id="edge34" class="edge">
<title>Node6&#45;&gt;Node15</title>
<path fill="none" stroke="midnightblue" d="M951.33,-656.55C1134.24,-654.89 1523.56,-647.21 1573,-612 1638.57,-565.3 1675.57,-331.47 1645,-257 1626.06,-210.86 1579.28,-173.16 1551.25,-153.74"/>
<polygon fill="midnightblue" stroke="midnightblue" points="951.15,-653.05 941.18,-656.64 951.21,-660.05 951.15,-653.05"/>
</g>
<!-- Node19 -->
<g id="node19" class="node">
<title>Node19</title>
<g id="a_node19"><a xlink:href="CooperativeAStar_8h.html" target="_top" xlink:title=" ">
<polygon fill="white" stroke="black" points="1494,-257.5 1494,-287.5 1636,-287.5 1636,-257.5 1494,-257.5"/>
<text text-anchor="start" x="1502" y="-275.5" font-family="Helvetica,sans-Serif" font-size="10.00">Solvers/SuboptimalSolver</text>
<text text-anchor="middle" x="1565" y="-264.5" font-family="Helvetica,sans-Serif" font-size="10.00">/CooperativeAStar.h</text>
</a>
</g>
</g>
<!-- Node6&#45;&gt;Node19 -->
<g id="edge35" class="edge">
<title>Node6&#45;&gt;Node19</title>
<path fill="none" stroke="midnightblue" d="M951.18,-655.74C1127.3,-652.68 1493.22,-642.67 1542,-612 1577.21,-589.86 1588,-572.09 1588,-530.5 1588,-530.5 1588,-530.5 1588,-394.5 1588,-355.37 1576.25,-310.35 1569.54,-287.86"/>
<polygon fill="midnightblue" stroke="midnightblue" points="951.08,-652.25 941.14,-655.91 951.19,-659.24 951.08,-652.25"/>
</g>
<!-- Node22 -->
<g id="node22" class="node">
<title>Node22</title>
<g id="a_node22"><a xlink:href="ODMultiAgentAStarProblemWithConstraints_8h.html" target="_top" xlink:title=" ">
<polygon fill="white" stroke="black" points="772,-581.5 772,-611.5 942,-611.5 942,-581.5 772,-581.5"/>
<text text-anchor="start" x="780" y="-599.5" font-family="Helvetica,sans-Serif" font-size="10.00">AStarProblems/ODMultiAgent</text>
<text text-anchor="middle" x="857" y="-588.5" font-family="Helvetica,sans-Serif" font-size="10.00">AStarProblemWithConstraints.h</text>
</a>
</g>
</g>
<!-- Node6&#45;&gt;Node22 -->
<g id="edge23" class="edge">
<title>Node6&#45;&gt;Node22</title>
<path fill="none" stroke="midnightblue" d="M857,-638.23C857,-629.59 857,-619.5 857,-611.52"/>
<polygon fill="midnightblue" stroke="midnightblue" points="853.5,-638.48 857,-648.48 860.5,-638.48 853.5,-638.48"/>
</g>
<!-- Node24 -->
<g id="node24" class="node">
<title>Node24</title>
<g id="a_node24"><a xlink:href="StandardMultiAgentAStarProblem_8h.html" target="_top" xlink:title=" ">
<polygon fill="white" stroke="black" points="960,-581.5 960,-611.5 1120,-611.5 1120,-581.5 960,-581.5"/>
<text text-anchor="start" x="968" y="-599.5" font-family="Helvetica,sans-Serif" font-size="10.00">AStarProblems/StandardMulti</text>
<text text-anchor="middle" x="1040" y="-588.5" font-family="Helvetica,sans-Serif" font-size="10.00">AgentAStarProblem.h</text>
</a>
</g>
</g>
<!-- Node6&#45;&gt;Node24 -->
<g id="edge26" class="edge">
<title>Node6&#45;&gt;Node24</title>
<path fill="none" stroke="midnightblue" d="M892.81,-645.36C922.63,-635.66 965.18,-621.83 996.87,-611.52"/>
<polygon fill="midnightblue" stroke="midnightblue" points="891.65,-642.05 883.22,-648.48 893.81,-648.71 891.65,-642.05"/>
</g>
<!-- Node26 -->
<g id="node26" class="node">
<title>Node26</title>
<g id="a_node26"><a xlink:href="StandardMultiAgentAStarProblemWithConstraints_8h.html" target="_top" xlink:title=" ">
<polygon fill="white" stroke="black" points="1138.5,-581.5 1138.5,-611.5 1337.5,-611.5 1337.5,-581.5 1138.5,-581.5"/>
<text text-anchor="start" x="1146.5" y="-599.5" font-family="Helvetica,sans-Serif" font-size="10.00">AStarProblems/StandardMulti</text>
<text text-anchor="middle" x="1238" y="-588.5" font-family="Helvetica,sans-Serif" font-size="10.00">AgentAStarProblemWithConstraints.h</text>
</a>
</g>
</g>
<!-- Node6&#45;&gt;Node26 -->
<g id="edge29" class="edge">
<title>Node6&#45;&gt;Node26</title>
<path fill="none" stroke="midnightblue" d="M921.68,-646.9C983.94,-637.18 1078.64,-622.39 1148.21,-611.52"/>
<polygon fill="midnightblue" stroke="midnightblue" points="920.93,-643.47 911.59,-648.48 922.01,-650.39 920.93,-643.47"/>
</g>
<!-- Node28 -->
<g id="node28" class="node">
<title>Node28</title>
<g id="a_node28"><a xlink:href="MultiAgentProblem_8cpp.html" target="_top" xlink:title=" ">
<polygon fill="white" stroke="black" points="396.5,-587 396.5,-606 575.5,-606 575.5,-587 396.5,-587"/>
<text text-anchor="middle" x="486" y="-594" font-family="Helvetica,sans-Serif" font-size="10.00">Problems/MultiAgentProblem.cpp</text>
</a>
</g>
</g>
<!-- Node6&#45;&gt;Node28 -->
<g id="edge32" class="edge">
<title>Node6&#45;&gt;Node28</title>
<path fill="none" stroke="midnightblue" d="M793.59,-646.83C721.83,-635.32 606.23,-616.78 539.06,-606.01"/>
<polygon fill="midnightblue" stroke="midnightblue" points="793.42,-650.35 803.84,-648.48 794.53,-643.44 793.42,-650.35"/>
</g>
<!-- Node8 -->
<g id="node8" class="node">
<title>Node8</title>
<g id="a_node8"><a xlink:href="ODMultiAgentAStarProblem_8cpp.html" target="_top" xlink:title=" ">
<polygon fill="white" stroke="black" points="396,-514.5 396,-544.5 556,-544.5 556,-514.5 396,-514.5"/>
<text text-anchor="start" x="404" y="-532.5" font-family="Helvetica,sans-Serif" font-size="10.00">AStarProblems/ODMultiAgent</text>
<text text-anchor="middle" x="476" y="-521.5" font-family="Helvetica,sans-Serif" font-size="10.00">AStarProblem.cpp</text>
</a>
</g>
</g>
<!-- Node7&#45;&gt;Node8 -->
<g id="edge7" class="edge">
<title>Node7&#45;&gt;Node8</title>
<path fill="none" stroke="midnightblue" d="M621.39,-578.23C589.36,-567.71 548.96,-554.45 518.88,-544.58"/>
<polygon fill="midnightblue" stroke="midnightblue" points="620.44,-581.6 631.04,-581.4 622.63,-574.95 620.44,-581.6"/>
</g>
<!-- Node9 -->
<g id="node9" class="node">
<title>Node9</title>
<g id="a_node9"><a xlink:href="HeuristicManhattan_8h.html" target="_top" xlink:title=" ">
<polygon fill="white" stroke="black" points="952.5,-520 952.5,-539 1125.5,-539 1125.5,-520 952.5,-520"/>
<text text-anchor="middle" x="1039" y="-527" font-family="Helvetica,sans-Serif" font-size="10.00">Heuristics/HeuristicManhattan.h</text>
</a>
</g>
</g>
<!-- Node7&#45;&gt;Node9 -->
<g id="edge8" class="edge">
<title>Node7&#45;&gt;Node9</title>
<path fill="none" stroke="midnightblue" d="M762.71,-579.7C834.63,-566.9 933.22,-549.34 991.11,-539.03"/>
<polygon fill="midnightblue" stroke="midnightblue" points="761.98,-576.28 752.75,-581.48 763.21,-583.17 761.98,-576.28"/>
</g>
<!-- Node9&#45;&gt;Node10 -->
<g id="edge9" class="edge">
<title>Node9&#45;&gt;Node10</title>
<path fill="none" stroke="midnightblue" d="M1039,-509.78C1039,-480.75 1039,-426.04 1039,-405.02"/>
<polygon fill="midnightblue" stroke="midnightblue" points="1035.5,-509.84 1039,-519.84 1042.5,-509.84 1035.5,-509.84"/>
</g>
<!-- Node20 -->
<g id="node20" class="node">
<title>Node20</title>
<g id="a_node20"><a xlink:href="ReverseResumableAStar_8h.html" target="_top" xlink:title=" ">
<polygon fill="white" stroke="black" points="1102.5,-447.5 1102.5,-477.5 1281.5,-477.5 1281.5,-447.5 1102.5,-447.5"/>
<text text-anchor="start" x="1110.5" y="-465.5" font-family="Helvetica,sans-Serif" font-size="10.00">Solvers/AStar/ReverseResumable</text>
<text text-anchor="middle" x="1192" y="-454.5" font-family="Helvetica,sans-Serif" font-size="10.00">AStar.h</text>
</a>
</g>
</g>
<!-- Node9&#45;&gt;Node20 -->
<g id="edge20" class="edge">
<title>Node9&#45;&gt;Node20</title>
<path fill="none" stroke="midnightblue" d="M1068.63,-515.91C1094.54,-504.91 1132.11,-488.94 1158.98,-477.53"/>
<polygon fill="midnightblue" stroke="midnightblue" points="1067.15,-512.74 1059.32,-519.87 1069.89,-519.18 1067.15,-512.74"/>
</g>
<!-- Node11 -->
<g id="node11" class="node">
<title>Node11</title>
<g id="a_node11"><a xlink:href="AStar_8h.html" target="_top" xlink:title=" ">
<polygon fill="white" stroke="black" points="1158.5,-324.5 1158.5,-343.5 1277.5,-343.5 1277.5,-324.5 1158.5,-324.5"/>
<text text-anchor="middle" x="1218" y="-331.5" font-family="Helvetica,sans-Serif" font-size="10.00">Solvers/AStar/AStar.h</text>
</a>
</g>
</g>
<!-- Node10&#45;&gt;Node11 -->
<g id="edge10" class="edge">
<title>Node10&#45;&gt;Node11</title>
<path fill="none" stroke="midnightblue" d="M1074.4,-382.73C1109.2,-371.17 1161.45,-353.8 1192.4,-343.51"/>
<polygon fill="midnightblue" stroke="midnightblue" points="1073.03,-379.5 1064.65,-385.98 1075.24,-386.14 1073.03,-379.5"/>
</g>
<!-- Node11&#45;&gt;Node12 -->
<g id="edge11" class="edge">
<title>Node11&#45;&gt;Node12</title>
<path fill="none" stroke="midnightblue" d="M1218,-314.32C1218,-303.5 1218,-290.4 1218,-282.01"/>
<polygon fill="midnightblue" stroke="midnightblue" points="1214.5,-314.48 1218,-324.48 1221.5,-314.48 1214.5,-314.48"/>
</g>
<!-- Node11&#45;&gt;Node19 -->
<g id="edge19" class="edge">
<title>Node11&#45;&gt;Node19</title>
<path fill="none" stroke="midnightblue" d="M1277.78,-322.75C1337.71,-312.47 1429.98,-296.65 1493.69,-285.73"/>
<polygon fill="midnightblue" stroke="midnightblue" points="1276.98,-319.34 1267.72,-324.48 1278.16,-326.23 1276.98,-319.34"/>
</g>
<!-- Node12&#45;&gt;Node13 -->
<g id="edge12" class="edge">
<title>Node12&#45;&gt;Node13</title>
<path fill="none" stroke="midnightblue" d="M1218,-252.41C1218,-242.22 1218,-229.9 1218,-220.59"/>
<polygon fill="midnightblue" stroke="midnightblue" points="1214.5,-252.73 1218,-262.73 1221.5,-252.73 1214.5,-252.73"/>
</g>
<!-- Node12&#45;&gt;Node15 -->
<g id="edge18" class="edge">
<title>Node12&#45;&gt;Node15</title>
<path fill="none" stroke="midnightblue" d="M1247.79,-258.86C1306.11,-234.1 1434.93,-179.43 1495.85,-153.57"/>
<polygon fill="midnightblue" stroke="midnightblue" points="1246.24,-255.71 1238.41,-262.84 1248.98,-262.15 1246.24,-255.71"/>
</g>
<!-- Node14 -->
<g id="node14" class="node">
<title>Node14</title>
<g id="a_node14"><a xlink:href="ConflictBasedSearch_8cpp.html" target="_top" xlink:title=" ">
<polygon fill="white" stroke="black" points="1145.5,-123.5 1145.5,-153.5 1290.5,-153.5 1290.5,-123.5 1145.5,-123.5"/>
<text text-anchor="start" x="1153.5" y="-141.5" font-family="Helvetica,sans-Serif" font-size="10.00">Solvers/CBS/ConflictBased</text>
<text text-anchor="middle" x="1218" y="-130.5" font-family="Helvetica,sans-Serif" font-size="10.00">Search.cpp</text>
</a>
</g>
</g>
<!-- Node13&#45;&gt;Node14 -->
<g id="edge13" class="edge">
<title>Node13&#45;&gt;Node14</title>
<path fill="none" stroke="midnightblue" d="M1218,-180.11C1218,-171.15 1218,-161.32 1218,-153.58"/>
<polygon fill="midnightblue" stroke="midnightblue" points="1214.5,-180.4 1218,-190.4 1221.5,-180.4 1214.5,-180.4"/>
</g>
<!-- Node13&#45;&gt;Node15 -->
<g id="edge14" class="edge">
<title>Node13&#45;&gt;Node15</title>
<path fill="none" stroke="midnightblue" d="M1295.12,-188.38C1346.27,-177.69 1412.75,-163.8 1461.75,-153.55"/>
<polygon fill="midnightblue" stroke="midnightblue" points="1294.17,-185 1285.1,-190.48 1295.6,-191.86 1294.17,-185"/>
</g>
<!-- Node16 -->
<g id="node16" class="node">
<title>Node16</title>
<g id="a_node16"><a xlink:href="IndependenceDetection_8h.html" target="_top" xlink:title=" ">
<polygon fill="white" stroke="black" points="1331,-62 1331,-81 1525,-81 1525,-62 1331,-62"/>
<text text-anchor="middle" x="1428" y="-69" font-family="Helvetica,sans-Serif" font-size="10.00">Solvers/ID/IndependenceDetection.h</text>
</a>
</g>
</g>
<!-- Node15&#45;&gt;Node16 -->
<g id="edge15" class="edge">
<title>Node15&#45;&gt;Node16</title>
<path fill="none" stroke="midnightblue" d="M1498.66,-117.97C1479.51,-105.65 1455.73,-90.35 1441.22,-81.01"/>
<polygon fill="midnightblue" stroke="midnightblue" points="1496.78,-120.93 1507.08,-123.4 1500.57,-115.04 1496.78,-120.93"/>
</g>
<!-- Node18 -->
<g id="node18" class="node">
<title>Node18</title>
<g id="a_node18"><a xlink:href="SimpleIndependenceDetection_8cpp.html" target="_top" xlink:title=" ">
<polygon fill="white" stroke="black" points="1543.5,-56.5 1543.5,-86.5 1714.5,-86.5 1714.5,-56.5 1543.5,-56.5"/>
<text text-anchor="start" x="1551.5" y="-74.5" font-family="Helvetica,sans-Serif" font-size="10.00">Solvers/ID/SimpleIndependence</text>
<text text-anchor="middle" x="1629" y="-63.5" font-family="Helvetica,sans-Serif" font-size="10.00">Detection.cpp</text>
</a>
</g>
</g>
<!-- Node15&#45;&gt;Node18 -->
<g id="edge17" class="edge">
<title>Node15&#45;&gt;Node18</title>
<path fill="none" stroke="midnightblue" d="M1559.41,-117.73C1574.88,-107.68 1593.33,-95.68 1607.34,-86.58"/>
<polygon fill="midnightblue" stroke="midnightblue" points="1557.18,-115.01 1550.7,-123.4 1560.99,-120.88 1557.18,-115.01"/>
</g>
<!-- Node17 -->
<g id="node17" class="node">
<title>Node17</title>
<g id="a_node17"><a xlink:href="IndependenceDetection_8cpp.html" target="_top" xlink:title=" ">
<polygon fill="white" stroke="black" points="1325.5,-0.5 1325.5,-19.5 1530.5,-19.5 1530.5,-0.5 1325.5,-0.5"/>
<text text-anchor="middle" x="1428" y="-7.5" font-family="Helvetica,sans-Serif" font-size="10.00">Solvers/ID/IndependenceDetection.cpp</text>
</a>
</g>
</g>
<!-- Node16&#45;&gt;Node17 -->
<g id="edge16" class="edge">
<title>Node16&#45;&gt;Node17</title>
<path fill="none" stroke="midnightblue" d="M1428,-51.82C1428,-41 1428,-27.9 1428,-19.51"/>
<polygon fill="midnightblue" stroke="midnightblue" points="1424.5,-51.98 1428,-61.98 1431.5,-51.98 1424.5,-51.98"/>
</g>
<!-- Node20&#45;&gt;Node10 -->
<g id="edge21" class="edge">
<title>Node20&#45;&gt;Node10</title>
<path fill="none" stroke="midnightblue" d="M1149.53,-443.46C1119.97,-430.9 1081.9,-414.72 1059.02,-405.01"/>
<polygon fill="midnightblue" stroke="midnightblue" points="1148.23,-446.71 1158.8,-447.4 1150.97,-440.26 1148.23,-446.71"/>
</g>
<!-- Node21 -->
<g id="node21" class="node">
<title>Node21</title>
<g id="a_node21"><a xlink:href="ReverseResumableAStar_8cpp.html" target="_top" xlink:title=" ">
<polygon fill="white" stroke="black" points="1137.5,-380.5 1137.5,-410.5 1316.5,-410.5 1316.5,-380.5 1137.5,-380.5"/>
<text text-anchor="start" x="1145.5" y="-398.5" font-family="Helvetica,sans-Serif" font-size="10.00">Solvers/AStar/ReverseResumable</text>
<text text-anchor="middle" x="1227" y="-387.5" font-family="Helvetica,sans-Serif" font-size="10.00">AStar.cpp</text>
</a>
</g>
</g>
<!-- Node20&#45;&gt;Node21 -->
<g id="edge22" class="edge">
<title>Node20&#45;&gt;Node21</title>
<path fill="none" stroke="midnightblue" d="M1204.34,-438.58C1209.37,-429.24 1215.02,-418.75 1219.42,-410.58"/>
<polygon fill="midnightblue" stroke="midnightblue" points="1201.25,-436.93 1199.59,-447.4 1207.42,-440.25 1201.25,-436.93"/>
</g>
<!-- Node22&#45;&gt;Node9 -->
<g id="edge25" class="edge">
<title>Node22&#45;&gt;Node9</title>
<path fill="none" stroke="midnightblue" d="M906.15,-577.95C941.5,-565.32 987.62,-548.85 1015.18,-539.01"/>
<polygon fill="midnightblue" stroke="midnightblue" points="904.73,-574.74 896.49,-581.4 907.09,-581.33 904.73,-574.74"/>
</g>
<!-- Node23 -->
<g id="node23" class="node">
<title>Node23</title>
<g id="a_node23"><a xlink:href="ODMultiAgentAStarProblemWithConstraints_8cpp.html" target="_top" xlink:title=" ">
<polygon fill="white" stroke="black" points="574,-514.5 574,-544.5 756,-544.5 756,-514.5 574,-514.5"/>
<text text-anchor="start" x="582" y="-532.5" font-family="Helvetica,sans-Serif" font-size="10.00">AStarProblems/ODMultiAgent</text>
<text text-anchor="middle" x="665" y="-521.5" font-family="Helvetica,sans-Serif" font-size="10.00">AStarProblemWithConstraints.cpp</text>
</a>
</g>
</g>
<!-- Node22&#45;&gt;Node23 -->
<g id="edge24" class="edge">
<title>Node22&#45;&gt;Node23</title>
<path fill="none" stroke="midnightblue" d="M805.58,-578.09C774.58,-567.6 735.62,-554.41 706.58,-544.58"/>
<polygon fill="midnightblue" stroke="midnightblue" points="804.74,-581.5 815.34,-581.4 806.99,-574.87 804.74,-581.5"/>
</g>
<!-- Node24&#45;&gt;Node9 -->
<g id="edge28" class="edge">
<title>Node24&#45;&gt;Node9</title>
<path fill="none" stroke="midnightblue" d="M1039.63,-571.25C1039.45,-560.02 1039.26,-547.38 1039.13,-539.19"/>
<polygon fill="midnightblue" stroke="midnightblue" points="1036.13,-571.45 1039.78,-581.4 1043.13,-571.34 1036.13,-571.45"/>
</g>
<!-- Node25 -->
<g id="node25" class="node">
<title>Node25</title>
<g id="a_node25"><a xlink:href="StandardMultiAgentAStarProblem_8cpp.html" target="_top" xlink:title=" ">
<polygon fill="white" stroke="black" points="774,-514.5 774,-544.5 934,-544.5 934,-514.5 774,-514.5"/>
<text text-anchor="start" x="782" y="-532.5" font-family="Helvetica,sans-Serif" font-size="10.00">AStarProblems/StandardMulti</text>
<text text-anchor="middle" x="854" y="-521.5" font-family="Helvetica,sans-Serif" font-size="10.00">AgentAStarProblem.cpp</text>
</a>
</g>
</g>
<!-- Node24&#45;&gt;Node25 -->
<g id="edge27" class="edge">
<title>Node24&#45;&gt;Node25</title>
<path fill="none" stroke="midnightblue" d="M990.19,-578.09C960.16,-567.6 922.41,-554.41 894.28,-544.58"/>
<polygon fill="midnightblue" stroke="midnightblue" points="989.05,-581.4 999.64,-581.4 991.36,-574.79 989.05,-581.4"/>
</g>
<!-- Node26&#45;&gt;Node9 -->
<g id="edge31" class="edge">
<title>Node26&#45;&gt;Node9</title>
<path fill="none" stroke="midnightblue" d="M1185.25,-578.27C1146.47,-565.6 1095.44,-548.93 1065.04,-539.01"/>
<polygon fill="midnightblue" stroke="midnightblue" points="1184.23,-581.62 1194.82,-581.4 1186.4,-574.96 1184.23,-581.62"/>
</g>
<!-- Node27 -->
<g id="node27" class="node">
<title>Node27</title>
<g id="a_node27"><a xlink:href="StandardMultiAgentAStarProblemWithConstraints_8cpp.html" target="_top" xlink:title=" ">
<polygon fill="white" stroke="black" points="1144,-514.5 1144,-544.5 1354,-544.5 1354,-514.5 1144,-514.5"/>
<text text-anchor="start" x="1152" y="-532.5" font-family="Helvetica,sans-Serif" font-size="10.00">AStarProblems/StandardMulti</text>
<text text-anchor="middle" x="1249" y="-521.5" font-family="Helvetica,sans-Serif" font-size="10.00">AgentAStarProblemWithConstraints.cpp</text>
</a>
</g>
</g>
<!-- Node26&#45;&gt;Node27 -->
<g id="edge30" class="edge">
<title>Node26&#45;&gt;Node27</title>
<path fill="none" stroke="midnightblue" d="M1242.08,-571.4C1243.61,-562.37 1245.29,-552.41 1246.62,-544.58"/>
<polygon fill="midnightblue" stroke="midnightblue" points="1238.6,-570.95 1240.39,-581.4 1245.51,-572.12 1238.6,-570.95"/>
</g>
<!-- Node29&#45;&gt;Node15 -->
<g id="edge45" class="edge">
<title>Node29&#45;&gt;Node15</title>
<path fill="none" stroke="midnightblue" d="M1899.78,-652.83C1969.95,-647.77 2056.93,-636.6 2083,-612 2109.98,-586.54 2101,-567.6 2101,-530.5 2101,-530.5 2101,-530.5 2101,-271.5 2101,-172.9 1774.2,-147.94 1614.63,-141.63"/>
<polygon fill="midnightblue" stroke="midnightblue" points="1899.29,-649.36 1889.55,-653.54 1899.77,-656.34 1899.29,-649.36"/>
</g>
<!-- Node29&#45;&gt;Node19 -->
<g id="edge46" class="edge">
<title>Node29&#45;&gt;Node19</title>
<path fill="none" stroke="midnightblue" d="M1819.68,-640.96C1826.91,-632.98 1834.68,-622.75 1839,-612 1855.27,-571.51 1863.21,-553.65 1845,-514 1792.31,-399.28 1654.9,-318.7 1594.37,-287.65"/>
<polygon fill="midnightblue" stroke="midnightblue" points="1816.94,-638.76 1812.52,-648.39 1821.98,-643.62 1816.94,-638.76"/>
</g>
<!-- Node30 -->
<g id="node30" class="node">
<title>Node30</title>
<g id="a_node30"><a xlink:href="SingleAgentAStarProblem_8h.html" target="_top" xlink:title=" ">
<polygon fill="white" stroke="black" points="1383,-581.5 1383,-611.5 1533,-611.5 1533,-581.5 1383,-581.5"/>
<text text-anchor="start" x="1391" y="-599.5" font-family="Helvetica,sans-Serif" font-size="10.00">AStarProblems/SingleAgent</text>
<text text-anchor="middle" x="1458" y="-588.5" font-family="Helvetica,sans-Serif" font-size="10.00">AStarProblem.h</text>
</a>
</g>
</g>
<!-- Node29&#45;&gt;Node30 -->
<g id="edge37" class="edge">
<title>Node29&#45;&gt;Node30</title>
<path fill="none" stroke="midnightblue" d="M1743.41,-646.72C1685.13,-636.67 1596.16,-621.33 1533.07,-610.45"/>
<polygon fill="midnightblue" stroke="midnightblue" points="1743.12,-650.22 1753.57,-648.48 1744.31,-643.33 1743.12,-650.22"/>
</g>
<!-- Node32 -->
<g id="node32" class="node">
<title>Node32</title>
<g id="a_node32"><a xlink:href="SingleAgentAStarProblemWithConstraints_8h.html" target="_top" xlink:title=" ">
<polygon fill="white" stroke="black" points="1660,-581.5 1660,-611.5 1830,-611.5 1830,-581.5 1660,-581.5"/>
<text text-anchor="start" x="1668" y="-599.5" font-family="Helvetica,sans-Serif" font-size="10.00">AStarProblems/SingleAgent</text>
<text text-anchor="middle" x="1745" y="-588.5" font-family="Helvetica,sans-Serif" font-size="10.00">AStarProblemWithConstraints.h</text>
</a>
</g>
</g>
<!-- Node29&#45;&gt;Node32 -->
<g id="edge41" class="edge">
<title>Node29&#45;&gt;Node32</title>
<path fill="none" stroke="midnightblue" d="M1787.49,-641.09C1778.51,-631.88 1767.32,-620.39 1758.67,-611.52"/>
<polygon fill="midnightblue" stroke="midnightblue" points="1785.2,-643.76 1794.69,-648.48 1790.22,-638.87 1785.2,-643.76"/>
</g>
<!-- Node34 -->
<g id="node34" class="node">
<title>Node34</title>
<g id="a_node34"><a xlink:href="SingleAgentProblem_8cpp.html" target="_top" xlink:title=" ">
<polygon fill="white" stroke="black" points="1888.5,-587 1888.5,-606 2073.5,-606 2073.5,-587 1888.5,-587"/>
<text text-anchor="middle" x="1981" y="-594" font-family="Helvetica,sans-Serif" font-size="10.00">Problems/SingleAgentProblem.cpp</text>
</a>
</g>
</g>
<!-- Node29&#45;&gt;Node34 -->
<g id="edge44" class="edge">
<title>Node29&#45;&gt;Node34</title>
<path fill="none" stroke="midnightblue" d="M1838.21,-645.23C1872.81,-633.67 1924.77,-616.3 1955.54,-606.01"/>
<polygon fill="midnightblue" stroke="midnightblue" points="1836.88,-641.99 1828.5,-648.48 1839.1,-648.62 1836.88,-641.99"/>
</g>
<!-- Node30&#45;&gt;Node9 -->
<g id="edge39" class="edge">
<title>Node30&#45;&gt;Node9</title>
<path fill="none" stroke="midnightblue" d="M1372.66,-582.26C1289.36,-569.34 1165.1,-550.06 1094.08,-539.04"/>
<polygon fill="midnightblue" stroke="midnightblue" points="1372.19,-585.73 1382.61,-583.8 1373.26,-578.81 1372.19,-585.73"/>
</g>
<!-- Node30&#45;&gt;Node20 -->
<g id="edge40" class="edge">
<title>Node30&#45;&gt;Node20</title>
<path fill="none" stroke="midnightblue" d="M1434.16,-574.61C1407.37,-551.2 1367.04,-516.2 1363,-514 1332.27,-497.29 1295.35,-485.49 1263.7,-477.52"/>
<polygon fill="midnightblue" stroke="midnightblue" points="1432.16,-577.51 1441.99,-581.46 1436.76,-572.24 1432.16,-577.51"/>
</g>
<!-- Node31 -->
<g id="node31" class="node">
<title>Node31</title>
<g id="a_node31"><a xlink:href="SingleAgentAStarProblem_8cpp.html" target="_top" xlink:title=" ">
<polygon fill="white" stroke="black" points="1410,-514.5 1410,-544.5 1560,-544.5 1560,-514.5 1410,-514.5"/>
<text text-anchor="start" x="1418" y="-532.5" font-family="Helvetica,sans-Serif" font-size="10.00">AStarProblems/SingleAgent</text>
<text text-anchor="middle" x="1485" y="-521.5" font-family="Helvetica,sans-Serif" font-size="10.00">AStarProblem.cpp</text>
</a>
</g>
</g>
<!-- Node30&#45;&gt;Node31 -->
<g id="edge38" class="edge">
<title>Node30&#45;&gt;Node31</title>
<path fill="none" stroke="midnightblue" d="M1467.77,-571.99C1471.58,-562.8 1475.83,-552.58 1479.15,-544.58"/>
<polygon fill="midnightblue" stroke="midnightblue" points="1464.46,-570.82 1463.86,-581.4 1470.93,-573.5 1464.46,-570.82"/>
</g>
<!-- Node32&#45;&gt;Node9 -->
<g id="edge43" class="edge">
<title>Node32&#45;&gt;Node9</title>
<path fill="none" stroke="midnightblue" d="M1649.46,-588.38C1503.54,-577.37 1231.89,-556.31 1135,-545 1120.77,-543.34 1105.41,-541.18 1091.23,-539.04"/>
<polygon fill="midnightblue" stroke="midnightblue" points="1649.51,-591.89 1659.75,-589.16 1650.04,-584.91 1649.51,-591.89"/>
</g>
<!-- Node33 -->
<g id="node33" class="node">
<title>Node33</title>
<g id="a_node33"><a xlink:href="SingleAgentAStarProblemWithConstraints_8cpp.html" target="_top" xlink:title=" ">
<polygon fill="white" stroke="black" points="1654,-514.5 1654,-544.5 1836,-544.5 1836,-514.5 1654,-514.5"/>
<text text-anchor="start" x="1662" y="-532.5" font-family="Helvetica,sans-Serif" font-size="10.00">AStarProblems/SingleAgent</text>
<text text-anchor="middle" x="1745" y="-521.5" font-family="Helvetica,sans-Serif" font-size="10.00">AStarProblemWithConstraints.cpp</text>
</a>
</g>
</g>
<!-- Node32&#45;&gt;Node33 -->
<g id="edge42" class="edge">
<title>Node32&#45;&gt;Node33</title>
<path fill="none" stroke="midnightblue" d="M1745,-571.11C1745,-562.15 1745,-552.32 1745,-544.58"/>
<polygon fill="midnightblue" stroke="midnightblue" points="1741.5,-571.4 1745,-581.4 1748.5,-571.4 1741.5,-571.4"/>
</g>
</g>
</svg>
