<?xml version="1.0" encoding="UTF-8" standalone="no"?>
<!DOCTYPE svg PUBLIC "-//W3C//DTD SVG 1.1//EN"
 "http://www.w3.org/Graphics/SVG/1.1/DTD/svg11.dtd">
<!-- Generated by graphviz version 2.43.0 (0)
 -->
<!-- Title: GraphParser/Graph.h Pages: 1 -->
<svg width="705pt" height="140pt"
 viewBox="0.00 0.00 705.00 140.00" xmlns="http://www.w3.org/2000/svg" xmlns:xlink="http://www.w3.org/1999/xlink">
<g id="graph0" class="graph" transform="scale(1 1) rotate(0) translate(4 136)">
<title>GraphParser/Graph.h</title>
<polygon fill="white" stroke="transparent" points="-4,4 -4,-136 701,-136 701,4 -4,4"/>
<!-- Node1 -->
<g id="node1" class="node">
<title>Node1</title>
<g id="a_node1"><a xlink:title=" ">
<polygon fill="#bfbfbf" stroke="black" points="213.5,-112.5 213.5,-131.5 330.5,-131.5 330.5,-112.5 213.5,-112.5"/>
<text text-anchor="middle" x="272" y="-119.5" font-family="Helvetica,sans-Serif" font-size="10.00">GraphParser/Graph.h</text>
</a>
</g>
</g>
<!-- Node2 -->
<g id="node2" class="node">
<title>Node2</title>
<g id="a_node2"><a xlink:href="Graph_8cpp.html" target="_top" xlink:title=" ">
<polygon fill="white" stroke="black" points="0,-56.5 0,-75.5 128,-75.5 128,-56.5 0,-56.5"/>
<text text-anchor="middle" x="64" y="-63.5" font-family="Helvetica,sans-Serif" font-size="10.00">GraphParser/Graph.cpp</text>
</a>
</g>
</g>
<!-- Node1&#45;&gt;Node2 -->
<g id="edge1" class="edge">
<title>Node1&#45;&gt;Node2</title>
<path fill="none" stroke="midnightblue" d="M229.22,-109.89C189.94,-99.7 132.57,-84.8 96.8,-75.52"/>
<polygon fill="midnightblue" stroke="midnightblue" points="228.48,-113.32 239.04,-112.44 230.24,-106.54 228.48,-113.32"/>
</g>
<!-- Node3 -->
<g id="node3" class="node">
<title>Node3</title>
<g id="a_node3"><a xlink:href="Parser_8h.html" target="_top" xlink:title=" ">
<polygon fill="white" stroke="black" points="146.5,-56.5 146.5,-75.5 263.5,-75.5 263.5,-56.5 146.5,-56.5"/>
<text text-anchor="middle" x="205" y="-63.5" font-family="Helvetica,sans-Serif" font-size="10.00">GraphParser/Parser.h</text>
</a>
</g>
</g>
<!-- Node1&#45;&gt;Node3 -->
<g id="edge2" class="edge">
<title>Node1&#45;&gt;Node3</title>
<path fill="none" stroke="midnightblue" d="M253.17,-105.82C241.16,-96.15 226.03,-83.95 215.96,-75.83"/>
<polygon fill="midnightblue" stroke="midnightblue" points="251.25,-108.77 261.24,-112.32 255.65,-103.32 251.25,-108.77"/>
</g>
<!-- Node5 -->
<g id="node5" class="node">
<title>Node5</title>
<g id="a_node5"><a xlink:href="Problem_8h.html" target="_top" xlink:title=" ">
<polygon fill="white" stroke="black" points="281.5,-56.5 281.5,-75.5 396.5,-75.5 396.5,-56.5 281.5,-56.5"/>
<text text-anchor="middle" x="339" y="-63.5" font-family="Helvetica,sans-Serif" font-size="10.00">Problems/Problem.h</text>
</a>
</g>
</g>
<!-- Node1&#45;&gt;Node5 -->
<g id="edge4" class="edge">
<title>Node1&#45;&gt;Node5</title>
<path fill="none" stroke="midnightblue" d="M290.83,-105.82C302.84,-96.15 317.97,-83.95 328.04,-75.83"/>
<polygon fill="midnightblue" stroke="midnightblue" points="288.35,-103.32 282.76,-112.32 292.75,-108.77 288.35,-103.32"/>
</g>
<!-- Node10 -->
<g id="node9" class="node">
<title>Node10</title>
<g id="a_node9"><a xlink:href="HeuristicOptimal_8h.html" target="_top" xlink:title=" ">
<polygon fill="white" stroke="red" points="415,-56.5 415,-75.5 575,-75.5 575,-56.5 415,-56.5"/>
<text text-anchor="middle" x="495" y="-63.5" font-family="Helvetica,sans-Serif" font-size="10.00">Heuristics/HeuristicOptimal.h</text>
</a>
</g>
</g>
<!-- Node1&#45;&gt;Node10 -->
<g id="edge8" class="edge">
<title>Node1&#45;&gt;Node10</title>
<path fill="none" stroke="midnightblue" d="M317.06,-110.09C359.19,-99.89 421.24,-84.86 459.83,-75.52"/>
<polygon fill="midnightblue" stroke="midnightblue" points="316.23,-106.69 307.34,-112.44 317.88,-113.49 316.23,-106.69"/>
</g>
<!-- Node4 -->
<g id="node4" class="node">
<title>Node4</title>
<g id="a_node4"><a xlink:href="Parser_8cpp.html" target="_top" xlink:title=" ">
<polygon fill="white" stroke="black" points="15,-0.5 15,-19.5 143,-19.5 143,-0.5 15,-0.5"/>
<text text-anchor="middle" x="79" y="-7.5" font-family="Helvetica,sans-Serif" font-size="10.00">GraphParser/Parser.cpp</text>
</a>
</g>
</g>
<!-- Node3&#45;&gt;Node4 -->
<g id="edge3" class="edge">
<title>Node3&#45;&gt;Node4</title>
<path fill="none" stroke="midnightblue" d="M175.84,-52.5C152.22,-42.38 119.57,-28.39 98.87,-19.52"/>
<polygon fill="midnightblue" stroke="midnightblue" points="174.46,-55.72 185.03,-56.44 177.22,-49.29 174.46,-55.72"/>
</g>
<!-- Node6 -->
<g id="node6" class="node">
<title>Node6</title>
<g id="a_node6"><a xlink:href="MultiAgentProblem_8h.html" target="_top" xlink:title=" ">
<polygon fill="white" stroke="red" points="161,-0.5 161,-19.5 329,-19.5 329,-0.5 161,-0.5"/>
<text text-anchor="middle" x="245" y="-7.5" font-family="Helvetica,sans-Serif" font-size="10.00">Problems/MultiAgentProblem.h</text>
</a>
</g>
</g>
<!-- Node5&#45;&gt;Node6 -->
<g id="edge5" class="edge">
<title>Node5&#45;&gt;Node6</title>
<path fill="none" stroke="midnightblue" d="M314.94,-51.18C297.64,-41.24 274.85,-28.15 260.07,-19.65"/>
<polygon fill="midnightblue" stroke="midnightblue" points="313.48,-54.38 323.9,-56.32 316.97,-48.31 313.48,-54.38"/>
</g>
<!-- Node29 -->
<g id="node7" class="node">
<title>Node29</title>
<g id="a_node7"><a xlink:href="SingleAgentProblem_8h.html" target="_top" xlink:title=" ">
<polygon fill="white" stroke="red" points="347.5,-0.5 347.5,-19.5 520.5,-19.5 520.5,-0.5 347.5,-0.5"/>
<text text-anchor="middle" x="434" y="-7.5" font-family="Helvetica,sans-Serif" font-size="10.00">Problems/SingleAgentProblem.h</text>
</a>
</g>
</g>
<!-- Node5&#45;&gt;Node29 -->
<g id="edge6" class="edge">
<title>Node5&#45;&gt;Node29</title>
<path fill="none" stroke="midnightblue" d="M363.32,-51.18C380.8,-41.24 403.83,-28.15 418.77,-19.65"/>
<polygon fill="midnightblue" stroke="midnightblue" points="361.23,-48.34 354.26,-56.32 364.69,-54.43 361.23,-48.34"/>
</g>
<!-- Node12 -->
<g id="node8" class="node">
<title>Node12</title>
<g id="a_node8"><a xlink:href="GeneralAStar_8h.html" target="_top" xlink:title=" ">
<polygon fill="white" stroke="red" points="539,-0.5 539,-19.5 697,-19.5 697,-0.5 539,-0.5"/>
<text text-anchor="middle" x="618" y="-7.5" font-family="Helvetica,sans-Serif" font-size="10.00">Solvers/AStar/GeneralAStar.h</text>
</a>
</g>
</g>
<!-- Node5&#45;&gt;Node12 -->
<g id="edge7" class="edge">
<title>Node5&#45;&gt;Node12</title>
<path fill="none" stroke="midnightblue" d="M393.06,-54.54C445.79,-44.33 525,-29 574,-19.52"/>
<polygon fill="midnightblue" stroke="midnightblue" points="392.36,-51.11 383.21,-56.44 393.69,-57.98 392.36,-51.11"/>
</g>
</g>
</svg>
