<?xml version="1.0" encoding="UTF-8" standalone="no"?>
<!DOCTYPE svg PUBLIC "-//W3C//DTD SVG 1.1//EN"
 "http://www.w3.org/Graphics/SVG/1.1/DTD/svg11.dtd">
<!-- Generated by graphviz version 2.43.0 (0)
 -->
<!-- Title: Solvers/ID/Group.h Pages: 1 -->
<svg width="352pt" height="207pt"
 viewBox="0.00 0.00 352.00 207.00" xmlns="http://www.w3.org/2000/svg" xmlns:xlink="http://www.w3.org/1999/xlink">
<g id="graph0" class="graph" transform="scale(1 1) rotate(0) translate(4 203)">
<title>Solvers/ID/Group.h</title>
<polygon fill="white" stroke="transparent" points="-4,4 -4,-203 348,-203 348,4 -4,4"/>
<!-- Node1 -->
<g id="node1" class="node">
<title>Node1</title>
<g id="a_node1"><a xlink:title=" ">
<polygon fill="#bfbfbf" stroke="black" points="124,-179.5 124,-198.5 231,-198.5 231,-179.5 124,-179.5"/>
<text text-anchor="middle" x="177.5" y="-186.5" font-family="Helvetica,sans-Serif" font-size="10.00">Solvers/ID/Group.h</text>
</a>
</g>
</g>
<!-- Node2 -->
<g id="node2" class="node">
<title>Node2</title>
<g id="a_node2"><a xlink:href="AlreadyConflictedBeforeSet_8h.html" target="_top" xlink:title=" ">
<polygon fill="white" stroke="black" points="0,-56.5 0,-86.5 155,-86.5 155,-56.5 0,-56.5"/>
<text text-anchor="start" x="8" y="-74.5" font-family="Helvetica,sans-Serif" font-size="10.00">Solvers/ID/AlreadyConflicted</text>
<text text-anchor="middle" x="77.5" y="-63.5" font-family="Helvetica,sans-Serif" font-size="10.00">BeforeSet.h</text>
</a>
</g>
</g>
<!-- Node1&#45;&gt;Node2 -->
<g id="edge1" class="edge">
<title>Node1&#45;&gt;Node2</title>
<path fill="none" stroke="midnightblue" d="M141.27,-175.37C125.43,-168.16 107.9,-157.59 96.5,-143 83.62,-126.52 79.45,-102 78.11,-86.64"/>
<polygon fill="midnightblue" stroke="midnightblue" points="140.26,-178.75 150.84,-179.43 143,-172.3 140.26,-178.75"/>
</g>
<!-- Node5 -->
<g id="node4" class="node">
<title>Node5</title>
<g id="a_node4"><a xlink:href="GroupConflict_8h.html" target="_top" xlink:title=" ">
<polygon fill="white" stroke="black" points="105.5,-123.5 105.5,-142.5 249.5,-142.5 249.5,-123.5 105.5,-123.5"/>
<text text-anchor="middle" x="177.5" y="-130.5" font-family="Helvetica,sans-Serif" font-size="10.00">Solvers/ID/GroupConflict.h</text>
</a>
</g>
</g>
<!-- Node1&#45;&gt;Node5 -->
<g id="edge3" class="edge">
<title>Node1&#45;&gt;Node5</title>
<path fill="none" stroke="midnightblue" d="M177.5,-168.8C177.5,-159.91 177.5,-149.78 177.5,-142.75"/>
<polygon fill="midnightblue" stroke="midnightblue" points="174,-169.08 177.5,-179.08 181,-169.08 174,-169.08"/>
</g>
<!-- Node6 -->
<g id="node5" class="node">
<title>Node6</title>
<g id="a_node5"><a xlink:href="SimpleIndependenceDetection_8h.html" target="_top" xlink:title=" ">
<polygon fill="white" stroke="red" points="173,-56.5 173,-86.5 344,-86.5 344,-56.5 173,-56.5"/>
<text text-anchor="start" x="181" y="-74.5" font-family="Helvetica,sans-Serif" font-size="10.00">Solvers/ID/SimpleIndependence</text>
<text text-anchor="middle" x="258.5" y="-63.5" font-family="Helvetica,sans-Serif" font-size="10.00">Detection.h</text>
</a>
</g>
</g>
<!-- Node1&#45;&gt;Node6 -->
<g id="edge6" class="edge">
<title>Node1&#45;&gt;Node6</title>
<path fill="none" stroke="midnightblue" d="M218.02,-175.54C233.51,-168.57 249.58,-158.16 258.5,-143 268.68,-125.7 265.82,-101.63 262.44,-86.57"/>
<polygon fill="midnightblue" stroke="midnightblue" points="216.44,-172.4 208.52,-179.44 219.1,-178.88 216.44,-172.4"/>
</g>
<!-- Node3 -->
<g id="node3" class="node">
<title>Node3</title>
<g id="a_node3"><a xlink:href="IndependenceDetection_8h.html" target="_top" xlink:title=" ">
<polygon fill="white" stroke="red" points="70.5,-0.5 70.5,-19.5 264.5,-19.5 264.5,-0.5 70.5,-0.5"/>
<text text-anchor="middle" x="167.5" y="-7.5" font-family="Helvetica,sans-Serif" font-size="10.00">Solvers/ID/IndependenceDetection.h</text>
</a>
</g>
</g>
<!-- Node2&#45;&gt;Node3 -->
<g id="edge2" class="edge">
<title>Node2&#45;&gt;Node3</title>
<path fill="none" stroke="midnightblue" d="M107.33,-50.78C123.28,-40.23 142.11,-27.78 154.4,-19.66"/>
<polygon fill="midnightblue" stroke="midnightblue" points="105.24,-47.96 98.83,-56.4 109.1,-53.8 105.24,-47.96"/>
</g>
<!-- Node5&#45;&gt;Node6 -->
<g id="edge4" class="edge">
<title>Node5&#45;&gt;Node6</title>
<path fill="none" stroke="midnightblue" d="M197.28,-117.47C210.11,-108.05 226.73,-95.84 239.41,-86.52"/>
<polygon fill="midnightblue" stroke="midnightblue" points="195.09,-114.73 189.11,-123.48 199.24,-120.38 195.09,-114.73"/>
</g>
<!-- Node6&#45;&gt;Node3 -->
<g id="edge5" class="edge">
<title>Node6&#45;&gt;Node3</title>
<path fill="none" stroke="midnightblue" d="M228.33,-50.78C212.21,-40.23 193.17,-27.78 180.74,-19.66"/>
<polygon fill="midnightblue" stroke="midnightblue" points="226.65,-53.86 236.93,-56.4 230.48,-48 226.65,-53.86"/>
</g>
</g>
</svg>
