<?xml version="1.0" encoding="UTF-8" standalone="no"?>
<!DOCTYPE svg PUBLIC "-//W3C//DTD SVG 1.1//EN"
 "http://www.w3.org/Graphics/SVG/1.1/DTD/svg11.dtd">
<!-- Generated by graphviz version 2.43.0 (0)
 -->
<!-- Title: Solvers/ID/Group.h Pages: 1 -->
<svg width="397pt" height="274pt"
 viewBox="0.00 0.00 397.00 274.00" xmlns="http://www.w3.org/2000/svg" xmlns:xlink="http://www.w3.org/1999/xlink">
<g id="graph0" class="graph" transform="scale(1 1) rotate(0) translate(4 270)">
<title>Solvers/ID/Group.h</title>
<polygon fill="white" stroke="transparent" points="-4,4 -4,-270 393,-270 393,4 -4,4"/>
<!-- Node1 -->
<g id="node1" class="node">
<title>Node1</title>
<g id="a_node1"><a xlink:title=" ">
<polygon fill="#bfbfbf" stroke="black" points="149,-246.5 149,-265.5 256,-265.5 256,-246.5 149,-246.5"/>
<text text-anchor="middle" x="202.5" y="-253.5" font-family="Helvetica,sans-Serif" font-size="10.00">Solvers/ID/Group.h</text>
</a>
</g>
</g>
<!-- Node2 -->
<g id="node2" class="node">
<title>Node2</title>
<g id="a_node2"><a xlink:href="AlreadyConflictedBeforeSet_8h.html" target="_top" xlink:title=" ">
<polygon fill="white" stroke="black" points="25,-123.5 25,-153.5 180,-153.5 180,-123.5 25,-123.5"/>
<text text-anchor="start" x="33" y="-141.5" font-family="Helvetica,sans-Serif" font-size="10.00">Solvers/ID/AlreadyConflicted</text>
<text text-anchor="middle" x="102.5" y="-130.5" font-family="Helvetica,sans-Serif" font-size="10.00">BeforeSet.h</text>
</a>
</g>
</g>
<!-- Node1&#45;&gt;Node2 -->
<g id="edge1" class="edge">
<title>Node1&#45;&gt;Node2</title>
<path fill="none" stroke="midnightblue" d="M166.27,-242.37C150.43,-235.16 132.9,-224.59 121.5,-210 108.62,-193.52 104.45,-169 103.11,-153.64"/>
<polygon fill="midnightblue" stroke="midnightblue" points="165.26,-245.75 175.84,-246.43 168,-239.3 165.26,-245.75"/>
</g>
<!-- Node5 -->
<g id="node5" class="node">
<title>Node5</title>
<g id="a_node5"><a xlink:href="GroupConflict_8h.html" target="_top" xlink:title=" ">
<polygon fill="white" stroke="black" points="130.5,-190.5 130.5,-209.5 274.5,-209.5 274.5,-190.5 130.5,-190.5"/>
<text text-anchor="middle" x="202.5" y="-197.5" font-family="Helvetica,sans-Serif" font-size="10.00">Solvers/ID/GroupConflict.h</text>
</a>
</g>
</g>
<!-- Node1&#45;&gt;Node5 -->
<g id="edge4" class="edge">
<title>Node1&#45;&gt;Node5</title>
<path fill="none" stroke="midnightblue" d="M202.5,-235.8C202.5,-226.91 202.5,-216.78 202.5,-209.75"/>
<polygon fill="midnightblue" stroke="midnightblue" points="199,-236.08 202.5,-246.08 206,-236.08 199,-236.08"/>
</g>
<!-- Node6 -->
<g id="node6" class="node">
<title>Node6</title>
<g id="a_node6"><a xlink:href="SimpleIndependenceDetection_8h.html" target="_top" xlink:title=" ">
<polygon fill="white" stroke="black" points="207,-123.5 207,-153.5 378,-153.5 378,-123.5 207,-123.5"/>
<text text-anchor="start" x="215" y="-141.5" font-family="Helvetica,sans-Serif" font-size="10.00">Solvers/ID/SimpleIndependence</text>
<text text-anchor="middle" x="292.5" y="-130.5" font-family="Helvetica,sans-Serif" font-size="10.00">Detection.h</text>
</a>
</g>
</g>
<!-- Node1&#45;&gt;Node6 -->
<g id="edge8" class="edge">
<title>Node1&#45;&gt;Node6</title>
<path fill="none" stroke="midnightblue" d="M241.05,-242.42C256.69,-235.36 273.41,-224.89 283.5,-210 294.92,-193.14 295.36,-168.73 294.22,-153.5"/>
<polygon fill="midnightblue" stroke="midnightblue" points="239.4,-239.32 231.52,-246.4 242.1,-245.78 239.4,-239.32"/>
</g>
<!-- Node3 -->
<g id="node3" class="node">
<title>Node3</title>
<g id="a_node3"><a xlink:href="IndependenceDetection_8h.html" target="_top" xlink:title=" ">
<polygon fill="white" stroke="black" points="5.5,-62 5.5,-81 199.5,-81 199.5,-62 5.5,-62"/>
<text text-anchor="middle" x="102.5" y="-69" font-family="Helvetica,sans-Serif" font-size="10.00">Solvers/ID/IndependenceDetection.h</text>
</a>
</g>
</g>
<!-- Node2&#45;&gt;Node3 -->
<g id="edge2" class="edge">
<title>Node2&#45;&gt;Node3</title>
<path fill="none" stroke="midnightblue" d="M102.5,-113.25C102.5,-102.02 102.5,-89.38 102.5,-81.19"/>
<polygon fill="midnightblue" stroke="midnightblue" points="99,-113.4 102.5,-123.4 106,-113.4 99,-113.4"/>
</g>
<!-- Node4 -->
<g id="node4" class="node">
<title>Node4</title>
<g id="a_node4"><a xlink:href="IndependenceDetection_8cpp.html" target="_top" xlink:title=" ">
<polygon fill="white" stroke="black" points="0,-0.5 0,-19.5 205,-19.5 205,-0.5 0,-0.5"/>
<text text-anchor="middle" x="102.5" y="-7.5" font-family="Helvetica,sans-Serif" font-size="10.00">Solvers/ID/IndependenceDetection.cpp</text>
</a>
</g>
</g>
<!-- Node3&#45;&gt;Node4 -->
<g id="edge3" class="edge">
<title>Node3&#45;&gt;Node4</title>
<path fill="none" stroke="midnightblue" d="M102.5,-51.82C102.5,-41 102.5,-27.9 102.5,-19.51"/>
<polygon fill="midnightblue" stroke="midnightblue" points="99,-51.98 102.5,-61.98 106,-51.98 99,-51.98"/>
</g>
<!-- Node5&#45;&gt;Node6 -->
<g id="edge5" class="edge">
<title>Node5&#45;&gt;Node6</title>
<path fill="none" stroke="midnightblue" d="M224.07,-184.74C238.38,-175.28 257.06,-162.93 271.29,-153.52"/>
<polygon fill="midnightblue" stroke="midnightblue" points="221.81,-182.04 215.39,-190.48 225.67,-187.88 221.81,-182.04"/>
</g>
<!-- Node6&#45;&gt;Node3 -->
<g id="edge6" class="edge">
<title>Node6&#45;&gt;Node3</title>
<path fill="none" stroke="midnightblue" d="M241.66,-120.11C204.7,-107.46 156.26,-90.89 127.37,-81.01"/>
<polygon fill="midnightblue" stroke="midnightblue" points="240.68,-123.47 251.27,-123.4 242.94,-116.85 240.68,-123.47"/>
</g>
<!-- Node7 -->
<g id="node7" class="node">
<title>Node7</title>
<g id="a_node7"><a xlink:href="SimpleIndependenceDetection_8cpp.html" target="_top" xlink:title=" ">
<polygon fill="white" stroke="black" points="218,-56.5 218,-86.5 389,-86.5 389,-56.5 218,-56.5"/>
<text text-anchor="start" x="226" y="-74.5" font-family="Helvetica,sans-Serif" font-size="10.00">Solvers/ID/SimpleIndependence</text>
<text text-anchor="middle" x="303.5" y="-63.5" font-family="Helvetica,sans-Serif" font-size="10.00">Detection.cpp</text>
</a>
</g>
</g>
<!-- Node6&#45;&gt;Node7 -->
<g id="edge7" class="edge">
<title>Node6&#45;&gt;Node7</title>
<path fill="none" stroke="midnightblue" d="M296.58,-113.4C298.11,-104.37 299.79,-94.41 301.12,-86.58"/>
<polygon fill="midnightblue" stroke="midnightblue" points="293.1,-112.95 294.89,-123.4 300.01,-114.12 293.1,-112.95"/>
</g>
</g>
</svg>
