<?xml version="1.0" encoding="UTF-8" standalone="no"?>
<!DOCTYPE svg PUBLIC "-//W3C//DTD SVG 1.1//EN"
 "http://www.w3.org/Graphics/SVG/1.1/DTD/svg11.dtd">
<!-- Generated by graphviz version 2.43.0 (0)
 -->
<!-- Title: Heuristics/HeuristicOptimal.h Pages: 1 -->
<svg width="389pt" height="229pt"
 viewBox="0.00 0.00 389.00 229.00" xmlns="http://www.w3.org/2000/svg" xmlns:xlink="http://www.w3.org/1999/xlink">
<g id="graph0" class="graph" transform="scale(1 1) rotate(0) translate(4 225)">
<title>Heuristics/HeuristicOptimal.h</title>
<polygon fill="white" stroke="transparent" points="-4,4 -4,-225 385,-225 385,4 -4,4"/>
<!-- Node1 -->
<g id="node1" class="node">
<title>Node1</title>
<g id="a_node1"><a xlink:title=" ">
<polygon fill="#bfbfbf" stroke="black" points="131,-201.5 131,-220.5 291,-220.5 291,-201.5 131,-201.5"/>
<text text-anchor="middle" x="211" y="-208.5" font-family="Helvetica,sans-Serif" font-size="10.00">Heuristics/HeuristicOptimal.h</text>
</a>
</g>
</g>
<!-- Node2 -->
<g id="node2" class="node">
<title>Node2</title>
<g id="a_node2"><a xlink:href="Graph_8h.html" target="_top" xlink:title=" ">
<polygon fill="white" stroke="black" points="0,-140 0,-159 126,-159 126,-140 0,-140"/>
<text text-anchor="middle" x="63" y="-147" font-family="Helvetica,sans-Serif" font-size="10.00">../GraphParser/Graph.h</text>
</a>
</g>
</g>
<!-- Node1&#45;&gt;Node2 -->
<g id="edge1" class="edge">
<title>Node1&#45;&gt;Node2</title>
<path fill="none" stroke="midnightblue" d="M189.8,-201.48C164.63,-191.36 122.46,-174.4 93.72,-162.85"/>
<polygon fill="midnightblue" stroke="midnightblue" points="94.75,-159.49 84.17,-159.01 92.14,-165.99 94.75,-159.49"/>
</g>
<!-- Node3 -->
<g id="node3" class="node">
<title>Node3</title>
<g id="a_node3"><a xlink:href="ReverseResumableAStar_8h.html" target="_top" xlink:title=" ">
<polygon fill="white" stroke="black" points="144,-134.5 144,-164.5 278,-164.5 278,-134.5 144,-134.5"/>
<text text-anchor="start" x="152" y="-152.5" font-family="Helvetica,sans-Serif" font-size="10.00">../Solvers/AStar/Reverse</text>
<text text-anchor="middle" x="211" y="-141.5" font-family="Helvetica,sans-Serif" font-size="10.00">ResumableAStar.h</text>
</a>
</g>
</g>
<!-- Node1&#45;&gt;Node3 -->
<g id="edge2" class="edge">
<title>Node1&#45;&gt;Node3</title>
<path fill="none" stroke="midnightblue" d="M211,-201.48C211,-194.47 211,-184.19 211,-174.7"/>
<polygon fill="midnightblue" stroke="midnightblue" points="214.5,-174.52 211,-164.52 207.5,-174.52 214.5,-174.52"/>
</g>
<!-- Node13 -->
<g id="node5" class="node">
<title>Node13</title>
<g id="a_node5"><a xlink:href="HeuristicManhattan_8h.html" target="_top" xlink:title=" ">
<polygon fill="white" stroke="red" points="251,-67.5 251,-97.5 381,-97.5 381,-67.5 251,-67.5"/>
<text text-anchor="start" x="259" y="-85.5" font-family="Helvetica,sans-Serif" font-size="10.00">../../Heuristics/Heuristic</text>
<text text-anchor="middle" x="316" y="-74.5" font-family="Helvetica,sans-Serif" font-size="10.00">Manhattan.h</text>
</a>
</g>
</g>
<!-- Node1&#45;&gt;Node13 -->
<g id="edge7" class="edge">
<title>Node1&#45;&gt;Node13</title>
<path fill="none" stroke="midnightblue" d="M233.85,-201.48C250.67,-194.15 272.96,-182.04 287,-165 300.6,-148.49 308.04,-125.12 311.97,-107.64"/>
<polygon fill="midnightblue" stroke="midnightblue" points="315.44,-108.12 313.99,-97.63 308.58,-106.74 315.44,-108.12"/>
</g>
<!-- Node4 -->
<g id="node4" class="node">
<title>Node4</title>
<g id="a_node4"><a xlink:href="SingleAgentAStarProblem_8h.html" target="_top" xlink:title=" ">
<polygon fill="white" stroke="red" points="157,-0.5 157,-30.5 311,-30.5 311,-0.5 157,-0.5"/>
<text text-anchor="start" x="165" y="-18.5" font-family="Helvetica,sans-Serif" font-size="10.00">../../AStarProblems</text>
<text text-anchor="middle" x="234" y="-7.5" font-family="Helvetica,sans-Serif" font-size="10.00">/SingleAgentAStarProblem.h</text>
</a>
</g>
</g>
<!-- Node3&#45;&gt;Node4 -->
<g id="edge3" class="edge">
<title>Node3&#45;&gt;Node4</title>
<path fill="none" stroke="midnightblue" d="M196.39,-134.35C181.46,-118.09 161.9,-90.59 173,-67 178.73,-54.83 188.99,-44.58 199.48,-36.57"/>
<polygon fill="midnightblue" stroke="midnightblue" points="201.72,-39.27 207.86,-30.63 197.68,-33.56 201.72,-39.27"/>
</g>
<!-- Node3&#45;&gt;Node13 -->
<g id="edge4" class="edge">
<title>Node3&#45;&gt;Node13</title>
<path fill="none" stroke="midnightblue" d="M233.78,-134.4C248.64,-125.2 268.24,-113.07 284.57,-102.95"/>
<polygon fill="midnightblue" stroke="midnightblue" points="286.6,-105.82 293.26,-97.58 282.92,-99.86 286.6,-105.82"/>
</g>
<!-- Node25 -->
<g id="node6" class="node">
<title>Node25</title>
<g id="a_node6"><a xlink:href="Node_8h.html" target="_top" xlink:title=" ">
<polygon fill="white" stroke="black" points="181.5,-73 181.5,-92 232.5,-92 232.5,-73 181.5,-73"/>
<text text-anchor="middle" x="207" y="-80" font-family="Helvetica,sans-Serif" font-size="10.00">Node.h</text>
</a>
</g>
</g>
<!-- Node3&#45;&gt;Node25 -->
<g id="edge6" class="edge">
<title>Node3&#45;&gt;Node25</title>
<path fill="none" stroke="midnightblue" d="M210.13,-134.4C209.55,-124.96 208.78,-112.45 208.15,-102.19"/>
<polygon fill="midnightblue" stroke="midnightblue" points="211.64,-101.96 207.54,-92.19 204.66,-102.39 211.64,-101.96"/>
</g>
<!-- Node13&#45;&gt;Node4 -->
<g id="edge5" class="edge">
<title>Node13&#45;&gt;Node4</title>
<path fill="none" stroke="midnightblue" d="M298.21,-67.4C286.92,-58.45 272.15,-46.74 259.61,-36.8"/>
<polygon fill="midnightblue" stroke="midnightblue" points="261.77,-34.05 251.76,-30.58 257.42,-39.53 261.77,-34.05"/>
</g>
</g>
</svg>
