<?xml version="1.0" encoding="UTF-8" standalone="no"?>
<!DOCTYPE svg PUBLIC "-//W3C//DTD SVG 1.1//EN"
 "http://www.w3.org/Graphics/SVG/1.1/DTD/svg11.dtd">
<!-- Generated by graphviz version 2.43.0 (0)
 -->
<!-- Title: HeuristicOptimal.h Pages: 1 -->
<!--zoomable 486 -->
<svg id="main" version="1.1" xmlns="http://www.w3.org/2000/svg" xmlns:xlink="http://www.w3.org/1999/xlink" xml:space="preserve" onload="init(evt)">
<style type="text/css"><![CDATA[
.edge:hover path { stroke: red; }
.edge:hover polygon { stroke: red; fill: red; }
]]></style>
<script type="text/javascript"><![CDATA[
var edges = document.getElementsByTagName('g');
if (edges && edges.length) {
  for (var i=0;i<edges.length;i++) {
    if (edges[i].id.substr(0,4)=='edge') {
      edges[i].setAttribute('class','edge');
    }
  }
}
]]></script>
        <defs>
                <circle id="rim" cx="0" cy="0" r="7"/>
                <circle id="rim2" cx="0" cy="0" r="3.5"/>
                <g id="zoomPlus">
                        <use xlink:href="#rim" fill="#404040">
                                <set attributeName="fill" to="#808080" begin="zoomplus.mouseover" end="zoomplus.mouseout"/>
                        </use>
                        <path d="M-4,0h8M0,-4v8" fill="none" stroke="white" stroke-width="1.5" pointer-events="none"/>
                </g>
                <g id="zoomMin">
                        <use xlink:href="#rim" fill="#404040">
                                <set attributeName="fill" to="#808080" begin="zoomminus.mouseover" end="zoomminus.mouseout"/>
                        </use>
                        <path d="M-4,0h8" fill="none" stroke="white" stroke-width="1.5" pointer-events="none"/>
                </g>
                <g id="dirArrow">
                        <path fill="none" stroke="white" stroke-width="1.5" d="M0,-3.0v7 M-2.5,-0.5L0,-3.0L2.5,-0.5"/>
                </g>
               <g id="resetDef">
                       <use xlink:href="#rim2" fill="#404040">
                               <set attributeName="fill" to="#808080" begin="reset.mouseover" end="reset.mouseout"/>
                       </use>
               </g>
        </defs>

<script type="text/javascript">
var viewWidth = 1160;
var viewHeight = 486;
var sectionId = 'dynsection-0';
</script>
<script xlink:href="svgpan.js"/>
<svg id="graph" class="graph">
<g id="viewport">
<title>HeuristicOptimal.h</title>
<polygon fill="white" stroke="transparent" points="-4,4 -4,-482 1156,-482 1156,4 -4,4"/>
<!-- Node1 -->
<g id="node1" class="node">
<title>Node1</title>
<g id="a_node1"><a xlink:title=" ">
<polygon fill="#bfbfbf" stroke="black" points="524,-458.5 524,-477.5 632,-477.5 632,-458.5 524,-458.5"/>
<text text-anchor="middle" x="578" y="-465.5" font-family="Helvetica,sans-Serif" font-size="10.00">HeuristicOptimal.h</text>
</a>
</g>
</g>
<!-- Node2 -->
<g id="node2" class="node">
<title>Node2</title>
<g id="a_node2"><a xlink:href="Graph_8h.html" target="_top" xlink:title=" ">
<polygon fill="white" stroke="black" points="57,-62 57,-81 183,-81 183,-62 57,-62"/>
<text text-anchor="middle" x="120" y="-69" font-family="Helvetica,sans-Serif" font-size="10.00">../GraphParser/Graph.h</text>
</a>
</g>
</g>
<!-- Node1&#45;&gt;Node2 -->
<g id="edge1" class="edge">
<title>Node1&#45;&gt;Node2</title>
<path fill="none" stroke="midnightblue" d="M523.88,-466.58C380.2,-464.01 0,-447.14 0,-340.5 0,-340.5 0,-340.5 0,-204.5 0,-149.06 58.67,-106.61 93.96,-86.09"/>
<polygon fill="midnightblue" stroke="midnightblue" points="95.8,-89.08 102.81,-81.13 92.37,-82.97 95.8,-89.08"/>
</g>
<!-- Node3 -->
<g id="node3" class="node">
<title>Node3</title>
<g id="a_node3"><a xlink:href="ReverseResumableAStar_8h.html" target="_top" xlink:title=" ">
<polygon fill="white" stroke="black" points="613,-391.5 613,-421.5 747,-421.5 747,-391.5 613,-391.5"/>
<text text-anchor="start" x="621" y="-409.5" font-family="Helvetica,sans-Serif" font-size="10.00">../Solvers/AStar/Reverse</text>
<text text-anchor="middle" x="680" y="-398.5" font-family="Helvetica,sans-Serif" font-size="10.00">ResumableAStar.h</text>
</a>
</g>
</g>
<!-- Node1&#45;&gt;Node3 -->
<g id="edge2" class="edge">
<title>Node1&#45;&gt;Node3</title>
<path fill="none" stroke="midnightblue" d="M592.61,-458.48C606.82,-450.19 628.87,-437.32 647.27,-426.59"/>
<polygon fill="midnightblue" stroke="midnightblue" points="649.09,-429.58 655.96,-421.52 645.56,-423.54 649.09,-429.58"/>
</g>
<!-- Node13 -->
<g id="node13" class="node">
<title>Node13</title>
<g id="a_node13"><a xlink:href="HeuristicManhattan_8h.html" target="_top" xlink:title=" ">
<polygon fill="white" stroke="black" points="513,-324.5 513,-354.5 643,-354.5 643,-324.5 513,-324.5"/>
<text text-anchor="start" x="521" y="-342.5" font-family="Helvetica,sans-Serif" font-size="10.00">../../Heuristics/Heuristic</text>
<text text-anchor="middle" x="578" y="-331.5" font-family="Helvetica,sans-Serif" font-size="10.00">Manhattan.h</text>
</a>
</g>
</g>
<!-- Node1&#45;&gt;Node13 -->
<g id="edge42" class="edge">
<title>Node1&#45;&gt;Node13</title>
<path fill="none" stroke="midnightblue" d="M578,-458.31C578,-439.3 578,-393.47 578,-364.9"/>
<polygon fill="midnightblue" stroke="midnightblue" points="581.5,-364.89 578,-354.89 574.5,-364.89 581.5,-364.89"/>
</g>
<!-- Node4 -->
<g id="node4" class="node">
<title>Node4</title>
<g id="a_node4"><a xlink:href="SingleAgentAStarProblem_8h.html" target="_top" xlink:title=" ">
<polygon fill="white" stroke="black" points="998,-257.5 998,-287.5 1152,-287.5 1152,-257.5 998,-257.5"/>
<text text-anchor="start" x="1006" y="-275.5" font-family="Helvetica,sans-Serif" font-size="10.00">../../AStarProblems</text>
<text text-anchor="middle" x="1075" y="-264.5" font-family="Helvetica,sans-Serif" font-size="10.00">/SingleAgentAStarProblem.h</text>
</a>
</g>
</g>
<!-- Node3&#45;&gt;Node4 -->
<g id="edge3" class="edge">
<title>Node3&#45;&gt;Node4</title>
<path fill="none" stroke="midnightblue" d="M721.9,-391.5C794.63,-367.19 944.05,-317.26 1023.18,-290.82"/>
<polygon fill="midnightblue" stroke="midnightblue" points="1024.56,-294.05 1032.94,-287.56 1022.34,-287.41 1024.56,-294.05"/>
</g>
<!-- Node3&#45;&gt;Node13 -->
<g id="edge13" class="edge">
<title>Node3&#45;&gt;Node13</title>
<path fill="none" stroke="midnightblue" d="M657.87,-391.4C643.43,-382.2 624.4,-370.07 608.53,-359.95"/>
<polygon fill="midnightblue" stroke="midnightblue" points="610.4,-357 600.09,-354.58 606.64,-362.9 610.4,-357"/>
</g>
<!-- Node25 -->
<g id="node25" class="node">
<title>Node25</title>
<g id="a_node25"><a xlink:href="Node_8h.html" target="_top" xlink:title=" ">
<polygon fill="white" stroke="black" points="661.5,-330 661.5,-349 712.5,-349 712.5,-330 661.5,-330"/>
<text text-anchor="middle" x="687" y="-337" font-family="Helvetica,sans-Serif" font-size="10.00">Node.h</text>
</a>
</g>
</g>
<!-- Node3&#45;&gt;Node25 -->
<g id="edge41" class="edge">
<title>Node3&#45;&gt;Node25</title>
<path fill="none" stroke="midnightblue" d="M681.52,-391.4C682.53,-381.96 683.88,-369.45 684.99,-359.19"/>
<polygon fill="midnightblue" stroke="midnightblue" points="688.47,-359.51 686.06,-349.19 681.51,-358.76 688.47,-359.51"/>
</g>
<!-- Node5 -->
<g id="node5" class="node">
<title>Node5</title>
<g id="a_node5"><a xlink:href="SingleAgentProblem_8h.html" target="_top" xlink:title=" ">
<polygon fill="white" stroke="black" points="860,-196 860,-215 1042,-215 1042,-196 860,-196"/>
<text text-anchor="middle" x="951" y="-203" font-family="Helvetica,sans-Serif" font-size="10.00">../Problems/SingleAgentProblem.h</text>
</a>
</g>
</g>
<!-- Node4&#45;&gt;Node5 -->
<g id="edge4" class="edge">
<title>Node4&#45;&gt;Node5</title>
<path fill="none" stroke="midnightblue" d="M1048.09,-257.4C1026.72,-246.19 997.05,-230.64 976.15,-219.69"/>
<polygon fill="midnightblue" stroke="midnightblue" points="977.71,-216.55 967.23,-215.01 974.46,-222.75 977.71,-216.55"/>
</g>
<!-- Node10 -->
<g id="node10" class="node">
<title>Node10</title>
<g id="a_node10"><a xlink:href="SingleAgentState_8h.html" target="_top" xlink:title=" ">
<polygon fill="white" stroke="black" points="960,-129 960,-148 1112,-148 1112,-129 960,-129"/>
<text text-anchor="middle" x="1036" y="-136" font-family="Helvetica,sans-Serif" font-size="10.00">../States/SingleAgentState.h</text>
</a>
</g>
</g>
<!-- Node4&#45;&gt;Node10 -->
<g id="edge10" class="edge">
<title>Node4&#45;&gt;Node10</title>
<path fill="none" stroke="midnightblue" d="M1070.85,-257.36C1066.07,-241.11 1057.99,-213.62 1051,-190 1047.83,-179.29 1044.28,-167.32 1041.42,-157.71"/>
<polygon fill="midnightblue" stroke="midnightblue" points="1044.76,-156.66 1038.55,-148.08 1038.05,-158.66 1044.76,-156.66"/>
</g>
<!-- Node12 -->
<g id="node12" class="node">
<title>Node12</title>
<g id="a_node12"><a xlink:href="AStarProblem_8h.html" target="_top" xlink:title=" ">
<polygon fill="white" stroke="black" points="534,-196 534,-215 626,-215 626,-196 534,-196"/>
<text text-anchor="middle" x="580" y="-203" font-family="Helvetica,sans-Serif" font-size="10.00">AStarProblem.h</text>
</a>
</g>
</g>
<!-- Node4&#45;&gt;Node12 -->
<g id="edge12" class="edge">
<title>Node4&#45;&gt;Node12</title>
<path fill="none" stroke="midnightblue" d="M997.68,-258.22C994.75,-257.79 991.85,-257.38 989,-257 832.28,-235.84 790.6,-249.24 635,-221 629.79,-220.05 624.35,-218.87 619,-217.58"/>
<polygon fill="midnightblue" stroke="midnightblue" points="619.48,-214.09 608.92,-215.03 617.76,-220.88 619.48,-214.09"/>
</g>
<!-- Node6 -->
<g id="node6" class="node">
<title>Node6</title>
<g id="a_node6"><a xlink:href="Problem_8h.html" target="_top" xlink:title=" ">
<polygon fill="white" stroke="black" points="357,-129 357,-148 423,-148 423,-129 357,-129"/>
<text text-anchor="middle" x="390" y="-136" font-family="Helvetica,sans-Serif" font-size="10.00">Problem.h</text>
</a>
</g>
</g>
<!-- Node5&#45;&gt;Node6 -->
<g id="edge5" class="edge">
<title>Node5&#45;&gt;Node6</title>
<path fill="none" stroke="midnightblue" d="M877.37,-195.97C758.75,-182.22 528.99,-155.6 433.38,-144.53"/>
<polygon fill="midnightblue" stroke="midnightblue" points="433.54,-141.02 423.2,-143.35 432.74,-147.98 433.54,-141.02"/>
</g>
<!-- Node6&#45;&gt;Node2 -->
<g id="edge9" class="edge">
<title>Node6&#45;&gt;Node2</title>
<path fill="none" stroke="midnightblue" d="M356.89,-129.53C308.87,-117.97 219.73,-96.51 165.54,-83.46"/>
<polygon fill="midnightblue" stroke="midnightblue" points="166.06,-79.99 155.52,-81.05 164.43,-86.8 166.06,-79.99"/>
</g>
<!-- Node7 -->
<g id="node7" class="node">
<title>Node7</title>
<g id="a_node7"><a xlink:href="ConstraintsSet_8h.html" target="_top" xlink:title=" ">
<polygon fill="white" stroke="black" points="320,-56.5 320,-86.5 460,-86.5 460,-56.5 320,-56.5"/>
<text text-anchor="start" x="328" y="-74.5" font-family="Helvetica,sans-Serif" font-size="10.00">../Constraints/Constraints</text>
<text text-anchor="middle" x="390" y="-63.5" font-family="Helvetica,sans-Serif" font-size="10.00">Set.h</text>
</a>
</g>
</g>
<!-- Node6&#45;&gt;Node7 -->
<g id="edge6" class="edge">
<title>Node6&#45;&gt;Node7</title>
<path fill="none" stroke="midnightblue" d="M390,-128.73C390,-120.54 390,-107.92 390,-96.71"/>
<polygon fill="midnightblue" stroke="midnightblue" points="393.5,-96.59 390,-86.59 386.5,-96.59 393.5,-96.59"/>
</g>
<!-- Node8 -->
<g id="node8" class="node">
<title>Node8</title>
<g id="a_node8"><a xlink:href="EdgeConstraint_8h.html" target="_top" xlink:title=" ">
<polygon fill="white" stroke="black" points="279,-0.5 279,-19.5 379,-19.5 379,-0.5 279,-0.5"/>
<text text-anchor="middle" x="329" y="-7.5" font-family="Helvetica,sans-Serif" font-size="10.00">EdgeConstraint.h</text>
</a>
</g>
</g>
<!-- Node7&#45;&gt;Node8 -->
<g id="edge7" class="edge">
<title>Node7&#45;&gt;Node8</title>
<path fill="none" stroke="midnightblue" d="M375.54,-56.4C366.41,-47.49 354.58,-35.95 345.14,-26.74"/>
<polygon fill="midnightblue" stroke="midnightblue" points="347.48,-24.13 337.88,-19.66 342.59,-29.15 347.48,-24.13"/>
</g>
<!-- Node9 -->
<g id="node9" class="node">
<title>Node9</title>
<g id="a_node9"><a xlink:href="VertexConstraint_8h.html" target="_top" xlink:title=" ">
<polygon fill="white" stroke="black" points="397.5,-0.5 397.5,-19.5 504.5,-19.5 504.5,-0.5 397.5,-0.5"/>
<text text-anchor="middle" x="451" y="-7.5" font-family="Helvetica,sans-Serif" font-size="10.00">VertexConstraint.h</text>
</a>
</g>
</g>
<!-- Node7&#45;&gt;Node9 -->
<g id="edge8" class="edge">
<title>Node7&#45;&gt;Node9</title>
<path fill="none" stroke="midnightblue" d="M404.46,-56.4C413.59,-47.49 425.42,-35.95 434.86,-26.74"/>
<polygon fill="midnightblue" stroke="midnightblue" points="437.41,-29.15 442.12,-19.66 432.52,-24.13 437.41,-29.15"/>
</g>
<!-- Node11 -->
<g id="node11" class="node">
<title>Node11</title>
<g id="a_node11"><a xlink:href="State_8h.html" target="_top" xlink:title=" ">
<polygon fill="white" stroke="black" points="721.5,-62 721.5,-81 772.5,-81 772.5,-62 721.5,-62"/>
<text text-anchor="middle" x="747" y="-69" font-family="Helvetica,sans-Serif" font-size="10.00">State.h</text>
</a>
</g>
</g>
<!-- Node10&#45;&gt;Node11 -->
<g id="edge11" class="edge">
<title>Node10&#45;&gt;Node11</title>
<path fill="none" stroke="midnightblue" d="M997.92,-128.94C941.76,-116.3 837.49,-92.85 782.72,-80.53"/>
<polygon fill="midnightblue" stroke="midnightblue" points="783.29,-77.08 772.77,-78.3 781.76,-83.9 783.29,-77.08"/>
</g>
<!-- Node13&#45;&gt;Node4 -->
<g id="edge25" class="edge">
<title>Node13&#45;&gt;Node4</title>
<path fill="none" stroke="midnightblue" d="M643.39,-325.52C646.64,-324.98 649.85,-324.47 653,-324 798.34,-302.2 838.5,-308.22 987.69,-288.12"/>
<polygon fill="midnightblue" stroke="midnightblue" points="988.24,-291.58 997.68,-286.76 987.3,-284.65 988.24,-291.58"/>
</g>
<!-- Node14 -->
<g id="node14" class="node">
<title>Node14</title>
<g id="a_node14"><a xlink:href="ODMultiAgentAStarProblem_8h.html" target="_top" xlink:title=" ">
<polygon fill="white" stroke="black" points="28,-257.5 28,-287.5 168,-287.5 168,-257.5 28,-257.5"/>
<text text-anchor="start" x="36" y="-275.5" font-family="Helvetica,sans-Serif" font-size="10.00">../AStarProblems/ODMulti</text>
<text text-anchor="middle" x="98" y="-264.5" font-family="Helvetica,sans-Serif" font-size="10.00">AgentAStarProblem.h</text>
</a>
</g>
</g>
<!-- Node13&#45;&gt;Node14 -->
<g id="edge14" class="edge">
<title>Node13&#45;&gt;Node14</title>
<path fill="none" stroke="midnightblue" d="M512.9,-331.44C435.54,-322.8 302.31,-307.11 178.24,-288.14"/>
<polygon fill="midnightblue" stroke="midnightblue" points="178.59,-284.65 168.18,-286.59 177.53,-291.57 178.59,-284.65"/>
</g>
<!-- Node17 -->
<g id="node17" class="node">
<title>Node17</title>
<g id="a_node17"><a xlink:href="ODMultiAgentAStarProblemWithConstraints_8h.html" target="_top" xlink:title=" ">
<polygon fill="white" stroke="black" points="186.5,-257.5 186.5,-287.5 385.5,-287.5 385.5,-257.5 186.5,-257.5"/>
<text text-anchor="start" x="194.5" y="-275.5" font-family="Helvetica,sans-Serif" font-size="10.00">../AStarProblems/ODMulti</text>
<text text-anchor="middle" x="286" y="-264.5" font-family="Helvetica,sans-Serif" font-size="10.00">AgentAStarProblemWithConstraints.h</text>
</a>
</g>
</g>
<!-- Node13&#45;&gt;Node17 -->
<g id="edge20" class="edge">
<title>Node13&#45;&gt;Node17</title>
<path fill="none" stroke="midnightblue" d="M515,-324.48C469.22,-314.28 407.13,-300.46 359.15,-289.78"/>
<polygon fill="midnightblue" stroke="midnightblue" points="359.66,-286.31 349.14,-287.55 358.14,-293.14 359.66,-286.31"/>
</g>
<!-- Node19 -->
<g id="node19" class="node">
<title>Node19</title>
<g id="a_node19"><a xlink:href="SingleAgentAStarProblemWithConstraints_8h.html" target="_top" xlink:title=" ">
<polygon fill="white" stroke="black" points="810,-257.5 810,-287.5 980,-287.5 980,-257.5 810,-257.5"/>
<text text-anchor="start" x="818" y="-275.5" font-family="Helvetica,sans-Serif" font-size="10.00">../AStarProblems/SingleAgent</text>
<text text-anchor="middle" x="895" y="-264.5" font-family="Helvetica,sans-Serif" font-size="10.00">AStarProblemWithConstraints.h</text>
</a>
</g>
</g>
<!-- Node13&#45;&gt;Node19 -->
<g id="edge26" class="edge">
<title>Node13&#45;&gt;Node19</title>
<path fill="none" stroke="midnightblue" d="M643.3,-325.11C693.53,-314.81 763.13,-300.54 816.41,-289.61"/>
<polygon fill="midnightblue" stroke="midnightblue" points="817.41,-292.98 826.5,-287.55 816,-286.13 817.41,-292.98"/>
</g>
<!-- Node21 -->
<g id="node21" class="node">
<title>Node21</title>
<g id="a_node21"><a xlink:href="StandardMultiAgentAStarProblem_8h.html" target="_top" xlink:title=" ">
<polygon fill="white" stroke="black" points="404,-257.5 404,-287.5 550,-287.5 550,-257.5 404,-257.5"/>
<text text-anchor="start" x="412" y="-275.5" font-family="Helvetica,sans-Serif" font-size="10.00">../AStarProblems/Standard</text>
<text text-anchor="middle" x="477" y="-264.5" font-family="Helvetica,sans-Serif" font-size="10.00">MultiAgentAStarProblem.h</text>
</a>
</g>
</g>
<!-- Node13&#45;&gt;Node21 -->
<g id="edge31" class="edge">
<title>Node13&#45;&gt;Node21</title>
<path fill="none" stroke="midnightblue" d="M556.08,-324.4C541.92,-315.28 523.29,-303.29 507.67,-293.24"/>
<polygon fill="midnightblue" stroke="midnightblue" points="509.18,-290.05 498.87,-287.58 505.39,-295.93 509.18,-290.05"/>
</g>
<!-- Node23 -->
<g id="node23" class="node">
<title>Node23</title>
<g id="a_node23"><a xlink:href="StandardMultiAgentAStarProblemWithConstraints_8h.html" target="_top" xlink:title=" ">
<polygon fill="white" stroke="black" points="568,-257.5 568,-287.5 792,-287.5 792,-257.5 568,-257.5"/>
<text text-anchor="start" x="576" y="-275.5" font-family="Helvetica,sans-Serif" font-size="10.00">../AStarProblems/Standard</text>
<text text-anchor="middle" x="680" y="-264.5" font-family="Helvetica,sans-Serif" font-size="10.00">MultiAgentAStarProblemWithConstraints.h</text>
</a>
</g>
</g>
<!-- Node13&#45;&gt;Node23 -->
<g id="edge36" class="edge">
<title>Node13&#45;&gt;Node23</title>
<path fill="none" stroke="midnightblue" d="M600.13,-324.4C614.57,-315.2 633.6,-303.07 649.47,-292.95"/>
<polygon fill="midnightblue" stroke="midnightblue" points="651.36,-295.9 657.91,-287.58 647.6,-290 651.36,-295.9"/>
</g>
<!-- Node14&#45;&gt;Node12 -->
<g id="edge19" class="edge">
<title>Node14&#45;&gt;Node12</title>
<path fill="none" stroke="midnightblue" d="M168.17,-258.37C171.15,-257.89 174.1,-257.43 177,-257 314.62,-236.43 350.14,-239.84 488,-221 499.52,-219.43 511.83,-217.59 523.58,-215.77"/>
<polygon fill="midnightblue" stroke="midnightblue" points="524.39,-219.18 533.72,-214.17 523.3,-212.27 524.39,-219.18"/>
</g>
<!-- Node15 -->
<g id="node15" class="node">
<title>Node15</title>
<g id="a_node15"><a xlink:href="MultiAgentProblem_8h.html" target="_top" xlink:title=" ">
<polygon fill="white" stroke="black" points="301.5,-196 301.5,-215 478.5,-215 478.5,-196 301.5,-196"/>
<text text-anchor="middle" x="390" y="-203" font-family="Helvetica,sans-Serif" font-size="10.00">../Problems/MultiAgentProblem.h</text>
</a>
</g>
</g>
<!-- Node14&#45;&gt;Node15 -->
<g id="edge15" class="edge">
<title>Node14&#45;&gt;Node15</title>
<path fill="none" stroke="midnightblue" d="M161,-257.48C215.27,-245.4 292.45,-228.21 341.88,-217.21"/>
<polygon fill="midnightblue" stroke="midnightblue" points="342.69,-220.62 351.69,-215.03 341.17,-213.79 342.69,-220.62"/>
</g>
<!-- Node16 -->
<g id="node16" class="node">
<title>Node16</title>
<g id="a_node16"><a xlink:href="ODMultiAgentState_8h.html" target="_top" xlink:title=" ">
<polygon fill="white" stroke="black" points="124,-129 124,-148 286,-148 286,-129 124,-129"/>
<text text-anchor="middle" x="205" y="-136" font-family="Helvetica,sans-Serif" font-size="10.00">../States/ODMultiAgentState.h</text>
</a>
</g>
</g>
<!-- Node14&#45;&gt;Node16 -->
<g id="edge17" class="edge">
<title>Node14&#45;&gt;Node16</title>
<path fill="none" stroke="midnightblue" d="M97.98,-257.41C98.64,-239.95 102.09,-210.05 117,-190 130.07,-172.43 151.2,-160.01 169.48,-151.89"/>
<polygon fill="midnightblue" stroke="midnightblue" points="170.84,-155.11 178.72,-148.03 168.14,-148.65 170.84,-155.11"/>
</g>
<!-- Node15&#45;&gt;Node6 -->
<g id="edge16" class="edge">
<title>Node15&#45;&gt;Node6</title>
<path fill="none" stroke="midnightblue" d="M390,-195.73C390,-186.18 390,-170.62 390,-158.28"/>
<polygon fill="midnightblue" stroke="midnightblue" points="393.5,-158.13 390,-148.13 386.5,-158.13 393.5,-158.13"/>
</g>
<!-- Node16&#45;&gt;Node11 -->
<g id="edge18" class="edge">
<title>Node16&#45;&gt;Node11</title>
<path fill="none" stroke="midnightblue" d="M276.14,-128.97C393.43,-114.9 623.19,-87.35 711.37,-76.77"/>
<polygon fill="midnightblue" stroke="midnightblue" points="711.89,-80.24 721.41,-75.57 711.06,-73.29 711.89,-80.24"/>
</g>
<!-- Node17&#45;&gt;Node12 -->
<g id="edge24" class="edge">
<title>Node17&#45;&gt;Node12</title>
<path fill="none" stroke="midnightblue" d="M349.43,-257.48C404.07,-245.4 481.78,-228.21 531.55,-217.21"/>
<polygon fill="midnightblue" stroke="midnightblue" points="532.42,-220.6 541.42,-215.03 530.9,-213.77 532.42,-220.6"/>
</g>
<!-- Node17&#45;&gt;Node15 -->
<g id="edge21" class="edge">
<title>Node17&#45;&gt;Node15</title>
<path fill="none" stroke="midnightblue" d="M308.57,-257.4C326.01,-246.5 350.03,-231.48 367.47,-220.58"/>
<polygon fill="midnightblue" stroke="midnightblue" points="369.76,-223.28 376.39,-215.01 366.05,-217.34 369.76,-223.28"/>
</g>
<!-- Node18 -->
<g id="node18" class="node">
<title>Node18</title>
<g id="a_node18"><a xlink:href="ODMultiAgentSpaceTimeState_8h.html" target="_top" xlink:title=" ">
<polygon fill="white" stroke="black" points="126.5,-190.5 126.5,-220.5 283.5,-220.5 283.5,-190.5 126.5,-190.5"/>
<text text-anchor="start" x="134.5" y="-208.5" font-family="Helvetica,sans-Serif" font-size="10.00">../States/ODMultiAgentSpace</text>
<text text-anchor="middle" x="205" y="-197.5" font-family="Helvetica,sans-Serif" font-size="10.00">TimeState.h</text>
</a>
</g>
</g>
<!-- Node17&#45;&gt;Node18 -->
<g id="edge22" class="edge">
<title>Node17&#45;&gt;Node18</title>
<path fill="none" stroke="midnightblue" d="M268.42,-257.4C257.39,-248.54 242.96,-236.96 230.65,-227.09"/>
<polygon fill="midnightblue" stroke="midnightblue" points="232.53,-224.11 222.54,-220.58 228.15,-229.56 232.53,-224.11"/>
</g>
<!-- Node18&#45;&gt;Node16 -->
<g id="edge23" class="edge">
<title>Node18&#45;&gt;Node16</title>
<path fill="none" stroke="midnightblue" d="M205,-190.4C205,-181.06 205,-168.71 205,-158.52"/>
<polygon fill="midnightblue" stroke="midnightblue" points="208.5,-158.19 205,-148.19 201.5,-158.19 208.5,-158.19"/>
</g>
<!-- Node19&#45;&gt;Node5 -->
<g id="edge27" class="edge">
<title>Node19&#45;&gt;Node5</title>
<path fill="none" stroke="midnightblue" d="M907.15,-257.4C915.88,-247.26 927.68,-233.57 936.84,-222.94"/>
<polygon fill="midnightblue" stroke="midnightblue" points="939.63,-225.06 943.51,-215.19 934.33,-220.49 939.63,-225.06"/>
</g>
<!-- Node19&#45;&gt;Node12 -->
<g id="edge30" class="edge">
<title>Node19&#45;&gt;Node12</title>
<path fill="none" stroke="midnightblue" d="M815.64,-257.49C764,-248.03 695.29,-234.79 635,-221 630.37,-219.94 625.54,-218.77 620.75,-217.56"/>
<polygon fill="midnightblue" stroke="midnightblue" points="621.59,-214.17 611.03,-215.06 619.85,-220.95 621.59,-214.17"/>
</g>
<!-- Node20 -->
<g id="node20" class="node">
<title>Node20</title>
<g id="a_node20"><a xlink:href="SingleAgentSpaceTimeState_8h.html" target="_top" xlink:title=" ">
<polygon fill="white" stroke="black" points="758.5,-123.5 758.5,-153.5 905.5,-153.5 905.5,-123.5 758.5,-123.5"/>
<text text-anchor="start" x="766.5" y="-141.5" font-family="Helvetica,sans-Serif" font-size="10.00">../States/SingleAgentSpace</text>
<text text-anchor="middle" x="832" y="-130.5" font-family="Helvetica,sans-Serif" font-size="10.00">TimeState.h</text>
</a>
</g>
</g>
<!-- Node19&#45;&gt;Node20 -->
<g id="edge28" class="edge">
<title>Node19&#45;&gt;Node20</title>
<path fill="none" stroke="midnightblue" d="M879.38,-257.48C869.82,-248.06 858.1,-234.87 851,-221 841.83,-203.07 837.02,-180.66 834.53,-163.88"/>
<polygon fill="midnightblue" stroke="midnightblue" points="837.98,-163.23 833.22,-153.77 831.04,-164.14 837.98,-163.23"/>
</g>
<!-- Node20&#45;&gt;Node11 -->
<g id="edge29" class="edge">
<title>Node20&#45;&gt;Node11</title>
<path fill="none" stroke="midnightblue" d="M813.56,-123.4C799.65,-112.76 780.61,-98.2 766.46,-87.38"/>
<polygon fill="midnightblue" stroke="midnightblue" points="768.44,-84.49 758.37,-81.19 764.19,-90.05 768.44,-84.49"/>
</g>
<!-- Node21&#45;&gt;Node12 -->
<g id="edge35" class="edge">
<title>Node21&#45;&gt;Node12</title>
<path fill="none" stroke="midnightblue" d="M499.35,-257.4C516.62,-246.5 540.42,-231.48 557.68,-220.58"/>
<polygon fill="midnightblue" stroke="midnightblue" points="559.93,-223.3 566.52,-215.01 556.19,-217.38 559.93,-223.3"/>
</g>
<!-- Node21&#45;&gt;Node15 -->
<g id="edge32" class="edge">
<title>Node21&#45;&gt;Node15</title>
<path fill="none" stroke="midnightblue" d="M458.12,-257.4C443.89,-246.76 424.4,-232.2 409.92,-221.38"/>
<polygon fill="midnightblue" stroke="midnightblue" points="411.74,-218.38 401.64,-215.19 407.55,-223.98 411.74,-218.38"/>
</g>
<!-- Node22 -->
<g id="node22" class="node">
<title>Node22</title>
<g id="a_node22"><a xlink:href="StandardMultiAgentState_8h.html" target="_top" xlink:title=" ">
<polygon fill="white" stroke="black" points="584,-123.5 584,-153.5 740,-153.5 740,-123.5 584,-123.5"/>
<text text-anchor="start" x="592" y="-141.5" font-family="Helvetica,sans-Serif" font-size="10.00">../States/StandardMultiAgent</text>
<text text-anchor="middle" x="662" y="-130.5" font-family="Helvetica,sans-Serif" font-size="10.00">State.h</text>
</a>
</g>
</g>
<!-- Node21&#45;&gt;Node22 -->
<g id="edge33" class="edge">
<title>Node21&#45;&gt;Node22</title>
<path fill="none" stroke="midnightblue" d="M481.87,-257.41C488.78,-239.38 503.07,-208.32 525,-190 542.88,-175.07 565.58,-164.35 587.33,-156.74"/>
<polygon fill="midnightblue" stroke="midnightblue" points="588.52,-160.03 596.91,-153.56 586.31,-153.39 588.52,-160.03"/>
</g>
<!-- Node22&#45;&gt;Node11 -->
<g id="edge34" class="edge">
<title>Node22&#45;&gt;Node11</title>
<path fill="none" stroke="midnightblue" d="M680.44,-123.4C694.35,-112.76 713.39,-98.2 727.54,-87.38"/>
<polygon fill="midnightblue" stroke="midnightblue" points="729.81,-90.05 735.63,-81.19 725.56,-84.49 729.81,-90.05"/>
</g>
<!-- Node23&#45;&gt;Node12 -->
<g id="edge40" class="edge">
<title>Node23&#45;&gt;Node12</title>
<path fill="none" stroke="midnightblue" d="M658.3,-257.4C641.53,-246.5 618.43,-231.48 601.67,-220.58"/>
<polygon fill="midnightblue" stroke="midnightblue" points="603.38,-217.52 593.09,-215.01 599.56,-223.39 603.38,-217.52"/>
</g>
<!-- Node23&#45;&gt;Node15 -->
<g id="edge37" class="edge">
<title>Node23&#45;&gt;Node15</title>
<path fill="none" stroke="midnightblue" d="M617.43,-257.48C563.65,-245.42 487.2,-228.29 438.1,-217.28"/>
<polygon fill="midnightblue" stroke="midnightblue" points="438.57,-213.8 428.05,-215.03 437.04,-220.63 438.57,-213.8"/>
</g>
<!-- Node24 -->
<g id="node24" class="node">
<title>Node24</title>
<g id="a_node24"><a xlink:href="StandardMultiAgentSpaceTimeState_8h.html" target="_top" xlink:title=" ">
<polygon fill="white" stroke="black" points="644,-190.5 644,-220.5 800,-220.5 800,-190.5 644,-190.5"/>
<text text-anchor="start" x="652" y="-208.5" font-family="Helvetica,sans-Serif" font-size="10.00">../States/StandardMultiAgent</text>
<text text-anchor="middle" x="722" y="-197.5" font-family="Helvetica,sans-Serif" font-size="10.00">SpaceTimeState.h</text>
</a>
</g>
</g>
<!-- Node23&#45;&gt;Node24 -->
<g id="edge38" class="edge">
<title>Node23&#45;&gt;Node24</title>
<path fill="none" stroke="midnightblue" d="M689.11,-257.4C694.45,-249.13 701.32,-238.51 707.4,-229.1"/>
<polygon fill="midnightblue" stroke="midnightblue" points="710.42,-230.88 712.9,-220.58 704.54,-227.08 710.42,-230.88"/>
</g>
<!-- Node24&#45;&gt;Node22 -->
<g id="edge39" class="edge">
<title>Node24&#45;&gt;Node22</title>
<path fill="none" stroke="midnightblue" d="M708.98,-190.4C701.04,-181.79 690.73,-170.63 681.8,-160.94"/>
<polygon fill="midnightblue" stroke="midnightblue" points="684.35,-158.55 674.99,-153.58 679.2,-163.3 684.35,-158.55"/>
</g>
</g>
</svg>
        <g id="navigator" transform="translate(0 0)" fill="#404254">
                <rect fill="#f2f5e9" fill-opacity="0.5" stroke="#606060" stroke-width=".5" x="0" y="0" width="60" height="60"/>
                <use id="zoomplus" xlink:href="#zoomPlus" x="17" y="9" onmousedown="handleZoom(evt,'in')"/>
                <use id="zoomminus" xlink:href="#zoomMin" x="42" y="9" onmousedown="handleZoom(evt,'out')"/>
                <use id="reset" xlink:href="#resetDef" x="30" y="36" onmousedown="handleReset()"/>
                <g id="arrowUp" xlink:href="#dirArrow" transform="translate(30 24)" onmousedown="handlePan(0,-1)">
                  <use xlink:href="#rim" fill="#404040">
                        <set attributeName="fill" to="#808080" begin="arrowUp.mouseover" end="arrowUp.mouseout"/>
                  </use>
                  <path fill="none" stroke="white" stroke-width="1.5" d="M0,-3.0v7 M-2.5,-0.5L0,-3.0L2.5,-0.5"/>
                </g>
                <g id="arrowRight" xlink:href="#dirArrow" transform="rotate(90) translate(36 -43)" onmousedown="handlePan(1,0)">
                  <use xlink:href="#rim" fill="#404040">
                        <set attributeName="fill" to="#808080" begin="arrowRight.mouseover" end="arrowRight.mouseout"/>
                  </use>
                  <path fill="none" stroke="white" stroke-width="1.5" d="M0,-3.0v7 M-2.5,-0.5L0,-3.0L2.5,-0.5"/>
                </g>
                <g id="arrowDown" xlink:href="#dirArrow" transform="rotate(180) translate(-30 -48)" onmousedown="handlePan(0,1)">
                  <use xlink:href="#rim" fill="#404040">
                        <set attributeName="fill" to="#808080" begin="arrowDown.mouseover" end="arrowDown.mouseout"/>
                  </use>
                  <path fill="none" stroke="white" stroke-width="1.5" d="M0,-3.0v7 M-2.5,-0.5L0,-3.0L2.5,-0.5"/>
                </g>
                <g id="arrowLeft" xlink:href="#dirArrow" transform="rotate(270) translate(-36 17)" onmousedown="handlePan(-1,0)">
                  <use xlink:href="#rim" fill="#404040">
                        <set attributeName="fill" to="#808080" begin="arrowLeft.mouseover" end="arrowLeft.mouseout"/>
                  </use>
                  <path fill="none" stroke="white" stroke-width="1.5" d="M0,-3.0v7 M-2.5,-0.5L0,-3.0L2.5,-0.5"/>
                </g>
        </g>
        <svg viewBox="0 0 15 15" width="100%" height="30px" preserveAspectRatio="xMaxYMin meet">
         <g id="arrow_out" transform="scale(0.3 0.3)">
          <a xlink:href="HeuristicOptimal_8h__incl_org.svg" target="_base">
           <rect id="button" ry="5" rx="5" y="6" x="6" height="38" width="38"
                fill="#f2f5e9" fill-opacity="0.5" stroke="#606060" stroke-width="1.0"/>
           <path id="arrow"
             d="M 11.500037,31.436501 C 11.940474,20.09759 22.043105,11.32322 32.158766,21.979434 L 37.068811,17.246167 C 37.068811,17.246167 37.088388,32 37.088388,32 L 22.160133,31.978069 C 22.160133,31.978069 26.997745,27.140456 26.997745,27.140456 C 18.528582,18.264221 13.291696,25.230495 11.500037,31.436501 z"
             style="fill:#404040;"/>
          </a>
         </g>
        </svg>
</svg>
