<?xml version="1.0" encoding="UTF-8" standalone="no"?>
<!DOCTYPE svg PUBLIC "-//W3C//DTD SVG 1.1//EN"
 "http://www.w3.org/Graphics/SVG/1.1/DTD/svg11.dtd">
<!-- Generated by graphviz version 2.43.0 (0)
 -->
<!-- Title: Heuristics/HeuristicManhattan.h Pages: 1 -->
<svg width="366pt" height="218pt"
 viewBox="0.00 0.00 365.50 218.00" xmlns="http://www.w3.org/2000/svg" xmlns:xlink="http://www.w3.org/1999/xlink">
<g id="graph0" class="graph" transform="scale(1 1) rotate(0) translate(4 214)">
<title>Heuristics/HeuristicManhattan.h</title>
<polygon fill="white" stroke="transparent" points="-4,4 -4,-214 361.5,-214 361.5,4 -4,4"/>
<!-- Node1 -->
<g id="node1" class="node">
<title>Node1</title>
<g id="a_node1"><a xlink:title=" ">
<polygon fill="#bfbfbf" stroke="black" points="52.5,-190.5 52.5,-209.5 225.5,-209.5 225.5,-190.5 52.5,-190.5"/>
<text text-anchor="middle" x="139" y="-197.5" font-family="Helvetica,sans-Serif" font-size="10.00">Heuristics/HeuristicManhattan.h</text>
</a>
</g>
</g>
<!-- Node2 -->
<g id="node2" class="node">
<title>Node2</title>
<g id="a_node2"><a xlink:href="HeuristicOptimal_8h.html" target="_top" xlink:title=" ">
<polygon fill="white" stroke="black" points="0,-62 0,-81 160,-81 160,-62 0,-62"/>
<text text-anchor="middle" x="80" y="-69" font-family="Helvetica,sans-Serif" font-size="10.00">Heuristics/HeuristicOptimal.h</text>
</a>
</g>
</g>
<!-- Node1&#45;&gt;Node2 -->
<g id="edge1" class="edge">
<title>Node1&#45;&gt;Node2</title>
<path fill="none" stroke="midnightblue" d="M121.91,-183.11C114.18,-175.07 105.56,-164.74 100,-154 87.28,-129.41 82.43,-96.43 80.77,-81.06"/>
<polygon fill="midnightblue" stroke="midnightblue" points="119.62,-185.77 129.19,-190.32 124.55,-180.8 119.62,-185.77"/>
</g>
<!-- Node12 -->
<g id="node4" class="node">
<title>Node12</title>
<g id="a_node4"><a xlink:href="ReverseResumableAStar_8h.html" target="_top" xlink:title=" ">
<polygon fill="white" stroke="black" points="108.5,-123.5 108.5,-153.5 287.5,-153.5 287.5,-123.5 108.5,-123.5"/>
<text text-anchor="start" x="116.5" y="-141.5" font-family="Helvetica,sans-Serif" font-size="10.00">Solvers/AStar/ReverseResumable</text>
<text text-anchor="middle" x="198" y="-130.5" font-family="Helvetica,sans-Serif" font-size="10.00">AStar.h</text>
</a>
</g>
</g>
<!-- Node1&#45;&gt;Node12 -->
<g id="edge3" class="edge">
<title>Node1&#45;&gt;Node12</title>
<path fill="none" stroke="midnightblue" d="M154.5,-183.37C163.68,-174.11 175.21,-162.48 184.09,-153.52"/>
<polygon fill="midnightblue" stroke="midnightblue" points="152.01,-180.91 147.45,-190.48 156.98,-185.84 152.01,-180.91"/>
</g>
<!-- Node3 -->
<g id="node3" class="node">
<title>Node3</title>
<g id="a_node3"><a xlink:href="AStar_8h.html" target="_top" xlink:title=" ">
<polygon fill="white" stroke="red" points="20.5,-0.5 20.5,-19.5 139.5,-19.5 139.5,-0.5 20.5,-0.5"/>
<text text-anchor="middle" x="80" y="-7.5" font-family="Helvetica,sans-Serif" font-size="10.00">Solvers/AStar/AStar.h</text>
</a>
</g>
</g>
<!-- Node2&#45;&gt;Node3 -->
<g id="edge2" class="edge">
<title>Node2&#45;&gt;Node3</title>
<path fill="none" stroke="midnightblue" d="M80,-51.82C80,-41 80,-27.9 80,-19.51"/>
<polygon fill="midnightblue" stroke="midnightblue" points="76.5,-51.98 80,-61.98 83.5,-51.98 76.5,-51.98"/>
</g>
<!-- Node12&#45;&gt;Node2 -->
<g id="edge4" class="edge">
<title>Node12&#45;&gt;Node2</title>
<path fill="none" stroke="midnightblue" d="M163.46,-118.47C140.93,-106.06 112.63,-90.47 95.44,-81.01"/>
<polygon fill="midnightblue" stroke="midnightblue" points="161.95,-121.64 172.4,-123.4 165.33,-115.51 161.95,-121.64"/>
</g>
<!-- Node13 -->
<g id="node5" class="node">
<title>Node13</title>
<g id="a_node5"><a xlink:href="ReverseResumableAStar_8cpp.html" target="_top" xlink:title=" ">
<polygon fill="white" stroke="black" points="178.5,-56.5 178.5,-86.5 357.5,-86.5 357.5,-56.5 178.5,-56.5"/>
<text text-anchor="start" x="186.5" y="-74.5" font-family="Helvetica,sans-Serif" font-size="10.00">Solvers/AStar/ReverseResumable</text>
<text text-anchor="middle" x="268" y="-63.5" font-family="Helvetica,sans-Serif" font-size="10.00">AStar.cpp</text>
</a>
</g>
</g>
<!-- Node12&#45;&gt;Node13 -->
<g id="edge5" class="edge">
<title>Node12&#45;&gt;Node13</title>
<path fill="none" stroke="midnightblue" d="M220.82,-116.31C231.32,-106.56 243.49,-95.26 252.84,-86.58"/>
<polygon fill="midnightblue" stroke="midnightblue" points="218.14,-114.03 213.19,-123.4 222.9,-119.16 218.14,-114.03"/>
</g>
</g>
</svg>
