<?xml version="1.0" encoding="UTF-8" standalone="no"?>
<!DOCTYPE svg PUBLIC "-//W3C//DTD SVG 1.1//EN"
 "http://www.w3.org/Graphics/SVG/1.1/DTD/svg11.dtd">
<!-- Generated by graphviz version 2.43.0 (0)
 -->
<!-- Title: Heuristics/HeuristicManhattan.h Pages: 1 -->
<!--zoomable 352 -->
<svg id="main" version="1.1" xmlns="http://www.w3.org/2000/svg" xmlns:xlink="http://www.w3.org/1999/xlink" xml:space="preserve" onload="init(evt)">
<style type="text/css"><![CDATA[
.edge:hover path { stroke: red; }
.edge:hover polygon { stroke: red; fill: red; }
]]></style>
<script type="text/javascript"><![CDATA[
var edges = document.getElementsByTagName('g');
if (edges && edges.length) {
  for (var i=0;i<edges.length;i++) {
    if (edges[i].id.substr(0,4)=='edge') {
      edges[i].setAttribute('class','edge');
    }
  }
}
]]></script>
        <defs>
                <circle id="rim" cx="0" cy="0" r="7"/>
                <circle id="rim2" cx="0" cy="0" r="3.5"/>
                <g id="zoomPlus">
                        <use xlink:href="#rim" fill="#404040">
                                <set attributeName="fill" to="#808080" begin="zoomplus.mouseover" end="zoomplus.mouseout"/>
                        </use>
                        <path d="M-4,0h8M0,-4v8" fill="none" stroke="white" stroke-width="1.5" pointer-events="none"/>
                </g>
                <g id="zoomMin">
                        <use xlink:href="#rim" fill="#404040">
                                <set attributeName="fill" to="#808080" begin="zoomminus.mouseover" end="zoomminus.mouseout"/>
                        </use>
                        <path d="M-4,0h8" fill="none" stroke="white" stroke-width="1.5" pointer-events="none"/>
                </g>
                <g id="dirArrow">
                        <path fill="none" stroke="white" stroke-width="1.5" d="M0,-3.0v7 M-2.5,-0.5L0,-3.0L2.5,-0.5"/>
                </g>
               <g id="resetDef">
                       <use xlink:href="#rim2" fill="#404040">
                               <set attributeName="fill" to="#808080" begin="reset.mouseover" end="reset.mouseout"/>
                       </use>
               </g>
        </defs>

<script type="text/javascript">
var viewWidth = 1138;
var viewHeight = 352;
var sectionId = 'dynsection-0';
</script>
<script xlink:href="svgpan.js"/>
<svg id="graph" class="graph">
<g id="viewport">
<title>Heuristics/HeuristicManhattan.h</title>
<polygon fill="white" stroke="transparent" points="-4,4 -4,-348 1134,-348 1134,4 -4,4"/>
<!-- Node1 -->
<g id="node1" class="node">
<title>Node1</title>
<g id="a_node1"><a xlink:title=" ">
<polygon fill="#bfbfbf" stroke="black" points="513.5,-324.5 513.5,-343.5 686.5,-343.5 686.5,-324.5 513.5,-324.5"/>
<text text-anchor="middle" x="600" y="-331.5" font-family="Helvetica,sans-Serif" font-size="10.00">Heuristics/HeuristicManhattan.h</text>
</a>
</g>
</g>
<!-- Node2 -->
<g id="node2" class="node">
<title>Node2</title>
<g id="a_node2"><a xlink:href="ODMultiAgentAStarProblem_8h.html" target="_top" xlink:title=" ">
<polygon fill="white" stroke="black" points="624,-257.5 624,-287.5 764,-287.5 764,-257.5 624,-257.5"/>
<text text-anchor="start" x="632" y="-275.5" font-family="Helvetica,sans-Serif" font-size="10.00">../AStarProblems/ODMulti</text>
<text text-anchor="middle" x="694" y="-264.5" font-family="Helvetica,sans-Serif" font-size="10.00">AgentAStarProblem.h</text>
</a>
</g>
</g>
<!-- Node1&#45;&gt;Node2 -->
<g id="edge1" class="edge">
<title>Node1&#45;&gt;Node2</title>
<path fill="none" stroke="midnightblue" d="M613.47,-324.48C626.44,-316.27 646.51,-303.56 663.38,-292.88"/>
<polygon fill="midnightblue" stroke="midnightblue" points="665.27,-295.83 671.85,-287.52 661.52,-289.91 665.27,-295.83"/>
</g>
<!-- Node12 -->
<g id="node12" class="node">
<title>Node12</title>
<g id="a_node12"><a xlink:href="ODMultiAgentAStarProblemWithConstraints_8h.html" target="_top" xlink:title=" ">
<polygon fill="white" stroke="black" points="406.5,-257.5 406.5,-287.5 605.5,-287.5 605.5,-257.5 406.5,-257.5"/>
<text text-anchor="start" x="414.5" y="-275.5" font-family="Helvetica,sans-Serif" font-size="10.00">../AStarProblems/ODMulti</text>
<text text-anchor="middle" x="506" y="-264.5" font-family="Helvetica,sans-Serif" font-size="10.00">AgentAStarProblemWithConstraints.h</text>
</a>
</g>
</g>
<!-- Node1&#45;&gt;Node12 -->
<g id="edge11" class="edge">
<title>Node1&#45;&gt;Node12</title>
<path fill="none" stroke="midnightblue" d="M586.53,-324.48C573.56,-316.27 553.49,-303.56 536.62,-292.88"/>
<polygon fill="midnightblue" stroke="midnightblue" points="538.48,-289.91 528.15,-287.52 534.73,-295.83 538.48,-289.91"/>
</g>
<!-- Node14 -->
<g id="node14" class="node">
<title>Node14</title>
<g id="a_node14"><a xlink:href="SingleAgentAStarProblem_8h.html" target="_top" xlink:title=" ">
<polygon fill="white" stroke="black" points="782.5,-257.5 782.5,-287.5 941.5,-287.5 941.5,-257.5 782.5,-257.5"/>
<text text-anchor="start" x="790.5" y="-275.5" font-family="Helvetica,sans-Serif" font-size="10.00">../AStarProblems/SingleAgent</text>
<text text-anchor="middle" x="862" y="-264.5" font-family="Helvetica,sans-Serif" font-size="10.00">AStarProblem.h</text>
</a>
</g>
</g>
<!-- Node1&#45;&gt;Node14 -->
<g id="edge16" class="edge">
<title>Node1&#45;&gt;Node14</title>
<path fill="none" stroke="midnightblue" d="M637.54,-324.48C677.25,-315.46 740.87,-301.01 790.26,-289.79"/>
<polygon fill="midnightblue" stroke="midnightblue" points="791.28,-293.15 800.25,-287.52 789.72,-286.32 791.28,-293.15"/>
</g>
<!-- Node17 -->
<g id="node17" class="node">
<title>Node17</title>
<g id="a_node17"><a xlink:href="SingleAgentAStarProblemWithConstraints_8h.html" target="_top" xlink:title=" ">
<polygon fill="white" stroke="black" points="960,-257.5 960,-287.5 1130,-287.5 1130,-257.5 960,-257.5"/>
<text text-anchor="start" x="968" y="-275.5" font-family="Helvetica,sans-Serif" font-size="10.00">../AStarProblems/SingleAgent</text>
<text text-anchor="middle" x="1045" y="-264.5" font-family="Helvetica,sans-Serif" font-size="10.00">AStarProblemWithConstraints.h</text>
</a>
</g>
</g>
<!-- Node1&#45;&gt;Node17 -->
<g id="edge22" class="edge">
<title>Node1&#45;&gt;Node17</title>
<path fill="none" stroke="midnightblue" d="M670.66,-324.48C739.38,-316.07 846.99,-302.58 950.01,-288.12"/>
<polygon fill="midnightblue" stroke="midnightblue" points="950.55,-291.58 959.96,-286.72 949.57,-284.65 950.55,-291.58"/>
</g>
<!-- Node19 -->
<g id="node19" class="node">
<title>Node19</title>
<g id="a_node19"><a xlink:href="StandardMultiAgentAStarProblem_8h.html" target="_top" xlink:title=" ">
<polygon fill="white" stroke="black" points="242,-257.5 242,-287.5 388,-287.5 388,-257.5 242,-257.5"/>
<text text-anchor="start" x="250" y="-275.5" font-family="Helvetica,sans-Serif" font-size="10.00">../AStarProblems/Standard</text>
<text text-anchor="middle" x="315" y="-264.5" font-family="Helvetica,sans-Serif" font-size="10.00">MultiAgentAStarProblem.h</text>
</a>
</g>
</g>
<!-- Node1&#45;&gt;Node19 -->
<g id="edge27" class="edge">
<title>Node1&#45;&gt;Node19</title>
<path fill="none" stroke="midnightblue" d="M559.17,-324.48C515.7,-315.4 445.89,-300.83 392.03,-289.58"/>
<polygon fill="midnightblue" stroke="midnightblue" points="392.67,-286.14 382.17,-287.52 391.24,-292.99 392.67,-286.14"/>
</g>
<!-- Node21 -->
<g id="node21" class="node">
<title>Node21</title>
<g id="a_node21"><a xlink:href="StandardMultiAgentAStarProblemWithConstraints_8h.html" target="_top" xlink:title=" ">
<polygon fill="white" stroke="black" points="0,-257.5 0,-287.5 224,-287.5 224,-257.5 0,-257.5"/>
<text text-anchor="start" x="8" y="-275.5" font-family="Helvetica,sans-Serif" font-size="10.00">../AStarProblems/Standard</text>
<text text-anchor="middle" x="112" y="-264.5" font-family="Helvetica,sans-Serif" font-size="10.00">MultiAgentAStarProblemWithConstraints.h</text>
</a>
</g>
</g>
<!-- Node1&#45;&gt;Node21 -->
<g id="edge32" class="edge">
<title>Node1&#45;&gt;Node21</title>
<path fill="none" stroke="midnightblue" d="M530.08,-324.48C453.03,-315.08 327.67,-299.8 234.28,-288.41"/>
<polygon fill="midnightblue" stroke="midnightblue" points="234.55,-284.92 224.2,-287.18 233.7,-291.86 234.55,-284.92"/>
</g>
<!-- Node3 -->
<g id="node3" class="node">
<title>Node3</title>
<g id="a_node3"><a xlink:href="MultiAgentProblem_8h.html" target="_top" xlink:title=" ">
<polygon fill="white" stroke="black" points="269.5,-196 269.5,-215 446.5,-215 446.5,-196 269.5,-196"/>
<text text-anchor="middle" x="358" y="-203" font-family="Helvetica,sans-Serif" font-size="10.00">../Problems/MultiAgentProblem.h</text>
</a>
</g>
</g>
<!-- Node2&#45;&gt;Node3 -->
<g id="edge2" class="edge">
<title>Node2&#45;&gt;Node3</title>
<path fill="none" stroke="midnightblue" d="M623.97,-257.95C561.01,-245.77 469.84,-228.14 412.26,-217"/>
<polygon fill="midnightblue" stroke="midnightblue" points="412.75,-213.53 402.27,-215.06 411.42,-220.4 412.75,-213.53"/>
</g>
<!-- Node9 -->
<g id="node9" class="node">
<title>Node9</title>
<g id="a_node9"><a xlink:href="ODMultiAgentState_8h.html" target="_top" xlink:title=" ">
<polygon fill="white" stroke="black" points="546,-129 546,-148 708,-148 708,-129 546,-129"/>
<text text-anchor="middle" x="627" y="-136" font-family="Helvetica,sans-Serif" font-size="10.00">../States/ODMultiAgentState.h</text>
</a>
</g>
</g>
<!-- Node2&#45;&gt;Node9 -->
<g id="edge8" class="edge">
<title>Node2&#45;&gt;Node9</title>
<path fill="none" stroke="midnightblue" d="M712.15,-257.38C731.05,-240.91 755.97,-213 741,-190 728.36,-170.57 706.34,-158.56 685,-151.16"/>
<polygon fill="midnightblue" stroke="midnightblue" points="685.88,-147.76 675.29,-148.07 683.76,-154.44 685.88,-147.76"/>
</g>
<!-- Node11 -->
<g id="node11" class="node">
<title>Node11</title>
<g id="a_node11"><a xlink:href="AStarProblem_8h.html" target="_top" xlink:title=" ">
<polygon fill="white" stroke="black" points="640,-196 640,-215 732,-215 732,-196 640,-196"/>
<text text-anchor="middle" x="686" y="-203" font-family="Helvetica,sans-Serif" font-size="10.00">AStarProblem.h</text>
</a>
</g>
</g>
<!-- Node2&#45;&gt;Node11 -->
<g id="edge10" class="edge">
<title>Node2&#45;&gt;Node11</title>
<path fill="none" stroke="midnightblue" d="M692.26,-257.4C691.1,-247.96 689.56,-235.45 688.3,-225.19"/>
<polygon fill="midnightblue" stroke="midnightblue" points="691.77,-224.69 687.07,-215.19 684.82,-225.55 691.77,-224.69"/>
</g>
<!-- Node4 -->
<g id="node4" class="node">
<title>Node4</title>
<g id="a_node4"><a xlink:href="Problem_8h.html" target="_top" xlink:title=" ">
<polygon fill="white" stroke="black" points="402,-129 402,-148 468,-148 468,-129 402,-129"/>
<text text-anchor="middle" x="435" y="-136" font-family="Helvetica,sans-Serif" font-size="10.00">Problem.h</text>
</a>
</g>
</g>
<!-- Node3&#45;&gt;Node4 -->
<g id="edge3" class="edge">
<title>Node3&#45;&gt;Node4</title>
<path fill="none" stroke="midnightblue" d="M368.38,-195.73C380.85,-185.21 401.97,-167.38 417.09,-154.62"/>
<polygon fill="midnightblue" stroke="midnightblue" points="419.4,-157.25 424.78,-148.13 414.88,-151.9 419.4,-157.25"/>
</g>
<!-- Node5 -->
<g id="node5" class="node">
<title>Node5</title>
<g id="a_node5"><a xlink:href="ConstraintsSet_8h.html" target="_top" xlink:title=" ">
<polygon fill="white" stroke="black" points="311,-56.5 311,-86.5 451,-86.5 451,-56.5 311,-56.5"/>
<text text-anchor="start" x="319" y="-74.5" font-family="Helvetica,sans-Serif" font-size="10.00">../Constraints/Constraints</text>
<text text-anchor="middle" x="381" y="-63.5" font-family="Helvetica,sans-Serif" font-size="10.00">Set.h</text>
</a>
</g>
</g>
<!-- Node4&#45;&gt;Node5 -->
<g id="edge4" class="edge">
<title>Node4&#45;&gt;Node5</title>
<path fill="none" stroke="midnightblue" d="M427.72,-128.73C420.42,-119.95 408.9,-106.08 399.12,-94.31"/>
<polygon fill="midnightblue" stroke="midnightblue" points="401.79,-92.04 392.7,-86.59 396.4,-96.52 401.79,-92.04"/>
</g>
<!-- Node8 -->
<g id="node8" class="node">
<title>Node8</title>
<g id="a_node8"><a xlink:href="Graph_8h.html" target="_top" xlink:title=" ">
<polygon fill="white" stroke="black" points="469,-62 469,-81 595,-81 595,-62 469,-62"/>
<text text-anchor="middle" x="532" y="-69" font-family="Helvetica,sans-Serif" font-size="10.00">../GraphParser/Graph.h</text>
</a>
</g>
</g>
<!-- Node4&#45;&gt;Node8 -->
<g id="edge7" class="edge">
<title>Node4&#45;&gt;Node8</title>
<path fill="none" stroke="midnightblue" d="M448.08,-128.73C464.15,-117.96 491.63,-99.55 510.75,-86.74"/>
<polygon fill="midnightblue" stroke="midnightblue" points="512.77,-89.6 519.13,-81.13 508.87,-83.79 512.77,-89.6"/>
</g>
<!-- Node6 -->
<g id="node6" class="node">
<title>Node6</title>
<g id="a_node6"><a xlink:href="EdgeConstraint_8h.html" target="_top" xlink:title=" ">
<polygon fill="white" stroke="black" points="270,-0.5 270,-19.5 370,-19.5 370,-0.5 270,-0.5"/>
<text text-anchor="middle" x="320" y="-7.5" font-family="Helvetica,sans-Serif" font-size="10.00">EdgeConstraint.h</text>
</a>
</g>
</g>
<!-- Node5&#45;&gt;Node6 -->
<g id="edge5" class="edge">
<title>Node5&#45;&gt;Node6</title>
<path fill="none" stroke="midnightblue" d="M366.54,-56.4C357.41,-47.49 345.58,-35.95 336.14,-26.74"/>
<polygon fill="midnightblue" stroke="midnightblue" points="338.48,-24.13 328.88,-19.66 333.59,-29.15 338.48,-24.13"/>
</g>
<!-- Node7 -->
<g id="node7" class="node">
<title>Node7</title>
<g id="a_node7"><a xlink:href="VertexConstraint_8h.html" target="_top" xlink:title=" ">
<polygon fill="white" stroke="black" points="388.5,-0.5 388.5,-19.5 495.5,-19.5 495.5,-0.5 388.5,-0.5"/>
<text text-anchor="middle" x="442" y="-7.5" font-family="Helvetica,sans-Serif" font-size="10.00">VertexConstraint.h</text>
</a>
</g>
</g>
<!-- Node5&#45;&gt;Node7 -->
<g id="edge6" class="edge">
<title>Node5&#45;&gt;Node7</title>
<path fill="none" stroke="midnightblue" d="M395.46,-56.4C404.59,-47.49 416.42,-35.95 425.86,-26.74"/>
<polygon fill="midnightblue" stroke="midnightblue" points="428.41,-29.15 433.12,-19.66 423.52,-24.13 428.41,-29.15"/>
</g>
<!-- Node10 -->
<g id="node10" class="node">
<title>Node10</title>
<g id="a_node10"><a xlink:href="State_8h.html" target="_top" xlink:title=" ">
<polygon fill="white" stroke="black" points="655.5,-62 655.5,-81 706.5,-81 706.5,-62 655.5,-62"/>
<text text-anchor="middle" x="681" y="-69" font-family="Helvetica,sans-Serif" font-size="10.00">State.h</text>
</a>
</g>
</g>
<!-- Node9&#45;&gt;Node10 -->
<g id="edge9" class="edge">
<title>Node9&#45;&gt;Node10</title>
<path fill="none" stroke="midnightblue" d="M634.28,-128.73C642.7,-118.6 656.75,-101.69 667.25,-89.06"/>
<polygon fill="midnightblue" stroke="midnightblue" points="670.13,-91.06 673.83,-81.13 664.75,-86.58 670.13,-91.06"/>
</g>
<!-- Node12&#45;&gt;Node3 -->
<g id="edge12" class="edge">
<title>Node12&#45;&gt;Node3</title>
<path fill="none" stroke="midnightblue" d="M473.89,-257.4C447.92,-245.99 411.69,-230.08 386.68,-219.1"/>
<polygon fill="midnightblue" stroke="midnightblue" points="387.93,-215.82 377.37,-215.01 385.12,-222.23 387.93,-215.82"/>
</g>
<!-- Node12&#45;&gt;Node11 -->
<g id="edge15" class="edge">
<title>Node12&#45;&gt;Node11</title>
<path fill="none" stroke="midnightblue" d="M545.06,-257.4C577.2,-245.79 622.27,-229.51 652.72,-218.52"/>
<polygon fill="midnightblue" stroke="midnightblue" points="654.23,-221.7 662.44,-215.01 651.85,-215.11 654.23,-221.7"/>
</g>
<!-- Node13 -->
<g id="node13" class="node">
<title>Node13</title>
<g id="a_node13"><a xlink:href="ODMultiAgentSpaceTimeState_8h.html" target="_top" xlink:title=" ">
<polygon fill="white" stroke="black" points="464.5,-190.5 464.5,-220.5 621.5,-220.5 621.5,-190.5 464.5,-190.5"/>
<text text-anchor="start" x="472.5" y="-208.5" font-family="Helvetica,sans-Serif" font-size="10.00">../States/ODMultiAgentSpace</text>
<text text-anchor="middle" x="543" y="-197.5" font-family="Helvetica,sans-Serif" font-size="10.00">TimeState.h</text>
</a>
</g>
</g>
<!-- Node12&#45;&gt;Node13 -->
<g id="edge13" class="edge">
<title>Node12&#45;&gt;Node13</title>
<path fill="none" stroke="midnightblue" d="M514.03,-257.4C518.68,-249.22 524.66,-238.73 529.97,-229.39"/>
<polygon fill="midnightblue" stroke="midnightblue" points="533.08,-231 534.99,-220.58 527,-227.54 533.08,-231"/>
</g>
<!-- Node13&#45;&gt;Node9 -->
<g id="edge14" class="edge">
<title>Node13&#45;&gt;Node9</title>
<path fill="none" stroke="midnightblue" d="M561.23,-190.4C574.97,-179.76 593.78,-165.2 607.77,-154.38"/>
<polygon fill="midnightblue" stroke="midnightblue" points="610,-157.08 615.76,-148.19 605.71,-151.55 610,-157.08"/>
</g>
<!-- Node14&#45;&gt;Node11 -->
<g id="edge21" class="edge">
<title>Node14&#45;&gt;Node11</title>
<path fill="none" stroke="midnightblue" d="M823.81,-257.4C792.38,-245.79 748.32,-229.51 718.54,-218.52"/>
<polygon fill="midnightblue" stroke="midnightblue" points="719.63,-215.19 709.03,-215.01 717.2,-221.75 719.63,-215.19"/>
</g>
<!-- Node15 -->
<g id="node15" class="node">
<title>Node15</title>
<g id="a_node15"><a xlink:href="SingleAgentProblem_8h.html" target="_top" xlink:title=" ">
<polygon fill="white" stroke="black" points="830,-196 830,-215 1012,-215 1012,-196 830,-196"/>
<text text-anchor="middle" x="921" y="-203" font-family="Helvetica,sans-Serif" font-size="10.00">../Problems/SingleAgentProblem.h</text>
</a>
</g>
</g>
<!-- Node14&#45;&gt;Node15 -->
<g id="edge17" class="edge">
<title>Node14&#45;&gt;Node15</title>
<path fill="none" stroke="midnightblue" d="M874.8,-257.4C884.09,-247.16 896.68,-233.3 906.37,-222.62"/>
<polygon fill="midnightblue" stroke="midnightblue" points="908.98,-224.95 913.11,-215.19 903.8,-220.25 908.98,-224.95"/>
</g>
<!-- Node16 -->
<g id="node16" class="node">
<title>Node16</title>
<g id="a_node16"><a xlink:href="SingleAgentState_8h.html" target="_top" xlink:title=" ">
<polygon fill="white" stroke="black" points="726,-129 726,-148 878,-148 878,-129 726,-129"/>
<text text-anchor="middle" x="802" y="-136" font-family="Helvetica,sans-Serif" font-size="10.00">../States/SingleAgentState.h</text>
</a>
</g>
</g>
<!-- Node14&#45;&gt;Node16 -->
<g id="edge19" class="edge">
<title>Node14&#45;&gt;Node16</title>
<path fill="none" stroke="midnightblue" d="M847.48,-257.28C838.58,-247.79 827.66,-234.59 821,-221 811.13,-200.86 806.26,-175.37 803.94,-158.31"/>
<polygon fill="midnightblue" stroke="midnightblue" points="807.37,-157.53 802.72,-148.01 800.42,-158.36 807.37,-157.53"/>
</g>
<!-- Node15&#45;&gt;Node4 -->
<g id="edge18" class="edge">
<title>Node15&#45;&gt;Node4</title>
<path fill="none" stroke="midnightblue" d="M854.72,-196C778.16,-186.13 648.42,-169.25 537,-154 517.65,-151.35 496.25,-148.33 478.08,-145.73"/>
<polygon fill="midnightblue" stroke="midnightblue" points="478.46,-142.24 468.06,-144.29 477.46,-149.17 478.46,-142.24"/>
</g>
<!-- Node16&#45;&gt;Node10 -->
<g id="edge20" class="edge">
<title>Node16&#45;&gt;Node10</title>
<path fill="none" stroke="midnightblue" d="M785.68,-128.73C765.18,-117.72 729.8,-98.71 705.91,-85.88"/>
<polygon fill="midnightblue" stroke="midnightblue" points="707.53,-82.78 697.06,-81.13 704.21,-88.94 707.53,-82.78"/>
</g>
<!-- Node17&#45;&gt;Node11 -->
<g id="edge26" class="edge">
<title>Node17&#45;&gt;Node11</title>
<path fill="none" stroke="midnightblue" d="M967.54,-257.48C899.74,-245.2 802.83,-227.65 742.22,-216.68"/>
<polygon fill="midnightblue" stroke="midnightblue" points="742.54,-213.18 732.08,-214.84 741.29,-220.07 742.54,-213.18"/>
</g>
<!-- Node17&#45;&gt;Node15 -->
<g id="edge23" class="edge">
<title>Node17&#45;&gt;Node15</title>
<path fill="none" stroke="midnightblue" d="M1018.09,-257.4C996.72,-246.19 967.05,-230.64 946.15,-219.69"/>
<polygon fill="midnightblue" stroke="midnightblue" points="947.71,-216.55 937.23,-215.01 944.46,-222.75 947.71,-216.55"/>
</g>
<!-- Node18 -->
<g id="node18" class="node">
<title>Node18</title>
<g id="a_node18"><a xlink:href="SingleAgentSpaceTimeState_8h.html" target="_top" xlink:title=" ">
<polygon fill="white" stroke="black" points="931.5,-123.5 931.5,-153.5 1078.5,-153.5 1078.5,-123.5 931.5,-123.5"/>
<text text-anchor="start" x="939.5" y="-141.5" font-family="Helvetica,sans-Serif" font-size="10.00">../States/SingleAgentSpace</text>
<text text-anchor="middle" x="1005" y="-130.5" font-family="Helvetica,sans-Serif" font-size="10.00">TimeState.h</text>
</a>
</g>
</g>
<!-- Node17&#45;&gt;Node18 -->
<g id="edge24" class="edge">
<title>Node17&#45;&gt;Node18</title>
<path fill="none" stroke="midnightblue" d="M1040.93,-257.34C1036.22,-241.06 1028.2,-213.56 1021,-190 1018.32,-181.25 1015.31,-171.67 1012.63,-163.22"/>
<polygon fill="midnightblue" stroke="midnightblue" points="1015.94,-162.09 1009.56,-153.62 1009.27,-164.22 1015.94,-162.09"/>
</g>
<!-- Node18&#45;&gt;Node10 -->
<g id="edge25" class="edge">
<title>Node18&#45;&gt;Node10</title>
<path fill="none" stroke="midnightblue" d="M935.1,-123.48C867.78,-109.97 768.68,-90.09 716.36,-79.59"/>
<polygon fill="midnightblue" stroke="midnightblue" points="717.04,-76.16 706.55,-77.62 715.66,-83.02 717.04,-76.16"/>
</g>
<!-- Node19&#45;&gt;Node3 -->
<g id="edge28" class="edge">
<title>Node19&#45;&gt;Node3</title>
<path fill="none" stroke="midnightblue" d="M324.33,-257.4C330.9,-247.46 339.74,-234.11 346.71,-223.57"/>
<polygon fill="midnightblue" stroke="midnightblue" points="349.65,-225.47 352.25,-215.19 343.81,-221.6 349.65,-225.47"/>
</g>
<!-- Node19&#45;&gt;Node11 -->
<g id="edge31" class="edge">
<title>Node19&#45;&gt;Node11</title>
<path fill="none" stroke="midnightblue" d="M388.31,-258.61C391.58,-258.06 394.82,-257.52 398,-257 501.39,-239.98 528.42,-242.39 631,-221 635.82,-219.99 640.85,-218.83 645.83,-217.61"/>
<polygon fill="midnightblue" stroke="midnightblue" points="647.05,-220.91 655.88,-215.05 645.32,-214.13 647.05,-220.91"/>
</g>
<!-- Node20 -->
<g id="node20" class="node">
<title>Node20</title>
<g id="a_node20"><a xlink:href="StandardMultiAgentState_8h.html" target="_top" xlink:title=" ">
<polygon fill="white" stroke="black" points="164,-123.5 164,-153.5 320,-153.5 320,-123.5 164,-123.5"/>
<text text-anchor="start" x="172" y="-141.5" font-family="Helvetica,sans-Serif" font-size="10.00">../States/StandardMultiAgent</text>
<text text-anchor="middle" x="242" y="-130.5" font-family="Helvetica,sans-Serif" font-size="10.00">State.h</text>
</a>
</g>
</g>
<!-- Node19&#45;&gt;Node20 -->
<g id="edge29" class="edge">
<title>Node19&#45;&gt;Node20</title>
<path fill="none" stroke="midnightblue" d="M294.7,-257.34C283.14,-248.24 269.35,-235.45 261,-221 250.86,-203.46 246.13,-180.84 243.93,-163.89"/>
<polygon fill="midnightblue" stroke="midnightblue" points="247.37,-163.23 242.81,-153.67 240.42,-163.99 247.37,-163.23"/>
</g>
<!-- Node20&#45;&gt;Node10 -->
<g id="edge30" class="edge">
<title>Node20&#45;&gt;Node10</title>
<path fill="none" stroke="midnightblue" d="M320.19,-127.68C393.62,-118.21 506.47,-102.98 604,-87 617.56,-84.78 632.4,-82.05 645.41,-79.57"/>
<polygon fill="midnightblue" stroke="midnightblue" points="646.23,-82.97 655.39,-77.64 644.9,-76.1 646.23,-82.97"/>
</g>
<!-- Node21&#45;&gt;Node3 -->
<g id="edge33" class="edge">
<title>Node21&#45;&gt;Node3</title>
<path fill="none" stroke="midnightblue" d="M165.08,-257.48C210.22,-245.55 274.19,-228.64 315.89,-217.63"/>
<polygon fill="midnightblue" stroke="midnightblue" points="316.95,-220.97 325.72,-215.03 315.16,-214.2 316.95,-220.97"/>
</g>
<!-- Node21&#45;&gt;Node11 -->
<g id="edge36" class="edge">
<title>Node21&#45;&gt;Node11</title>
<path fill="none" stroke="midnightblue" d="M224.06,-257.96C227.07,-257.63 230.05,-257.31 233,-257 409.64,-238.43 456.07,-251.75 631,-221 636.41,-220.05 642.07,-218.83 647.6,-217.5"/>
<polygon fill="midnightblue" stroke="midnightblue" points="648.54,-220.87 657.37,-215.02 646.82,-214.08 648.54,-220.87"/>
</g>
<!-- Node22 -->
<g id="node22" class="node">
<title>Node22</title>
<g id="a_node22"><a xlink:href="StandardMultiAgentSpaceTimeState_8h.html" target="_top" xlink:title=" ">
<polygon fill="white" stroke="black" points="50,-190.5 50,-220.5 206,-220.5 206,-190.5 50,-190.5"/>
<text text-anchor="start" x="58" y="-208.5" font-family="Helvetica,sans-Serif" font-size="10.00">../States/StandardMultiAgent</text>
<text text-anchor="middle" x="128" y="-197.5" font-family="Helvetica,sans-Serif" font-size="10.00">SpaceTimeState.h</text>
</a>
</g>
</g>
<!-- Node21&#45;&gt;Node22 -->
<g id="edge34" class="edge">
<title>Node21&#45;&gt;Node22</title>
<path fill="none" stroke="midnightblue" d="M115.47,-257.4C117.4,-249.56 119.85,-239.6 122.08,-230.57"/>
<polygon fill="midnightblue" stroke="midnightblue" points="125.54,-231.12 124.54,-220.58 118.75,-229.45 125.54,-231.12"/>
</g>
<!-- Node22&#45;&gt;Node20 -->
<g id="edge35" class="edge">
<title>Node22&#45;&gt;Node20</title>
<path fill="none" stroke="midnightblue" d="M152.74,-190.4C169.02,-181.11 190.54,-168.84 208.37,-158.67"/>
<polygon fill="midnightblue" stroke="midnightblue" points="210.36,-161.57 217.31,-153.58 206.89,-155.49 210.36,-161.57"/>
</g>
</g>
</svg>
        <g id="navigator" transform="translate(0 0)" fill="#404254">
                <rect fill="#f2f5e9" fill-opacity="0.5" stroke="#606060" stroke-width=".5" x="0" y="0" width="60" height="60"/>
                <use id="zoomplus" xlink:href="#zoomPlus" x="17" y="9" onmousedown="handleZoom(evt,'in')"/>
                <use id="zoomminus" xlink:href="#zoomMin" x="42" y="9" onmousedown="handleZoom(evt,'out')"/>
                <use id="reset" xlink:href="#resetDef" x="30" y="36" onmousedown="handleReset()"/>
                <g id="arrowUp" xlink:href="#dirArrow" transform="translate(30 24)" onmousedown="handlePan(0,-1)">
                  <use xlink:href="#rim" fill="#404040">
                        <set attributeName="fill" to="#808080" begin="arrowUp.mouseover" end="arrowUp.mouseout"/>
                  </use>
                  <path fill="none" stroke="white" stroke-width="1.5" d="M0,-3.0v7 M-2.5,-0.5L0,-3.0L2.5,-0.5"/>
                </g>
                <g id="arrowRight" xlink:href="#dirArrow" transform="rotate(90) translate(36 -43)" onmousedown="handlePan(1,0)">
                  <use xlink:href="#rim" fill="#404040">
                        <set attributeName="fill" to="#808080" begin="arrowRight.mouseover" end="arrowRight.mouseout"/>
                  </use>
                  <path fill="none" stroke="white" stroke-width="1.5" d="M0,-3.0v7 M-2.5,-0.5L0,-3.0L2.5,-0.5"/>
                </g>
                <g id="arrowDown" xlink:href="#dirArrow" transform="rotate(180) translate(-30 -48)" onmousedown="handlePan(0,1)">
                  <use xlink:href="#rim" fill="#404040">
                        <set attributeName="fill" to="#808080" begin="arrowDown.mouseover" end="arrowDown.mouseout"/>
                  </use>
                  <path fill="none" stroke="white" stroke-width="1.5" d="M0,-3.0v7 M-2.5,-0.5L0,-3.0L2.5,-0.5"/>
                </g>
                <g id="arrowLeft" xlink:href="#dirArrow" transform="rotate(270) translate(-36 17)" onmousedown="handlePan(-1,0)">
                  <use xlink:href="#rim" fill="#404040">
                        <set attributeName="fill" to="#808080" begin="arrowLeft.mouseover" end="arrowLeft.mouseout"/>
                  </use>
                  <path fill="none" stroke="white" stroke-width="1.5" d="M0,-3.0v7 M-2.5,-0.5L0,-3.0L2.5,-0.5"/>
                </g>
        </g>
        <svg viewBox="0 0 15 15" width="100%" height="30px" preserveAspectRatio="xMaxYMin meet">
         <g id="arrow_out" transform="scale(0.3 0.3)">
          <a xlink:href="HeuristicManhattan_8h__incl_org.svg" target="_base">
           <rect id="button" ry="5" rx="5" y="6" x="6" height="38" width="38"
                fill="#f2f5e9" fill-opacity="0.5" stroke="#606060" stroke-width="1.0"/>
           <path id="arrow"
             d="M 11.500037,31.436501 C 11.940474,20.09759 22.043105,11.32322 32.158766,21.979434 L 37.068811,17.246167 C 37.068811,17.246167 37.088388,32 37.088388,32 L 22.160133,31.978069 C 22.160133,31.978069 26.997745,27.140456 26.997745,27.140456 C 18.528582,18.264221 13.291696,25.230495 11.500037,31.436501 z"
             style="fill:#404040;"/>
          </a>
         </g>
        </svg>
</svg>
