<?xml version="1.0" encoding="UTF-8" standalone="no"?>
<!DOCTYPE svg PUBLIC "-//W3C//DTD SVG 1.1//EN"
 "http://www.w3.org/Graphics/SVG/1.1/DTD/svg11.dtd">
<!-- Generated by graphviz version 2.43.0 (0)
 -->
<!-- Title: Heuristics/HeuristicOptimal.h Pages: 1 -->
<svg width="445pt" height="408pt"
 viewBox="0.00 0.00 444.50 408.00" xmlns="http://www.w3.org/2000/svg" xmlns:xlink="http://www.w3.org/1999/xlink">
<g id="graph0" class="graph" transform="scale(1 1) rotate(0) translate(4 404)">
<title>Heuristics/HeuristicOptimal.h</title>
<polygon fill="white" stroke="transparent" points="-4,4 -4,-404 440.5,-404 440.5,4 -4,4"/>
<!-- Node1 -->
<g id="node1" class="node">
<title>Node1</title>
<g id="a_node1"><a xlink:title=" ">
<polygon fill="#bfbfbf" stroke="black" points="201.5,-380.5 201.5,-399.5 361.5,-399.5 361.5,-380.5 201.5,-380.5"/>
<text text-anchor="middle" x="281.5" y="-387.5" font-family="Helvetica,sans-Serif" font-size="10.00">Heuristics/HeuristicOptimal.h</text>
</a>
</g>
</g>
<!-- Node2 -->
<g id="node2" class="node">
<title>Node2</title>
<g id="a_node2"><a xlink:href="AStar_8h.html" target="_top" xlink:title=" ">
<polygon fill="white" stroke="black" points="222,-324.5 222,-343.5 341,-343.5 341,-324.5 222,-324.5"/>
<text text-anchor="middle" x="281.5" y="-331.5" font-family="Helvetica,sans-Serif" font-size="10.00">Solvers/AStar/AStar.h</text>
</a>
</g>
</g>
<!-- Node1&#45;&gt;Node2 -->
<g id="edge1" class="edge">
<title>Node1&#45;&gt;Node2</title>
<path fill="none" stroke="midnightblue" d="M281.5,-369.8C281.5,-360.91 281.5,-350.78 281.5,-343.75"/>
<polygon fill="midnightblue" stroke="midnightblue" points="278,-370.08 281.5,-380.08 285,-370.08 278,-370.08"/>
</g>
<!-- Node3 -->
<g id="node3" class="node">
<title>Node3</title>
<g id="a_node3"><a xlink:href="GeneralAStar_8h.html" target="_top" xlink:title=" ">
<polygon fill="white" stroke="black" points="118.5,-263 118.5,-282 276.5,-282 276.5,-263 118.5,-263"/>
<text text-anchor="middle" x="197.5" y="-270" font-family="Helvetica,sans-Serif" font-size="10.00">Solvers/AStar/GeneralAStar.h</text>
</a>
</g>
</g>
<!-- Node2&#45;&gt;Node3 -->
<g id="edge2" class="edge">
<title>Node2&#45;&gt;Node3</title>
<path fill="none" stroke="midnightblue" d="M261.19,-318.61C245.03,-307.17 222.98,-291.55 209.51,-282.01"/>
<polygon fill="midnightblue" stroke="midnightblue" points="259.28,-321.55 269.46,-324.48 263.33,-315.84 259.28,-321.55"/>
</g>
<!-- Node10 -->
<g id="node10" class="node">
<title>Node10</title>
<g id="a_node10"><a xlink:href="CooperativeAStar_8h.html" target="_top" xlink:title=" ">
<polygon fill="white" stroke="black" points="294.5,-257.5 294.5,-287.5 436.5,-287.5 436.5,-257.5 294.5,-257.5"/>
<text text-anchor="start" x="302.5" y="-275.5" font-family="Helvetica,sans-Serif" font-size="10.00">Solvers/SuboptimalSolver</text>
<text text-anchor="middle" x="365.5" y="-264.5" font-family="Helvetica,sans-Serif" font-size="10.00">/CooperativeAStar.h</text>
</a>
</g>
</g>
<!-- Node2&#45;&gt;Node10 -->
<g id="edge10" class="edge">
<title>Node2&#45;&gt;Node10</title>
<path fill="none" stroke="midnightblue" d="M302.02,-318.47C315.32,-309.05 332.55,-296.84 345.7,-287.52"/>
<polygon fill="midnightblue" stroke="midnightblue" points="299.67,-315.84 293.54,-324.48 303.72,-321.55 299.67,-315.84"/>
</g>
<!-- Node4 -->
<g id="node4" class="node">
<title>Node4</title>
<g id="a_node4"><a xlink:href="ConflictBasedSearch_8h.html" target="_top" xlink:title=" ">
<polygon fill="white" stroke="black" points="75,-190.5 75,-220.5 220,-220.5 220,-190.5 75,-190.5"/>
<text text-anchor="start" x="83" y="-208.5" font-family="Helvetica,sans-Serif" font-size="10.00">Solvers/CBS/ConflictBased</text>
<text text-anchor="middle" x="147.5" y="-197.5" font-family="Helvetica,sans-Serif" font-size="10.00">Search.h</text>
</a>
</g>
</g>
<!-- Node3&#45;&gt;Node4 -->
<g id="edge3" class="edge">
<title>Node3&#45;&gt;Node4</title>
<path fill="none" stroke="midnightblue" d="M184.56,-254.67C176.42,-244.09 166.04,-230.6 158.34,-220.59"/>
<polygon fill="midnightblue" stroke="midnightblue" points="181.89,-256.94 190.76,-262.73 187.43,-252.67 181.89,-256.94"/>
</g>
<!-- Node6 -->
<g id="node6" class="node">
<title>Node6</title>
<g id="a_node6"><a xlink:href="SimpleIndependenceDetection_8h.html" target="_top" xlink:title=" ">
<polygon fill="white" stroke="black" points="163,-123.5 163,-153.5 334,-153.5 334,-123.5 163,-123.5"/>
<text text-anchor="start" x="171" y="-141.5" font-family="Helvetica,sans-Serif" font-size="10.00">Solvers/ID/SimpleIndependence</text>
<text text-anchor="middle" x="248.5" y="-130.5" font-family="Helvetica,sans-Serif" font-size="10.00">Detection.h</text>
</a>
</g>
</g>
<!-- Node3&#45;&gt;Node6 -->
<g id="edge9" class="edge">
<title>Node3&#45;&gt;Node6</title>
<path fill="none" stroke="midnightblue" d="M210.24,-254.6C216.83,-245.14 224.51,-232.9 229.5,-221 238.94,-198.49 244.17,-170.42 246.65,-153.79"/>
<polygon fill="midnightblue" stroke="midnightblue" points="207.4,-252.55 204.38,-262.7 213.07,-256.65 207.4,-252.55"/>
</g>
<!-- Node5 -->
<g id="node5" class="node">
<title>Node5</title>
<g id="a_node5"><a xlink:href="ConflictBasedSearch_8cpp.html" target="_top" xlink:title=" ">
<polygon fill="white" stroke="black" points="0,-123.5 0,-153.5 145,-153.5 145,-123.5 0,-123.5"/>
<text text-anchor="start" x="8" y="-141.5" font-family="Helvetica,sans-Serif" font-size="10.00">Solvers/CBS/ConflictBased</text>
<text text-anchor="middle" x="72.5" y="-130.5" font-family="Helvetica,sans-Serif" font-size="10.00">Search.cpp</text>
</a>
</g>
</g>
<!-- Node4&#45;&gt;Node5 -->
<g id="edge4" class="edge">
<title>Node4&#45;&gt;Node5</title>
<path fill="none" stroke="midnightblue" d="M123.38,-183.6C112.06,-173.78 98.86,-162.34 88.74,-153.58"/>
<polygon fill="midnightblue" stroke="midnightblue" points="121.38,-186.49 131.23,-190.4 125.96,-181.2 121.38,-186.49"/>
</g>
<!-- Node4&#45;&gt;Node6 -->
<g id="edge5" class="edge">
<title>Node4&#45;&gt;Node6</title>
<path fill="none" stroke="midnightblue" d="M178.21,-184.73C193.84,-174.68 212.47,-162.68 226.63,-153.58"/>
<polygon fill="midnightblue" stroke="midnightblue" points="175.93,-182.04 169.42,-190.4 179.72,-187.93 175.93,-182.04"/>
</g>
<!-- Node7 -->
<g id="node7" class="node">
<title>Node7</title>
<g id="a_node7"><a xlink:href="IndependenceDetection_8h.html" target="_top" xlink:title=" ">
<polygon fill="white" stroke="black" points="50.5,-62 50.5,-81 244.5,-81 244.5,-62 50.5,-62"/>
<text text-anchor="middle" x="147.5" y="-69" font-family="Helvetica,sans-Serif" font-size="10.00">Solvers/ID/IndependenceDetection.h</text>
</a>
</g>
</g>
<!-- Node6&#45;&gt;Node7 -->
<g id="edge6" class="edge">
<title>Node6&#45;&gt;Node7</title>
<path fill="none" stroke="midnightblue" d="M218.16,-117.97C199.01,-105.65 175.23,-90.35 160.72,-81.01"/>
<polygon fill="midnightblue" stroke="midnightblue" points="216.28,-120.93 226.58,-123.4 220.07,-115.04 216.28,-120.93"/>
</g>
<!-- Node9 -->
<g id="node9" class="node">
<title>Node9</title>
<g id="a_node9"><a xlink:href="SimpleIndependenceDetection_8cpp.html" target="_top" xlink:title=" ">
<polygon fill="white" stroke="black" points="263,-56.5 263,-86.5 434,-86.5 434,-56.5 263,-56.5"/>
<text text-anchor="start" x="271" y="-74.5" font-family="Helvetica,sans-Serif" font-size="10.00">Solvers/ID/SimpleIndependence</text>
<text text-anchor="middle" x="348.5" y="-63.5" font-family="Helvetica,sans-Serif" font-size="10.00">Detection.cpp</text>
</a>
</g>
</g>
<!-- Node6&#45;&gt;Node9 -->
<g id="edge8" class="edge">
<title>Node6&#45;&gt;Node9</title>
<path fill="none" stroke="midnightblue" d="M278.91,-117.73C294.38,-107.68 312.83,-95.68 326.84,-86.58"/>
<polygon fill="midnightblue" stroke="midnightblue" points="276.68,-115.01 270.2,-123.4 280.49,-120.88 276.68,-115.01"/>
</g>
<!-- Node8 -->
<g id="node8" class="node">
<title>Node8</title>
<g id="a_node8"><a xlink:href="IndependenceDetection_8cpp.html" target="_top" xlink:title=" ">
<polygon fill="white" stroke="black" points="45,-0.5 45,-19.5 250,-19.5 250,-0.5 45,-0.5"/>
<text text-anchor="middle" x="147.5" y="-7.5" font-family="Helvetica,sans-Serif" font-size="10.00">Solvers/ID/IndependenceDetection.cpp</text>
</a>
</g>
</g>
<!-- Node7&#45;&gt;Node8 -->
<g id="edge7" class="edge">
<title>Node7&#45;&gt;Node8</title>
<path fill="none" stroke="midnightblue" d="M147.5,-51.82C147.5,-41 147.5,-27.9 147.5,-19.51"/>
<polygon fill="midnightblue" stroke="midnightblue" points="144,-51.98 147.5,-61.98 151,-51.98 144,-51.98"/>
</g>
</g>
</svg>
