<?xml version="1.0" encoding="UTF-8" standalone="no"?>
<!DOCTYPE svg PUBLIC "-//W3C//DTD SVG 1.1//EN"
 "http://www.w3.org/Graphics/SVG/1.1/DTD/svg11.dtd">
<!-- Generated by graphviz version 2.43.0 (0)
 -->
<!-- Title: manhattanDistance Pages: 1 -->
<svg width="324pt" height="165pt"
 viewBox="0.00 0.00 324.00 165.00" xmlns="http://www.w3.org/2000/svg" xmlns:xlink="http://www.w3.org/1999/xlink">
<g id="graph0" class="graph" transform="scale(1 1) rotate(0) translate(4 161)">
<title>manhattanDistance</title>
<polygon fill="white" stroke="transparent" points="-4,4 -4,-161 320,-161 320,4 -4,4"/>
<!-- Node1 -->
<g id="node1" class="node">
<title>Node1</title>
<g id="a_node1"><a xlink:title=" ">
<polygon fill="#bfbfbf" stroke="black" points="203,-68.5 203,-87.5 316,-87.5 316,-68.5 203,-68.5"/>
<text text-anchor="middle" x="259.5" y="-75.5" font-family="Helvetica,sans-Serif" font-size="10.00">manhattanDistance</text>
</a>
</g>
</g>
<!-- Node2 -->
<g id="node2" class="node">
<title>Node2</title>
<g id="a_node2"><a xlink:href="classMICheuristic.html#a92699a80bb91cfaf247e59a94460ee0c" target="_top" xlink:title=" ">
<polygon fill="white" stroke="black" points="0,-137.5 0,-156.5 167,-156.5 167,-137.5 0,-137.5"/>
<text text-anchor="middle" x="83.5" y="-144.5" font-family="Helvetica,sans-Serif" font-size="10.00">MICheuristic::heuristicFunction</text>
</a>
</g>
</g>
<!-- Node1&#45;&gt;Node2 -->
<g id="edge1" class="edge">
<title>Node1&#45;&gt;Node2</title>
<path fill="none" stroke="midnightblue" d="M235.24,-93.04C217.24,-104.09 191.35,-118.74 167,-128 157.11,-131.76 146.25,-134.91 135.76,-137.49"/>
<polygon fill="midnightblue" stroke="midnightblue" points="237.26,-95.9 243.89,-87.63 233.55,-89.97 237.26,-95.9"/>
</g>
<!-- Node3 -->
<g id="node3" class="node">
<title>Node3</title>
<g id="a_node3"><a xlink:href="classMICheuristic2.html#ab285fd2fc619a5735614d4d2df6044a6" target="_top" xlink:title=" ">
<polygon fill="white" stroke="black" points="18,-88 18,-118 149,-118 149,-88 18,-88"/>
<text text-anchor="start" x="26" y="-106" font-family="Helvetica,sans-Serif" font-size="10.00">MICheuristic2::heuristic</text>
<text text-anchor="middle" x="83.5" y="-95" font-family="Helvetica,sans-Serif" font-size="10.00">Function</text>
</a>
</g>
</g>
<!-- Node1&#45;&gt;Node3 -->
<g id="edge2" class="edge">
<title>Node1&#45;&gt;Node3</title>
<path fill="none" stroke="midnightblue" d="M192.75,-87.45C178.5,-89.49 163.43,-91.66 149.21,-93.7"/>
<polygon fill="midnightblue" stroke="midnightblue" points="193.57,-90.87 202.97,-85.98 192.57,-83.94 193.57,-90.87"/>
</g>
<!-- Node4 -->
<g id="node4" class="node">
<title>Node4</title>
<g id="a_node4"><a xlink:href="classManhattanHeuristic.html#ada25be99f9341514ce33669994a216a9" target="_top" xlink:title=" ">
<polygon fill="white" stroke="black" points="27,-39 27,-69 140,-69 140,-39 27,-39"/>
<text text-anchor="start" x="35" y="-57" font-family="Helvetica,sans-Serif" font-size="10.00">ManhattanHeuristic</text>
<text text-anchor="middle" x="83.5" y="-46" font-family="Helvetica,sans-Serif" font-size="10.00">::heuristicFunction</text>
</a>
</g>
</g>
<!-- Node1&#45;&gt;Node4 -->
<g id="edge3" class="edge">
<title>Node1&#45;&gt;Node4</title>
<path fill="none" stroke="midnightblue" d="M192.89,-68.95C175.5,-66.55 156.9,-63.99 140.1,-61.67"/>
<polygon fill="midnightblue" stroke="midnightblue" points="192.58,-72.44 202.97,-70.34 193.54,-65.51 192.58,-72.44"/>
</g>
<!-- Node5 -->
<g id="node5" class="node">
<title>Node5</title>
<g id="a_node5"><a xlink:href="classSICheuristic.html#a9d183ffdd986d0849f3df1f6631c13b6" target="_top" xlink:title=" ">
<polygon fill="white" stroke="black" points="1.5,-0.5 1.5,-19.5 165.5,-19.5 165.5,-0.5 1.5,-0.5"/>
<text text-anchor="middle" x="83.5" y="-7.5" font-family="Helvetica,sans-Serif" font-size="10.00">SICheuristic::heuristicFunction</text>
</a>
</g>
</g>
<!-- Node1&#45;&gt;Node5 -->
<g id="edge4" class="edge">
<title>Node1&#45;&gt;Node5</title>
<path fill="none" stroke="midnightblue" d="M234.49,-63.31C216.46,-52.81 190.87,-39 167,-30 156.11,-25.89 144.08,-22.42 132.66,-19.57"/>
<polygon fill="midnightblue" stroke="midnightblue" points="232.79,-66.38 243.18,-68.46 236.36,-60.35 232.79,-66.38"/>
</g>
</g>
</svg>
