<?xml version="1.0" encoding="UTF-8" standalone="no"?>
<!DOCTYPE svg PUBLIC "-//W3C//DTD SVG 1.1//EN"
 "http://www.w3.org/Graphics/SVG/1.1/DTD/svg11.dtd">
<!-- Generated by graphviz version 2.43.0 (0)
 -->
<!-- Title: Heuristics/HeuristicManhattan.h Pages: 1 -->
<!--zoomable 229 -->
<svg id="main" version="1.1" xmlns="http://www.w3.org/2000/svg" xmlns:xlink="http://www.w3.org/1999/xlink" xml:space="preserve" onload="init(evt)">
<style type="text/css"><![CDATA[
.edge:hover path { stroke: red; }
.edge:hover polygon { stroke: red; fill: red; }
]]></style>
<script type="text/javascript"><![CDATA[
var edges = document.getElementsByTagName('g');
if (edges && edges.length) {
  for (var i=0;i<edges.length;i++) {
    if (edges[i].id.substr(0,4)=='edge') {
      edges[i].setAttribute('class','edge');
    }
  }
}
]]></script>
        <defs>
                <circle id="rim" cx="0" cy="0" r="7"/>
                <circle id="rim2" cx="0" cy="0" r="3.5"/>
                <g id="zoomPlus">
                        <use xlink:href="#rim" fill="#404040">
                                <set attributeName="fill" to="#808080" begin="zoomplus.mouseover" end="zoomplus.mouseout"/>
                        </use>
                        <path d="M-4,0h8M0,-4v8" fill="none" stroke="white" stroke-width="1.5" pointer-events="none"/>
                </g>
                <g id="zoomMin">
                        <use xlink:href="#rim" fill="#404040">
                                <set attributeName="fill" to="#808080" begin="zoomminus.mouseover" end="zoomminus.mouseout"/>
                        </use>
                        <path d="M-4,0h8" fill="none" stroke="white" stroke-width="1.5" pointer-events="none"/>
                </g>
                <g id="dirArrow">
                        <path fill="none" stroke="white" stroke-width="1.5" d="M0,-3.0v7 M-2.5,-0.5L0,-3.0L2.5,-0.5"/>
                </g>
               <g id="resetDef">
                       <use xlink:href="#rim2" fill="#404040">
                               <set attributeName="fill" to="#808080" begin="reset.mouseover" end="reset.mouseout"/>
                       </use>
               </g>
        </defs>

<script type="text/javascript">
var viewWidth = 1301;
var viewHeight = 229;
var sectionId = 'dynsection-0';
</script>
<script xlink:href="svgpan.js"/>
<svg id="graph" class="graph">
<g id="viewport">
<title>Heuristics/HeuristicManhattan.h</title>
<polygon fill="white" stroke="transparent" points="-4,4 -4,-225 1297,-225 1297,4 -4,4"/>
<!-- Node1 -->
<g id="node1" class="node">
<title>Node1</title>
<g id="a_node1"><a xlink:title=" ">
<polygon fill="#bfbfbf" stroke="black" points="513.5,-201.5 513.5,-220.5 686.5,-220.5 686.5,-201.5 513.5,-201.5"/>
<text text-anchor="middle" x="600" y="-208.5" font-family="Helvetica,sans-Serif" font-size="10.00">Heuristics/HeuristicManhattan.h</text>
</a>
</g>
</g>
<!-- Node2 -->
<g id="node2" class="node">
<title>Node2</title>
<g id="a_node2"><a xlink:href="ODMultiAgentAStarProblem_8h.html" target="_top" xlink:title=" ">
<polygon fill="white" stroke="black" points="624,-134.5 624,-164.5 764,-164.5 764,-134.5 624,-134.5"/>
<text text-anchor="start" x="632" y="-152.5" font-family="Helvetica,sans-Serif" font-size="10.00">../AStarProblems/ODMulti</text>
<text text-anchor="middle" x="694" y="-141.5" font-family="Helvetica,sans-Serif" font-size="10.00">AgentAStarProblem.h</text>
</a>
</g>
</g>
<!-- Node1&#45;&gt;Node2 -->
<g id="edge1" class="edge">
<title>Node1&#45;&gt;Node2</title>
<path fill="none" stroke="midnightblue" d="M613.47,-201.48C626.44,-193.27 646.51,-180.56 663.38,-169.88"/>
<polygon fill="midnightblue" stroke="midnightblue" points="665.27,-172.83 671.85,-164.52 661.52,-166.91 665.27,-172.83"/>
</g>
<!-- Node12 -->
<g id="node6" class="node">
<title>Node12</title>
<g id="a_node6"><a xlink:href="ODMultiAgentAStarProblemWithConstraints_8h.html" target="_top" xlink:title=" ">
<polygon fill="white" stroke="black" points="406.5,-134.5 406.5,-164.5 605.5,-164.5 605.5,-134.5 406.5,-134.5"/>
<text text-anchor="start" x="414.5" y="-152.5" font-family="Helvetica,sans-Serif" font-size="10.00">../AStarProblems/ODMulti</text>
<text text-anchor="middle" x="506" y="-141.5" font-family="Helvetica,sans-Serif" font-size="10.00">AgentAStarProblemWithConstraints.h</text>
</a>
</g>
</g>
<!-- Node1&#45;&gt;Node12 -->
<g id="edge5" class="edge">
<title>Node1&#45;&gt;Node12</title>
<path fill="none" stroke="midnightblue" d="M586.53,-201.48C573.56,-193.27 553.49,-180.56 536.62,-169.88"/>
<polygon fill="midnightblue" stroke="midnightblue" points="538.48,-166.91 528.15,-164.52 534.73,-172.83 538.48,-166.91"/>
</g>
<!-- Node14 -->
<g id="node8" class="node">
<title>Node14</title>
<g id="a_node8"><a xlink:href="SingleAgentAStarProblem_8h.html" target="_top" xlink:title=" ">
<polygon fill="white" stroke="black" points="970.5,-134.5 970.5,-164.5 1129.5,-164.5 1129.5,-134.5 970.5,-134.5"/>
<text text-anchor="start" x="978.5" y="-152.5" font-family="Helvetica,sans-Serif" font-size="10.00">../AStarProblems/SingleAgent</text>
<text text-anchor="middle" x="1050" y="-141.5" font-family="Helvetica,sans-Serif" font-size="10.00">AStarProblem.h</text>
</a>
</g>
</g>
<!-- Node1&#45;&gt;Node14 -->
<g id="edge10" class="edge">
<title>Node1&#45;&gt;Node14</title>
<path fill="none" stroke="midnightblue" d="M675.13,-201.47C745.94,-193.23 855.29,-180.03 960.3,-165.07"/>
<polygon fill="midnightblue" stroke="midnightblue" points="961.04,-168.5 970.45,-163.61 960.05,-161.57 961.04,-168.5"/>
</g>
<!-- Node17 -->
<g id="node11" class="node">
<title>Node17</title>
<g id="a_node11"><a xlink:href="SingleAgentAStarProblemWithConstraints_8h.html" target="_top" xlink:title=" ">
<polygon fill="white" stroke="black" points="782,-134.5 782,-164.5 952,-164.5 952,-134.5 782,-134.5"/>
<text text-anchor="start" x="790" y="-152.5" font-family="Helvetica,sans-Serif" font-size="10.00">../AStarProblems/SingleAgent</text>
<text text-anchor="middle" x="867" y="-141.5" font-family="Helvetica,sans-Serif" font-size="10.00">AStarProblemWithConstraints.h</text>
</a>
</g>
</g>
<!-- Node1&#45;&gt;Node17 -->
<g id="edge14" class="edge">
<title>Node1&#45;&gt;Node17</title>
<path fill="none" stroke="midnightblue" d="M638.25,-201.48C678.81,-192.44 743.83,-177.95 794.21,-166.72"/>
<polygon fill="midnightblue" stroke="midnightblue" points="795.07,-170.11 804.07,-164.52 793.55,-163.28 795.07,-170.11"/>
</g>
<!-- Node19 -->
<g id="node13" class="node">
<title>Node19</title>
<g id="a_node13"><a xlink:href="StandardMultiAgentAStarProblem_8h.html" target="_top" xlink:title=" ">
<polygon fill="white" stroke="black" points="242,-134.5 242,-164.5 388,-164.5 388,-134.5 242,-134.5"/>
<text text-anchor="start" x="250" y="-152.5" font-family="Helvetica,sans-Serif" font-size="10.00">../AStarProblems/Standard</text>
<text text-anchor="middle" x="315" y="-141.5" font-family="Helvetica,sans-Serif" font-size="10.00">MultiAgentAStarProblem.h</text>
</a>
</g>
</g>
<!-- Node1&#45;&gt;Node19 -->
<g id="edge18" class="edge">
<title>Node1&#45;&gt;Node19</title>
<path fill="none" stroke="midnightblue" d="M559.17,-201.48C515.7,-192.4 445.89,-177.83 392.03,-166.58"/>
<polygon fill="midnightblue" stroke="midnightblue" points="392.67,-163.14 382.17,-164.52 391.24,-169.99 392.67,-163.14"/>
</g>
<!-- Node21 -->
<g id="node15" class="node">
<title>Node21</title>
<g id="a_node15"><a xlink:href="StandardMultiAgentAStarProblemWithConstraints_8h.html" target="_top" xlink:title=" ">
<polygon fill="white" stroke="black" points="0,-134.5 0,-164.5 224,-164.5 224,-134.5 0,-134.5"/>
<text text-anchor="start" x="8" y="-152.5" font-family="Helvetica,sans-Serif" font-size="10.00">../AStarProblems/Standard</text>
<text text-anchor="middle" x="112" y="-141.5" font-family="Helvetica,sans-Serif" font-size="10.00">MultiAgentAStarProblemWithConstraints.h</text>
</a>
</g>
</g>
<!-- Node1&#45;&gt;Node21 -->
<g id="edge22" class="edge">
<title>Node1&#45;&gt;Node21</title>
<path fill="none" stroke="midnightblue" d="M530.08,-201.48C453.03,-192.08 327.67,-176.8 234.28,-165.41"/>
<polygon fill="midnightblue" stroke="midnightblue" points="234.55,-161.92 224.2,-164.18 233.7,-168.86 234.55,-161.92"/>
</g>
<!-- Node3 -->
<g id="node3" class="node">
<title>Node3</title>
<g id="a_node3"><a xlink:href="MultiAgentProblem_8h.html" target="_top" xlink:title=" ">
<polygon fill="white" stroke="red" points="239.5,-73 239.5,-92 416.5,-92 416.5,-73 239.5,-73"/>
<text text-anchor="middle" x="328" y="-80" font-family="Helvetica,sans-Serif" font-size="10.00">../Problems/MultiAgentProblem.h</text>
</a>
</g>
</g>
<!-- Node2&#45;&gt;Node3 -->
<g id="edge2" class="edge">
<title>Node2&#45;&gt;Node3</title>
<path fill="none" stroke="midnightblue" d="M623.76,-135.75C620.46,-135.16 617.2,-134.57 614,-134 535.34,-119.93 444.46,-103.92 386.64,-93.77"/>
<polygon fill="midnightblue" stroke="midnightblue" points="387.05,-90.29 376.59,-92.01 385.84,-97.19 387.05,-90.29"/>
</g>
<!-- Node9 -->
<g id="node4" class="node">
<title>Node9</title>
<g id="a_node4"><a xlink:href="ODMultiAgentState_8h.html" target="_top" xlink:title=" ">
<polygon fill="white" stroke="red" points="540,-6 540,-25 702,-25 702,-6 540,-6"/>
<text text-anchor="middle" x="621" y="-13" font-family="Helvetica,sans-Serif" font-size="10.00">../States/ODMultiAgentState.h</text>
</a>
</g>
</g>
<!-- Node2&#45;&gt;Node9 -->
<g id="edge3" class="edge">
<title>Node2&#45;&gt;Node9</title>
<path fill="none" stroke="midnightblue" d="M702.67,-134.27C711.85,-117.19 723.42,-88.2 711,-67 700.28,-48.7 680.24,-36.53 661.78,-28.73"/>
<polygon fill="midnightblue" stroke="midnightblue" points="662.92,-25.41 652.33,-25.04 660.37,-31.93 662.92,-25.41"/>
</g>
<!-- Node11 -->
<g id="node5" class="node">
<title>Node11</title>
<g id="a_node5"><a xlink:href="AStarProblem_8h.html" target="_top" xlink:title=" ">
<polygon fill="white" stroke="black" points="610,-73 610,-92 702,-92 702,-73 610,-73"/>
<text text-anchor="middle" x="656" y="-80" font-family="Helvetica,sans-Serif" font-size="10.00">AStarProblem.h</text>
</a>
</g>
</g>
<!-- Node2&#45;&gt;Node11 -->
<g id="edge4" class="edge">
<title>Node2&#45;&gt;Node11</title>
<path fill="none" stroke="midnightblue" d="M685.75,-134.4C680.01,-124.56 672.3,-111.38 666.17,-100.89"/>
<polygon fill="midnightblue" stroke="midnightblue" points="669.15,-99.06 661.08,-92.19 663.11,-102.59 669.15,-99.06"/>
</g>
<!-- Node12&#45;&gt;Node3 -->
<g id="edge6" class="edge">
<title>Node12&#45;&gt;Node3</title>
<path fill="none" stroke="midnightblue" d="M467.38,-134.4C435.59,-122.79 391.02,-106.51 360.91,-95.52"/>
<polygon fill="midnightblue" stroke="midnightblue" points="361.89,-92.15 351.3,-92.01 359.49,-98.72 361.89,-92.15"/>
</g>
<!-- Node12&#45;&gt;Node11 -->
<g id="edge9" class="edge">
<title>Node12&#45;&gt;Node11</title>
<path fill="none" stroke="midnightblue" d="M538.55,-134.4C564.87,-122.99 601.59,-107.08 626.93,-96.1"/>
<polygon fill="midnightblue" stroke="midnightblue" points="628.58,-99.19 636.37,-92.01 625.8,-92.77 628.58,-99.19"/>
</g>
<!-- Node13 -->
<g id="node7" class="node">
<title>Node13</title>
<g id="a_node7"><a xlink:href="ODMultiAgentSpaceTimeState_8h.html" target="_top" xlink:title=" ">
<polygon fill="white" stroke="black" points="434.5,-67.5 434.5,-97.5 591.5,-97.5 591.5,-67.5 434.5,-67.5"/>
<text text-anchor="start" x="442.5" y="-85.5" font-family="Helvetica,sans-Serif" font-size="10.00">../States/ODMultiAgentSpace</text>
<text text-anchor="middle" x="513" y="-74.5" font-family="Helvetica,sans-Serif" font-size="10.00">TimeState.h</text>
</a>
</g>
</g>
<!-- Node12&#45;&gt;Node13 -->
<g id="edge7" class="edge">
<title>Node12&#45;&gt;Node13</title>
<path fill="none" stroke="midnightblue" d="M507.52,-134.4C508.36,-126.56 509.44,-116.6 510.41,-107.57"/>
<polygon fill="midnightblue" stroke="midnightblue" points="513.89,-107.89 511.48,-97.58 506.93,-107.14 513.89,-107.89"/>
</g>
<!-- Node13&#45;&gt;Node9 -->
<g id="edge8" class="edge">
<title>Node13&#45;&gt;Node9</title>
<path fill="none" stroke="midnightblue" d="M536.43,-67.4C554.71,-56.39 579.96,-41.2 598.1,-30.28"/>
<polygon fill="midnightblue" stroke="midnightblue" points="600.1,-33.16 606.87,-25.01 596.49,-27.16 600.1,-33.16"/>
</g>
<!-- Node14&#45;&gt;Node11 -->
<g id="edge13" class="edge">
<title>Node14&#45;&gt;Node11</title>
<path fill="none" stroke="midnightblue" d="M970.27,-135.35C893.59,-122.7 779.65,-103.9 712.09,-92.75"/>
<polygon fill="midnightblue" stroke="midnightblue" points="712.5,-89.27 702.07,-91.1 711.36,-96.18 712.5,-89.27"/>
</g>
<!-- Node15 -->
<g id="node9" class="node">
<title>Node15</title>
<g id="a_node9"><a xlink:href="SingleAgentProblem_8h.html" target="_top" xlink:title=" ">
<polygon fill="white" stroke="red" points="941,-73 941,-92 1123,-92 1123,-73 941,-73"/>
<text text-anchor="middle" x="1032" y="-80" font-family="Helvetica,sans-Serif" font-size="10.00">../Problems/SingleAgentProblem.h</text>
</a>
</g>
</g>
<!-- Node14&#45;&gt;Node15 -->
<g id="edge11" class="edge">
<title>Node14&#45;&gt;Node15</title>
<path fill="none" stroke="midnightblue" d="M1046.09,-134.4C1043.45,-124.86 1039.94,-112.18 1037.08,-101.86"/>
<polygon fill="midnightblue" stroke="midnightblue" points="1040.45,-100.9 1034.41,-92.19 1033.7,-102.77 1040.45,-100.9"/>
</g>
<!-- Node16 -->
<g id="node10" class="node">
<title>Node16</title>
<g id="a_node10"><a xlink:href="SingleAgentState_8h.html" target="_top" xlink:title=" ">
<polygon fill="white" stroke="red" points="1141,-73 1141,-92 1293,-92 1293,-73 1141,-73"/>
<text text-anchor="middle" x="1217" y="-80" font-family="Helvetica,sans-Serif" font-size="10.00">../States/SingleAgentState.h</text>
</a>
</g>
</g>
<!-- Node14&#45;&gt;Node16 -->
<g id="edge12" class="edge">
<title>Node14&#45;&gt;Node16</title>
<path fill="none" stroke="midnightblue" d="M1086.24,-134.4C1115.93,-122.84 1157.51,-106.66 1185.75,-95.66"/>
<polygon fill="midnightblue" stroke="midnightblue" points="1187.09,-98.9 1195.14,-92.01 1184.56,-92.37 1187.09,-98.9"/>
</g>
<!-- Node17&#45;&gt;Node11 -->
<g id="edge17" class="edge">
<title>Node17&#45;&gt;Node11</title>
<path fill="none" stroke="midnightblue" d="M821.48,-134.48C783.16,-122.67 729.04,-106 693.26,-94.98"/>
<polygon fill="midnightblue" stroke="midnightblue" points="694.27,-91.63 683.69,-92.03 692.21,-98.32 694.27,-91.63"/>
</g>
<!-- Node17&#45;&gt;Node15 -->
<g id="edge15" class="edge">
<title>Node17&#45;&gt;Node15</title>
<path fill="none" stroke="midnightblue" d="M902.8,-134.4C932.01,-122.89 972.86,-106.8 1000.76,-95.81"/>
<polygon fill="midnightblue" stroke="midnightblue" points="1002.38,-98.93 1010.41,-92.01 999.82,-92.42 1002.38,-98.93"/>
</g>
<!-- Node18 -->
<g id="node12" class="node">
<title>Node18</title>
<g id="a_node12"><a xlink:href="SingleAgentSpaceTimeState_8h.html" target="_top" xlink:title=" ">
<polygon fill="white" stroke="red" points="775.5,-67.5 775.5,-97.5 922.5,-97.5 922.5,-67.5 775.5,-67.5"/>
<text text-anchor="start" x="783.5" y="-85.5" font-family="Helvetica,sans-Serif" font-size="10.00">../States/SingleAgentSpace</text>
<text text-anchor="middle" x="849" y="-74.5" font-family="Helvetica,sans-Serif" font-size="10.00">TimeState.h</text>
</a>
</g>
</g>
<!-- Node17&#45;&gt;Node18 -->
<g id="edge16" class="edge">
<title>Node17&#45;&gt;Node18</title>
<path fill="none" stroke="midnightblue" d="M863.09,-134.4C860.9,-126.47 858.1,-116.38 855.58,-107.27"/>
<polygon fill="midnightblue" stroke="midnightblue" points="858.94,-106.28 852.9,-97.58 852.19,-108.15 858.94,-106.28"/>
</g>
<!-- Node19&#45;&gt;Node3 -->
<g id="edge19" class="edge">
<title>Node19&#45;&gt;Node3</title>
<path fill="none" stroke="midnightblue" d="M317.82,-134.4C319.71,-124.96 322.21,-112.45 324.26,-102.19"/>
<polygon fill="midnightblue" stroke="midnightblue" points="327.73,-102.69 326.26,-92.19 320.87,-101.31 327.73,-102.69"/>
</g>
<!-- Node19&#45;&gt;Node11 -->
<g id="edge21" class="edge">
<title>Node19&#45;&gt;Node11</title>
<path fill="none" stroke="midnightblue" d="M388.33,-135.52C472.34,-120.66 598.69,-98.29 600,-98 604.78,-96.96 609.76,-95.79 614.71,-94.58"/>
<polygon fill="midnightblue" stroke="midnightblue" points="615.86,-97.9 624.71,-92.06 614.16,-91.11 615.86,-97.9"/>
</g>
<!-- Node20 -->
<g id="node14" class="node">
<title>Node20</title>
<g id="a_node14"><a xlink:href="StandardMultiAgentState_8h.html" target="_top" xlink:title=" ">
<polygon fill="white" stroke="red" points="81,-0.5 81,-30.5 237,-30.5 237,-0.5 81,-0.5"/>
<text text-anchor="start" x="89" y="-18.5" font-family="Helvetica,sans-Serif" font-size="10.00">../States/StandardMultiAgent</text>
<text text-anchor="middle" x="159" y="-7.5" font-family="Helvetica,sans-Serif" font-size="10.00">State.h</text>
</a>
</g>
</g>
<!-- Node19&#45;&gt;Node20 -->
<g id="edge20" class="edge">
<title>Node19&#45;&gt;Node20</title>
<path fill="none" stroke="midnightblue" d="M286.35,-134.44C269.12,-125.29 247.27,-112.4 230,-98 209.01,-80.5 188.93,-56.54 175.51,-39.13"/>
<polygon fill="midnightblue" stroke="midnightblue" points="177.96,-36.56 169.13,-30.69 172.37,-40.78 177.96,-36.56"/>
</g>
<!-- Node21&#45;&gt;Node3 -->
<g id="edge23" class="edge">
<title>Node21&#45;&gt;Node3</title>
<path fill="none" stroke="midnightblue" d="M158.6,-134.48C197.83,-122.67 253.23,-106 289.85,-94.98"/>
<polygon fill="midnightblue" stroke="midnightblue" points="291.09,-98.26 299.66,-92.03 289.07,-91.56 291.09,-98.26"/>
</g>
<!-- Node21&#45;&gt;Node11 -->
<g id="edge26" class="edge">
<title>Node21&#45;&gt;Node11</title>
<path fill="none" stroke="midnightblue" d="M224.06,-134.99C227.07,-134.65 230.06,-134.32 233,-134 395.93,-116.25 438.63,-126.63 600,-98 605.44,-97.04 611.13,-95.82 616.7,-94.5"/>
<polygon fill="midnightblue" stroke="midnightblue" points="617.69,-97.86 626.54,-92.04 616,-91.06 617.69,-97.86"/>
</g>
<!-- Node22 -->
<g id="node16" class="node">
<title>Node22</title>
<g id="a_node16"><a xlink:href="StandardMultiAgentSpaceTimeState_8h.html" target="_top" xlink:title=" ">
<polygon fill="white" stroke="black" points="28,-67.5 28,-97.5 184,-97.5 184,-67.5 28,-67.5"/>
<text text-anchor="start" x="36" y="-85.5" font-family="Helvetica,sans-Serif" font-size="10.00">../States/StandardMultiAgent</text>
<text text-anchor="middle" x="106" y="-74.5" font-family="Helvetica,sans-Serif" font-size="10.00">SpaceTimeState.h</text>
</a>
</g>
</g>
<!-- Node21&#45;&gt;Node22 -->
<g id="edge24" class="edge">
<title>Node21&#45;&gt;Node22</title>
<path fill="none" stroke="midnightblue" d="M110.7,-134.4C109.97,-126.56 109.05,-116.6 108.22,-107.57"/>
<polygon fill="midnightblue" stroke="midnightblue" points="111.7,-107.21 107.3,-97.58 104.73,-107.86 111.7,-107.21"/>
</g>
<!-- Node22&#45;&gt;Node20 -->
<g id="edge25" class="edge">
<title>Node22&#45;&gt;Node20</title>
<path fill="none" stroke="midnightblue" d="M117.5,-67.4C124.38,-58.96 133.26,-48.07 141.04,-38.52"/>
<polygon fill="midnightblue" stroke="midnightblue" points="143.92,-40.54 147.52,-30.58 138.49,-36.11 143.92,-40.54"/>
</g>
</g>
</svg>
        <g id="navigator" transform="translate(0 0)" fill="#404254">
                <rect fill="#f2f5e9" fill-opacity="0.5" stroke="#606060" stroke-width=".5" x="0" y="0" width="60" height="60"/>
                <use id="zoomplus" xlink:href="#zoomPlus" x="17" y="9" onmousedown="handleZoom(evt,'in')"/>
                <use id="zoomminus" xlink:href="#zoomMin" x="42" y="9" onmousedown="handleZoom(evt,'out')"/>
                <use id="reset" xlink:href="#resetDef" x="30" y="36" onmousedown="handleReset()"/>
                <g id="arrowUp" xlink:href="#dirArrow" transform="translate(30 24)" onmousedown="handlePan(0,-1)">
                  <use xlink:href="#rim" fill="#404040">
                        <set attributeName="fill" to="#808080" begin="arrowUp.mouseover" end="arrowUp.mouseout"/>
                  </use>
                  <path fill="none" stroke="white" stroke-width="1.5" d="M0,-3.0v7 M-2.5,-0.5L0,-3.0L2.5,-0.5"/>
                </g>
                <g id="arrowRight" xlink:href="#dirArrow" transform="rotate(90) translate(36 -43)" onmousedown="handlePan(1,0)">
                  <use xlink:href="#rim" fill="#404040">
                        <set attributeName="fill" to="#808080" begin="arrowRight.mouseover" end="arrowRight.mouseout"/>
                  </use>
                  <path fill="none" stroke="white" stroke-width="1.5" d="M0,-3.0v7 M-2.5,-0.5L0,-3.0L2.5,-0.5"/>
                </g>
                <g id="arrowDown" xlink:href="#dirArrow" transform="rotate(180) translate(-30 -48)" onmousedown="handlePan(0,1)">
                  <use xlink:href="#rim" fill="#404040">
                        <set attributeName="fill" to="#808080" begin="arrowDown.mouseover" end="arrowDown.mouseout"/>
                  </use>
                  <path fill="none" stroke="white" stroke-width="1.5" d="M0,-3.0v7 M-2.5,-0.5L0,-3.0L2.5,-0.5"/>
                </g>
                <g id="arrowLeft" xlink:href="#dirArrow" transform="rotate(270) translate(-36 17)" onmousedown="handlePan(-1,0)">
                  <use xlink:href="#rim" fill="#404040">
                        <set attributeName="fill" to="#808080" begin="arrowLeft.mouseover" end="arrowLeft.mouseout"/>
                  </use>
                  <path fill="none" stroke="white" stroke-width="1.5" d="M0,-3.0v7 M-2.5,-0.5L0,-3.0L2.5,-0.5"/>
                </g>
        </g>
        <svg viewBox="0 0 15 15" width="100%" height="30px" preserveAspectRatio="xMaxYMin meet">
         <g id="arrow_out" transform="scale(0.3 0.3)">
          <a xlink:href="HeuristicManhattan_8h__incl_org.svg" target="_base">
           <rect id="button" ry="5" rx="5" y="6" x="6" height="38" width="38"
                fill="#f2f5e9" fill-opacity="0.5" stroke="#606060" stroke-width="1.0"/>
           <path id="arrow"
             d="M 11.500037,31.436501 C 11.940474,20.09759 22.043105,11.32322 32.158766,21.979434 L 37.068811,17.246167 C 37.068811,17.246167 37.088388,32 37.088388,32 L 22.160133,31.978069 C 22.160133,31.978069 26.997745,27.140456 26.997745,27.140456 C 18.528582,18.264221 13.291696,25.230495 11.500037,31.436501 z"
             style="fill:#404040;"/>
          </a>
         </g>
        </svg>
</svg>
