<?xml version="1.0" encoding="UTF-8" standalone="no"?>
<!DOCTYPE svg PUBLIC "-//W3C//DTD SVG 1.1//EN"
 "http://www.w3.org/Graphics/SVG/1.1/DTD/svg11.dtd">
<!-- Generated by graphviz version 2.43.0 (0)
 -->
<!-- Title: Solvers/ID/IndependenceDetection.cpp Pages: 1 -->
<!--zoomable 833 -->
<svg id="main" version="1.1" xmlns="http://www.w3.org/2000/svg" xmlns:xlink="http://www.w3.org/1999/xlink" xml:space="preserve" onload="init(evt)">
<style type="text/css"><![CDATA[
.edge:hover path { stroke: red; }
.edge:hover polygon { stroke: red; fill: red; }
]]></style>
<script type="text/javascript"><![CDATA[
var edges = document.getElementsByTagName('g');
if (edges && edges.length) {
  for (var i=0;i<edges.length;i++) {
    if (edges[i].id.substr(0,4)=='edge') {
      edges[i].setAttribute('class','edge');
    }
  }
}
]]></script>
        <defs>
                <circle id="rim" cx="0" cy="0" r="7"/>
                <circle id="rim2" cx="0" cy="0" r="3.5"/>
                <g id="zoomPlus">
                        <use xlink:href="#rim" fill="#404040">
                                <set attributeName="fill" to="#808080" begin="zoomplus.mouseover" end="zoomplus.mouseout"/>
                        </use>
                        <path d="M-4,0h8M0,-4v8" fill="none" stroke="white" stroke-width="1.5" pointer-events="none"/>
                </g>
                <g id="zoomMin">
                        <use xlink:href="#rim" fill="#404040">
                                <set attributeName="fill" to="#808080" begin="zoomminus.mouseover" end="zoomminus.mouseout"/>
                        </use>
                        <path d="M-4,0h8" fill="none" stroke="white" stroke-width="1.5" pointer-events="none"/>
                </g>
                <g id="dirArrow">
                        <path fill="none" stroke="white" stroke-width="1.5" d="M0,-3.0v7 M-2.5,-0.5L0,-3.0L2.5,-0.5"/>
                </g>
               <g id="resetDef">
                       <use xlink:href="#rim2" fill="#404040">
                               <set attributeName="fill" to="#808080" begin="reset.mouseover" end="reset.mouseout"/>
                       </use>
               </g>
        </defs>

<script type="text/javascript">
var viewWidth = 1685;
var viewHeight = 833;
var sectionId = 'dynsection-0';
</script>
<script xlink:href="svgpan.js"/>
<svg id="graph" class="graph">
<g id="viewport">
<title>Solvers/ID/IndependenceDetection.cpp</title>
<polygon fill="white" stroke="transparent" points="-4,4 -4,-829 1680.5,-829 1680.5,4 -4,4"/>
<!-- Node1 -->
<g id="node1" class="node">
<title>Node1</title>
<g id="a_node1"><a xlink:title=" ">
<polygon fill="#bfbfbf" stroke="black" points="70.5,-805.5 70.5,-824.5 275.5,-824.5 275.5,-805.5 70.5,-805.5"/>
<text text-anchor="middle" x="173" y="-812.5" font-family="Helvetica,sans-Serif" font-size="10.00">Solvers/ID/IndependenceDetection.cpp</text>
</a>
</g>
</g>
<!-- Node2 -->
<g id="node2" class="node">
<title>Node2</title>
<g id="a_node2"><a xlink:href="IndependenceDetection_8h.html" target="_top" xlink:title=" ">
<polygon fill="white" stroke="black" points="102.5,-749.5 102.5,-768.5 243.5,-768.5 243.5,-749.5 102.5,-749.5"/>
<text text-anchor="middle" x="173" y="-756.5" font-family="Helvetica,sans-Serif" font-size="10.00">IndependenceDetection.h</text>
</a>
</g>
</g>
<!-- Node1&#45;&gt;Node2 -->
<g id="edge1" class="edge">
<title>Node1&#45;&gt;Node2</title>
<path fill="none" stroke="midnightblue" d="M173,-805.08C173,-798.01 173,-787.86 173,-778.99"/>
<polygon fill="midnightblue" stroke="midnightblue" points="176.5,-778.75 173,-768.75 169.5,-778.75 176.5,-778.75"/>
</g>
<!-- Node3 -->
<g id="node3" class="node">
<title>Node3</title>
<g id="a_node3"><a xlink:href="AlreadyConflictedBeforeSet_8h.html" target="_top" xlink:title=" ">
<polygon fill="white" stroke="black" points="0,-693.5 0,-712.5 160,-712.5 160,-693.5 0,-693.5"/>
<text text-anchor="middle" x="80" y="-700.5" font-family="Helvetica,sans-Serif" font-size="10.00">AlreadyConflictedBeforeSet.h</text>
</a>
</g>
</g>
<!-- Node2&#45;&gt;Node3 -->
<g id="edge2" class="edge">
<title>Node2&#45;&gt;Node3</title>
<path fill="none" stroke="midnightblue" d="M158.06,-749.32C143.41,-740.82 120.87,-727.73 103.76,-717.8"/>
<polygon fill="midnightblue" stroke="midnightblue" points="105.31,-714.65 94.9,-712.65 101.8,-720.7 105.31,-714.65"/>
</g>
<!-- Node7 -->
<g id="node7" class="node">
<title>Node7</title>
<g id="a_node7"><a xlink:href="SimpleIndependenceDetection_8h.html" target="_top" xlink:title=" ">
<polygon fill="white" stroke="black" points="178.5,-693.5 178.5,-712.5 353.5,-712.5 353.5,-693.5 178.5,-693.5"/>
<text text-anchor="middle" x="266" y="-700.5" font-family="Helvetica,sans-Serif" font-size="10.00">SimpleIndependenceDetection.h</text>
</a>
</g>
</g>
<!-- Node2&#45;&gt;Node7 -->
<g id="edge6" class="edge">
<title>Node2&#45;&gt;Node7</title>
<path fill="none" stroke="midnightblue" d="M187.94,-749.32C202.59,-740.82 225.13,-727.73 242.24,-717.8"/>
<polygon fill="midnightblue" stroke="midnightblue" points="244.2,-720.7 251.1,-712.65 240.69,-714.65 244.2,-720.7"/>
</g>
<!-- Node4 -->
<g id="node4" class="node">
<title>Node4</title>
<g id="a_node4"><a xlink:href="Group_8h.html" target="_top" xlink:title=" ">
<polygon fill="white" stroke="black" points="121.5,-581.5 121.5,-600.5 176.5,-600.5 176.5,-581.5 121.5,-581.5"/>
<text text-anchor="middle" x="149" y="-588.5" font-family="Helvetica,sans-Serif" font-size="10.00">Group.h</text>
</a>
</g>
</g>
<!-- Node3&#45;&gt;Node4 -->
<g id="edge3" class="edge">
<title>Node3&#45;&gt;Node4</title>
<path fill="none" stroke="midnightblue" d="M80.99,-693.39C82.81,-680.33 87.61,-655.12 99,-637 106.31,-625.38 117.45,-614.94 127.36,-607.05"/>
<polygon fill="midnightblue" stroke="midnightblue" points="129.76,-609.62 135.63,-600.81 125.54,-604.04 129.76,-609.62"/>
</g>
<!-- Node5 -->
<g id="node5" class="node">
<title>Node5</title>
<g id="a_node5"><a xlink:href="Solution_8h.html" target="_top" xlink:title=" ">
<polygon fill="white" stroke="black" points="74,-464 74,-483 200,-483 200,-464 74,-464"/>
<text text-anchor="middle" x="137" y="-471" font-family="Helvetica,sans-Serif" font-size="10.00">../../Solution/Solution.h</text>
</a>
</g>
</g>
<!-- Node4&#45;&gt;Node5 -->
<g id="edge4" class="edge">
<title>Node4&#45;&gt;Node5</title>
<path fill="none" stroke="midnightblue" d="M148.1,-581.32C146.17,-562.76 141.61,-518.84 138.97,-493.47"/>
<polygon fill="midnightblue" stroke="midnightblue" points="142.43,-492.87 137.91,-483.28 135.46,-493.59 142.43,-492.87"/>
</g>
<!-- Node6 -->
<g id="node6" class="node">
<title>Node6</title>
<g id="a_node6"><a xlink:href="VertexConstraint_8h.html" target="_top" xlink:title=" ">
<polygon fill="white" stroke="black" points="383.5,-0.5 383.5,-19.5 558.5,-19.5 558.5,-0.5 383.5,-0.5"/>
<text text-anchor="middle" x="471" y="-7.5" font-family="Helvetica,sans-Serif" font-size="10.00">../Constraints/VertexConstraint.h</text>
</a>
</g>
</g>
<!-- Node5&#45;&gt;Node6 -->
<g id="edge5" class="edge">
<title>Node5&#45;&gt;Node6</title>
<path fill="none" stroke="midnightblue" d="M139.99,-463.98C147.02,-443.16 164,-387.98 164,-340.5 164,-340.5 164,-340.5 164,-137.5 164,-88.87 194.68,-79.96 237,-56 278.16,-32.69 329.24,-21.23 373.16,-15.68"/>
<polygon fill="midnightblue" stroke="midnightblue" points="373.76,-19.13 383.28,-14.49 372.94,-12.18 373.76,-19.13"/>
</g>
<!-- Node7&#45;&gt;Node4 -->
<g id="edge64" class="edge">
<title>Node7&#45;&gt;Node4</title>
<path fill="none" stroke="midnightblue" d="M259.49,-693.5C249.39,-680.59 229.04,-655.56 209,-637 196.97,-625.86 182.26,-614.79 170.42,-606.42"/>
<polygon fill="midnightblue" stroke="midnightblue" points="172.22,-603.41 162.01,-600.59 168.23,-609.16 172.22,-603.41"/>
</g>
<!-- Node8 -->
<g id="node8" class="node">
<title>Node8</title>
<g id="a_node8"><a xlink:href="MultiAgentProblem_8h.html" target="_top" xlink:title=" ">
<polygon fill="white" stroke="black" points="1093.5,-190.5 1093.5,-220.5 1230.5,-220.5 1230.5,-190.5 1093.5,-190.5"/>
<text text-anchor="start" x="1101.5" y="-208.5" font-family="Helvetica,sans-Serif" font-size="10.00">../../Problems/MultiAgent</text>
<text text-anchor="middle" x="1162" y="-197.5" font-family="Helvetica,sans-Serif" font-size="10.00">Problem.h</text>
</a>
</g>
</g>
<!-- Node7&#45;&gt;Node8 -->
<g id="edge7" class="edge">
<title>Node7&#45;&gt;Node8</title>
<path fill="none" stroke="midnightblue" d="M314.3,-693.48C524.47,-655.34 1355.31,-493.17 1503,-288 1605.76,-145.24 1759.3,-303.05 1240.89,-221.09"/>
<polygon fill="midnightblue" stroke="midnightblue" points="1241.3,-217.61 1230.87,-219.49 1240.2,-224.52 1241.3,-217.61"/>
</g>
<!-- Node13 -->
<g id="node13" class="node">
<title>Node13</title>
<g id="a_node13"><a xlink:href="SingleAgentProblem_8h.html" target="_top" xlink:title=" ">
<polygon fill="white" stroke="black" points="332,-190.5 332,-220.5 474,-220.5 474,-190.5 332,-190.5"/>
<text text-anchor="start" x="340" y="-208.5" font-family="Helvetica,sans-Serif" font-size="10.00">../../Problems/SingleAgent</text>
<text text-anchor="middle" x="403" y="-197.5" font-family="Helvetica,sans-Serif" font-size="10.00">Problem.h</text>
</a>
</g>
</g>
<!-- Node7&#45;&gt;Node13 -->
<g id="edge13" class="edge">
<title>Node7&#45;&gt;Node13</title>
<path fill="none" stroke="midnightblue" d="M266,-693.44C266,-674.94 266,-629.81 266,-592 266,-592 266,-592 266,-338.5 266,-285.03 320.79,-246.4 361.07,-225.22"/>
<polygon fill="midnightblue" stroke="midnightblue" points="362.85,-228.24 370.19,-220.59 359.68,-222 362.85,-228.24"/>
</g>
<!-- Node14 -->
<g id="node14" class="node">
<title>Node14</title>
<g id="a_node14"><a xlink:href="GeneralAStar_8h.html" target="_top" xlink:title=" ">
<polygon fill="white" stroke="black" points="300,-581.5 300,-600.5 428,-600.5 428,-581.5 300,-581.5"/>
<text text-anchor="middle" x="364" y="-588.5" font-family="Helvetica,sans-Serif" font-size="10.00">../AStar/GeneralAStar.h</text>
</a>
</g>
</g>
<!-- Node7&#45;&gt;Node14 -->
<g id="edge15" class="edge">
<title>Node7&#45;&gt;Node14</title>
<path fill="none" stroke="midnightblue" d="M273.69,-693.37C290.01,-675.05 328.32,-632.05 349.42,-608.36"/>
<polygon fill="midnightblue" stroke="midnightblue" points="352.31,-610.39 356.35,-600.59 347.08,-605.73 352.31,-610.39"/>
</g>
<!-- Node34 -->
<g id="node34" class="node">
<title>Node34</title>
<g id="a_node34"><a xlink:href="ConflictBasedSearch_8h.html" target="_top" xlink:title=" ">
<polygon fill="white" stroke="black" points="1519.5,-637.5 1519.5,-656.5 1676.5,-656.5 1676.5,-637.5 1519.5,-637.5"/>
<text text-anchor="middle" x="1598" y="-644.5" font-family="Helvetica,sans-Serif" font-size="10.00">../CBS/ConflictBasedSearch.h</text>
</a>
</g>
</g>
<!-- Node7&#45;&gt;Node34 -->
<g id="edge57" class="edge">
<title>Node7&#45;&gt;Node34</title>
<path fill="none" stroke="midnightblue" d="M353.6,-700.63C556.34,-697.06 1073.58,-685.68 1505,-657 1506.32,-656.91 1507.65,-656.82 1508.99,-656.73"/>
<polygon fill="midnightblue" stroke="midnightblue" points="1509.67,-660.18 1519.38,-655.94 1509.15,-653.2 1509.67,-660.18"/>
</g>
<!-- Node37 -->
<g id="node37" class="node">
<title>Node37</title>
<g id="a_node37"><a xlink:href="GroupConflict_8h.html" target="_top" xlink:title=" ">
<polygon fill="white" stroke="black" points="108,-637.5 108,-656.5 200,-656.5 200,-637.5 108,-637.5"/>
<text text-anchor="middle" x="154" y="-644.5" font-family="Helvetica,sans-Serif" font-size="10.00">GroupConflict.h</text>
</a>
</g>
</g>
<!-- Node7&#45;&gt;Node37 -->
<g id="edge65" class="edge">
<title>Node7&#45;&gt;Node37</title>
<path fill="none" stroke="midnightblue" d="M248.01,-693.32C229.96,-684.62 201.95,-671.12 181.2,-661.11"/>
<polygon fill="midnightblue" stroke="midnightblue" points="182.48,-657.84 171.95,-656.65 179.44,-664.15 182.48,-657.84"/>
</g>
<!-- Node9 -->
<g id="node9" class="node">
<title>Node9</title>
<g id="a_node9"><a xlink:href="Problem_8h.html" target="_top" xlink:title=" ">
<polygon fill="white" stroke="black" points="342,-129 342,-148 408,-148 408,-129 342,-129"/>
<text text-anchor="middle" x="375" y="-136" font-family="Helvetica,sans-Serif" font-size="10.00">Problem.h</text>
</a>
</g>
</g>
<!-- Node8&#45;&gt;Node9 -->
<g id="edge8" class="edge">
<title>Node8&#45;&gt;Node9</title>
<path fill="none" stroke="midnightblue" d="M1093.17,-191.2C1090.08,-190.76 1087.01,-190.36 1084,-190 789.22,-154.8 708.35,-210.99 417,-154 413.3,-153.28 409.48,-152.3 405.73,-151.19"/>
<polygon fill="midnightblue" stroke="midnightblue" points="406.64,-147.81 396.05,-148.05 404.48,-154.47 406.64,-147.81"/>
</g>
<!-- Node10 -->
<g id="node10" class="node">
<title>Node10</title>
<g id="a_node10"><a xlink:href="ConstraintsSet_8h.html" target="_top" xlink:title=" ">
<polygon fill="white" stroke="black" points="401,-56.5 401,-86.5 541,-86.5 541,-56.5 401,-56.5"/>
<text text-anchor="start" x="409" y="-74.5" font-family="Helvetica,sans-Serif" font-size="10.00">../Constraints/Constraints</text>
<text text-anchor="middle" x="471" y="-63.5" font-family="Helvetica,sans-Serif" font-size="10.00">Set.h</text>
</a>
</g>
</g>
<!-- Node9&#45;&gt;Node10 -->
<g id="edge9" class="edge">
<title>Node9&#45;&gt;Node10</title>
<path fill="none" stroke="midnightblue" d="M387.95,-128.73C401.67,-119.44 423.8,-104.46 441.76,-92.3"/>
<polygon fill="midnightblue" stroke="midnightblue" points="443.87,-95.09 450.19,-86.59 439.95,-89.3 443.87,-95.09"/>
</g>
<!-- Node12 -->
<g id="node12" class="node">
<title>Node12</title>
<g id="a_node12"><a xlink:href="Graph_8h.html" target="_top" xlink:title=" ">
<polygon fill="white" stroke="black" points="246,-62 246,-81 372,-81 372,-62 246,-62"/>
<text text-anchor="middle" x="309" y="-69" font-family="Helvetica,sans-Serif" font-size="10.00">../GraphParser/Graph.h</text>
</a>
</g>
</g>
<!-- Node9&#45;&gt;Node12 -->
<g id="edge12" class="edge">
<title>Node9&#45;&gt;Node12</title>
<path fill="none" stroke="midnightblue" d="M366.1,-128.73C355.61,-118.4 337.98,-101.04 325.08,-88.33"/>
<polygon fill="midnightblue" stroke="midnightblue" points="327.34,-85.65 317.76,-81.13 322.43,-90.64 327.34,-85.65"/>
</g>
<!-- Node10&#45;&gt;Node6 -->
<g id="edge11" class="edge">
<title>Node10&#45;&gt;Node6</title>
<path fill="none" stroke="midnightblue" d="M471,-56.4C471,-48.47 471,-38.46 471,-29.86"/>
<polygon fill="midnightblue" stroke="midnightblue" points="474.5,-29.66 471,-19.66 467.5,-29.66 474.5,-29.66"/>
</g>
<!-- Node11 -->
<g id="node11" class="node">
<title>Node11</title>
<g id="a_node11"><a xlink:href="EdgeConstraint_8h.html" target="_top" xlink:title=" ">
<polygon fill="white" stroke="black" points="583,-0.5 583,-19.5 683,-19.5 683,-0.5 583,-0.5"/>
<text text-anchor="middle" x="633" y="-7.5" font-family="Helvetica,sans-Serif" font-size="10.00">EdgeConstraint.h</text>
</a>
</g>
</g>
<!-- Node10&#45;&gt;Node11 -->
<g id="edge10" class="edge">
<title>Node10&#45;&gt;Node11</title>
<path fill="none" stroke="midnightblue" d="M509.39,-56.4C536.94,-46.28 573.67,-32.79 599.92,-23.15"/>
<polygon fill="midnightblue" stroke="midnightblue" points="601.25,-26.39 609.43,-19.66 598.83,-19.82 601.25,-26.39"/>
</g>
<!-- Node13&#45;&gt;Node9 -->
<g id="edge14" class="edge">
<title>Node13&#45;&gt;Node9</title>
<path fill="none" stroke="midnightblue" d="M396.92,-190.4C392.77,-180.76 387.24,-167.91 382.77,-157.54"/>
<polygon fill="midnightblue" stroke="midnightblue" points="385.92,-155.99 378.75,-148.19 379.49,-158.76 385.92,-155.99"/>
</g>
<!-- Node14&#45;&gt;Node9 -->
<g id="edge56" class="edge">
<title>Node14&#45;&gt;Node9</title>
<path fill="none" stroke="midnightblue" d="M338.42,-581.5C299.02,-566.61 228,-531.81 228,-474.5 228,-474.5 228,-474.5 228,-271.5 228,-210.59 298.73,-170.67 342.06,-151.93"/>
<polygon fill="midnightblue" stroke="midnightblue" points="343.5,-155.12 351.38,-148.04 340.81,-148.66 343.5,-155.12"/>
</g>
<!-- Node15 -->
<g id="node15" class="node">
<title>Node15</title>
<g id="a_node15"><a xlink:href="AStar_8h.html" target="_top" xlink:title=" ">
<polygon fill="white" stroke="black" points="344.5,-525.5 344.5,-544.5 395.5,-544.5 395.5,-525.5 344.5,-525.5"/>
<text text-anchor="middle" x="370" y="-532.5" font-family="Helvetica,sans-Serif" font-size="10.00">AStar.h</text>
</a>
</g>
</g>
<!-- Node14&#45;&gt;Node15 -->
<g id="edge16" class="edge">
<title>Node14&#45;&gt;Node15</title>
<path fill="none" stroke="midnightblue" d="M364.99,-581.08C365.79,-573.93 366.93,-563.64 367.92,-554.69"/>
<polygon fill="midnightblue" stroke="midnightblue" points="371.4,-555.08 369.03,-544.75 364.44,-554.3 371.4,-555.08"/>
</g>
<!-- Node15&#45;&gt;Node5 -->
<g id="edge55" class="edge">
<title>Node15&#45;&gt;Node5</title>
<path fill="none" stroke="midnightblue" d="M344.17,-527.41C304.57,-517.29 228.39,-497.84 180.26,-485.55"/>
<polygon fill="midnightblue" stroke="midnightblue" points="181,-482.12 170.44,-483.04 179.26,-488.91 181,-482.12"/>
</g>
<!-- Node16 -->
<g id="node16" class="node">
<title>Node16</title>
<g id="a_node16"><a xlink:href="AStarProblem_8h.html" target="_top" xlink:title=" ">
<polygon fill="white" stroke="black" points="793.5,-190.5 793.5,-220.5 900.5,-220.5 900.5,-190.5 793.5,-190.5"/>
<text text-anchor="start" x="801.5" y="-208.5" font-family="Helvetica,sans-Serif" font-size="10.00">../../AStarProblems</text>
<text text-anchor="middle" x="847" y="-197.5" font-family="Helvetica,sans-Serif" font-size="10.00">/AStarProblem.h</text>
</a>
</g>
</g>
<!-- Node15&#45;&gt;Node16 -->
<g id="edge17" class="edge">
<title>Node15&#45;&gt;Node16</title>
<path fill="none" stroke="midnightblue" d="M395.62,-533.04C497.19,-528.57 866,-505.59 866,-407.5 866,-407.5 866,-407.5 866,-338.5 866,-300.45 858.17,-256.85 852.56,-230.51"/>
<polygon fill="midnightblue" stroke="midnightblue" points="855.96,-229.68 850.4,-220.66 849.13,-231.18 855.96,-229.68"/>
</g>
<!-- Node17 -->
<g id="node17" class="node">
<title>Node17</title>
<g id="a_node17"><a xlink:href="HeuristicOptimal_8h.html" target="_top" xlink:title=" ">
<polygon fill="white" stroke="black" points="328,-458.5 328,-488.5 458,-488.5 458,-458.5 328,-458.5"/>
<text text-anchor="start" x="336" y="-476.5" font-family="Helvetica,sans-Serif" font-size="10.00">../../Heuristics/Heuristic</text>
<text text-anchor="middle" x="393" y="-465.5" font-family="Helvetica,sans-Serif" font-size="10.00">Optimal.h</text>
</a>
</g>
</g>
<!-- Node15&#45;&gt;Node17 -->
<g id="edge18" class="edge">
<title>Node15&#45;&gt;Node17</title>
<path fill="none" stroke="midnightblue" d="M373.3,-525.48C376.06,-518.32 380.15,-507.75 383.88,-498.08"/>
<polygon fill="midnightblue" stroke="midnightblue" points="387.24,-499.11 387.58,-488.52 380.71,-496.59 387.24,-499.11"/>
</g>
<!-- Node17&#45;&gt;Node12 -->
<g id="edge19" class="edge">
<title>Node17&#45;&gt;Node12</title>
<path fill="none" stroke="midnightblue" d="M368.67,-458.46C355.23,-449.58 339.23,-436.95 329,-422 307.6,-390.73 304,-378.39 304,-340.5 304,-340.5 304,-340.5 304,-204.5 304,-164.13 306.36,-116.86 307.84,-91.27"/>
<polygon fill="midnightblue" stroke="midnightblue" points="311.34,-91.34 308.45,-81.14 304.36,-90.92 311.34,-91.34"/>
</g>
<!-- Node18 -->
<g id="node18" class="node">
<title>Node18</title>
<g id="a_node18"><a xlink:href="ReverseResumableAStar_8h.html" target="_top" xlink:title=" ">
<polygon fill="white" stroke="black" points="338,-391.5 338,-421.5 472,-421.5 472,-391.5 338,-391.5"/>
<text text-anchor="start" x="346" y="-409.5" font-family="Helvetica,sans-Serif" font-size="10.00">../Solvers/AStar/Reverse</text>
<text text-anchor="middle" x="405" y="-398.5" font-family="Helvetica,sans-Serif" font-size="10.00">ResumableAStar.h</text>
</a>
</g>
</g>
<!-- Node17&#45;&gt;Node18 -->
<g id="edge20" class="edge">
<title>Node17&#45;&gt;Node18</title>
<path fill="none" stroke="midnightblue" d="M395.6,-458.4C397.05,-450.56 398.89,-440.6 400.56,-431.57"/>
<polygon fill="midnightblue" stroke="midnightblue" points="404.03,-432.05 402.4,-421.58 397.14,-430.77 404.03,-432.05"/>
</g>
<!-- Node22 -->
<g id="node22" class="node">
<title>Node22</title>
<g id="a_node22"><a xlink:href="HeuristicManhattan_8h.html" target="_top" xlink:title=" ">
<polygon fill="white" stroke="black" points="612,-324.5 612,-354.5 742,-354.5 742,-324.5 612,-324.5"/>
<text text-anchor="start" x="620" y="-342.5" font-family="Helvetica,sans-Serif" font-size="10.00">../../Heuristics/Heuristic</text>
<text text-anchor="middle" x="677" y="-331.5" font-family="Helvetica,sans-Serif" font-size="10.00">Manhattan.h</text>
</a>
</g>
</g>
<!-- Node17&#45;&gt;Node22 -->
<g id="edge54" class="edge">
<title>Node17&#45;&gt;Node22</title>
<path fill="none" stroke="midnightblue" d="M423.12,-458.5C474.78,-434.49 580.23,-385.48 637.63,-358.8"/>
<polygon fill="midnightblue" stroke="midnightblue" points="639.16,-361.95 646.76,-354.56 636.21,-355.6 639.16,-361.95"/>
</g>
<!-- Node19 -->
<g id="node19" class="node">
<title>Node19</title>
<g id="a_node19"><a xlink:href="SingleAgentAStarProblem_8h.html" target="_top" xlink:title=" ">
<polygon fill="white" stroke="black" points="332,-257.5 332,-287.5 486,-287.5 486,-257.5 332,-257.5"/>
<text text-anchor="start" x="340" y="-275.5" font-family="Helvetica,sans-Serif" font-size="10.00">../../AStarProblems</text>
<text text-anchor="middle" x="409" y="-264.5" font-family="Helvetica,sans-Serif" font-size="10.00">/SingleAgentAStarProblem.h</text>
</a>
</g>
</g>
<!-- Node18&#45;&gt;Node19 -->
<g id="edge21" class="edge">
<title>Node18&#45;&gt;Node19</title>
<path fill="none" stroke="midnightblue" d="M405.43,-391.37C406.1,-369.04 407.43,-325.31 408.26,-297.85"/>
<polygon fill="midnightblue" stroke="midnightblue" points="411.77,-297.63 408.58,-287.52 404.77,-297.41 411.77,-297.63"/>
</g>
<!-- Node18&#45;&gt;Node22 -->
<g id="edge26" class="edge">
<title>Node18&#45;&gt;Node22</title>
<path fill="none" stroke="midnightblue" d="M463.69,-391.48C506.08,-381.34 563.49,-367.63 608.07,-356.97"/>
<polygon fill="midnightblue" stroke="midnightblue" points="609.04,-360.34 617.95,-354.61 607.41,-353.53 609.04,-360.34"/>
</g>
<!-- Node33 -->
<g id="node33" class="node">
<title>Node33</title>
<g id="a_node33"><a xlink:href="Node_8h.html" target="_top" xlink:title=" ">
<polygon fill="white" stroke="black" points="332.5,-330 332.5,-349 383.5,-349 383.5,-330 332.5,-330"/>
<text text-anchor="middle" x="358" y="-337" font-family="Helvetica,sans-Serif" font-size="10.00">Node.h</text>
</a>
</g>
</g>
<!-- Node18&#45;&gt;Node33 -->
<g id="edge53" class="edge">
<title>Node18&#45;&gt;Node33</title>
<path fill="none" stroke="midnightblue" d="M394.8,-391.4C387.62,-381.46 377.96,-368.11 370.34,-357.57"/>
<polygon fill="midnightblue" stroke="midnightblue" points="372.98,-355.25 364.29,-349.19 367.31,-359.35 372.98,-355.25"/>
</g>
<!-- Node19&#45;&gt;Node13 -->
<g id="edge22" class="edge">
<title>Node19&#45;&gt;Node13</title>
<path fill="none" stroke="midnightblue" d="M407.7,-257.4C406.97,-249.56 406.05,-239.6 405.22,-230.57"/>
<polygon fill="midnightblue" stroke="midnightblue" points="408.7,-230.21 404.3,-220.58 401.73,-230.86 408.7,-230.21"/>
</g>
<!-- Node19&#45;&gt;Node16 -->
<g id="edge25" class="edge">
<title>Node19&#45;&gt;Node16</title>
<path fill="none" stroke="midnightblue" d="M486.34,-258.37C489.26,-257.9 492.16,-257.44 495,-257 595.58,-241.31 712.63,-224.88 783.2,-215.17"/>
<polygon fill="midnightblue" stroke="midnightblue" points="783.84,-218.62 793.27,-213.79 782.88,-211.68 783.84,-218.62"/>
</g>
<!-- Node20 -->
<g id="node20" class="node">
<title>Node20</title>
<g id="a_node20"><a xlink:href="SingleAgentState_8h.html" target="_top" xlink:title=" ">
<polygon fill="white" stroke="black" points="426,-129 426,-148 578,-148 578,-129 426,-129"/>
<text text-anchor="middle" x="502" y="-136" font-family="Helvetica,sans-Serif" font-size="10.00">../States/SingleAgentState.h</text>
</a>
</g>
</g>
<!-- Node19&#45;&gt;Node20 -->
<g id="edge23" class="edge">
<title>Node19&#45;&gt;Node20</title>
<path fill="none" stroke="midnightblue" d="M439.79,-257.34C454.97,-248.86 472.28,-236.66 483,-221 495.86,-202.22 500.1,-175.9 501.45,-158.3"/>
<polygon fill="midnightblue" stroke="midnightblue" points="504.95,-158.34 501.98,-148.17 497.96,-157.97 504.95,-158.34"/>
</g>
<!-- Node21 -->
<g id="node21" class="node">
<title>Node21</title>
<g id="a_node21"><a xlink:href="State_8h.html" target="_top" xlink:title=" ">
<polygon fill="white" stroke="black" points="644.5,-62 644.5,-81 695.5,-81 695.5,-62 644.5,-62"/>
<text text-anchor="middle" x="670" y="-69" font-family="Helvetica,sans-Serif" font-size="10.00">State.h</text>
</a>
</g>
</g>
<!-- Node20&#45;&gt;Node21 -->
<g id="edge24" class="edge">
<title>Node20&#45;&gt;Node21</title>
<path fill="none" stroke="midnightblue" d="M524.31,-128.87C553.51,-117.57 604.88,-97.7 638.16,-84.82"/>
<polygon fill="midnightblue" stroke="midnightblue" points="639.8,-87.94 647.87,-81.06 637.28,-81.41 639.8,-87.94"/>
</g>
<!-- Node22&#45;&gt;Node19 -->
<g id="edge37" class="edge">
<title>Node22&#45;&gt;Node19</title>
<path fill="none" stroke="midnightblue" d="M619.18,-324.48C577.41,-314.34 520.84,-300.63 476.92,-289.97"/>
<polygon fill="midnightblue" stroke="midnightblue" points="477.72,-286.57 467.18,-287.61 476.07,-293.37 477.72,-286.57"/>
</g>
<!-- Node23 -->
<g id="node23" class="node">
<title>Node23</title>
<g id="a_node23"><a xlink:href="ODMultiAgentAStarProblem_8h.html" target="_top" xlink:title=" ">
<polygon fill="white" stroke="black" points="1354,-257.5 1354,-287.5 1494,-287.5 1494,-257.5 1354,-257.5"/>
<text text-anchor="start" x="1362" y="-275.5" font-family="Helvetica,sans-Serif" font-size="10.00">../AStarProblems/ODMulti</text>
<text text-anchor="middle" x="1424" y="-264.5" font-family="Helvetica,sans-Serif" font-size="10.00">AgentAStarProblem.h</text>
</a>
</g>
</g>
<!-- Node22&#45;&gt;Node23 -->
<g id="edge27" class="edge">
<title>Node22&#45;&gt;Node23</title>
<path fill="none" stroke="midnightblue" d="M742.19,-335.87C860.21,-330.61 1117.31,-316.84 1343.77,-288.07"/>
<polygon fill="midnightblue" stroke="midnightblue" points="1344.38,-291.52 1353.85,-286.77 1343.49,-284.58 1344.38,-291.52"/>
</g>
<!-- Node25 -->
<g id="node25" class="node">
<title>Node25</title>
<g id="a_node25"><a xlink:href="ODMultiAgentAStarProblemWithConstraints_8h.html" target="_top" xlink:title=" ">
<polygon fill="white" stroke="black" points="1136.5,-257.5 1136.5,-287.5 1335.5,-287.5 1335.5,-257.5 1136.5,-257.5"/>
<text text-anchor="start" x="1144.5" y="-275.5" font-family="Helvetica,sans-Serif" font-size="10.00">../AStarProblems/ODMulti</text>
<text text-anchor="middle" x="1236" y="-264.5" font-family="Helvetica,sans-Serif" font-size="10.00">AgentAStarProblemWithConstraints.h</text>
</a>
</g>
</g>
<!-- Node22&#45;&gt;Node25 -->
<g id="edge32" class="edge">
<title>Node22&#45;&gt;Node25</title>
<path fill="none" stroke="midnightblue" d="M742.26,-331.6C827.79,-322.46 982.77,-305.58 1125.93,-288.12"/>
<polygon fill="midnightblue" stroke="midnightblue" points="1126.72,-291.55 1136.22,-286.86 1125.87,-284.6 1126.72,-291.55"/>
</g>
<!-- Node27 -->
<g id="node27" class="node">
<title>Node27</title>
<g id="a_node27"><a xlink:href="SingleAgentAStarProblemWithConstraints_8h.html" target="_top" xlink:title=" ">
<polygon fill="white" stroke="black" points="504,-257.5 504,-287.5 674,-287.5 674,-257.5 504,-257.5"/>
<text text-anchor="start" x="512" y="-275.5" font-family="Helvetica,sans-Serif" font-size="10.00">../AStarProblems/SingleAgent</text>
<text text-anchor="middle" x="589" y="-264.5" font-family="Helvetica,sans-Serif" font-size="10.00">AStarProblemWithConstraints.h</text>
</a>
</g>
</g>
<!-- Node22&#45;&gt;Node27 -->
<g id="edge38" class="edge">
<title>Node22&#45;&gt;Node27</title>
<path fill="none" stroke="midnightblue" d="M657.91,-324.4C645.68,-315.37 629.63,-303.51 616.1,-293.52"/>
<polygon fill="midnightblue" stroke="midnightblue" points="618.18,-290.7 608.06,-287.58 614.02,-296.33 618.18,-290.7"/>
</g>
<!-- Node29 -->
<g id="node29" class="node">
<title>Node29</title>
<g id="a_node29"><a xlink:href="StandardMultiAgentAStarProblem_8h.html" target="_top" xlink:title=" ">
<polygon fill="white" stroke="black" points="692,-257.5 692,-287.5 838,-287.5 838,-257.5 692,-257.5"/>
<text text-anchor="start" x="700" y="-275.5" font-family="Helvetica,sans-Serif" font-size="10.00">../AStarProblems/Standard</text>
<text text-anchor="middle" x="765" y="-264.5" font-family="Helvetica,sans-Serif" font-size="10.00">MultiAgentAStarProblem.h</text>
</a>
</g>
</g>
<!-- Node22&#45;&gt;Node29 -->
<g id="edge43" class="edge">
<title>Node22&#45;&gt;Node29</title>
<path fill="none" stroke="midnightblue" d="M696.09,-324.4C708.32,-315.37 724.37,-303.51 737.9,-293.52"/>
<polygon fill="midnightblue" stroke="midnightblue" points="739.98,-296.33 745.94,-287.58 735.82,-290.7 739.98,-296.33"/>
</g>
<!-- Node31 -->
<g id="node31" class="node">
<title>Node31</title>
<g id="a_node31"><a xlink:href="StandardMultiAgentAStarProblemWithConstraints_8h.html" target="_top" xlink:title=" ">
<polygon fill="white" stroke="black" points="894,-257.5 894,-287.5 1118,-287.5 1118,-257.5 894,-257.5"/>
<text text-anchor="start" x="902" y="-275.5" font-family="Helvetica,sans-Serif" font-size="10.00">../AStarProblems/Standard</text>
<text text-anchor="middle" x="1006" y="-264.5" font-family="Helvetica,sans-Serif" font-size="10.00">MultiAgentAStarProblemWithConstraints.h</text>
</a>
</g>
</g>
<!-- Node22&#45;&gt;Node31 -->
<g id="edge48" class="edge">
<title>Node22&#45;&gt;Node31</title>
<path fill="none" stroke="midnightblue" d="M742.39,-325.58C794.9,-315.21 868.88,-300.59 925.1,-289.48"/>
<polygon fill="midnightblue" stroke="midnightblue" points="925.9,-292.89 935.03,-287.52 924.54,-286.03 925.9,-292.89"/>
</g>
<!-- Node23&#45;&gt;Node8 -->
<g id="edge28" class="edge">
<title>Node23&#45;&gt;Node8</title>
<path fill="none" stroke="midnightblue" d="M1367.47,-257.48C1326.72,-247.37 1271.57,-233.68 1228.67,-223.04"/>
<polygon fill="midnightblue" stroke="midnightblue" points="1229.43,-219.62 1218.88,-220.61 1227.74,-226.42 1229.43,-219.62"/>
</g>
<!-- Node23&#45;&gt;Node16 -->
<g id="edge31" class="edge">
<title>Node23&#45;&gt;Node16</title>
<path fill="none" stroke="midnightblue" d="M1353.85,-258.25C1350.86,-257.81 1347.9,-257.39 1345,-257 1155.89,-231.88 1103.42,-250.2 910.41,-220.89"/>
<polygon fill="midnightblue" stroke="midnightblue" points="910.93,-217.43 900.51,-219.37 909.86,-224.35 910.93,-217.43"/>
</g>
<!-- Node24 -->
<g id="node24" class="node">
<title>Node24</title>
<g id="a_node24"><a xlink:href="ODMultiAgentState_8h.html" target="_top" xlink:title=" ">
<polygon fill="white" stroke="black" points="1246,-129 1246,-148 1408,-148 1408,-129 1246,-129"/>
<text text-anchor="middle" x="1327" y="-136" font-family="Helvetica,sans-Serif" font-size="10.00">../States/ODMultiAgentState.h</text>
</a>
</g>
</g>
<!-- Node23&#45;&gt;Node24 -->
<g id="edge29" class="edge">
<title>Node23&#45;&gt;Node24</title>
<path fill="none" stroke="midnightblue" d="M1426.09,-257.25C1427.87,-239.89 1428.34,-210.36 1415,-190 1403.25,-172.06 1382.76,-159.76 1364.51,-151.79"/>
<polygon fill="midnightblue" stroke="midnightblue" points="1365.82,-148.54 1355.23,-148.02 1363.18,-155.03 1365.82,-148.54"/>
</g>
<!-- Node24&#45;&gt;Node21 -->
<g id="edge30" class="edge">
<title>Node24&#45;&gt;Node21</title>
<path fill="none" stroke="midnightblue" d="M1245.95,-134.06C1101.54,-127.4 805.44,-111.25 705,-87 702.48,-86.39 699.91,-85.63 697.36,-84.77"/>
<polygon fill="midnightblue" stroke="midnightblue" points="698.4,-81.42 687.81,-81.13 695.91,-87.96 698.4,-81.42"/>
</g>
<!-- Node25&#45;&gt;Node8 -->
<g id="edge33" class="edge">
<title>Node25&#45;&gt;Node8</title>
<path fill="none" stroke="midnightblue" d="M1219.94,-257.4C1209.96,-248.62 1196.93,-237.18 1185.76,-227.37"/>
<polygon fill="midnightblue" stroke="midnightblue" points="1187.85,-224.55 1178.03,-220.58 1183.23,-229.81 1187.85,-224.55"/>
</g>
<!-- Node25&#45;&gt;Node16 -->
<g id="edge36" class="edge">
<title>Node25&#45;&gt;Node16</title>
<path fill="none" stroke="midnightblue" d="M1136.16,-257.95C1074,-249.06 992.19,-236.54 910.52,-221.01"/>
<polygon fill="midnightblue" stroke="midnightblue" points="911.04,-217.55 900.56,-219.11 909.72,-224.43 911.04,-217.55"/>
</g>
<!-- Node26 -->
<g id="node26" class="node">
<title>Node26</title>
<g id="a_node26"><a xlink:href="ODMultiAgentSpaceTimeState_8h.html" target="_top" xlink:title=" ">
<polygon fill="white" stroke="black" points="1248.5,-190.5 1248.5,-220.5 1405.5,-220.5 1405.5,-190.5 1248.5,-190.5"/>
<text text-anchor="start" x="1256.5" y="-208.5" font-family="Helvetica,sans-Serif" font-size="10.00">../States/ODMultiAgentSpace</text>
<text text-anchor="middle" x="1327" y="-197.5" font-family="Helvetica,sans-Serif" font-size="10.00">TimeState.h</text>
</a>
</g>
</g>
<!-- Node25&#45;&gt;Node26 -->
<g id="edge34" class="edge">
<title>Node25&#45;&gt;Node26</title>
<path fill="none" stroke="midnightblue" d="M1255.75,-257.4C1268.39,-248.37 1284.98,-236.51 1298.97,-226.52"/>
<polygon fill="midnightblue" stroke="midnightblue" points="1301.19,-229.24 1307.29,-220.58 1297.12,-223.54 1301.19,-229.24"/>
</g>
<!-- Node26&#45;&gt;Node24 -->
<g id="edge35" class="edge">
<title>Node26&#45;&gt;Node24</title>
<path fill="none" stroke="midnightblue" d="M1327,-190.4C1327,-181.06 1327,-168.71 1327,-158.52"/>
<polygon fill="midnightblue" stroke="midnightblue" points="1330.5,-158.19 1327,-148.19 1323.5,-158.19 1330.5,-158.19"/>
</g>
<!-- Node27&#45;&gt;Node13 -->
<g id="edge39" class="edge">
<title>Node27&#45;&gt;Node13</title>
<path fill="none" stroke="midnightblue" d="M548.64,-257.4C520.49,-247.56 482.74,-234.37 452.73,-223.88"/>
<polygon fill="midnightblue" stroke="midnightblue" points="453.88,-220.57 443.28,-220.58 451.57,-227.18 453.88,-220.57"/>
</g>
<!-- Node27&#45;&gt;Node16 -->
<g id="edge42" class="edge">
<title>Node27&#45;&gt;Node16</title>
<path fill="none" stroke="midnightblue" d="M644.66,-257.48C685.4,-247.21 740.73,-233.27 783.24,-222.56"/>
<polygon fill="midnightblue" stroke="midnightblue" points="784.36,-225.89 793.2,-220.05 782.65,-219.1 784.36,-225.89"/>
</g>
<!-- Node28 -->
<g id="node28" class="node">
<title>Node28</title>
<g id="a_node28"><a xlink:href="SingleAgentSpaceTimeState_8h.html" target="_top" xlink:title=" ">
<polygon fill="white" stroke="black" points="596.5,-123.5 596.5,-153.5 743.5,-153.5 743.5,-123.5 596.5,-123.5"/>
<text text-anchor="start" x="604.5" y="-141.5" font-family="Helvetica,sans-Serif" font-size="10.00">../States/SingleAgentSpace</text>
<text text-anchor="middle" x="670" y="-130.5" font-family="Helvetica,sans-Serif" font-size="10.00">TimeState.h</text>
</a>
</g>
</g>
<!-- Node27&#45;&gt;Node28 -->
<g id="edge40" class="edge">
<title>Node27&#45;&gt;Node28</title>
<path fill="none" stroke="midnightblue" d="M597.67,-257.37C611.61,-234.65 639.16,-189.75 655.95,-162.4"/>
<polygon fill="midnightblue" stroke="midnightblue" points="659.15,-163.88 661.39,-153.52 653.18,-160.22 659.15,-163.88"/>
</g>
<!-- Node28&#45;&gt;Node21 -->
<g id="edge41" class="edge">
<title>Node28&#45;&gt;Node21</title>
<path fill="none" stroke="midnightblue" d="M670,-123.4C670,-114.06 670,-101.71 670,-91.52"/>
<polygon fill="midnightblue" stroke="midnightblue" points="673.5,-91.19 670,-81.19 666.5,-91.19 673.5,-91.19"/>
</g>
<!-- Node29&#45;&gt;Node8 -->
<g id="edge44" class="edge">
<title>Node29&#45;&gt;Node8</title>
<path fill="none" stroke="midnightblue" d="M838.26,-260.47C900.64,-250.95 992.91,-236.56 1082.99,-221.15"/>
<polygon fill="midnightblue" stroke="midnightblue" points="1083.85,-224.55 1093.11,-219.41 1082.67,-217.65 1083.85,-224.55"/>
</g>
<!-- Node29&#45;&gt;Node16 -->
<g id="edge47" class="edge">
<title>Node29&#45;&gt;Node16</title>
<path fill="none" stroke="midnightblue" d="M782.79,-257.4C794.08,-248.45 808.85,-236.74 821.39,-226.8"/>
<polygon fill="midnightblue" stroke="midnightblue" points="823.58,-229.53 829.24,-220.58 819.23,-224.05 823.58,-229.53"/>
</g>
<!-- Node30 -->
<g id="node30" class="node">
<title>Node30</title>
<g id="a_node30"><a xlink:href="StandardMultiAgentState_8h.html" target="_top" xlink:title=" ">
<polygon fill="white" stroke="black" points="762,-123.5 762,-153.5 918,-153.5 918,-123.5 762,-123.5"/>
<text text-anchor="start" x="770" y="-141.5" font-family="Helvetica,sans-Serif" font-size="10.00">../States/StandardMultiAgent</text>
<text text-anchor="middle" x="840" y="-130.5" font-family="Helvetica,sans-Serif" font-size="10.00">State.h</text>
</a>
</g>
</g>
<!-- Node29&#45;&gt;Node30 -->
<g id="edge45" class="edge">
<title>Node29&#45;&gt;Node30</title>
<path fill="none" stroke="midnightblue" d="M765.98,-257.3C767.71,-240.26 772.39,-211.32 785,-190 791.7,-178.67 801.75,-168.38 811.42,-160.09"/>
<polygon fill="midnightblue" stroke="midnightblue" points="813.83,-162.64 819.38,-153.62 809.41,-157.21 813.83,-162.64"/>
</g>
<!-- Node30&#45;&gt;Node21 -->
<g id="edge46" class="edge">
<title>Node30&#45;&gt;Node21</title>
<path fill="none" stroke="midnightblue" d="M801.46,-123.49C774.38,-113.54 737.36,-99.75 705,-87 703.36,-86.35 701.68,-85.68 699.98,-85"/>
<polygon fill="midnightblue" stroke="midnightblue" points="700.89,-81.59 690.31,-81.05 698.25,-88.07 700.89,-81.59"/>
</g>
<!-- Node31&#45;&gt;Node8 -->
<g id="edge49" class="edge">
<title>Node31&#45;&gt;Node8</title>
<path fill="none" stroke="midnightblue" d="M1039.85,-257.4C1063.05,-247.73 1094.03,-234.82 1118.98,-224.43"/>
<polygon fill="midnightblue" stroke="midnightblue" points="1120.33,-227.65 1128.22,-220.58 1117.64,-221.19 1120.33,-227.65"/>
</g>
<!-- Node31&#45;&gt;Node16 -->
<g id="edge52" class="edge">
<title>Node31&#45;&gt;Node16</title>
<path fill="none" stroke="midnightblue" d="M971.5,-257.4C947.85,-247.73 916.28,-234.82 890.85,-224.43"/>
<polygon fill="midnightblue" stroke="midnightblue" points="892.01,-221.12 881.43,-220.58 889.37,-227.6 892.01,-221.12"/>
</g>
<!-- Node32 -->
<g id="node32" class="node">
<title>Node32</title>
<g id="a_node32"><a xlink:href="StandardMultiAgentSpaceTimeState_8h.html" target="_top" xlink:title=" ">
<polygon fill="white" stroke="black" points="919,-190.5 919,-220.5 1075,-220.5 1075,-190.5 919,-190.5"/>
<text text-anchor="start" x="927" y="-208.5" font-family="Helvetica,sans-Serif" font-size="10.00">../States/StandardMultiAgent</text>
<text text-anchor="middle" x="997" y="-197.5" font-family="Helvetica,sans-Serif" font-size="10.00">SpaceTimeState.h</text>
</a>
</g>
</g>
<!-- Node31&#45;&gt;Node32 -->
<g id="edge50" class="edge">
<title>Node31&#45;&gt;Node32</title>
<path fill="none" stroke="midnightblue" d="M1004.05,-257.4C1002.96,-249.56 1001.58,-239.6 1000.33,-230.57"/>
<polygon fill="midnightblue" stroke="midnightblue" points="1003.79,-230 998.95,-220.58 996.85,-230.96 1003.79,-230"/>
</g>
<!-- Node32&#45;&gt;Node30 -->
<g id="edge51" class="edge">
<title>Node32&#45;&gt;Node30</title>
<path fill="none" stroke="midnightblue" d="M962.93,-190.4C939.58,-180.73 908.41,-167.82 883.3,-157.43"/>
<polygon fill="midnightblue" stroke="midnightblue" points="884.58,-154.17 874,-153.58 881.9,-160.64 884.58,-154.17"/>
</g>
<!-- Node34&#45;&gt;Node8 -->
<g id="edge58" class="edge">
<title>Node34&#45;&gt;Node8</title>
<path fill="none" stroke="midnightblue" d="M1592.72,-637.23C1582.27,-619.04 1560,-575.6 1560,-536 1560,-536 1560,-536 1560,-338.5 1560,-300.74 1564.81,-281.4 1536,-257 1487.61,-216.01 1320.72,-229.72 1241.05,-220.88"/>
<polygon fill="midnightblue" stroke="midnightblue" points="1241.23,-217.37 1230.86,-219.54 1240.32,-224.31 1241.23,-217.37"/>
</g>
<!-- Node34&#45;&gt;Node14 -->
<g id="edge59" class="edge">
<title>Node34&#45;&gt;Node14</title>
<path fill="none" stroke="midnightblue" d="M1519.4,-642.56C1295.48,-632.76 656.33,-604.79 438.09,-595.24"/>
<polygon fill="midnightblue" stroke="midnightblue" points="438.16,-591.74 428.02,-594.8 437.85,-598.74 438.16,-591.74"/>
</g>
<!-- Node35 -->
<g id="node35" class="node">
<title>Node35</title>
<g id="a_node35"><a xlink:href="ConflictTreeNode_8h.html" target="_top" xlink:title=" ">
<polygon fill="white" stroke="black" points="714,-62 714,-81 822,-81 822,-62 714,-62"/>
<text text-anchor="middle" x="768" y="-69" font-family="Helvetica,sans-Serif" font-size="10.00">ConflictTreeNode.h</text>
</a>
</g>
</g>
<!-- Node34&#45;&gt;Node35 -->
<g id="edge60" class="edge">
<title>Node34&#45;&gt;Node35</title>
<path fill="none" stroke="midnightblue" d="M1598,-637.44C1598,-618.94 1598,-573.81 1598,-536 1598,-536 1598,-536 1598,-204.5 1598,-116.28 1502.47,-144.86 1417,-123 1307.65,-95.03 973.81,-79.96 832.39,-74.69"/>
<polygon fill="midnightblue" stroke="midnightblue" points="832.26,-71.19 822.14,-74.31 832,-78.18 832.26,-71.19"/>
</g>
<!-- Node35&#45;&gt;Node6 -->
<g id="edge62" class="edge">
<title>Node35&#45;&gt;Node6</title>
<path fill="none" stroke="midnightblue" d="M732.07,-61.99C723.23,-59.97 713.79,-57.86 705,-56 644.85,-43.3 575.69,-30.18 528.24,-21.41"/>
<polygon fill="midnightblue" stroke="midnightblue" points="528.63,-17.92 518.16,-19.55 527.36,-24.81 528.63,-17.92"/>
</g>
<!-- Node35&#45;&gt;Node11 -->
<g id="edge61" class="edge">
<title>Node35&#45;&gt;Node11</title>
<path fill="none" stroke="midnightblue" d="M748.66,-61.98C725.9,-51.95 687.91,-35.2 661.71,-23.65"/>
<polygon fill="midnightblue" stroke="midnightblue" points="662.87,-20.34 652.31,-19.51 660.05,-26.74 662.87,-20.34"/>
</g>
<!-- Node36 -->
<g id="node36" class="node">
<title>Node36</title>
<g id="a_node36"><a xlink:href="AgentConflict_8h.html" target="_top" xlink:title=" ">
<polygon fill="white" stroke="black" points="722.5,-0.5 722.5,-19.5 813.5,-19.5 813.5,-0.5 722.5,-0.5"/>
<text text-anchor="middle" x="768" y="-7.5" font-family="Helvetica,sans-Serif" font-size="10.00">AgentConflict.h</text>
</a>
</g>
</g>
<!-- Node35&#45;&gt;Node36 -->
<g id="edge63" class="edge">
<title>Node35&#45;&gt;Node36</title>
<path fill="none" stroke="midnightblue" d="M768,-61.98C768,-53.58 768,-40.48 768,-29.66"/>
<polygon fill="midnightblue" stroke="midnightblue" points="771.5,-29.51 768,-19.51 764.5,-29.51 771.5,-29.51"/>
</g>
<!-- Node37&#45;&gt;Node4 -->
<g id="edge66" class="edge">
<title>Node37&#45;&gt;Node4</title>
<path fill="none" stroke="midnightblue" d="M153.17,-637.08C152.52,-630.01 151.58,-619.86 150.76,-610.99"/>
<polygon fill="midnightblue" stroke="midnightblue" points="154.22,-610.39 149.81,-600.75 147.25,-611.03 154.22,-610.39"/>
</g>
</g>
</svg>
        <g id="navigator" transform="translate(0 0)" fill="#404254">
                <rect fill="#f2f5e9" fill-opacity="0.5" stroke="#606060" stroke-width=".5" x="0" y="0" width="60" height="60"/>
                <use id="zoomplus" xlink:href="#zoomPlus" x="17" y="9" onmousedown="handleZoom(evt,'in')"/>
                <use id="zoomminus" xlink:href="#zoomMin" x="42" y="9" onmousedown="handleZoom(evt,'out')"/>
                <use id="reset" xlink:href="#resetDef" x="30" y="36" onmousedown="handleReset()"/>
                <g id="arrowUp" xlink:href="#dirArrow" transform="translate(30 24)" onmousedown="handlePan(0,-1)">
                  <use xlink:href="#rim" fill="#404040">
                        <set attributeName="fill" to="#808080" begin="arrowUp.mouseover" end="arrowUp.mouseout"/>
                  </use>
                  <path fill="none" stroke="white" stroke-width="1.5" d="M0,-3.0v7 M-2.5,-0.5L0,-3.0L2.5,-0.5"/>
                </g>
                <g id="arrowRight" xlink:href="#dirArrow" transform="rotate(90) translate(36 -43)" onmousedown="handlePan(1,0)">
                  <use xlink:href="#rim" fill="#404040">
                        <set attributeName="fill" to="#808080" begin="arrowRight.mouseover" end="arrowRight.mouseout"/>
                  </use>
                  <path fill="none" stroke="white" stroke-width="1.5" d="M0,-3.0v7 M-2.5,-0.5L0,-3.0L2.5,-0.5"/>
                </g>
                <g id="arrowDown" xlink:href="#dirArrow" transform="rotate(180) translate(-30 -48)" onmousedown="handlePan(0,1)">
                  <use xlink:href="#rim" fill="#404040">
                        <set attributeName="fill" to="#808080" begin="arrowDown.mouseover" end="arrowDown.mouseout"/>
                  </use>
                  <path fill="none" stroke="white" stroke-width="1.5" d="M0,-3.0v7 M-2.5,-0.5L0,-3.0L2.5,-0.5"/>
                </g>
                <g id="arrowLeft" xlink:href="#dirArrow" transform="rotate(270) translate(-36 17)" onmousedown="handlePan(-1,0)">
                  <use xlink:href="#rim" fill="#404040">
                        <set attributeName="fill" to="#808080" begin="arrowLeft.mouseover" end="arrowLeft.mouseout"/>
                  </use>
                  <path fill="none" stroke="white" stroke-width="1.5" d="M0,-3.0v7 M-2.5,-0.5L0,-3.0L2.5,-0.5"/>
                </g>
        </g>
        <svg viewBox="0 0 15 15" width="100%" height="30px" preserveAspectRatio="xMaxYMin meet">
         <g id="arrow_out" transform="scale(0.3 0.3)">
          <a xlink:href="IndependenceDetection_8cpp__incl_org.svg" target="_base">
           <rect id="button" ry="5" rx="5" y="6" x="6" height="38" width="38"
                fill="#f2f5e9" fill-opacity="0.5" stroke="#606060" stroke-width="1.0"/>
           <path id="arrow"
             d="M 11.500037,31.436501 C 11.940474,20.09759 22.043105,11.32322 32.158766,21.979434 L 37.068811,17.246167 C 37.068811,17.246167 37.088388,32 37.088388,32 L 22.160133,31.978069 C 22.160133,31.978069 26.997745,27.140456 26.997745,27.140456 C 18.528582,18.264221 13.291696,25.230495 11.500037,31.436501 z"
             style="fill:#404040;"/>
          </a>
         </g>
        </svg>
</svg>
