<?xml version="1.0" encoding="UTF-8" standalone="no"?>
<!DOCTYPE svg PUBLIC "-//W3C//DTD SVG 1.1//EN"
 "http://www.w3.org/Graphics/SVG/1.1/DTD/svg11.dtd">
<!-- Generated by graphviz version 2.43.0 (0)
 -->
<!-- Title: Solvers/ID/IndependenceDetection.cpp Pages: 1 -->
<svg width="362pt" height="140pt"
 viewBox="0.00 0.00 361.50 140.00" xmlns="http://www.w3.org/2000/svg" xmlns:xlink="http://www.w3.org/1999/xlink">
<g id="graph0" class="graph" transform="scale(1 1) rotate(0) translate(4 136)">
<title>Solvers/ID/IndependenceDetection.cpp</title>
<polygon fill="white" stroke="transparent" points="-4,4 -4,-136 357.5,-136 357.5,4 -4,4"/>
<!-- Node1 -->
<g id="node1" class="node">
<title>Node1</title>
<g id="a_node1"><a xlink:title=" ">
<polygon fill="#bfbfbf" stroke="black" points="70.5,-112.5 70.5,-131.5 275.5,-131.5 275.5,-112.5 70.5,-112.5"/>
<text text-anchor="middle" x="173" y="-119.5" font-family="Helvetica,sans-Serif" font-size="10.00">Solvers/ID/IndependenceDetection.cpp</text>
</a>
</g>
</g>
<!-- Node2 -->
<g id="node2" class="node">
<title>Node2</title>
<g id="a_node2"><a xlink:href="IndependenceDetection_8h.html" target="_top" xlink:title=" ">
<polygon fill="white" stroke="black" points="102.5,-56.5 102.5,-75.5 243.5,-75.5 243.5,-56.5 102.5,-56.5"/>
<text text-anchor="middle" x="173" y="-63.5" font-family="Helvetica,sans-Serif" font-size="10.00">IndependenceDetection.h</text>
</a>
</g>
</g>
<!-- Node1&#45;&gt;Node2 -->
<g id="edge1" class="edge">
<title>Node1&#45;&gt;Node2</title>
<path fill="none" stroke="midnightblue" d="M173,-112.08C173,-105.01 173,-94.86 173,-85.99"/>
<polygon fill="midnightblue" stroke="midnightblue" points="176.5,-85.75 173,-75.75 169.5,-85.75 176.5,-85.75"/>
</g>
<!-- Node3 -->
<g id="node3" class="node">
<title>Node3</title>
<g id="a_node3"><a xlink:href="AlreadyConflictedBeforeSet_8h.html" target="_top" xlink:title=" ">
<polygon fill="white" stroke="red" points="0,-0.5 0,-19.5 160,-19.5 160,-0.5 0,-0.5"/>
<text text-anchor="middle" x="80" y="-7.5" font-family="Helvetica,sans-Serif" font-size="10.00">AlreadyConflictedBeforeSet.h</text>
</a>
</g>
</g>
<!-- Node2&#45;&gt;Node3 -->
<g id="edge2" class="edge">
<title>Node2&#45;&gt;Node3</title>
<path fill="none" stroke="midnightblue" d="M158.06,-56.32C143.41,-47.82 120.87,-34.73 103.76,-24.8"/>
<polygon fill="midnightblue" stroke="midnightblue" points="105.31,-21.65 94.9,-19.65 101.8,-27.7 105.31,-21.65"/>
</g>
<!-- Node7 -->
<g id="node4" class="node">
<title>Node7</title>
<g id="a_node4"><a xlink:href="SimpleIndependenceDetection_8h.html" target="_top" xlink:title=" ">
<polygon fill="white" stroke="red" points="178.5,-0.5 178.5,-19.5 353.5,-19.5 353.5,-0.5 178.5,-0.5"/>
<text text-anchor="middle" x="266" y="-7.5" font-family="Helvetica,sans-Serif" font-size="10.00">SimpleIndependenceDetection.h</text>
</a>
</g>
</g>
<!-- Node2&#45;&gt;Node7 -->
<g id="edge3" class="edge">
<title>Node2&#45;&gt;Node7</title>
<path fill="none" stroke="midnightblue" d="M187.94,-56.32C202.59,-47.82 225.13,-34.73 242.24,-24.8"/>
<polygon fill="midnightblue" stroke="midnightblue" points="244.2,-27.7 251.1,-19.65 240.69,-21.65 244.2,-27.7"/>
</g>
</g>
</svg>
