<?xml version="1.0" encoding="UTF-8" standalone="no"?>
<!DOCTYPE svg PUBLIC "-//W3C//DTD SVG 1.1//EN"
 "http://www.w3.org/Graphics/SVG/1.1/DTD/svg11.dtd">
<!-- Generated by graphviz version 2.43.0 (0)
 -->
<!-- Title: Solvers/ID/IndependenceDetection.h Pages: 1 -->
<svg width="665pt" height="218pt"
 viewBox="0.00 0.00 665.00 218.00" xmlns="http://www.w3.org/2000/svg" xmlns:xlink="http://www.w3.org/1999/xlink">
<g id="graph0" class="graph" transform="scale(1 1) rotate(0) translate(4 214)">
<title>Solvers/ID/IndependenceDetection.h</title>
<polygon fill="white" stroke="transparent" points="-4,4 -4,-214 661,-214 661,4 -4,4"/>
<!-- Node1 -->
<g id="node1" class="node">
<title>Node1</title>
<g id="a_node1"><a xlink:title=" ">
<polygon fill="#bfbfbf" stroke="black" points="76,-190.5 76,-209.5 270,-209.5 270,-190.5 76,-190.5"/>
<text text-anchor="middle" x="173" y="-197.5" font-family="Helvetica,sans-Serif" font-size="10.00">Solvers/ID/IndependenceDetection.h</text>
</a>
</g>
</g>
<!-- Node2 -->
<g id="node2" class="node">
<title>Node2</title>
<g id="a_node2"><a xlink:href="AlreadyConflictedBeforeSet_8h.html" target="_top" xlink:title=" ">
<polygon fill="white" stroke="black" points="0,-134.5 0,-153.5 160,-153.5 160,-134.5 0,-134.5"/>
<text text-anchor="middle" x="80" y="-141.5" font-family="Helvetica,sans-Serif" font-size="10.00">AlreadyConflictedBeforeSet.h</text>
</a>
</g>
</g>
<!-- Node1&#45;&gt;Node2 -->
<g id="edge1" class="edge">
<title>Node1&#45;&gt;Node2</title>
<path fill="none" stroke="midnightblue" d="M158.06,-190.32C143.41,-181.82 120.87,-168.73 103.76,-158.8"/>
<polygon fill="midnightblue" stroke="midnightblue" points="105.31,-155.65 94.9,-153.65 101.8,-161.7 105.31,-155.65"/>
</g>
<!-- Node6 -->
<g id="node4" class="node">
<title>Node6</title>
<g id="a_node4"><a xlink:href="SimpleIndependenceDetection_8h.html" target="_top" xlink:title=" ">
<polygon fill="white" stroke="black" points="208.5,-134.5 208.5,-153.5 383.5,-153.5 383.5,-134.5 208.5,-134.5"/>
<text text-anchor="middle" x="296" y="-141.5" font-family="Helvetica,sans-Serif" font-size="10.00">SimpleIndependenceDetection.h</text>
</a>
</g>
</g>
<!-- Node1&#45;&gt;Node6 -->
<g id="edge3" class="edge">
<title>Node1&#45;&gt;Node6</title>
<path fill="none" stroke="midnightblue" d="M192.49,-190.44C212.64,-181.6 244.32,-167.69 267.33,-157.59"/>
<polygon fill="midnightblue" stroke="midnightblue" points="268.85,-160.74 276.6,-153.52 266.04,-154.33 268.85,-160.74"/>
</g>
<!-- Node3 -->
<g id="node3" class="node">
<title>Node3</title>
<g id="a_node3"><a xlink:href="Group_8h.html" target="_top" xlink:title=" ">
<polygon fill="white" stroke="red" points="59.5,-6 59.5,-25 114.5,-25 114.5,-6 59.5,-6"/>
<text text-anchor="middle" x="87" y="-13" font-family="Helvetica,sans-Serif" font-size="10.00">Group.h</text>
</a>
</g>
</g>
<!-- Node2&#45;&gt;Node3 -->
<g id="edge2" class="edge">
<title>Node2&#45;&gt;Node3</title>
<path fill="none" stroke="midnightblue" d="M78.26,-134.42C76.53,-125.4 73.99,-110.77 73,-98 71.94,-84.26 71.14,-80.65 73,-67 74.48,-56.13 77.67,-44.29 80.64,-34.81"/>
<polygon fill="midnightblue" stroke="midnightblue" points="83.97,-35.88 83.78,-25.29 77.32,-33.69 83.97,-35.88"/>
</g>
<!-- Node6&#45;&gt;Node3 -->
<g id="edge10" class="edge">
<title>Node6&#45;&gt;Node3</title>
<path fill="none" stroke="midnightblue" d="M227.62,-134.47C180.39,-127.2 123.11,-115.17 106,-98 89.52,-81.47 86.24,-53.59 86.09,-35.11"/>
<polygon fill="midnightblue" stroke="midnightblue" points="89.59,-35.08 86.3,-25.01 82.59,-34.94 89.59,-35.08"/>
</g>
<!-- Node7 -->
<g id="node5" class="node">
<title>Node7</title>
<g id="a_node5"><a xlink:href="MultiAgentProblem_8h.html" target="_top" xlink:title=" ">
<polygon fill="white" stroke="red" points="342.5,-0.5 342.5,-30.5 479.5,-30.5 479.5,-0.5 342.5,-0.5"/>
<text text-anchor="start" x="350.5" y="-18.5" font-family="Helvetica,sans-Serif" font-size="10.00">../../Problems/MultiAgent</text>
<text text-anchor="middle" x="411" y="-7.5" font-family="Helvetica,sans-Serif" font-size="10.00">Problem.h</text>
</a>
</g>
</g>
<!-- Node6&#45;&gt;Node7 -->
<g id="edge4" class="edge">
<title>Node6&#45;&gt;Node7</title>
<path fill="none" stroke="midnightblue" d="M319.73,-134.5C337.27,-127.17 360.66,-115.07 376,-98 390.66,-81.69 399.84,-58.29 405.1,-40.75"/>
<polygon fill="midnightblue" stroke="midnightblue" points="408.59,-41.27 407.89,-30.7 401.84,-39.41 408.59,-41.27"/>
</g>
<!-- Node12 -->
<g id="node6" class="node">
<title>Node12</title>
<g id="a_node6"><a xlink:href="SingleAgentProblem_8h.html" target="_top" xlink:title=" ">
<polygon fill="white" stroke="red" points="225,-67.5 225,-97.5 367,-97.5 367,-67.5 225,-67.5"/>
<text text-anchor="start" x="233" y="-85.5" font-family="Helvetica,sans-Serif" font-size="10.00">../../Problems/SingleAgent</text>
<text text-anchor="middle" x="296" y="-74.5" font-family="Helvetica,sans-Serif" font-size="10.00">Problem.h</text>
</a>
</g>
</g>
<!-- Node6&#45;&gt;Node12 -->
<g id="edge5" class="edge">
<title>Node6&#45;&gt;Node12</title>
<path fill="none" stroke="midnightblue" d="M296,-134.48C296,-127.47 296,-117.19 296,-107.7"/>
<polygon fill="midnightblue" stroke="midnightblue" points="299.5,-107.52 296,-97.52 292.5,-107.52 299.5,-107.52"/>
</g>
<!-- Node13 -->
<g id="node7" class="node">
<title>Node13</title>
<g id="a_node7"><a xlink:href="GeneralAStar_8h.html" target="_top" xlink:title=" ">
<polygon fill="white" stroke="red" points="529,-6 529,-25 657,-25 657,-6 529,-6"/>
<text text-anchor="middle" x="593" y="-13" font-family="Helvetica,sans-Serif" font-size="10.00">../AStar/GeneralAStar.h</text>
</a>
</g>
</g>
<!-- Node6&#45;&gt;Node13 -->
<g id="edge6" class="edge">
<title>Node6&#45;&gt;Node13</title>
<path fill="none" stroke="midnightblue" d="M383.64,-141.51C460.22,-138.17 563.25,-128.02 590,-98 605.05,-81.11 602.48,-53.57 598.43,-35.24"/>
<polygon fill="midnightblue" stroke="midnightblue" points="601.79,-34.25 595.92,-25.43 595.01,-35.98 601.79,-34.25"/>
</g>
<!-- Node33 -->
<g id="node8" class="node">
<title>Node33</title>
<g id="a_node8"><a xlink:href="ConflictBasedSearch_8h.html" target="_top" xlink:title=" ">
<polygon fill="white" stroke="red" points="423.5,-73 423.5,-92 580.5,-92 580.5,-73 423.5,-73"/>
<text text-anchor="middle" x="502" y="-80" font-family="Helvetica,sans-Serif" font-size="10.00">../CBS/ConflictBasedSearch.h</text>
</a>
</g>
</g>
<!-- Node6&#45;&gt;Node33 -->
<g id="edge7" class="edge">
<title>Node6&#45;&gt;Node33</title>
<path fill="none" stroke="midnightblue" d="M325.51,-134.48C361.62,-124.05 422.85,-106.36 462.85,-94.81"/>
<polygon fill="midnightblue" stroke="midnightblue" points="463.9,-98.15 472.54,-92.01 461.96,-91.42 463.9,-98.15"/>
</g>
<!-- Node36 -->
<g id="node9" class="node">
<title>Node36</title>
<g id="a_node9"><a xlink:href="GroupConflict_8h.html" target="_top" xlink:title=" ">
<polygon fill="white" stroke="black" points="115,-73 115,-92 207,-92 207,-73 115,-73"/>
<text text-anchor="middle" x="161" y="-80" font-family="Helvetica,sans-Serif" font-size="10.00">GroupConflict.h</text>
</a>
</g>
</g>
<!-- Node6&#45;&gt;Node36 -->
<g id="edge11" class="edge">
<title>Node6&#45;&gt;Node36</title>
<path fill="none" stroke="midnightblue" d="M276.66,-134.48C253.9,-124.45 215.91,-107.7 189.71,-96.15"/>
<polygon fill="midnightblue" stroke="midnightblue" points="190.87,-92.84 180.31,-92.01 188.05,-99.24 190.87,-92.84"/>
</g>
<!-- Node33&#45;&gt;Node7 -->
<g id="edge8" class="edge">
<title>Node33&#45;&gt;Node7</title>
<path fill="none" stroke="midnightblue" d="M489.73,-72.73C476.84,-63.53 456.13,-48.73 439.18,-36.63"/>
<polygon fill="midnightblue" stroke="midnightblue" points="440.9,-33.55 430.72,-30.59 436.83,-39.25 440.9,-33.55"/>
</g>
<!-- Node33&#45;&gt;Node13 -->
<g id="edge9" class="edge">
<title>Node33&#45;&gt;Node13</title>
<path fill="none" stroke="midnightblue" d="M514.27,-72.73C529.15,-62.11 554.43,-44.05 572.33,-31.26"/>
<polygon fill="midnightblue" stroke="midnightblue" points="574.82,-33.79 580.92,-25.13 570.75,-28.09 574.82,-33.79"/>
</g>
<!-- Node36&#45;&gt;Node3 -->
<g id="edge12" class="edge">
<title>Node36&#45;&gt;Node3</title>
<path fill="none" stroke="midnightblue" d="M151.02,-72.73C139.15,-62.31 119.11,-44.71 104.62,-31.97"/>
<polygon fill="midnightblue" stroke="midnightblue" points="106.64,-29.1 96.82,-25.13 102.03,-34.36 106.64,-29.1"/>
</g>
</g>
</svg>
