<?xml version="1.0" encoding="UTF-8" standalone="no"?>
<!DOCTYPE svg PUBLIC "-//W3C//DTD SVG 1.1//EN"
 "http://www.w3.org/Graphics/SVG/1.1/DTD/svg11.dtd">
<!-- Generated by graphviz version 2.43.0 (0)
 -->
<!-- Title: Graphical Class Hierarchy Pages: 1 -->
<svg width="275pt" height="317pt"
 viewBox="0.00 0.00 275.00 317.00" xmlns="http://www.w3.org/2000/svg" xmlns:xlink="http://www.w3.org/1999/xlink">
<g id="graph0" class="graph" transform="scale(1 1) rotate(0) translate(4 313)">
<title>Graphical Class Hierarchy</title>
<polygon fill="white" stroke="transparent" points="-4,4 -4,-313 271,-313 271,4 -4,4"/>
<!-- Node0 -->
<g id="node1" class="node">
<title>Node0</title>
<g id="a_node1"><a xlink:href="classHeuristic.html" target="_top" xlink:title=" ">
<polygon fill="white" stroke="black" points="0,-153.5 0,-172.5 89,-172.5 89,-153.5 0,-153.5"/>
<text text-anchor="middle" x="44.5" y="-160.5" font-family="Helvetica,sans-Serif" font-size="10.00">Heuristic&lt; S &gt;</text>
</a>
</g>
</g>
<!-- Node1 -->
<g id="node2" class="node">
<title>Node1</title>
<g id="a_node2"><a xlink:href="classMICheuristic.html" target="_top" xlink:title=" ">
<polygon fill="white" stroke="black" points="141.5,-289.5 141.5,-308.5 250.5,-308.5 250.5,-289.5 141.5,-289.5"/>
<text text-anchor="middle" x="196" y="-296.5" font-family="Helvetica,sans-Serif" font-size="10.00">MICheuristic&lt; S, &gt;</text>
</a>
</g>
</g>
<!-- Node0&#45;&gt;Node1 -->
<g id="edge1" class="edge">
<title>Node0&#45;&gt;Node1</title>
<path fill="none" stroke="midnightblue" d="M53.32,-182.1C65,-208.21 89.5,-254.68 125,-280 130.43,-283.88 136.62,-286.96 143.01,-289.42"/>
<polygon fill="midnightblue" stroke="midnightblue" points="56.39,-180.38 49.23,-172.58 49.96,-183.15 56.39,-180.38"/>
</g>
<!-- Node2 -->
<g id="node3" class="node">
<title>Node2</title>
<g id="a_node3"><a xlink:href="classMICheuristic2.html" target="_top" xlink:title=" ">
<polygon fill="white" stroke="black" points="138.5,-251.5 138.5,-270.5 253.5,-270.5 253.5,-251.5 138.5,-251.5"/>
<text text-anchor="middle" x="196" y="-258.5" font-family="Helvetica,sans-Serif" font-size="10.00">MICheuristic2&lt; S, &gt;</text>
</a>
</g>
</g>
<!-- Node0&#45;&gt;Node2 -->
<g id="edge2" class="edge">
<title>Node0&#45;&gt;Node2</title>
<path fill="none" stroke="midnightblue" d="M58.63,-180.62C72.99,-198.65 97.63,-226.2 125,-242 131.65,-245.84 139.11,-248.93 146.61,-251.41"/>
<polygon fill="midnightblue" stroke="midnightblue" points="61.33,-178.39 52.44,-172.62 55.8,-182.67 61.33,-178.39"/>
</g>
<!-- Node3 -->
<g id="node4" class="node">
<title>Node3</title>
<g id="a_node4"><a xlink:href="classMIOCheuristic.html" target="_top" xlink:title=" ">
<polygon fill="white" stroke="black" points="138,-213.5 138,-232.5 254,-232.5 254,-213.5 138,-213.5"/>
<text text-anchor="middle" x="196" y="-220.5" font-family="Helvetica,sans-Serif" font-size="10.00">MIOCheuristic&lt; S, &gt;</text>
</a>
</g>
</g>
<!-- Node0&#45;&gt;Node3 -->
<g id="edge3" class="edge">
<title>Node0&#45;&gt;Node3</title>
<path fill="none" stroke="midnightblue" d="M70.34,-177.54C85.71,-186.09 106.06,-196.64 125,-204 134.27,-207.6 144.49,-210.79 154.18,-213.48"/>
<polygon fill="midnightblue" stroke="midnightblue" points="71.9,-174.4 61.48,-172.52 68.45,-180.49 71.9,-174.4"/>
</g>
<!-- Node4 -->
<g id="node5" class="node">
<title>Node4</title>
<g id="a_node5"><a xlink:href="classMIOCheuristic2.html" target="_top" xlink:title=" ">
<polygon fill="white" stroke="black" points="135,-175.5 135,-194.5 257,-194.5 257,-175.5 135,-175.5"/>
<text text-anchor="middle" x="196" y="-182.5" font-family="Helvetica,sans-Serif" font-size="10.00">MIOCheuristic2&lt; S, &gt;</text>
</a>
</g>
</g>
<!-- Node0&#45;&gt;Node4 -->
<g id="edge4" class="edge">
<title>Node0&#45;&gt;Node4</title>
<path fill="none" stroke="midnightblue" d="M99.12,-170.89C110.73,-172.6 123.07,-174.42 134.91,-176.16"/>
<polygon fill="midnightblue" stroke="midnightblue" points="99.55,-167.42 89.14,-169.42 98.53,-174.34 99.55,-167.42"/>
</g>
<!-- Node5 -->
<g id="node6" class="node">
<title>Node5</title>
<g id="a_node6"><a xlink:href="classManhattanHeuristic.html" target="_top" xlink:title=" ">
<polygon fill="white" stroke="black" points="139.5,-126 139.5,-156 252.5,-156 252.5,-126 139.5,-126"/>
<text text-anchor="start" x="147.5" y="-144" font-family="Helvetica,sans-Serif" font-size="10.00">ManhattanHeuristic</text>
<text text-anchor="middle" x="196" y="-133" font-family="Helvetica,sans-Serif" font-size="10.00">&lt; S, &gt;</text>
</a>
</g>
</g>
<!-- Node0&#45;&gt;Node5 -->
<g id="edge5" class="edge">
<title>Node0&#45;&gt;Node5</title>
<path fill="none" stroke="midnightblue" d="M99.33,-155.08C112.33,-153.17 126.23,-151.12 139.31,-149.2"/>
<polygon fill="midnightblue" stroke="midnightblue" points="98.53,-151.66 89.14,-156.58 99.55,-158.58 98.53,-151.66"/>
</g>
<!-- Node6 -->
<g id="node7" class="node">
<title>Node6</title>
<g id="a_node7"><a xlink:href="classOptimalDistanceHeuristic.html" target="_top" xlink:title=" ">
<polygon fill="white" stroke="black" points="125,-77 125,-107 267,-107 267,-77 125,-77"/>
<text text-anchor="start" x="133" y="-95" font-family="Helvetica,sans-Serif" font-size="10.00">OptimalDistanceHeuristic</text>
<text text-anchor="middle" x="196" y="-84" font-family="Helvetica,sans-Serif" font-size="10.00">&lt; S, &gt;</text>
</a>
</g>
</g>
<!-- Node0&#45;&gt;Node6 -->
<g id="edge6" class="edge">
<title>Node0&#45;&gt;Node6</title>
<path fill="none" stroke="midnightblue" d="M69.19,-147.77C84.69,-138.19 105.59,-125.99 125,-117 132.61,-113.47 140.87,-110.13 148.96,-107.1"/>
<polygon fill="midnightblue" stroke="midnightblue" points="66.92,-145.06 60.3,-153.34 70.64,-150.99 66.92,-145.06"/>
</g>
<!-- Node7 -->
<g id="node8" class="node">
<title>Node7</title>
<g id="a_node8"><a xlink:href="classSICheuristic.html" target="_top" xlink:title=" ">
<polygon fill="white" stroke="black" points="143,-38.5 143,-57.5 249,-57.5 249,-38.5 143,-38.5"/>
<text text-anchor="middle" x="196" y="-45.5" font-family="Helvetica,sans-Serif" font-size="10.00">SICheuristic&lt; S, &gt;</text>
</a>
</g>
</g>
<!-- Node0&#45;&gt;Node7 -->
<g id="edge7" class="edge">
<title>Node0&#45;&gt;Node7</title>
<path fill="none" stroke="midnightblue" d="M56.22,-144.44C69.61,-122.9 94.5,-87.81 125,-68 131.68,-63.66 139.31,-60.25 147.02,-57.57"/>
<polygon fill="midnightblue" stroke="midnightblue" points="53.06,-142.91 50.9,-153.28 59.06,-146.52 53.06,-142.91"/>
</g>
<!-- Node8 -->
<g id="node9" class="node">
<title>Node8</title>
<g id="a_node9"><a xlink:href="classSIOCheuristic.html" target="_top" xlink:title=" ">
<polygon fill="white" stroke="black" points="139.5,-0.5 139.5,-19.5 252.5,-19.5 252.5,-0.5 139.5,-0.5"/>
<text text-anchor="middle" x="196" y="-7.5" font-family="Helvetica,sans-Serif" font-size="10.00">SIOCheuristic&lt; S, &gt;</text>
</a>
</g>
</g>
<!-- Node0&#45;&gt;Node8 -->
<g id="edge8" class="edge">
<title>Node0&#45;&gt;Node8</title>
<path fill="none" stroke="midnightblue" d="M51.67,-143.63C62.01,-114.31 85.69,-58.9 125,-29 130.11,-25.11 135.97,-22.02 142.06,-19.56"/>
<polygon fill="midnightblue" stroke="midnightblue" points="48.33,-142.57 48.45,-153.16 54.97,-144.8 48.33,-142.57"/>
</g>
</g>
</svg>
