<?xml version="1.0" encoding="UTF-8" standalone="no"?>
<!DOCTYPE svg PUBLIC "-//W3C//DTD SVG 1.1//EN"
 "http://www.w3.org/Graphics/SVG/1.1/DTD/svg11.dtd">
<!-- Generated by graphviz version 2.43.0 (0)
 -->
<!-- Title: Graphical Class Hierarchy Pages: 1 -->
<svg width="217pt" height="66pt"
 viewBox="0.00 0.00 217.00 66.00" xmlns="http://www.w3.org/2000/svg" xmlns:xlink="http://www.w3.org/1999/xlink">
<g id="graph0" class="graph" transform="scale(1 1) rotate(0) translate(4 62)">
<title>Graphical Class Hierarchy</title>
<polygon fill="white" stroke="transparent" points="-4,4 -4,-62 213,-62 213,4 -4,4"/>
<!-- Node0 -->
<g id="node1" class="node">
<title>Node0</title>
<g id="a_node1"><a xlink:href="classProblem.html" target="_top" xlink:title="A generic problem class.">
<polygon fill="white" stroke="black" points="0,-19.5 0,-38.5 57,-38.5 57,-19.5 0,-19.5"/>
<text text-anchor="middle" x="28.5" y="-26.5" font-family="Helvetica,sans-Serif" font-size="10.00">Problem</text>
</a>
</g>
</g>
<!-- Node1 -->
<g id="node2" class="node">
<title>Node1</title>
<g id="a_node2"><a xlink:href="classMultiAgentProblem.html" target="_top" xlink:title="Specific problem class for multi&#45;agent problems.">
<polygon fill="white" stroke="black" points="96,-38.5 96,-57.5 206,-57.5 206,-38.5 96,-38.5"/>
<text text-anchor="middle" x="151" y="-45.5" font-family="Helvetica,sans-Serif" font-size="10.00">MultiAgentProblem</text>
</a>
</g>
</g>
<!-- Node0&#45;&gt;Node1 -->
<g id="edge1" class="edge">
<title>Node0&#45;&gt;Node1</title>
<path fill="none" stroke="midnightblue" d="M67.06,-34.92C76.2,-36.36 86.16,-37.93 95.9,-39.47"/>
<polygon fill="midnightblue" stroke="midnightblue" points="67.57,-31.46 57.15,-33.36 66.48,-38.37 67.57,-31.46"/>
</g>
<!-- Node2 -->
<g id="node3" class="node">
<title>Node2</title>
<g id="a_node3"><a xlink:href="classSingleAgentProblem.html" target="_top" xlink:title="Specific class for single&#45;agent problems.">
<polygon fill="white" stroke="black" points="93,-0.5 93,-19.5 209,-19.5 209,-0.5 93,-0.5"/>
<text text-anchor="middle" x="151" y="-7.5" font-family="Helvetica,sans-Serif" font-size="10.00">SingleAgentProblem</text>
</a>
</g>
</g>
<!-- Node0&#45;&gt;Node2 -->
<g id="edge2" class="edge">
<title>Node0&#45;&gt;Node2</title>
<path fill="none" stroke="midnightblue" d="M67.14,-23.07C75.35,-21.77 84.21,-20.37 92.99,-18.99"/>
<polygon fill="midnightblue" stroke="midnightblue" points="66.48,-19.63 57.15,-24.64 67.57,-26.54 66.48,-19.63"/>
</g>
</g>
</svg>
