<?xml version="1.0" encoding="UTF-8" standalone="no"?>
<!DOCTYPE svg PUBLIC "-//W3C//DTD SVG 1.1//EN"
 "http://www.w3.org/Graphics/SVG/1.1/DTD/svg11.dtd">
<!-- Generated by graphviz version 2.43.0 (0)
 -->
<!-- Title: Graphical Class Hierarchy Pages: 1 -->
<svg width="444pt" height="148pt"
 viewBox="0.00 0.00 444.00 147.50" xmlns="http://www.w3.org/2000/svg" xmlns:xlink="http://www.w3.org/1999/xlink">
<g id="graph0" class="graph" transform="scale(1 1) rotate(0) translate(4 143.5)">
<title>Graphical Class Hierarchy</title>
<polygon fill="white" stroke="transparent" points="-4,4 -4,-143.5 440,-143.5 440,4 -4,4"/>
<!-- Node0 -->
<g id="node1" class="node">
<title>Node0</title>
<g id="a_node1"><a xlink:href="classState.html" target="_top" xlink:title=" ">
<polygon fill="white" stroke="black" points="0,-63 0,-82 42,-82 42,-63 0,-63"/>
<text text-anchor="middle" x="21" y="-70" font-family="Helvetica,sans-Serif" font-size="10.00">State</text>
</a>
</g>
</g>
<!-- Node1 -->
<g id="node2" class="node">
<title>Node1</title>
<g id="a_node2"><a xlink:href="classODMultiAgentState.html" target="_top" xlink:title=" ">
<polygon fill="white" stroke="black" points="100.5,-120 100.5,-139 210.5,-139 210.5,-120 100.5,-120"/>
<text text-anchor="middle" x="155.5" y="-127" font-family="Helvetica,sans-Serif" font-size="10.00">ODMultiAgentState</text>
</a>
</g>
</g>
<!-- Node0&#45;&gt;Node1 -->
<g id="edge1" class="edge">
<title>Node0&#45;&gt;Node1</title>
<path fill="none" stroke="midnightblue" d="M41.95,-88.58C52.21,-96.17 65.22,-104.8 78,-110.5 86.5,-114.29 95.88,-117.41 105.07,-119.95"/>
<polygon fill="midnightblue" stroke="midnightblue" points="43.78,-85.58 33.72,-82.28 39.53,-91.14 43.78,-85.58"/>
</g>
<!-- Node3 -->
<g id="node4" class="node">
<title>Node3</title>
<g id="a_node4"><a xlink:href="classSingleAgentSpaceTimeState.html" target="_top" xlink:title=" ">
<polygon fill="white" stroke="black" points="78,-82 78,-101 233,-101 233,-82 78,-82"/>
<text text-anchor="middle" x="155.5" y="-89" font-family="Helvetica,sans-Serif" font-size="10.00">SingleAgentSpaceTimeState</text>
</a>
</g>
</g>
<!-- Node0&#45;&gt;Node3 -->
<g id="edge3" class="edge">
<title>Node0&#45;&gt;Node3</title>
<path fill="none" stroke="midnightblue" d="M52.2,-76.83C62.96,-78.37 75.54,-80.18 88.12,-81.98"/>
<polygon fill="midnightblue" stroke="midnightblue" points="52.52,-73.34 42.12,-75.39 51.53,-80.27 52.52,-73.34"/>
</g>
<!-- Node4 -->
<g id="node5" class="node">
<title>Node4</title>
<g id="a_node5"><a xlink:href="classSingleAgentState.html" target="_top" xlink:title=" ">
<polygon fill="white" stroke="black" points="105,-44 105,-63 206,-63 206,-44 105,-44"/>
<text text-anchor="middle" x="155.5" y="-51" font-family="Helvetica,sans-Serif" font-size="10.00">SingleAgentState</text>
</a>
</g>
</g>
<!-- Node0&#45;&gt;Node4 -->
<g id="edge4" class="edge">
<title>Node0&#45;&gt;Node4</title>
<path fill="none" stroke="midnightblue" d="M52.24,-68.16C67.82,-65.93 87.23,-63.15 104.94,-60.61"/>
<polygon fill="midnightblue" stroke="midnightblue" points="51.53,-64.73 42.12,-69.61 52.52,-71.66 51.53,-64.73"/>
</g>
<!-- Node5 -->
<g id="node6" class="node">
<title>Node5</title>
<g id="a_node6"><a xlink:href="classStandardMultiAgentState.html" target="_top" xlink:title=" ">
<polygon fill="white" stroke="black" points="86,-6 86,-25 225,-25 225,-6 86,-6"/>
<text text-anchor="middle" x="155.5" y="-13" font-family="Helvetica,sans-Serif" font-size="10.00">StandardMultiAgentState</text>
</a>
</g>
</g>
<!-- Node0&#45;&gt;Node5 -->
<g id="edge5" class="edge">
<title>Node0&#45;&gt;Node5</title>
<path fill="none" stroke="midnightblue" d="M41.95,-56.42C52.21,-48.83 65.22,-40.2 78,-34.5 86.5,-30.71 95.88,-27.59 105.07,-25.05"/>
<polygon fill="midnightblue" stroke="midnightblue" points="39.53,-53.86 33.72,-62.72 43.78,-59.42 39.53,-53.86"/>
</g>
<!-- Node2 -->
<g id="node3" class="node">
<title>Node2</title>
<g id="a_node3"><a xlink:href="classODMultiAgentSpaceTimeState.html" target="_top" xlink:title=" ">
<polygon fill="white" stroke="black" points="270.5,-120 270.5,-139 434.5,-139 434.5,-120 270.5,-120"/>
<text text-anchor="middle" x="352.5" y="-127" font-family="Helvetica,sans-Serif" font-size="10.00">ODMultiAgentSpaceTimeState</text>
</a>
</g>
</g>
<!-- Node1&#45;&gt;Node2 -->
<g id="edge2" class="edge">
<title>Node1&#45;&gt;Node2</title>
<path fill="none" stroke="midnightblue" d="M220.76,-129.5C236.6,-129.5 253.77,-129.5 270.3,-129.5"/>
<polygon fill="midnightblue" stroke="midnightblue" points="220.56,-126 210.56,-129.5 220.56,-133 220.56,-126"/>
</g>
<!-- Node6 -->
<g id="node7" class="node">
<title>Node6</title>
<g id="a_node7"><a xlink:href="classStandardMultiAgentSpaceTimeState.html" target="_top" xlink:title=" ">
<polygon fill="white" stroke="black" points="269,-0.5 269,-30.5 436,-30.5 436,-0.5 269,-0.5"/>
<text text-anchor="start" x="277" y="-18.5" font-family="Helvetica,sans-Serif" font-size="10.00">StandardMultiAgentSpaceTime</text>
<text text-anchor="middle" x="352.5" y="-7.5" font-family="Helvetica,sans-Serif" font-size="10.00">State</text>
</a>
</g>
</g>
<!-- Node5&#45;&gt;Node6 -->
<g id="edge6" class="edge">
<title>Node5&#45;&gt;Node6</title>
<path fill="none" stroke="midnightblue" d="M235.58,-15.5C246.48,-15.5 257.7,-15.5 268.66,-15.5"/>
<polygon fill="midnightblue" stroke="midnightblue" points="235.25,-12 225.25,-15.5 235.25,-19 235.25,-12"/>
</g>
</g>
</svg>
