<?xml version="1.0" encoding="UTF-8" standalone="no"?>
<!DOCTYPE svg PUBLIC "-//W3C//DTD SVG 1.1//EN"
 "http://www.w3.org/Graphics/SVG/1.1/DTD/svg11.dtd">
<!-- Generated by graphviz version 2.43.0 (0)
 -->
<!-- Title: Node.h Pages: 1 -->
<svg width="493pt" height="476pt"
 viewBox="0.00 0.00 493.00 476.00" xmlns="http://www.w3.org/2000/svg" xmlns:xlink="http://www.w3.org/1999/xlink">
<g id="graph0" class="graph" transform="scale(1 1) rotate(0) translate(4 472)">
<title>Node.h</title>
<polygon fill="white" stroke="transparent" points="-4,4 -4,-472 489,-472 489,4 -4,4"/>
<!-- Node1 -->
<g id="node1" class="node">
<title>Node1</title>
<g id="a_node1"><a xlink:title=" ">
<polygon fill="#bfbfbf" stroke="black" points="305,-448.5 305,-467.5 356,-467.5 356,-448.5 305,-448.5"/>
<text text-anchor="middle" x="330.5" y="-455.5" font-family="Helvetica,sans-Serif" font-size="10.00">Node.h</text>
</a>
</g>
</g>
<!-- Node2 -->
<g id="node2" class="node">
<title>Node2</title>
<g id="a_node2"><a xlink:href="ReverseResumableAStar_8h.html" target="_top" xlink:title=" ">
<polygon fill="white" stroke="black" points="257.5,-392.5 257.5,-411.5 403.5,-411.5 403.5,-392.5 257.5,-392.5"/>
<text text-anchor="middle" x="330.5" y="-399.5" font-family="Helvetica,sans-Serif" font-size="10.00">ReverseResumableAStar.h</text>
</a>
</g>
</g>
<!-- Node1&#45;&gt;Node2 -->
<g id="edge1" class="edge">
<title>Node1&#45;&gt;Node2</title>
<path fill="none" stroke="midnightblue" d="M330.5,-437.8C330.5,-428.91 330.5,-418.78 330.5,-411.75"/>
<polygon fill="midnightblue" stroke="midnightblue" points="327,-438.08 330.5,-448.08 334,-438.08 327,-438.08"/>
</g>
<!-- Node3 -->
<g id="node3" class="node">
<title>Node3</title>
<g id="a_node3"><a xlink:href="HeuristicOptimal_8h.html" target="_top" xlink:title=" ">
<polygon fill="white" stroke="black" points="201.5,-336.5 201.5,-355.5 309.5,-355.5 309.5,-336.5 201.5,-336.5"/>
<text text-anchor="middle" x="255.5" y="-343.5" font-family="Helvetica,sans-Serif" font-size="10.00">HeuristicOptimal.h</text>
</a>
</g>
</g>
<!-- Node2&#45;&gt;Node3 -->
<g id="edge2" class="edge">
<title>Node2&#45;&gt;Node3</title>
<path fill="none" stroke="midnightblue" d="M310.19,-386.38C296.64,-376.62 279.26,-364.11 267.77,-355.83"/>
<polygon fill="midnightblue" stroke="midnightblue" points="308.29,-389.32 318.45,-392.32 312.38,-383.64 308.29,-389.32"/>
</g>
<!-- Node13 -->
<g id="node13" class="node">
<title>Node13</title>
<g id="a_node13"><a xlink:href="ReverseResumableAStar_8cpp.html" target="_top" xlink:title=" ">
<polygon fill="white" stroke="black" points="328,-336.5 328,-355.5 485,-355.5 485,-336.5 328,-336.5"/>
<text text-anchor="middle" x="406.5" y="-343.5" font-family="Helvetica,sans-Serif" font-size="10.00">ReverseResumableAStar.cpp</text>
</a>
</g>
</g>
<!-- Node2&#45;&gt;Node13 -->
<g id="edge13" class="edge">
<title>Node2&#45;&gt;Node13</title>
<path fill="none" stroke="midnightblue" d="M351.08,-386.38C364.81,-376.62 382.43,-364.11 394.07,-355.83"/>
<polygon fill="midnightblue" stroke="midnightblue" points="348.84,-383.68 342.71,-392.32 352.89,-389.38 348.84,-383.68"/>
</g>
<!-- Node4 -->
<g id="node4" class="node">
<title>Node4</title>
<g id="a_node4"><a xlink:href="AStar_8h.html" target="_top" xlink:title=" ">
<polygon fill="white" stroke="black" points="230,-280.5 230,-299.5 281,-299.5 281,-280.5 230,-280.5"/>
<text text-anchor="middle" x="255.5" y="-287.5" font-family="Helvetica,sans-Serif" font-size="10.00">AStar.h</text>
</a>
</g>
</g>
<!-- Node3&#45;&gt;Node4 -->
<g id="edge3" class="edge">
<title>Node3&#45;&gt;Node4</title>
<path fill="none" stroke="midnightblue" d="M255.5,-325.8C255.5,-316.91 255.5,-306.78 255.5,-299.75"/>
<polygon fill="midnightblue" stroke="midnightblue" points="252,-326.08 255.5,-336.08 259,-326.08 252,-326.08"/>
</g>
<!-- Node5 -->
<g id="node5" class="node">
<title>Node5</title>
<g id="a_node5"><a xlink:href="GeneralAStar_8h.html" target="_top" xlink:title=" ">
<polygon fill="white" stroke="black" points="152,-224.5 152,-243.5 241,-243.5 241,-224.5 152,-224.5"/>
<text text-anchor="middle" x="196.5" y="-231.5" font-family="Helvetica,sans-Serif" font-size="10.00">GeneralAStar.h</text>
</a>
</g>
</g>
<!-- Node4&#45;&gt;Node5 -->
<g id="edge4" class="edge">
<title>Node4&#45;&gt;Node5</title>
<path fill="none" stroke="midnightblue" d="M238.61,-273.54C228.09,-263.91 214.93,-251.87 206.15,-243.83"/>
<polygon fill="midnightblue" stroke="midnightblue" points="236.28,-276.15 246.02,-280.32 241.01,-270.99 236.28,-276.15"/>
</g>
<!-- Node12 -->
<g id="node12" class="node">
<title>Node12</title>
<g id="a_node12"><a xlink:href="CooperativeAStar_8h.html" target="_top" xlink:title=" ">
<polygon fill="white" stroke="black" points="259.5,-224.5 259.5,-243.5 369.5,-243.5 369.5,-224.5 259.5,-224.5"/>
<text text-anchor="middle" x="314.5" y="-231.5" font-family="Helvetica,sans-Serif" font-size="10.00">CooperativeAStar.h</text>
</a>
</g>
</g>
<!-- Node4&#45;&gt;Node12 -->
<g id="edge12" class="edge">
<title>Node4&#45;&gt;Node12</title>
<path fill="none" stroke="midnightblue" d="M272.39,-273.54C282.91,-263.91 296.07,-251.87 304.85,-243.83"/>
<polygon fill="midnightblue" stroke="midnightblue" points="269.99,-270.99 264.98,-280.32 274.72,-276.15 269.99,-270.99"/>
</g>
<!-- Node6 -->
<g id="node6" class="node">
<title>Node6</title>
<g id="a_node6"><a xlink:href="ConflictBasedSearch_8h.html" target="_top" xlink:title=" ">
<polygon fill="white" stroke="black" points="89,-168.5 89,-187.5 214,-187.5 214,-168.5 89,-168.5"/>
<text text-anchor="middle" x="151.5" y="-175.5" font-family="Helvetica,sans-Serif" font-size="10.00">ConflictBasedSearch.h</text>
</a>
</g>
</g>
<!-- Node5&#45;&gt;Node6 -->
<g id="edge5" class="edge">
<title>Node5&#45;&gt;Node6</title>
<path fill="none" stroke="midnightblue" d="M182.45,-216.14C174.61,-206.74 165.17,-195.4 158.79,-187.75"/>
<polygon fill="midnightblue" stroke="midnightblue" points="179.98,-218.64 189.07,-224.08 185.36,-214.16 179.98,-218.64"/>
</g>
<!-- Node8 -->
<g id="node8" class="node">
<title>Node8</title>
<g id="a_node8"><a xlink:href="SimpleIndependenceDetection_8h.html" target="_top" xlink:title=" ">
<polygon fill="white" stroke="black" points="155,-112.5 155,-131.5 330,-131.5 330,-112.5 155,-112.5"/>
<text text-anchor="middle" x="242.5" y="-119.5" font-family="Helvetica,sans-Serif" font-size="10.00">SimpleIndependenceDetection.h</text>
</a>
</g>
</g>
<!-- Node5&#45;&gt;Node8 -->
<g id="edge11" class="edge">
<title>Node5&#45;&gt;Node8</title>
<path fill="none" stroke="midnightblue" d="M208.23,-215.82C213.43,-207.65 219.3,-197.6 223.5,-188 231.98,-168.61 237.93,-144.35 240.71,-131.66"/>
<polygon fill="midnightblue" stroke="midnightblue" points="205.16,-214.12 202.58,-224.4 211,-217.97 205.16,-214.12"/>
</g>
<!-- Node7 -->
<g id="node7" class="node">
<title>Node7</title>
<g id="a_node7"><a xlink:href="ConflictBasedSearch_8cpp.html" target="_top" xlink:title=" ">
<polygon fill="white" stroke="black" points="0,-112.5 0,-131.5 137,-131.5 137,-112.5 0,-112.5"/>
<text text-anchor="middle" x="68.5" y="-119.5" font-family="Helvetica,sans-Serif" font-size="10.00">ConflictBasedSearch.cpp</text>
</a>
</g>
</g>
<!-- Node6&#45;&gt;Node7 -->
<g id="edge6" class="edge">
<title>Node6&#45;&gt;Node7</title>
<path fill="none" stroke="midnightblue" d="M129.4,-162.62C114.24,-152.76 94.62,-139.99 81.8,-131.65"/>
<polygon fill="midnightblue" stroke="midnightblue" points="127.87,-165.8 138.16,-168.32 131.69,-159.94 127.87,-165.8"/>
</g>
<!-- Node6&#45;&gt;Node8 -->
<g id="edge7" class="edge">
<title>Node6&#45;&gt;Node8</title>
<path fill="none" stroke="midnightblue" d="M174.79,-163.18C191.54,-153.24 213.6,-140.15 227.92,-131.65"/>
<polygon fill="midnightblue" stroke="midnightblue" points="172.93,-160.21 166.12,-168.32 176.51,-166.23 172.93,-160.21"/>
</g>
<!-- Node9 -->
<g id="node9" class="node">
<title>Node9</title>
<g id="a_node9"><a xlink:href="IndependenceDetection_8h.html" target="_top" xlink:title=" ">
<polygon fill="white" stroke="black" points="81,-56.5 81,-75.5 222,-75.5 222,-56.5 81,-56.5"/>
<text text-anchor="middle" x="151.5" y="-63.5" font-family="Helvetica,sans-Serif" font-size="10.00">IndependenceDetection.h</text>
</a>
</g>
</g>
<!-- Node8&#45;&gt;Node9 -->
<g id="edge8" class="edge">
<title>Node8&#45;&gt;Node9</title>
<path fill="none" stroke="midnightblue" d="M219.21,-107.18C202.46,-97.24 180.4,-84.15 166.08,-75.65"/>
<polygon fill="midnightblue" stroke="midnightblue" points="217.49,-110.23 227.88,-112.32 221.07,-104.21 217.49,-110.23"/>
</g>
<!-- Node11 -->
<g id="node11" class="node">
<title>Node11</title>
<g id="a_node11"><a xlink:href="SimpleIndependenceDetection_8cpp.html" target="_top" xlink:title=" ">
<polygon fill="white" stroke="black" points="240.5,-56.5 240.5,-75.5 426.5,-75.5 426.5,-56.5 240.5,-56.5"/>
<text text-anchor="middle" x="333.5" y="-63.5" font-family="Helvetica,sans-Serif" font-size="10.00">SimpleIndependenceDetection.cpp</text>
</a>
</g>
</g>
<!-- Node8&#45;&gt;Node11 -->
<g id="edge10" class="edge">
<title>Node8&#45;&gt;Node11</title>
<path fill="none" stroke="midnightblue" d="M265.79,-107.18C282.54,-97.24 304.6,-84.15 318.92,-75.65"/>
<polygon fill="midnightblue" stroke="midnightblue" points="263.93,-104.21 257.12,-112.32 267.51,-110.23 263.93,-104.21"/>
</g>
<!-- Node10 -->
<g id="node10" class="node">
<title>Node10</title>
<g id="a_node10"><a xlink:href="IndependenceDetection_8cpp.html" target="_top" xlink:title=" ">
<polygon fill="white" stroke="black" points="75.5,-0.5 75.5,-19.5 227.5,-19.5 227.5,-0.5 75.5,-0.5"/>
<text text-anchor="middle" x="151.5" y="-7.5" font-family="Helvetica,sans-Serif" font-size="10.00">IndependenceDetection.cpp</text>
</a>
</g>
</g>
<!-- Node9&#45;&gt;Node10 -->
<g id="edge9" class="edge">
<title>Node9&#45;&gt;Node10</title>
<path fill="none" stroke="midnightblue" d="M151.5,-45.8C151.5,-36.91 151.5,-26.78 151.5,-19.75"/>
<polygon fill="midnightblue" stroke="midnightblue" points="148,-46.08 151.5,-56.08 155,-46.08 148,-46.08"/>
</g>
</g>
</svg>
