<?xml version="1.0" encoding="UTF-8" standalone="no"?>
<!DOCTYPE svg PUBLIC "-//W3C//DTD SVG 1.1//EN"
 "http://www.w3.org/Graphics/SVG/1.1/DTD/svg11.dtd">
<!-- Generated by graphviz version 2.43.0 (0)
 -->
<!-- Title: Problems/Problem.h Pages: 1 -->
<!--zoomable 732 -->
<svg id="main" version="1.1" xmlns="http://www.w3.org/2000/svg" xmlns:xlink="http://www.w3.org/1999/xlink" xml:space="preserve" onload="init(evt)">
<style type="text/css"><![CDATA[
.edge:hover path { stroke: red; }
.edge:hover polygon { stroke: red; fill: red; }
]]></style>
<script type="text/javascript"><![CDATA[
var edges = document.getElementsByTagName('g');
if (edges && edges.length) {
  for (var i=0;i<edges.length;i++) {
    if (edges[i].id.substr(0,4)=='edge') {
      edges[i].setAttribute('class','edge');
    }
  }
}
]]></script>
        <defs>
                <circle id="rim" cx="0" cy="0" r="7"/>
                <circle id="rim2" cx="0" cy="0" r="3.5"/>
                <g id="zoomPlus">
                        <use xlink:href="#rim" fill="#404040">
                                <set attributeName="fill" to="#808080" begin="zoomplus.mouseover" end="zoomplus.mouseout"/>
                        </use>
                        <path d="M-4,0h8M0,-4v8" fill="none" stroke="white" stroke-width="1.5" pointer-events="none"/>
                </g>
                <g id="zoomMin">
                        <use xlink:href="#rim" fill="#404040">
                                <set attributeName="fill" to="#808080" begin="zoomminus.mouseover" end="zoomminus.mouseout"/>
                        </use>
                        <path d="M-4,0h8" fill="none" stroke="white" stroke-width="1.5" pointer-events="none"/>
                </g>
                <g id="dirArrow">
                        <path fill="none" stroke="white" stroke-width="1.5" d="M0,-3.0v7 M-2.5,-0.5L0,-3.0L2.5,-0.5"/>
                </g>
               <g id="resetDef">
                       <use xlink:href="#rim2" fill="#404040">
                               <set attributeName="fill" to="#808080" begin="reset.mouseover" end="reset.mouseout"/>
                       </use>
               </g>
        </defs>

<script type="text/javascript">
var viewWidth = 2070;
var viewHeight = 732;
var sectionId = 'dynsection-1';
</script>
<script xlink:href="svgpan.js"/>
<svg id="graph" class="graph">
<g id="viewport">
<title>Problems/Problem.h</title>
<polygon fill="white" stroke="transparent" points="-4,4 -4,-728 2065.5,-728 2065.5,4 -4,4"/>
<!-- Node1 -->
<g id="node1" class="node">
<title>Node1</title>
<g id="a_node1"><a xlink:title=" ">
<polygon fill="#bfbfbf" stroke="black" points="398.5,-704.5 398.5,-723.5 513.5,-723.5 513.5,-704.5 398.5,-704.5"/>
<text text-anchor="middle" x="456" y="-711.5" font-family="Helvetica,sans-Serif" font-size="10.00">Problems/Problem.h</text>
</a>
</g>
</g>
<!-- Node2 -->
<g id="node2" class="node">
<title>Node2</title>
<g id="a_node2"><a xlink:href="MultiAgentProblem_8h.html" target="_top" xlink:title=" ">
<polygon fill="white" stroke="black" points="372,-648.5 372,-667.5 540,-667.5 540,-648.5 372,-648.5"/>
<text text-anchor="middle" x="456" y="-655.5" font-family="Helvetica,sans-Serif" font-size="10.00">Problems/MultiAgentProblem.h</text>
</a>
</g>
</g>
<!-- Node1&#45;&gt;Node2 -->
<g id="edge1" class="edge">
<title>Node1&#45;&gt;Node2</title>
<path fill="none" stroke="midnightblue" d="M456,-693.8C456,-684.91 456,-674.78 456,-667.75"/>
<polygon fill="midnightblue" stroke="midnightblue" points="452.5,-694.08 456,-704.08 459.5,-694.08 452.5,-694.08"/>
</g>
<!-- Node8 -->
<g id="node8" class="node">
<title>Node8</title>
<g id="a_node8"><a xlink:href="GeneralAStar_8h.html" target="_top" xlink:title=" ">
<polygon fill="white" stroke="black" points="66,-263 66,-282 224,-282 224,-263 66,-263"/>
<text text-anchor="middle" x="145" y="-270" font-family="Helvetica,sans-Serif" font-size="10.00">Solvers/AStar/GeneralAStar.h</text>
</a>
</g>
</g>
<!-- Node1&#45;&gt;Node8 -->
<g id="edge43" class="edge">
<title>Node1&#45;&gt;Node8</title>
<path fill="none" stroke="midnightblue" d="M388.23,-709.87C261.2,-702.13 0,-676.62 0,-597.5 0,-597.5 0,-597.5 0,-394.5 0,-333.52 76.54,-297.27 118.4,-282.01"/>
<polygon fill="midnightblue" stroke="midnightblue" points="388.06,-713.36 398.25,-710.46 388.47,-706.38 388.06,-713.36"/>
</g>
<!-- Node25 -->
<g id="node25" class="node">
<title>Node25</title>
<g id="a_node25"><a xlink:href="SingleAgentProblem_8h.html" target="_top" xlink:title=" ">
<polygon fill="white" stroke="black" points="1664.5,-648.5 1664.5,-667.5 1837.5,-667.5 1837.5,-648.5 1664.5,-648.5"/>
<text text-anchor="middle" x="1751" y="-655.5" font-family="Helvetica,sans-Serif" font-size="10.00">Problems/SingleAgentProblem.h</text>
</a>
</g>
</g>
<!-- Node1&#45;&gt;Node25 -->
<g id="edge32" class="edge">
<title>Node1&#45;&gt;Node25</title>
<path fill="none" stroke="midnightblue" d="M523.74,-710.18C741.23,-701.11 1421.74,-672.73 1664.16,-662.62"/>
<polygon fill="midnightblue" stroke="midnightblue" points="523.58,-706.68 513.74,-710.59 523.87,-713.67 523.58,-706.68"/>
</g>
<!-- Node3 -->
<g id="node3" class="node">
<title>Node3</title>
<g id="a_node3"><a xlink:href="ODMultiAgentAStarProblem_8h.html" target="_top" xlink:title=" ">
<polygon fill="white" stroke="black" points="826,-581.5 826,-611.5 986,-611.5 986,-581.5 826,-581.5"/>
<text text-anchor="start" x="834" y="-599.5" font-family="Helvetica,sans-Serif" font-size="10.00">AStarProblems/ODMultiAgent</text>
<text text-anchor="middle" x="906" y="-588.5" font-family="Helvetica,sans-Serif" font-size="10.00">AStarProblem.h</text>
</a>
</g>
</g>
<!-- Node2&#45;&gt;Node3 -->
<g id="edge2" class="edge">
<title>Node2&#45;&gt;Node3</title>
<path fill="none" stroke="midnightblue" d="M540.29,-647.32C613.31,-638.73 721.76,-625.48 816,-612 819.13,-611.55 822.33,-611.09 825.55,-610.61"/>
<polygon fill="midnightblue" stroke="midnightblue" points="539.74,-643.86 530.22,-648.5 540.56,-650.81 539.74,-643.86"/>
</g>
<!-- Node9 -->
<g id="node9" class="node">
<title>Node9</title>
<g id="a_node9"><a xlink:href="ConflictBasedSearch_8h.html" target="_top" xlink:title=" ">
<polygon fill="white" stroke="black" points="12.5,-190.5 12.5,-220.5 157.5,-220.5 157.5,-190.5 12.5,-190.5"/>
<text text-anchor="start" x="20.5" y="-208.5" font-family="Helvetica,sans-Serif" font-size="10.00">Solvers/CBS/ConflictBased</text>
<text text-anchor="middle" x="85" y="-197.5" font-family="Helvetica,sans-Serif" font-size="10.00">Search.h</text>
</a>
</g>
</g>
<!-- Node2&#45;&gt;Node9 -->
<g id="edge29" class="edge">
<title>Node2&#45;&gt;Node9</title>
<path fill="none" stroke="midnightblue" d="M361.84,-654.46C300.22,-650.08 219.01,-639.06 152,-612 94.25,-588.68 38,-592.78 38,-530.5 38,-530.5 38,-530.5 38,-333 38,-289.89 62.28,-243.4 75.94,-220.66"/>
<polygon fill="midnightblue" stroke="midnightblue" points="361.74,-657.97 371.95,-655.14 362.2,-650.98 361.74,-657.97"/>
</g>
<!-- Node11 -->
<g id="node11" class="node">
<title>Node11</title>
<g id="a_node11"><a xlink:href="SimpleIndependenceDetection_8h.html" target="_top" xlink:title=" ">
<polygon fill="white" stroke="black" points="166.5,-123.5 166.5,-153.5 337.5,-153.5 337.5,-123.5 166.5,-123.5"/>
<text text-anchor="start" x="174.5" y="-141.5" font-family="Helvetica,sans-Serif" font-size="10.00">Solvers/ID/SimpleIndependence</text>
<text text-anchor="middle" x="252" y="-130.5" font-family="Helvetica,sans-Serif" font-size="10.00">Detection.h</text>
</a>
</g>
</g>
<!-- Node2&#45;&gt;Node11 -->
<g id="edge30" class="edge">
<title>Node2&#45;&gt;Node11</title>
<path fill="none" stroke="midnightblue" d="M361.79,-653.95C292.85,-649.51 207.56,-638.61 185,-612 176.09,-601.49 183.88,-594.73 185,-581 195.7,-449.48 213.96,-418.58 233,-288 240.16,-238.88 247.21,-180.39 250.33,-153.86"/>
<polygon fill="midnightblue" stroke="midnightblue" points="361.64,-657.45 371.84,-654.56 362.07,-650.46 361.64,-657.45"/>
</g>
<!-- Node15 -->
<g id="node15" class="node">
<title>Node15</title>
<g id="a_node15"><a xlink:href="CooperativeAStar_8h.html" target="_top" xlink:title=" ">
<polygon fill="white" stroke="black" points="320,-257.5 320,-287.5 462,-287.5 462,-257.5 320,-257.5"/>
<text text-anchor="start" x="328" y="-275.5" font-family="Helvetica,sans-Serif" font-size="10.00">Solvers/SuboptimalSolver</text>
<text text-anchor="middle" x="391" y="-264.5" font-family="Helvetica,sans-Serif" font-size="10.00">/CooperativeAStar.h</text>
</a>
</g>
</g>
<!-- Node2&#45;&gt;Node15 -->
<g id="edge31" class="edge">
<title>Node2&#45;&gt;Node15</title>
<path fill="none" stroke="midnightblue" d="M440.3,-640.66C433.39,-632.61 425.78,-622.42 421,-612 392.92,-550.8 391,-530.83 391,-463.5 391,-463.5 391,-463.5 391,-394.5 391,-355.85 391,-310.25 391,-287.66"/>
<polygon fill="midnightblue" stroke="midnightblue" points="437.8,-643.11 447.1,-648.19 443,-638.42 437.8,-643.11"/>
</g>
<!-- Node18 -->
<g id="node18" class="node">
<title>Node18</title>
<g id="a_node18"><a xlink:href="ODMultiAgentAStarProblemWithConstraints_8h.html" target="_top" xlink:title=" ">
<polygon fill="white" stroke="black" points="1005,-581.5 1005,-611.5 1175,-611.5 1175,-581.5 1005,-581.5"/>
<text text-anchor="start" x="1013" y="-599.5" font-family="Helvetica,sans-Serif" font-size="10.00">AStarProblems/ODMultiAgent</text>
<text text-anchor="middle" x="1090" y="-588.5" font-family="Helvetica,sans-Serif" font-size="10.00">AStarProblemWithConstraints.h</text>
</a>
</g>
</g>
<!-- Node2&#45;&gt;Node18 -->
<g id="edge19" class="edge">
<title>Node2&#45;&gt;Node18</title>
<path fill="none" stroke="midnightblue" d="M550.4,-651.08C658.16,-643.86 839.61,-630.32 995,-612 998.23,-611.62 1001.52,-611.21 1004.84,-610.78"/>
<polygon fill="midnightblue" stroke="midnightblue" points="549.95,-647.6 540.2,-651.75 550.41,-654.58 549.95,-647.6"/>
</g>
<!-- Node20 -->
<g id="node20" class="node">
<title>Node20</title>
<g id="a_node20"><a xlink:href="StandardMultiAgentAStarProblem_8h.html" target="_top" xlink:title=" ">
<polygon fill="white" stroke="black" points="430,-581.5 430,-611.5 590,-611.5 590,-581.5 430,-581.5"/>
<text text-anchor="start" x="438" y="-599.5" font-family="Helvetica,sans-Serif" font-size="10.00">AStarProblems/StandardMulti</text>
<text text-anchor="middle" x="510" y="-588.5" font-family="Helvetica,sans-Serif" font-size="10.00">AgentAStarProblem.h</text>
</a>
</g>
</g>
<!-- Node2&#45;&gt;Node20 -->
<g id="edge22" class="edge">
<title>Node2&#45;&gt;Node20</title>
<path fill="none" stroke="midnightblue" d="M470.69,-640.81C479.01,-631.65 489.3,-620.3 497.27,-611.52"/>
<polygon fill="midnightblue" stroke="midnightblue" points="467.87,-638.72 463.74,-648.48 473.05,-643.42 467.87,-638.72"/>
</g>
<!-- Node22 -->
<g id="node22" class="node">
<title>Node22</title>
<g id="a_node22"><a xlink:href="StandardMultiAgentAStarProblemWithConstraints_8h.html" target="_top" xlink:title=" ">
<polygon fill="white" stroke="black" points="608.5,-581.5 608.5,-611.5 807.5,-611.5 807.5,-581.5 608.5,-581.5"/>
<text text-anchor="start" x="616.5" y="-599.5" font-family="Helvetica,sans-Serif" font-size="10.00">AStarProblems/StandardMulti</text>
<text text-anchor="middle" x="708" y="-588.5" font-family="Helvetica,sans-Serif" font-size="10.00">AgentAStarProblemWithConstraints.h</text>
</a>
</g>
</g>
<!-- Node2&#45;&gt;Node22 -->
<g id="edge25" class="edge">
<title>Node2&#45;&gt;Node22</title>
<path fill="none" stroke="midnightblue" d="M501.87,-646.17C543.05,-636.45 603.74,-622.12 648.61,-611.52"/>
<polygon fill="midnightblue" stroke="midnightblue" points="501.03,-642.77 492.11,-648.48 502.64,-649.58 501.03,-642.77"/>
</g>
<!-- Node24 -->
<g id="node24" class="node">
<title>Node24</title>
<g id="a_node24"><a xlink:href="MultiAgentProblem_8cpp.html" target="_top" xlink:title=" ">
<polygon fill="white" stroke="black" points="194.5,-587 194.5,-606 373.5,-606 373.5,-587 194.5,-587"/>
<text text-anchor="middle" x="284" y="-594" font-family="Helvetica,sans-Serif" font-size="10.00">Problems/MultiAgentProblem.cpp</text>
</a>
</g>
</g>
<!-- Node2&#45;&gt;Node24 -->
<g id="edge28" class="edge">
<title>Node2&#45;&gt;Node24</title>
<path fill="none" stroke="midnightblue" d="M421.55,-645.08C388.12,-633.52 338.21,-616.25 308.6,-606.01"/>
<polygon fill="midnightblue" stroke="midnightblue" points="420.76,-648.51 431.36,-648.48 423.05,-641.9 420.76,-648.51"/>
</g>
<!-- Node4 -->
<g id="node4" class="node">
<title>Node4</title>
<g id="a_node4"><a xlink:href="ODMultiAgentAStarProblem_8cpp.html" target="_top" xlink:title=" ">
<polygon fill="white" stroke="black" points="825,-514.5 825,-544.5 985,-544.5 985,-514.5 825,-514.5"/>
<text text-anchor="start" x="833" y="-532.5" font-family="Helvetica,sans-Serif" font-size="10.00">AStarProblems/ODMultiAgent</text>
<text text-anchor="middle" x="905" y="-521.5" font-family="Helvetica,sans-Serif" font-size="10.00">AStarProblem.cpp</text>
</a>
</g>
</g>
<!-- Node3&#45;&gt;Node4 -->
<g id="edge3" class="edge">
<title>Node3&#45;&gt;Node4</title>
<path fill="none" stroke="midnightblue" d="M905.62,-571.11C905.49,-562.15 905.34,-552.32 905.22,-544.58"/>
<polygon fill="midnightblue" stroke="midnightblue" points="902.13,-571.45 905.78,-581.4 909.13,-571.34 902.13,-571.45"/>
</g>
<!-- Node5 -->
<g id="node5" class="node">
<title>Node5</title>
<g id="a_node5"><a xlink:href="HeuristicManhattan_8h.html" target="_top" xlink:title=" ">
<polygon fill="white" stroke="black" points="1003.5,-520 1003.5,-539 1176.5,-539 1176.5,-520 1003.5,-520"/>
<text text-anchor="middle" x="1090" y="-527" font-family="Helvetica,sans-Serif" font-size="10.00">Heuristics/HeuristicManhattan.h</text>
</a>
</g>
</g>
<!-- Node3&#45;&gt;Node5 -->
<g id="edge4" class="edge">
<title>Node3&#45;&gt;Node5</title>
<path fill="none" stroke="midnightblue" d="M955.69,-577.95C991.43,-565.32 1038.05,-548.85 1065.92,-539.01"/>
<polygon fill="midnightblue" stroke="midnightblue" points="954.19,-574.76 945.93,-581.4 956.52,-581.37 954.19,-574.76"/>
</g>
<!-- Node6 -->
<g id="node6" class="node">
<title>Node6</title>
<g id="a_node6"><a xlink:href="HeuristicOptimal_8h.html" target="_top" xlink:title=" ">
<polygon fill="white" stroke="black" points="933,-386 933,-405 1093,-405 1093,-386 933,-386"/>
<text text-anchor="middle" x="1013" y="-393" font-family="Helvetica,sans-Serif" font-size="10.00">Heuristics/HeuristicOptimal.h</text>
</a>
</g>
</g>
<!-- Node5&#45;&gt;Node6 -->
<g id="edge5" class="edge">
<title>Node5&#45;&gt;Node6</title>
<path fill="none" stroke="midnightblue" d="M1079.74,-510.92C1062.99,-482.2 1030.39,-426.32 1017.97,-405.02"/>
<polygon fill="midnightblue" stroke="midnightblue" points="1076.89,-512.96 1084.95,-519.84 1082.93,-509.44 1076.89,-512.96"/>
</g>
<!-- Node16 -->
<g id="node16" class="node">
<title>Node16</title>
<g id="a_node16"><a xlink:href="ReverseResumableAStar_8h.html" target="_top" xlink:title=" ">
<polygon fill="white" stroke="black" points="1076.5,-447.5 1076.5,-477.5 1255.5,-477.5 1255.5,-447.5 1076.5,-447.5"/>
<text text-anchor="start" x="1084.5" y="-465.5" font-family="Helvetica,sans-Serif" font-size="10.00">Solvers/AStar/ReverseResumable</text>
<text text-anchor="middle" x="1166" y="-454.5" font-family="Helvetica,sans-Serif" font-size="10.00">AStar.h</text>
</a>
</g>
</g>
<!-- Node5&#45;&gt;Node16 -->
<g id="edge16" class="edge">
<title>Node5&#45;&gt;Node16</title>
<path fill="none" stroke="midnightblue" d="M1108.21,-512.93C1120.78,-502.18 1137.35,-488 1149.53,-477.59"/>
<polygon fill="midnightblue" stroke="midnightblue" points="1105.57,-510.57 1100.25,-519.73 1110.12,-515.89 1105.57,-510.57"/>
</g>
<!-- Node7 -->
<g id="node7" class="node">
<title>Node7</title>
<g id="a_node7"><a xlink:href="AStar_8h.html" target="_top" xlink:title=" ">
<polygon fill="white" stroke="black" points="243.5,-324.5 243.5,-343.5 362.5,-343.5 362.5,-324.5 243.5,-324.5"/>
<text text-anchor="middle" x="303" y="-331.5" font-family="Helvetica,sans-Serif" font-size="10.00">Solvers/AStar/AStar.h</text>
</a>
</g>
</g>
<!-- Node6&#45;&gt;Node7 -->
<g id="edge6" class="edge">
<title>Node6&#45;&gt;Node7</title>
<path fill="none" stroke="midnightblue" d="M922.57,-386.92C775.22,-374.57 487.29,-350.44 362.75,-340.01"/>
<polygon fill="midnightblue" stroke="midnightblue" points="922.68,-390.44 932.93,-387.79 923.26,-383.47 922.68,-390.44"/>
</g>
<!-- Node7&#45;&gt;Node8 -->
<g id="edge7" class="edge">
<title>Node7&#45;&gt;Node8</title>
<path fill="none" stroke="midnightblue" d="M270.96,-320.93C240.25,-309.37 194.68,-292.21 167.6,-282.01"/>
<polygon fill="midnightblue" stroke="midnightblue" points="269.77,-324.23 280.36,-324.48 272.24,-317.68 269.77,-324.23"/>
</g>
<!-- Node7&#45;&gt;Node15 -->
<g id="edge15" class="edge">
<title>Node7&#45;&gt;Node15</title>
<path fill="none" stroke="midnightblue" d="M324.09,-318.74C338.08,-309.28 356.35,-296.93 370.26,-287.52"/>
<polygon fill="midnightblue" stroke="midnightblue" points="321.93,-315.97 315.61,-324.48 325.85,-321.77 321.93,-315.97"/>
</g>
<!-- Node8&#45;&gt;Node9 -->
<g id="edge8" class="edge">
<title>Node8&#45;&gt;Node9</title>
<path fill="none" stroke="midnightblue" d="M130.05,-255.3C120.2,-244.63 107.43,-230.8 98.01,-220.59"/>
<polygon fill="midnightblue" stroke="midnightblue" points="127.55,-257.76 136.91,-262.73 132.7,-253.01 127.55,-257.76"/>
</g>
<!-- Node8&#45;&gt;Node11 -->
<g id="edge14" class="edge">
<title>Node8&#45;&gt;Node11</title>
<path fill="none" stroke="midnightblue" d="M158.39,-254.98C179.57,-228.86 220.43,-178.44 240.42,-153.78"/>
<polygon fill="midnightblue" stroke="midnightblue" points="155.6,-252.87 152.02,-262.84 161.04,-257.27 155.6,-252.87"/>
</g>
<!-- Node10 -->
<g id="node10" class="node">
<title>Node10</title>
<g id="a_node10"><a xlink:href="ConflictBasedSearch_8cpp.html" target="_top" xlink:title=" ">
<polygon fill="white" stroke="black" points="3.5,-123.5 3.5,-153.5 148.5,-153.5 148.5,-123.5 3.5,-123.5"/>
<text text-anchor="start" x="11.5" y="-141.5" font-family="Helvetica,sans-Serif" font-size="10.00">Solvers/CBS/ConflictBased</text>
<text text-anchor="middle" x="76" y="-130.5" font-family="Helvetica,sans-Serif" font-size="10.00">Search.cpp</text>
</a>
</g>
</g>
<!-- Node9&#45;&gt;Node10 -->
<g id="edge9" class="edge">
<title>Node9&#45;&gt;Node10</title>
<path fill="none" stroke="midnightblue" d="M81.66,-180.4C80.41,-171.37 79.03,-161.41 77.95,-153.58"/>
<polygon fill="midnightblue" stroke="midnightblue" points="78.21,-180.97 83.05,-190.4 85.14,-180.01 78.21,-180.97"/>
</g>
<!-- Node9&#45;&gt;Node11 -->
<g id="edge10" class="edge">
<title>Node9&#45;&gt;Node11</title>
<path fill="none" stroke="midnightblue" d="M130.78,-186.68C157.56,-176.26 190.9,-163.28 215.83,-153.58"/>
<polygon fill="midnightblue" stroke="midnightblue" points="129.29,-183.51 121.24,-190.4 131.83,-190.03 129.29,-183.51"/>
</g>
<!-- Node12 -->
<g id="node12" class="node">
<title>Node12</title>
<g id="a_node12"><a xlink:href="IndependenceDetection_8h.html" target="_top" xlink:title=" ">
<polygon fill="white" stroke="black" points="54,-62 54,-81 248,-81 248,-62 54,-62"/>
<text text-anchor="middle" x="151" y="-69" font-family="Helvetica,sans-Serif" font-size="10.00">Solvers/ID/IndependenceDetection.h</text>
</a>
</g>
</g>
<!-- Node11&#45;&gt;Node12 -->
<g id="edge11" class="edge">
<title>Node11&#45;&gt;Node12</title>
<path fill="none" stroke="midnightblue" d="M221.66,-117.97C202.51,-105.65 178.73,-90.35 164.22,-81.01"/>
<polygon fill="midnightblue" stroke="midnightblue" points="219.78,-120.93 230.08,-123.4 223.57,-115.04 219.78,-120.93"/>
</g>
<!-- Node14 -->
<g id="node14" class="node">
<title>Node14</title>
<g id="a_node14"><a xlink:href="SimpleIndependenceDetection_8cpp.html" target="_top" xlink:title=" ">
<polygon fill="white" stroke="black" points="266.5,-56.5 266.5,-86.5 437.5,-86.5 437.5,-56.5 266.5,-56.5"/>
<text text-anchor="start" x="274.5" y="-74.5" font-family="Helvetica,sans-Serif" font-size="10.00">Solvers/ID/SimpleIndependence</text>
<text text-anchor="middle" x="352" y="-63.5" font-family="Helvetica,sans-Serif" font-size="10.00">Detection.cpp</text>
</a>
</g>
</g>
<!-- Node11&#45;&gt;Node14 -->
<g id="edge13" class="edge">
<title>Node11&#45;&gt;Node14</title>
<path fill="none" stroke="midnightblue" d="M282.41,-117.73C297.88,-107.68 316.33,-95.68 330.34,-86.58"/>
<polygon fill="midnightblue" stroke="midnightblue" points="280.18,-115.01 273.7,-123.4 283.99,-120.88 280.18,-115.01"/>
</g>
<!-- Node13 -->
<g id="node13" class="node">
<title>Node13</title>
<g id="a_node13"><a xlink:href="IndependenceDetection_8cpp.html" target="_top" xlink:title=" ">
<polygon fill="white" stroke="black" points="48.5,-0.5 48.5,-19.5 253.5,-19.5 253.5,-0.5 48.5,-0.5"/>
<text text-anchor="middle" x="151" y="-7.5" font-family="Helvetica,sans-Serif" font-size="10.00">Solvers/ID/IndependenceDetection.cpp</text>
</a>
</g>
</g>
<!-- Node12&#45;&gt;Node13 -->
<g id="edge12" class="edge">
<title>Node12&#45;&gt;Node13</title>
<path fill="none" stroke="midnightblue" d="M151,-51.82C151,-41 151,-27.9 151,-19.51"/>
<polygon fill="midnightblue" stroke="midnightblue" points="147.5,-51.98 151,-61.98 154.5,-51.98 147.5,-51.98"/>
</g>
<!-- Node16&#45;&gt;Node6 -->
<g id="edge17" class="edge">
<title>Node16&#45;&gt;Node6</title>
<path fill="none" stroke="midnightblue" d="M1123.53,-443.46C1093.97,-430.9 1055.9,-414.72 1033.02,-405.01"/>
<polygon fill="midnightblue" stroke="midnightblue" points="1122.23,-446.71 1132.8,-447.4 1124.97,-440.26 1122.23,-446.71"/>
</g>
<!-- Node17 -->
<g id="node17" class="node">
<title>Node17</title>
<g id="a_node17"><a xlink:href="ReverseResumableAStar_8cpp.html" target="_top" xlink:title=" ">
<polygon fill="white" stroke="black" points="1111.5,-380.5 1111.5,-410.5 1290.5,-410.5 1290.5,-380.5 1111.5,-380.5"/>
<text text-anchor="start" x="1119.5" y="-398.5" font-family="Helvetica,sans-Serif" font-size="10.00">Solvers/AStar/ReverseResumable</text>
<text text-anchor="middle" x="1201" y="-387.5" font-family="Helvetica,sans-Serif" font-size="10.00">AStar.cpp</text>
</a>
</g>
</g>
<!-- Node16&#45;&gt;Node17 -->
<g id="edge18" class="edge">
<title>Node16&#45;&gt;Node17</title>
<path fill="none" stroke="midnightblue" d="M1178.34,-438.58C1183.37,-429.24 1189.02,-418.75 1193.42,-410.58"/>
<polygon fill="midnightblue" stroke="midnightblue" points="1175.25,-436.93 1173.59,-447.4 1181.42,-440.25 1175.25,-436.93"/>
</g>
<!-- Node18&#45;&gt;Node5 -->
<g id="edge21" class="edge">
<title>Node18&#45;&gt;Node5</title>
<path fill="none" stroke="midnightblue" d="M1090,-571.25C1090,-560.02 1090,-547.38 1090,-539.19"/>
<polygon fill="midnightblue" stroke="midnightblue" points="1086.5,-571.4 1090,-581.4 1093.5,-571.4 1086.5,-571.4"/>
</g>
<!-- Node19 -->
<g id="node19" class="node">
<title>Node19</title>
<g id="a_node19"><a xlink:href="ODMultiAgentAStarProblemWithConstraints_8cpp.html" target="_top" xlink:title=" ">
<polygon fill="white" stroke="black" points="1195,-514.5 1195,-544.5 1377,-544.5 1377,-514.5 1195,-514.5"/>
<text text-anchor="start" x="1203" y="-532.5" font-family="Helvetica,sans-Serif" font-size="10.00">AStarProblems/ODMultiAgent</text>
<text text-anchor="middle" x="1286" y="-521.5" font-family="Helvetica,sans-Serif" font-size="10.00">AStarProblemWithConstraints.cpp</text>
</a>
</g>
</g>
<!-- Node18&#45;&gt;Node19 -->
<g id="edge20" class="edge">
<title>Node18&#45;&gt;Node19</title>
<path fill="none" stroke="midnightblue" d="M1142.08,-578.23C1173.79,-567.71 1213.78,-554.45 1243.55,-544.58"/>
<polygon fill="midnightblue" stroke="midnightblue" points="1140.92,-574.93 1132.53,-581.4 1143.12,-581.57 1140.92,-574.93"/>
</g>
<!-- Node20&#45;&gt;Node5 -->
<g id="edge24" class="edge">
<title>Node20&#45;&gt;Node5</title>
<path fill="none" stroke="midnightblue" d="M600.11,-580.92C775.6,-559.08 822.24,-565.78 994,-545 1008.06,-543.3 1023.22,-541.15 1037.26,-539.04"/>
<polygon fill="midnightblue" stroke="midnightblue" points="599.5,-577.47 590.01,-582.19 600.37,-584.41 599.5,-577.47"/>
</g>
<!-- Node21 -->
<g id="node21" class="node">
<title>Node21</title>
<g id="a_node21"><a xlink:href="StandardMultiAgentAStarProblem_8cpp.html" target="_top" xlink:title=" ">
<polygon fill="white" stroke="black" points="419,-514.5 419,-544.5 579,-544.5 579,-514.5 419,-514.5"/>
<text text-anchor="start" x="427" y="-532.5" font-family="Helvetica,sans-Serif" font-size="10.00">AStarProblems/StandardMulti</text>
<text text-anchor="middle" x="499" y="-521.5" font-family="Helvetica,sans-Serif" font-size="10.00">AgentAStarProblem.cpp</text>
</a>
</g>
</g>
<!-- Node20&#45;&gt;Node21 -->
<g id="edge23" class="edge">
<title>Node20&#45;&gt;Node21</title>
<path fill="none" stroke="midnightblue" d="M505.92,-571.4C504.39,-562.37 502.71,-552.41 501.38,-544.58"/>
<polygon fill="midnightblue" stroke="midnightblue" points="502.49,-572.12 507.61,-581.4 509.4,-570.95 502.49,-572.12"/>
</g>
<!-- Node22&#45;&gt;Node5 -->
<g id="edge27" class="edge">
<title>Node22&#45;&gt;Node5</title>
<path fill="none" stroke="midnightblue" d="M800.38,-579.78C875.68,-566.97 979.17,-549.36 1039.88,-539.03"/>
<polygon fill="midnightblue" stroke="midnightblue" points="799.69,-576.35 790.42,-581.48 800.86,-583.25 799.69,-576.35"/>
</g>
<!-- Node23 -->
<g id="node23" class="node">
<title>Node23</title>
<g id="a_node23"><a xlink:href="StandardMultiAgentAStarProblemWithConstraints_8cpp.html" target="_top" xlink:title=" ">
<polygon fill="white" stroke="black" points="597,-514.5 597,-544.5 807,-544.5 807,-514.5 597,-514.5"/>
<text text-anchor="start" x="605" y="-532.5" font-family="Helvetica,sans-Serif" font-size="10.00">AStarProblems/StandardMulti</text>
<text text-anchor="middle" x="702" y="-521.5" font-family="Helvetica,sans-Serif" font-size="10.00">AgentAStarProblemWithConstraints.cpp</text>
</a>
</g>
</g>
<!-- Node22&#45;&gt;Node23 -->
<g id="edge26" class="edge">
<title>Node22&#45;&gt;Node23</title>
<path fill="none" stroke="midnightblue" d="M705.78,-571.4C704.94,-562.37 704.02,-552.41 703.3,-544.58"/>
<polygon fill="midnightblue" stroke="midnightblue" points="702.29,-571.76 706.7,-581.4 709.26,-571.12 702.29,-571.76"/>
</g>
<!-- Node25&#45;&gt;Node11 -->
<g id="edge41" class="edge">
<title>Node25&#45;&gt;Node11</title>
<path fill="none" stroke="midnightblue" d="M1772.93,-642.57C1801.82,-621.62 1849,-579.85 1849,-530.5 1849,-530.5 1849,-530.5 1849,-271.5 1849,-194.97 668.9,-152.47 337.58,-142.05"/>
<polygon fill="midnightblue" stroke="midnightblue" points="1770.81,-639.78 1764.63,-648.38 1774.82,-645.51 1770.81,-639.78"/>
</g>
<!-- Node25&#45;&gt;Node15 -->
<g id="edge42" class="edge">
<title>Node25&#45;&gt;Node15</title>
<path fill="none" stroke="midnightblue" d="M1765.98,-640.75C1772.85,-632.6 1780.65,-622.3 1786,-612 1803.47,-578.38 1811,-568.39 1811,-530.5 1811,-530.5 1811,-530.5 1811,-394.5 1811,-326.07 750.34,-285.54 462.39,-275.8"/>
<polygon fill="midnightblue" stroke="midnightblue" points="1763.26,-638.54 1759.29,-648.37 1768.52,-643.16 1763.26,-638.54"/>
</g>
<!-- Node26 -->
<g id="node26" class="node">
<title>Node26</title>
<g id="a_node26"><a xlink:href="SingleAgentAStarProblem_8h.html" target="_top" xlink:title=" ">
<polygon fill="white" stroke="black" points="1381,-581.5 1381,-611.5 1531,-611.5 1531,-581.5 1381,-581.5"/>
<text text-anchor="start" x="1389" y="-599.5" font-family="Helvetica,sans-Serif" font-size="10.00">AStarProblems/SingleAgent</text>
<text text-anchor="middle" x="1456" y="-588.5" font-family="Helvetica,sans-Serif" font-size="10.00">AStarProblem.h</text>
</a>
</g>
</g>
<!-- Node25&#45;&gt;Node26 -->
<g id="edge33" class="edge">
<title>Node25&#45;&gt;Node26</title>
<path fill="none" stroke="midnightblue" d="M1698.82,-646.48C1650.6,-636.75 1578.61,-622.23 1525.53,-611.52"/>
<polygon fill="midnightblue" stroke="midnightblue" points="1698.24,-649.93 1708.73,-648.48 1699.62,-643.07 1698.24,-649.93"/>
</g>
<!-- Node28 -->
<g id="node28" class="node">
<title>Node28</title>
<g id="a_node28"><a xlink:href="SingleAgentAStarProblemWithConstraints_8h.html" target="_top" xlink:title=" ">
<polygon fill="white" stroke="black" points="1607,-581.5 1607,-611.5 1777,-611.5 1777,-581.5 1607,-581.5"/>
<text text-anchor="start" x="1615" y="-599.5" font-family="Helvetica,sans-Serif" font-size="10.00">AStarProblems/SingleAgent</text>
<text text-anchor="middle" x="1692" y="-588.5" font-family="Helvetica,sans-Serif" font-size="10.00">AStarProblemWithConstraints.h</text>
</a>
</g>
</g>
<!-- Node25&#45;&gt;Node28 -->
<g id="edge37" class="edge">
<title>Node25&#45;&gt;Node28</title>
<path fill="none" stroke="midnightblue" d="M1735.5,-641.37C1726.32,-632.11 1714.79,-620.48 1705.91,-611.52"/>
<polygon fill="midnightblue" stroke="midnightblue" points="1733.02,-643.84 1742.55,-648.48 1737.99,-638.91 1733.02,-643.84"/>
</g>
<!-- Node30 -->
<g id="node30" class="node">
<title>Node30</title>
<g id="a_node30"><a xlink:href="SingleAgentProblem_8cpp.html" target="_top" xlink:title=" ">
<polygon fill="white" stroke="black" points="1876.5,-587 1876.5,-606 2061.5,-606 2061.5,-587 1876.5,-587"/>
<text text-anchor="middle" x="1969" y="-594" font-family="Helvetica,sans-Serif" font-size="10.00">Problems/SingleAgentProblem.cpp</text>
</a>
</g>
</g>
<!-- Node25&#45;&gt;Node30 -->
<g id="edge40" class="edge">
<title>Node25&#45;&gt;Node30</title>
<path fill="none" stroke="midnightblue" d="M1791.95,-645.82C1834.3,-634.26 1899.48,-616.47 1937.82,-606.01"/>
<polygon fill="midnightblue" stroke="midnightblue" points="1790.96,-642.47 1782.23,-648.48 1792.8,-649.22 1790.96,-642.47"/>
</g>
<!-- Node26&#45;&gt;Node5 -->
<g id="edge35" class="edge">
<title>Node26&#45;&gt;Node5</title>
<path fill="none" stroke="midnightblue" d="M1370.59,-580.33C1298.17,-567.47 1196.93,-549.49 1137.93,-539.01"/>
<polygon fill="midnightblue" stroke="midnightblue" points="1370.15,-583.81 1380.61,-582.11 1371.37,-576.92 1370.15,-583.81"/>
</g>
<!-- Node26&#45;&gt;Node16 -->
<g id="edge36" class="edge">
<title>Node26&#45;&gt;Node16</title>
<path fill="none" stroke="midnightblue" d="M1442.35,-572.74C1429.97,-554.09 1410.01,-528.5 1386,-514 1346.84,-490.34 1297.64,-477.76 1255.7,-471.07"/>
<polygon fill="midnightblue" stroke="midnightblue" points="1439.46,-574.72 1447.8,-581.25 1445.36,-570.95 1439.46,-574.72"/>
</g>
<!-- Node27 -->
<g id="node27" class="node">
<title>Node27</title>
<g id="a_node27"><a xlink:href="SingleAgentAStarProblem_8cpp.html" target="_top" xlink:title=" ">
<polygon fill="white" stroke="black" points="1433,-514.5 1433,-544.5 1583,-544.5 1583,-514.5 1433,-514.5"/>
<text text-anchor="start" x="1441" y="-532.5" font-family="Helvetica,sans-Serif" font-size="10.00">AStarProblems/SingleAgent</text>
<text text-anchor="middle" x="1508" y="-521.5" font-family="Helvetica,sans-Serif" font-size="10.00">AStarProblem.cpp</text>
</a>
</g>
</g>
<!-- Node26&#45;&gt;Node27 -->
<g id="edge34" class="edge">
<title>Node26&#45;&gt;Node27</title>
<path fill="none" stroke="midnightblue" d="M1473.64,-573.45C1481.28,-563.9 1490,-553 1496.74,-544.58"/>
<polygon fill="midnightblue" stroke="midnightblue" points="1470.8,-571.4 1467.28,-581.4 1476.26,-575.77 1470.8,-571.4"/>
</g>
<!-- Node28&#45;&gt;Node5 -->
<g id="edge39" class="edge">
<title>Node28&#45;&gt;Node5</title>
<path fill="none" stroke="midnightblue" d="M1597.02,-586.28C1461.78,-573.12 1225.61,-549.96 1186,-545 1172.12,-543.26 1157.15,-541.12 1143.25,-539.03"/>
<polygon fill="midnightblue" stroke="midnightblue" points="1596.69,-589.77 1606.98,-587.25 1597.37,-582.8 1596.69,-589.77"/>
</g>
<!-- Node29 -->
<g id="node29" class="node">
<title>Node29</title>
<g id="a_node29"><a xlink:href="SingleAgentAStarProblemWithConstraints_8cpp.html" target="_top" xlink:title=" ">
<polygon fill="white" stroke="black" points="1601,-514.5 1601,-544.5 1783,-544.5 1783,-514.5 1601,-514.5"/>
<text text-anchor="start" x="1609" y="-532.5" font-family="Helvetica,sans-Serif" font-size="10.00">AStarProblems/SingleAgent</text>
<text text-anchor="middle" x="1692" y="-521.5" font-family="Helvetica,sans-Serif" font-size="10.00">AStarProblemWithConstraints.cpp</text>
</a>
</g>
</g>
<!-- Node28&#45;&gt;Node29 -->
<g id="edge38" class="edge">
<title>Node28&#45;&gt;Node29</title>
<path fill="none" stroke="midnightblue" d="M1692,-571.11C1692,-562.15 1692,-552.32 1692,-544.58"/>
<polygon fill="midnightblue" stroke="midnightblue" points="1688.5,-571.4 1692,-581.4 1695.5,-571.4 1688.5,-571.4"/>
</g>
</g>
</svg>
        <g id="navigator" transform="translate(0 0)" fill="#404254">
                <rect fill="#f2f5e9" fill-opacity="0.5" stroke="#606060" stroke-width=".5" x="0" y="0" width="60" height="60"/>
                <use id="zoomplus" xlink:href="#zoomPlus" x="17" y="9" onmousedown="handleZoom(evt,'in')"/>
                <use id="zoomminus" xlink:href="#zoomMin" x="42" y="9" onmousedown="handleZoom(evt,'out')"/>
                <use id="reset" xlink:href="#resetDef" x="30" y="36" onmousedown="handleReset()"/>
                <g id="arrowUp" xlink:href="#dirArrow" transform="translate(30 24)" onmousedown="handlePan(0,-1)">
                  <use xlink:href="#rim" fill="#404040">
                        <set attributeName="fill" to="#808080" begin="arrowUp.mouseover" end="arrowUp.mouseout"/>
                  </use>
                  <path fill="none" stroke="white" stroke-width="1.5" d="M0,-3.0v7 M-2.5,-0.5L0,-3.0L2.5,-0.5"/>
                </g>
                <g id="arrowRight" xlink:href="#dirArrow" transform="rotate(90) translate(36 -43)" onmousedown="handlePan(1,0)">
                  <use xlink:href="#rim" fill="#404040">
                        <set attributeName="fill" to="#808080" begin="arrowRight.mouseover" end="arrowRight.mouseout"/>
                  </use>
                  <path fill="none" stroke="white" stroke-width="1.5" d="M0,-3.0v7 M-2.5,-0.5L0,-3.0L2.5,-0.5"/>
                </g>
                <g id="arrowDown" xlink:href="#dirArrow" transform="rotate(180) translate(-30 -48)" onmousedown="handlePan(0,1)">
                  <use xlink:href="#rim" fill="#404040">
                        <set attributeName="fill" to="#808080" begin="arrowDown.mouseover" end="arrowDown.mouseout"/>
                  </use>
                  <path fill="none" stroke="white" stroke-width="1.5" d="M0,-3.0v7 M-2.5,-0.5L0,-3.0L2.5,-0.5"/>
                </g>
                <g id="arrowLeft" xlink:href="#dirArrow" transform="rotate(270) translate(-36 17)" onmousedown="handlePan(-1,0)">
                  <use xlink:href="#rim" fill="#404040">
                        <set attributeName="fill" to="#808080" begin="arrowLeft.mouseover" end="arrowLeft.mouseout"/>
                  </use>
                  <path fill="none" stroke="white" stroke-width="1.5" d="M0,-3.0v7 M-2.5,-0.5L0,-3.0L2.5,-0.5"/>
                </g>
        </g>
        <svg viewBox="0 0 15 15" width="100%" height="30px" preserveAspectRatio="xMaxYMin meet">
         <g id="arrow_out" transform="scale(0.3 0.3)">
          <a xlink:href="Problem_8h__dep__incl_org.svg" target="_base">
           <rect id="button" ry="5" rx="5" y="6" x="6" height="38" width="38"
                fill="#f2f5e9" fill-opacity="0.5" stroke="#606060" stroke-width="1.0"/>
           <path id="arrow"
             d="M 11.500037,31.436501 C 11.940474,20.09759 22.043105,11.32322 32.158766,21.979434 L 37.068811,17.246167 C 37.068811,17.246167 37.088388,32 37.088388,32 L 22.160133,31.978069 C 22.160133,31.978069 26.997745,27.140456 26.997745,27.140456 C 18.528582,18.264221 13.291696,25.230495 11.500037,31.436501 z"
             style="fill:#404040;"/>
          </a>
         </g>
        </svg>
</svg>
