<?xml version="1.0" encoding="UTF-8" standalone="no"?>
<!DOCTYPE svg PUBLIC "-//W3C//DTD SVG 1.1//EN"
 "http://www.w3.org/Graphics/SVG/1.1/DTD/svg11.dtd">
<!-- Generated by graphviz version 2.43.0 (0)
 -->
<!-- Title: Problems/Problem.h Pages: 1 -->
<!--zoomable 218 -->
<svg id="main" version="1.1" xmlns="http://www.w3.org/2000/svg" xmlns:xlink="http://www.w3.org/1999/xlink" xml:space="preserve" onload="init(evt)">
<style type="text/css"><![CDATA[
.edge:hover path { stroke: red; }
.edge:hover polygon { stroke: red; fill: red; }
]]></style>
<script type="text/javascript"><![CDATA[
var edges = document.getElementsByTagName('g');
if (edges && edges.length) {
  for (var i=0;i<edges.length;i++) {
    if (edges[i].id.substr(0,4)=='edge') {
      edges[i].setAttribute('class','edge');
    }
  }
}
]]></script>
        <defs>
                <circle id="rim" cx="0" cy="0" r="7"/>
                <circle id="rim2" cx="0" cy="0" r="3.5"/>
                <g id="zoomPlus">
                        <use xlink:href="#rim" fill="#404040">
                                <set attributeName="fill" to="#808080" begin="zoomplus.mouseover" end="zoomplus.mouseout"/>
                        </use>
                        <path d="M-4,0h8M0,-4v8" fill="none" stroke="white" stroke-width="1.5" pointer-events="none"/>
                </g>
                <g id="zoomMin">
                        <use xlink:href="#rim" fill="#404040">
                                <set attributeName="fill" to="#808080" begin="zoomminus.mouseover" end="zoomminus.mouseout"/>
                        </use>
                        <path d="M-4,0h8" fill="none" stroke="white" stroke-width="1.5" pointer-events="none"/>
                </g>
                <g id="dirArrow">
                        <path fill="none" stroke="white" stroke-width="1.5" d="M0,-3.0v7 M-2.5,-0.5L0,-3.0L2.5,-0.5"/>
                </g>
               <g id="resetDef">
                       <use xlink:href="#rim2" fill="#404040">
                               <set attributeName="fill" to="#808080" begin="reset.mouseover" end="reset.mouseout"/>
                       </use>
               </g>
        </defs>

<script type="text/javascript">
var viewWidth = 1946;
var viewHeight = 218;
var sectionId = 'dynsection-1';
</script>
<script xlink:href="svgpan.js"/>
<svg id="graph" class="graph">
<g id="viewport">
<title>Problems/Problem.h</title>
<polygon fill="white" stroke="transparent" points="-4,4 -4,-214 1942,-214 1942,4 -4,4"/>
<!-- Node1 -->
<g id="node1" class="node">
<title>Node1</title>
<g id="a_node1"><a xlink:title=" ">
<polygon fill="#bfbfbf" stroke="black" points="1062,-190.5 1062,-209.5 1177,-209.5 1177,-190.5 1062,-190.5"/>
<text text-anchor="middle" x="1119.5" y="-197.5" font-family="Helvetica,sans-Serif" font-size="10.00">Problems/Problem.h</text>
</a>
</g>
</g>
<!-- Node2 -->
<g id="node2" class="node">
<title>Node2</title>
<g id="a_node2"><a xlink:href="MultiAgentProblem_8h.html" target="_top" xlink:title=" ">
<polygon fill="white" stroke="black" points="776.5,-134.5 776.5,-153.5 944.5,-153.5 944.5,-134.5 776.5,-134.5"/>
<text text-anchor="middle" x="860.5" y="-141.5" font-family="Helvetica,sans-Serif" font-size="10.00">Problems/MultiAgentProblem.h</text>
</a>
</g>
</g>
<!-- Node1&#45;&gt;Node2 -->
<g id="edge1" class="edge">
<title>Node1&#45;&gt;Node2</title>
<path fill="none" stroke="midnightblue" d="M1068.4,-188.35C1019.45,-178.14 946.55,-162.94 901.35,-153.52"/>
<polygon fill="midnightblue" stroke="midnightblue" points="1067.96,-191.83 1078.46,-190.44 1069.39,-184.98 1067.96,-191.83"/>
</g>
<!-- Node25 -->
<g id="node11" class="node">
<title>Node25</title>
<g id="a_node11"><a xlink:href="SingleAgentProblem_8h.html" target="_top" xlink:title=" ">
<polygon fill="white" stroke="black" points="1333,-134.5 1333,-153.5 1506,-153.5 1506,-134.5 1333,-134.5"/>
<text text-anchor="middle" x="1419.5" y="-141.5" font-family="Helvetica,sans-Serif" font-size="10.00">Problems/SingleAgentProblem.h</text>
</a>
</g>
</g>
<!-- Node1&#45;&gt;Node25 -->
<g id="edge11" class="edge">
<title>Node1&#45;&gt;Node25</title>
<path fill="none" stroke="midnightblue" d="M1176.92,-188.66C1233.62,-178.46 1319.29,-163.04 1372.19,-153.52"/>
<polygon fill="midnightblue" stroke="midnightblue" points="1176.26,-185.23 1167.04,-190.44 1177.5,-192.12 1176.26,-185.23"/>
</g>
<!-- Node8 -->
<g id="node15" class="node">
<title>Node8</title>
<g id="a_node15"><a xlink:href="GeneralAStar_8h.html" target="_top" xlink:title=" ">
<polygon fill="white" stroke="black" points="1040.5,-134.5 1040.5,-153.5 1198.5,-153.5 1198.5,-134.5 1040.5,-134.5"/>
<text text-anchor="middle" x="1119.5" y="-141.5" font-family="Helvetica,sans-Serif" font-size="10.00">Solvers/AStar/GeneralAStar.h</text>
</a>
</g>
</g>
<!-- Node1&#45;&gt;Node8 -->
<g id="edge17" class="edge">
<title>Node1&#45;&gt;Node8</title>
<path fill="none" stroke="midnightblue" d="M1119.5,-179.8C1119.5,-170.91 1119.5,-160.78 1119.5,-153.75"/>
<polygon fill="midnightblue" stroke="midnightblue" points="1116,-180.08 1119.5,-190.08 1123,-180.08 1116,-180.08"/>
</g>
<!-- Node3 -->
<g id="node3" class="node">
<title>Node3</title>
<g id="a_node3"><a xlink:href="ODMultiAgentAStarProblem_8h.html" target="_top" xlink:title=" ">
<polygon fill="white" stroke="red" points="414.5,-67.5 414.5,-97.5 574.5,-97.5 574.5,-67.5 414.5,-67.5"/>
<text text-anchor="start" x="422.5" y="-85.5" font-family="Helvetica,sans-Serif" font-size="10.00">AStarProblems/ODMultiAgent</text>
<text text-anchor="middle" x="494.5" y="-74.5" font-family="Helvetica,sans-Serif" font-size="10.00">AStarProblem.h</text>
</a>
</g>
</g>
<!-- Node2&#45;&gt;Node3 -->
<g id="edge2" class="edge">
<title>Node2&#45;&gt;Node3</title>
<path fill="none" stroke="midnightblue" d="M797.77,-132.82C741.62,-123.7 657.07,-109.97 583.5,-98 580.56,-97.52 577.57,-97.04 574.55,-96.54"/>
<polygon fill="midnightblue" stroke="midnightblue" points="797.48,-136.32 807.91,-134.46 798.6,-129.41 797.48,-136.32"/>
</g>
<!-- Node18 -->
<g id="node4" class="node">
<title>Node18</title>
<g id="a_node4"><a xlink:href="ODMultiAgentAStarProblemWithConstraints_8h.html" target="_top" xlink:title=" ">
<polygon fill="white" stroke="red" points="592.5,-67.5 592.5,-97.5 762.5,-97.5 762.5,-67.5 592.5,-67.5"/>
<text text-anchor="start" x="600.5" y="-85.5" font-family="Helvetica,sans-Serif" font-size="10.00">AStarProblems/ODMultiAgent</text>
<text text-anchor="middle" x="677.5" y="-74.5" font-family="Helvetica,sans-Serif" font-size="10.00">AStarProblemWithConstraints.h</text>
</a>
</g>
</g>
<!-- Node2&#45;&gt;Node18 -->
<g id="edge3" class="edge">
<title>Node2&#45;&gt;Node18</title>
<path fill="none" stroke="midnightblue" d="M824.69,-131.36C794.87,-121.66 752.32,-107.83 720.63,-97.52"/>
<polygon fill="midnightblue" stroke="midnightblue" points="823.69,-134.71 834.28,-134.48 825.85,-128.05 823.69,-134.71"/>
</g>
<!-- Node20 -->
<g id="node5" class="node">
<title>Node20</title>
<g id="a_node5"><a xlink:href="StandardMultiAgentAStarProblem_8h.html" target="_top" xlink:title=" ">
<polygon fill="white" stroke="red" points="780.5,-67.5 780.5,-97.5 940.5,-97.5 940.5,-67.5 780.5,-67.5"/>
<text text-anchor="start" x="788.5" y="-85.5" font-family="Helvetica,sans-Serif" font-size="10.00">AStarProblems/StandardMulti</text>
<text text-anchor="middle" x="860.5" y="-74.5" font-family="Helvetica,sans-Serif" font-size="10.00">AgentAStarProblem.h</text>
</a>
</g>
</g>
<!-- Node2&#45;&gt;Node20 -->
<g id="edge4" class="edge">
<title>Node2&#45;&gt;Node20</title>
<path fill="none" stroke="midnightblue" d="M860.5,-124.23C860.5,-115.59 860.5,-105.5 860.5,-97.52"/>
<polygon fill="midnightblue" stroke="midnightblue" points="857,-124.48 860.5,-134.48 864,-124.48 857,-124.48"/>
</g>
<!-- Node22 -->
<g id="node6" class="node">
<title>Node22</title>
<g id="a_node6"><a xlink:href="StandardMultiAgentAStarProblemWithConstraints_8h.html" target="_top" xlink:title=" ">
<polygon fill="white" stroke="red" points="0,-67.5 0,-97.5 199,-97.5 199,-67.5 0,-67.5"/>
<text text-anchor="start" x="8" y="-85.5" font-family="Helvetica,sans-Serif" font-size="10.00">AStarProblems/StandardMulti</text>
<text text-anchor="middle" x="99.5" y="-74.5" font-family="Helvetica,sans-Serif" font-size="10.00">AgentAStarProblemWithConstraints.h</text>
</a>
</g>
</g>
<!-- Node2&#45;&gt;Node22 -->
<g id="edge5" class="edge">
<title>Node2&#45;&gt;Node22</title>
<path fill="none" stroke="midnightblue" d="M766.25,-138.42C639.17,-131.81 405.91,-118.13 207.5,-98 204.77,-97.72 202,-97.43 199.21,-97.13"/>
<polygon fill="midnightblue" stroke="midnightblue" points="766.17,-141.92 776.34,-138.94 766.53,-134.93 766.17,-141.92"/>
</g>
<!-- Node24 -->
<g id="node7" class="node">
<title>Node24</title>
<g id="a_node7"><a xlink:href="MultiAgentProblem_8cpp.html" target="_top" xlink:title=" ">
<polygon fill="white" stroke="black" points="217,-73 217,-92 396,-92 396,-73 217,-73"/>
<text text-anchor="middle" x="306.5" y="-80" font-family="Helvetica,sans-Serif" font-size="10.00">Problems/MultiAgentProblem.cpp</text>
</a>
</g>
</g>
<!-- Node2&#45;&gt;Node24 -->
<g id="edge6" class="edge">
<title>Node2&#45;&gt;Node24</title>
<path fill="none" stroke="midnightblue" d="M765.95,-134.95C673.82,-126.8 529.85,-113.25 405.5,-98 391.19,-96.25 375.75,-94.1 361.42,-92.01"/>
<polygon fill="midnightblue" stroke="midnightblue" points="765.82,-138.45 776.09,-135.84 766.44,-131.48 765.82,-138.45"/>
</g>
<!-- Node9 -->
<g id="node8" class="node">
<title>Node9</title>
<g id="a_node8"><a xlink:href="ConflictBasedSearch_8h.html" target="_top" xlink:title=" ">
<polygon fill="white" stroke="red" points="997,-67.5 997,-97.5 1142,-97.5 1142,-67.5 997,-67.5"/>
<text text-anchor="start" x="1005" y="-85.5" font-family="Helvetica,sans-Serif" font-size="10.00">Solvers/CBS/ConflictBased</text>
<text text-anchor="middle" x="1069.5" y="-74.5" font-family="Helvetica,sans-Serif" font-size="10.00">Search.h</text>
</a>
</g>
</g>
<!-- Node2&#45;&gt;Node9 -->
<g id="edge7" class="edge">
<title>Node2&#45;&gt;Node9</title>
<path fill="none" stroke="midnightblue" d="M900.07,-131.73C934.18,-122.02 983.58,-107.96 1020.24,-97.52"/>
<polygon fill="midnightblue" stroke="midnightblue" points="899.1,-128.37 890.44,-134.48 901.02,-135.1 899.1,-128.37"/>
</g>
<!-- Node11 -->
<g id="node9" class="node">
<title>Node11</title>
<g id="a_node9"><a xlink:href="SimpleIndependenceDetection_8h.html" target="_top" xlink:title=" ">
<polygon fill="white" stroke="red" points="1034,-0.5 1034,-30.5 1205,-30.5 1205,-0.5 1034,-0.5"/>
<text text-anchor="start" x="1042" y="-18.5" font-family="Helvetica,sans-Serif" font-size="10.00">Solvers/ID/SimpleIndependence</text>
<text text-anchor="middle" x="1119.5" y="-7.5" font-family="Helvetica,sans-Serif" font-size="10.00">Detection.h</text>
</a>
</g>
</g>
<!-- Node2&#45;&gt;Node11 -->
<g id="edge9" class="edge">
<title>Node2&#45;&gt;Node11</title>
<path fill="none" stroke="midnightblue" d="M889.92,-130.09C907.7,-121.81 930.51,-110.34 949.5,-98 967.78,-86.12 968.64,-77.92 987.5,-67 1014.04,-51.63 1046.14,-39.23 1072.03,-30.56"/>
<polygon fill="midnightblue" stroke="midnightblue" points="888.26,-127 880.62,-134.34 891.17,-133.37 888.26,-127"/>
</g>
<!-- Node15 -->
<g id="node10" class="node">
<title>Node15</title>
<g id="a_node10"><a xlink:href="CooperativeAStar_8h.html" target="_top" xlink:title=" ">
<polygon fill="white" stroke="black" points="1198.5,-67.5 1198.5,-97.5 1340.5,-97.5 1340.5,-67.5 1198.5,-67.5"/>
<text text-anchor="start" x="1206.5" y="-85.5" font-family="Helvetica,sans-Serif" font-size="10.00">Solvers/SuboptimalSolver</text>
<text text-anchor="middle" x="1269.5" y="-74.5" font-family="Helvetica,sans-Serif" font-size="10.00">/CooperativeAStar.h</text>
</a>
</g>
</g>
<!-- Node2&#45;&gt;Node15 -->
<g id="edge10" class="edge">
<title>Node2&#45;&gt;Node15</title>
<path fill="none" stroke="midnightblue" d="M929.34,-132.99C1004.02,-122.12 1122.69,-104.86 1198.29,-93.86"/>
<polygon fill="midnightblue" stroke="midnightblue" points="928.49,-129.57 919.1,-134.48 929.5,-136.5 928.49,-129.57"/>
</g>
<!-- Node9&#45;&gt;Node11 -->
<g id="edge8" class="edge">
<title>Node9&#45;&gt;Node11</title>
<path fill="none" stroke="midnightblue" d="M1086.46,-59.45C1093.81,-49.9 1102.19,-39 1108.67,-30.58"/>
<polygon fill="midnightblue" stroke="midnightblue" points="1083.67,-57.34 1080.35,-67.4 1089.22,-61.6 1083.67,-57.34"/>
</g>
<!-- Node25&#45;&gt;Node11 -->
<g id="edge15" class="edge">
<title>Node25&#45;&gt;Node11</title>
<path fill="none" stroke="midnightblue" d="M1408.31,-125.64C1396.04,-108.06 1374.7,-81.47 1349.5,-67 1305.63,-41.81 1250.43,-29.17 1205.1,-22.84"/>
<polygon fill="midnightblue" stroke="midnightblue" points="1405.68,-128 1414.16,-134.34 1411.49,-124.09 1405.68,-128"/>
</g>
<!-- Node25&#45;&gt;Node15 -->
<g id="edge16" class="edge">
<title>Node25&#45;&gt;Node15</title>
<path fill="none" stroke="midnightblue" d="M1388.54,-130.72C1364.19,-121.06 1330.26,-107.6 1304.85,-97.52"/>
<polygon fill="midnightblue" stroke="midnightblue" points="1387.42,-134.04 1398.01,-134.48 1390,-127.53 1387.42,-134.04"/>
</g>
<!-- Node26 -->
<g id="node12" class="node">
<title>Node26</title>
<g id="a_node12"><a xlink:href="SingleAgentAStarProblem_8h.html" target="_top" xlink:title=" ">
<polygon fill="white" stroke="red" points="1396.5,-67.5 1396.5,-97.5 1546.5,-97.5 1546.5,-67.5 1396.5,-67.5"/>
<text text-anchor="start" x="1404.5" y="-85.5" font-family="Helvetica,sans-Serif" font-size="10.00">AStarProblems/SingleAgent</text>
<text text-anchor="middle" x="1471.5" y="-74.5" font-family="Helvetica,sans-Serif" font-size="10.00">AStarProblem.h</text>
</a>
</g>
</g>
<!-- Node25&#45;&gt;Node26 -->
<g id="edge12" class="edge">
<title>Node25&#45;&gt;Node26</title>
<path fill="none" stroke="midnightblue" d="M1433.65,-126.81C1441.66,-117.65 1451.57,-106.3 1459.24,-97.52"/>
<polygon fill="midnightblue" stroke="midnightblue" points="1430.9,-124.64 1426.95,-134.48 1436.17,-129.25 1430.9,-124.64"/>
</g>
<!-- Node28 -->
<g id="node13" class="node">
<title>Node28</title>
<g id="a_node13"><a xlink:href="SingleAgentAStarProblemWithConstraints_8h.html" target="_top" xlink:title=" ">
<polygon fill="white" stroke="red" points="1564.5,-67.5 1564.5,-97.5 1734.5,-97.5 1734.5,-67.5 1564.5,-67.5"/>
<text text-anchor="start" x="1572.5" y="-85.5" font-family="Helvetica,sans-Serif" font-size="10.00">AStarProblems/SingleAgent</text>
<text text-anchor="middle" x="1649.5" y="-74.5" font-family="Helvetica,sans-Serif" font-size="10.00">AStarProblemWithConstraints.h</text>
</a>
</g>
</g>
<!-- Node25&#45;&gt;Node28 -->
<g id="edge13" class="edge">
<title>Node25&#45;&gt;Node28</title>
<path fill="none" stroke="midnightblue" d="M1462.57,-131.86C1500.12,-122.14 1554.77,-108.01 1595.29,-97.52"/>
<polygon fill="midnightblue" stroke="midnightblue" points="1461.26,-128.58 1452.45,-134.48 1463.01,-135.36 1461.26,-128.58"/>
</g>
<!-- Node30 -->
<g id="node14" class="node">
<title>Node30</title>
<g id="a_node14"><a xlink:href="SingleAgentProblem_8cpp.html" target="_top" xlink:title=" ">
<polygon fill="white" stroke="black" points="1753,-73 1753,-92 1938,-92 1938,-73 1753,-73"/>
<text text-anchor="middle" x="1845.5" y="-80" font-family="Helvetica,sans-Serif" font-size="10.00">Problems/SingleAgentProblem.cpp</text>
</a>
</g>
</g>
<!-- Node25&#45;&gt;Node30 -->
<g id="edge14" class="edge">
<title>Node25&#45;&gt;Node30</title>
<path fill="none" stroke="midnightblue" d="M1491.56,-133.06C1557.22,-123.98 1656.89,-110.17 1743.5,-98 1757.23,-96.07 1771.99,-93.98 1785.91,-92"/>
<polygon fill="midnightblue" stroke="midnightblue" points="1490.75,-129.64 1481.32,-134.47 1491.7,-136.57 1490.75,-129.64"/>
</g>
<!-- Node8&#45;&gt;Node9 -->
<g id="edge18" class="edge">
<title>Node8&#45;&gt;Node9</title>
<path fill="none" stroke="midnightblue" d="M1105.9,-126.81C1098.2,-117.65 1088.66,-106.3 1081.28,-97.52"/>
<polygon fill="midnightblue" stroke="midnightblue" points="1103.22,-129.07 1112.34,-134.48 1108.58,-124.57 1103.22,-129.07"/>
</g>
<!-- Node8&#45;&gt;Node11 -->
<g id="edge19" class="edge">
<title>Node8&#45;&gt;Node11</title>
<path fill="none" stroke="midnightblue" d="M1134.95,-126.55C1141.4,-118.57 1148.16,-108.46 1151.5,-98 1155.69,-84.88 1155.34,-80.23 1151.5,-67 1147.62,-53.64 1139.04,-40.43 1131.74,-30.88"/>
<polygon fill="midnightblue" stroke="midnightblue" points="1132.15,-124.44 1128.25,-134.29 1137.44,-129.02 1132.15,-124.44"/>
</g>
</g>
</svg>
        <g id="navigator" transform="translate(0 0)" fill="#404254">
                <rect fill="#f2f5e9" fill-opacity="0.5" stroke="#606060" stroke-width=".5" x="0" y="0" width="60" height="60"/>
                <use id="zoomplus" xlink:href="#zoomPlus" x="17" y="9" onmousedown="handleZoom(evt,'in')"/>
                <use id="zoomminus" xlink:href="#zoomMin" x="42" y="9" onmousedown="handleZoom(evt,'out')"/>
                <use id="reset" xlink:href="#resetDef" x="30" y="36" onmousedown="handleReset()"/>
                <g id="arrowUp" xlink:href="#dirArrow" transform="translate(30 24)" onmousedown="handlePan(0,-1)">
                  <use xlink:href="#rim" fill="#404040">
                        <set attributeName="fill" to="#808080" begin="arrowUp.mouseover" end="arrowUp.mouseout"/>
                  </use>
                  <path fill="none" stroke="white" stroke-width="1.5" d="M0,-3.0v7 M-2.5,-0.5L0,-3.0L2.5,-0.5"/>
                </g>
                <g id="arrowRight" xlink:href="#dirArrow" transform="rotate(90) translate(36 -43)" onmousedown="handlePan(1,0)">
                  <use xlink:href="#rim" fill="#404040">
                        <set attributeName="fill" to="#808080" begin="arrowRight.mouseover" end="arrowRight.mouseout"/>
                  </use>
                  <path fill="none" stroke="white" stroke-width="1.5" d="M0,-3.0v7 M-2.5,-0.5L0,-3.0L2.5,-0.5"/>
                </g>
                <g id="arrowDown" xlink:href="#dirArrow" transform="rotate(180) translate(-30 -48)" onmousedown="handlePan(0,1)">
                  <use xlink:href="#rim" fill="#404040">
                        <set attributeName="fill" to="#808080" begin="arrowDown.mouseover" end="arrowDown.mouseout"/>
                  </use>
                  <path fill="none" stroke="white" stroke-width="1.5" d="M0,-3.0v7 M-2.5,-0.5L0,-3.0L2.5,-0.5"/>
                </g>
                <g id="arrowLeft" xlink:href="#dirArrow" transform="rotate(270) translate(-36 17)" onmousedown="handlePan(-1,0)">
                  <use xlink:href="#rim" fill="#404040">
                        <set attributeName="fill" to="#808080" begin="arrowLeft.mouseover" end="arrowLeft.mouseout"/>
                  </use>
                  <path fill="none" stroke="white" stroke-width="1.5" d="M0,-3.0v7 M-2.5,-0.5L0,-3.0L2.5,-0.5"/>
                </g>
        </g>
        <svg viewBox="0 0 15 15" width="100%" height="30px" preserveAspectRatio="xMaxYMin meet">
         <g id="arrow_out" transform="scale(0.3 0.3)">
          <a xlink:href="Problem_8h__dep__incl_org.svg" target="_base">
           <rect id="button" ry="5" rx="5" y="6" x="6" height="38" width="38"
                fill="#f2f5e9" fill-opacity="0.5" stroke="#606060" stroke-width="1.0"/>
           <path id="arrow"
             d="M 11.500037,31.436501 C 11.940474,20.09759 22.043105,11.32322 32.158766,21.979434 L 37.068811,17.246167 C 37.068811,17.246167 37.088388,32 37.088388,32 L 22.160133,31.978069 C 22.160133,31.978069 26.997745,27.140456 26.997745,27.140456 C 18.528582,18.264221 13.291696,25.230495 11.500037,31.436501 z"
             style="fill:#404040;"/>
          </a>
         </g>
        </svg>
</svg>
