<?xml version="1.0" encoding="UTF-8" standalone="no"?>
<!DOCTYPE svg PUBLIC "-//W3C//DTD SVG 1.1//EN"
 "http://www.w3.org/Graphics/SVG/1.1/DTD/svg11.dtd">
<!-- Generated by graphviz version 2.43.0 (0)
 -->
<!-- Title: Solvers/AStar/ReverseResumableAStar.h Pages: 1 -->
<svg width="1136pt" height="229pt"
 viewBox="0.00 0.00 1136.00 229.00" xmlns="http://www.w3.org/2000/svg" xmlns:xlink="http://www.w3.org/1999/xlink">
<g id="graph0" class="graph" transform="scale(1 1) rotate(0) translate(4 225)">
<title>Solvers/AStar/ReverseResumableAStar.h</title>
<polygon fill="white" stroke="transparent" points="-4,4 -4,-225 1132,-225 1132,4 -4,4"/>
<!-- Node1 -->
<g id="node1" class="node">
<title>Node1</title>
<g id="a_node1"><a xlink:title=" ">
<polygon fill="#bfbfbf" stroke="black" points="812.5,-190.5 812.5,-220.5 991.5,-220.5 991.5,-190.5 812.5,-190.5"/>
<text text-anchor="start" x="820.5" y="-208.5" font-family="Helvetica,sans-Serif" font-size="10.00">Solvers/AStar/ReverseResumable</text>
<text text-anchor="middle" x="902" y="-197.5" font-family="Helvetica,sans-Serif" font-size="10.00">AStar.h</text>
</a>
</g>
</g>
<!-- Node2 -->
<g id="node2" class="node">
<title>Node2</title>
<g id="a_node2"><a xlink:href="SingleAgentAStarProblem_8h.html" target="_top" xlink:title=" ">
<polygon fill="white" stroke="black" points="970,-56.5 970,-86.5 1124,-86.5 1124,-56.5 970,-56.5"/>
<text text-anchor="start" x="978" y="-74.5" font-family="Helvetica,sans-Serif" font-size="10.00">../../AStarProblems</text>
<text text-anchor="middle" x="1047" y="-63.5" font-family="Helvetica,sans-Serif" font-size="10.00">/SingleAgentAStarProblem.h</text>
</a>
</g>
</g>
<!-- Node1&#45;&gt;Node2 -->
<g id="edge1" class="edge">
<title>Node1&#45;&gt;Node2</title>
<path fill="none" stroke="midnightblue" d="M901.74,-190.36C902.17,-172.57 905.5,-142.05 922,-123 934.85,-108.16 952.7,-97.62 970.89,-90.16"/>
<polygon fill="midnightblue" stroke="midnightblue" points="972.32,-93.37 980.41,-86.54 969.82,-86.83 972.32,-93.37"/>
</g>
<!-- Node12 -->
<g id="node6" class="node">
<title>Node12</title>
<g id="a_node6"><a xlink:href="HeuristicManhattan_8h.html" target="_top" xlink:title=" ">
<polygon fill="white" stroke="black" points="599,-123.5 599,-153.5 729,-153.5 729,-123.5 599,-123.5"/>
<text text-anchor="start" x="607" y="-141.5" font-family="Helvetica,sans-Serif" font-size="10.00">../../Heuristics/Heuristic</text>
<text text-anchor="middle" x="664" y="-130.5" font-family="Helvetica,sans-Serif" font-size="10.00">Manhattan.h</text>
</a>
</g>
</g>
<!-- Node1&#45;&gt;Node12 -->
<g id="edge5" class="edge">
<title>Node1&#45;&gt;Node12</title>
<path fill="none" stroke="midnightblue" d="M850.65,-190.48C814.02,-180.47 764.59,-166.97 725.8,-156.38"/>
<polygon fill="midnightblue" stroke="midnightblue" points="726.24,-152.87 715.67,-153.61 724.39,-159.62 726.24,-152.87"/>
</g>
<!-- Node24 -->
<g id="node12" class="node">
<title>Node24</title>
<g id="a_node12"><a xlink:href="Node_8h.html" target="_top" xlink:title=" ">
<polygon fill="white" stroke="black" points="930.5,-129 930.5,-148 981.5,-148 981.5,-129 930.5,-129"/>
<text text-anchor="middle" x="956" y="-136" font-family="Helvetica,sans-Serif" font-size="10.00">Node.h</text>
</a>
</g>
</g>
<!-- Node1&#45;&gt;Node24 -->
<g id="edge18" class="edge">
<title>Node1&#45;&gt;Node24</title>
<path fill="none" stroke="midnightblue" d="M913.72,-190.4C922.14,-180.26 933.51,-166.57 942.34,-155.94"/>
<polygon fill="midnightblue" stroke="midnightblue" points="945.08,-158.12 948.78,-148.19 939.69,-153.65 945.08,-158.12"/>
</g>
<!-- Node3 -->
<g id="node3" class="node">
<title>Node3</title>
<g id="a_node3"><a xlink:href="SingleAgentProblem_8h.html" target="_top" xlink:title=" ">
<polygon fill="white" stroke="red" points="776,-0.5 776,-19.5 958,-19.5 958,-0.5 776,-0.5"/>
<text text-anchor="middle" x="867" y="-7.5" font-family="Helvetica,sans-Serif" font-size="10.00">../Problems/SingleAgentProblem.h</text>
</a>
</g>
</g>
<!-- Node2&#45;&gt;Node3 -->
<g id="edge2" class="edge">
<title>Node2&#45;&gt;Node3</title>
<path fill="none" stroke="midnightblue" d="M1004.34,-56.4C973.37,-46.16 931.95,-32.47 902.72,-22.81"/>
<polygon fill="midnightblue" stroke="midnightblue" points="903.52,-19.39 892.93,-19.57 901.33,-26.03 903.52,-19.39"/>
</g>
<!-- Node9 -->
<g id="node4" class="node">
<title>Node9</title>
<g id="a_node4"><a xlink:href="SingleAgentState_8h.html" target="_top" xlink:title=" ">
<polygon fill="white" stroke="red" points="976,-0.5 976,-19.5 1128,-19.5 1128,-0.5 976,-0.5"/>
<text text-anchor="middle" x="1052" y="-7.5" font-family="Helvetica,sans-Serif" font-size="10.00">../States/SingleAgentState.h</text>
</a>
</g>
</g>
<!-- Node2&#45;&gt;Node9 -->
<g id="edge3" class="edge">
<title>Node2&#45;&gt;Node9</title>
<path fill="none" stroke="midnightblue" d="M1048.18,-56.4C1048.85,-48.47 1049.69,-38.46 1050.42,-29.86"/>
<polygon fill="midnightblue" stroke="midnightblue" points="1053.92,-29.92 1051.27,-19.66 1046.95,-29.33 1053.92,-29.92"/>
</g>
<!-- Node11 -->
<g id="node5" class="node">
<title>Node11</title>
<g id="a_node5"><a xlink:href="AStarProblem_8h.html" target="_top" xlink:title=" ">
<polygon fill="white" stroke="black" points="524,-0.5 524,-19.5 616,-19.5 616,-0.5 524,-0.5"/>
<text text-anchor="middle" x="570" y="-7.5" font-family="Helvetica,sans-Serif" font-size="10.00">AStarProblem.h</text>
</a>
</g>
</g>
<!-- Node2&#45;&gt;Node11 -->
<g id="edge4" class="edge">
<title>Node2&#45;&gt;Node11</title>
<path fill="none" stroke="midnightblue" d="M969.67,-57.27C966.75,-56.83 963.85,-56.4 961,-56 842.27,-39.17 702.58,-24.27 626.46,-16.56"/>
<polygon fill="midnightblue" stroke="midnightblue" points="626.45,-13.04 616.15,-15.52 625.75,-20 626.45,-13.04"/>
</g>
<!-- Node12&#45;&gt;Node2 -->
<g id="edge10" class="edge">
<title>Node12&#45;&gt;Node2</title>
<path fill="none" stroke="midnightblue" d="M729.4,-126.4C792.94,-115.62 889.81,-99.18 959.86,-87.29"/>
<polygon fill="midnightblue" stroke="midnightblue" points="960.72,-90.69 969.99,-85.57 959.55,-83.79 960.72,-90.69"/>
</g>
<!-- Node13 -->
<g id="node7" class="node">
<title>Node13</title>
<g id="a_node7"><a xlink:href="ODMultiAgentAStarProblem_8h.html" target="_top" xlink:title=" ">
<polygon fill="white" stroke="red" points="406,-56.5 406,-86.5 546,-86.5 546,-56.5 406,-56.5"/>
<text text-anchor="start" x="414" y="-74.5" font-family="Helvetica,sans-Serif" font-size="10.00">../AStarProblems/ODMulti</text>
<text text-anchor="middle" x="476" y="-63.5" font-family="Helvetica,sans-Serif" font-size="10.00">AgentAStarProblem.h</text>
</a>
</g>
</g>
<!-- Node12&#45;&gt;Node13 -->
<g id="edge6" class="edge">
<title>Node12&#45;&gt;Node13</title>
<path fill="none" stroke="midnightblue" d="M623.21,-123.4C594.75,-113.56 556.6,-100.37 526.27,-89.88"/>
<polygon fill="midnightblue" stroke="midnightblue" points="527.31,-86.54 516.71,-86.58 525.02,-93.15 527.31,-86.54"/>
</g>
<!-- Node16 -->
<g id="node8" class="node">
<title>Node16</title>
<g id="a_node8"><a xlink:href="ODMultiAgentAStarProblemWithConstraints_8h.html" target="_top" xlink:title=" ">
<polygon fill="white" stroke="red" points="564.5,-56.5 564.5,-86.5 763.5,-86.5 763.5,-56.5 564.5,-56.5"/>
<text text-anchor="start" x="572.5" y="-74.5" font-family="Helvetica,sans-Serif" font-size="10.00">../AStarProblems/ODMulti</text>
<text text-anchor="middle" x="664" y="-63.5" font-family="Helvetica,sans-Serif" font-size="10.00">AgentAStarProblemWithConstraints.h</text>
</a>
</g>
</g>
<!-- Node12&#45;&gt;Node16 -->
<g id="edge8" class="edge">
<title>Node12&#45;&gt;Node16</title>
<path fill="none" stroke="midnightblue" d="M664,-123.4C664,-115.64 664,-105.81 664,-96.86"/>
<polygon fill="midnightblue" stroke="midnightblue" points="667.5,-96.58 664,-86.58 660.5,-96.58 667.5,-96.58"/>
</g>
<!-- Node18 -->
<g id="node9" class="node">
<title>Node18</title>
<g id="a_node9"><a xlink:href="SingleAgentAStarProblemWithConstraints_8h.html" target="_top" xlink:title=" ">
<polygon fill="white" stroke="red" points="782,-56.5 782,-86.5 952,-86.5 952,-56.5 782,-56.5"/>
<text text-anchor="start" x="790" y="-74.5" font-family="Helvetica,sans-Serif" font-size="10.00">../AStarProblems/SingleAgent</text>
<text text-anchor="middle" x="867" y="-63.5" font-family="Helvetica,sans-Serif" font-size="10.00">AStarProblemWithConstraints.h</text>
</a>
</g>
</g>
<!-- Node12&#45;&gt;Node18 -->
<g id="edge11" class="edge">
<title>Node12&#45;&gt;Node18</title>
<path fill="none" stroke="midnightblue" d="M708.05,-123.4C738.91,-113.52 780.33,-100.25 813.15,-89.74"/>
<polygon fill="midnightblue" stroke="midnightblue" points="814.58,-92.96 823.04,-86.58 812.45,-86.29 814.58,-92.96"/>
</g>
<!-- Node20 -->
<g id="node10" class="node">
<title>Node20</title>
<g id="a_node10"><a xlink:href="StandardMultiAgentAStarProblem_8h.html" target="_top" xlink:title=" ">
<polygon fill="white" stroke="red" points="0,-56.5 0,-86.5 146,-86.5 146,-56.5 0,-56.5"/>
<text text-anchor="start" x="8" y="-74.5" font-family="Helvetica,sans-Serif" font-size="10.00">../AStarProblems/Standard</text>
<text text-anchor="middle" x="73" y="-63.5" font-family="Helvetica,sans-Serif" font-size="10.00">MultiAgentAStarProblem.h</text>
</a>
</g>
</g>
<!-- Node12&#45;&gt;Node20 -->
<g id="edge14" class="edge">
<title>Node12&#45;&gt;Node20</title>
<path fill="none" stroke="midnightblue" d="M598.73,-132.62C503.69,-125.17 321.46,-109.54 156.6,-87.16"/>
<polygon fill="midnightblue" stroke="midnightblue" points="156.66,-83.63 146.27,-85.74 155.71,-90.57 156.66,-83.63"/>
</g>
<!-- Node22 -->
<g id="node11" class="node">
<title>Node22</title>
<g id="a_node11"><a xlink:href="StandardMultiAgentAStarProblemWithConstraints_8h.html" target="_top" xlink:title=" ">
<polygon fill="white" stroke="red" points="164,-56.5 164,-86.5 388,-86.5 388,-56.5 164,-56.5"/>
<text text-anchor="start" x="172" y="-74.5" font-family="Helvetica,sans-Serif" font-size="10.00">../AStarProblems/Standard</text>
<text text-anchor="middle" x="276" y="-63.5" font-family="Helvetica,sans-Serif" font-size="10.00">MultiAgentAStarProblemWithConstraints.h</text>
</a>
</g>
</g>
<!-- Node12&#45;&gt;Node22 -->
<g id="edge16" class="edge">
<title>Node12&#45;&gt;Node22</title>
<path fill="none" stroke="midnightblue" d="M598.62,-126.55C535.94,-116.05 440.66,-100.08 369.87,-88.23"/>
<polygon fill="midnightblue" stroke="midnightblue" points="370.05,-84.71 359.61,-86.51 368.9,-91.61 370.05,-84.71"/>
</g>
<!-- Node13&#45;&gt;Node11 -->
<g id="edge7" class="edge">
<title>Node13&#45;&gt;Node11</title>
<path fill="none" stroke="midnightblue" d="M498.28,-56.4C513.2,-46.95 532.78,-34.56 547.71,-25.11"/>
<polygon fill="midnightblue" stroke="midnightblue" points="549.74,-27.96 556.32,-19.66 546,-22.05 549.74,-27.96"/>
</g>
<!-- Node16&#45;&gt;Node11 -->
<g id="edge9" class="edge">
<title>Node16&#45;&gt;Node11</title>
<path fill="none" stroke="midnightblue" d="M641.72,-56.4C626.8,-46.95 607.22,-34.56 592.29,-25.11"/>
<polygon fill="midnightblue" stroke="midnightblue" points="594,-22.05 583.68,-19.66 590.26,-27.96 594,-22.05"/>
</g>
<!-- Node18&#45;&gt;Node3 -->
<g id="edge12" class="edge">
<title>Node18&#45;&gt;Node3</title>
<path fill="none" stroke="midnightblue" d="M867,-56.4C867,-48.47 867,-38.46 867,-29.86"/>
<polygon fill="midnightblue" stroke="midnightblue" points="870.5,-29.66 867,-19.66 863.5,-29.66 870.5,-29.66"/>
</g>
<!-- Node18&#45;&gt;Node11 -->
<g id="edge13" class="edge">
<title>Node18&#45;&gt;Node11</title>
<path fill="none" stroke="midnightblue" d="M796.99,-56.47C743.52,-45.76 670.98,-31.23 622.44,-21.51"/>
<polygon fill="midnightblue" stroke="midnightblue" points="622.95,-18.04 612.46,-19.51 621.58,-24.9 622.95,-18.04"/>
</g>
<!-- Node20&#45;&gt;Node11 -->
<g id="edge15" class="edge">
<title>Node20&#45;&gt;Node11</title>
<path fill="none" stroke="midnightblue" d="M146.28,-57.29C149.22,-56.84 152.14,-56.41 155,-56 282.71,-37.8 433.47,-23.16 513.48,-15.92"/>
<polygon fill="midnightblue" stroke="midnightblue" points="514.17,-19.37 523.82,-14.99 513.54,-12.4 514.17,-19.37"/>
</g>
<!-- Node22&#45;&gt;Node11 -->
<g id="edge17" class="edge">
<title>Node22&#45;&gt;Node11</title>
<path fill="none" stroke="midnightblue" d="M345.3,-56.47C398.24,-45.76 470.04,-31.23 518.09,-21.51"/>
<polygon fill="midnightblue" stroke="midnightblue" points="518.86,-24.92 527.97,-19.51 517.47,-18.06 518.86,-24.92"/>
</g>
</g>
</svg>
