<?xml version="1.0" encoding="UTF-8" standalone="no"?>
<!DOCTYPE svg PUBLIC "-//W3C//DTD SVG 1.1//EN"
 "http://www.w3.org/Graphics/SVG/1.1/DTD/svg11.dtd">
<!-- Generated by graphviz version 2.43.0 (0)
 -->
<!-- Title: ReverseResumableAStar.cpp Pages: 1 -->
<svg width="1132pt" height="475pt"
 viewBox="0.00 0.00 1132.00 475.00" xmlns="http://www.w3.org/2000/svg" xmlns:xlink="http://www.w3.org/1999/xlink">
<g id="graph0" class="graph" transform="scale(1 1) rotate(0) translate(4 471)">
<title>ReverseResumableAStar.cpp</title>
<polygon fill="white" stroke="transparent" points="-4,4 -4,-471 1128,-471 1128,4 -4,4"/>
<!-- Node1 -->
<g id="node1" class="node">
<title>Node1</title>
<g id="a_node1"><a xlink:title=" ">
<polygon fill="#bfbfbf" stroke="black" points="817.5,-447.5 817.5,-466.5 974.5,-466.5 974.5,-447.5 817.5,-447.5"/>
<text text-anchor="middle" x="896" y="-454.5" font-family="Helvetica,sans-Serif" font-size="10.00">ReverseResumableAStar.cpp</text>
</a>
</g>
</g>
<!-- Node2 -->
<g id="node2" class="node">
<title>Node2</title>
<g id="a_node2"><a xlink:href="ReverseResumableAStar_8h.html" target="_top" xlink:title=" ">
<polygon fill="white" stroke="black" points="823,-391.5 823,-410.5 969,-410.5 969,-391.5 823,-391.5"/>
<text text-anchor="middle" x="896" y="-398.5" font-family="Helvetica,sans-Serif" font-size="10.00">ReverseResumableAStar.h</text>
</a>
</g>
</g>
<!-- Node1&#45;&gt;Node2 -->
<g id="edge1" class="edge">
<title>Node1&#45;&gt;Node2</title>
<path fill="none" stroke="midnightblue" d="M896,-447.08C896,-440.01 896,-429.86 896,-420.99"/>
<polygon fill="midnightblue" stroke="midnightblue" points="899.5,-420.75 896,-410.75 892.5,-420.75 899.5,-420.75"/>
</g>
<!-- Node3 -->
<g id="node3" class="node">
<title>Node3</title>
<g id="a_node3"><a xlink:href="SingleAgentAStarProblem_8h.html" target="_top" xlink:title=" ">
<polygon fill="white" stroke="black" points="970,-257.5 970,-287.5 1124,-287.5 1124,-257.5 970,-257.5"/>
<text text-anchor="start" x="978" y="-275.5" font-family="Helvetica,sans-Serif" font-size="10.00">../../AStarProblems</text>
<text text-anchor="middle" x="1047" y="-264.5" font-family="Helvetica,sans-Serif" font-size="10.00">/SingleAgentAStarProblem.h</text>
</a>
</g>
</g>
<!-- Node2&#45;&gt;Node3 -->
<g id="edge2" class="edge">
<title>Node2&#45;&gt;Node3</title>
<path fill="none" stroke="midnightblue" d="M895.86,-391.3C896.07,-375.82 898.71,-343.32 916,-324 929.35,-309.08 947.62,-298.54 966.27,-291.1"/>
<polygon fill="midnightblue" stroke="midnightblue" points="967.58,-294.35 975.74,-287.59 965.14,-287.79 967.58,-294.35"/>
</g>
<!-- Node13 -->
<g id="node13" class="node">
<title>Node13</title>
<g id="a_node13"><a xlink:href="HeuristicManhattan_8h.html" target="_top" xlink:title=" ">
<polygon fill="white" stroke="black" points="587,-324.5 587,-354.5 717,-354.5 717,-324.5 587,-324.5"/>
<text text-anchor="start" x="595" y="-342.5" font-family="Helvetica,sans-Serif" font-size="10.00">../../Heuristics/Heuristic</text>
<text text-anchor="middle" x="652" y="-331.5" font-family="Helvetica,sans-Serif" font-size="10.00">Manhattan.h</text>
</a>
</g>
</g>
<!-- Node2&#45;&gt;Node13 -->
<g id="edge12" class="edge">
<title>Node2&#45;&gt;Node13</title>
<path fill="none" stroke="midnightblue" d="M861.04,-391.48C824.21,-382.49 765.3,-368.13 719.39,-356.93"/>
<polygon fill="midnightblue" stroke="midnightblue" points="720.05,-353.49 709.51,-354.52 718.39,-360.29 720.05,-353.49"/>
</g>
<!-- Node25 -->
<g id="node25" class="node">
<title>Node25</title>
<g id="a_node25"><a xlink:href="Node_8h.html" target="_top" xlink:title=" ">
<polygon fill="white" stroke="black" points="924.5,-330 924.5,-349 975.5,-349 975.5,-330 924.5,-330"/>
<text text-anchor="middle" x="950" y="-337" font-family="Helvetica,sans-Serif" font-size="10.00">Node.h</text>
</a>
</g>
</g>
<!-- Node2&#45;&gt;Node25 -->
<g id="edge40" class="edge">
<title>Node2&#45;&gt;Node25</title>
<path fill="none" stroke="midnightblue" d="M903.74,-391.48C912,-382.37 925.28,-367.74 935.49,-356.48"/>
<polygon fill="midnightblue" stroke="midnightblue" points="938.15,-358.77 942.28,-349.01 932.97,-354.06 938.15,-358.77"/>
</g>
<!-- Node4 -->
<g id="node4" class="node">
<title>Node4</title>
<g id="a_node4"><a xlink:href="SingleAgentProblem_8h.html" target="_top" xlink:title=" ">
<polygon fill="white" stroke="black" points="835,-196 835,-215 1017,-215 1017,-196 835,-196"/>
<text text-anchor="middle" x="926" y="-203" font-family="Helvetica,sans-Serif" font-size="10.00">../Problems/SingleAgentProblem.h</text>
</a>
</g>
</g>
<!-- Node3&#45;&gt;Node4 -->
<g id="edge3" class="edge">
<title>Node3&#45;&gt;Node4</title>
<path fill="none" stroke="midnightblue" d="M1020.74,-257.4C999.98,-246.24 971.2,-230.78 950.82,-219.83"/>
<polygon fill="midnightblue" stroke="midnightblue" points="952.3,-216.66 941.84,-215.01 948.99,-222.82 952.3,-216.66"/>
</g>
<!-- Node10 -->
<g id="node10" class="node">
<title>Node10</title>
<g id="a_node10"><a xlink:href="SingleAgentState_8h.html" target="_top" xlink:title=" ">
<polygon fill="white" stroke="black" points="934,-129 934,-148 1086,-148 1086,-129 934,-129"/>
<text text-anchor="middle" x="1010" y="-136" font-family="Helvetica,sans-Serif" font-size="10.00">../States/SingleAgentState.h</text>
</a>
</g>
</g>
<!-- Node3&#45;&gt;Node10 -->
<g id="edge9" class="edge">
<title>Node3&#45;&gt;Node10</title>
<path fill="none" stroke="midnightblue" d="M1043.59,-257.3C1039.62,-240.99 1032.73,-213.45 1026,-190 1022.9,-179.21 1019.12,-167.23 1016.01,-157.64"/>
<polygon fill="midnightblue" stroke="midnightblue" points="1019.3,-156.45 1012.86,-148.03 1012.65,-158.63 1019.3,-156.45"/>
</g>
<!-- Node12 -->
<g id="node12" class="node">
<title>Node12</title>
<g id="a_node12"><a xlink:href="AStarProblem_8h.html" target="_top" xlink:title=" ">
<polygon fill="white" stroke="black" points="512,-196 512,-215 604,-215 604,-196 512,-196"/>
<text text-anchor="middle" x="558" y="-203" font-family="Helvetica,sans-Serif" font-size="10.00">AStarProblem.h</text>
</a>
</g>
</g>
<!-- Node3&#45;&gt;Node12 -->
<g id="edge11" class="edge">
<title>Node3&#45;&gt;Node12</title>
<path fill="none" stroke="midnightblue" d="M969.68,-258.22C966.75,-257.8 963.85,-257.39 961,-257 806.92,-236.06 765.97,-248.9 613,-221 607.79,-220.05 602.35,-218.86 597,-217.58"/>
<polygon fill="midnightblue" stroke="midnightblue" points="597.48,-214.09 586.93,-215.02 595.76,-220.87 597.48,-214.09"/>
</g>
<!-- Node5 -->
<g id="node5" class="node">
<title>Node5</title>
<g id="a_node5"><a xlink:href="Problem_8h.html" target="_top" xlink:title=" ">
<polygon fill="white" stroke="black" points="405,-129 405,-148 471,-148 471,-129 405,-129"/>
<text text-anchor="middle" x="438" y="-136" font-family="Helvetica,sans-Serif" font-size="10.00">Problem.h</text>
</a>
</g>
</g>
<!-- Node4&#45;&gt;Node5 -->
<g id="edge4" class="edge">
<title>Node4&#45;&gt;Node5</title>
<path fill="none" stroke="midnightblue" d="M861.95,-195.97C760.94,-182.51 567.29,-156.72 481.15,-145.25"/>
<polygon fill="midnightblue" stroke="midnightblue" points="481.57,-141.77 471.19,-143.92 480.64,-148.71 481.57,-141.77"/>
</g>
<!-- Node6 -->
<g id="node6" class="node">
<title>Node6</title>
<g id="a_node6"><a xlink:href="ConstraintsSet_8h.html" target="_top" xlink:title=" ">
<polygon fill="white" stroke="black" points="293,-56.5 293,-86.5 433,-86.5 433,-56.5 293,-56.5"/>
<text text-anchor="start" x="301" y="-74.5" font-family="Helvetica,sans-Serif" font-size="10.00">../Constraints/Constraints</text>
<text text-anchor="middle" x="363" y="-63.5" font-family="Helvetica,sans-Serif" font-size="10.00">Set.h</text>
</a>
</g>
</g>
<!-- Node5&#45;&gt;Node6 -->
<g id="edge5" class="edge">
<title>Node5&#45;&gt;Node6</title>
<path fill="none" stroke="midnightblue" d="M427.89,-128.73C417.46,-119.7 400.82,-105.27 387,-93.3"/>
<polygon fill="midnightblue" stroke="midnightblue" points="389.11,-90.49 379.26,-86.59 384.52,-95.78 389.11,-90.49"/>
</g>
<!-- Node9 -->
<g id="node9" class="node">
<title>Node9</title>
<g id="a_node9"><a xlink:href="Graph_8h.html" target="_top" xlink:title=" ">
<polygon fill="white" stroke="black" points="451,-62 451,-81 577,-81 577,-62 451,-62"/>
<text text-anchor="middle" x="514" y="-69" font-family="Helvetica,sans-Serif" font-size="10.00">../GraphParser/Graph.h</text>
</a>
</g>
</g>
<!-- Node5&#45;&gt;Node9 -->
<g id="edge8" class="edge">
<title>Node5&#45;&gt;Node9</title>
<path fill="none" stroke="midnightblue" d="M448.25,-128.73C460.44,-118.31 481.02,-100.71 495.91,-87.97"/>
<polygon fill="midnightblue" stroke="midnightblue" points="498.59,-90.29 503.91,-81.13 494.04,-84.97 498.59,-90.29"/>
</g>
<!-- Node7 -->
<g id="node7" class="node">
<title>Node7</title>
<g id="a_node7"><a xlink:href="EdgeConstraint_8h.html" target="_top" xlink:title=" ">
<polygon fill="white" stroke="black" points="252,-0.5 252,-19.5 352,-19.5 352,-0.5 252,-0.5"/>
<text text-anchor="middle" x="302" y="-7.5" font-family="Helvetica,sans-Serif" font-size="10.00">EdgeConstraint.h</text>
</a>
</g>
</g>
<!-- Node6&#45;&gt;Node7 -->
<g id="edge6" class="edge">
<title>Node6&#45;&gt;Node7</title>
<path fill="none" stroke="midnightblue" d="M348.54,-56.4C339.41,-47.49 327.58,-35.95 318.14,-26.74"/>
<polygon fill="midnightblue" stroke="midnightblue" points="320.48,-24.13 310.88,-19.66 315.59,-29.15 320.48,-24.13"/>
</g>
<!-- Node8 -->
<g id="node8" class="node">
<title>Node8</title>
<g id="a_node8"><a xlink:href="VertexConstraint_8h.html" target="_top" xlink:title=" ">
<polygon fill="white" stroke="black" points="370.5,-0.5 370.5,-19.5 477.5,-19.5 477.5,-0.5 370.5,-0.5"/>
<text text-anchor="middle" x="424" y="-7.5" font-family="Helvetica,sans-Serif" font-size="10.00">VertexConstraint.h</text>
</a>
</g>
</g>
<!-- Node6&#45;&gt;Node8 -->
<g id="edge7" class="edge">
<title>Node6&#45;&gt;Node8</title>
<path fill="none" stroke="midnightblue" d="M377.46,-56.4C386.59,-47.49 398.42,-35.95 407.86,-26.74"/>
<polygon fill="midnightblue" stroke="midnightblue" points="410.41,-29.15 415.12,-19.66 405.52,-24.13 410.41,-29.15"/>
</g>
<!-- Node11 -->
<g id="node11" class="node">
<title>Node11</title>
<g id="a_node11"><a xlink:href="State_8h.html" target="_top" xlink:title=" ">
<polygon fill="white" stroke="black" points="696.5,-62 696.5,-81 747.5,-81 747.5,-62 696.5,-62"/>
<text text-anchor="middle" x="722" y="-69" font-family="Helvetica,sans-Serif" font-size="10.00">State.h</text>
</a>
</g>
</g>
<!-- Node10&#45;&gt;Node11 -->
<g id="edge10" class="edge">
<title>Node10&#45;&gt;Node11</title>
<path fill="none" stroke="midnightblue" d="M972.05,-128.94C916.09,-116.3 812.17,-92.85 757.59,-80.53"/>
<polygon fill="midnightblue" stroke="midnightblue" points="758.2,-77.08 747.68,-78.3 756.66,-83.91 758.2,-77.08"/>
</g>
<!-- Node13&#45;&gt;Node3 -->
<g id="edge24" class="edge">
<title>Node13&#45;&gt;Node3</title>
<path fill="none" stroke="midnightblue" d="M717.12,-327.95C777.41,-318.17 869.84,-303.11 959.57,-288.23"/>
<polygon fill="midnightblue" stroke="midnightblue" points="960.36,-291.65 969.65,-286.56 959.21,-284.75 960.36,-291.65"/>
</g>
<!-- Node14 -->
<g id="node14" class="node">
<title>Node14</title>
<g id="a_node14"><a xlink:href="ODMultiAgentAStarProblem_8h.html" target="_top" xlink:title=" ">
<polygon fill="white" stroke="black" points="0,-257.5 0,-287.5 140,-287.5 140,-257.5 0,-257.5"/>
<text text-anchor="start" x="8" y="-275.5" font-family="Helvetica,sans-Serif" font-size="10.00">../AStarProblems/ODMulti</text>
<text text-anchor="middle" x="70" y="-264.5" font-family="Helvetica,sans-Serif" font-size="10.00">AgentAStarProblem.h</text>
</a>
</g>
</g>
<!-- Node13&#45;&gt;Node14 -->
<g id="edge13" class="edge">
<title>Node13&#45;&gt;Node14</title>
<path fill="none" stroke="midnightblue" d="M586.68,-333.65C492.52,-326.28 312.97,-310.82 150.35,-288.12"/>
<polygon fill="midnightblue" stroke="midnightblue" points="150.55,-284.61 140.16,-286.68 149.58,-291.55 150.55,-284.61"/>
</g>
<!-- Node17 -->
<g id="node17" class="node">
<title>Node17</title>
<g id="a_node17"><a xlink:href="ODMultiAgentAStarProblemWithConstraints_8h.html" target="_top" xlink:title=" ">
<polygon fill="white" stroke="black" points="158.5,-257.5 158.5,-287.5 357.5,-287.5 357.5,-257.5 158.5,-257.5"/>
<text text-anchor="start" x="166.5" y="-275.5" font-family="Helvetica,sans-Serif" font-size="10.00">../AStarProblems/ODMulti</text>
<text text-anchor="middle" x="258" y="-264.5" font-family="Helvetica,sans-Serif" font-size="10.00">AgentAStarProblemWithConstraints.h</text>
</a>
</g>
</g>
<!-- Node13&#45;&gt;Node17 -->
<g id="edge19" class="edge">
<title>Node13&#45;&gt;Node17</title>
<path fill="none" stroke="midnightblue" d="M586.94,-327.77C523.27,-317.26 425.57,-301.15 353.18,-289.2"/>
<polygon fill="midnightblue" stroke="midnightblue" points="353.57,-285.72 343.14,-287.55 352.43,-292.63 353.57,-285.72"/>
</g>
<!-- Node19 -->
<g id="node19" class="node">
<title>Node19</title>
<g id="a_node19"><a xlink:href="SingleAgentAStarProblemWithConstraints_8h.html" target="_top" xlink:title=" ">
<polygon fill="white" stroke="black" points="782,-257.5 782,-287.5 952,-287.5 952,-257.5 782,-257.5"/>
<text text-anchor="start" x="790" y="-275.5" font-family="Helvetica,sans-Serif" font-size="10.00">../AStarProblems/SingleAgent</text>
<text text-anchor="middle" x="867" y="-264.5" font-family="Helvetica,sans-Serif" font-size="10.00">AStarProblemWithConstraints.h</text>
</a>
</g>
</g>
<!-- Node13&#45;&gt;Node19 -->
<g id="edge25" class="edge">
<title>Node13&#45;&gt;Node19</title>
<path fill="none" stroke="midnightblue" d="M698.39,-324.48C731.34,-314.51 775.75,-301.09 810.73,-290.51"/>
<polygon fill="midnightblue" stroke="midnightblue" points="811.77,-293.86 820.33,-287.61 809.74,-287.15 811.77,-293.86"/>
</g>
<!-- Node21 -->
<g id="node21" class="node">
<title>Node21</title>
<g id="a_node21"><a xlink:href="StandardMultiAgentAStarProblem_8h.html" target="_top" xlink:title=" ">
<polygon fill="white" stroke="black" points="376,-257.5 376,-287.5 522,-287.5 522,-257.5 376,-257.5"/>
<text text-anchor="start" x="384" y="-275.5" font-family="Helvetica,sans-Serif" font-size="10.00">../AStarProblems/Standard</text>
<text text-anchor="middle" x="449" y="-264.5" font-family="Helvetica,sans-Serif" font-size="10.00">MultiAgentAStarProblem.h</text>
</a>
</g>
</g>
<!-- Node13&#45;&gt;Node21 -->
<g id="edge30" class="edge">
<title>Node13&#45;&gt;Node21</title>
<path fill="none" stroke="midnightblue" d="M607.95,-324.4C577.09,-314.52 535.67,-301.25 502.85,-290.74"/>
<polygon fill="midnightblue" stroke="midnightblue" points="503.55,-287.29 492.96,-287.58 501.42,-293.96 503.55,-287.29"/>
</g>
<!-- Node23 -->
<g id="node23" class="node">
<title>Node23</title>
<g id="a_node23"><a xlink:href="StandardMultiAgentAStarProblemWithConstraints_8h.html" target="_top" xlink:title=" ">
<polygon fill="white" stroke="black" points="540,-257.5 540,-287.5 764,-287.5 764,-257.5 540,-257.5"/>
<text text-anchor="start" x="548" y="-275.5" font-family="Helvetica,sans-Serif" font-size="10.00">../AStarProblems/Standard</text>
<text text-anchor="middle" x="652" y="-264.5" font-family="Helvetica,sans-Serif" font-size="10.00">MultiAgentAStarProblemWithConstraints.h</text>
</a>
</g>
</g>
<!-- Node13&#45;&gt;Node23 -->
<g id="edge35" class="edge">
<title>Node13&#45;&gt;Node23</title>
<path fill="none" stroke="midnightblue" d="M652,-324.4C652,-316.64 652,-306.81 652,-297.86"/>
<polygon fill="midnightblue" stroke="midnightblue" points="655.5,-297.58 652,-287.58 648.5,-297.58 655.5,-297.58"/>
</g>
<!-- Node14&#45;&gt;Node12 -->
<g id="edge18" class="edge">
<title>Node14&#45;&gt;Node12</title>
<path fill="none" stroke="midnightblue" d="M140.17,-258.36C143.15,-257.89 146.1,-257.43 149,-257 288.82,-236.23 324.92,-239.89 465,-221 476.89,-219.4 489.62,-217.52 501.71,-215.66"/>
<polygon fill="midnightblue" stroke="midnightblue" points="502.35,-219.1 511.7,-214.1 501.28,-212.18 502.35,-219.1"/>
</g>
<!-- Node15 -->
<g id="node15" class="node">
<title>Node15</title>
<g id="a_node15"><a xlink:href="MultiAgentProblem_8h.html" target="_top" xlink:title=" ">
<polygon fill="white" stroke="black" points="279.5,-196 279.5,-215 456.5,-215 456.5,-196 279.5,-196"/>
<text text-anchor="middle" x="368" y="-203" font-family="Helvetica,sans-Serif" font-size="10.00">../Problems/MultiAgentProblem.h</text>
</a>
</g>
</g>
<!-- Node14&#45;&gt;Node15 -->
<g id="edge14" class="edge">
<title>Node14&#45;&gt;Node15</title>
<path fill="none" stroke="midnightblue" d="M134.29,-257.48C189.68,-245.4 268.45,-228.21 318.89,-217.21"/>
<polygon fill="midnightblue" stroke="midnightblue" points="319.88,-220.58 328.9,-215.03 318.38,-213.74 319.88,-220.58"/>
</g>
<!-- Node16 -->
<g id="node16" class="node">
<title>Node16</title>
<g id="a_node16"><a xlink:href="ODMultiAgentState_8h.html" target="_top" xlink:title=" ">
<polygon fill="white" stroke="black" points="102,-129 102,-148 264,-148 264,-129 102,-129"/>
<text text-anchor="middle" x="183" y="-136" font-family="Helvetica,sans-Serif" font-size="10.00">../States/ODMultiAgentState.h</text>
</a>
</g>
</g>
<!-- Node14&#45;&gt;Node16 -->
<g id="edge16" class="edge">
<title>Node14&#45;&gt;Node16</title>
<path fill="none" stroke="midnightblue" d="M71.18,-257.36C73.29,-239.85 79.12,-209.89 95,-190 108.85,-172.65 130.39,-160.14 148.69,-151.92"/>
<polygon fill="midnightblue" stroke="midnightblue" points="150.08,-155.13 157.91,-148 147.34,-148.69 150.08,-155.13"/>
</g>
<!-- Node15&#45;&gt;Node5 -->
<g id="edge15" class="edge">
<title>Node15&#45;&gt;Node5</title>
<path fill="none" stroke="midnightblue" d="M377.44,-195.73C388.67,-185.31 407.62,-167.71 421.34,-154.97"/>
<polygon fill="midnightblue" stroke="midnightblue" points="423.76,-157.5 428.71,-148.13 419,-152.37 423.76,-157.5"/>
</g>
<!-- Node16&#45;&gt;Node11 -->
<g id="edge17" class="edge">
<title>Node16&#45;&gt;Node11</title>
<path fill="none" stroke="midnightblue" d="M253.74,-128.97C370.25,-114.92 598.34,-87.41 686.26,-76.81"/>
<polygon fill="midnightblue" stroke="midnightblue" points="686.76,-80.28 696.27,-75.6 685.92,-73.33 686.76,-80.28"/>
</g>
<!-- Node17&#45;&gt;Node12 -->
<g id="edge23" class="edge">
<title>Node17&#45;&gt;Node12</title>
<path fill="none" stroke="midnightblue" d="M322.73,-257.48C378.48,-245.4 457.78,-228.21 508.56,-217.21"/>
<polygon fill="midnightblue" stroke="midnightblue" points="509.6,-220.57 518.64,-215.03 508.12,-213.73 509.6,-220.57"/>
</g>
<!-- Node17&#45;&gt;Node15 -->
<g id="edge20" class="edge">
<title>Node17&#45;&gt;Node15</title>
<path fill="none" stroke="midnightblue" d="M281.87,-257.4C300.57,-246.34 326.44,-231.06 344.93,-220.13"/>
<polygon fill="midnightblue" stroke="midnightblue" points="346.77,-223.11 353.6,-215.01 343.21,-217.08 346.77,-223.11"/>
</g>
<!-- Node18 -->
<g id="node18" class="node">
<title>Node18</title>
<g id="a_node18"><a xlink:href="ODMultiAgentSpaceTimeState_8h.html" target="_top" xlink:title=" ">
<polygon fill="white" stroke="black" points="104.5,-190.5 104.5,-220.5 261.5,-220.5 261.5,-190.5 104.5,-190.5"/>
<text text-anchor="start" x="112.5" y="-208.5" font-family="Helvetica,sans-Serif" font-size="10.00">../States/ODMultiAgentSpace</text>
<text text-anchor="middle" x="183" y="-197.5" font-family="Helvetica,sans-Serif" font-size="10.00">TimeState.h</text>
</a>
</g>
</g>
<!-- Node17&#45;&gt;Node18 -->
<g id="edge21" class="edge">
<title>Node17&#45;&gt;Node18</title>
<path fill="none" stroke="midnightblue" d="M241.73,-257.4C231.6,-248.62 218.4,-237.18 207.08,-227.37"/>
<polygon fill="midnightblue" stroke="midnightblue" points="209.09,-224.48 199.24,-220.58 204.51,-229.77 209.09,-224.48"/>
</g>
<!-- Node18&#45;&gt;Node16 -->
<g id="edge22" class="edge">
<title>Node18&#45;&gt;Node16</title>
<path fill="none" stroke="midnightblue" d="M183,-190.4C183,-181.06 183,-168.71 183,-158.52"/>
<polygon fill="midnightblue" stroke="midnightblue" points="186.5,-158.19 183,-148.19 179.5,-158.19 186.5,-158.19"/>
</g>
<!-- Node19&#45;&gt;Node4 -->
<g id="edge26" class="edge">
<title>Node19&#45;&gt;Node4</title>
<path fill="none" stroke="midnightblue" d="M879.8,-257.4C889.09,-247.16 901.68,-233.3 911.37,-222.62"/>
<polygon fill="midnightblue" stroke="midnightblue" points="913.98,-224.95 918.11,-215.19 908.8,-220.25 913.98,-224.95"/>
</g>
<!-- Node19&#45;&gt;Node12 -->
<g id="edge29" class="edge">
<title>Node19&#45;&gt;Node12</title>
<path fill="none" stroke="midnightblue" d="M790.04,-257.47C739.54,-247.96 672.14,-234.66 613,-221 608.37,-219.93 603.54,-218.75 598.75,-217.54"/>
<polygon fill="midnightblue" stroke="midnightblue" points="599.6,-214.15 589.04,-215.04 597.85,-220.92 599.6,-214.15"/>
</g>
<!-- Node20 -->
<g id="node20" class="node">
<title>Node20</title>
<g id="a_node20"><a xlink:href="SingleAgentSpaceTimeState_8h.html" target="_top" xlink:title=" ">
<polygon fill="white" stroke="black" points="733.5,-123.5 733.5,-153.5 880.5,-153.5 880.5,-123.5 733.5,-123.5"/>
<text text-anchor="start" x="741.5" y="-141.5" font-family="Helvetica,sans-Serif" font-size="10.00">../States/SingleAgentSpace</text>
<text text-anchor="middle" x="807" y="-130.5" font-family="Helvetica,sans-Serif" font-size="10.00">TimeState.h</text>
</a>
</g>
</g>
<!-- Node19&#45;&gt;Node20 -->
<g id="edge27" class="edge">
<title>Node19&#45;&gt;Node20</title>
<path fill="none" stroke="midnightblue" d="M852.48,-257.28C843.58,-247.79 832.66,-234.59 826,-221 817.14,-202.91 812.3,-180.51 809.73,-163.78"/>
<polygon fill="midnightblue" stroke="midnightblue" points="813.18,-163.13 808.35,-153.7 806.24,-164.08 813.18,-163.13"/>
</g>
<!-- Node20&#45;&gt;Node11 -->
<g id="edge28" class="edge">
<title>Node20&#45;&gt;Node11</title>
<path fill="none" stroke="midnightblue" d="M788.56,-123.4C774.65,-112.76 755.61,-98.2 741.46,-87.38"/>
<polygon fill="midnightblue" stroke="midnightblue" points="743.44,-84.49 733.37,-81.19 739.19,-90.05 743.44,-84.49"/>
</g>
<!-- Node21&#45;&gt;Node12 -->
<g id="edge34" class="edge">
<title>Node21&#45;&gt;Node12</title>
<path fill="none" stroke="midnightblue" d="M472.65,-257.4C491.18,-246.34 516.81,-231.06 535.14,-220.13"/>
<polygon fill="midnightblue" stroke="midnightblue" points="536.94,-223.13 543.73,-215.01 533.35,-217.12 536.94,-223.13"/>
</g>
<!-- Node21&#45;&gt;Node15 -->
<g id="edge31" class="edge">
<title>Node21&#45;&gt;Node15</title>
<path fill="none" stroke="midnightblue" d="M431.42,-257.4C418.29,-246.86 400.37,-232.48 386.93,-221.69"/>
<polygon fill="midnightblue" stroke="midnightblue" points="388.82,-218.72 378.83,-215.19 384.44,-224.18 388.82,-218.72"/>
</g>
<!-- Node22 -->
<g id="node22" class="node">
<title>Node22</title>
<g id="a_node22"><a xlink:href="StandardMultiAgentState_8h.html" target="_top" xlink:title=" ">
<polygon fill="white" stroke="black" points="559,-123.5 559,-153.5 715,-153.5 715,-123.5 559,-123.5"/>
<text text-anchor="start" x="567" y="-141.5" font-family="Helvetica,sans-Serif" font-size="10.00">../States/StandardMultiAgent</text>
<text text-anchor="middle" x="637" y="-130.5" font-family="Helvetica,sans-Serif" font-size="10.00">State.h</text>
</a>
</g>
</g>
<!-- Node21&#45;&gt;Node22 -->
<g id="edge32" class="edge">
<title>Node21&#45;&gt;Node22</title>
<path fill="none" stroke="midnightblue" d="M454.96,-257.44C463.26,-239.44 479.91,-208.41 503,-190 521.54,-175.22 544.87,-164.44 566.84,-156.74"/>
<polygon fill="midnightblue" stroke="midnightblue" points="568.11,-160 576.49,-153.51 565.9,-153.36 568.11,-160"/>
</g>
<!-- Node22&#45;&gt;Node11 -->
<g id="edge33" class="edge">
<title>Node22&#45;&gt;Node11</title>
<path fill="none" stroke="midnightblue" d="M655.44,-123.4C669.35,-112.76 688.39,-98.2 702.54,-87.38"/>
<polygon fill="midnightblue" stroke="midnightblue" points="704.81,-90.05 710.63,-81.19 700.56,-84.49 704.81,-90.05"/>
</g>
<!-- Node23&#45;&gt;Node12 -->
<g id="edge39" class="edge">
<title>Node23&#45;&gt;Node12</title>
<path fill="none" stroke="midnightblue" d="M631.6,-257.4C615.99,-246.6 594.52,-231.76 578.81,-220.89"/>
<polygon fill="midnightblue" stroke="midnightblue" points="580.52,-217.82 570.3,-215.01 576.54,-223.57 580.52,-217.82"/>
</g>
<!-- Node23&#45;&gt;Node15 -->
<g id="edge36" class="edge">
<title>Node23&#45;&gt;Node15</title>
<path fill="none" stroke="midnightblue" d="M590.73,-257.48C538.05,-245.42 463.19,-228.29 415.1,-217.28"/>
<polygon fill="midnightblue" stroke="midnightblue" points="415.79,-213.85 405.26,-215.03 414.23,-220.67 415.79,-213.85"/>
</g>
<!-- Node24 -->
<g id="node24" class="node">
<title>Node24</title>
<g id="a_node24"><a xlink:href="StandardMultiAgentSpaceTimeState_8h.html" target="_top" xlink:title=" ">
<polygon fill="white" stroke="black" points="622,-190.5 622,-220.5 778,-220.5 778,-190.5 622,-190.5"/>
<text text-anchor="start" x="630" y="-208.5" font-family="Helvetica,sans-Serif" font-size="10.00">../States/StandardMultiAgent</text>
<text text-anchor="middle" x="700" y="-197.5" font-family="Helvetica,sans-Serif" font-size="10.00">SpaceTimeState.h</text>
</a>
</g>
</g>
<!-- Node23&#45;&gt;Node24 -->
<g id="edge37" class="edge">
<title>Node23&#45;&gt;Node24</title>
<path fill="none" stroke="midnightblue" d="M662.42,-257.4C668.58,-249.05 676.53,-238.29 683.52,-228.81"/>
<polygon fill="midnightblue" stroke="midnightblue" points="686.48,-230.7 689.61,-220.58 680.85,-226.54 686.48,-230.7"/>
</g>
<!-- Node24&#45;&gt;Node22 -->
<g id="edge38" class="edge">
<title>Node24&#45;&gt;Node22</title>
<path fill="none" stroke="midnightblue" d="M686.33,-190.4C677.99,-181.79 667.17,-170.63 657.78,-160.94"/>
<polygon fill="midnightblue" stroke="midnightblue" points="660.12,-158.32 650.64,-153.58 655.09,-163.19 660.12,-158.32"/>
</g>
</g>
</svg>
