<?xml version="1.0" encoding="UTF-8" standalone="no"?>
<!DOCTYPE svg PUBLIC "-//W3C//DTD SVG 1.1//EN"
 "http://www.w3.org/Graphics/SVG/1.1/DTD/svg11.dtd">
<!-- Generated by graphviz version 2.43.0 (0)
 -->
<!-- Title: Solvers/AStar/ReverseResumableAStar.h Pages: 1 -->
<!--zoomable 486 -->
<svg id="main" version="1.1" xmlns="http://www.w3.org/2000/svg" xmlns:xlink="http://www.w3.org/1999/xlink" xml:space="preserve" onload="init(evt)">
<style type="text/css"><![CDATA[
.edge:hover path { stroke: red; }
.edge:hover polygon { stroke: red; fill: red; }
]]></style>
<script type="text/javascript"><![CDATA[
var edges = document.getElementsByTagName('g');
if (edges && edges.length) {
  for (var i=0;i<edges.length;i++) {
    if (edges[i].id.substr(0,4)=='edge') {
      edges[i].setAttribute('class','edge');
    }
  }
}
]]></script>
        <defs>
                <circle id="rim" cx="0" cy="0" r="7"/>
                <circle id="rim2" cx="0" cy="0" r="3.5"/>
                <g id="zoomPlus">
                        <use xlink:href="#rim" fill="#404040">
                                <set attributeName="fill" to="#808080" begin="zoomplus.mouseover" end="zoomplus.mouseout"/>
                        </use>
                        <path d="M-4,0h8M0,-4v8" fill="none" stroke="white" stroke-width="1.5" pointer-events="none"/>
                </g>
                <g id="zoomMin">
                        <use xlink:href="#rim" fill="#404040">
                                <set attributeName="fill" to="#808080" begin="zoomminus.mouseover" end="zoomminus.mouseout"/>
                        </use>
                        <path d="M-4,0h8" fill="none" stroke="white" stroke-width="1.5" pointer-events="none"/>
                </g>
                <g id="dirArrow">
                        <path fill="none" stroke="white" stroke-width="1.5" d="M0,-3.0v7 M-2.5,-0.5L0,-3.0L2.5,-0.5"/>
                </g>
               <g id="resetDef">
                       <use xlink:href="#rim2" fill="#404040">
                               <set attributeName="fill" to="#808080" begin="reset.mouseover" end="reset.mouseout"/>
                       </use>
               </g>
        </defs>

<script type="text/javascript">
var viewWidth = 567;
var viewHeight = 486;
var sectionId = 'dynsection-1';
</script>
<script xlink:href="svgpan.js"/>
<svg id="graph" class="graph">
<g id="viewport">
<title>Solvers/AStar/ReverseResumableAStar.h</title>
<polygon fill="white" stroke="transparent" points="-4,4 -4,-482 563,-482 563,4 -4,4"/>
<!-- Node1 -->
<g id="node1" class="node">
<title>Node1</title>
<g id="a_node1"><a xlink:title=" ">
<polygon fill="#bfbfbf" stroke="black" points="286,-447.5 286,-477.5 465,-477.5 465,-447.5 286,-447.5"/>
<text text-anchor="start" x="294" y="-465.5" font-family="Helvetica,sans-Serif" font-size="10.00">Solvers/AStar/ReverseResumable</text>
<text text-anchor="middle" x="375.5" y="-454.5" font-family="Helvetica,sans-Serif" font-size="10.00">AStar.h</text>
</a>
</g>
</g>
<!-- Node2 -->
<g id="node2" class="node">
<title>Node2</title>
<g id="a_node2"><a xlink:href="HeuristicOptimal_8h.html" target="_top" xlink:title=" ">
<polygon fill="white" stroke="black" points="201.5,-386 201.5,-405 361.5,-405 361.5,-386 201.5,-386"/>
<text text-anchor="middle" x="281.5" y="-393" font-family="Helvetica,sans-Serif" font-size="10.00">Heuristics/HeuristicOptimal.h</text>
</a>
</g>
</g>
<!-- Node1&#45;&gt;Node2 -->
<g id="edge1" class="edge">
<title>Node1&#45;&gt;Node2</title>
<path fill="none" stroke="midnightblue" d="M346.78,-441.64C329.04,-429.37 307.19,-414.26 293.8,-405.01"/>
<polygon fill="midnightblue" stroke="midnightblue" points="344.89,-444.59 355.1,-447.4 348.87,-438.83 344.89,-444.59"/>
</g>
<!-- Node12 -->
<g id="node12" class="node">
<title>Node12</title>
<g id="a_node12"><a xlink:href="ReverseResumableAStar_8cpp.html" target="_top" xlink:title=" ">
<polygon fill="white" stroke="black" points="380,-380.5 380,-410.5 559,-410.5 559,-380.5 380,-380.5"/>
<text text-anchor="start" x="388" y="-398.5" font-family="Helvetica,sans-Serif" font-size="10.00">Solvers/AStar/ReverseResumable</text>
<text text-anchor="middle" x="469.5" y="-387.5" font-family="Helvetica,sans-Serif" font-size="10.00">AStar.cpp</text>
</a>
</g>
</g>
<!-- Node1&#45;&gt;Node12 -->
<g id="edge12" class="edge">
<title>Node1&#45;&gt;Node12</title>
<path fill="none" stroke="midnightblue" d="M404.49,-441.45C418.95,-431.45 436.09,-419.6 449.14,-410.58"/>
<polygon fill="midnightblue" stroke="midnightblue" points="402.13,-438.83 395.9,-447.4 406.11,-444.59 402.13,-438.83"/>
</g>
<!-- Node3 -->
<g id="node3" class="node">
<title>Node3</title>
<g id="a_node3"><a xlink:href="AStar_8h.html" target="_top" xlink:title=" ">
<polygon fill="white" stroke="black" points="222,-324.5 222,-343.5 341,-343.5 341,-324.5 222,-324.5"/>
<text text-anchor="middle" x="281.5" y="-331.5" font-family="Helvetica,sans-Serif" font-size="10.00">Solvers/AStar/AStar.h</text>
</a>
</g>
</g>
<!-- Node2&#45;&gt;Node3 -->
<g id="edge2" class="edge">
<title>Node2&#45;&gt;Node3</title>
<path fill="none" stroke="midnightblue" d="M281.5,-375.82C281.5,-365 281.5,-351.9 281.5,-343.51"/>
<polygon fill="midnightblue" stroke="midnightblue" points="278,-375.98 281.5,-385.98 285,-375.98 278,-375.98"/>
</g>
<!-- Node4 -->
<g id="node4" class="node">
<title>Node4</title>
<g id="a_node4"><a xlink:href="GeneralAStar_8h.html" target="_top" xlink:title=" ">
<polygon fill="white" stroke="black" points="118.5,-263 118.5,-282 276.5,-282 276.5,-263 118.5,-263"/>
<text text-anchor="middle" x="197.5" y="-270" font-family="Helvetica,sans-Serif" font-size="10.00">Solvers/AStar/GeneralAStar.h</text>
</a>
</g>
</g>
<!-- Node3&#45;&gt;Node4 -->
<g id="edge3" class="edge">
<title>Node3&#45;&gt;Node4</title>
<path fill="none" stroke="midnightblue" d="M261.19,-318.61C245.03,-307.17 222.98,-291.55 209.51,-282.01"/>
<polygon fill="midnightblue" stroke="midnightblue" points="259.28,-321.55 269.46,-324.48 263.33,-315.84 259.28,-321.55"/>
</g>
<!-- Node11 -->
<g id="node11" class="node">
<title>Node11</title>
<g id="a_node11"><a xlink:href="CooperativeAStar_8h.html" target="_top" xlink:title=" ">
<polygon fill="white" stroke="black" points="294.5,-257.5 294.5,-287.5 436.5,-287.5 436.5,-257.5 294.5,-257.5"/>
<text text-anchor="start" x="302.5" y="-275.5" font-family="Helvetica,sans-Serif" font-size="10.00">Solvers/SuboptimalSolver</text>
<text text-anchor="middle" x="365.5" y="-264.5" font-family="Helvetica,sans-Serif" font-size="10.00">/CooperativeAStar.h</text>
</a>
</g>
</g>
<!-- Node3&#45;&gt;Node11 -->
<g id="edge11" class="edge">
<title>Node3&#45;&gt;Node11</title>
<path fill="none" stroke="midnightblue" d="M302.02,-318.47C315.32,-309.05 332.55,-296.84 345.7,-287.52"/>
<polygon fill="midnightblue" stroke="midnightblue" points="299.67,-315.84 293.54,-324.48 303.72,-321.55 299.67,-315.84"/>
</g>
<!-- Node5 -->
<g id="node5" class="node">
<title>Node5</title>
<g id="a_node5"><a xlink:href="ConflictBasedSearch_8h.html" target="_top" xlink:title=" ">
<polygon fill="white" stroke="black" points="75,-190.5 75,-220.5 220,-220.5 220,-190.5 75,-190.5"/>
<text text-anchor="start" x="83" y="-208.5" font-family="Helvetica,sans-Serif" font-size="10.00">Solvers/CBS/ConflictBased</text>
<text text-anchor="middle" x="147.5" y="-197.5" font-family="Helvetica,sans-Serif" font-size="10.00">Search.h</text>
</a>
</g>
</g>
<!-- Node4&#45;&gt;Node5 -->
<g id="edge4" class="edge">
<title>Node4&#45;&gt;Node5</title>
<path fill="none" stroke="midnightblue" d="M184.56,-254.67C176.42,-244.09 166.04,-230.6 158.34,-220.59"/>
<polygon fill="midnightblue" stroke="midnightblue" points="181.89,-256.94 190.76,-262.73 187.43,-252.67 181.89,-256.94"/>
</g>
<!-- Node7 -->
<g id="node7" class="node">
<title>Node7</title>
<g id="a_node7"><a xlink:href="SimpleIndependenceDetection_8h.html" target="_top" xlink:title=" ">
<polygon fill="white" stroke="black" points="163,-123.5 163,-153.5 334,-153.5 334,-123.5 163,-123.5"/>
<text text-anchor="start" x="171" y="-141.5" font-family="Helvetica,sans-Serif" font-size="10.00">Solvers/ID/SimpleIndependence</text>
<text text-anchor="middle" x="248.5" y="-130.5" font-family="Helvetica,sans-Serif" font-size="10.00">Detection.h</text>
</a>
</g>
</g>
<!-- Node4&#45;&gt;Node7 -->
<g id="edge10" class="edge">
<title>Node4&#45;&gt;Node7</title>
<path fill="none" stroke="midnightblue" d="M210.24,-254.6C216.83,-245.14 224.51,-232.9 229.5,-221 238.94,-198.49 244.17,-170.42 246.65,-153.79"/>
<polygon fill="midnightblue" stroke="midnightblue" points="207.4,-252.55 204.38,-262.7 213.07,-256.65 207.4,-252.55"/>
</g>
<!-- Node6 -->
<g id="node6" class="node">
<title>Node6</title>
<g id="a_node6"><a xlink:href="ConflictBasedSearch_8cpp.html" target="_top" xlink:title=" ">
<polygon fill="white" stroke="black" points="0,-123.5 0,-153.5 145,-153.5 145,-123.5 0,-123.5"/>
<text text-anchor="start" x="8" y="-141.5" font-family="Helvetica,sans-Serif" font-size="10.00">Solvers/CBS/ConflictBased</text>
<text text-anchor="middle" x="72.5" y="-130.5" font-family="Helvetica,sans-Serif" font-size="10.00">Search.cpp</text>
</a>
</g>
</g>
<!-- Node5&#45;&gt;Node6 -->
<g id="edge5" class="edge">
<title>Node5&#45;&gt;Node6</title>
<path fill="none" stroke="midnightblue" d="M123.38,-183.6C112.06,-173.78 98.86,-162.34 88.74,-153.58"/>
<polygon fill="midnightblue" stroke="midnightblue" points="121.38,-186.49 131.23,-190.4 125.96,-181.2 121.38,-186.49"/>
</g>
<!-- Node5&#45;&gt;Node7 -->
<g id="edge6" class="edge">
<title>Node5&#45;&gt;Node7</title>
<path fill="none" stroke="midnightblue" d="M178.21,-184.73C193.84,-174.68 212.47,-162.68 226.63,-153.58"/>
<polygon fill="midnightblue" stroke="midnightblue" points="175.93,-182.04 169.42,-190.4 179.72,-187.93 175.93,-182.04"/>
</g>
<!-- Node8 -->
<g id="node8" class="node">
<title>Node8</title>
<g id="a_node8"><a xlink:href="IndependenceDetection_8h.html" target="_top" xlink:title=" ">
<polygon fill="white" stroke="black" points="50.5,-62 50.5,-81 244.5,-81 244.5,-62 50.5,-62"/>
<text text-anchor="middle" x="147.5" y="-69" font-family="Helvetica,sans-Serif" font-size="10.00">Solvers/ID/IndependenceDetection.h</text>
</a>
</g>
</g>
<!-- Node7&#45;&gt;Node8 -->
<g id="edge7" class="edge">
<title>Node7&#45;&gt;Node8</title>
<path fill="none" stroke="midnightblue" d="M218.16,-117.97C199.01,-105.65 175.23,-90.35 160.72,-81.01"/>
<polygon fill="midnightblue" stroke="midnightblue" points="216.28,-120.93 226.58,-123.4 220.07,-115.04 216.28,-120.93"/>
</g>
<!-- Node10 -->
<g id="node10" class="node">
<title>Node10</title>
<g id="a_node10"><a xlink:href="SimpleIndependenceDetection_8cpp.html" target="_top" xlink:title=" ">
<polygon fill="white" stroke="black" points="263,-56.5 263,-86.5 434,-86.5 434,-56.5 263,-56.5"/>
<text text-anchor="start" x="271" y="-74.5" font-family="Helvetica,sans-Serif" font-size="10.00">Solvers/ID/SimpleIndependence</text>
<text text-anchor="middle" x="348.5" y="-63.5" font-family="Helvetica,sans-Serif" font-size="10.00">Detection.cpp</text>
</a>
</g>
</g>
<!-- Node7&#45;&gt;Node10 -->
<g id="edge9" class="edge">
<title>Node7&#45;&gt;Node10</title>
<path fill="none" stroke="midnightblue" d="M278.91,-117.73C294.38,-107.68 312.83,-95.68 326.84,-86.58"/>
<polygon fill="midnightblue" stroke="midnightblue" points="276.68,-115.01 270.2,-123.4 280.49,-120.88 276.68,-115.01"/>
</g>
<!-- Node9 -->
<g id="node9" class="node">
<title>Node9</title>
<g id="a_node9"><a xlink:href="IndependenceDetection_8cpp.html" target="_top" xlink:title=" ">
<polygon fill="white" stroke="black" points="45,-0.5 45,-19.5 250,-19.5 250,-0.5 45,-0.5"/>
<text text-anchor="middle" x="147.5" y="-7.5" font-family="Helvetica,sans-Serif" font-size="10.00">Solvers/ID/IndependenceDetection.cpp</text>
</a>
</g>
</g>
<!-- Node8&#45;&gt;Node9 -->
<g id="edge8" class="edge">
<title>Node8&#45;&gt;Node9</title>
<path fill="none" stroke="midnightblue" d="M147.5,-51.82C147.5,-41 147.5,-27.9 147.5,-19.51"/>
<polygon fill="midnightblue" stroke="midnightblue" points="144,-51.98 147.5,-61.98 151,-51.98 144,-51.98"/>
</g>
</g>
</svg>
        <g id="navigator" transform="translate(0 0)" fill="#404254">
                <rect fill="#f2f5e9" fill-opacity="0.5" stroke="#606060" stroke-width=".5" x="0" y="0" width="60" height="60"/>
                <use id="zoomplus" xlink:href="#zoomPlus" x="17" y="9" onmousedown="handleZoom(evt,'in')"/>
                <use id="zoomminus" xlink:href="#zoomMin" x="42" y="9" onmousedown="handleZoom(evt,'out')"/>
                <use id="reset" xlink:href="#resetDef" x="30" y="36" onmousedown="handleReset()"/>
                <g id="arrowUp" xlink:href="#dirArrow" transform="translate(30 24)" onmousedown="handlePan(0,-1)">
                  <use xlink:href="#rim" fill="#404040">
                        <set attributeName="fill" to="#808080" begin="arrowUp.mouseover" end="arrowUp.mouseout"/>
                  </use>
                  <path fill="none" stroke="white" stroke-width="1.5" d="M0,-3.0v7 M-2.5,-0.5L0,-3.0L2.5,-0.5"/>
                </g>
                <g id="arrowRight" xlink:href="#dirArrow" transform="rotate(90) translate(36 -43)" onmousedown="handlePan(1,0)">
                  <use xlink:href="#rim" fill="#404040">
                        <set attributeName="fill" to="#808080" begin="arrowRight.mouseover" end="arrowRight.mouseout"/>
                  </use>
                  <path fill="none" stroke="white" stroke-width="1.5" d="M0,-3.0v7 M-2.5,-0.5L0,-3.0L2.5,-0.5"/>
                </g>
                <g id="arrowDown" xlink:href="#dirArrow" transform="rotate(180) translate(-30 -48)" onmousedown="handlePan(0,1)">
                  <use xlink:href="#rim" fill="#404040">
                        <set attributeName="fill" to="#808080" begin="arrowDown.mouseover" end="arrowDown.mouseout"/>
                  </use>
                  <path fill="none" stroke="white" stroke-width="1.5" d="M0,-3.0v7 M-2.5,-0.5L0,-3.0L2.5,-0.5"/>
                </g>
                <g id="arrowLeft" xlink:href="#dirArrow" transform="rotate(270) translate(-36 17)" onmousedown="handlePan(-1,0)">
                  <use xlink:href="#rim" fill="#404040">
                        <set attributeName="fill" to="#808080" begin="arrowLeft.mouseover" end="arrowLeft.mouseout"/>
                  </use>
                  <path fill="none" stroke="white" stroke-width="1.5" d="M0,-3.0v7 M-2.5,-0.5L0,-3.0L2.5,-0.5"/>
                </g>
        </g>
        <svg viewBox="0 0 15 15" width="100%" height="30px" preserveAspectRatio="xMaxYMin meet">
         <g id="arrow_out" transform="scale(0.3 0.3)">
          <a xlink:href="ReverseResumableAStar_8h__dep__incl_org.svg" target="_base">
           <rect id="button" ry="5" rx="5" y="6" x="6" height="38" width="38"
                fill="#f2f5e9" fill-opacity="0.5" stroke="#606060" stroke-width="1.0"/>
           <path id="arrow"
             d="M 11.500037,31.436501 C 11.940474,20.09759 22.043105,11.32322 32.158766,21.979434 L 37.068811,17.246167 C 37.068811,17.246167 37.088388,32 37.088388,32 L 22.160133,31.978069 C 22.160133,31.978069 26.997745,27.140456 26.997745,27.140456 C 18.528582,18.264221 13.291696,25.230495 11.500037,31.436501 z"
             style="fill:#404040;"/>
          </a>
         </g>
        </svg>
</svg>
