<?xml version="1.0" encoding="UTF-8" standalone="no"?>
<!DOCTYPE svg PUBLIC "-//W3C//DTD SVG 1.1//EN"
 "http://www.w3.org/Graphics/SVG/1.1/DTD/svg11.dtd">
<!-- Generated by graphviz version 2.43.0 (0)
 -->
<!-- Title: Solvers/AStar/ReverseResumableAStar.cpp Pages: 1 -->
<svg width="267pt" height="229pt"
 viewBox="0.00 0.00 266.50 229.00" xmlns="http://www.w3.org/2000/svg" xmlns:xlink="http://www.w3.org/1999/xlink">
<g id="graph0" class="graph" transform="scale(1 1) rotate(0) translate(4 225)">
<title>Solvers/AStar/ReverseResumableAStar.cpp</title>
<polygon fill="white" stroke="transparent" points="-4,4 -4,-225 262.5,-225 262.5,4 -4,4"/>
<!-- Node1 -->
<g id="node1" class="node">
<title>Node1</title>
<g id="a_node1"><a xlink:title=" ">
<polygon fill="#bfbfbf" stroke="black" points="34.5,-190.5 34.5,-220.5 213.5,-220.5 213.5,-190.5 34.5,-190.5"/>
<text text-anchor="start" x="42.5" y="-208.5" font-family="Helvetica,sans-Serif" font-size="10.00">Solvers/AStar/ReverseResumable</text>
<text text-anchor="middle" x="124" y="-197.5" font-family="Helvetica,sans-Serif" font-size="10.00">AStar.cpp</text>
</a>
</g>
</g>
<!-- Node2 -->
<g id="node2" class="node">
<title>Node2</title>
<g id="a_node2"><a xlink:href="ReverseResumableAStar_8h.html" target="_top" xlink:title=" ">
<polygon fill="white" stroke="black" points="51,-134.5 51,-153.5 197,-153.5 197,-134.5 51,-134.5"/>
<text text-anchor="middle" x="124" y="-141.5" font-family="Helvetica,sans-Serif" font-size="10.00">ReverseResumableAStar.h</text>
</a>
</g>
</g>
<!-- Node1&#45;&gt;Node2 -->
<g id="edge1" class="edge">
<title>Node1&#45;&gt;Node2</title>
<path fill="none" stroke="midnightblue" d="M124,-190.4C124,-182.47 124,-172.46 124,-163.86"/>
<polygon fill="midnightblue" stroke="midnightblue" points="127.5,-163.66 124,-153.66 120.5,-163.66 127.5,-163.66"/>
</g>
<!-- Node3 -->
<g id="node3" class="node">
<title>Node3</title>
<g id="a_node3"><a xlink:href="SingleAgentAStarProblem_8h.html" target="_top" xlink:title=" ">
<polygon fill="white" stroke="red" points="0,-0.5 0,-30.5 154,-30.5 154,-0.5 0,-0.5"/>
<text text-anchor="start" x="8" y="-18.5" font-family="Helvetica,sans-Serif" font-size="10.00">../../AStarProblems</text>
<text text-anchor="middle" x="77" y="-7.5" font-family="Helvetica,sans-Serif" font-size="10.00">/SingleAgentAStarProblem.h</text>
</a>
</g>
</g>
<!-- Node2&#45;&gt;Node3 -->
<g id="edge2" class="edge">
<title>Node2&#45;&gt;Node3</title>
<path fill="none" stroke="midnightblue" d="M97.07,-134.36C80.28,-127.41 60.02,-115.82 50,-98 39.58,-79.47 49.15,-56.3 59.67,-39.4"/>
<polygon fill="midnightblue" stroke="midnightblue" points="62.82,-40.99 65.49,-30.73 57.01,-37.08 62.82,-40.99"/>
</g>
<!-- Node13 -->
<g id="node4" class="node">
<title>Node13</title>
<g id="a_node4"><a xlink:href="HeuristicManhattan_8h.html" target="_top" xlink:title=" ">
<polygon fill="white" stroke="red" points="59,-67.5 59,-97.5 189,-97.5 189,-67.5 59,-67.5"/>
<text text-anchor="start" x="67" y="-85.5" font-family="Helvetica,sans-Serif" font-size="10.00">../../Heuristics/Heuristic</text>
<text text-anchor="middle" x="124" y="-74.5" font-family="Helvetica,sans-Serif" font-size="10.00">Manhattan.h</text>
</a>
</g>
</g>
<!-- Node2&#45;&gt;Node13 -->
<g id="edge3" class="edge">
<title>Node2&#45;&gt;Node13</title>
<path fill="none" stroke="midnightblue" d="M124,-134.48C124,-127.47 124,-117.19 124,-107.7"/>
<polygon fill="midnightblue" stroke="midnightblue" points="127.5,-107.52 124,-97.52 120.5,-107.52 127.5,-107.52"/>
</g>
<!-- Node25 -->
<g id="node5" class="node">
<title>Node25</title>
<g id="a_node5"><a xlink:href="Node_8h.html" target="_top" xlink:title=" ">
<polygon fill="white" stroke="black" points="207.5,-73 207.5,-92 258.5,-92 258.5,-73 207.5,-73"/>
<text text-anchor="middle" x="233" y="-80" font-family="Helvetica,sans-Serif" font-size="10.00">Node.h</text>
</a>
</g>
</g>
<!-- Node2&#45;&gt;Node25 -->
<g id="edge5" class="edge">
<title>Node2&#45;&gt;Node25</title>
<path fill="none" stroke="midnightblue" d="M139.62,-134.48C157.59,-124.67 187.32,-108.43 208.41,-96.92"/>
<polygon fill="midnightblue" stroke="midnightblue" points="210.31,-99.87 217.41,-92.01 206.96,-93.73 210.31,-99.87"/>
</g>
<!-- Node13&#45;&gt;Node3 -->
<g id="edge4" class="edge">
<title>Node13&#45;&gt;Node3</title>
<path fill="none" stroke="midnightblue" d="M113.8,-67.4C107.77,-59.05 99.98,-48.29 93.13,-38.81"/>
<polygon fill="midnightblue" stroke="midnightblue" points="95.87,-36.63 87.18,-30.58 90.2,-40.73 95.87,-36.63"/>
</g>
</g>
</svg>
