<?xml version="1.0" encoding="UTF-8" standalone="no"?>
<!DOCTYPE svg PUBLIC "-//W3C//DTD SVG 1.1//EN"
 "http://www.w3.org/Graphics/SVG/1.1/DTD/svg11.dtd">
<!-- Generated by graphviz version 2.43.0 (0)
 -->
<!-- Title: Solvers/ID/SimpleIndependenceDetection.h Pages: 1 -->
<!--zoomable 285 -->
<svg id="main" version="1.1" xmlns="http://www.w3.org/2000/svg" xmlns:xlink="http://www.w3.org/1999/xlink" xml:space="preserve" onload="init(evt)">
<style type="text/css"><![CDATA[
.edge:hover path { stroke: red; }
.edge:hover polygon { stroke: red; fill: red; }
]]></style>
<script type="text/javascript"><![CDATA[
var edges = document.getElementsByTagName('g');
if (edges && edges.length) {
  for (var i=0;i<edges.length;i++) {
    if (edges[i].id.substr(0,4)=='edge') {
      edges[i].setAttribute('class','edge');
    }
  }
}
]]></script>
        <defs>
                <circle id="rim" cx="0" cy="0" r="7"/>
                <circle id="rim2" cx="0" cy="0" r="3.5"/>
                <g id="zoomPlus">
                        <use xlink:href="#rim" fill="#404040">
                                <set attributeName="fill" to="#808080" begin="zoomplus.mouseover" end="zoomplus.mouseout"/>
                        </use>
                        <path d="M-4,0h8M0,-4v8" fill="none" stroke="white" stroke-width="1.5" pointer-events="none"/>
                </g>
                <g id="zoomMin">
                        <use xlink:href="#rim" fill="#404040">
                                <set attributeName="fill" to="#808080" begin="zoomminus.mouseover" end="zoomminus.mouseout"/>
                        </use>
                        <path d="M-4,0h8" fill="none" stroke="white" stroke-width="1.5" pointer-events="none"/>
                </g>
                <g id="dirArrow">
                        <path fill="none" stroke="white" stroke-width="1.5" d="M0,-3.0v7 M-2.5,-0.5L0,-3.0L2.5,-0.5"/>
                </g>
               <g id="resetDef">
                       <use xlink:href="#rim2" fill="#404040">
                               <set attributeName="fill" to="#808080" begin="reset.mouseover" end="reset.mouseout"/>
                       </use>
               </g>
        </defs>

<script type="text/javascript">
var viewWidth = 597;
var viewHeight = 285;
var sectionId = 'dynsection-0';
</script>
<script xlink:href="svgpan.js"/>
<svg id="graph" class="graph">
<g id="viewport">
<title>Solvers/ID/SimpleIndependenceDetection.h</title>
<polygon fill="white" stroke="transparent" points="-4,4 -4,-281 593,-281 593,4 -4,4"/>
<!-- Node1 -->
<g id="node1" class="node">
<title>Node1</title>
<g id="a_node1"><a xlink:title=" ">
<polygon fill="#bfbfbf" stroke="black" points="268.5,-246.5 268.5,-276.5 439.5,-276.5 439.5,-246.5 268.5,-246.5"/>
<text text-anchor="start" x="276.5" y="-264.5" font-family="Helvetica,sans-Serif" font-size="10.00">Solvers/ID/SimpleIndependence</text>
<text text-anchor="middle" x="354" y="-253.5" font-family="Helvetica,sans-Serif" font-size="10.00">Detection.h</text>
</a>
</g>
</g>
<!-- Node2 -->
<g id="node2" class="node">
<title>Node2</title>
<g id="a_node2"><a xlink:href="MultiAgentProblem_8h.html" target="_top" xlink:title=" ">
<polygon fill="white" stroke="black" points="89.5,-112.5 89.5,-142.5 226.5,-142.5 226.5,-112.5 89.5,-112.5"/>
<text text-anchor="start" x="97.5" y="-130.5" font-family="Helvetica,sans-Serif" font-size="10.00">../../Problems/MultiAgent</text>
<text text-anchor="middle" x="158" y="-119.5" font-family="Helvetica,sans-Serif" font-size="10.00">Problem.h</text>
</a>
</g>
</g>
<!-- Node1&#45;&gt;Node2 -->
<g id="edge1" class="edge">
<title>Node1&#45;&gt;Node2</title>
<path fill="none" stroke="midnightblue" d="M288.63,-246.44C263.21,-238.69 234.97,-227.07 213,-210 193.21,-194.62 178.03,-170.08 168.68,-151.94"/>
<polygon fill="midnightblue" stroke="midnightblue" points="171.65,-150.05 164.09,-142.62 165.37,-153.14 171.65,-150.05"/>
</g>
<!-- Node8 -->
<g id="node4" class="node">
<title>Node8</title>
<g id="a_node4"><a xlink:href="SingleAgentProblem_8h.html" target="_top" xlink:title=" ">
<polygon fill="white" stroke="black" points="0,-179.5 0,-209.5 142,-209.5 142,-179.5 0,-179.5"/>
<text text-anchor="start" x="8" y="-197.5" font-family="Helvetica,sans-Serif" font-size="10.00">../../Problems/SingleAgent</text>
<text text-anchor="middle" x="71" y="-186.5" font-family="Helvetica,sans-Serif" font-size="10.00">Problem.h</text>
</a>
</g>
</g>
<!-- Node1&#45;&gt;Node8 -->
<g id="edge3" class="edge">
<title>Node1&#45;&gt;Node8</title>
<path fill="none" stroke="midnightblue" d="M292.94,-246.48C248.74,-236.32 188.85,-222.57 142.43,-211.91"/>
<polygon fill="midnightblue" stroke="midnightblue" points="142.97,-208.44 132.44,-209.61 141.4,-215.26 142.97,-208.44"/>
</g>
<!-- Node9 -->
<g id="node5" class="node">
<title>Node9</title>
<g id="a_node5"><a xlink:href="GeneralAStar_8h.html" target="_top" xlink:title=" ">
<polygon fill="white" stroke="black" points="371,-118 371,-137 499,-137 499,-118 371,-118"/>
<text text-anchor="middle" x="435" y="-125" font-family="Helvetica,sans-Serif" font-size="10.00">../AStar/GeneralAStar.h</text>
</a>
</g>
</g>
<!-- Node1&#45;&gt;Node9 -->
<g id="edge5" class="edge">
<title>Node1&#45;&gt;Node9</title>
<path fill="none" stroke="midnightblue" d="M364.47,-246.15C371.62,-236.17 381.18,-222.47 389,-210 402.44,-188.57 416.54,-163.06 425.54,-146.36"/>
<polygon fill="midnightblue" stroke="midnightblue" points="428.8,-147.69 430.42,-137.22 422.62,-144.39 428.8,-147.69"/>
</g>
<!-- Node30 -->
<g id="node8" class="node">
<title>Node30</title>
<g id="a_node8"><a xlink:href="ConflictBasedSearch_8h.html" target="_top" xlink:title=" ">
<polygon fill="white" stroke="black" points="222.5,-185 222.5,-204 379.5,-204 379.5,-185 222.5,-185"/>
<text text-anchor="middle" x="301" y="-192" font-family="Helvetica,sans-Serif" font-size="10.00">../CBS/ConflictBasedSearch.h</text>
</a>
</g>
</g>
<!-- Node1&#45;&gt;Node30 -->
<g id="edge9" class="edge">
<title>Node1&#45;&gt;Node30</title>
<path fill="none" stroke="midnightblue" d="M342.5,-246.4C334.32,-236.36 323.29,-222.84 314.66,-212.25"/>
<polygon fill="midnightblue" stroke="midnightblue" points="317.12,-209.73 308.09,-204.19 311.7,-214.16 317.12,-209.73"/>
</g>
<!-- Node33 -->
<g id="node10" class="node">
<title>Node33</title>
<g id="a_node10"><a xlink:href="Group_8h.html" target="_top" xlink:title=" ">
<polygon fill="white" stroke="black" points="517.5,-118 517.5,-137 572.5,-137 572.5,-118 517.5,-118"/>
<text text-anchor="middle" x="545" y="-125" font-family="Helvetica,sans-Serif" font-size="10.00">Group.h</text>
</a>
</g>
</g>
<!-- Node1&#45;&gt;Node33 -->
<g id="edge13" class="edge">
<title>Node1&#45;&gt;Node33</title>
<path fill="none" stroke="midnightblue" d="M374.44,-246.37C410.99,-221.11 487.17,-168.46 524.07,-142.96"/>
<polygon fill="midnightblue" stroke="midnightblue" points="526.32,-145.66 532.56,-137.1 522.34,-139.9 526.32,-145.66"/>
</g>
<!-- Node34 -->
<g id="node11" class="node">
<title>Node34</title>
<g id="a_node11"><a xlink:href="GroupConflict_8h.html" target="_top" xlink:title=" ">
<polygon fill="white" stroke="black" points="497,-185 497,-204 589,-204 589,-185 497,-185"/>
<text text-anchor="middle" x="543" y="-192" font-family="Helvetica,sans-Serif" font-size="10.00">GroupConflict.h</text>
</a>
</g>
</g>
<!-- Node1&#45;&gt;Node34 -->
<g id="edge15" class="edge">
<title>Node1&#45;&gt;Node34</title>
<path fill="none" stroke="midnightblue" d="M395.01,-246.4C428.91,-234.74 476.49,-218.37 508.47,-207.38"/>
<polygon fill="midnightblue" stroke="midnightblue" points="509.95,-210.57 518.26,-204.01 507.67,-203.95 509.95,-210.57"/>
</g>
<!-- Node3 -->
<g id="node3" class="node">
<title>Node3</title>
<g id="a_node3"><a xlink:href="Problem_8h.html" target="_top" xlink:title=" ">
<polygon fill="white" stroke="red" points="125,-56.5 125,-75.5 191,-75.5 191,-56.5 125,-56.5"/>
<text text-anchor="middle" x="158" y="-63.5" font-family="Helvetica,sans-Serif" font-size="10.00">Problem.h</text>
</a>
</g>
</g>
<!-- Node2&#45;&gt;Node3 -->
<g id="edge2" class="edge">
<title>Node2&#45;&gt;Node3</title>
<path fill="none" stroke="midnightblue" d="M158,-112.4C158,-104.47 158,-94.46 158,-85.86"/>
<polygon fill="midnightblue" stroke="midnightblue" points="161.5,-85.66 158,-75.66 154.5,-85.66 161.5,-85.66"/>
</g>
<!-- Node8&#45;&gt;Node3 -->
<g id="edge4" class="edge">
<title>Node8&#45;&gt;Node3</title>
<path fill="none" stroke="midnightblue" d="M68.91,-179.25C67.14,-161.9 66.69,-132.38 80,-112 89.7,-97.15 106.12,-86.63 121.4,-79.51"/>
<polygon fill="midnightblue" stroke="midnightblue" points="122.9,-82.68 130.7,-75.51 120.13,-76.25 122.9,-82.68"/>
</g>
<!-- Node9&#45;&gt;Node3 -->
<g id="edge8" class="edge">
<title>Node9&#45;&gt;Node3</title>
<path fill="none" stroke="midnightblue" d="M395.31,-117.98C343.74,-106.9 254.01,-87.62 200.9,-76.22"/>
<polygon fill="midnightblue" stroke="midnightblue" points="201.62,-72.79 191.11,-74.11 200.15,-79.63 201.62,-72.79"/>
</g>
<!-- Node10 -->
<g id="node6" class="node">
<title>Node10</title>
<g id="a_node6"><a xlink:href="AStar_8h.html" target="_top" xlink:title=" ">
<polygon fill="white" stroke="red" points="423.5,-56.5 423.5,-75.5 474.5,-75.5 474.5,-56.5 423.5,-56.5"/>
<text text-anchor="middle" x="449" y="-63.5" font-family="Helvetica,sans-Serif" font-size="10.00">AStar.h</text>
</a>
</g>
</g>
<!-- Node9&#45;&gt;Node10 -->
<g id="edge6" class="edge">
<title>Node9&#45;&gt;Node10</title>
<path fill="none" stroke="midnightblue" d="M437.01,-117.98C439,-109.49 442.13,-96.2 444.69,-85.32"/>
<polygon fill="midnightblue" stroke="midnightblue" points="448.11,-86.04 447,-75.51 441.3,-84.44 448.11,-86.04"/>
</g>
<!-- Node29 -->
<g id="node7" class="node">
<title>Node29</title>
<g id="a_node7"><a xlink:href="Solution_8h.html" target="_top" xlink:title=" ">
<polygon fill="white" stroke="red" points="413,-0.5 413,-19.5 539,-19.5 539,-0.5 413,-0.5"/>
<text text-anchor="middle" x="476" y="-7.5" font-family="Helvetica,sans-Serif" font-size="10.00">../../Solution/Solution.h</text>
</a>
</g>
</g>
<!-- Node10&#45;&gt;Node29 -->
<g id="edge7" class="edge">
<title>Node10&#45;&gt;Node29</title>
<path fill="none" stroke="midnightblue" d="M453.46,-56.08C457.15,-48.69 462.52,-37.95 467.09,-28.81"/>
<polygon fill="midnightblue" stroke="midnightblue" points="470.28,-30.26 471.62,-19.75 464.02,-27.13 470.28,-30.26"/>
</g>
<!-- Node30&#45;&gt;Node2 -->
<g id="edge10" class="edge">
<title>Node30&#45;&gt;Node2</title>
<path fill="none" stroke="midnightblue" d="M282.01,-184.87C260.74,-175.2 225.65,-159.25 198.21,-146.78"/>
<polygon fill="midnightblue" stroke="midnightblue" points="199.41,-143.48 188.86,-142.53 196.52,-149.85 199.41,-143.48"/>
</g>
<!-- Node30&#45;&gt;Node9 -->
<g id="edge11" class="edge">
<title>Node30&#45;&gt;Node9</title>
<path fill="none" stroke="midnightblue" d="M318.79,-184.87C341.62,-173.8 381.43,-154.49 408,-141.6"/>
<polygon fill="midnightblue" stroke="midnightblue" points="409.66,-144.68 417.13,-137.17 406.61,-138.38 409.66,-144.68"/>
</g>
<!-- Node31 -->
<g id="node9" class="node">
<title>Node31</title>
<g id="a_node9"><a xlink:href="ConflictTreeNode_8h.html" target="_top" xlink:title=" ">
<polygon fill="white" stroke="red" points="245,-118 245,-137 353,-137 353,-118 245,-118"/>
<text text-anchor="middle" x="299" y="-125" font-family="Helvetica,sans-Serif" font-size="10.00">ConflictTreeNode.h</text>
</a>
</g>
</g>
<!-- Node30&#45;&gt;Node31 -->
<g id="edge12" class="edge">
<title>Node30&#45;&gt;Node31</title>
<path fill="none" stroke="midnightblue" d="M300.73,-184.73C300.44,-175.18 299.96,-159.62 299.58,-147.28"/>
<polygon fill="midnightblue" stroke="midnightblue" points="303.07,-147.01 299.27,-137.13 296.07,-147.23 303.07,-147.01"/>
</g>
<!-- Node33&#45;&gt;Node29 -->
<g id="edge14" class="edge">
<title>Node33&#45;&gt;Node29</title>
<path fill="none" stroke="midnightblue" d="M539.81,-117.82C528.53,-98.92 501.54,-53.75 486.53,-28.62"/>
<polygon fill="midnightblue" stroke="midnightblue" points="489.38,-26.57 481.25,-19.78 483.37,-30.16 489.38,-26.57"/>
</g>
<!-- Node34&#45;&gt;Node33 -->
<g id="edge16" class="edge">
<title>Node34&#45;&gt;Node33</title>
<path fill="none" stroke="midnightblue" d="M543.27,-184.73C543.56,-175.18 544.04,-159.62 544.42,-147.28"/>
<polygon fill="midnightblue" stroke="midnightblue" points="547.93,-147.23 544.73,-137.13 540.93,-147.01 547.93,-147.23"/>
</g>
</g>
</svg>
        <g id="navigator" transform="translate(0 0)" fill="#404254">
                <rect fill="#f2f5e9" fill-opacity="0.5" stroke="#606060" stroke-width=".5" x="0" y="0" width="60" height="60"/>
                <use id="zoomplus" xlink:href="#zoomPlus" x="17" y="9" onmousedown="handleZoom(evt,'in')"/>
                <use id="zoomminus" xlink:href="#zoomMin" x="42" y="9" onmousedown="handleZoom(evt,'out')"/>
                <use id="reset" xlink:href="#resetDef" x="30" y="36" onmousedown="handleReset()"/>
                <g id="arrowUp" xlink:href="#dirArrow" transform="translate(30 24)" onmousedown="handlePan(0,-1)">
                  <use xlink:href="#rim" fill="#404040">
                        <set attributeName="fill" to="#808080" begin="arrowUp.mouseover" end="arrowUp.mouseout"/>
                  </use>
                  <path fill="none" stroke="white" stroke-width="1.5" d="M0,-3.0v7 M-2.5,-0.5L0,-3.0L2.5,-0.5"/>
                </g>
                <g id="arrowRight" xlink:href="#dirArrow" transform="rotate(90) translate(36 -43)" onmousedown="handlePan(1,0)">
                  <use xlink:href="#rim" fill="#404040">
                        <set attributeName="fill" to="#808080" begin="arrowRight.mouseover" end="arrowRight.mouseout"/>
                  </use>
                  <path fill="none" stroke="white" stroke-width="1.5" d="M0,-3.0v7 M-2.5,-0.5L0,-3.0L2.5,-0.5"/>
                </g>
                <g id="arrowDown" xlink:href="#dirArrow" transform="rotate(180) translate(-30 -48)" onmousedown="handlePan(0,1)">
                  <use xlink:href="#rim" fill="#404040">
                        <set attributeName="fill" to="#808080" begin="arrowDown.mouseover" end="arrowDown.mouseout"/>
                  </use>
                  <path fill="none" stroke="white" stroke-width="1.5" d="M0,-3.0v7 M-2.5,-0.5L0,-3.0L2.5,-0.5"/>
                </g>
                <g id="arrowLeft" xlink:href="#dirArrow" transform="rotate(270) translate(-36 17)" onmousedown="handlePan(-1,0)">
                  <use xlink:href="#rim" fill="#404040">
                        <set attributeName="fill" to="#808080" begin="arrowLeft.mouseover" end="arrowLeft.mouseout"/>
                  </use>
                  <path fill="none" stroke="white" stroke-width="1.5" d="M0,-3.0v7 M-2.5,-0.5L0,-3.0L2.5,-0.5"/>
                </g>
        </g>
        <svg viewBox="0 0 15 15" width="100%" height="30px" preserveAspectRatio="xMaxYMin meet">
         <g id="arrow_out" transform="scale(0.3 0.3)">
          <a xlink:href="SimpleIndependenceDetection_8h__incl_org.svg" target="_base">
           <rect id="button" ry="5" rx="5" y="6" x="6" height="38" width="38"
                fill="#f2f5e9" fill-opacity="0.5" stroke="#606060" stroke-width="1.0"/>
           <path id="arrow"
             d="M 11.500037,31.436501 C 11.940474,20.09759 22.043105,11.32322 32.158766,21.979434 L 37.068811,17.246167 C 37.068811,17.246167 37.088388,32 37.088388,32 L 22.160133,31.978069 C 22.160133,31.978069 26.997745,27.140456 26.997745,27.140456 C 18.528582,18.264221 13.291696,25.230495 11.500037,31.436501 z"
             style="fill:#404040;"/>
          </a>
         </g>
        </svg>
</svg>
