<?xml version="1.0" encoding="UTF-8" standalone="no"?>
<!DOCTYPE svg PUBLIC "-//W3C//DTD SVG 1.1//EN"
 "http://www.w3.org/Graphics/SVG/1.1/DTD/svg11.dtd">
<!-- Generated by graphviz version 2.43.0 (0)
 -->
<!-- Title: Solvers/ID/SimpleIndependenceDetection.cpp Pages: 1 -->
<!--zoomable 788 -->
<svg id="main" version="1.1" xmlns="http://www.w3.org/2000/svg" xmlns:xlink="http://www.w3.org/1999/xlink" xml:space="preserve" onload="init(evt)">
<style type="text/css"><![CDATA[
.edge:hover path { stroke: red; }
.edge:hover polygon { stroke: red; fill: red; }
]]></style>
<script type="text/javascript"><![CDATA[
var edges = document.getElementsByTagName('g');
if (edges && edges.length) {
  for (var i=0;i<edges.length;i++) {
    if (edges[i].id.substr(0,4)=='edge') {
      edges[i].setAttribute('class','edge');
    }
  }
}
]]></script>
        <defs>
                <circle id="rim" cx="0" cy="0" r="7"/>
                <circle id="rim2" cx="0" cy="0" r="3.5"/>
                <g id="zoomPlus">
                        <use xlink:href="#rim" fill="#404040">
                                <set attributeName="fill" to="#808080" begin="zoomplus.mouseover" end="zoomplus.mouseout"/>
                        </use>
                        <path d="M-4,0h8M0,-4v8" fill="none" stroke="white" stroke-width="1.5" pointer-events="none"/>
                </g>
                <g id="zoomMin">
                        <use xlink:href="#rim" fill="#404040">
                                <set attributeName="fill" to="#808080" begin="zoomminus.mouseover" end="zoomminus.mouseout"/>
                        </use>
                        <path d="M-4,0h8" fill="none" stroke="white" stroke-width="1.5" pointer-events="none"/>
                </g>
                <g id="dirArrow">
                        <path fill="none" stroke="white" stroke-width="1.5" d="M0,-3.0v7 M-2.5,-0.5L0,-3.0L2.5,-0.5"/>
                </g>
               <g id="resetDef">
                       <use xlink:href="#rim2" fill="#404040">
                               <set attributeName="fill" to="#808080" begin="reset.mouseover" end="reset.mouseout"/>
                       </use>
               </g>
        </defs>

<script type="text/javascript">
var viewWidth = 1521;
var viewHeight = 788;
var sectionId = 'dynsection-0';
</script>
<script xlink:href="svgpan.js"/>
<svg id="graph" class="graph">
<g id="viewport">
<title>Solvers/ID/SimpleIndependenceDetection.cpp</title>
<polygon fill="white" stroke="transparent" points="-4,4 -4,-784 1517,-784 1517,4 -4,4"/>
<!-- Node1 -->
<g id="node1" class="node">
<title>Node1</title>
<g id="a_node1"><a xlink:title=" ">
<polygon fill="#bfbfbf" stroke="black" points="721.5,-749.5 721.5,-779.5 892.5,-779.5 892.5,-749.5 721.5,-749.5"/>
<text text-anchor="start" x="729.5" y="-767.5" font-family="Helvetica,sans-Serif" font-size="10.00">Solvers/ID/SimpleIndependence</text>
<text text-anchor="middle" x="807" y="-756.5" font-family="Helvetica,sans-Serif" font-size="10.00">Detection.cpp</text>
</a>
</g>
</g>
<!-- Node2 -->
<g id="node2" class="node">
<title>Node2</title>
<g id="a_node2"><a xlink:href="SimpleIndependenceDetection_8h.html" target="_top" xlink:title=" ">
<polygon fill="white" stroke="black" points="719.5,-693.5 719.5,-712.5 894.5,-712.5 894.5,-693.5 719.5,-693.5"/>
<text text-anchor="middle" x="807" y="-700.5" font-family="Helvetica,sans-Serif" font-size="10.00">SimpleIndependenceDetection.h</text>
</a>
</g>
</g>
<!-- Node1&#45;&gt;Node2 -->
<g id="edge1" class="edge">
<title>Node1&#45;&gt;Node2</title>
<path fill="none" stroke="midnightblue" d="M807,-749.4C807,-741.47 807,-731.46 807,-722.86"/>
<polygon fill="midnightblue" stroke="midnightblue" points="810.5,-722.66 807,-712.66 803.5,-722.66 810.5,-722.66"/>
</g>
<!-- Node3 -->
<g id="node3" class="node">
<title>Node3</title>
<g id="a_node3"><a xlink:href="MultiAgentProblem_8h.html" target="_top" xlink:title=" ">
<polygon fill="white" stroke="black" points="301.5,-190.5 301.5,-220.5 438.5,-220.5 438.5,-190.5 301.5,-190.5"/>
<text text-anchor="start" x="309.5" y="-208.5" font-family="Helvetica,sans-Serif" font-size="10.00">../../Problems/MultiAgent</text>
<text text-anchor="middle" x="370" y="-197.5" font-family="Helvetica,sans-Serif" font-size="10.00">Problem.h</text>
</a>
</g>
</g>
<!-- Node2&#45;&gt;Node3 -->
<g id="edge2" class="edge">
<title>Node2&#45;&gt;Node3</title>
<path fill="none" stroke="midnightblue" d="M779.83,-693.46C680.57,-660.6 336.76,-531.83 209,-288 188.21,-248.33 240.86,-227.55 291.4,-216.93"/>
<polygon fill="midnightblue" stroke="midnightblue" points="292.33,-220.32 301.46,-214.94 290.97,-213.45 292.33,-220.32"/>
</g>
<!-- Node9 -->
<g id="node9" class="node">
<title>Node9</title>
<g id="a_node9"><a xlink:href="SingleAgentProblem_8h.html" target="_top" xlink:title=" ">
<polygon fill="white" stroke="black" points="1067,-190.5 1067,-220.5 1209,-220.5 1209,-190.5 1067,-190.5"/>
<text text-anchor="start" x="1075" y="-208.5" font-family="Helvetica,sans-Serif" font-size="10.00">../../Problems/SingleAgent</text>
<text text-anchor="middle" x="1138" y="-197.5" font-family="Helvetica,sans-Serif" font-size="10.00">Problem.h</text>
</a>
</g>
</g>
<!-- Node2&#45;&gt;Node9 -->
<g id="edge8" class="edge">
<title>Node2&#45;&gt;Node9</title>
<path fill="none" stroke="midnightblue" d="M894.74,-702.25C1049.55,-700.31 1355,-684.73 1355,-592 1355,-592 1355,-592 1355,-534 1355,-409.96 1467.58,-352.97 1389,-257 1367.75,-231.05 1284.31,-218.14 1219.4,-211.92"/>
<polygon fill="midnightblue" stroke="midnightblue" points="1219.44,-208.41 1209.16,-210.98 1218.79,-215.38 1219.44,-208.41"/>
</g>
<!-- Node10 -->
<g id="node10" class="node">
<title>Node10</title>
<g id="a_node10"><a xlink:href="GeneralAStar_8h.html" target="_top" xlink:title=" ">
<polygon fill="white" stroke="black" points="104,-581.5 104,-600.5 232,-600.5 232,-581.5 104,-581.5"/>
<text text-anchor="middle" x="168" y="-588.5" font-family="Helvetica,sans-Serif" font-size="10.00">../AStar/GeneralAStar.h</text>
</a>
</g>
</g>
<!-- Node2&#45;&gt;Node10 -->
<g id="edge10" class="edge">
<title>Node2&#45;&gt;Node10</title>
<path fill="none" stroke="midnightblue" d="M719.41,-701.39C583.66,-699.38 329.4,-691.03 246,-657 220.11,-646.44 196.36,-624.01 182.03,-608.47"/>
<polygon fill="midnightblue" stroke="midnightblue" points="184.35,-605.82 175.09,-600.67 179.12,-610.47 184.35,-605.82"/>
</g>
<!-- Node31 -->
<g id="node31" class="node">
<title>Node31</title>
<g id="a_node31"><a xlink:href="ConflictBasedSearch_8h.html" target="_top" xlink:title=" ">
<polygon fill="white" stroke="black" points="7.5,-637.5 7.5,-656.5 164.5,-656.5 164.5,-637.5 7.5,-637.5"/>
<text text-anchor="middle" x="86" y="-644.5" font-family="Helvetica,sans-Serif" font-size="10.00">../CBS/ConflictBasedSearch.h</text>
</a>
</g>
</g>
<!-- Node2&#45;&gt;Node31 -->
<g id="edge53" class="edge">
<title>Node2&#45;&gt;Node31</title>
<path fill="none" stroke="midnightblue" d="M719.5,-695.71C601.19,-687.17 383.64,-671.32 198,-657 190.41,-656.41 182.53,-655.8 174.63,-655.17"/>
<polygon fill="midnightblue" stroke="midnightblue" points="174.87,-651.68 164.63,-654.38 174.32,-658.66 174.87,-651.68"/>
</g>
<!-- Node34 -->
<g id="node34" class="node">
<title>Node34</title>
<g id="a_node34"><a xlink:href="Group_8h.html" target="_top" xlink:title=" ">
<polygon fill="white" stroke="black" points="1418.5,-581.5 1418.5,-600.5 1473.5,-600.5 1473.5,-581.5 1418.5,-581.5"/>
<text text-anchor="middle" x="1446" y="-588.5" font-family="Helvetica,sans-Serif" font-size="10.00">Group.h</text>
</a>
</g>
</g>
<!-- Node2&#45;&gt;Node34 -->
<g id="edge60" class="edge">
<title>Node2&#45;&gt;Node34</title>
<path fill="none" stroke="midnightblue" d="M894.77,-701.47C1030.79,-699.56 1285.56,-691.35 1369,-657 1394.66,-646.44 1418.08,-624.01 1432.19,-608.47"/>
<polygon fill="midnightblue" stroke="midnightblue" points="1435.07,-610.5 1439.03,-600.67 1429.8,-605.89 1435.07,-610.5"/>
</g>
<!-- Node35 -->
<g id="node35" class="node">
<title>Node35</title>
<g id="a_node35"><a xlink:href="GroupConflict_8h.html" target="_top" xlink:title=" ">
<polygon fill="white" stroke="black" points="1421,-637.5 1421,-656.5 1513,-656.5 1513,-637.5 1421,-637.5"/>
<text text-anchor="middle" x="1467" y="-644.5" font-family="Helvetica,sans-Serif" font-size="10.00">GroupConflict.h</text>
</a>
</g>
</g>
<!-- Node2&#45;&gt;Node35 -->
<g id="edge62" class="edge">
<title>Node2&#45;&gt;Node35</title>
<path fill="none" stroke="midnightblue" d="M894.63,-697.47C1011.66,-690.94 1225.34,-677.41 1407,-657 1408.27,-656.86 1409.55,-656.71 1410.84,-656.55"/>
<polygon fill="midnightblue" stroke="midnightblue" points="1411.38,-660.01 1420.86,-655.27 1410.49,-653.07 1411.38,-660.01"/>
</g>
<!-- Node4 -->
<g id="node4" class="node">
<title>Node4</title>
<g id="a_node4"><a xlink:href="Problem_8h.html" target="_top" xlink:title=" ">
<polygon fill="white" stroke="black" points="307,-129 307,-148 373,-148 373,-129 307,-129"/>
<text text-anchor="middle" x="340" y="-136" font-family="Helvetica,sans-Serif" font-size="10.00">Problem.h</text>
</a>
</g>
</g>
<!-- Node3&#45;&gt;Node4 -->
<g id="edge3" class="edge">
<title>Node3&#45;&gt;Node4</title>
<path fill="none" stroke="midnightblue" d="M363.49,-190.4C359.04,-180.76 353.11,-167.91 348.32,-157.54"/>
<polygon fill="midnightblue" stroke="midnightblue" points="351.38,-155.81 344.01,-148.19 345.03,-158.74 351.38,-155.81"/>
</g>
<!-- Node5 -->
<g id="node5" class="node">
<title>Node5</title>
<g id="a_node5"><a xlink:href="ConstraintsSet_8h.html" target="_top" xlink:title=" ">
<polygon fill="white" stroke="black" points="270,-56.5 270,-86.5 410,-86.5 410,-56.5 270,-56.5"/>
<text text-anchor="start" x="278" y="-74.5" font-family="Helvetica,sans-Serif" font-size="10.00">../Constraints/Constraints</text>
<text text-anchor="middle" x="340" y="-63.5" font-family="Helvetica,sans-Serif" font-size="10.00">Set.h</text>
</a>
</g>
</g>
<!-- Node4&#45;&gt;Node5 -->
<g id="edge4" class="edge">
<title>Node4&#45;&gt;Node5</title>
<path fill="none" stroke="midnightblue" d="M340,-128.73C340,-120.54 340,-107.92 340,-96.71"/>
<polygon fill="midnightblue" stroke="midnightblue" points="343.5,-96.59 340,-86.59 336.5,-96.59 343.5,-96.59"/>
</g>
<!-- Node8 -->
<g id="node8" class="node">
<title>Node8</title>
<g id="a_node8"><a xlink:href="Graph_8h.html" target="_top" xlink:title=" ">
<polygon fill="white" stroke="black" points="126,-62 126,-81 252,-81 252,-62 126,-62"/>
<text text-anchor="middle" x="189" y="-69" font-family="Helvetica,sans-Serif" font-size="10.00">../GraphParser/Graph.h</text>
</a>
</g>
</g>
<!-- Node4&#45;&gt;Node8 -->
<g id="edge7" class="edge">
<title>Node4&#45;&gt;Node8</title>
<path fill="none" stroke="midnightblue" d="M319.95,-128.87C294,-117.7 248.58,-98.15 218.64,-85.26"/>
<polygon fill="midnightblue" stroke="midnightblue" points="219.7,-81.91 209.13,-81.17 216.94,-88.34 219.7,-81.91"/>
</g>
<!-- Node6 -->
<g id="node6" class="node">
<title>Node6</title>
<g id="a_node6"><a xlink:href="EdgeConstraint_8h.html" target="_top" xlink:title=" ">
<polygon fill="white" stroke="black" points="143,-0.5 143,-19.5 243,-19.5 243,-0.5 143,-0.5"/>
<text text-anchor="middle" x="193" y="-7.5" font-family="Helvetica,sans-Serif" font-size="10.00">EdgeConstraint.h</text>
</a>
</g>
</g>
<!-- Node5&#45;&gt;Node6 -->
<g id="edge5" class="edge">
<title>Node5&#45;&gt;Node6</title>
<path fill="none" stroke="midnightblue" d="M305.16,-56.4C280.5,-46.42 247.71,-33.15 223.97,-23.53"/>
<polygon fill="midnightblue" stroke="midnightblue" points="224.97,-20.17 214.39,-19.66 222.35,-26.65 224.97,-20.17"/>
</g>
<!-- Node7 -->
<g id="node7" class="node">
<title>Node7</title>
<g id="a_node7"><a xlink:href="VertexConstraint_8h.html" target="_top" xlink:title=" ">
<polygon fill="white" stroke="black" points="286.5,-0.5 286.5,-19.5 393.5,-19.5 393.5,-0.5 286.5,-0.5"/>
<text text-anchor="middle" x="340" y="-7.5" font-family="Helvetica,sans-Serif" font-size="10.00">VertexConstraint.h</text>
</a>
</g>
</g>
<!-- Node5&#45;&gt;Node7 -->
<g id="edge6" class="edge">
<title>Node5&#45;&gt;Node7</title>
<path fill="none" stroke="midnightblue" d="M340,-56.4C340,-48.47 340,-38.46 340,-29.86"/>
<polygon fill="midnightblue" stroke="midnightblue" points="343.5,-29.66 340,-19.66 336.5,-29.66 343.5,-29.66"/>
</g>
<!-- Node9&#45;&gt;Node4 -->
<g id="edge9" class="edge">
<title>Node9&#45;&gt;Node4</title>
<path fill="none" stroke="midnightblue" d="M1066.94,-196.29C1046.33,-194.07 1023.78,-191.79 1003,-190 755.4,-168.73 692.25,-179.01 445,-154 424.61,-151.94 402.09,-148.92 383.15,-146.18"/>
<polygon fill="midnightblue" stroke="midnightblue" points="383.43,-142.68 373.03,-144.69 382.41,-149.61 383.43,-142.68"/>
</g>
<!-- Node10&#45;&gt;Node4 -->
<g id="edge52" class="edge">
<title>Node10&#45;&gt;Node4</title>
<path fill="none" stroke="midnightblue" d="M163.8,-581.25C145.08,-540.89 73.03,-369.96 138,-257 172.06,-197.78 248.72,-165.63 297.19,-150.56"/>
<polygon fill="midnightblue" stroke="midnightblue" points="298.21,-153.9 306.79,-147.68 296.2,-147.2 298.21,-153.9"/>
</g>
<!-- Node11 -->
<g id="node11" class="node">
<title>Node11</title>
<g id="a_node11"><a xlink:href="AStar_8h.html" target="_top" xlink:title=" ">
<polygon fill="white" stroke="black" points="885.5,-525.5 885.5,-544.5 936.5,-544.5 936.5,-525.5 885.5,-525.5"/>
<text text-anchor="middle" x="911" y="-532.5" font-family="Helvetica,sans-Serif" font-size="10.00">AStar.h</text>
</a>
</g>
</g>
<!-- Node10&#45;&gt;Node11 -->
<g id="edge11" class="edge">
<title>Node10&#45;&gt;Node11</title>
<path fill="none" stroke="midnightblue" d="M232.31,-585.33C383.42,-574.34 757.16,-547.18 874.89,-538.62"/>
<polygon fill="midnightblue" stroke="midnightblue" points="875.43,-542.09 885.15,-537.88 874.92,-535.11 875.43,-542.09"/>
</g>
<!-- Node12 -->
<g id="node12" class="node">
<title>Node12</title>
<g id="a_node12"><a xlink:href="AStarProblem_8h.html" target="_top" xlink:title=" ">
<polygon fill="white" stroke="black" points="887.5,-190.5 887.5,-220.5 994.5,-220.5 994.5,-190.5 887.5,-190.5"/>
<text text-anchor="start" x="895.5" y="-208.5" font-family="Helvetica,sans-Serif" font-size="10.00">../../AStarProblems</text>
<text text-anchor="middle" x="941" y="-197.5" font-family="Helvetica,sans-Serif" font-size="10.00">/AStarProblem.h</text>
</a>
</g>
</g>
<!-- Node11&#45;&gt;Node12 -->
<g id="edge12" class="edge">
<title>Node11&#45;&gt;Node12</title>
<path fill="none" stroke="midnightblue" d="M924.77,-525.42C951.97,-507.27 1010,-462.16 1010,-407.5 1010,-407.5 1010,-407.5 1010,-338.5 1010,-301.31 1008.99,-289.56 991,-257 984.91,-245.97 975.72,-235.71 966.88,-227.36"/>
<polygon fill="midnightblue" stroke="midnightblue" points="969.06,-224.61 959.29,-220.53 964.39,-229.82 969.06,-224.61"/>
</g>
<!-- Node13 -->
<g id="node13" class="node">
<title>Node13</title>
<g id="a_node13"><a xlink:href="HeuristicOptimal_8h.html" target="_top" xlink:title=" ">
<polygon fill="white" stroke="black" points="797,-458.5 797,-488.5 927,-488.5 927,-458.5 797,-458.5"/>
<text text-anchor="start" x="805" y="-476.5" font-family="Helvetica,sans-Serif" font-size="10.00">../../Heuristics/Heuristic</text>
<text text-anchor="middle" x="862" y="-465.5" font-family="Helvetica,sans-Serif" font-size="10.00">Optimal.h</text>
</a>
</g>
</g>
<!-- Node11&#45;&gt;Node13 -->
<g id="edge13" class="edge">
<title>Node11&#45;&gt;Node13</title>
<path fill="none" stroke="midnightblue" d="M903.98,-525.48C897.72,-517.87 888.27,-506.4 879.92,-496.26"/>
<polygon fill="midnightblue" stroke="midnightblue" points="882.61,-494.02 873.55,-488.52 877.2,-498.47 882.61,-494.02"/>
</g>
<!-- Node30 -->
<g id="node30" class="node">
<title>Node30</title>
<g id="a_node30"><a xlink:href="Solution_8h.html" target="_top" xlink:title=" ">
<polygon fill="white" stroke="black" points="1383,-464 1383,-483 1509,-483 1509,-464 1383,-464"/>
<text text-anchor="middle" x="1446" y="-471" font-family="Helvetica,sans-Serif" font-size="10.00">../../Solution/Solution.h</text>
</a>
</g>
</g>
<!-- Node11&#45;&gt;Node30 -->
<g id="edge50" class="edge">
<title>Node11&#45;&gt;Node30</title>
<path fill="none" stroke="midnightblue" d="M936.8,-531.13C1014.99,-522.43 1251.32,-496.15 1372.55,-482.67"/>
<polygon fill="midnightblue" stroke="midnightblue" points="1373.29,-486.11 1382.85,-481.52 1372.52,-479.15 1373.29,-486.11"/>
</g>
<!-- Node13&#45;&gt;Node8 -->
<g id="edge14" class="edge">
<title>Node13&#45;&gt;Node8</title>
<path fill="none" stroke="midnightblue" d="M796.93,-469.12C614.94,-457.91 114,-414.26 114,-273.5 114,-273.5 114,-273.5 114,-204.5 114,-157.34 150.63,-111.63 172.69,-88.37"/>
<polygon fill="midnightblue" stroke="midnightblue" points="175.3,-90.71 179.8,-81.12 170.3,-85.81 175.3,-90.71"/>
</g>
<!-- Node14 -->
<g id="node14" class="node">
<title>Node14</title>
<g id="a_node14"><a xlink:href="ReverseResumableAStar_8h.html" target="_top" xlink:title=" ">
<polygon fill="white" stroke="black" points="845,-391.5 845,-421.5 979,-421.5 979,-391.5 845,-391.5"/>
<text text-anchor="start" x="853" y="-409.5" font-family="Helvetica,sans-Serif" font-size="10.00">../Solvers/AStar/Reverse</text>
<text text-anchor="middle" x="912" y="-398.5" font-family="Helvetica,sans-Serif" font-size="10.00">ResumableAStar.h</text>
</a>
</g>
</g>
<!-- Node13&#45;&gt;Node14 -->
<g id="edge15" class="edge">
<title>Node13&#45;&gt;Node14</title>
<path fill="none" stroke="midnightblue" d="M872.85,-458.4C879.34,-449.96 887.72,-439.07 895.06,-429.52"/>
<polygon fill="midnightblue" stroke="midnightblue" points="897.85,-431.64 901.17,-421.58 892.3,-427.37 897.85,-431.64"/>
</g>
<!-- Node18 -->
<g id="node18" class="node">
<title>Node18</title>
<g id="a_node18"><a xlink:href="HeuristicManhattan_8h.html" target="_top" xlink:title=" ">
<polygon fill="white" stroke="black" points="744,-324.5 744,-354.5 874,-354.5 874,-324.5 744,-324.5"/>
<text text-anchor="start" x="752" y="-342.5" font-family="Helvetica,sans-Serif" font-size="10.00">../../Heuristics/Heuristic</text>
<text text-anchor="middle" x="809" y="-331.5" font-family="Helvetica,sans-Serif" font-size="10.00">Manhattan.h</text>
</a>
</g>
</g>
<!-- Node13&#45;&gt;Node18 -->
<g id="edge49" class="edge">
<title>Node13&#45;&gt;Node18</title>
<path fill="none" stroke="midnightblue" d="M853.88,-458.2C848.41,-448.24 841.27,-434.55 836,-422 828.04,-403.06 820.83,-380.89 815.86,-364.46"/>
<polygon fill="midnightblue" stroke="midnightblue" points="819.13,-363.18 812.94,-354.59 812.42,-365.17 819.13,-363.18"/>
</g>
<!-- Node15 -->
<g id="node15" class="node">
<title>Node15</title>
<g id="a_node15"><a xlink:href="SingleAgentAStarProblem_8h.html" target="_top" xlink:title=" ">
<polygon fill="white" stroke="black" points="1226,-257.5 1226,-287.5 1380,-287.5 1380,-257.5 1226,-257.5"/>
<text text-anchor="start" x="1234" y="-275.5" font-family="Helvetica,sans-Serif" font-size="10.00">../../AStarProblems</text>
<text text-anchor="middle" x="1303" y="-264.5" font-family="Helvetica,sans-Serif" font-size="10.00">/SingleAgentAStarProblem.h</text>
</a>
</g>
</g>
<!-- Node14&#45;&gt;Node15 -->
<g id="edge16" class="edge">
<title>Node14&#45;&gt;Node15</title>
<path fill="none" stroke="midnightblue" d="M953.47,-391.5C1025.47,-367.19 1173.37,-317.26 1251.71,-290.82"/>
<polygon fill="midnightblue" stroke="midnightblue" points="1253.01,-294.07 1261.36,-287.56 1250.77,-287.44 1253.01,-294.07"/>
</g>
<!-- Node14&#45;&gt;Node18 -->
<g id="edge21" class="edge">
<title>Node14&#45;&gt;Node18</title>
<path fill="none" stroke="midnightblue" d="M889.65,-391.4C875.07,-382.2 855.85,-370.07 839.83,-359.95"/>
<polygon fill="midnightblue" stroke="midnightblue" points="841.63,-356.95 831.31,-354.58 837.89,-362.87 841.63,-356.95"/>
</g>
<!-- Node29 -->
<g id="node29" class="node">
<title>Node29</title>
<g id="a_node29"><a xlink:href="Node_8h.html" target="_top" xlink:title=" ">
<polygon fill="white" stroke="black" points="892.5,-330 892.5,-349 943.5,-349 943.5,-330 892.5,-330"/>
<text text-anchor="middle" x="918" y="-337" font-family="Helvetica,sans-Serif" font-size="10.00">Node.h</text>
</a>
</g>
</g>
<!-- Node14&#45;&gt;Node29 -->
<g id="edge48" class="edge">
<title>Node14&#45;&gt;Node29</title>
<path fill="none" stroke="midnightblue" d="M913.3,-391.4C914.17,-381.96 915.33,-369.45 916.27,-359.19"/>
<polygon fill="midnightblue" stroke="midnightblue" points="919.76,-359.47 917.2,-349.19 912.79,-358.83 919.76,-359.47"/>
</g>
<!-- Node15&#45;&gt;Node9 -->
<g id="edge17" class="edge">
<title>Node15&#45;&gt;Node9</title>
<path fill="none" stroke="midnightblue" d="M1267.2,-257.4C1242.55,-247.69 1209.61,-234.71 1183.16,-224.29"/>
<polygon fill="midnightblue" stroke="midnightblue" points="1184.32,-220.99 1173.73,-220.58 1181.75,-227.5 1184.32,-220.99"/>
</g>
<!-- Node15&#45;&gt;Node12 -->
<g id="edge20" class="edge">
<title>Node15&#45;&gt;Node12</title>
<path fill="none" stroke="midnightblue" d="M1225.79,-257.64C1159.89,-245.8 1066.28,-229 1004.62,-217.92"/>
<polygon fill="midnightblue" stroke="midnightblue" points="1005.09,-214.45 994.63,-216.13 1003.86,-221.34 1005.09,-214.45"/>
</g>
<!-- Node16 -->
<g id="node16" class="node">
<title>Node16</title>
<g id="a_node16"><a xlink:href="SingleAgentState_8h.html" target="_top" xlink:title=" ">
<polygon fill="white" stroke="black" points="1137,-129 1137,-148 1289,-148 1289,-129 1137,-129"/>
<text text-anchor="middle" x="1213" y="-136" font-family="Helvetica,sans-Serif" font-size="10.00">../States/SingleAgentState.h</text>
</a>
</g>
</g>
<!-- Node15&#45;&gt;Node16 -->
<g id="edge18" class="edge">
<title>Node15&#45;&gt;Node16</title>
<path fill="none" stroke="midnightblue" d="M1293.37,-257.37C1276.73,-232.97 1242.66,-183 1224.69,-156.65"/>
<polygon fill="midnightblue" stroke="midnightblue" points="1227.39,-154.39 1218.86,-148.1 1221.6,-158.33 1227.39,-154.39"/>
</g>
<!-- Node17 -->
<g id="node17" class="node">
<title>Node17</title>
<g id="a_node17"><a xlink:href="State_8h.html" target="_top" xlink:title=" ">
<polygon fill="white" stroke="black" points="918.5,-62 918.5,-81 969.5,-81 969.5,-62 918.5,-62"/>
<text text-anchor="middle" x="944" y="-69" font-family="Helvetica,sans-Serif" font-size="10.00">State.h</text>
</a>
</g>
</g>
<!-- Node16&#45;&gt;Node17 -->
<g id="edge19" class="edge">
<title>Node16&#45;&gt;Node17</title>
<path fill="none" stroke="midnightblue" d="M1177.56,-128.94C1126.17,-116.52 1031.5,-93.64 979.87,-81.17"/>
<polygon fill="midnightblue" stroke="midnightblue" points="980.39,-77.69 969.84,-78.74 978.74,-84.5 980.39,-77.69"/>
</g>
<!-- Node18&#45;&gt;Node15 -->
<g id="edge32" class="edge">
<title>Node18&#45;&gt;Node15</title>
<path fill="none" stroke="midnightblue" d="M874.32,-325.38C877.25,-324.9 880.15,-324.43 883,-324 1027.45,-302.11 1067.39,-308.14 1215.75,-288.12"/>
<polygon fill="midnightblue" stroke="midnightblue" points="1216.24,-291.58 1225.68,-286.76 1215.3,-284.65 1216.24,-291.58"/>
</g>
<!-- Node19 -->
<g id="node19" class="node">
<title>Node19</title>
<g id="a_node19"><a xlink:href="ODMultiAgentAStarProblem_8h.html" target="_top" xlink:title=" ">
<polygon fill="white" stroke="black" points="218,-257.5 218,-287.5 358,-287.5 358,-257.5 218,-257.5"/>
<text text-anchor="start" x="226" y="-275.5" font-family="Helvetica,sans-Serif" font-size="10.00">../AStarProblems/ODMulti</text>
<text text-anchor="middle" x="288" y="-264.5" font-family="Helvetica,sans-Serif" font-size="10.00">AgentAStarProblem.h</text>
</a>
</g>
</g>
<!-- Node18&#45;&gt;Node19 -->
<g id="edge22" class="edge">
<title>Node18&#45;&gt;Node19</title>
<path fill="none" stroke="midnightblue" d="M743.66,-332.43C659.27,-324.28 507.63,-308.58 368.19,-288.12"/>
<polygon fill="midnightblue" stroke="midnightblue" points="368.57,-284.64 358.17,-286.63 367.55,-291.56 368.57,-284.64"/>
</g>
<!-- Node21 -->
<g id="node21" class="node">
<title>Node21</title>
<g id="a_node21"><a xlink:href="ODMultiAgentAStarProblemWithConstraints_8h.html" target="_top" xlink:title=" ">
<polygon fill="white" stroke="black" points="376.5,-257.5 376.5,-287.5 575.5,-287.5 575.5,-257.5 376.5,-257.5"/>
<text text-anchor="start" x="384.5" y="-275.5" font-family="Helvetica,sans-Serif" font-size="10.00">../AStarProblems/ODMulti</text>
<text text-anchor="middle" x="476" y="-264.5" font-family="Helvetica,sans-Serif" font-size="10.00">AgentAStarProblemWithConstraints.h</text>
</a>
</g>
</g>
<!-- Node18&#45;&gt;Node21 -->
<g id="edge27" class="edge">
<title>Node18&#45;&gt;Node21</title>
<path fill="none" stroke="midnightblue" d="M743.61,-325.74C690.45,-315.36 615.16,-300.66 557.98,-289.5"/>
<polygon fill="midnightblue" stroke="midnightblue" points="558.37,-286.01 547.88,-287.53 557.03,-292.88 558.37,-286.01"/>
</g>
<!-- Node23 -->
<g id="node23" class="node">
<title>Node23</title>
<g id="a_node23"><a xlink:href="SingleAgentAStarProblemWithConstraints_8h.html" target="_top" xlink:title=" ">
<polygon fill="white" stroke="black" points="1038,-257.5 1038,-287.5 1208,-287.5 1208,-257.5 1038,-257.5"/>
<text text-anchor="start" x="1046" y="-275.5" font-family="Helvetica,sans-Serif" font-size="10.00">../AStarProblems/SingleAgent</text>
<text text-anchor="middle" x="1123" y="-264.5" font-family="Helvetica,sans-Serif" font-size="10.00">AStarProblemWithConstraints.h</text>
</a>
</g>
</g>
<!-- Node18&#45;&gt;Node23 -->
<g id="edge33" class="edge">
<title>Node18&#45;&gt;Node23</title>
<path fill="none" stroke="midnightblue" d="M874.06,-325.03C923.84,-314.73 992.67,-300.48 1045.34,-289.58"/>
<polygon fill="midnightblue" stroke="midnightblue" points="1046.23,-292.97 1055.31,-287.51 1044.81,-286.11 1046.23,-292.97"/>
</g>
<!-- Node25 -->
<g id="node25" class="node">
<title>Node25</title>
<g id="a_node25"><a xlink:href="StandardMultiAgentAStarProblem_8h.html" target="_top" xlink:title=" ">
<polygon fill="white" stroke="black" points="836,-257.5 836,-287.5 982,-287.5 982,-257.5 836,-257.5"/>
<text text-anchor="start" x="844" y="-275.5" font-family="Helvetica,sans-Serif" font-size="10.00">../AStarProblems/Standard</text>
<text text-anchor="middle" x="909" y="-264.5" font-family="Helvetica,sans-Serif" font-size="10.00">MultiAgentAStarProblem.h</text>
</a>
</g>
</g>
<!-- Node18&#45;&gt;Node25 -->
<g id="edge38" class="edge">
<title>Node18&#45;&gt;Node25</title>
<path fill="none" stroke="midnightblue" d="M830.7,-324.4C844.72,-315.28 863.17,-303.29 878.64,-293.24"/>
<polygon fill="midnightblue" stroke="midnightblue" points="880.87,-295.96 887.34,-287.58 877.05,-290.09 880.87,-295.96"/>
</g>
<!-- Node27 -->
<g id="node27" class="node">
<title>Node27</title>
<g id="a_node27"><a xlink:href="StandardMultiAgentAStarProblemWithConstraints_8h.html" target="_top" xlink:title=" ">
<polygon fill="white" stroke="black" points="594,-257.5 594,-287.5 818,-287.5 818,-257.5 594,-257.5"/>
<text text-anchor="start" x="602" y="-275.5" font-family="Helvetica,sans-Serif" font-size="10.00">../AStarProblems/Standard</text>
<text text-anchor="middle" x="706" y="-264.5" font-family="Helvetica,sans-Serif" font-size="10.00">MultiAgentAStarProblemWithConstraints.h</text>
</a>
</g>
</g>
<!-- Node18&#45;&gt;Node27 -->
<g id="edge43" class="edge">
<title>Node18&#45;&gt;Node27</title>
<path fill="none" stroke="midnightblue" d="M786.65,-324.4C772.07,-315.2 752.85,-303.07 736.83,-292.95"/>
<polygon fill="midnightblue" stroke="midnightblue" points="738.63,-289.95 728.31,-287.58 734.89,-295.87 738.63,-289.95"/>
</g>
<!-- Node19&#45;&gt;Node3 -->
<g id="edge23" class="edge">
<title>Node19&#45;&gt;Node3</title>
<path fill="none" stroke="midnightblue" d="M305.79,-257.4C317.08,-248.45 331.85,-236.74 344.39,-226.8"/>
<polygon fill="midnightblue" stroke="midnightblue" points="346.58,-229.53 352.24,-220.58 342.23,-224.05 346.58,-229.53"/>
</g>
<!-- Node19&#45;&gt;Node12 -->
<g id="edge26" class="edge">
<title>Node19&#45;&gt;Node12</title>
<path fill="none" stroke="midnightblue" d="M358.15,-258.23C361.14,-257.79 364.1,-257.38 367,-257 571.23,-230.37 624.14,-242.23 829,-221 844.6,-219.38 861.38,-217.36 877.09,-215.35"/>
<polygon fill="midnightblue" stroke="midnightblue" points="877.77,-218.79 887.23,-214.03 876.86,-211.85 877.77,-218.79"/>
</g>
<!-- Node20 -->
<g id="node20" class="node">
<title>Node20</title>
<g id="a_node20"><a xlink:href="ODMultiAgentState_8h.html" target="_top" xlink:title=" ">
<polygon fill="white" stroke="black" points="454,-129 454,-148 616,-148 616,-129 454,-129"/>
<text text-anchor="middle" x="535" y="-136" font-family="Helvetica,sans-Serif" font-size="10.00">../States/ODMultiAgentState.h</text>
</a>
</g>
</g>
<!-- Node19&#45;&gt;Node20 -->
<g id="edge24" class="edge">
<title>Node19&#45;&gt;Node20</title>
<path fill="none" stroke="midnightblue" d="M283.97,-257.23C279.85,-239.3 276.07,-208.63 292,-190 311.73,-166.93 383.36,-153.96 443.78,-146.95"/>
<polygon fill="midnightblue" stroke="midnightblue" points="444.2,-150.43 453.75,-145.84 443.43,-143.47 444.2,-150.43"/>
</g>
<!-- Node20&#45;&gt;Node17 -->
<g id="edge25" class="edge">
<title>Node20&#45;&gt;Node17</title>
<path fill="none" stroke="midnightblue" d="M588.89,-128.94C673.86,-115.43 836.69,-89.55 908.49,-78.14"/>
<polygon fill="midnightblue" stroke="midnightblue" points="909.08,-81.59 918.4,-76.57 907.98,-74.68 909.08,-81.59"/>
</g>
<!-- Node21&#45;&gt;Node3 -->
<g id="edge28" class="edge">
<title>Node21&#45;&gt;Node3</title>
<path fill="none" stroke="midnightblue" d="M453,-257.4C438,-248.2 418.21,-236.07 401.73,-225.95"/>
<polygon fill="midnightblue" stroke="midnightblue" points="403.31,-222.82 392.96,-220.58 399.65,-228.79 403.31,-222.82"/>
</g>
<!-- Node21&#45;&gt;Node12 -->
<g id="edge31" class="edge">
<title>Node21&#45;&gt;Node12</title>
<path fill="none" stroke="midnightblue" d="M575.75,-257.56C667.06,-244.79 799.43,-226.29 877.22,-215.42"/>
<polygon fill="midnightblue" stroke="midnightblue" points="877.94,-218.85 887.36,-214 876.97,-211.92 877.94,-218.85"/>
</g>
<!-- Node22 -->
<g id="node22" class="node">
<title>Node22</title>
<g id="a_node22"><a xlink:href="ODMultiAgentSpaceTimeState_8h.html" target="_top" xlink:title=" ">
<polygon fill="white" stroke="black" points="456.5,-190.5 456.5,-220.5 613.5,-220.5 613.5,-190.5 456.5,-190.5"/>
<text text-anchor="start" x="464.5" y="-208.5" font-family="Helvetica,sans-Serif" font-size="10.00">../States/ODMultiAgentSpace</text>
<text text-anchor="middle" x="535" y="-197.5" font-family="Helvetica,sans-Serif" font-size="10.00">TimeState.h</text>
</a>
</g>
</g>
<!-- Node21&#45;&gt;Node22 -->
<g id="edge29" class="edge">
<title>Node21&#45;&gt;Node22</title>
<path fill="none" stroke="midnightblue" d="M488.8,-257.4C496.53,-248.88 506.55,-237.85 515.27,-228.23"/>
<polygon fill="midnightblue" stroke="midnightblue" points="518.09,-230.33 522.22,-220.58 512.91,-225.63 518.09,-230.33"/>
</g>
<!-- Node22&#45;&gt;Node20 -->
<g id="edge30" class="edge">
<title>Node22&#45;&gt;Node20</title>
<path fill="none" stroke="midnightblue" d="M535,-190.4C535,-181.06 535,-168.71 535,-158.52"/>
<polygon fill="midnightblue" stroke="midnightblue" points="538.5,-158.19 535,-148.19 531.5,-158.19 538.5,-158.19"/>
</g>
<!-- Node23&#45;&gt;Node9 -->
<g id="edge34" class="edge">
<title>Node23&#45;&gt;Node9</title>
<path fill="none" stroke="midnightblue" d="M1126.25,-257.4C1128.06,-249.56 1130.36,-239.6 1132.45,-230.57"/>
<polygon fill="midnightblue" stroke="midnightblue" points="1135.91,-231.11 1134.75,-220.58 1129.09,-229.53 1135.91,-231.11"/>
</g>
<!-- Node23&#45;&gt;Node12 -->
<g id="edge37" class="edge">
<title>Node23&#45;&gt;Node12</title>
<path fill="none" stroke="midnightblue" d="M1083.51,-257.4C1056.08,-247.6 1019.35,-234.48 990.04,-224.02"/>
<polygon fill="midnightblue" stroke="midnightblue" points="991.01,-220.64 980.41,-220.58 988.65,-227.24 991.01,-220.64"/>
</g>
<!-- Node24 -->
<g id="node24" class="node">
<title>Node24</title>
<g id="a_node24"><a xlink:href="SingleAgentSpaceTimeState_8h.html" target="_top" xlink:title=" ">
<polygon fill="white" stroke="black" points="956.5,-123.5 956.5,-153.5 1103.5,-153.5 1103.5,-123.5 956.5,-123.5"/>
<text text-anchor="start" x="964.5" y="-141.5" font-family="Helvetica,sans-Serif" font-size="10.00">../States/SingleAgentSpace</text>
<text text-anchor="middle" x="1030" y="-130.5" font-family="Helvetica,sans-Serif" font-size="10.00">TimeState.h</text>
</a>
</g>
</g>
<!-- Node23&#45;&gt;Node24 -->
<g id="edge35" class="edge">
<title>Node23&#45;&gt;Node24</title>
<path fill="none" stroke="midnightblue" d="M1098.48,-257.41C1084.89,-248.51 1068.64,-235.88 1058,-221 1045.68,-203.76 1038.42,-180.66 1034.4,-163.45"/>
<polygon fill="midnightblue" stroke="midnightblue" points="1037.8,-162.65 1032.29,-153.6 1030.96,-164.12 1037.8,-162.65"/>
</g>
<!-- Node24&#45;&gt;Node17 -->
<g id="edge36" class="edge">
<title>Node24&#45;&gt;Node17</title>
<path fill="none" stroke="midnightblue" d="M1011.34,-123.4C997.27,-112.76 978.01,-98.2 963.69,-87.38"/>
<polygon fill="midnightblue" stroke="midnightblue" points="965.59,-84.43 955.5,-81.19 961.37,-90.02 965.59,-84.43"/>
</g>
<!-- Node25&#45;&gt;Node3 -->
<g id="edge39" class="edge">
<title>Node25&#45;&gt;Node3</title>
<path fill="none" stroke="midnightblue" d="M835.73,-258.24C832.78,-257.8 829.87,-257.39 827,-257 662.09,-234.65 616.7,-244.33 448.72,-221.17"/>
<polygon fill="midnightblue" stroke="midnightblue" points="449.18,-217.7 438.8,-219.78 448.21,-224.63 449.18,-217.7"/>
</g>
<!-- Node25&#45;&gt;Node12 -->
<g id="edge42" class="edge">
<title>Node25&#45;&gt;Node12</title>
<path fill="none" stroke="midnightblue" d="M915.94,-257.4C919.93,-249.3 925.03,-238.94 929.59,-229.69"/>
<polygon fill="midnightblue" stroke="midnightblue" points="932.79,-231.09 934.07,-220.58 926.51,-228 932.79,-231.09"/>
</g>
<!-- Node26 -->
<g id="node26" class="node">
<title>Node26</title>
<g id="a_node26"><a xlink:href="StandardMultiAgentState_8h.html" target="_top" xlink:title=" ">
<polygon fill="white" stroke="black" points="781,-123.5 781,-153.5 937,-153.5 937,-123.5 781,-123.5"/>
<text text-anchor="start" x="789" y="-141.5" font-family="Helvetica,sans-Serif" font-size="10.00">../States/StandardMultiAgent</text>
<text text-anchor="middle" x="859" y="-130.5" font-family="Helvetica,sans-Serif" font-size="10.00">State.h</text>
</a>
</g>
</g>
<!-- Node25&#45;&gt;Node26 -->
<g id="edge40" class="edge">
<title>Node25&#45;&gt;Node26</title>
<path fill="none" stroke="midnightblue" d="M898.46,-257.14C891.73,-247.39 883.32,-233.94 878,-221 870.39,-202.48 865.47,-180.28 862.54,-163.73"/>
<polygon fill="midnightblue" stroke="midnightblue" points="865.98,-163.07 860.9,-153.77 859.08,-164.2 865.98,-163.07"/>
</g>
<!-- Node26&#45;&gt;Node17 -->
<g id="edge41" class="edge">
<title>Node26&#45;&gt;Node17</title>
<path fill="none" stroke="midnightblue" d="M877.44,-123.4C891.35,-112.76 910.39,-98.2 924.54,-87.38"/>
<polygon fill="midnightblue" stroke="midnightblue" points="926.81,-90.05 932.63,-81.19 922.56,-84.49 926.81,-90.05"/>
</g>
<!-- Node27&#45;&gt;Node3 -->
<g id="edge44" class="edge">
<title>Node27&#45;&gt;Node3</title>
<path fill="none" stroke="midnightblue" d="M633.51,-257.48C579,-246.93 504.41,-232.5 448.5,-221.69"/>
<polygon fill="midnightblue" stroke="midnightblue" points="449.12,-218.24 438.64,-219.78 447.79,-225.11 449.12,-218.24"/>
</g>
<!-- Node27&#45;&gt;Node12 -->
<g id="edge47" class="edge">
<title>Node27&#45;&gt;Node12</title>
<path fill="none" stroke="midnightblue" d="M756.7,-257.48C792.87,-247.47 841.68,-233.97 879.98,-223.38"/>
<polygon fill="midnightblue" stroke="midnightblue" points="881.28,-226.65 889.98,-220.61 879.41,-219.9 881.28,-226.65"/>
</g>
<!-- Node28 -->
<g id="node28" class="node">
<title>Node28</title>
<g id="a_node28"><a xlink:href="StandardMultiAgentSpaceTimeState_8h.html" target="_top" xlink:title=" ">
<polygon fill="white" stroke="black" points="664,-190.5 664,-220.5 820,-220.5 820,-190.5 664,-190.5"/>
<text text-anchor="start" x="672" y="-208.5" font-family="Helvetica,sans-Serif" font-size="10.00">../States/StandardMultiAgent</text>
<text text-anchor="middle" x="742" y="-197.5" font-family="Helvetica,sans-Serif" font-size="10.00">SpaceTimeState.h</text>
</a>
</g>
</g>
<!-- Node27&#45;&gt;Node28 -->
<g id="edge45" class="edge">
<title>Node27&#45;&gt;Node28</title>
<path fill="none" stroke="midnightblue" d="M713.81,-257.4C718.34,-249.22 724.15,-238.73 729.32,-229.39"/>
<polygon fill="midnightblue" stroke="midnightblue" points="732.42,-231.02 734.2,-220.58 726.3,-227.63 732.42,-231.02"/>
</g>
<!-- Node28&#45;&gt;Node26 -->
<g id="edge46" class="edge">
<title>Node28&#45;&gt;Node26</title>
<path fill="none" stroke="midnightblue" d="M767.39,-190.4C784.18,-181.07 806.39,-168.73 824.74,-158.53"/>
<polygon fill="midnightblue" stroke="midnightblue" points="826.62,-161.49 833.66,-153.58 823.22,-155.37 826.62,-161.49"/>
</g>
<!-- Node30&#45;&gt;Node7 -->
<g id="edge51" class="edge">
<title>Node30&#45;&gt;Node7</title>
<path fill="none" stroke="midnightblue" d="M1446,-463.85C1446,-442.76 1446,-387.02 1446,-340.5 1446,-340.5 1446,-340.5 1446,-137.5 1446,-31.87 639.37,-14.4 403.84,-11.55"/>
<polygon fill="midnightblue" stroke="midnightblue" points="403.76,-8.05 393.72,-11.43 403.68,-15.05 403.76,-8.05"/>
</g>
<!-- Node31&#45;&gt;Node3 -->
<g id="edge54" class="edge">
<title>Node31&#45;&gt;Node3</title>
<path fill="none" stroke="midnightblue" d="M86.8,-637.22C91.72,-584.84 119.66,-313.89 176,-257 192.46,-240.38 245.1,-227.3 291.4,-218.61"/>
<polygon fill="midnightblue" stroke="midnightblue" points="292.26,-222.01 301.47,-216.77 291,-215.13 292.26,-222.01"/>
</g>
<!-- Node31&#45;&gt;Node10 -->
<g id="edge55" class="edge">
<title>Node31&#45;&gt;Node10</title>
<path fill="none" stroke="midnightblue" d="M99.17,-637.32C111.85,-628.98 131.23,-616.21 146.21,-606.35"/>
<polygon fill="midnightblue" stroke="midnightblue" points="148.43,-609.08 154.86,-600.65 144.58,-603.23 148.43,-609.08"/>
</g>
<!-- Node32 -->
<g id="node32" class="node">
<title>Node32</title>
<g id="a_node32"><a xlink:href="ConflictTreeNode_8h.html" target="_top" xlink:title=" ">
<polygon fill="white" stroke="black" points="0,-62 0,-81 108,-81 108,-62 0,-62"/>
<text text-anchor="middle" x="54" y="-69" font-family="Helvetica,sans-Serif" font-size="10.00">ConflictTreeNode.h</text>
</a>
</g>
</g>
<!-- Node31&#45;&gt;Node32 -->
<g id="edge56" class="edge">
<title>Node31&#45;&gt;Node32</title>
<path fill="none" stroke="midnightblue" d="M79.33,-637.44C66.14,-619.62 38,-576.84 38,-536 38,-536 38,-536 38,-204.5 38,-163.86 45.57,-116.7 50.29,-91.2"/>
<polygon fill="midnightblue" stroke="midnightblue" points="53.78,-91.59 52.23,-81.1 46.91,-90.27 53.78,-91.59"/>
</g>
<!-- Node32&#45;&gt;Node6 -->
<g id="edge57" class="edge">
<title>Node32&#45;&gt;Node6</title>
<path fill="none" stroke="midnightblue" d="M73.92,-61.98C97.45,-51.9 136.81,-35.05 163.79,-23.5"/>
<polygon fill="midnightblue" stroke="midnightblue" points="165.31,-26.66 173.12,-19.51 162.55,-20.23 165.31,-26.66"/>
</g>
<!-- Node32&#45;&gt;Node7 -->
<g id="edge58" class="edge">
<title>Node32&#45;&gt;Node7</title>
<path fill="none" stroke="midnightblue" d="M90.28,-61.97C99.02,-59.97 108.33,-57.87 117,-56 174.61,-43.56 240.82,-30.33 286.04,-21.46"/>
<polygon fill="midnightblue" stroke="midnightblue" points="286.78,-24.89 295.92,-19.53 285.44,-18.02 286.78,-24.89"/>
</g>
<!-- Node33 -->
<g id="node33" class="node">
<title>Node33</title>
<g id="a_node33"><a xlink:href="AgentConflict_8h.html" target="_top" xlink:title=" ">
<polygon fill="white" stroke="black" points="8.5,-0.5 8.5,-19.5 99.5,-19.5 99.5,-0.5 8.5,-0.5"/>
<text text-anchor="middle" x="54" y="-7.5" font-family="Helvetica,sans-Serif" font-size="10.00">AgentConflict.h</text>
</a>
</g>
</g>
<!-- Node32&#45;&gt;Node33 -->
<g id="edge59" class="edge">
<title>Node32&#45;&gt;Node33</title>
<path fill="none" stroke="midnightblue" d="M54,-61.98C54,-53.58 54,-40.48 54,-29.66"/>
<polygon fill="midnightblue" stroke="midnightblue" points="57.5,-29.51 54,-19.51 50.5,-29.51 57.5,-29.51"/>
</g>
<!-- Node34&#45;&gt;Node30 -->
<g id="edge61" class="edge">
<title>Node34&#45;&gt;Node30</title>
<path fill="none" stroke="midnightblue" d="M1446,-581.32C1446,-562.76 1446,-518.84 1446,-493.47"/>
<polygon fill="midnightblue" stroke="midnightblue" points="1449.5,-493.28 1446,-483.28 1442.5,-493.28 1449.5,-493.28"/>
</g>
<!-- Node35&#45;&gt;Node34 -->
<g id="edge63" class="edge">
<title>Node35&#45;&gt;Node34</title>
<path fill="none" stroke="midnightblue" d="M1463.53,-637.08C1460.69,-629.77 1456.57,-619.18 1453.04,-610.1"/>
<polygon fill="midnightblue" stroke="midnightblue" points="1456.29,-608.8 1449.4,-600.75 1449.77,-611.34 1456.29,-608.8"/>
</g>
</g>
</svg>
        <g id="navigator" transform="translate(0 0)" fill="#404254">
                <rect fill="#f2f5e9" fill-opacity="0.5" stroke="#606060" stroke-width=".5" x="0" y="0" width="60" height="60"/>
                <use id="zoomplus" xlink:href="#zoomPlus" x="17" y="9" onmousedown="handleZoom(evt,'in')"/>
                <use id="zoomminus" xlink:href="#zoomMin" x="42" y="9" onmousedown="handleZoom(evt,'out')"/>
                <use id="reset" xlink:href="#resetDef" x="30" y="36" onmousedown="handleReset()"/>
                <g id="arrowUp" xlink:href="#dirArrow" transform="translate(30 24)" onmousedown="handlePan(0,-1)">
                  <use xlink:href="#rim" fill="#404040">
                        <set attributeName="fill" to="#808080" begin="arrowUp.mouseover" end="arrowUp.mouseout"/>
                  </use>
                  <path fill="none" stroke="white" stroke-width="1.5" d="M0,-3.0v7 M-2.5,-0.5L0,-3.0L2.5,-0.5"/>
                </g>
                <g id="arrowRight" xlink:href="#dirArrow" transform="rotate(90) translate(36 -43)" onmousedown="handlePan(1,0)">
                  <use xlink:href="#rim" fill="#404040">
                        <set attributeName="fill" to="#808080" begin="arrowRight.mouseover" end="arrowRight.mouseout"/>
                  </use>
                  <path fill="none" stroke="white" stroke-width="1.5" d="M0,-3.0v7 M-2.5,-0.5L0,-3.0L2.5,-0.5"/>
                </g>
                <g id="arrowDown" xlink:href="#dirArrow" transform="rotate(180) translate(-30 -48)" onmousedown="handlePan(0,1)">
                  <use xlink:href="#rim" fill="#404040">
                        <set attributeName="fill" to="#808080" begin="arrowDown.mouseover" end="arrowDown.mouseout"/>
                  </use>
                  <path fill="none" stroke="white" stroke-width="1.5" d="M0,-3.0v7 M-2.5,-0.5L0,-3.0L2.5,-0.5"/>
                </g>
                <g id="arrowLeft" xlink:href="#dirArrow" transform="rotate(270) translate(-36 17)" onmousedown="handlePan(-1,0)">
                  <use xlink:href="#rim" fill="#404040">
                        <set attributeName="fill" to="#808080" begin="arrowLeft.mouseover" end="arrowLeft.mouseout"/>
                  </use>
                  <path fill="none" stroke="white" stroke-width="1.5" d="M0,-3.0v7 M-2.5,-0.5L0,-3.0L2.5,-0.5"/>
                </g>
        </g>
        <svg viewBox="0 0 15 15" width="100%" height="30px" preserveAspectRatio="xMaxYMin meet">
         <g id="arrow_out" transform="scale(0.3 0.3)">
          <a xlink:href="SimpleIndependenceDetection_8cpp__incl_org.svg" target="_base">
           <rect id="button" ry="5" rx="5" y="6" x="6" height="38" width="38"
                fill="#f2f5e9" fill-opacity="0.5" stroke="#606060" stroke-width="1.0"/>
           <path id="arrow"
             d="M 11.500037,31.436501 C 11.940474,20.09759 22.043105,11.32322 32.158766,21.979434 L 37.068811,17.246167 C 37.068811,17.246167 37.088388,32 37.088388,32 L 22.160133,31.978069 C 22.160133,31.978069 26.997745,27.140456 26.997745,27.140456 C 18.528582,18.264221 13.291696,25.230495 11.500037,31.436501 z"
             style="fill:#404040;"/>
          </a>
         </g>
        </svg>
</svg>
