<?xml version="1.0" encoding="UTF-8" standalone="no"?>
<!DOCTYPE svg PUBLIC "-//W3C//DTD SVG 1.1//EN"
 "http://www.w3.org/Graphics/SVG/1.1/DTD/svg11.dtd">
<!-- Generated by graphviz version 2.43.0 (0)
 -->
<!-- Title: Solution/Solution.h Pages: 1 -->
<svg width="700pt" height="218pt"
 viewBox="0.00 0.00 700.00 218.00" xmlns="http://www.w3.org/2000/svg" xmlns:xlink="http://www.w3.org/1999/xlink">
<g id="graph0" class="graph" transform="scale(1 1) rotate(0) translate(4 214)">
<title>Solution/Solution.h</title>
<polygon fill="white" stroke="transparent" points="-4,4 -4,-214 696,-214 696,4 -4,4"/>
<!-- Node1 -->
<g id="node1" class="node">
<title>Node1</title>
<g id="a_node1"><a xlink:title=" ">
<polygon fill="#bfbfbf" stroke="black" points="193,-190.5 193,-209.5 301,-209.5 301,-190.5 193,-190.5"/>
<text text-anchor="middle" x="247" y="-197.5" font-family="Helvetica,sans-Serif" font-size="10.00">Solution/Solution.h</text>
</a>
</g>
</g>
<!-- Node2 -->
<g id="node2" class="node">
<title>Node2</title>
<g id="a_node2"><a xlink:href="Solution_8cpp.html" target="_top" xlink:title=" ">
<polygon fill="white" stroke="black" points="50.5,-134.5 50.5,-153.5 169.5,-153.5 169.5,-134.5 50.5,-134.5"/>
<text text-anchor="middle" x="110" y="-141.5" font-family="Helvetica,sans-Serif" font-size="10.00">Solution/Solution.cpp</text>
</a>
</g>
</g>
<!-- Node1&#45;&gt;Node2 -->
<g id="edge1" class="edge">
<title>Node1&#45;&gt;Node2</title>
<path fill="none" stroke="midnightblue" d="M215.98,-186.77C190.24,-176.63 154.31,-162.47 131.61,-153.52"/>
<polygon fill="midnightblue" stroke="midnightblue" points="214.71,-190.03 225.29,-190.44 217.27,-183.52 214.71,-190.03"/>
</g>
<!-- Node3 -->
<g id="node3" class="node">
<title>Node3</title>
<g id="a_node3"><a xlink:href="AStar_8h.html" target="_top" xlink:title=" ">
<polygon fill="white" stroke="black" points="187.5,-134.5 187.5,-153.5 306.5,-153.5 306.5,-134.5 187.5,-134.5"/>
<text text-anchor="middle" x="247" y="-141.5" font-family="Helvetica,sans-Serif" font-size="10.00">Solvers/AStar/AStar.h</text>
</a>
</g>
</g>
<!-- Node1&#45;&gt;Node3 -->
<g id="edge2" class="edge">
<title>Node1&#45;&gt;Node3</title>
<path fill="none" stroke="midnightblue" d="M247,-179.8C247,-170.91 247,-160.78 247,-153.75"/>
<polygon fill="midnightblue" stroke="midnightblue" points="243.5,-180.08 247,-190.08 250.5,-180.08 243.5,-180.08"/>
</g>
<!-- Node12 -->
<g id="node7" class="node">
<title>Node12</title>
<g id="a_node7"><a xlink:href="Group_8h.html" target="_top" xlink:title=" ">
<polygon fill="white" stroke="black" points="361.5,-134.5 361.5,-153.5 468.5,-153.5 468.5,-134.5 361.5,-134.5"/>
<text text-anchor="middle" x="415" y="-141.5" font-family="Helvetica,sans-Serif" font-size="10.00">Solvers/ID/Group.h</text>
</a>
</g>
</g>
<!-- Node1&#45;&gt;Node12 -->
<g id="edge6" class="edge">
<title>Node1&#45;&gt;Node12</title>
<path fill="none" stroke="midnightblue" d="M283.39,-187.3C315.04,-177.13 360.17,-162.62 388.5,-153.52"/>
<polygon fill="midnightblue" stroke="midnightblue" points="282.07,-184.05 273.62,-190.44 284.21,-190.72 282.07,-184.05"/>
</g>
<!-- Node4 -->
<g id="node4" class="node">
<title>Node4</title>
<g id="a_node4"><a xlink:href="GeneralAStar_8h.html" target="_top" xlink:title=" ">
<polygon fill="white" stroke="red" points="0,-73 0,-92 158,-92 158,-73 0,-73"/>
<text text-anchor="middle" x="79" y="-80" font-family="Helvetica,sans-Serif" font-size="10.00">Solvers/AStar/GeneralAStar.h</text>
</a>
</g>
</g>
<!-- Node3&#45;&gt;Node4 -->
<g id="edge3" class="edge">
<title>Node3&#45;&gt;Node4</title>
<path fill="none" stroke="midnightblue" d="M213.35,-131.08C180.7,-119.52 131.95,-102.25 103.03,-92.01"/>
<polygon fill="midnightblue" stroke="midnightblue" points="212.33,-134.44 222.93,-134.48 214.67,-127.84 212.33,-134.44"/>
</g>
<!-- Node11 -->
<g id="node6" class="node">
<title>Node11</title>
<g id="a_node6"><a xlink:href="CooperativeAStar_8h.html" target="_top" xlink:title=" ">
<polygon fill="white" stroke="black" points="176,-67.5 176,-97.5 318,-97.5 318,-67.5 176,-67.5"/>
<text text-anchor="start" x="184" y="-85.5" font-family="Helvetica,sans-Serif" font-size="10.00">Solvers/SuboptimalSolver</text>
<text text-anchor="middle" x="247" y="-74.5" font-family="Helvetica,sans-Serif" font-size="10.00">/CooperativeAStar.h</text>
</a>
</g>
</g>
<!-- Node3&#45;&gt;Node11 -->
<g id="edge5" class="edge">
<title>Node3&#45;&gt;Node11</title>
<path fill="none" stroke="midnightblue" d="M247,-124.23C247,-115.59 247,-105.5 247,-97.52"/>
<polygon fill="midnightblue" stroke="midnightblue" points="243.5,-124.48 247,-134.48 250.5,-124.48 243.5,-124.48"/>
</g>
<!-- Node7 -->
<g id="node5" class="node">
<title>Node7</title>
<g id="a_node5"><a xlink:href="SimpleIndependenceDetection_8h.html" target="_top" xlink:title=" ">
<polygon fill="white" stroke="red" points="260.5,-0.5 260.5,-30.5 431.5,-30.5 431.5,-0.5 260.5,-0.5"/>
<text text-anchor="start" x="268.5" y="-18.5" font-family="Helvetica,sans-Serif" font-size="10.00">Solvers/ID/SimpleIndependence</text>
<text text-anchor="middle" x="346" y="-7.5" font-family="Helvetica,sans-Serif" font-size="10.00">Detection.h</text>
</a>
</g>
</g>
<!-- Node4&#45;&gt;Node7 -->
<g id="edge4" class="edge">
<title>Node4&#45;&gt;Node7</title>
<path fill="none" stroke="midnightblue" d="M123.99,-70.55C169.18,-59.55 239,-42.55 288.25,-30.56"/>
<polygon fill="midnightblue" stroke="midnightblue" points="123.07,-67.17 114.18,-72.94 124.72,-73.97 123.07,-67.17"/>
</g>
<!-- Node12&#45;&gt;Node7 -->
<g id="edge10" class="edge">
<title>Node12&#45;&gt;Node7</title>
<path fill="none" stroke="midnightblue" d="M393.38,-128.36C383.32,-120.49 372.05,-109.94 365,-98 352.44,-76.73 348.18,-47.77 346.74,-30.71"/>
<polygon fill="midnightblue" stroke="midnightblue" points="391.3,-131.18 401.42,-134.32 395.47,-125.56 391.3,-131.18"/>
</g>
<!-- Node13 -->
<g id="node8" class="node">
<title>Node13</title>
<g id="a_node8"><a xlink:href="AlreadyConflictedBeforeSet_8h.html" target="_top" xlink:title=" ">
<polygon fill="white" stroke="red" points="374.5,-67.5 374.5,-97.5 529.5,-97.5 529.5,-67.5 374.5,-67.5"/>
<text text-anchor="start" x="382.5" y="-85.5" font-family="Helvetica,sans-Serif" font-size="10.00">Solvers/ID/AlreadyConflicted</text>
<text text-anchor="middle" x="452" y="-74.5" font-family="Helvetica,sans-Serif" font-size="10.00">BeforeSet.h</text>
</a>
</g>
</g>
<!-- Node12&#45;&gt;Node13 -->
<g id="edge7" class="edge">
<title>Node12&#45;&gt;Node13</title>
<path fill="none" stroke="midnightblue" d="M425.59,-125.96C431.2,-116.96 437.99,-106.03 443.28,-97.52"/>
<polygon fill="midnightblue" stroke="midnightblue" points="422.61,-124.13 420.3,-134.48 428.55,-127.83 422.61,-124.13"/>
</g>
<!-- Node14 -->
<g id="node9" class="node">
<title>Node14</title>
<g id="a_node9"><a xlink:href="GroupConflict_8h.html" target="_top" xlink:title=" ">
<polygon fill="white" stroke="black" points="548,-73 548,-92 692,-92 692,-73 548,-73"/>
<text text-anchor="middle" x="620" y="-80" font-family="Helvetica,sans-Serif" font-size="10.00">Solvers/ID/GroupConflict.h</text>
</a>
</g>
</g>
<!-- Node12&#45;&gt;Node14 -->
<g id="edge8" class="edge">
<title>Node12&#45;&gt;Node14</title>
<path fill="none" stroke="midnightblue" d="M454.02,-131.68C493.85,-120.11 554.78,-102.43 590.68,-92.01"/>
<polygon fill="midnightblue" stroke="midnightblue" points="453,-128.33 444.37,-134.48 454.95,-135.05 453,-128.33"/>
</g>
<!-- Node14&#45;&gt;Node7 -->
<g id="edge9" class="edge">
<title>Node14&#45;&gt;Node7</title>
<path fill="none" stroke="midnightblue" d="M574.12,-70.62C527.76,-59.62 455.92,-42.58 405.26,-30.56"/>
<polygon fill="midnightblue" stroke="midnightblue" points="573.36,-74.03 583.9,-72.94 574.98,-67.22 573.36,-74.03"/>
</g>
</g>
</svg>
