<?xml version="1.0" encoding="UTF-8" standalone="no"?>
<!DOCTYPE svg PUBLIC "-//W3C//DTD SVG 1.1//EN"
 "http://www.w3.org/Graphics/SVG/1.1/DTD/svg11.dtd">
<!-- Generated by graphviz version 2.43.0 (0)
 -->
<!-- Title: Solution/Solution.h Pages: 1 -->
<svg width="559pt" height="408pt"
 viewBox="0.00 0.00 559.00 408.00" xmlns="http://www.w3.org/2000/svg" xmlns:xlink="http://www.w3.org/1999/xlink">
<g id="graph0" class="graph" transform="scale(1 1) rotate(0) translate(4 404)">
<title>Solution/Solution.h</title>
<polygon fill="white" stroke="transparent" points="-4,4 -4,-404 555,-404 555,4 -4,4"/>
<!-- Node1 -->
<g id="node1" class="node">
<title>Node1</title>
<g id="a_node1"><a xlink:title=" ">
<polygon fill="#bfbfbf" stroke="black" points="196.5,-380.5 196.5,-399.5 304.5,-399.5 304.5,-380.5 196.5,-380.5"/>
<text text-anchor="middle" x="250.5" y="-387.5" font-family="Helvetica,sans-Serif" font-size="10.00">Solution/Solution.h</text>
</a>
</g>
</g>
<!-- Node2 -->
<g id="node2" class="node">
<title>Node2</title>
<g id="a_node2"><a xlink:href="Solution_8cpp.html" target="_top" xlink:title=" ">
<polygon fill="white" stroke="black" points="54,-324.5 54,-343.5 173,-343.5 173,-324.5 54,-324.5"/>
<text text-anchor="middle" x="113.5" y="-331.5" font-family="Helvetica,sans-Serif" font-size="10.00">Solution/Solution.cpp</text>
</a>
</g>
</g>
<!-- Node1&#45;&gt;Node2 -->
<g id="edge1" class="edge">
<title>Node1&#45;&gt;Node2</title>
<path fill="none" stroke="midnightblue" d="M219.48,-376.77C193.74,-366.63 157.81,-352.47 135.11,-343.52"/>
<polygon fill="midnightblue" stroke="midnightblue" points="218.21,-380.03 228.79,-380.44 220.77,-373.52 218.21,-380.03"/>
</g>
<!-- Node3 -->
<g id="node3" class="node">
<title>Node3</title>
<g id="a_node3"><a xlink:href="AStar_8h.html" target="_top" xlink:title=" ">
<polygon fill="white" stroke="black" points="191,-324.5 191,-343.5 310,-343.5 310,-324.5 191,-324.5"/>
<text text-anchor="middle" x="250.5" y="-331.5" font-family="Helvetica,sans-Serif" font-size="10.00">Solvers/AStar/AStar.h</text>
</a>
</g>
</g>
<!-- Node1&#45;&gt;Node3 -->
<g id="edge2" class="edge">
<title>Node1&#45;&gt;Node3</title>
<path fill="none" stroke="midnightblue" d="M250.5,-369.8C250.5,-360.91 250.5,-350.78 250.5,-343.75"/>
<polygon fill="midnightblue" stroke="midnightblue" points="247,-370.08 250.5,-380.08 254,-370.08 247,-370.08"/>
</g>
<!-- Node12 -->
<g id="node12" class="node">
<title>Node12</title>
<g id="a_node12"><a xlink:href="Group_8h.html" target="_top" xlink:title=" ">
<polygon fill="white" stroke="black" points="340,-263 340,-282 447,-282 447,-263 340,-263"/>
<text text-anchor="middle" x="393.5" y="-270" font-family="Helvetica,sans-Serif" font-size="10.00">Solvers/ID/Group.h</text>
</a>
</g>
</g>
<!-- Node1&#45;&gt;Node12 -->
<g id="edge12" class="edge">
<title>Node1&#45;&gt;Node12</title>
<path fill="none" stroke="midnightblue" d="M274.11,-375.09C287.8,-366.68 305.1,-355.39 319.5,-344 345.1,-323.74 372.13,-296.18 385.31,-282.28"/>
<polygon fill="midnightblue" stroke="midnightblue" points="272.04,-372.26 265.3,-380.43 275.67,-378.24 272.04,-372.26"/>
</g>
<!-- Node4 -->
<g id="node4" class="node">
<title>Node4</title>
<g id="a_node4"><a xlink:href="GeneralAStar_8h.html" target="_top" xlink:title=" ">
<polygon fill="white" stroke="black" points="3.5,-263 3.5,-282 161.5,-282 161.5,-263 3.5,-263"/>
<text text-anchor="middle" x="82.5" y="-270" font-family="Helvetica,sans-Serif" font-size="10.00">Solvers/AStar/GeneralAStar.h</text>
</a>
</g>
</g>
<!-- Node3&#45;&gt;Node4 -->
<g id="edge3" class="edge">
<title>Node3&#45;&gt;Node4</title>
<path fill="none" stroke="midnightblue" d="M216.85,-321.08C184.2,-309.52 135.45,-292.25 106.53,-282.01"/>
<polygon fill="midnightblue" stroke="midnightblue" points="215.83,-324.44 226.43,-324.48 218.17,-317.84 215.83,-324.44"/>
</g>
<!-- Node11 -->
<g id="node11" class="node">
<title>Node11</title>
<g id="a_node11"><a xlink:href="CooperativeAStar_8h.html" target="_top" xlink:title=" ">
<polygon fill="white" stroke="black" points="179.5,-257.5 179.5,-287.5 321.5,-287.5 321.5,-257.5 179.5,-257.5"/>
<text text-anchor="start" x="187.5" y="-275.5" font-family="Helvetica,sans-Serif" font-size="10.00">Solvers/SuboptimalSolver</text>
<text text-anchor="middle" x="250.5" y="-264.5" font-family="Helvetica,sans-Serif" font-size="10.00">/CooperativeAStar.h</text>
</a>
</g>
</g>
<!-- Node3&#45;&gt;Node11 -->
<g id="edge11" class="edge">
<title>Node3&#45;&gt;Node11</title>
<path fill="none" stroke="midnightblue" d="M250.5,-314.23C250.5,-305.59 250.5,-295.5 250.5,-287.52"/>
<polygon fill="midnightblue" stroke="midnightblue" points="247,-314.48 250.5,-324.48 254,-314.48 247,-314.48"/>
</g>
<!-- Node5 -->
<g id="node5" class="node">
<title>Node5</title>
<g id="a_node5"><a xlink:href="ConflictBasedSearch_8h.html" target="_top" xlink:title=" ">
<polygon fill="white" stroke="black" points="10,-190.5 10,-220.5 155,-220.5 155,-190.5 10,-190.5"/>
<text text-anchor="start" x="18" y="-208.5" font-family="Helvetica,sans-Serif" font-size="10.00">Solvers/CBS/ConflictBased</text>
<text text-anchor="middle" x="82.5" y="-197.5" font-family="Helvetica,sans-Serif" font-size="10.00">Search.h</text>
</a>
</g>
</g>
<!-- Node4&#45;&gt;Node5 -->
<g id="edge4" class="edge">
<title>Node4&#45;&gt;Node5</title>
<path fill="none" stroke="midnightblue" d="M82.5,-252.41C82.5,-242.22 82.5,-229.9 82.5,-220.59"/>
<polygon fill="midnightblue" stroke="midnightblue" points="79,-252.73 82.5,-262.73 86,-252.73 79,-252.73"/>
</g>
<!-- Node7 -->
<g id="node7" class="node">
<title>Node7</title>
<g id="a_node7"><a xlink:href="SimpleIndependenceDetection_8h.html" target="_top" xlink:title=" ">
<polygon fill="white" stroke="black" points="163,-123.5 163,-153.5 334,-153.5 334,-123.5 163,-123.5"/>
<text text-anchor="start" x="171" y="-141.5" font-family="Helvetica,sans-Serif" font-size="10.00">Solvers/ID/SimpleIndependence</text>
<text text-anchor="middle" x="248.5" y="-130.5" font-family="Helvetica,sans-Serif" font-size="10.00">Detection.h</text>
</a>
</g>
</g>
<!-- Node4&#45;&gt;Node7 -->
<g id="edge10" class="edge">
<title>Node4&#45;&gt;Node7</title>
<path fill="none" stroke="midnightblue" d="M107.39,-257.79C123.88,-248.27 145.67,-234.86 163.5,-221 190.94,-199.67 219.42,-170.73 235.46,-153.69"/>
<polygon fill="midnightblue" stroke="midnightblue" points="105.33,-254.93 98.36,-262.91 108.78,-261.02 105.33,-254.93"/>
</g>
<!-- Node6 -->
<g id="node6" class="node">
<title>Node6</title>
<g id="a_node6"><a xlink:href="ConflictBasedSearch_8cpp.html" target="_top" xlink:title=" ">
<polygon fill="white" stroke="black" points="0,-123.5 0,-153.5 145,-153.5 145,-123.5 0,-123.5"/>
<text text-anchor="start" x="8" y="-141.5" font-family="Helvetica,sans-Serif" font-size="10.00">Solvers/CBS/ConflictBased</text>
<text text-anchor="middle" x="72.5" y="-130.5" font-family="Helvetica,sans-Serif" font-size="10.00">Search.cpp</text>
</a>
</g>
</g>
<!-- Node5&#45;&gt;Node6 -->
<g id="edge5" class="edge">
<title>Node5&#45;&gt;Node6</title>
<path fill="none" stroke="midnightblue" d="M78.79,-180.4C77.4,-171.37 75.87,-161.41 74.67,-153.58"/>
<polygon fill="midnightblue" stroke="midnightblue" points="75.35,-181.04 80.33,-190.4 82.27,-179.98 75.35,-181.04"/>
</g>
<!-- Node5&#45;&gt;Node7 -->
<g id="edge6" class="edge">
<title>Node5&#45;&gt;Node7</title>
<path fill="none" stroke="midnightblue" d="M128.01,-186.68C154.63,-176.26 187.77,-163.28 212.55,-153.58"/>
<polygon fill="midnightblue" stroke="midnightblue" points="126.55,-183.49 118.52,-190.4 129.11,-190.01 126.55,-183.49"/>
</g>
<!-- Node8 -->
<g id="node8" class="node">
<title>Node8</title>
<g id="a_node8"><a xlink:href="IndependenceDetection_8h.html" target="_top" xlink:title=" ">
<polygon fill="white" stroke="black" points="351.5,-62 351.5,-81 545.5,-81 545.5,-62 351.5,-62"/>
<text text-anchor="middle" x="448.5" y="-69" font-family="Helvetica,sans-Serif" font-size="10.00">Solvers/ID/IndependenceDetection.h</text>
</a>
</g>
</g>
<!-- Node7&#45;&gt;Node8 -->
<g id="edge7" class="edge">
<title>Node7&#45;&gt;Node8</title>
<path fill="none" stroke="midnightblue" d="M301.52,-120.27C340.49,-107.6 391.78,-90.93 422.32,-81.01"/>
<polygon fill="midnightblue" stroke="midnightblue" points="300.33,-116.98 291.9,-123.4 302.49,-123.63 300.33,-116.98"/>
</g>
<!-- Node10 -->
<g id="node10" class="node">
<title>Node10</title>
<g id="a_node10"><a xlink:href="SimpleIndependenceDetection_8cpp.html" target="_top" xlink:title=" ">
<polygon fill="white" stroke="black" points="162,-56.5 162,-86.5 333,-86.5 333,-56.5 162,-56.5"/>
<text text-anchor="start" x="170" y="-74.5" font-family="Helvetica,sans-Serif" font-size="10.00">Solvers/ID/SimpleIndependence</text>
<text text-anchor="middle" x="247.5" y="-63.5" font-family="Helvetica,sans-Serif" font-size="10.00">Detection.cpp</text>
</a>
</g>
</g>
<!-- Node7&#45;&gt;Node10 -->
<g id="edge9" class="edge">
<title>Node7&#45;&gt;Node10</title>
<path fill="none" stroke="midnightblue" d="M248.12,-113.11C247.99,-104.15 247.84,-94.32 247.72,-86.58"/>
<polygon fill="midnightblue" stroke="midnightblue" points="244.63,-113.45 248.28,-123.4 251.63,-113.34 244.63,-113.45"/>
</g>
<!-- Node9 -->
<g id="node9" class="node">
<title>Node9</title>
<g id="a_node9"><a xlink:href="IndependenceDetection_8cpp.html" target="_top" xlink:title=" ">
<polygon fill="white" stroke="black" points="346,-0.5 346,-19.5 551,-19.5 551,-0.5 346,-0.5"/>
<text text-anchor="middle" x="448.5" y="-7.5" font-family="Helvetica,sans-Serif" font-size="10.00">Solvers/ID/IndependenceDetection.cpp</text>
</a>
</g>
</g>
<!-- Node8&#45;&gt;Node9 -->
<g id="edge8" class="edge">
<title>Node8&#45;&gt;Node9</title>
<path fill="none" stroke="midnightblue" d="M448.5,-51.82C448.5,-41 448.5,-27.9 448.5,-19.51"/>
<polygon fill="midnightblue" stroke="midnightblue" points="445,-51.98 448.5,-61.98 452,-51.98 445,-51.98"/>
</g>
<!-- Node12&#45;&gt;Node7 -->
<g id="edge17" class="edge">
<title>Node12&#45;&gt;Node7</title>
<path fill="none" stroke="midnightblue" d="M353.66,-259.96C321.29,-249.8 279.15,-234.57 267.5,-221 251.13,-201.93 248.21,-171.41 248.03,-153.63"/>
<polygon fill="midnightblue" stroke="midnightblue" points="352.76,-263.34 363.35,-262.94 354.82,-256.65 352.76,-263.34"/>
</g>
<!-- Node13 -->
<g id="node13" class="node">
<title>Node13</title>
<g id="a_node13"><a xlink:href="AlreadyConflictedBeforeSet_8h.html" target="_top" xlink:title=" ">
<polygon fill="white" stroke="black" points="371,-123.5 371,-153.5 526,-153.5 526,-123.5 371,-123.5"/>
<text text-anchor="start" x="379" y="-141.5" font-family="Helvetica,sans-Serif" font-size="10.00">Solvers/ID/AlreadyConflicted</text>
<text text-anchor="middle" x="448.5" y="-130.5" font-family="Helvetica,sans-Serif" font-size="10.00">BeforeSet.h</text>
</a>
</g>
</g>
<!-- Node12&#45;&gt;Node13 -->
<g id="edge13" class="edge">
<title>Node12&#45;&gt;Node13</title>
<path fill="none" stroke="midnightblue" d="M407.68,-255.13C415.17,-245.7 423.94,-233.32 429.5,-221 439.61,-198.62 444.65,-170.27 446.91,-153.59"/>
<polygon fill="midnightblue" stroke="midnightblue" points="404.96,-252.92 401.29,-262.86 410.36,-257.38 404.96,-252.92"/>
</g>
<!-- Node14 -->
<g id="node14" class="node">
<title>Node14</title>
<g id="a_node14"><a xlink:href="GroupConflict_8h.html" target="_top" xlink:title=" ">
<polygon fill="white" stroke="black" points="276.5,-196 276.5,-215 420.5,-215 420.5,-196 276.5,-196"/>
<text text-anchor="middle" x="348.5" y="-203" font-family="Helvetica,sans-Serif" font-size="10.00">Solvers/ID/GroupConflict.h</text>
</a>
</g>
</g>
<!-- Node12&#45;&gt;Node14 -->
<g id="edge15" class="edge">
<title>Node12&#45;&gt;Node14</title>
<path fill="none" stroke="midnightblue" d="M381.66,-254.4C372.92,-241.77 361.38,-225.1 354.47,-215.13"/>
<polygon fill="midnightblue" stroke="midnightblue" points="378.86,-256.5 387.43,-262.73 384.62,-252.52 378.86,-256.5"/>
</g>
<!-- Node13&#45;&gt;Node8 -->
<g id="edge14" class="edge">
<title>Node13&#45;&gt;Node8</title>
<path fill="none" stroke="midnightblue" d="M448.5,-113.25C448.5,-102.02 448.5,-89.38 448.5,-81.19"/>
<polygon fill="midnightblue" stroke="midnightblue" points="445,-113.4 448.5,-123.4 452,-113.4 445,-113.4"/>
</g>
<!-- Node14&#45;&gt;Node7 -->
<g id="edge16" class="edge">
<title>Node14&#45;&gt;Node7</title>
<path fill="none" stroke="midnightblue" d="M326.43,-190.15C309.69,-179.27 286.81,-164.4 270.18,-153.59"/>
<polygon fill="midnightblue" stroke="midnightblue" points="324.72,-193.22 335.01,-195.73 328.54,-187.35 324.72,-193.22"/>
</g>
</g>
</svg>
