<?xml version="1.0" encoding="UTF-8" standalone="no"?>
<!DOCTYPE svg PUBLIC "-//W3C//DTD SVG 1.1//EN"
 "http://www.w3.org/Graphics/SVG/1.1/DTD/svg11.dtd">
<!-- Generated by graphviz version 2.43.0 (0)
 -->
<!-- Title: Solution.h Pages: 1 -->
<!--zoomable 364 -->
<svg id="main" version="1.1" xmlns="http://www.w3.org/2000/svg" xmlns:xlink="http://www.w3.org/1999/xlink" xml:space="preserve" onload="init(evt)">
<style type="text/css"><![CDATA[
.edge:hover path { stroke: red; }
.edge:hover polygon { stroke: red; fill: red; }
]]></style>
<script type="text/javascript"><![CDATA[
var edges = document.getElementsByTagName('g');
if (edges && edges.length) {
  for (var i=0;i<edges.length;i++) {
    if (edges[i].id.substr(0,4)=='edge') {
      edges[i].setAttribute('class','edge');
    }
  }
}
]]></script>
        <defs>
                <circle id="rim" cx="0" cy="0" r="7"/>
                <circle id="rim2" cx="0" cy="0" r="3.5"/>
                <g id="zoomPlus">
                        <use xlink:href="#rim" fill="#404040">
                                <set attributeName="fill" to="#808080" begin="zoomplus.mouseover" end="zoomplus.mouseout"/>
                        </use>
                        <path d="M-4,0h8M0,-4v8" fill="none" stroke="white" stroke-width="1.5" pointer-events="none"/>
                </g>
                <g id="zoomMin">
                        <use xlink:href="#rim" fill="#404040">
                                <set attributeName="fill" to="#808080" begin="zoomminus.mouseover" end="zoomminus.mouseout"/>
                        </use>
                        <path d="M-4,0h8" fill="none" stroke="white" stroke-width="1.5" pointer-events="none"/>
                </g>
                <g id="dirArrow">
                        <path fill="none" stroke="white" stroke-width="1.5" d="M0,-3.0v7 M-2.5,-0.5L0,-3.0L2.5,-0.5"/>
                </g>
               <g id="resetDef">
                       <use xlink:href="#rim2" fill="#404040">
                               <set attributeName="fill" to="#808080" begin="reset.mouseover" end="reset.mouseout"/>
                       </use>
               </g>
        </defs>

<script type="text/javascript">
var viewWidth = 517;
var viewHeight = 364;
var sectionId = 'dynsection-1';
</script>
<script xlink:href="svgpan.js"/>
<svg id="graph" class="graph">
<g id="viewport">
<title>Solution.h</title>
<polygon fill="white" stroke="transparent" points="-4,4 -4,-360 512.5,-360 512.5,4 -4,4"/>
<!-- Node1 -->
<g id="node1" class="node">
<title>Node1</title>
<g id="a_node1"><a xlink:title=" ">
<polygon fill="#bfbfbf" stroke="black" points="196,-336.5 196,-355.5 261,-355.5 261,-336.5 196,-336.5"/>
<text text-anchor="middle" x="228.5" y="-343.5" font-family="Helvetica,sans-Serif" font-size="10.00">Solution.h</text>
</a>
</g>
</g>
<!-- Node2 -->
<g id="node2" class="node">
<title>Node2</title>
<g id="a_node2"><a xlink:href="Solution_8cpp.html" target="_top" xlink:title=" ">
<polygon fill="white" stroke="black" points="108,-280.5 108,-299.5 185,-299.5 185,-280.5 108,-280.5"/>
<text text-anchor="middle" x="146.5" y="-287.5" font-family="Helvetica,sans-Serif" font-size="10.00">Solution.cpp</text>
</a>
</g>
</g>
<!-- Node1&#45;&gt;Node2 -->
<g id="edge1" class="edge">
<title>Node1&#45;&gt;Node2</title>
<path fill="none" stroke="midnightblue" d="M206.67,-330.62C191.69,-320.76 172.3,-307.99 159.64,-299.65"/>
<polygon fill="midnightblue" stroke="midnightblue" points="205.05,-333.75 215.33,-336.32 208.9,-327.9 205.05,-333.75"/>
</g>
<!-- Node3 -->
<g id="node3" class="node">
<title>Node3</title>
<g id="a_node3"><a xlink:href="AStar_8h.html" target="_top" xlink:title=" ">
<polygon fill="white" stroke="black" points="203,-280.5 203,-299.5 254,-299.5 254,-280.5 203,-280.5"/>
<text text-anchor="middle" x="228.5" y="-287.5" font-family="Helvetica,sans-Serif" font-size="10.00">AStar.h</text>
</a>
</g>
</g>
<!-- Node1&#45;&gt;Node3 -->
<g id="edge2" class="edge">
<title>Node1&#45;&gt;Node3</title>
<path fill="none" stroke="midnightblue" d="M228.5,-325.8C228.5,-316.91 228.5,-306.78 228.5,-299.75"/>
<polygon fill="midnightblue" stroke="midnightblue" points="225,-326.08 228.5,-336.08 232,-326.08 225,-326.08"/>
</g>
<!-- Node12 -->
<g id="node12" class="node">
<title>Node12</title>
<g id="a_node12"><a xlink:href="Group_8h.html" target="_top" xlink:title=" ">
<polygon fill="white" stroke="black" points="302,-224.5 302,-243.5 357,-243.5 357,-224.5 302,-224.5"/>
<text text-anchor="middle" x="329.5" y="-231.5" font-family="Helvetica,sans-Serif" font-size="10.00">Group.h</text>
</a>
</g>
</g>
<!-- Node1&#45;&gt;Node12 -->
<g id="edge12" class="edge">
<title>Node1&#45;&gt;Node12</title>
<path fill="none" stroke="midnightblue" d="M243.29,-328.9C265,-305.25 304.76,-261.95 321.61,-243.59"/>
<polygon fill="midnightblue" stroke="midnightblue" points="240.61,-326.64 236.43,-336.37 245.77,-331.37 240.61,-326.64"/>
</g>
<!-- Node4 -->
<g id="node4" class="node">
<title>Node4</title>
<g id="a_node4"><a xlink:href="GeneralAStar_8h.html" target="_top" xlink:title=" ">
<polygon fill="white" stroke="black" points="66,-224.5 66,-243.5 155,-243.5 155,-224.5 66,-224.5"/>
<text text-anchor="middle" x="110.5" y="-231.5" font-family="Helvetica,sans-Serif" font-size="10.00">GeneralAStar.h</text>
</a>
</g>
</g>
<!-- Node3&#45;&gt;Node4 -->
<g id="edge3" class="edge">
<title>Node3&#45;&gt;Node4</title>
<path fill="none" stroke="midnightblue" d="M200.6,-276.23C178.53,-266.13 148.32,-252.31 129.11,-243.52"/>
<polygon fill="midnightblue" stroke="midnightblue" points="199.25,-279.46 209.8,-280.44 202.17,-273.1 199.25,-279.46"/>
</g>
<!-- Node11 -->
<g id="node11" class="node">
<title>Node11</title>
<g id="a_node11"><a xlink:href="CooperativeAStar_8h.html" target="_top" xlink:title=" ">
<polygon fill="white" stroke="black" points="173.5,-224.5 173.5,-243.5 283.5,-243.5 283.5,-224.5 173.5,-224.5"/>
<text text-anchor="middle" x="228.5" y="-231.5" font-family="Helvetica,sans-Serif" font-size="10.00">CooperativeAStar.h</text>
</a>
</g>
</g>
<!-- Node3&#45;&gt;Node11 -->
<g id="edge11" class="edge">
<title>Node3&#45;&gt;Node11</title>
<path fill="none" stroke="midnightblue" d="M228.5,-269.8C228.5,-260.91 228.5,-250.78 228.5,-243.75"/>
<polygon fill="midnightblue" stroke="midnightblue" points="225,-270.08 228.5,-280.08 232,-270.08 225,-270.08"/>
</g>
<!-- Node5 -->
<g id="node5" class="node">
<title>Node5</title>
<g id="a_node5"><a xlink:href="ConflictBasedSearch_8h.html" target="_top" xlink:title=" ">
<polygon fill="white" stroke="black" points="48,-168.5 48,-187.5 173,-187.5 173,-168.5 48,-168.5"/>
<text text-anchor="middle" x="110.5" y="-175.5" font-family="Helvetica,sans-Serif" font-size="10.00">ConflictBasedSearch.h</text>
</a>
</g>
</g>
<!-- Node4&#45;&gt;Node5 -->
<g id="edge4" class="edge">
<title>Node4&#45;&gt;Node5</title>
<path fill="none" stroke="midnightblue" d="M110.5,-213.8C110.5,-204.91 110.5,-194.78 110.5,-187.75"/>
<polygon fill="midnightblue" stroke="midnightblue" points="107,-214.08 110.5,-224.08 114,-214.08 107,-214.08"/>
</g>
<!-- Node7 -->
<g id="node7" class="node">
<title>Node7</title>
<g id="a_node7"><a xlink:href="SimpleIndependenceDetection_8h.html" target="_top" xlink:title=" ">
<polygon fill="white" stroke="black" points="155,-112.5 155,-131.5 330,-131.5 330,-112.5 155,-112.5"/>
<text text-anchor="middle" x="242.5" y="-119.5" font-family="Helvetica,sans-Serif" font-size="10.00">SimpleIndependenceDetection.h</text>
</a>
</g>
</g>
<!-- Node4&#45;&gt;Node7 -->
<g id="edge10" class="edge">
<title>Node4&#45;&gt;Node7</title>
<path fill="none" stroke="midnightblue" d="M135.21,-219.42C149.36,-211.15 167.11,-199.9 181.5,-188 203.2,-170.05 224.88,-144.77 235.6,-131.65"/>
<polygon fill="midnightblue" stroke="midnightblue" points="133.45,-216.4 126.51,-224.41 136.92,-222.48 133.45,-216.4"/>
</g>
<!-- Node6 -->
<g id="node6" class="node">
<title>Node6</title>
<g id="a_node6"><a xlink:href="ConflictBasedSearch_8cpp.html" target="_top" xlink:title=" ">
<polygon fill="white" stroke="black" points="0,-112.5 0,-131.5 137,-131.5 137,-112.5 0,-112.5"/>
<text text-anchor="middle" x="68.5" y="-119.5" font-family="Helvetica,sans-Serif" font-size="10.00">ConflictBasedSearch.cpp</text>
</a>
</g>
</g>
<!-- Node5&#45;&gt;Node6 -->
<g id="edge5" class="edge">
<title>Node5&#45;&gt;Node6</title>
<path fill="none" stroke="midnightblue" d="M97.39,-160.14C90.07,-150.74 81.26,-139.4 75.31,-131.75"/>
<polygon fill="midnightblue" stroke="midnightblue" points="94.66,-162.34 103.56,-168.08 100.19,-158.04 94.66,-162.34"/>
</g>
<!-- Node5&#45;&gt;Node7 -->
<g id="edge6" class="edge">
<title>Node5&#45;&gt;Node7</title>
<path fill="none" stroke="midnightblue" d="M140.72,-164.64C165.49,-154.5 199.9,-140.43 221.68,-131.52"/>
<polygon fill="midnightblue" stroke="midnightblue" points="139.35,-161.42 131.42,-168.44 142,-167.9 139.35,-161.42"/>
</g>
<!-- Node8 -->
<g id="node8" class="node">
<title>Node8</title>
<g id="a_node8"><a xlink:href="IndependenceDetection_8h.html" target="_top" xlink:title=" ">
<polygon fill="white" stroke="black" points="356,-56.5 356,-75.5 497,-75.5 497,-56.5 356,-56.5"/>
<text text-anchor="middle" x="426.5" y="-63.5" font-family="Helvetica,sans-Serif" font-size="10.00">IndependenceDetection.h</text>
</a>
</g>
</g>
<!-- Node7&#45;&gt;Node8 -->
<g id="edge7" class="edge">
<title>Node7&#45;&gt;Node8</title>
<path fill="none" stroke="midnightblue" d="M281.45,-109.57C316.16,-99.38 366.18,-84.7 397.48,-75.52"/>
<polygon fill="midnightblue" stroke="midnightblue" points="280.27,-106.27 271.66,-112.44 282.24,-112.99 280.27,-106.27"/>
</g>
<!-- Node10 -->
<g id="node10" class="node">
<title>Node10</title>
<g id="a_node10"><a xlink:href="SimpleIndependenceDetection_8cpp.html" target="_top" xlink:title=" ">
<polygon fill="white" stroke="black" points="149.5,-56.5 149.5,-75.5 335.5,-75.5 335.5,-56.5 149.5,-56.5"/>
<text text-anchor="middle" x="242.5" y="-63.5" font-family="Helvetica,sans-Serif" font-size="10.00">SimpleIndependenceDetection.cpp</text>
</a>
</g>
</g>
<!-- Node7&#45;&gt;Node10 -->
<g id="edge9" class="edge">
<title>Node7&#45;&gt;Node10</title>
<path fill="none" stroke="midnightblue" d="M242.5,-101.8C242.5,-92.91 242.5,-82.78 242.5,-75.75"/>
<polygon fill="midnightblue" stroke="midnightblue" points="239,-102.08 242.5,-112.08 246,-102.08 239,-102.08"/>
</g>
<!-- Node9 -->
<g id="node9" class="node">
<title>Node9</title>
<g id="a_node9"><a xlink:href="IndependenceDetection_8cpp.html" target="_top" xlink:title=" ">
<polygon fill="white" stroke="black" points="350.5,-0.5 350.5,-19.5 502.5,-19.5 502.5,-0.5 350.5,-0.5"/>
<text text-anchor="middle" x="426.5" y="-7.5" font-family="Helvetica,sans-Serif" font-size="10.00">IndependenceDetection.cpp</text>
</a>
</g>
</g>
<!-- Node8&#45;&gt;Node9 -->
<g id="edge8" class="edge">
<title>Node8&#45;&gt;Node9</title>
<path fill="none" stroke="midnightblue" d="M426.5,-45.8C426.5,-36.91 426.5,-26.78 426.5,-19.75"/>
<polygon fill="midnightblue" stroke="midnightblue" points="423,-46.08 426.5,-56.08 430,-46.08 423,-46.08"/>
</g>
<!-- Node12&#45;&gt;Node7 -->
<g id="edge17" class="edge">
<title>Node12&#45;&gt;Node7</title>
<path fill="none" stroke="midnightblue" d="M306.24,-218.44C294.96,-210.5 281.86,-199.88 272.5,-188 258.5,-170.23 249.24,-144.88 245.06,-131.7"/>
<polygon fill="midnightblue" stroke="midnightblue" points="304.55,-221.52 314.8,-224.21 308.46,-215.71 304.55,-221.52"/>
</g>
<!-- Node13 -->
<g id="node13" class="node">
<title>Node13</title>
<g id="a_node13"><a xlink:href="AlreadyConflictedBeforeSet_8h.html" target="_top" xlink:title=" ">
<polygon fill="white" stroke="black" points="348.5,-112.5 348.5,-131.5 508.5,-131.5 508.5,-112.5 348.5,-112.5"/>
<text text-anchor="middle" x="428.5" y="-119.5" font-family="Helvetica,sans-Serif" font-size="10.00">AlreadyConflictedBeforeSet.h</text>
</a>
</g>
</g>
<!-- Node12&#45;&gt;Node13 -->
<g id="edge13" class="edge">
<title>Node12&#45;&gt;Node13</title>
<path fill="none" stroke="midnightblue" d="M349.32,-218.14C359.76,-209.84 372.44,-198.99 382.5,-188 399.49,-169.44 415.57,-144.42 423.45,-131.5"/>
<polygon fill="midnightblue" stroke="midnightblue" points="346.94,-215.55 341.19,-224.45 351.24,-221.08 346.94,-215.55"/>
</g>
<!-- Node14 -->
<g id="node14" class="node">
<title>Node14</title>
<g id="a_node14"><a xlink:href="GroupConflict_8h.html" target="_top" xlink:title=" ">
<polygon fill="white" stroke="black" points="281.5,-168.5 281.5,-187.5 373.5,-187.5 373.5,-168.5 281.5,-168.5"/>
<text text-anchor="middle" x="327.5" y="-175.5" font-family="Helvetica,sans-Serif" font-size="10.00">GroupConflict.h</text>
</a>
</g>
</g>
<!-- Node12&#45;&gt;Node14 -->
<g id="edge15" class="edge">
<title>Node12&#45;&gt;Node14</title>
<path fill="none" stroke="midnightblue" d="M328.79,-213.8C328.46,-204.91 328.08,-194.78 327.82,-187.75"/>
<polygon fill="midnightblue" stroke="midnightblue" points="325.3,-214.22 329.17,-224.08 332.3,-213.96 325.3,-214.22"/>
</g>
<!-- Node13&#45;&gt;Node8 -->
<g id="edge14" class="edge">
<title>Node13&#45;&gt;Node8</title>
<path fill="none" stroke="midnightblue" d="M427.79,-101.8C427.46,-92.91 427.08,-82.78 426.82,-75.75"/>
<polygon fill="midnightblue" stroke="midnightblue" points="424.3,-102.22 428.17,-112.08 431.3,-101.96 424.3,-102.22"/>
</g>
<!-- Node14&#45;&gt;Node7 -->
<g id="edge16" class="edge">
<title>Node14&#45;&gt;Node7</title>
<path fill="none" stroke="midnightblue" d="M305.31,-162.9C289.72,-153 269.37,-140.07 256.12,-131.65"/>
<polygon fill="midnightblue" stroke="midnightblue" points="303.53,-165.92 313.84,-168.32 307.28,-160.01 303.53,-165.92"/>
</g>
</g>
</svg>
        <g id="navigator" transform="translate(0 0)" fill="#404254">
                <rect fill="#f2f5e9" fill-opacity="0.5" stroke="#606060" stroke-width=".5" x="0" y="0" width="60" height="60"/>
                <use id="zoomplus" xlink:href="#zoomPlus" x="17" y="9" onmousedown="handleZoom(evt,'in')"/>
                <use id="zoomminus" xlink:href="#zoomMin" x="42" y="9" onmousedown="handleZoom(evt,'out')"/>
                <use id="reset" xlink:href="#resetDef" x="30" y="36" onmousedown="handleReset()"/>
                <g id="arrowUp" xlink:href="#dirArrow" transform="translate(30 24)" onmousedown="handlePan(0,-1)">
                  <use xlink:href="#rim" fill="#404040">
                        <set attributeName="fill" to="#808080" begin="arrowUp.mouseover" end="arrowUp.mouseout"/>
                  </use>
                  <path fill="none" stroke="white" stroke-width="1.5" d="M0,-3.0v7 M-2.5,-0.5L0,-3.0L2.5,-0.5"/>
                </g>
                <g id="arrowRight" xlink:href="#dirArrow" transform="rotate(90) translate(36 -43)" onmousedown="handlePan(1,0)">
                  <use xlink:href="#rim" fill="#404040">
                        <set attributeName="fill" to="#808080" begin="arrowRight.mouseover" end="arrowRight.mouseout"/>
                  </use>
                  <path fill="none" stroke="white" stroke-width="1.5" d="M0,-3.0v7 M-2.5,-0.5L0,-3.0L2.5,-0.5"/>
                </g>
                <g id="arrowDown" xlink:href="#dirArrow" transform="rotate(180) translate(-30 -48)" onmousedown="handlePan(0,1)">
                  <use xlink:href="#rim" fill="#404040">
                        <set attributeName="fill" to="#808080" begin="arrowDown.mouseover" end="arrowDown.mouseout"/>
                  </use>
                  <path fill="none" stroke="white" stroke-width="1.5" d="M0,-3.0v7 M-2.5,-0.5L0,-3.0L2.5,-0.5"/>
                </g>
                <g id="arrowLeft" xlink:href="#dirArrow" transform="rotate(270) translate(-36 17)" onmousedown="handlePan(-1,0)">
                  <use xlink:href="#rim" fill="#404040">
                        <set attributeName="fill" to="#808080" begin="arrowLeft.mouseover" end="arrowLeft.mouseout"/>
                  </use>
                  <path fill="none" stroke="white" stroke-width="1.5" d="M0,-3.0v7 M-2.5,-0.5L0,-3.0L2.5,-0.5"/>
                </g>
        </g>
        <svg viewBox="0 0 15 15" width="100%" height="30px" preserveAspectRatio="xMaxYMin meet">
         <g id="arrow_out" transform="scale(0.3 0.3)">
          <a xlink:href="Solution_8h__dep__incl_org.svg" target="_base">
           <rect id="button" ry="5" rx="5" y="6" x="6" height="38" width="38"
                fill="#f2f5e9" fill-opacity="0.5" stroke="#606060" stroke-width="1.0"/>
           <path id="arrow"
             d="M 11.500037,31.436501 C 11.940474,20.09759 22.043105,11.32322 32.158766,21.979434 L 37.068811,17.246167 C 37.068811,17.246167 37.088388,32 37.088388,32 L 22.160133,31.978069 C 22.160133,31.978069 26.997745,27.140456 26.997745,27.140456 C 18.528582,18.264221 13.291696,25.230495 11.500037,31.436501 z"
             style="fill:#404040;"/>
          </a>
         </g>
        </svg>
</svg>
