<?xml version="1.0" encoding="UTF-8" standalone="no"?>
<!DOCTYPE svg PUBLIC "-//W3C//DTD SVG 1.1//EN"
 "http://www.w3.org/Graphics/SVG/1.1/DTD/svg11.dtd">
<!-- Generated by graphviz version 2.43.0 (0)
 -->
<!-- Title: States/State.h Pages: 1 -->
<!--zoomable 810 -->
<svg id="main" version="1.1" xmlns="http://www.w3.org/2000/svg" xmlns:xlink="http://www.w3.org/1999/xlink" xml:space="preserve" onload="init(evt)">
<style type="text/css"><![CDATA[
.edge:hover path { stroke: red; }
.edge:hover polygon { stroke: red; fill: red; }
]]></style>
<script type="text/javascript"><![CDATA[
var edges = document.getElementsByTagName('g');
if (edges && edges.length) {
  for (var i=0;i<edges.length;i++) {
    if (edges[i].id.substr(0,4)=='edge') {
      edges[i].setAttribute('class','edge');
    }
  }
}
]]></script>
        <defs>
                <circle id="rim" cx="0" cy="0" r="7"/>
                <circle id="rim2" cx="0" cy="0" r="3.5"/>
                <g id="zoomPlus">
                        <use xlink:href="#rim" fill="#404040">
                                <set attributeName="fill" to="#808080" begin="zoomplus.mouseover" end="zoomplus.mouseout"/>
                        </use>
                        <path d="M-4,0h8M0,-4v8" fill="none" stroke="white" stroke-width="1.5" pointer-events="none"/>
                </g>
                <g id="zoomMin">
                        <use xlink:href="#rim" fill="#404040">
                                <set attributeName="fill" to="#808080" begin="zoomminus.mouseover" end="zoomminus.mouseout"/>
                        </use>
                        <path d="M-4,0h8" fill="none" stroke="white" stroke-width="1.5" pointer-events="none"/>
                </g>
                <g id="dirArrow">
                        <path fill="none" stroke="white" stroke-width="1.5" d="M0,-3.0v7 M-2.5,-0.5L0,-3.0L2.5,-0.5"/>
                </g>
               <g id="resetDef">
                       <use xlink:href="#rim2" fill="#404040">
                               <set attributeName="fill" to="#808080" begin="reset.mouseover" end="reset.mouseout"/>
                       </use>
               </g>
        </defs>

<script type="text/javascript">
var viewWidth = 1705;
var viewHeight = 810;
var sectionId = 'dynsection-0';
</script>
<script xlink:href="svgpan.js"/>
<svg id="graph" class="graph">
<g id="viewport">
<title>States/State.h</title>
<polygon fill="white" stroke="transparent" points="-4,4 -4,-806 1701,-806 1701,4 -4,4"/>
<!-- Node1 -->
<g id="node1" class="node">
<title>Node1</title>
<g id="a_node1"><a xlink:title=" ">
<polygon fill="#bfbfbf" stroke="black" points="932.5,-782.5 932.5,-801.5 1017.5,-801.5 1017.5,-782.5 932.5,-782.5"/>
<text text-anchor="middle" x="975" y="-789.5" font-family="Helvetica,sans-Serif" font-size="10.00">States/State.h</text>
</a>
</g>
</g>
<!-- Node2 -->
<g id="node2" class="node">
<title>Node2</title>
<g id="a_node2"><a xlink:href="ODMultiAgentState_8h.html" target="_top" xlink:title=" ">
<polygon fill="white" stroke="black" points="414.5,-721 414.5,-740 567.5,-740 567.5,-721 414.5,-721"/>
<text text-anchor="middle" x="491" y="-728" font-family="Helvetica,sans-Serif" font-size="10.00">States/ODMultiAgentState.h</text>
</a>
</g>
</g>
<!-- Node1&#45;&gt;Node2 -->
<g id="edge1" class="edge">
<title>Node1&#45;&gt;Node2</title>
<path fill="none" stroke="midnightblue" d="M922.48,-784.54C834.77,-773.76 658.46,-752.09 560.55,-740.05"/>
<polygon fill="midnightblue" stroke="midnightblue" points="922.12,-788.03 932.47,-785.77 922.97,-781.08 922.12,-788.03"/>
</g>
<!-- Node23 -->
<g id="node23" class="node">
<title>Node23</title>
<g id="a_node23"><a xlink:href="SingleAgentSpaceTimeState_8h.html" target="_top" xlink:title=" ">
<polygon fill="white" stroke="black" points="808.5,-715.5 808.5,-745.5 971.5,-745.5 971.5,-715.5 808.5,-715.5"/>
<text text-anchor="start" x="816.5" y="-733.5" font-family="Helvetica,sans-Serif" font-size="10.00">States/SingleAgentSpaceTime</text>
<text text-anchor="middle" x="890" y="-722.5" font-family="Helvetica,sans-Serif" font-size="10.00">State.h</text>
</a>
</g>
</g>
<!-- Node1&#45;&gt;Node23 -->
<g id="edge25" class="edge">
<title>Node1&#45;&gt;Node23</title>
<path fill="none" stroke="midnightblue" d="M954.63,-776.74C941.12,-767.28 923.47,-754.93 910.03,-745.52"/>
<polygon fill="midnightblue" stroke="midnightblue" points="952.62,-779.61 962.82,-782.48 956.64,-773.87 952.62,-779.61"/>
</g>
<!-- Node27 -->
<g id="node27" class="node">
<title>Node27</title>
<g id="a_node27"><a xlink:href="SingleAgentState_8h.html" target="_top" xlink:title=" ">
<polygon fill="white" stroke="black" points="989.5,-721 989.5,-740 1132.5,-740 1132.5,-721 989.5,-721"/>
<text text-anchor="middle" x="1061" y="-728" font-family="Helvetica,sans-Serif" font-size="10.00">States/SingleAgentState.h</text>
</a>
</g>
</g>
<!-- Node1&#45;&gt;Node27 -->
<g id="edge30" class="edge">
<title>Node1&#45;&gt;Node27</title>
<path fill="none" stroke="midnightblue" d="M995.8,-776.61C1012.34,-765.17 1034.92,-749.55 1048.7,-740.01"/>
<polygon fill="midnightblue" stroke="midnightblue" points="993.55,-773.91 987.32,-782.48 997.54,-779.66 993.55,-773.91"/>
</g>
<!-- Node30 -->
<g id="node30" class="node">
<title>Node30</title>
<g id="a_node30"><a xlink:href="StandardMultiAgentState_8h.html" target="_top" xlink:title=" ">
<polygon fill="white" stroke="black" points="1241.5,-715.5 1241.5,-745.5 1388.5,-745.5 1388.5,-715.5 1241.5,-715.5"/>
<text text-anchor="start" x="1249.5" y="-733.5" font-family="Helvetica,sans-Serif" font-size="10.00">States/StandardMultiAgent</text>
<text text-anchor="middle" x="1315" y="-722.5" font-family="Helvetica,sans-Serif" font-size="10.00">State.h</text>
</a>
</g>
</g>
<!-- Node1&#45;&gt;Node30 -->
<g id="edge35" class="edge">
<title>Node1&#45;&gt;Node30</title>
<path fill="none" stroke="midnightblue" d="M1027.65,-781.79C1084.96,-771.76 1177.03,-755.65 1241.46,-744.37"/>
<polygon fill="midnightblue" stroke="midnightblue" points="1026.96,-778.35 1017.72,-783.52 1028.17,-785.25 1026.96,-778.35"/>
</g>
<!-- Node3 -->
<g id="node3" class="node">
<title>Node3</title>
<g id="a_node3"><a xlink:href="ODMultiAgentAStarProblem_8h.html" target="_top" xlink:title=" ">
<polygon fill="white" stroke="black" points="321,-648.5 321,-678.5 481,-678.5 481,-648.5 321,-648.5"/>
<text text-anchor="start" x="329" y="-666.5" font-family="Helvetica,sans-Serif" font-size="10.00">AStarProblems/ODMultiAgent</text>
<text text-anchor="middle" x="401" y="-655.5" font-family="Helvetica,sans-Serif" font-size="10.00">AStarProblem.h</text>
</a>
</g>
</g>
<!-- Node2&#45;&gt;Node3 -->
<g id="edge2" class="edge">
<title>Node2&#45;&gt;Node3</title>
<path fill="none" stroke="midnightblue" d="M470.71,-714.85C455.69,-704 435.34,-689.3 420.51,-678.59"/>
<polygon fill="midnightblue" stroke="midnightblue" points="468.71,-717.72 478.86,-720.73 472.8,-712.04 468.71,-717.72"/>
</g>
<!-- Node18 -->
<g id="node18" class="node">
<title>Node18</title>
<g id="a_node18"><a xlink:href="ODMultiAgentSpaceTimeState_8h.html" target="_top" xlink:title=" ">
<polygon fill="white" stroke="black" points="155,-648.5 155,-678.5 303,-678.5 303,-648.5 155,-648.5"/>
<text text-anchor="start" x="163" y="-666.5" font-family="Helvetica,sans-Serif" font-size="10.00">States/ODMultiAgentSpace</text>
<text text-anchor="middle" x="229" y="-655.5" font-family="Helvetica,sans-Serif" font-size="10.00">TimeState.h</text>
</a>
</g>
</g>
<!-- Node2&#45;&gt;Node18 -->
<g id="edge19" class="edge">
<title>Node2&#45;&gt;Node18</title>
<path fill="none" stroke="midnightblue" d="M446.57,-718.48C402.22,-707.47 333.9,-690.52 285.67,-678.56"/>
<polygon fill="midnightblue" stroke="midnightblue" points="445.93,-721.92 456.48,-720.94 447.62,-715.13 445.93,-721.92"/>
</g>
<!-- Node22 -->
<g id="node22" class="node">
<title>Node22</title>
<g id="a_node22"><a xlink:href="ODMultiAgentState_8cpp.html" target="_top" xlink:title=" ">
<polygon fill="white" stroke="black" points="499,-654 499,-673 663,-673 663,-654 499,-654"/>
<text text-anchor="middle" x="581" y="-661" font-family="Helvetica,sans-Serif" font-size="10.00">States/ODMultiAgentState.cpp</text>
</a>
</g>
</g>
<!-- Node2&#45;&gt;Node22 -->
<g id="edge24" class="edge">
<title>Node2&#45;&gt;Node22</title>
<path fill="none" stroke="midnightblue" d="M511.68,-714.57C529.44,-701.74 554.44,-683.69 569.05,-673.13"/>
<polygon fill="midnightblue" stroke="midnightblue" points="509.2,-712.04 503.14,-720.73 513.29,-717.72 509.2,-712.04"/>
</g>
<!-- Node4 -->
<g id="node4" class="node">
<title>Node4</title>
<g id="a_node4"><a xlink:href="ODMultiAgentAStarProblem_8cpp.html" target="_top" xlink:title=" ">
<polygon fill="white" stroke="black" points="360,-581.5 360,-611.5 520,-611.5 520,-581.5 360,-581.5"/>
<text text-anchor="start" x="368" y="-599.5" font-family="Helvetica,sans-Serif" font-size="10.00">AStarProblems/ODMultiAgent</text>
<text text-anchor="middle" x="440" y="-588.5" font-family="Helvetica,sans-Serif" font-size="10.00">AStarProblem.cpp</text>
</a>
</g>
</g>
<!-- Node3&#45;&gt;Node4 -->
<g id="edge3" class="edge">
<title>Node3&#45;&gt;Node4</title>
<path fill="none" stroke="midnightblue" d="M414.75,-639.58C420.36,-630.24 426.65,-619.75 431.55,-611.58"/>
<polygon fill="midnightblue" stroke="midnightblue" points="411.61,-638.02 409.46,-648.4 417.61,-641.62 411.61,-638.02"/>
</g>
<!-- Node5 -->
<g id="node5" class="node">
<title>Node5</title>
<g id="a_node5"><a xlink:href="HeuristicManhattan_8h.html" target="_top" xlink:title=" ">
<polygon fill="white" stroke="black" points="808.5,-520 808.5,-539 981.5,-539 981.5,-520 808.5,-520"/>
<text text-anchor="middle" x="895" y="-527" font-family="Helvetica,sans-Serif" font-size="10.00">Heuristics/HeuristicManhattan.h</text>
</a>
</g>
</g>
<!-- Node3&#45;&gt;Node5 -->
<g id="edge4" class="edge">
<title>Node3&#45;&gt;Node5</title>
<path fill="none" stroke="midnightblue" d="M460.47,-645.67C519.98,-628.93 614.19,-602.68 696,-581 753.54,-565.75 820.69,-548.91 860.43,-539.04"/>
<polygon fill="midnightblue" stroke="midnightblue" points="459.18,-642.4 450.5,-648.48 461.07,-649.14 459.18,-642.4"/>
</g>
<!-- Node6 -->
<g id="node6" class="node">
<title>Node6</title>
<g id="a_node6"><a xlink:href="HeuristicOptimal_8h.html" target="_top" xlink:title=" ">
<polygon fill="white" stroke="black" points="815,-386 815,-405 975,-405 975,-386 815,-386"/>
<text text-anchor="middle" x="895" y="-393" font-family="Helvetica,sans-Serif" font-size="10.00">Heuristics/HeuristicOptimal.h</text>
</a>
</g>
</g>
<!-- Node5&#45;&gt;Node6 -->
<g id="edge5" class="edge">
<title>Node5&#45;&gt;Node6</title>
<path fill="none" stroke="midnightblue" d="M895,-509.78C895,-480.75 895,-426.04 895,-405.02"/>
<polygon fill="midnightblue" stroke="midnightblue" points="891.5,-509.84 895,-519.84 898.5,-509.84 891.5,-509.84"/>
</g>
<!-- Node16 -->
<g id="node16" class="node">
<title>Node16</title>
<g id="a_node16"><a xlink:href="ReverseResumableAStar_8h.html" target="_top" xlink:title=" ">
<polygon fill="white" stroke="black" points="958.5,-447.5 958.5,-477.5 1137.5,-477.5 1137.5,-447.5 958.5,-447.5"/>
<text text-anchor="start" x="966.5" y="-465.5" font-family="Helvetica,sans-Serif" font-size="10.00">Solvers/AStar/ReverseResumable</text>
<text text-anchor="middle" x="1048" y="-454.5" font-family="Helvetica,sans-Serif" font-size="10.00">AStar.h</text>
</a>
</g>
</g>
<!-- Node5&#45;&gt;Node16 -->
<g id="edge16" class="edge">
<title>Node5&#45;&gt;Node16</title>
<path fill="none" stroke="midnightblue" d="M924.63,-515.91C950.54,-504.91 988.11,-488.94 1014.98,-477.53"/>
<polygon fill="midnightblue" stroke="midnightblue" points="923.15,-512.74 915.32,-519.87 925.89,-519.18 923.15,-512.74"/>
</g>
<!-- Node7 -->
<g id="node7" class="node">
<title>Node7</title>
<g id="a_node7"><a xlink:href="AStar_8h.html" target="_top" xlink:title=" ">
<polygon fill="white" stroke="black" points="835.5,-324.5 835.5,-343.5 954.5,-343.5 954.5,-324.5 835.5,-324.5"/>
<text text-anchor="middle" x="895" y="-331.5" font-family="Helvetica,sans-Serif" font-size="10.00">Solvers/AStar/AStar.h</text>
</a>
</g>
</g>
<!-- Node6&#45;&gt;Node7 -->
<g id="edge6" class="edge">
<title>Node6&#45;&gt;Node7</title>
<path fill="none" stroke="midnightblue" d="M895,-375.82C895,-365 895,-351.9 895,-343.51"/>
<polygon fill="midnightblue" stroke="midnightblue" points="891.5,-375.98 895,-385.98 898.5,-375.98 891.5,-375.98"/>
</g>
<!-- Node8 -->
<g id="node8" class="node">
<title>Node8</title>
<g id="a_node8"><a xlink:href="GeneralAStar_8h.html" target="_top" xlink:title=" ">
<polygon fill="white" stroke="black" points="732,-263 732,-282 890,-282 890,-263 732,-263"/>
<text text-anchor="middle" x="811" y="-270" font-family="Helvetica,sans-Serif" font-size="10.00">Solvers/AStar/GeneralAStar.h</text>
</a>
</g>
</g>
<!-- Node7&#45;&gt;Node8 -->
<g id="edge7" class="edge">
<title>Node7&#45;&gt;Node8</title>
<path fill="none" stroke="midnightblue" d="M874.69,-318.61C858.53,-307.17 836.48,-291.55 823.01,-282.01"/>
<polygon fill="midnightblue" stroke="midnightblue" points="872.78,-321.55 882.96,-324.48 876.83,-315.84 872.78,-321.55"/>
</g>
<!-- Node15 -->
<g id="node15" class="node">
<title>Node15</title>
<g id="a_node15"><a xlink:href="CooperativeAStar_8h.html" target="_top" xlink:title=" ">
<polygon fill="white" stroke="black" points="908,-257.5 908,-287.5 1050,-287.5 1050,-257.5 908,-257.5"/>
<text text-anchor="start" x="916" y="-275.5" font-family="Helvetica,sans-Serif" font-size="10.00">Solvers/SuboptimalSolver</text>
<text text-anchor="middle" x="979" y="-264.5" font-family="Helvetica,sans-Serif" font-size="10.00">/CooperativeAStar.h</text>
</a>
</g>
</g>
<!-- Node7&#45;&gt;Node15 -->
<g id="edge15" class="edge">
<title>Node7&#45;&gt;Node15</title>
<path fill="none" stroke="midnightblue" d="M915.52,-318.47C928.82,-309.05 946.05,-296.84 959.2,-287.52"/>
<polygon fill="midnightblue" stroke="midnightblue" points="913.17,-315.84 907.04,-324.48 917.22,-321.55 913.17,-315.84"/>
</g>
<!-- Node9 -->
<g id="node9" class="node">
<title>Node9</title>
<g id="a_node9"><a xlink:href="ConflictBasedSearch_8h.html" target="_top" xlink:title=" ">
<polygon fill="white" stroke="black" points="688.5,-190.5 688.5,-220.5 833.5,-220.5 833.5,-190.5 688.5,-190.5"/>
<text text-anchor="start" x="696.5" y="-208.5" font-family="Helvetica,sans-Serif" font-size="10.00">Solvers/CBS/ConflictBased</text>
<text text-anchor="middle" x="761" y="-197.5" font-family="Helvetica,sans-Serif" font-size="10.00">Search.h</text>
</a>
</g>
</g>
<!-- Node8&#45;&gt;Node9 -->
<g id="edge8" class="edge">
<title>Node8&#45;&gt;Node9</title>
<path fill="none" stroke="midnightblue" d="M798.06,-254.67C789.92,-244.09 779.54,-230.6 771.84,-220.59"/>
<polygon fill="midnightblue" stroke="midnightblue" points="795.39,-256.94 804.26,-262.73 800.93,-252.67 795.39,-256.94"/>
</g>
<!-- Node11 -->
<g id="node11" class="node">
<title>Node11</title>
<g id="a_node11"><a xlink:href="SimpleIndependenceDetection_8h.html" target="_top" xlink:title=" ">
<polygon fill="white" stroke="black" points="776.5,-123.5 776.5,-153.5 947.5,-153.5 947.5,-123.5 776.5,-123.5"/>
<text text-anchor="start" x="784.5" y="-141.5" font-family="Helvetica,sans-Serif" font-size="10.00">Solvers/ID/SimpleIndependence</text>
<text text-anchor="middle" x="862" y="-130.5" font-family="Helvetica,sans-Serif" font-size="10.00">Detection.h</text>
</a>
</g>
</g>
<!-- Node8&#45;&gt;Node11 -->
<g id="edge14" class="edge">
<title>Node8&#45;&gt;Node11</title>
<path fill="none" stroke="midnightblue" d="M823.46,-254.23C829.78,-244.79 837.12,-232.68 842,-221 851.43,-198.41 857.1,-170.37 859.88,-153.76"/>
<polygon fill="midnightblue" stroke="midnightblue" points="820.44,-252.44 817.61,-262.65 826.19,-256.43 820.44,-252.44"/>
</g>
<!-- Node10 -->
<g id="node10" class="node">
<title>Node10</title>
<g id="a_node10"><a xlink:href="ConflictBasedSearch_8cpp.html" target="_top" xlink:title=" ">
<polygon fill="white" stroke="black" points="613.5,-123.5 613.5,-153.5 758.5,-153.5 758.5,-123.5 613.5,-123.5"/>
<text text-anchor="start" x="621.5" y="-141.5" font-family="Helvetica,sans-Serif" font-size="10.00">Solvers/CBS/ConflictBased</text>
<text text-anchor="middle" x="686" y="-130.5" font-family="Helvetica,sans-Serif" font-size="10.00">Search.cpp</text>
</a>
</g>
</g>
<!-- Node9&#45;&gt;Node10 -->
<g id="edge9" class="edge">
<title>Node9&#45;&gt;Node10</title>
<path fill="none" stroke="midnightblue" d="M736.88,-183.6C725.56,-173.78 712.36,-162.34 702.24,-153.58"/>
<polygon fill="midnightblue" stroke="midnightblue" points="734.88,-186.49 744.73,-190.4 739.46,-181.2 734.88,-186.49"/>
</g>
<!-- Node9&#45;&gt;Node11 -->
<g id="edge10" class="edge">
<title>Node9&#45;&gt;Node11</title>
<path fill="none" stroke="midnightblue" d="M791.71,-184.73C807.34,-174.68 825.97,-162.68 840.13,-153.58"/>
<polygon fill="midnightblue" stroke="midnightblue" points="789.43,-182.04 782.92,-190.4 793.22,-187.93 789.43,-182.04"/>
</g>
<!-- Node12 -->
<g id="node12" class="node">
<title>Node12</title>
<g id="a_node12"><a xlink:href="IndependenceDetection_8h.html" target="_top" xlink:title=" ">
<polygon fill="white" stroke="black" points="664,-62 664,-81 858,-81 858,-62 664,-62"/>
<text text-anchor="middle" x="761" y="-69" font-family="Helvetica,sans-Serif" font-size="10.00">Solvers/ID/IndependenceDetection.h</text>
</a>
</g>
</g>
<!-- Node11&#45;&gt;Node12 -->
<g id="edge11" class="edge">
<title>Node11&#45;&gt;Node12</title>
<path fill="none" stroke="midnightblue" d="M831.66,-117.97C812.51,-105.65 788.73,-90.35 774.22,-81.01"/>
<polygon fill="midnightblue" stroke="midnightblue" points="829.78,-120.93 840.08,-123.4 833.57,-115.04 829.78,-120.93"/>
</g>
<!-- Node14 -->
<g id="node14" class="node">
<title>Node14</title>
<g id="a_node14"><a xlink:href="SimpleIndependenceDetection_8cpp.html" target="_top" xlink:title=" ">
<polygon fill="white" stroke="black" points="876.5,-56.5 876.5,-86.5 1047.5,-86.5 1047.5,-56.5 876.5,-56.5"/>
<text text-anchor="start" x="884.5" y="-74.5" font-family="Helvetica,sans-Serif" font-size="10.00">Solvers/ID/SimpleIndependence</text>
<text text-anchor="middle" x="962" y="-63.5" font-family="Helvetica,sans-Serif" font-size="10.00">Detection.cpp</text>
</a>
</g>
</g>
<!-- Node11&#45;&gt;Node14 -->
<g id="edge13" class="edge">
<title>Node11&#45;&gt;Node14</title>
<path fill="none" stroke="midnightblue" d="M892.41,-117.73C907.88,-107.68 926.33,-95.68 940.34,-86.58"/>
<polygon fill="midnightblue" stroke="midnightblue" points="890.18,-115.01 883.7,-123.4 893.99,-120.88 890.18,-115.01"/>
</g>
<!-- Node13 -->
<g id="node13" class="node">
<title>Node13</title>
<g id="a_node13"><a xlink:href="IndependenceDetection_8cpp.html" target="_top" xlink:title=" ">
<polygon fill="white" stroke="black" points="658.5,-0.5 658.5,-19.5 863.5,-19.5 863.5,-0.5 658.5,-0.5"/>
<text text-anchor="middle" x="761" y="-7.5" font-family="Helvetica,sans-Serif" font-size="10.00">Solvers/ID/IndependenceDetection.cpp</text>
</a>
</g>
</g>
<!-- Node12&#45;&gt;Node13 -->
<g id="edge12" class="edge">
<title>Node12&#45;&gt;Node13</title>
<path fill="none" stroke="midnightblue" d="M761,-51.82C761,-41 761,-27.9 761,-19.51"/>
<polygon fill="midnightblue" stroke="midnightblue" points="757.5,-51.98 761,-61.98 764.5,-51.98 757.5,-51.98"/>
</g>
<!-- Node16&#45;&gt;Node6 -->
<g id="edge17" class="edge">
<title>Node16&#45;&gt;Node6</title>
<path fill="none" stroke="midnightblue" d="M1005.53,-443.46C975.97,-430.9 937.9,-414.72 915.02,-405.01"/>
<polygon fill="midnightblue" stroke="midnightblue" points="1004.23,-446.71 1014.8,-447.4 1006.97,-440.26 1004.23,-446.71"/>
</g>
<!-- Node17 -->
<g id="node17" class="node">
<title>Node17</title>
<g id="a_node17"><a xlink:href="ReverseResumableAStar_8cpp.html" target="_top" xlink:title=" ">
<polygon fill="white" stroke="black" points="993.5,-380.5 993.5,-410.5 1172.5,-410.5 1172.5,-380.5 993.5,-380.5"/>
<text text-anchor="start" x="1001.5" y="-398.5" font-family="Helvetica,sans-Serif" font-size="10.00">Solvers/AStar/ReverseResumable</text>
<text text-anchor="middle" x="1083" y="-387.5" font-family="Helvetica,sans-Serif" font-size="10.00">AStar.cpp</text>
</a>
</g>
</g>
<!-- Node16&#45;&gt;Node17 -->
<g id="edge18" class="edge">
<title>Node16&#45;&gt;Node17</title>
<path fill="none" stroke="midnightblue" d="M1060.34,-438.58C1065.37,-429.24 1071.02,-418.75 1075.42,-410.58"/>
<polygon fill="midnightblue" stroke="midnightblue" points="1057.25,-436.93 1055.59,-447.4 1063.42,-440.25 1057.25,-436.93"/>
</g>
<!-- Node19 -->
<g id="node19" class="node">
<title>Node19</title>
<g id="a_node19"><a xlink:href="ODMultiAgentAStarProblemWithConstraints_8h.html" target="_top" xlink:title=" ">
<polygon fill="white" stroke="black" points="6,-581.5 6,-611.5 176,-611.5 176,-581.5 6,-581.5"/>
<text text-anchor="start" x="14" y="-599.5" font-family="Helvetica,sans-Serif" font-size="10.00">AStarProblems/ODMultiAgent</text>
<text text-anchor="middle" x="91" y="-588.5" font-family="Helvetica,sans-Serif" font-size="10.00">AStarProblemWithConstraints.h</text>
</a>
</g>
</g>
<!-- Node18&#45;&gt;Node19 -->
<g id="edge20" class="edge">
<title>Node18&#45;&gt;Node19</title>
<path fill="none" stroke="midnightblue" d="M190,-644.13C168.07,-633.8 141.13,-621.11 120.89,-611.58"/>
<polygon fill="midnightblue" stroke="midnightblue" points="188.52,-647.3 199.06,-648.4 191.5,-640.97 188.52,-647.3"/>
</g>
<!-- Node21 -->
<g id="node21" class="node">
<title>Node21</title>
<g id="a_node21"><a xlink:href="ODMultiAgentSpaceTimeState_8cpp.html" target="_top" xlink:title=" ">
<polygon fill="white" stroke="black" points="194,-581.5 194,-611.5 342,-611.5 342,-581.5 194,-581.5"/>
<text text-anchor="start" x="202" y="-599.5" font-family="Helvetica,sans-Serif" font-size="10.00">States/ODMultiAgentSpace</text>
<text text-anchor="middle" x="268" y="-588.5" font-family="Helvetica,sans-Serif" font-size="10.00">TimeState.cpp</text>
</a>
</g>
</g>
<!-- Node18&#45;&gt;Node21 -->
<g id="edge23" class="edge">
<title>Node18&#45;&gt;Node21</title>
<path fill="none" stroke="midnightblue" d="M242.75,-639.58C248.36,-630.24 254.65,-619.75 259.55,-611.58"/>
<polygon fill="midnightblue" stroke="midnightblue" points="239.61,-638.02 237.46,-648.4 245.61,-641.62 239.61,-638.02"/>
</g>
<!-- Node19&#45;&gt;Node5 -->
<g id="edge22" class="edge">
<title>Node19&#45;&gt;Node5</title>
<path fill="none" stroke="midnightblue" d="M186.28,-580.92C416.86,-555.35 676.48,-540.76 808.45,-534.36"/>
<polygon fill="midnightblue" stroke="midnightblue" points="185.56,-577.48 176.01,-582.07 186.34,-584.43 185.56,-577.48"/>
</g>
<!-- Node20 -->
<g id="node20" class="node">
<title>Node20</title>
<g id="a_node20"><a xlink:href="ODMultiAgentAStarProblemWithConstraints_8cpp.html" target="_top" xlink:title=" ">
<polygon fill="white" stroke="black" points="0,-514.5 0,-544.5 182,-544.5 182,-514.5 0,-514.5"/>
<text text-anchor="start" x="8" y="-532.5" font-family="Helvetica,sans-Serif" font-size="10.00">AStarProblems/ODMultiAgent</text>
<text text-anchor="middle" x="91" y="-521.5" font-family="Helvetica,sans-Serif" font-size="10.00">AStarProblemWithConstraints.cpp</text>
</a>
</g>
</g>
<!-- Node19&#45;&gt;Node20 -->
<g id="edge21" class="edge">
<title>Node19&#45;&gt;Node20</title>
<path fill="none" stroke="midnightblue" d="M91,-571.11C91,-562.15 91,-552.32 91,-544.58"/>
<polygon fill="midnightblue" stroke="midnightblue" points="87.5,-571.4 91,-581.4 94.5,-571.4 87.5,-571.4"/>
</g>
<!-- Node24 -->
<g id="node24" class="node">
<title>Node24</title>
<g id="a_node24"><a xlink:href="SingleAgentAStarProblemWithConstraints_8h.html" target="_top" xlink:title=" ">
<polygon fill="white" stroke="black" points="863,-648.5 863,-678.5 1033,-678.5 1033,-648.5 863,-648.5"/>
<text text-anchor="start" x="871" y="-666.5" font-family="Helvetica,sans-Serif" font-size="10.00">AStarProblems/SingleAgent</text>
<text text-anchor="middle" x="948" y="-655.5" font-family="Helvetica,sans-Serif" font-size="10.00">AStarProblemWithConstraints.h</text>
</a>
</g>
</g>
<!-- Node23&#45;&gt;Node24 -->
<g id="edge26" class="edge">
<title>Node23&#45;&gt;Node24</title>
<path fill="none" stroke="midnightblue" d="M909.42,-707.74C918,-698.12 927.84,-687.09 935.44,-678.58"/>
<polygon fill="midnightblue" stroke="midnightblue" points="906.63,-705.6 902.59,-715.4 911.85,-710.26 906.63,-705.6"/>
</g>
<!-- Node26 -->
<g id="node26" class="node">
<title>Node26</title>
<g id="a_node26"><a xlink:href="SingleAgentSpaceTimeState_8cpp.html" target="_top" xlink:title=" ">
<polygon fill="white" stroke="black" points="681.5,-648.5 681.5,-678.5 844.5,-678.5 844.5,-648.5 681.5,-648.5"/>
<text text-anchor="start" x="689.5" y="-666.5" font-family="Helvetica,sans-Serif" font-size="10.00">States/SingleAgentSpaceTime</text>
<text text-anchor="middle" x="763" y="-655.5" font-family="Helvetica,sans-Serif" font-size="10.00">State.cpp</text>
</a>
</g>
</g>
<!-- Node23&#45;&gt;Node26 -->
<g id="edge29" class="edge">
<title>Node23&#45;&gt;Node26</title>
<path fill="none" stroke="midnightblue" d="M853.3,-710.71C833.27,-700.46 808.88,-687.98 790.5,-678.58"/>
<polygon fill="midnightblue" stroke="midnightblue" points="851.95,-713.96 862.44,-715.4 855.14,-707.72 851.95,-713.96"/>
</g>
<!-- Node24&#45;&gt;Node5 -->
<g id="edge28" class="edge">
<title>Node24&#45;&gt;Node5</title>
<path fill="none" stroke="midnightblue" d="M938.45,-638.71C926.44,-608.81 906.44,-559 898.45,-539.1"/>
<polygon fill="midnightblue" stroke="midnightblue" points="935.35,-640.4 942.33,-648.37 941.85,-637.79 935.35,-640.4"/>
</g>
<!-- Node25 -->
<g id="node25" class="node">
<title>Node25</title>
<g id="a_node25"><a xlink:href="SingleAgentAStarProblemWithConstraints_8cpp.html" target="_top" xlink:title=" ">
<polygon fill="white" stroke="black" points="705,-581.5 705,-611.5 887,-611.5 887,-581.5 705,-581.5"/>
<text text-anchor="start" x="713" y="-599.5" font-family="Helvetica,sans-Serif" font-size="10.00">AStarProblems/SingleAgent</text>
<text text-anchor="middle" x="796" y="-588.5" font-family="Helvetica,sans-Serif" font-size="10.00">AStarProblemWithConstraints.cpp</text>
</a>
</g>
</g>
<!-- Node24&#45;&gt;Node25 -->
<g id="edge27" class="edge">
<title>Node24&#45;&gt;Node25</title>
<path fill="none" stroke="midnightblue" d="M905.69,-644.41C881.42,-634.03 851.41,-621.2 828.92,-611.58"/>
<polygon fill="midnightblue" stroke="midnightblue" points="904.45,-647.68 915.02,-648.4 907.2,-641.25 904.45,-647.68"/>
</g>
<!-- Node28 -->
<g id="node28" class="node">
<title>Node28</title>
<g id="a_node28"><a xlink:href="SingleAgentAStarProblem_8h.html" target="_top" xlink:title=" ">
<polygon fill="white" stroke="black" points="981,-581.5 981,-611.5 1131,-611.5 1131,-581.5 981,-581.5"/>
<text text-anchor="start" x="989" y="-599.5" font-family="Helvetica,sans-Serif" font-size="10.00">AStarProblems/SingleAgent</text>
<text text-anchor="middle" x="1056" y="-588.5" font-family="Helvetica,sans-Serif" font-size="10.00">AStarProblem.h</text>
</a>
</g>
</g>
<!-- Node27&#45;&gt;Node28 -->
<g id="edge31" class="edge">
<title>Node27&#45;&gt;Node28</title>
<path fill="none" stroke="midnightblue" d="M1060.28,-710.53C1059.27,-683.81 1057.45,-635.69 1056.54,-611.78"/>
<polygon fill="midnightblue" stroke="midnightblue" points="1056.8,-710.98 1060.67,-720.84 1063.79,-710.71 1056.8,-710.98"/>
</g>
<!-- Node28&#45;&gt;Node5 -->
<g id="edge33" class="edge">
<title>Node28&#45;&gt;Node5</title>
<path fill="none" stroke="midnightblue" d="M1011.72,-577.62C980.55,-565.04 940.24,-548.77 916.07,-539.01"/>
<polygon fill="midnightblue" stroke="midnightblue" points="1010.48,-580.9 1021.07,-581.4 1013.1,-574.41 1010.48,-580.9"/>
</g>
<!-- Node28&#45;&gt;Node16 -->
<g id="edge34" class="edge">
<title>Node28&#45;&gt;Node16</title>
<path fill="none" stroke="midnightblue" d="M1120.55,-577.2C1135.72,-569.73 1150.06,-559.35 1159,-545 1166.29,-533.31 1166.46,-525.59 1159,-514 1147.77,-496.55 1128.87,-485.06 1109.82,-477.53"/>
<polygon fill="midnightblue" stroke="midnightblue" points="1118.72,-574.19 1111.04,-581.49 1121.59,-580.57 1118.72,-574.19"/>
</g>
<!-- Node29 -->
<g id="node29" class="node">
<title>Node29</title>
<g id="a_node29"><a xlink:href="SingleAgentAStarProblem_8cpp.html" target="_top" xlink:title=" ">
<polygon fill="white" stroke="black" points="1000,-514.5 1000,-544.5 1150,-544.5 1150,-514.5 1000,-514.5"/>
<text text-anchor="start" x="1008" y="-532.5" font-family="Helvetica,sans-Serif" font-size="10.00">AStarProblems/SingleAgent</text>
<text text-anchor="middle" x="1075" y="-521.5" font-family="Helvetica,sans-Serif" font-size="10.00">AStarProblem.cpp</text>
</a>
</g>
</g>
<!-- Node28&#45;&gt;Node29 -->
<g id="edge32" class="edge">
<title>Node28&#45;&gt;Node29</title>
<path fill="none" stroke="midnightblue" d="M1062.96,-571.7C1065.62,-562.59 1068.57,-552.49 1070.89,-544.58"/>
<polygon fill="midnightblue" stroke="midnightblue" points="1059.57,-570.82 1060.12,-581.4 1066.29,-572.78 1059.57,-570.82"/>
</g>
<!-- Node31 -->
<g id="node31" class="node">
<title>Node31</title>
<g id="a_node31"><a xlink:href="StandardMultiAgentAStarProblem_8h.html" target="_top" xlink:title=" ">
<polygon fill="white" stroke="black" points="1149,-648.5 1149,-678.5 1309,-678.5 1309,-648.5 1149,-648.5"/>
<text text-anchor="start" x="1157" y="-666.5" font-family="Helvetica,sans-Serif" font-size="10.00">AStarProblems/StandardMulti</text>
<text text-anchor="middle" x="1229" y="-655.5" font-family="Helvetica,sans-Serif" font-size="10.00">AgentAStarProblem.h</text>
</a>
</g>
</g>
<!-- Node30&#45;&gt;Node31 -->
<g id="edge36" class="edge">
<title>Node30&#45;&gt;Node31</title>
<path fill="none" stroke="midnightblue" d="M1288.1,-709.17C1274.95,-699.23 1259.45,-687.51 1247.62,-678.58"/>
<polygon fill="midnightblue" stroke="midnightblue" points="1286.25,-712.16 1296.34,-715.4 1290.47,-706.57 1286.25,-712.16"/>
</g>
<!-- Node33 -->
<g id="node33" class="node">
<title>Node33</title>
<g id="a_node33"><a xlink:href="StandardMultiAgentSpaceTimeState_8h.html" target="_top" xlink:title=" ">
<polygon fill="white" stroke="black" points="1327.5,-648.5 1327.5,-678.5 1474.5,-678.5 1474.5,-648.5 1327.5,-648.5"/>
<text text-anchor="start" x="1335.5" y="-666.5" font-family="Helvetica,sans-Serif" font-size="10.00">States/StandardMultiAgent</text>
<text text-anchor="middle" x="1401" y="-655.5" font-family="Helvetica,sans-Serif" font-size="10.00">SpaceTimeState.h</text>
</a>
</g>
</g>
<!-- Node30&#45;&gt;Node33 -->
<g id="edge39" class="edge">
<title>Node30&#45;&gt;Node33</title>
<path fill="none" stroke="midnightblue" d="M1341.9,-709.17C1355.05,-699.23 1370.55,-687.51 1382.38,-678.58"/>
<polygon fill="midnightblue" stroke="midnightblue" points="1339.53,-706.57 1333.66,-715.4 1343.75,-712.16 1339.53,-706.57"/>
</g>
<!-- Node37 -->
<g id="node37" class="node">
<title>Node37</title>
<g id="a_node37"><a xlink:href="StandardMultiAgentState_8cpp.html" target="_top" xlink:title=" ">
<polygon fill="white" stroke="black" points="1492.5,-648.5 1492.5,-678.5 1639.5,-678.5 1639.5,-648.5 1492.5,-648.5"/>
<text text-anchor="start" x="1500.5" y="-666.5" font-family="Helvetica,sans-Serif" font-size="10.00">States/StandardMultiAgent</text>
<text text-anchor="middle" x="1566" y="-655.5" font-family="Helvetica,sans-Serif" font-size="10.00">State.cpp</text>
</a>
</g>
</g>
<!-- Node30&#45;&gt;Node37 -->
<g id="edge44" class="edge">
<title>Node30&#45;&gt;Node37</title>
<path fill="none" stroke="midnightblue" d="M1379.04,-712.92C1420,-702.31 1472.56,-688.7 1511.51,-678.61"/>
<polygon fill="midnightblue" stroke="midnightblue" points="1377.96,-709.58 1369.15,-715.48 1379.71,-716.36 1377.96,-709.58"/>
</g>
<!-- Node31&#45;&gt;Node5 -->
<g id="edge38" class="edge">
<title>Node31&#45;&gt;Node5</title>
<path fill="none" stroke="midnightblue" d="M1138.69,-658.32C1087.19,-652.72 1022.96,-640.1 972,-612 954.95,-602.6 917.55,-558.14 901.99,-539.14"/>
<polygon fill="midnightblue" stroke="midnightblue" points="1138.51,-661.82 1148.81,-659.35 1139.22,-654.86 1138.51,-661.82"/>
</g>
<!-- Node32 -->
<g id="node32" class="node">
<title>Node32</title>
<g id="a_node32"><a xlink:href="StandardMultiAgentAStarProblem_8cpp.html" target="_top" xlink:title=" ">
<polygon fill="white" stroke="black" points="1149,-581.5 1149,-611.5 1309,-611.5 1309,-581.5 1149,-581.5"/>
<text text-anchor="start" x="1157" y="-599.5" font-family="Helvetica,sans-Serif" font-size="10.00">AStarProblems/StandardMulti</text>
<text text-anchor="middle" x="1229" y="-588.5" font-family="Helvetica,sans-Serif" font-size="10.00">AgentAStarProblem.cpp</text>
</a>
</g>
</g>
<!-- Node31&#45;&gt;Node32 -->
<g id="edge37" class="edge">
<title>Node31&#45;&gt;Node32</title>
<path fill="none" stroke="midnightblue" d="M1229,-638.11C1229,-629.15 1229,-619.32 1229,-611.58"/>
<polygon fill="midnightblue" stroke="midnightblue" points="1225.5,-638.4 1229,-648.4 1232.5,-638.4 1225.5,-638.4"/>
</g>
<!-- Node34 -->
<g id="node34" class="node">
<title>Node34</title>
<g id="a_node34"><a xlink:href="StandardMultiAgentAStarProblemWithConstraints_8h.html" target="_top" xlink:title=" ">
<polygon fill="white" stroke="black" points="1492.5,-581.5 1492.5,-611.5 1691.5,-611.5 1691.5,-581.5 1492.5,-581.5"/>
<text text-anchor="start" x="1500.5" y="-599.5" font-family="Helvetica,sans-Serif" font-size="10.00">AStarProblems/StandardMulti</text>
<text text-anchor="middle" x="1592" y="-588.5" font-family="Helvetica,sans-Serif" font-size="10.00">AgentAStarProblemWithConstraints.h</text>
</a>
</g>
</g>
<!-- Node33&#45;&gt;Node34 -->
<g id="edge40" class="edge">
<title>Node33&#45;&gt;Node34</title>
<path fill="none" stroke="midnightblue" d="M1452.15,-645.09C1482.99,-634.6 1521.75,-621.41 1550.64,-611.58"/>
<polygon fill="midnightblue" stroke="midnightblue" points="1450.78,-641.86 1442.44,-648.4 1453.04,-648.49 1450.78,-641.86"/>
</g>
<!-- Node36 -->
<g id="node36" class="node">
<title>Node36</title>
<g id="a_node36"><a xlink:href="StandardMultiAgentSpaceTimeState_8cpp.html" target="_top" xlink:title=" ">
<polygon fill="white" stroke="black" points="1327.5,-581.5 1327.5,-611.5 1474.5,-611.5 1474.5,-581.5 1327.5,-581.5"/>
<text text-anchor="start" x="1335.5" y="-599.5" font-family="Helvetica,sans-Serif" font-size="10.00">States/StandardMultiAgent</text>
<text text-anchor="middle" x="1401" y="-588.5" font-family="Helvetica,sans-Serif" font-size="10.00">SpaceTimeState.cpp</text>
</a>
</g>
</g>
<!-- Node33&#45;&gt;Node36 -->
<g id="edge43" class="edge">
<title>Node33&#45;&gt;Node36</title>
<path fill="none" stroke="midnightblue" d="M1401,-638.11C1401,-629.15 1401,-619.32 1401,-611.58"/>
<polygon fill="midnightblue" stroke="midnightblue" points="1397.5,-638.4 1401,-648.4 1404.5,-638.4 1397.5,-638.4"/>
</g>
<!-- Node34&#45;&gt;Node5 -->
<g id="edge42" class="edge">
<title>Node34&#45;&gt;Node5</title>
<path fill="none" stroke="midnightblue" d="M1482.1,-580.84C1263.74,-558.7 1206.03,-569.05 991,-545 976.59,-543.39 961.03,-541.22 946.72,-539.06"/>
<polygon fill="midnightblue" stroke="midnightblue" points="1481.98,-584.35 1492.28,-581.89 1482.69,-577.39 1481.98,-584.35"/>
</g>
<!-- Node35 -->
<g id="node35" class="node">
<title>Node35</title>
<g id="a_node35"><a xlink:href="StandardMultiAgentAStarProblemWithConstraints_8cpp.html" target="_top" xlink:title=" ">
<polygon fill="white" stroke="black" points="1487,-514.5 1487,-544.5 1697,-544.5 1697,-514.5 1487,-514.5"/>
<text text-anchor="start" x="1495" y="-532.5" font-family="Helvetica,sans-Serif" font-size="10.00">AStarProblems/StandardMulti</text>
<text text-anchor="middle" x="1592" y="-521.5" font-family="Helvetica,sans-Serif" font-size="10.00">AgentAStarProblemWithConstraints.cpp</text>
</a>
</g>
</g>
<!-- Node34&#45;&gt;Node35 -->
<g id="edge41" class="edge">
<title>Node34&#45;&gt;Node35</title>
<path fill="none" stroke="midnightblue" d="M1592,-571.11C1592,-562.15 1592,-552.32 1592,-544.58"/>
<polygon fill="midnightblue" stroke="midnightblue" points="1588.5,-571.4 1592,-581.4 1595.5,-571.4 1588.5,-571.4"/>
</g>
</g>
</svg>
        <g id="navigator" transform="translate(0 0)" fill="#404254">
                <rect fill="#f2f5e9" fill-opacity="0.5" stroke="#606060" stroke-width=".5" x="0" y="0" width="60" height="60"/>
                <use id="zoomplus" xlink:href="#zoomPlus" x="17" y="9" onmousedown="handleZoom(evt,'in')"/>
                <use id="zoomminus" xlink:href="#zoomMin" x="42" y="9" onmousedown="handleZoom(evt,'out')"/>
                <use id="reset" xlink:href="#resetDef" x="30" y="36" onmousedown="handleReset()"/>
                <g id="arrowUp" xlink:href="#dirArrow" transform="translate(30 24)" onmousedown="handlePan(0,-1)">
                  <use xlink:href="#rim" fill="#404040">
                        <set attributeName="fill" to="#808080" begin="arrowUp.mouseover" end="arrowUp.mouseout"/>
                  </use>
                  <path fill="none" stroke="white" stroke-width="1.5" d="M0,-3.0v7 M-2.5,-0.5L0,-3.0L2.5,-0.5"/>
                </g>
                <g id="arrowRight" xlink:href="#dirArrow" transform="rotate(90) translate(36 -43)" onmousedown="handlePan(1,0)">
                  <use xlink:href="#rim" fill="#404040">
                        <set attributeName="fill" to="#808080" begin="arrowRight.mouseover" end="arrowRight.mouseout"/>
                  </use>
                  <path fill="none" stroke="white" stroke-width="1.5" d="M0,-3.0v7 M-2.5,-0.5L0,-3.0L2.5,-0.5"/>
                </g>
                <g id="arrowDown" xlink:href="#dirArrow" transform="rotate(180) translate(-30 -48)" onmousedown="handlePan(0,1)">
                  <use xlink:href="#rim" fill="#404040">
                        <set attributeName="fill" to="#808080" begin="arrowDown.mouseover" end="arrowDown.mouseout"/>
                  </use>
                  <path fill="none" stroke="white" stroke-width="1.5" d="M0,-3.0v7 M-2.5,-0.5L0,-3.0L2.5,-0.5"/>
                </g>
                <g id="arrowLeft" xlink:href="#dirArrow" transform="rotate(270) translate(-36 17)" onmousedown="handlePan(-1,0)">
                  <use xlink:href="#rim" fill="#404040">
                        <set attributeName="fill" to="#808080" begin="arrowLeft.mouseover" end="arrowLeft.mouseout"/>
                  </use>
                  <path fill="none" stroke="white" stroke-width="1.5" d="M0,-3.0v7 M-2.5,-0.5L0,-3.0L2.5,-0.5"/>
                </g>
        </g>
        <svg viewBox="0 0 15 15" width="100%" height="30px" preserveAspectRatio="xMaxYMin meet">
         <g id="arrow_out" transform="scale(0.3 0.3)">
          <a xlink:href="State_8h__dep__incl_org.svg" target="_base">
           <rect id="button" ry="5" rx="5" y="6" x="6" height="38" width="38"
                fill="#f2f5e9" fill-opacity="0.5" stroke="#606060" stroke-width="1.0"/>
           <path id="arrow"
             d="M 11.500037,31.436501 C 11.940474,20.09759 22.043105,11.32322 32.158766,21.979434 L 37.068811,17.246167 C 37.068811,17.246167 37.088388,32 37.088388,32 L 22.160133,31.978069 C 22.160133,31.978069 26.997745,27.140456 26.997745,27.140456 C 18.528582,18.264221 13.291696,25.230495 11.500037,31.436501 z"
             style="fill:#404040;"/>
          </a>
         </g>
        </svg>
</svg>
