<?xml version="1.0" encoding="UTF-8" standalone="no"?>
<!DOCTYPE svg PUBLIC "-//W3C//DTD SVG 1.1//EN"
 "http://www.w3.org/Graphics/SVG/1.1/DTD/svg11.dtd">
<!-- Generated by graphviz version 2.43.0 (0)
 -->
<!-- Title: States/State.h Pages: 1 -->
<!--zoomable 810 -->
<svg id="main" version="1.1" xmlns="http://www.w3.org/2000/svg" xmlns:xlink="http://www.w3.org/1999/xlink" xml:space="preserve" onload="init(evt)">
<style type="text/css"><![CDATA[
.edge:hover path { stroke: red; }
.edge:hover polygon { stroke: red; fill: red; }
]]></style>
<script type="text/javascript"><![CDATA[
var edges = document.getElementsByTagName('g');
if (edges && edges.length) {
  for (var i=0;i<edges.length;i++) {
    if (edges[i].id.substr(0,4)=='edge') {
      edges[i].setAttribute('class','edge');
    }
  }
}
]]></script>
        <defs>
                <circle id="rim" cx="0" cy="0" r="7"/>
                <circle id="rim2" cx="0" cy="0" r="3.5"/>
                <g id="zoomPlus">
                        <use xlink:href="#rim" fill="#404040">
                                <set attributeName="fill" to="#808080" begin="zoomplus.mouseover" end="zoomplus.mouseout"/>
                        </use>
                        <path d="M-4,0h8M0,-4v8" fill="none" stroke="white" stroke-width="1.5" pointer-events="none"/>
                </g>
                <g id="zoomMin">
                        <use xlink:href="#rim" fill="#404040">
                                <set attributeName="fill" to="#808080" begin="zoomminus.mouseover" end="zoomminus.mouseout"/>
                        </use>
                        <path d="M-4,0h8" fill="none" stroke="white" stroke-width="1.5" pointer-events="none"/>
                </g>
                <g id="dirArrow">
                        <path fill="none" stroke="white" stroke-width="1.5" d="M0,-3.0v7 M-2.5,-0.5L0,-3.0L2.5,-0.5"/>
                </g>
               <g id="resetDef">
                       <use xlink:href="#rim2" fill="#404040">
                               <set attributeName="fill" to="#808080" begin="reset.mouseover" end="reset.mouseout"/>
                       </use>
               </g>
        </defs>

<script type="text/javascript">
var viewWidth = 1607;
var viewHeight = 810;
var sectionId = 'dynsection-0';
</script>
<script xlink:href="svgpan.js"/>
<svg id="graph" class="graph">
<g id="viewport">
<title>States/State.h</title>
<polygon fill="white" stroke="transparent" points="-4,4 -4,-806 1603,-806 1603,4 -4,4"/>
<!-- Node1 -->
<g id="node1" class="node">
<title>Node1</title>
<g id="a_node1"><a xlink:title=" ">
<polygon fill="#bfbfbf" stroke="black" points="639.5,-782.5 639.5,-801.5 724.5,-801.5 724.5,-782.5 639.5,-782.5"/>
<text text-anchor="middle" x="682" y="-789.5" font-family="Helvetica,sans-Serif" font-size="10.00">States/State.h</text>
</a>
</g>
</g>
<!-- Node2 -->
<g id="node2" class="node">
<title>Node2</title>
<g id="a_node2"><a xlink:href="ODMultiAgentState_8h.html" target="_top" xlink:title=" ">
<polygon fill="white" stroke="black" points="425.5,-721 425.5,-740 578.5,-740 578.5,-721 425.5,-721"/>
<text text-anchor="middle" x="502" y="-728" font-family="Helvetica,sans-Serif" font-size="10.00">States/ODMultiAgentState.h</text>
</a>
</g>
</g>
<!-- Node1&#45;&gt;Node2 -->
<g id="edge1" class="edge">
<title>Node1&#45;&gt;Node2</title>
<path fill="none" stroke="midnightblue" d="M646.4,-779.23C611.41,-767.67 558.86,-750.3 527.74,-740.01"/>
<polygon fill="midnightblue" stroke="midnightblue" points="645.62,-782.66 656.21,-782.48 647.81,-776.01 645.62,-782.66"/>
</g>
<!-- Node23 -->
<g id="node23" class="node">
<title>Node23</title>
<g id="a_node23"><a xlink:href="SingleAgentState_8h.html" target="_top" xlink:title=" ">
<polygon fill="white" stroke="black" points="209.5,-721 209.5,-740 352.5,-740 352.5,-721 209.5,-721"/>
<text text-anchor="middle" x="281" y="-728" font-family="Helvetica,sans-Serif" font-size="10.00">States/SingleAgentState.h</text>
</a>
</g>
</g>
<!-- Node1&#45;&gt;Node23 -->
<g id="edge25" class="edge">
<title>Node1&#45;&gt;Node23</title>
<path fill="none" stroke="midnightblue" d="M629.27,-783.18C554.02,-772.01 416.32,-751.58 338.51,-740.03"/>
<polygon fill="midnightblue" stroke="midnightblue" points="629.06,-786.68 639.47,-784.69 630.09,-779.76 629.06,-786.68"/>
</g>
<!-- Node26 -->
<g id="node26" class="node">
<title>Node26</title>
<g id="a_node26"><a xlink:href="SingleAgentSpaceTimeState_8h.html" target="_top" xlink:title=" ">
<polygon fill="white" stroke="black" points="690.5,-715.5 690.5,-745.5 853.5,-745.5 853.5,-715.5 690.5,-715.5"/>
<text text-anchor="start" x="698.5" y="-733.5" font-family="Helvetica,sans-Serif" font-size="10.00">States/SingleAgentSpaceTime</text>
<text text-anchor="middle" x="772" y="-722.5" font-family="Helvetica,sans-Serif" font-size="10.00">State.h</text>
</a>
</g>
</g>
<!-- Node1&#45;&gt;Node26 -->
<g id="edge30" class="edge">
<title>Node1&#45;&gt;Node26</title>
<path fill="none" stroke="midnightblue" d="M703.57,-776.74C717.88,-767.28 736.56,-754.93 750.79,-745.52"/>
<polygon fill="midnightblue" stroke="midnightblue" points="701.31,-774.04 694.89,-782.48 705.17,-779.88 701.31,-774.04"/>
</g>
<!-- Node30 -->
<g id="node30" class="node">
<title>Node30</title>
<g id="a_node30"><a xlink:href="StandardMultiAgentState_8h.html" target="_top" xlink:title=" ">
<polygon fill="white" stroke="black" points="1152.5,-715.5 1152.5,-745.5 1299.5,-745.5 1299.5,-715.5 1152.5,-715.5"/>
<text text-anchor="start" x="1160.5" y="-733.5" font-family="Helvetica,sans-Serif" font-size="10.00">States/StandardMultiAgent</text>
<text text-anchor="middle" x="1226" y="-722.5" font-family="Helvetica,sans-Serif" font-size="10.00">State.h</text>
</a>
</g>
</g>
<!-- Node1&#45;&gt;Node30 -->
<g id="edge35" class="edge">
<title>Node1&#45;&gt;Node30</title>
<path fill="none" stroke="midnightblue" d="M734.9,-785.21C832.42,-774.55 1040.76,-751.76 1152.16,-739.58"/>
<polygon fill="midnightblue" stroke="midnightblue" points="734.25,-781.76 724.69,-786.33 735.01,-788.72 734.25,-781.76"/>
</g>
<!-- Node3 -->
<g id="node3" class="node">
<title>Node3</title>
<g id="a_node3"><a xlink:href="ODMultiAgentAStarProblem_8h.html" target="_top" xlink:title=" ">
<polygon fill="white" stroke="black" points="512,-648.5 512,-678.5 672,-678.5 672,-648.5 512,-648.5"/>
<text text-anchor="start" x="520" y="-666.5" font-family="Helvetica,sans-Serif" font-size="10.00">AStarProblems/ODMultiAgent</text>
<text text-anchor="middle" x="592" y="-655.5" font-family="Helvetica,sans-Serif" font-size="10.00">AStarProblem.h</text>
</a>
</g>
</g>
<!-- Node2&#45;&gt;Node3 -->
<g id="edge2" class="edge">
<title>Node2&#45;&gt;Node3</title>
<path fill="none" stroke="midnightblue" d="M522.29,-714.85C537.31,-704 557.66,-689.3 572.49,-678.59"/>
<polygon fill="midnightblue" stroke="midnightblue" points="520.2,-712.04 514.14,-720.73 524.29,-717.72 520.2,-712.04"/>
</g>
<!-- Node18 -->
<g id="node18" class="node">
<title>Node18</title>
<g id="a_node18"><a xlink:href="ODMultiAgentSpaceTimeState_8h.html" target="_top" xlink:title=" ">
<polygon fill="white" stroke="black" points="164,-648.5 164,-678.5 312,-678.5 312,-648.5 164,-648.5"/>
<text text-anchor="start" x="172" y="-666.5" font-family="Helvetica,sans-Serif" font-size="10.00">States/ODMultiAgentSpace</text>
<text text-anchor="middle" x="238" y="-655.5" font-family="Helvetica,sans-Serif" font-size="10.00">TimeState.h</text>
</a>
</g>
</g>
<!-- Node2&#45;&gt;Node18 -->
<g id="edge19" class="edge">
<title>Node2&#45;&gt;Node18</title>
<path fill="none" stroke="midnightblue" d="M457.23,-718.48C412.54,-707.47 343.7,-690.52 295.1,-678.56"/>
<polygon fill="midnightblue" stroke="midnightblue" points="456.67,-721.94 467.22,-720.94 458.34,-715.15 456.67,-721.94"/>
</g>
<!-- Node22 -->
<g id="node22" class="node">
<title>Node22</title>
<g id="a_node22"><a xlink:href="ODMultiAgentState_8cpp.html" target="_top" xlink:title=" ">
<polygon fill="white" stroke="black" points="330,-654 330,-673 494,-673 494,-654 330,-654"/>
<text text-anchor="middle" x="412" y="-661" font-family="Helvetica,sans-Serif" font-size="10.00">States/ODMultiAgentState.cpp</text>
</a>
</g>
</g>
<!-- Node2&#45;&gt;Node22 -->
<g id="edge24" class="edge">
<title>Node2&#45;&gt;Node22</title>
<path fill="none" stroke="midnightblue" d="M481.32,-714.57C463.56,-701.74 438.56,-683.69 423.95,-673.13"/>
<polygon fill="midnightblue" stroke="midnightblue" points="479.71,-717.72 489.86,-720.73 483.8,-712.04 479.71,-717.72"/>
</g>
<!-- Node4 -->
<g id="node4" class="node">
<title>Node4</title>
<g id="a_node4"><a xlink:href="ODMultiAgentAStarProblem_8cpp.html" target="_top" xlink:title=" ">
<polygon fill="white" stroke="black" points="522,-581.5 522,-611.5 682,-611.5 682,-581.5 522,-581.5"/>
<text text-anchor="start" x="530" y="-599.5" font-family="Helvetica,sans-Serif" font-size="10.00">AStarProblems/ODMultiAgent</text>
<text text-anchor="middle" x="602" y="-588.5" font-family="Helvetica,sans-Serif" font-size="10.00">AStarProblem.cpp</text>
</a>
</g>
</g>
<!-- Node3&#45;&gt;Node4 -->
<g id="edge3" class="edge">
<title>Node3&#45;&gt;Node4</title>
<path fill="none" stroke="midnightblue" d="M595.71,-638.4C597.1,-629.37 598.63,-619.41 599.83,-611.58"/>
<polygon fill="midnightblue" stroke="midnightblue" points="592.23,-637.98 594.17,-648.4 599.15,-639.04 592.23,-637.98"/>
</g>
<!-- Node5 -->
<g id="node5" class="node">
<title>Node5</title>
<g id="a_node5"><a xlink:href="HeuristicManhattan_8h.html" target="_top" xlink:title=" ">
<polygon fill="white" stroke="black" points="623.5,-520 623.5,-539 796.5,-539 796.5,-520 623.5,-520"/>
<text text-anchor="middle" x="710" y="-527" font-family="Helvetica,sans-Serif" font-size="10.00">Heuristics/HeuristicManhattan.h</text>
</a>
</g>
</g>
<!-- Node3&#45;&gt;Node5 -->
<g id="edge4" class="edge">
<title>Node3&#45;&gt;Node5</title>
<path fill="none" stroke="midnightblue" d="M647.95,-644.29C663.92,-636.61 679.97,-626.1 691,-612 708.19,-590.03 710.28,-555.17 710.25,-539.12"/>
<polygon fill="midnightblue" stroke="midnightblue" points="646.29,-641.2 638.6,-648.48 649.16,-647.58 646.29,-641.2"/>
</g>
<!-- Node6 -->
<g id="node6" class="node">
<title>Node6</title>
<g id="a_node6"><a xlink:href="HeuristicOptimal_8h.html" target="_top" xlink:title=" ">
<polygon fill="white" stroke="black" points="630,-386 630,-405 790,-405 790,-386 630,-386"/>
<text text-anchor="middle" x="710" y="-393" font-family="Helvetica,sans-Serif" font-size="10.00">Heuristics/HeuristicOptimal.h</text>
</a>
</g>
</g>
<!-- Node5&#45;&gt;Node6 -->
<g id="edge5" class="edge">
<title>Node5&#45;&gt;Node6</title>
<path fill="none" stroke="midnightblue" d="M710,-509.78C710,-480.75 710,-426.04 710,-405.02"/>
<polygon fill="midnightblue" stroke="midnightblue" points="706.5,-509.84 710,-519.84 713.5,-509.84 706.5,-509.84"/>
</g>
<!-- Node16 -->
<g id="node16" class="node">
<title>Node16</title>
<g id="a_node16"><a xlink:href="ReverseResumableAStar_8h.html" target="_top" xlink:title=" ">
<polygon fill="white" stroke="black" points="467.5,-447.5 467.5,-477.5 646.5,-477.5 646.5,-447.5 467.5,-447.5"/>
<text text-anchor="start" x="475.5" y="-465.5" font-family="Helvetica,sans-Serif" font-size="10.00">Solvers/AStar/ReverseResumable</text>
<text text-anchor="middle" x="557" y="-454.5" font-family="Helvetica,sans-Serif" font-size="10.00">AStar.h</text>
</a>
</g>
</g>
<!-- Node5&#45;&gt;Node16 -->
<g id="edge16" class="edge">
<title>Node5&#45;&gt;Node16</title>
<path fill="none" stroke="midnightblue" d="M680.37,-515.91C654.46,-504.91 616.89,-488.94 590.02,-477.53"/>
<polygon fill="midnightblue" stroke="midnightblue" points="679.11,-519.18 689.68,-519.87 681.85,-512.74 679.11,-519.18"/>
</g>
<!-- Node7 -->
<g id="node7" class="node">
<title>Node7</title>
<g id="a_node7"><a xlink:href="AStar_8h.html" target="_top" xlink:title=" ">
<polygon fill="white" stroke="black" points="650.5,-324.5 650.5,-343.5 769.5,-343.5 769.5,-324.5 650.5,-324.5"/>
<text text-anchor="middle" x="710" y="-331.5" font-family="Helvetica,sans-Serif" font-size="10.00">Solvers/AStar/AStar.h</text>
</a>
</g>
</g>
<!-- Node6&#45;&gt;Node7 -->
<g id="edge6" class="edge">
<title>Node6&#45;&gt;Node7</title>
<path fill="none" stroke="midnightblue" d="M710,-375.82C710,-365 710,-351.9 710,-343.51"/>
<polygon fill="midnightblue" stroke="midnightblue" points="706.5,-375.98 710,-385.98 713.5,-375.98 706.5,-375.98"/>
</g>
<!-- Node8 -->
<g id="node8" class="node">
<title>Node8</title>
<g id="a_node8"><a xlink:href="GeneralAStar_8h.html" target="_top" xlink:title=" ">
<polygon fill="white" stroke="black" points="547,-263 547,-282 705,-282 705,-263 547,-263"/>
<text text-anchor="middle" x="626" y="-270" font-family="Helvetica,sans-Serif" font-size="10.00">Solvers/AStar/GeneralAStar.h</text>
</a>
</g>
</g>
<!-- Node7&#45;&gt;Node8 -->
<g id="edge7" class="edge">
<title>Node7&#45;&gt;Node8</title>
<path fill="none" stroke="midnightblue" d="M689.69,-318.61C673.53,-307.17 651.48,-291.55 638.01,-282.01"/>
<polygon fill="midnightblue" stroke="midnightblue" points="687.78,-321.55 697.96,-324.48 691.83,-315.84 687.78,-321.55"/>
</g>
<!-- Node15 -->
<g id="node15" class="node">
<title>Node15</title>
<g id="a_node15"><a xlink:href="CooperativeAStar_8h.html" target="_top" xlink:title=" ">
<polygon fill="white" stroke="black" points="723,-257.5 723,-287.5 865,-287.5 865,-257.5 723,-257.5"/>
<text text-anchor="start" x="731" y="-275.5" font-family="Helvetica,sans-Serif" font-size="10.00">Solvers/SuboptimalSolver</text>
<text text-anchor="middle" x="794" y="-264.5" font-family="Helvetica,sans-Serif" font-size="10.00">/CooperativeAStar.h</text>
</a>
</g>
</g>
<!-- Node7&#45;&gt;Node15 -->
<g id="edge15" class="edge">
<title>Node7&#45;&gt;Node15</title>
<path fill="none" stroke="midnightblue" d="M730.52,-318.47C743.82,-309.05 761.05,-296.84 774.2,-287.52"/>
<polygon fill="midnightblue" stroke="midnightblue" points="728.17,-315.84 722.04,-324.48 732.22,-321.55 728.17,-315.84"/>
</g>
<!-- Node9 -->
<g id="node9" class="node">
<title>Node9</title>
<g id="a_node9"><a xlink:href="ConflictBasedSearch_8h.html" target="_top" xlink:title=" ">
<polygon fill="white" stroke="black" points="503.5,-190.5 503.5,-220.5 648.5,-220.5 648.5,-190.5 503.5,-190.5"/>
<text text-anchor="start" x="511.5" y="-208.5" font-family="Helvetica,sans-Serif" font-size="10.00">Solvers/CBS/ConflictBased</text>
<text text-anchor="middle" x="576" y="-197.5" font-family="Helvetica,sans-Serif" font-size="10.00">Search.h</text>
</a>
</g>
</g>
<!-- Node8&#45;&gt;Node9 -->
<g id="edge8" class="edge">
<title>Node8&#45;&gt;Node9</title>
<path fill="none" stroke="midnightblue" d="M613.06,-254.67C604.92,-244.09 594.54,-230.6 586.84,-220.59"/>
<polygon fill="midnightblue" stroke="midnightblue" points="610.39,-256.94 619.26,-262.73 615.93,-252.67 610.39,-256.94"/>
</g>
<!-- Node11 -->
<g id="node11" class="node">
<title>Node11</title>
<g id="a_node11"><a xlink:href="SimpleIndependenceDetection_8h.html" target="_top" xlink:title=" ">
<polygon fill="white" stroke="black" points="591.5,-123.5 591.5,-153.5 762.5,-153.5 762.5,-123.5 591.5,-123.5"/>
<text text-anchor="start" x="599.5" y="-141.5" font-family="Helvetica,sans-Serif" font-size="10.00">Solvers/ID/SimpleIndependence</text>
<text text-anchor="middle" x="677" y="-130.5" font-family="Helvetica,sans-Serif" font-size="10.00">Detection.h</text>
</a>
</g>
</g>
<!-- Node8&#45;&gt;Node11 -->
<g id="edge14" class="edge">
<title>Node8&#45;&gt;Node11</title>
<path fill="none" stroke="midnightblue" d="M638.46,-254.23C644.78,-244.79 652.12,-232.68 657,-221 666.43,-198.41 672.1,-170.37 674.88,-153.76"/>
<polygon fill="midnightblue" stroke="midnightblue" points="635.44,-252.44 632.61,-262.65 641.19,-256.43 635.44,-252.44"/>
</g>
<!-- Node10 -->
<g id="node10" class="node">
<title>Node10</title>
<g id="a_node10"><a xlink:href="ConflictBasedSearch_8cpp.html" target="_top" xlink:title=" ">
<polygon fill="white" stroke="black" points="428.5,-123.5 428.5,-153.5 573.5,-153.5 573.5,-123.5 428.5,-123.5"/>
<text text-anchor="start" x="436.5" y="-141.5" font-family="Helvetica,sans-Serif" font-size="10.00">Solvers/CBS/ConflictBased</text>
<text text-anchor="middle" x="501" y="-130.5" font-family="Helvetica,sans-Serif" font-size="10.00">Search.cpp</text>
</a>
</g>
</g>
<!-- Node9&#45;&gt;Node10 -->
<g id="edge9" class="edge">
<title>Node9&#45;&gt;Node10</title>
<path fill="none" stroke="midnightblue" d="M551.88,-183.6C540.56,-173.78 527.36,-162.34 517.24,-153.58"/>
<polygon fill="midnightblue" stroke="midnightblue" points="549.88,-186.49 559.73,-190.4 554.46,-181.2 549.88,-186.49"/>
</g>
<!-- Node9&#45;&gt;Node11 -->
<g id="edge10" class="edge">
<title>Node9&#45;&gt;Node11</title>
<path fill="none" stroke="midnightblue" d="M606.71,-184.73C622.34,-174.68 640.97,-162.68 655.13,-153.58"/>
<polygon fill="midnightblue" stroke="midnightblue" points="604.43,-182.04 597.92,-190.4 608.22,-187.93 604.43,-182.04"/>
</g>
<!-- Node12 -->
<g id="node12" class="node">
<title>Node12</title>
<g id="a_node12"><a xlink:href="IndependenceDetection_8h.html" target="_top" xlink:title=" ">
<polygon fill="white" stroke="black" points="480,-62 480,-81 674,-81 674,-62 480,-62"/>
<text text-anchor="middle" x="577" y="-69" font-family="Helvetica,sans-Serif" font-size="10.00">Solvers/ID/IndependenceDetection.h</text>
</a>
</g>
</g>
<!-- Node11&#45;&gt;Node12 -->
<g id="edge11" class="edge">
<title>Node11&#45;&gt;Node12</title>
<path fill="none" stroke="midnightblue" d="M646.7,-117.81C627.79,-105.51 604.39,-90.3 590.09,-81.01"/>
<polygon fill="midnightblue" stroke="midnightblue" points="645.01,-120.88 655.3,-123.4 648.82,-115.01 645.01,-120.88"/>
</g>
<!-- Node14 -->
<g id="node14" class="node">
<title>Node14</title>
<g id="a_node14"><a xlink:href="SimpleIndependenceDetection_8cpp.html" target="_top" xlink:title=" ">
<polygon fill="white" stroke="black" points="692.5,-56.5 692.5,-86.5 863.5,-86.5 863.5,-56.5 692.5,-56.5"/>
<text text-anchor="start" x="700.5" y="-74.5" font-family="Helvetica,sans-Serif" font-size="10.00">Solvers/ID/SimpleIndependence</text>
<text text-anchor="middle" x="778" y="-63.5" font-family="Helvetica,sans-Serif" font-size="10.00">Detection.cpp</text>
</a>
</g>
</g>
<!-- Node11&#45;&gt;Node14 -->
<g id="edge13" class="edge">
<title>Node11&#45;&gt;Node14</title>
<path fill="none" stroke="midnightblue" d="M707.71,-117.73C723.34,-107.68 741.97,-95.68 756.13,-86.58"/>
<polygon fill="midnightblue" stroke="midnightblue" points="705.43,-115.04 698.92,-123.4 709.22,-120.93 705.43,-115.04"/>
</g>
<!-- Node13 -->
<g id="node13" class="node">
<title>Node13</title>
<g id="a_node13"><a xlink:href="IndependenceDetection_8cpp.html" target="_top" xlink:title=" ">
<polygon fill="white" stroke="black" points="474.5,-0.5 474.5,-19.5 679.5,-19.5 679.5,-0.5 474.5,-0.5"/>
<text text-anchor="middle" x="577" y="-7.5" font-family="Helvetica,sans-Serif" font-size="10.00">Solvers/ID/IndependenceDetection.cpp</text>
</a>
</g>
</g>
<!-- Node12&#45;&gt;Node13 -->
<g id="edge12" class="edge">
<title>Node12&#45;&gt;Node13</title>
<path fill="none" stroke="midnightblue" d="M577,-51.82C577,-41 577,-27.9 577,-19.51"/>
<polygon fill="midnightblue" stroke="midnightblue" points="573.5,-51.98 577,-61.98 580.5,-51.98 573.5,-51.98"/>
</g>
<!-- Node16&#45;&gt;Node6 -->
<g id="edge17" class="edge">
<title>Node16&#45;&gt;Node6</title>
<path fill="none" stroke="midnightblue" d="M599.47,-443.46C629.03,-430.9 667.1,-414.72 689.98,-405.01"/>
<polygon fill="midnightblue" stroke="midnightblue" points="598.03,-440.26 590.2,-447.4 600.77,-446.71 598.03,-440.26"/>
</g>
<!-- Node17 -->
<g id="node17" class="node">
<title>Node17</title>
<g id="a_node17"><a xlink:href="ReverseResumableAStar_8cpp.html" target="_top" xlink:title=" ">
<polygon fill="white" stroke="black" points="432.5,-380.5 432.5,-410.5 611.5,-410.5 611.5,-380.5 432.5,-380.5"/>
<text text-anchor="start" x="440.5" y="-398.5" font-family="Helvetica,sans-Serif" font-size="10.00">Solvers/AStar/ReverseResumable</text>
<text text-anchor="middle" x="522" y="-387.5" font-family="Helvetica,sans-Serif" font-size="10.00">AStar.cpp</text>
</a>
</g>
</g>
<!-- Node16&#45;&gt;Node17 -->
<g id="edge18" class="edge">
<title>Node16&#45;&gt;Node17</title>
<path fill="none" stroke="midnightblue" d="M544.66,-438.58C539.63,-429.24 533.98,-418.75 529.58,-410.58"/>
<polygon fill="midnightblue" stroke="midnightblue" points="541.58,-440.25 549.41,-447.4 547.75,-436.93 541.58,-440.25"/>
</g>
<!-- Node19 -->
<g id="node19" class="node">
<title>Node19</title>
<g id="a_node19"><a xlink:href="ODMultiAgentAStarProblemWithConstraints_8h.html" target="_top" xlink:title=" ">
<polygon fill="white" stroke="black" points="168,-581.5 168,-611.5 338,-611.5 338,-581.5 168,-581.5"/>
<text text-anchor="start" x="176" y="-599.5" font-family="Helvetica,sans-Serif" font-size="10.00">AStarProblems/ODMultiAgent</text>
<text text-anchor="middle" x="253" y="-588.5" font-family="Helvetica,sans-Serif" font-size="10.00">AStarProblemWithConstraints.h</text>
</a>
</g>
</g>
<!-- Node18&#45;&gt;Node19 -->
<g id="edge20" class="edge">
<title>Node18&#45;&gt;Node19</title>
<path fill="none" stroke="midnightblue" d="M243.56,-638.4C245.65,-629.37 247.94,-619.41 249.75,-611.58"/>
<polygon fill="midnightblue" stroke="midnightblue" points="240.09,-637.87 241.25,-648.4 246.91,-639.44 240.09,-637.87"/>
</g>
<!-- Node21 -->
<g id="node21" class="node">
<title>Node21</title>
<g id="a_node21"><a xlink:href="ODMultiAgentSpaceTimeState_8cpp.html" target="_top" xlink:title=" ">
<polygon fill="white" stroke="black" points="356,-581.5 356,-611.5 504,-611.5 504,-581.5 356,-581.5"/>
<text text-anchor="start" x="364" y="-599.5" font-family="Helvetica,sans-Serif" font-size="10.00">States/ODMultiAgentSpace</text>
<text text-anchor="middle" x="430" y="-588.5" font-family="Helvetica,sans-Serif" font-size="10.00">TimeState.cpp</text>
</a>
</g>
</g>
<!-- Node18&#45;&gt;Node21 -->
<g id="edge23" class="edge">
<title>Node18&#45;&gt;Node21</title>
<path fill="none" stroke="midnightblue" d="M289.42,-645.09C320.42,-634.6 359.38,-621.41 388.42,-611.58"/>
<polygon fill="midnightblue" stroke="midnightblue" points="288.01,-641.87 279.66,-648.4 290.26,-648.5 288.01,-641.87"/>
</g>
<!-- Node19&#45;&gt;Node5 -->
<g id="edge22" class="edge">
<title>Node19&#45;&gt;Node5</title>
<path fill="none" stroke="midnightblue" d="M348.08,-580.85C459.1,-564.63 576.33,-548.55 646.68,-539.02"/>
<polygon fill="midnightblue" stroke="midnightblue" points="347.43,-577.41 338.05,-582.32 348.45,-584.34 347.43,-577.41"/>
</g>
<!-- Node20 -->
<g id="node20" class="node">
<title>Node20</title>
<g id="a_node20"><a xlink:href="ODMultiAgentAStarProblemWithConstraints_8cpp.html" target="_top" xlink:title=" ">
<polygon fill="white" stroke="black" points="220,-514.5 220,-544.5 402,-544.5 402,-514.5 220,-514.5"/>
<text text-anchor="start" x="228" y="-532.5" font-family="Helvetica,sans-Serif" font-size="10.00">AStarProblems/ODMultiAgent</text>
<text text-anchor="middle" x="311" y="-521.5" font-family="Helvetica,sans-Serif" font-size="10.00">AStarProblemWithConstraints.cpp</text>
</a>
</g>
</g>
<!-- Node19&#45;&gt;Node20 -->
<g id="edge21" class="edge">
<title>Node19&#45;&gt;Node20</title>
<path fill="none" stroke="midnightblue" d="M272.42,-573.74C281,-564.12 290.84,-553.09 298.44,-544.58"/>
<polygon fill="midnightblue" stroke="midnightblue" points="269.63,-571.6 265.59,-581.4 274.85,-576.26 269.63,-571.6"/>
</g>
<!-- Node24 -->
<g id="node24" class="node">
<title>Node24</title>
<g id="a_node24"><a xlink:href="SingleAgentAStarProblem_8h.html" target="_top" xlink:title=" ">
<polygon fill="white" stroke="black" points="0,-581.5 0,-611.5 150,-611.5 150,-581.5 0,-581.5"/>
<text text-anchor="start" x="8" y="-599.5" font-family="Helvetica,sans-Serif" font-size="10.00">AStarProblems/SingleAgent</text>
<text text-anchor="middle" x="75" y="-588.5" font-family="Helvetica,sans-Serif" font-size="10.00">AStarProblem.h</text>
</a>
</g>
</g>
<!-- Node23&#45;&gt;Node24 -->
<g id="edge26" class="edge">
<title>Node23&#45;&gt;Node24</title>
<path fill="none" stroke="midnightblue" d="M239.93,-717.83C214.22,-709.4 181.14,-696.42 155,-679 126.46,-659.98 99.96,-629.44 85.77,-611.65"/>
<polygon fill="midnightblue" stroke="midnightblue" points="239.15,-721.25 249.74,-720.94 241.27,-714.58 239.15,-721.25"/>
</g>
<!-- Node24&#45;&gt;Node5 -->
<g id="edge28" class="edge">
<title>Node24&#45;&gt;Node5</title>
<path fill="none" stroke="midnightblue" d="M160.19,-580.91C330.04,-558.82 516.79,-543.92 623.39,-536.3"/>
<polygon fill="midnightblue" stroke="midnightblue" points="159.52,-577.47 150.06,-582.24 160.43,-584.41 159.52,-577.47"/>
</g>
<!-- Node24&#45;&gt;Node16 -->
<g id="edge29" class="edge">
<title>Node24&#45;&gt;Node16</title>
<path fill="none" stroke="midnightblue" d="M54.84,-573.36C41.07,-555.53 27.82,-530.74 43,-514 70.89,-483.23 327.57,-470.55 467.31,-465.89"/>
<polygon fill="midnightblue" stroke="midnightblue" points="52.47,-575.99 61.52,-581.5 57.88,-571.55 52.47,-575.99"/>
</g>
<!-- Node25 -->
<g id="node25" class="node">
<title>Node25</title>
<g id="a_node25"><a xlink:href="SingleAgentAStarProblem_8cpp.html" target="_top" xlink:title=" ">
<polygon fill="white" stroke="black" points="52,-514.5 52,-544.5 202,-544.5 202,-514.5 52,-514.5"/>
<text text-anchor="start" x="60" y="-532.5" font-family="Helvetica,sans-Serif" font-size="10.00">AStarProblems/SingleAgent</text>
<text text-anchor="middle" x="127" y="-521.5" font-family="Helvetica,sans-Serif" font-size="10.00">AStarProblem.cpp</text>
</a>
</g>
</g>
<!-- Node24&#45;&gt;Node25 -->
<g id="edge27" class="edge">
<title>Node24&#45;&gt;Node25</title>
<path fill="none" stroke="midnightblue" d="M92.64,-573.45C100.28,-563.9 109,-553 115.74,-544.58"/>
<polygon fill="midnightblue" stroke="midnightblue" points="89.8,-571.4 86.28,-581.4 95.26,-575.77 89.8,-571.4"/>
</g>
<!-- Node27 -->
<g id="node27" class="node">
<title>Node27</title>
<g id="a_node27"><a xlink:href="SingleAgentAStarProblemWithConstraints_8h.html" target="_top" xlink:title=" ">
<polygon fill="white" stroke="black" points="872,-648.5 872,-678.5 1042,-678.5 1042,-648.5 872,-648.5"/>
<text text-anchor="start" x="880" y="-666.5" font-family="Helvetica,sans-Serif" font-size="10.00">AStarProblems/SingleAgent</text>
<text text-anchor="middle" x="957" y="-655.5" font-family="Helvetica,sans-Serif" font-size="10.00">AStarProblemWithConstraints.h</text>
</a>
</g>
</g>
<!-- Node26&#45;&gt;Node27 -->
<g id="edge31" class="edge">
<title>Node26&#45;&gt;Node27</title>
<path fill="none" stroke="midnightblue" d="M821.94,-711.96C851.74,-701.48 889.07,-688.37 916.94,-678.58"/>
<polygon fill="midnightblue" stroke="midnightblue" points="820.42,-708.78 812.14,-715.4 822.74,-715.38 820.42,-708.78"/>
</g>
<!-- Node29 -->
<g id="node29" class="node">
<title>Node29</title>
<g id="a_node29"><a xlink:href="SingleAgentSpaceTimeState_8cpp.html" target="_top" xlink:title=" ">
<polygon fill="white" stroke="black" points="690.5,-648.5 690.5,-678.5 853.5,-678.5 853.5,-648.5 690.5,-648.5"/>
<text text-anchor="start" x="698.5" y="-666.5" font-family="Helvetica,sans-Serif" font-size="10.00">States/SingleAgentSpaceTime</text>
<text text-anchor="middle" x="772" y="-655.5" font-family="Helvetica,sans-Serif" font-size="10.00">State.cpp</text>
</a>
</g>
</g>
<!-- Node26&#45;&gt;Node29 -->
<g id="edge34" class="edge">
<title>Node26&#45;&gt;Node29</title>
<path fill="none" stroke="midnightblue" d="M772,-705.11C772,-696.15 772,-686.32 772,-678.58"/>
<polygon fill="midnightblue" stroke="midnightblue" points="768.5,-705.4 772,-715.4 775.5,-705.4 768.5,-705.4"/>
</g>
<!-- Node27&#45;&gt;Node5 -->
<g id="edge33" class="edge">
<title>Node27&#45;&gt;Node5</title>
<path fill="none" stroke="midnightblue" d="M957.83,-638.09C957.07,-619.92 952.96,-595.79 938,-581 917.03,-560.26 846.24,-546.78 789.05,-539.01"/>
<polygon fill="midnightblue" stroke="midnightblue" points="954.33,-638.28 957.93,-648.24 961.33,-638.21 954.33,-638.28"/>
</g>
<!-- Node28 -->
<g id="node28" class="node">
<title>Node28</title>
<g id="a_node28"><a xlink:href="SingleAgentAStarProblemWithConstraints_8cpp.html" target="_top" xlink:title=" ">
<polygon fill="white" stroke="black" points="747,-581.5 747,-611.5 929,-611.5 929,-581.5 747,-581.5"/>
<text text-anchor="start" x="755" y="-599.5" font-family="Helvetica,sans-Serif" font-size="10.00">AStarProblems/SingleAgent</text>
<text text-anchor="middle" x="838" y="-588.5" font-family="Helvetica,sans-Serif" font-size="10.00">AStarProblemWithConstraints.cpp</text>
</a>
</g>
</g>
<!-- Node27&#45;&gt;Node28 -->
<g id="edge32" class="edge">
<title>Node27&#45;&gt;Node28</title>
<path fill="none" stroke="midnightblue" d="M922.35,-643.57C903.63,-633.35 880.91,-620.94 863.77,-611.58"/>
<polygon fill="midnightblue" stroke="midnightblue" points="920.72,-646.67 931.18,-648.4 924.08,-640.53 920.72,-646.67"/>
</g>
<!-- Node31 -->
<g id="node31" class="node">
<title>Node31</title>
<g id="a_node31"><a xlink:href="StandardMultiAgentAStarProblem_8h.html" target="_top" xlink:title=" ">
<polygon fill="white" stroke="black" points="1060,-648.5 1060,-678.5 1220,-678.5 1220,-648.5 1060,-648.5"/>
<text text-anchor="start" x="1068" y="-666.5" font-family="Helvetica,sans-Serif" font-size="10.00">AStarProblems/StandardMulti</text>
<text text-anchor="middle" x="1140" y="-655.5" font-family="Helvetica,sans-Serif" font-size="10.00">AgentAStarProblem.h</text>
</a>
</g>
</g>
<!-- Node30&#45;&gt;Node31 -->
<g id="edge36" class="edge">
<title>Node30&#45;&gt;Node31</title>
<path fill="none" stroke="midnightblue" d="M1199.1,-709.17C1185.95,-699.23 1170.45,-687.51 1158.62,-678.58"/>
<polygon fill="midnightblue" stroke="midnightblue" points="1197.25,-712.16 1207.34,-715.4 1201.47,-706.57 1197.25,-712.16"/>
</g>
<!-- Node33 -->
<g id="node33" class="node">
<title>Node33</title>
<g id="a_node33"><a xlink:href="StandardMultiAgentSpaceTimeState_8h.html" target="_top" xlink:title=" ">
<polygon fill="white" stroke="black" points="1238.5,-648.5 1238.5,-678.5 1385.5,-678.5 1385.5,-648.5 1238.5,-648.5"/>
<text text-anchor="start" x="1246.5" y="-666.5" font-family="Helvetica,sans-Serif" font-size="10.00">States/StandardMultiAgent</text>
<text text-anchor="middle" x="1312" y="-655.5" font-family="Helvetica,sans-Serif" font-size="10.00">SpaceTimeState.h</text>
</a>
</g>
</g>
<!-- Node30&#45;&gt;Node33 -->
<g id="edge39" class="edge">
<title>Node30&#45;&gt;Node33</title>
<path fill="none" stroke="midnightblue" d="M1252.9,-709.17C1266.05,-699.23 1281.55,-687.51 1293.38,-678.58"/>
<polygon fill="midnightblue" stroke="midnightblue" points="1250.53,-706.57 1244.66,-715.4 1254.75,-712.16 1250.53,-706.57"/>
</g>
<!-- Node37 -->
<g id="node37" class="node">
<title>Node37</title>
<g id="a_node37"><a xlink:href="StandardMultiAgentState_8cpp.html" target="_top" xlink:title=" ">
<polygon fill="white" stroke="black" points="1403.5,-648.5 1403.5,-678.5 1550.5,-678.5 1550.5,-648.5 1403.5,-648.5"/>
<text text-anchor="start" x="1411.5" y="-666.5" font-family="Helvetica,sans-Serif" font-size="10.00">States/StandardMultiAgent</text>
<text text-anchor="middle" x="1477" y="-655.5" font-family="Helvetica,sans-Serif" font-size="10.00">State.cpp</text>
</a>
</g>
</g>
<!-- Node30&#45;&gt;Node37 -->
<g id="edge44" class="edge">
<title>Node30&#45;&gt;Node37</title>
<path fill="none" stroke="midnightblue" d="M1290.04,-712.92C1331,-702.31 1383.56,-688.7 1422.51,-678.61"/>
<polygon fill="midnightblue" stroke="midnightblue" points="1288.96,-709.58 1280.15,-715.48 1290.71,-716.36 1288.96,-709.58"/>
</g>
<!-- Node31&#45;&gt;Node5 -->
<g id="edge38" class="edge">
<title>Node31&#45;&gt;Node5</title>
<path fill="none" stroke="midnightblue" d="M1104.9,-643.73C1069.29,-625.39 1012.14,-597.83 960,-581 897.32,-560.77 823.07,-547 771.87,-539.01"/>
<polygon fill="midnightblue" stroke="midnightblue" points="1103.42,-646.91 1113.91,-648.41 1106.65,-640.7 1103.42,-646.91"/>
</g>
<!-- Node32 -->
<g id="node32" class="node">
<title>Node32</title>
<g id="a_node32"><a xlink:href="StandardMultiAgentAStarProblem_8cpp.html" target="_top" xlink:title=" ">
<polygon fill="white" stroke="black" points="1051,-581.5 1051,-611.5 1211,-611.5 1211,-581.5 1051,-581.5"/>
<text text-anchor="start" x="1059" y="-599.5" font-family="Helvetica,sans-Serif" font-size="10.00">AStarProblems/StandardMulti</text>
<text text-anchor="middle" x="1131" y="-588.5" font-family="Helvetica,sans-Serif" font-size="10.00">AgentAStarProblem.cpp</text>
</a>
</g>
</g>
<!-- Node31&#45;&gt;Node32 -->
<g id="edge37" class="edge">
<title>Node31&#45;&gt;Node32</title>
<path fill="none" stroke="midnightblue" d="M1136.66,-638.4C1135.41,-629.37 1134.03,-619.41 1132.95,-611.58"/>
<polygon fill="midnightblue" stroke="midnightblue" points="1133.21,-638.97 1138.05,-648.4 1140.14,-638.01 1133.21,-638.97"/>
</g>
<!-- Node34 -->
<g id="node34" class="node">
<title>Node34</title>
<g id="a_node34"><a xlink:href="StandardMultiAgentAStarProblemWithConstraints_8h.html" target="_top" xlink:title=" ">
<polygon fill="white" stroke="black" points="1394.5,-581.5 1394.5,-611.5 1593.5,-611.5 1593.5,-581.5 1394.5,-581.5"/>
<text text-anchor="start" x="1402.5" y="-599.5" font-family="Helvetica,sans-Serif" font-size="10.00">AStarProblems/StandardMulti</text>
<text text-anchor="middle" x="1494" y="-588.5" font-family="Helvetica,sans-Serif" font-size="10.00">AgentAStarProblemWithConstraints.h</text>
</a>
</g>
</g>
<!-- Node33&#45;&gt;Node34 -->
<g id="edge40" class="edge">
<title>Node33&#45;&gt;Node34</title>
<path fill="none" stroke="midnightblue" d="M1361.13,-644.96C1390.44,-634.48 1427.18,-621.37 1454.59,-611.58"/>
<polygon fill="midnightblue" stroke="midnightblue" points="1359.73,-641.74 1351.49,-648.4 1362.09,-648.33 1359.73,-641.74"/>
</g>
<!-- Node36 -->
<g id="node36" class="node">
<title>Node36</title>
<g id="a_node36"><a xlink:href="StandardMultiAgentSpaceTimeState_8cpp.html" target="_top" xlink:title=" ">
<polygon fill="white" stroke="black" points="1229.5,-581.5 1229.5,-611.5 1376.5,-611.5 1376.5,-581.5 1229.5,-581.5"/>
<text text-anchor="start" x="1237.5" y="-599.5" font-family="Helvetica,sans-Serif" font-size="10.00">States/StandardMultiAgent</text>
<text text-anchor="middle" x="1303" y="-588.5" font-family="Helvetica,sans-Serif" font-size="10.00">SpaceTimeState.cpp</text>
</a>
</g>
</g>
<!-- Node33&#45;&gt;Node36 -->
<g id="edge43" class="edge">
<title>Node33&#45;&gt;Node36</title>
<path fill="none" stroke="midnightblue" d="M1308.66,-638.4C1307.41,-629.37 1306.03,-619.41 1304.95,-611.58"/>
<polygon fill="midnightblue" stroke="midnightblue" points="1305.21,-638.97 1310.05,-648.4 1312.14,-638.01 1305.21,-638.97"/>
</g>
<!-- Node34&#45;&gt;Node5 -->
<g id="edge42" class="edge">
<title>Node34&#45;&gt;Node5</title>
<path fill="none" stroke="midnightblue" d="M1384.29,-580.86C1167.2,-558.46 923.37,-542.77 796.58,-535.33"/>
<polygon fill="midnightblue" stroke="midnightblue" points="1383.98,-584.34 1394.28,-581.89 1384.7,-577.38 1383.98,-584.34"/>
</g>
<!-- Node35 -->
<g id="node35" class="node">
<title>Node35</title>
<g id="a_node35"><a xlink:href="StandardMultiAgentAStarProblemWithConstraints_8cpp.html" target="_top" xlink:title=" ">
<polygon fill="white" stroke="black" points="1389,-514.5 1389,-544.5 1599,-544.5 1599,-514.5 1389,-514.5"/>
<text text-anchor="start" x="1397" y="-532.5" font-family="Helvetica,sans-Serif" font-size="10.00">AStarProblems/StandardMulti</text>
<text text-anchor="middle" x="1494" y="-521.5" font-family="Helvetica,sans-Serif" font-size="10.00">AgentAStarProblemWithConstraints.cpp</text>
</a>
</g>
</g>
<!-- Node34&#45;&gt;Node35 -->
<g id="edge41" class="edge">
<title>Node34&#45;&gt;Node35</title>
<path fill="none" stroke="midnightblue" d="M1494,-571.11C1494,-562.15 1494,-552.32 1494,-544.58"/>
<polygon fill="midnightblue" stroke="midnightblue" points="1490.5,-571.4 1494,-581.4 1497.5,-571.4 1490.5,-571.4"/>
</g>
</g>
</svg>
        <g id="navigator" transform="translate(0 0)" fill="#404254">
                <rect fill="#f2f5e9" fill-opacity="0.5" stroke="#606060" stroke-width=".5" x="0" y="0" width="60" height="60"/>
                <use id="zoomplus" xlink:href="#zoomPlus" x="17" y="9" onmousedown="handleZoom(evt,'in')"/>
                <use id="zoomminus" xlink:href="#zoomMin" x="42" y="9" onmousedown="handleZoom(evt,'out')"/>
                <use id="reset" xlink:href="#resetDef" x="30" y="36" onmousedown="handleReset()"/>
                <g id="arrowUp" xlink:href="#dirArrow" transform="translate(30 24)" onmousedown="handlePan(0,-1)">
                  <use xlink:href="#rim" fill="#404040">
                        <set attributeName="fill" to="#808080" begin="arrowUp.mouseover" end="arrowUp.mouseout"/>
                  </use>
                  <path fill="none" stroke="white" stroke-width="1.5" d="M0,-3.0v7 M-2.5,-0.5L0,-3.0L2.5,-0.5"/>
                </g>
                <g id="arrowRight" xlink:href="#dirArrow" transform="rotate(90) translate(36 -43)" onmousedown="handlePan(1,0)">
                  <use xlink:href="#rim" fill="#404040">
                        <set attributeName="fill" to="#808080" begin="arrowRight.mouseover" end="arrowRight.mouseout"/>
                  </use>
                  <path fill="none" stroke="white" stroke-width="1.5" d="M0,-3.0v7 M-2.5,-0.5L0,-3.0L2.5,-0.5"/>
                </g>
                <g id="arrowDown" xlink:href="#dirArrow" transform="rotate(180) translate(-30 -48)" onmousedown="handlePan(0,1)">
                  <use xlink:href="#rim" fill="#404040">
                        <set attributeName="fill" to="#808080" begin="arrowDown.mouseover" end="arrowDown.mouseout"/>
                  </use>
                  <path fill="none" stroke="white" stroke-width="1.5" d="M0,-3.0v7 M-2.5,-0.5L0,-3.0L2.5,-0.5"/>
                </g>
                <g id="arrowLeft" xlink:href="#dirArrow" transform="rotate(270) translate(-36 17)" onmousedown="handlePan(-1,0)">
                  <use xlink:href="#rim" fill="#404040">
                        <set attributeName="fill" to="#808080" begin="arrowLeft.mouseover" end="arrowLeft.mouseout"/>
                  </use>
                  <path fill="none" stroke="white" stroke-width="1.5" d="M0,-3.0v7 M-2.5,-0.5L0,-3.0L2.5,-0.5"/>
                </g>
        </g>
        <svg viewBox="0 0 15 15" width="100%" height="30px" preserveAspectRatio="xMaxYMin meet">
         <g id="arrow_out" transform="scale(0.3 0.3)">
          <a xlink:href="State_8h__dep__incl_org.svg" target="_base">
           <rect id="button" ry="5" rx="5" y="6" x="6" height="38" width="38"
                fill="#f2f5e9" fill-opacity="0.5" stroke="#606060" stroke-width="1.0"/>
           <path id="arrow"
             d="M 11.500037,31.436501 C 11.940474,20.09759 22.043105,11.32322 32.158766,21.979434 L 37.068811,17.246167 C 37.068811,17.246167 37.088388,32 37.088388,32 L 22.160133,31.978069 C 22.160133,31.978069 26.997745,27.140456 26.997745,27.140456 C 18.528582,18.264221 13.291696,25.230495 11.500037,31.436501 z"
             style="fill:#404040;"/>
          </a>
         </g>
        </svg>
</svg>
