<?xml version="1.0" encoding="UTF-8" standalone="no"?>
<!DOCTYPE svg PUBLIC "-//W3C//DTD SVG 1.1//EN"
 "http://www.w3.org/Graphics/SVG/1.1/DTD/svg11.dtd">
<!-- Generated by graphviz version 2.43.0 (0)
 -->
<!-- Title: States/State.h Pages: 1 -->
<!--zoomable 162 -->
<svg id="main" version="1.1" xmlns="http://www.w3.org/2000/svg" xmlns:xlink="http://www.w3.org/1999/xlink" xml:space="preserve" onload="init(evt)">
<style type="text/css"><![CDATA[
.edge:hover path { stroke: red; }
.edge:hover polygon { stroke: red; fill: red; }
]]></style>
<script type="text/javascript"><![CDATA[
var edges = document.getElementsByTagName('g');
if (edges && edges.length) {
  for (var i=0;i<edges.length;i++) {
    if (edges[i].id.substr(0,4)=='edge') {
      edges[i].setAttribute('class','edge');
    }
  }
}
]]></script>
        <defs>
                <circle id="rim" cx="0" cy="0" r="7"/>
                <circle id="rim2" cx="0" cy="0" r="3.5"/>
                <g id="zoomPlus">
                        <use xlink:href="#rim" fill="#404040">
                                <set attributeName="fill" to="#808080" begin="zoomplus.mouseover" end="zoomplus.mouseout"/>
                        </use>
                        <path d="M-4,0h8M0,-4v8" fill="none" stroke="white" stroke-width="1.5" pointer-events="none"/>
                </g>
                <g id="zoomMin">
                        <use xlink:href="#rim" fill="#404040">
                                <set attributeName="fill" to="#808080" begin="zoomminus.mouseover" end="zoomminus.mouseout"/>
                        </use>
                        <path d="M-4,0h8" fill="none" stroke="white" stroke-width="1.5" pointer-events="none"/>
                </g>
                <g id="dirArrow">
                        <path fill="none" stroke="white" stroke-width="1.5" d="M0,-3.0v7 M-2.5,-0.5L0,-3.0L2.5,-0.5"/>
                </g>
               <g id="resetDef">
                       <use xlink:href="#rim2" fill="#404040">
                               <set attributeName="fill" to="#808080" begin="reset.mouseover" end="reset.mouseout"/>
                       </use>
               </g>
        </defs>

<script type="text/javascript">
var viewWidth = 1563;
var viewHeight = 162;
var sectionId = 'dynsection-0';
</script>
<script xlink:href="svgpan.js"/>
<svg id="graph" class="graph">
<g id="viewport">
<title>States/State.h</title>
<polygon fill="white" stroke="transparent" points="-4,4 -4,-158 1558.5,-158 1558.5,4 -4,4"/>
<!-- Node1 -->
<g id="node1" class="node">
<title>Node1</title>
<g id="a_node1"><a xlink:title=" ">
<polygon fill="#bfbfbf" stroke="black" points="840.5,-134.5 840.5,-153.5 925.5,-153.5 925.5,-134.5 840.5,-134.5"/>
<text text-anchor="middle" x="883" y="-141.5" font-family="Helvetica,sans-Serif" font-size="10.00">States/State.h</text>
</a>
</g>
</g>
<!-- Node2 -->
<g id="node2" class="node">
<title>Node2</title>
<g id="a_node2"><a xlink:href="ODMultiAgentState_8h.html" target="_top" xlink:title=" ">
<polygon fill="white" stroke="black" points="262.5,-73 262.5,-92 415.5,-92 415.5,-73 262.5,-73"/>
<text text-anchor="middle" x="339" y="-80" font-family="Helvetica,sans-Serif" font-size="10.00">States/ODMultiAgentState.h</text>
</a>
</g>
</g>
<!-- Node1&#45;&gt;Node2 -->
<g id="edge1" class="edge">
<title>Node1&#45;&gt;Node2</title>
<path fill="none" stroke="midnightblue" d="M830.19,-137.22C733.52,-126.65 527.77,-104.15 415.68,-91.89"/>
<polygon fill="midnightblue" stroke="midnightblue" points="829.99,-140.72 840.31,-138.33 830.75,-133.76 829.99,-140.72"/>
</g>
<!-- Node23 -->
<g id="node6" class="node">
<title>Node23</title>
<g id="a_node6"><a xlink:href="SingleAgentSpaceTimeState_8h.html" target="_top" xlink:title=" ">
<polygon fill="white" stroke="black" points="714.5,-67.5 714.5,-97.5 877.5,-97.5 877.5,-67.5 714.5,-67.5"/>
<text text-anchor="start" x="722.5" y="-85.5" font-family="Helvetica,sans-Serif" font-size="10.00">States/SingleAgentSpaceTime</text>
<text text-anchor="middle" x="796" y="-74.5" font-family="Helvetica,sans-Serif" font-size="10.00">State.h</text>
</a>
</g>
</g>
<!-- Node1&#45;&gt;Node23 -->
<g id="edge5" class="edge">
<title>Node1&#45;&gt;Node23</title>
<path fill="none" stroke="midnightblue" d="M862.15,-128.74C848.32,-119.28 830.26,-106.93 816.5,-97.52"/>
<polygon fill="midnightblue" stroke="midnightblue" points="860.3,-131.72 870.54,-134.48 864.26,-125.94 860.3,-131.72"/>
</g>
<!-- Node27 -->
<g id="node9" class="node">
<title>Node27</title>
<g id="a_node9"><a xlink:href="SingleAgentState_8h.html" target="_top" xlink:title=" ">
<polygon fill="white" stroke="black" points="897.5,-73 897.5,-92 1040.5,-92 1040.5,-73 897.5,-73"/>
<text text-anchor="middle" x="969" y="-80" font-family="Helvetica,sans-Serif" font-size="10.00">States/SingleAgentState.h</text>
</a>
</g>
</g>
<!-- Node1&#45;&gt;Node27 -->
<g id="edge8" class="edge">
<title>Node1&#45;&gt;Node27</title>
<path fill="none" stroke="midnightblue" d="M903.8,-128.61C920.34,-117.17 942.92,-101.55 956.7,-92.01"/>
<polygon fill="midnightblue" stroke="midnightblue" points="901.55,-125.91 895.32,-134.48 905.54,-131.66 901.55,-125.91"/>
</g>
<!-- Node30 -->
<g id="node11" class="node">
<title>Node30</title>
<g id="a_node11"><a xlink:href="StandardMultiAgentState_8h.html" target="_top" xlink:title=" ">
<polygon fill="white" stroke="black" points="1156.5,-67.5 1156.5,-97.5 1303.5,-97.5 1303.5,-67.5 1156.5,-67.5"/>
<text text-anchor="start" x="1164.5" y="-85.5" font-family="Helvetica,sans-Serif" font-size="10.00">States/StandardMultiAgent</text>
<text text-anchor="middle" x="1230" y="-74.5" font-family="Helvetica,sans-Serif" font-size="10.00">State.h</text>
</a>
</g>
</g>
<!-- Node1&#45;&gt;Node30 -->
<g id="edge10" class="edge">
<title>Node1&#45;&gt;Node30</title>
<path fill="none" stroke="midnightblue" d="M935.74,-133.96C994.6,-123.86 1090.25,-107.46 1156.45,-96.11"/>
<polygon fill="midnightblue" stroke="midnightblue" points="934.81,-130.56 925.55,-135.7 936,-137.46 934.81,-130.56"/>
</g>
<!-- Node3 -->
<g id="node3" class="node">
<title>Node3</title>
<g id="a_node3"><a xlink:href="ODMultiAgentAStarProblem_8h.html" target="_top" xlink:title=" ">
<polygon fill="white" stroke="red" points="0,-0.5 0,-30.5 160,-30.5 160,-0.5 0,-0.5"/>
<text text-anchor="start" x="8" y="-18.5" font-family="Helvetica,sans-Serif" font-size="10.00">AStarProblems/ODMultiAgent</text>
<text text-anchor="middle" x="80" y="-7.5" font-family="Helvetica,sans-Serif" font-size="10.00">AStarProblem.h</text>
</a>
</g>
</g>
<!-- Node2&#45;&gt;Node3 -->
<g id="edge2" class="edge">
<title>Node2&#45;&gt;Node3</title>
<path fill="none" stroke="midnightblue" d="M295.08,-70.48C251.24,-59.47 183.7,-42.52 136.02,-30.56"/>
<polygon fill="midnightblue" stroke="midnightblue" points="294.32,-73.9 304.87,-72.94 296.03,-67.11 294.32,-73.9"/>
</g>
<!-- Node18 -->
<g id="node4" class="node">
<title>Node18</title>
<g id="a_node4"><a xlink:href="ODMultiAgentSpaceTimeState_8h.html" target="_top" xlink:title=" ">
<polygon fill="white" stroke="red" points="178,-0.5 178,-30.5 326,-30.5 326,-0.5 178,-0.5"/>
<text text-anchor="start" x="186" y="-18.5" font-family="Helvetica,sans-Serif" font-size="10.00">States/ODMultiAgentSpace</text>
<text text-anchor="middle" x="252" y="-7.5" font-family="Helvetica,sans-Serif" font-size="10.00">TimeState.h</text>
</a>
</g>
</g>
<!-- Node2&#45;&gt;Node18 -->
<g id="edge3" class="edge">
<title>Node2&#45;&gt;Node18</title>
<path fill="none" stroke="midnightblue" d="M318.98,-66.54C304.5,-55.73 285.06,-41.2 270.86,-30.59"/>
<polygon fill="midnightblue" stroke="midnightblue" points="317.16,-69.55 327.27,-72.73 321.35,-63.94 317.16,-69.55"/>
</g>
<!-- Node22 -->
<g id="node5" class="node">
<title>Node22</title>
<g id="a_node5"><a xlink:href="ODMultiAgentState_8cpp.html" target="_top" xlink:title=" ">
<polygon fill="white" stroke="black" points="344,-6 344,-25 508,-25 508,-6 344,-6"/>
<text text-anchor="middle" x="426" y="-13" font-family="Helvetica,sans-Serif" font-size="10.00">States/ODMultiAgentState.cpp</text>
</a>
</g>
</g>
<!-- Node2&#45;&gt;Node22 -->
<g id="edge4" class="edge">
<title>Node2&#45;&gt;Node22</title>
<path fill="none" stroke="midnightblue" d="M358.99,-66.57C376.16,-53.74 400.32,-35.69 414.45,-25.13"/>
<polygon fill="midnightblue" stroke="midnightblue" points="356.65,-63.94 350.73,-72.73 360.84,-69.55 356.65,-63.94"/>
</g>
<!-- Node24 -->
<g id="node7" class="node">
<title>Node24</title>
<g id="a_node7"><a xlink:href="SingleAgentAStarProblemWithConstraints_8h.html" target="_top" xlink:title=" ">
<polygon fill="white" stroke="red" points="526,-0.5 526,-30.5 696,-30.5 696,-0.5 526,-0.5"/>
<text text-anchor="start" x="534" y="-18.5" font-family="Helvetica,sans-Serif" font-size="10.00">AStarProblems/SingleAgent</text>
<text text-anchor="middle" x="611" y="-7.5" font-family="Helvetica,sans-Serif" font-size="10.00">AStarProblemWithConstraints.h</text>
</a>
</g>
</g>
<!-- Node23&#45;&gt;Node24 -->
<g id="edge6" class="edge">
<title>Node23&#45;&gt;Node24</title>
<path fill="none" stroke="midnightblue" d="M746.06,-63.96C716.26,-53.48 678.93,-40.37 651.06,-30.58"/>
<polygon fill="midnightblue" stroke="midnightblue" points="745.26,-67.38 755.86,-67.4 747.58,-60.78 745.26,-67.38"/>
</g>
<!-- Node26 -->
<g id="node8" class="node">
<title>Node26</title>
<g id="a_node8"><a xlink:href="SingleAgentSpaceTimeState_8cpp.html" target="_top" xlink:title=" ">
<polygon fill="white" stroke="black" points="714.5,-0.5 714.5,-30.5 877.5,-30.5 877.5,-0.5 714.5,-0.5"/>
<text text-anchor="start" x="722.5" y="-18.5" font-family="Helvetica,sans-Serif" font-size="10.00">States/SingleAgentSpaceTime</text>
<text text-anchor="middle" x="796" y="-7.5" font-family="Helvetica,sans-Serif" font-size="10.00">State.cpp</text>
</a>
</g>
</g>
<!-- Node23&#45;&gt;Node26 -->
<g id="edge7" class="edge">
<title>Node23&#45;&gt;Node26</title>
<path fill="none" stroke="midnightblue" d="M796,-57.11C796,-48.15 796,-38.32 796,-30.58"/>
<polygon fill="midnightblue" stroke="midnightblue" points="792.5,-57.4 796,-67.4 799.5,-57.4 792.5,-57.4"/>
</g>
<!-- Node28 -->
<g id="node10" class="node">
<title>Node28</title>
<g id="a_node10"><a xlink:href="SingleAgentAStarProblem_8h.html" target="_top" xlink:title=" ">
<polygon fill="white" stroke="red" points="896,-0.5 896,-30.5 1046,-30.5 1046,-0.5 896,-0.5"/>
<text text-anchor="start" x="904" y="-18.5" font-family="Helvetica,sans-Serif" font-size="10.00">AStarProblems/SingleAgent</text>
<text text-anchor="middle" x="971" y="-7.5" font-family="Helvetica,sans-Serif" font-size="10.00">AStarProblem.h</text>
</a>
</g>
</g>
<!-- Node27&#45;&gt;Node28 -->
<g id="edge9" class="edge">
<title>Node27&#45;&gt;Node28</title>
<path fill="none" stroke="midnightblue" d="M969.59,-62.41C969.9,-52.22 970.28,-39.9 970.57,-30.59"/>
<polygon fill="midnightblue" stroke="midnightblue" points="966.08,-62.63 969.27,-72.73 973.08,-62.85 966.08,-62.63"/>
</g>
<!-- Node31 -->
<g id="node12" class="node">
<title>Node31</title>
<g id="a_node12"><a xlink:href="StandardMultiAgentAStarProblem_8h.html" target="_top" xlink:title=" ">
<polygon fill="white" stroke="red" points="1064,-0.5 1064,-30.5 1224,-30.5 1224,-0.5 1064,-0.5"/>
<text text-anchor="start" x="1072" y="-18.5" font-family="Helvetica,sans-Serif" font-size="10.00">AStarProblems/StandardMulti</text>
<text text-anchor="middle" x="1144" y="-7.5" font-family="Helvetica,sans-Serif" font-size="10.00">AgentAStarProblem.h</text>
</a>
</g>
</g>
<!-- Node30&#45;&gt;Node31 -->
<g id="edge11" class="edge">
<title>Node30&#45;&gt;Node31</title>
<path fill="none" stroke="midnightblue" d="M1203.1,-61.17C1189.95,-51.23 1174.45,-39.51 1162.62,-30.58"/>
<polygon fill="midnightblue" stroke="midnightblue" points="1201.25,-64.16 1211.34,-67.4 1205.47,-58.57 1201.25,-64.16"/>
</g>
<!-- Node33 -->
<g id="node13" class="node">
<title>Node33</title>
<g id="a_node13"><a xlink:href="StandardMultiAgentSpaceTimeState_8h.html" target="_top" xlink:title=" ">
<polygon fill="white" stroke="red" points="1242.5,-0.5 1242.5,-30.5 1389.5,-30.5 1389.5,-0.5 1242.5,-0.5"/>
<text text-anchor="start" x="1250.5" y="-18.5" font-family="Helvetica,sans-Serif" font-size="10.00">States/StandardMultiAgent</text>
<text text-anchor="middle" x="1316" y="-7.5" font-family="Helvetica,sans-Serif" font-size="10.00">SpaceTimeState.h</text>
</a>
</g>
</g>
<!-- Node30&#45;&gt;Node33 -->
<g id="edge12" class="edge">
<title>Node30&#45;&gt;Node33</title>
<path fill="none" stroke="midnightblue" d="M1256.9,-61.17C1270.05,-51.23 1285.55,-39.51 1297.38,-30.58"/>
<polygon fill="midnightblue" stroke="midnightblue" points="1254.53,-58.57 1248.66,-67.4 1258.75,-64.16 1254.53,-58.57"/>
</g>
<!-- Node37 -->
<g id="node14" class="node">
<title>Node37</title>
<g id="a_node14"><a xlink:href="StandardMultiAgentState_8cpp.html" target="_top" xlink:title=" ">
<polygon fill="white" stroke="black" points="1407.5,-0.5 1407.5,-30.5 1554.5,-30.5 1554.5,-0.5 1407.5,-0.5"/>
<text text-anchor="start" x="1415.5" y="-18.5" font-family="Helvetica,sans-Serif" font-size="10.00">States/StandardMultiAgent</text>
<text text-anchor="middle" x="1481" y="-7.5" font-family="Helvetica,sans-Serif" font-size="10.00">State.cpp</text>
</a>
</g>
</g>
<!-- Node30&#45;&gt;Node37 -->
<g id="edge13" class="edge">
<title>Node30&#45;&gt;Node37</title>
<path fill="none" stroke="midnightblue" d="M1294.04,-64.92C1335,-54.31 1387.56,-40.7 1426.51,-30.61"/>
<polygon fill="midnightblue" stroke="midnightblue" points="1292.96,-61.58 1284.15,-67.48 1294.71,-68.36 1292.96,-61.58"/>
</g>
</g>
</svg>
        <g id="navigator" transform="translate(0 0)" fill="#404254">
                <rect fill="#f2f5e9" fill-opacity="0.5" stroke="#606060" stroke-width=".5" x="0" y="0" width="60" height="60"/>
                <use id="zoomplus" xlink:href="#zoomPlus" x="17" y="9" onmousedown="handleZoom(evt,'in')"/>
                <use id="zoomminus" xlink:href="#zoomMin" x="42" y="9" onmousedown="handleZoom(evt,'out')"/>
                <use id="reset" xlink:href="#resetDef" x="30" y="36" onmousedown="handleReset()"/>
                <g id="arrowUp" xlink:href="#dirArrow" transform="translate(30 24)" onmousedown="handlePan(0,-1)">
                  <use xlink:href="#rim" fill="#404040">
                        <set attributeName="fill" to="#808080" begin="arrowUp.mouseover" end="arrowUp.mouseout"/>
                  </use>
                  <path fill="none" stroke="white" stroke-width="1.5" d="M0,-3.0v7 M-2.5,-0.5L0,-3.0L2.5,-0.5"/>
                </g>
                <g id="arrowRight" xlink:href="#dirArrow" transform="rotate(90) translate(36 -43)" onmousedown="handlePan(1,0)">
                  <use xlink:href="#rim" fill="#404040">
                        <set attributeName="fill" to="#808080" begin="arrowRight.mouseover" end="arrowRight.mouseout"/>
                  </use>
                  <path fill="none" stroke="white" stroke-width="1.5" d="M0,-3.0v7 M-2.5,-0.5L0,-3.0L2.5,-0.5"/>
                </g>
                <g id="arrowDown" xlink:href="#dirArrow" transform="rotate(180) translate(-30 -48)" onmousedown="handlePan(0,1)">
                  <use xlink:href="#rim" fill="#404040">
                        <set attributeName="fill" to="#808080" begin="arrowDown.mouseover" end="arrowDown.mouseout"/>
                  </use>
                  <path fill="none" stroke="white" stroke-width="1.5" d="M0,-3.0v7 M-2.5,-0.5L0,-3.0L2.5,-0.5"/>
                </g>
                <g id="arrowLeft" xlink:href="#dirArrow" transform="rotate(270) translate(-36 17)" onmousedown="handlePan(-1,0)">
                  <use xlink:href="#rim" fill="#404040">
                        <set attributeName="fill" to="#808080" begin="arrowLeft.mouseover" end="arrowLeft.mouseout"/>
                  </use>
                  <path fill="none" stroke="white" stroke-width="1.5" d="M0,-3.0v7 M-2.5,-0.5L0,-3.0L2.5,-0.5"/>
                </g>
        </g>
        <svg viewBox="0 0 15 15" width="100%" height="30px" preserveAspectRatio="xMaxYMin meet">
         <g id="arrow_out" transform="scale(0.3 0.3)">
          <a xlink:href="State_8h__dep__incl_org.svg" target="_base">
           <rect id="button" ry="5" rx="5" y="6" x="6" height="38" width="38"
                fill="#f2f5e9" fill-opacity="0.5" stroke="#606060" stroke-width="1.0"/>
           <path id="arrow"
             d="M 11.500037,31.436501 C 11.940474,20.09759 22.043105,11.32322 32.158766,21.979434 L 37.068811,17.246167 C 37.068811,17.246167 37.088388,32 37.088388,32 L 22.160133,31.978069 C 22.160133,31.978069 26.997745,27.140456 26.997745,27.140456 C 18.528582,18.264221 13.291696,25.230495 11.500037,31.436501 z"
             style="fill:#404040;"/>
          </a>
         </g>
        </svg>
</svg>
