<?xml version="1.0" encoding="UTF-8" standalone="no"?>
<!DOCTYPE svg PUBLIC "-//W3C//DTD SVG 1.1//EN"
 "http://www.w3.org/Graphics/SVG/1.1/DTD/svg11.dtd">
<!-- Generated by graphviz version 2.43.0 (0)
 -->
<!-- Title: State.h Pages: 1 -->
<!--zoomable 733 -->
<svg id="main" version="1.1" xmlns="http://www.w3.org/2000/svg" xmlns:xlink="http://www.w3.org/1999/xlink" xml:space="preserve" onload="init(evt)">
<style type="text/css"><![CDATA[
.edge:hover path { stroke: red; }
.edge:hover polygon { stroke: red; fill: red; }
]]></style>
<script type="text/javascript"><![CDATA[
var edges = document.getElementsByTagName('g');
if (edges && edges.length) {
  for (var i=0;i<edges.length;i++) {
    if (edges[i].id.substr(0,4)=='edge') {
      edges[i].setAttribute('class','edge');
    }
  }
}
]]></script>
        <defs>
                <circle id="rim" cx="0" cy="0" r="7"/>
                <circle id="rim2" cx="0" cy="0" r="3.5"/>
                <g id="zoomPlus">
                        <use xlink:href="#rim" fill="#404040">
                                <set attributeName="fill" to="#808080" begin="zoomplus.mouseover" end="zoomplus.mouseout"/>
                        </use>
                        <path d="M-4,0h8M0,-4v8" fill="none" stroke="white" stroke-width="1.5" pointer-events="none"/>
                </g>
                <g id="zoomMin">
                        <use xlink:href="#rim" fill="#404040">
                                <set attributeName="fill" to="#808080" begin="zoomminus.mouseover" end="zoomminus.mouseout"/>
                        </use>
                        <path d="M-4,0h8" fill="none" stroke="white" stroke-width="1.5" pointer-events="none"/>
                </g>
                <g id="dirArrow">
                        <path fill="none" stroke="white" stroke-width="1.5" d="M0,-3.0v7 M-2.5,-0.5L0,-3.0L2.5,-0.5"/>
                </g>
               <g id="resetDef">
                       <use xlink:href="#rim2" fill="#404040">
                               <set attributeName="fill" to="#808080" begin="reset.mouseover" end="reset.mouseout"/>
                       </use>
               </g>
        </defs>

<script type="text/javascript">
var viewWidth = 1730;
var viewHeight = 733;
var sectionId = 'dynsection-0';
</script>
<script xlink:href="svgpan.js"/>
<svg id="graph" class="graph">
<g id="viewport">
<title>State.h</title>
<polygon fill="white" stroke="transparent" points="-4,4 -4,-729 1726,-729 1726,4 -4,4"/>
<!-- Node1 -->
<g id="node1" class="node">
<title>Node1</title>
<g id="a_node1"><a xlink:title=" ">
<polygon fill="#bfbfbf" stroke="black" points="958.5,-705.5 958.5,-724.5 1009.5,-724.5 1009.5,-705.5 958.5,-705.5"/>
<text text-anchor="middle" x="984" y="-712.5" font-family="Helvetica,sans-Serif" font-size="10.00">State.h</text>
</a>
</g>
</g>
<!-- Node2 -->
<g id="node2" class="node">
<title>Node2</title>
<g id="a_node2"><a xlink:href="ODMultiAgentState_8h.html" target="_top" xlink:title=" ">
<polygon fill="white" stroke="black" points="451.5,-649.5 451.5,-668.5 570.5,-668.5 570.5,-649.5 451.5,-649.5"/>
<text text-anchor="middle" x="511" y="-656.5" font-family="Helvetica,sans-Serif" font-size="10.00">ODMultiAgentState.h</text>
</a>
</g>
</g>
<!-- Node1&#45;&gt;Node2 -->
<g id="edge1" class="edge">
<title>Node1&#45;&gt;Node2</title>
<path fill="none" stroke="midnightblue" d="M948.06,-709.9C867.19,-700.66 670.19,-678.17 570.65,-666.81"/>
<polygon fill="midnightblue" stroke="midnightblue" points="947.9,-713.4 958.23,-711.06 948.7,-706.45 947.9,-713.4"/>
</g>
<!-- Node23 -->
<g id="node23" class="node">
<title>Node23</title>
<g id="a_node23"><a xlink:href="SingleAgentSpaceTimeState_8h.html" target="_top" xlink:title=" ">
<polygon fill="white" stroke="black" points="825,-649.5 825,-668.5 989,-668.5 989,-649.5 825,-649.5"/>
<text text-anchor="middle" x="907" y="-656.5" font-family="Helvetica,sans-Serif" font-size="10.00">SingleAgentSpaceTimeState.h</text>
</a>
</g>
</g>
<!-- Node1&#45;&gt;Node23 -->
<g id="edge25" class="edge">
<title>Node1&#45;&gt;Node23</title>
<path fill="none" stroke="midnightblue" d="M963.1,-699.34C949.09,-689.52 931.12,-676.91 919.34,-668.65"/>
<polygon fill="midnightblue" stroke="midnightblue" points="961.43,-702.45 971.63,-705.32 965.45,-696.72 961.43,-702.45"/>
</g>
<!-- Node27 -->
<g id="node27" class="node">
<title>Node27</title>
<g id="a_node27"><a xlink:href="SingleAgentState_8h.html" target="_top" xlink:title=" ">
<polygon fill="white" stroke="black" points="1007,-649.5 1007,-668.5 1117,-668.5 1117,-649.5 1007,-649.5"/>
<text text-anchor="middle" x="1062" y="-656.5" font-family="Helvetica,sans-Serif" font-size="10.00">SingleAgentState.h</text>
</a>
</g>
</g>
<!-- Node1&#45;&gt;Node27 -->
<g id="edge30" class="edge">
<title>Node1&#45;&gt;Node27</title>
<path fill="none" stroke="midnightblue" d="M1004.77,-699.62C1019.02,-689.76 1037.46,-676.99 1049.5,-668.65"/>
<polygon fill="midnightblue" stroke="midnightblue" points="1002.76,-696.75 996.53,-705.32 1006.75,-702.51 1002.76,-696.75"/>
</g>
<!-- Node30 -->
<g id="node30" class="node">
<title>Node30</title>
<g id="a_node30"><a xlink:href="StandardMultiAgentState_8h.html" target="_top" xlink:title=" ">
<polygon fill="white" stroke="black" points="1263,-649.5 1263,-668.5 1411,-668.5 1411,-649.5 1263,-649.5"/>
<text text-anchor="middle" x="1337" y="-656.5" font-family="Helvetica,sans-Serif" font-size="10.00">StandardMultiAgentState.h</text>
</a>
</g>
</g>
<!-- Node1&#45;&gt;Node30 -->
<g id="edge35" class="edge">
<title>Node1&#45;&gt;Node30</title>
<path fill="none" stroke="midnightblue" d="M1019.69,-708.54C1081.32,-699.11 1208.11,-679.72 1281.39,-668.51"/>
<polygon fill="midnightblue" stroke="midnightblue" points="1019.03,-705.1 1009.67,-710.07 1020.09,-712.02 1019.03,-705.1"/>
</g>
<!-- Node3 -->
<g id="node3" class="node">
<title>Node3</title>
<g id="a_node3"><a xlink:href="ODMultiAgentAStarProblem_8h.html" target="_top" xlink:title=" ">
<polygon fill="white" stroke="black" points="348.5,-588 348.5,-607 509.5,-607 509.5,-588 348.5,-588"/>
<text text-anchor="middle" x="429" y="-595" font-family="Helvetica,sans-Serif" font-size="10.00">ODMultiAgentAStarProblem.h</text>
</a>
</g>
</g>
<!-- Node2&#45;&gt;Node3 -->
<g id="edge2" class="edge">
<title>Node2&#45;&gt;Node3</title>
<path fill="none" stroke="midnightblue" d="M490.73,-643.29C475,-631.88 453.75,-616.46 440.73,-607.01"/>
<polygon fill="midnightblue" stroke="midnightblue" points="489.1,-646.43 499.25,-649.48 493.21,-640.77 489.1,-646.43"/>
</g>
<!-- Node18 -->
<g id="node18" class="node">
<title>Node18</title>
<g id="a_node18"><a xlink:href="ODMultiAgentSpaceTimeState_8h.html" target="_top" xlink:title=" ">
<polygon fill="white" stroke="black" points="157.5,-588 157.5,-607 330.5,-607 330.5,-588 157.5,-588"/>
<text text-anchor="middle" x="244" y="-595" font-family="Helvetica,sans-Serif" font-size="10.00">ODMultiAgentSpaceTimeState.h</text>
</a>
</g>
</g>
<!-- Node2&#45;&gt;Node18 -->
<g id="edge19" class="edge">
<title>Node2&#45;&gt;Node18</title>
<path fill="none" stroke="midnightblue" d="M462.8,-647.26C411,-635.72 329.73,-617.61 282.18,-607.01"/>
<polygon fill="midnightblue" stroke="midnightblue" points="462.22,-650.72 472.75,-649.48 463.75,-643.88 462.22,-650.72"/>
</g>
<!-- Node22 -->
<g id="node22" class="node">
<title>Node22</title>
<g id="a_node22"><a xlink:href="ODMultiAgentState_8cpp.html" target="_top" xlink:title=" ">
<polygon fill="white" stroke="black" points="527.5,-588 527.5,-607 658.5,-607 658.5,-588 527.5,-588"/>
<text text-anchor="middle" x="593" y="-595" font-family="Helvetica,sans-Serif" font-size="10.00">ODMultiAgentState.cpp</text>
</a>
</g>
</g>
<!-- Node2&#45;&gt;Node22 -->
<g id="edge24" class="edge">
<title>Node2&#45;&gt;Node22</title>
<path fill="none" stroke="midnightblue" d="M531.27,-643.29C547,-631.88 568.25,-616.46 581.27,-607.01"/>
<polygon fill="midnightblue" stroke="midnightblue" points="528.79,-640.77 522.75,-649.48 532.9,-646.43 528.79,-640.77"/>
</g>
<!-- Node4 -->
<g id="node4" class="node">
<title>Node4</title>
<g id="a_node4"><a xlink:href="ODMultiAgentAStarProblem_8cpp.html" target="_top" xlink:title=" ">
<polygon fill="white" stroke="black" points="374,-521 374,-540 546,-540 546,-521 374,-521"/>
<text text-anchor="middle" x="460" y="-528" font-family="Helvetica,sans-Serif" font-size="10.00">ODMultiAgentAStarProblem.cpp</text>
</a>
</g>
</g>
<!-- Node3&#45;&gt;Node4 -->
<g id="edge3" class="edge">
<title>Node3&#45;&gt;Node4</title>
<path fill="none" stroke="midnightblue" d="M437.51,-578.66C443.49,-566.13 451.22,-549.91 455.89,-540.13"/>
<polygon fill="midnightblue" stroke="midnightblue" points="434.33,-577.2 433.18,-587.73 440.64,-580.21 434.33,-577.2"/>
</g>
<!-- Node5 -->
<g id="node5" class="node">
<title>Node5</title>
<g id="a_node5"><a xlink:href="HeuristicManhattan_8h.html" target="_top" xlink:title=" ">
<polygon fill="white" stroke="black" points="832,-454 832,-473 954,-473 954,-454 832,-454"/>
<text text-anchor="middle" x="893" y="-461" font-family="Helvetica,sans-Serif" font-size="10.00">HeuristicManhattan.h</text>
</a>
</g>
</g>
<!-- Node3&#45;&gt;Node5 -->
<g id="edge4" class="edge">
<title>Node3&#45;&gt;Node5</title>
<path fill="none" stroke="midnightblue" d="M466.14,-584.94C518.41,-568.76 616.69,-538.71 701,-515 756.24,-499.46 820.85,-482.77 859.26,-473"/>
<polygon fill="midnightblue" stroke="midnightblue" points="464.84,-581.68 456.32,-587.98 466.91,-588.36 464.84,-581.68"/>
</g>
<!-- Node6 -->
<g id="node6" class="node">
<title>Node6</title>
<g id="a_node6"><a xlink:href="HeuristicOptimal_8h.html" target="_top" xlink:title=" ">
<polygon fill="white" stroke="black" points="839,-336.5 839,-355.5 947,-355.5 947,-336.5 839,-336.5"/>
<text text-anchor="middle" x="893" y="-343.5" font-family="Helvetica,sans-Serif" font-size="10.00">HeuristicOptimal.h</text>
</a>
</g>
</g>
<!-- Node5&#45;&gt;Node6 -->
<g id="edge5" class="edge">
<title>Node5&#45;&gt;Node6</title>
<path fill="none" stroke="midnightblue" d="M893,-443.66C893,-418.37 893,-374.44 893,-355.78"/>
<polygon fill="midnightblue" stroke="midnightblue" points="889.5,-443.82 893,-453.82 896.5,-443.82 889.5,-443.82"/>
</g>
<!-- Node16 -->
<g id="node16" class="node">
<title>Node16</title>
<g id="a_node16"><a xlink:href="ReverseResumableAStar_8h.html" target="_top" xlink:title=" ">
<polygon fill="white" stroke="black" points="946,-392.5 946,-411.5 1092,-411.5 1092,-392.5 946,-392.5"/>
<text text-anchor="middle" x="1019" y="-399.5" font-family="Helvetica,sans-Serif" font-size="10.00">ReverseResumableAStar.h</text>
</a>
</g>
</g>
<!-- Node5&#45;&gt;Node16 -->
<g id="edge16" class="edge">
<title>Node5&#45;&gt;Node16</title>
<path fill="none" stroke="midnightblue" d="M920.16,-449.67C944.61,-438.13 979.85,-421.49 1000.98,-411.51"/>
<polygon fill="midnightblue" stroke="midnightblue" points="918.6,-446.54 911.05,-453.98 921.59,-452.87 918.6,-446.54"/>
</g>
<!-- Node7 -->
<g id="node7" class="node">
<title>Node7</title>
<g id="a_node7"><a xlink:href="AStar_8h.html" target="_top" xlink:title=" ">
<polygon fill="white" stroke="black" points="867.5,-280.5 867.5,-299.5 918.5,-299.5 918.5,-280.5 867.5,-280.5"/>
<text text-anchor="middle" x="893" y="-287.5" font-family="Helvetica,sans-Serif" font-size="10.00">AStar.h</text>
</a>
</g>
</g>
<!-- Node6&#45;&gt;Node7 -->
<g id="edge6" class="edge">
<title>Node6&#45;&gt;Node7</title>
<path fill="none" stroke="midnightblue" d="M893,-325.8C893,-316.91 893,-306.78 893,-299.75"/>
<polygon fill="midnightblue" stroke="midnightblue" points="889.5,-326.08 893,-336.08 896.5,-326.08 889.5,-326.08"/>
</g>
<!-- Node8 -->
<g id="node8" class="node">
<title>Node8</title>
<g id="a_node8"><a xlink:href="GeneralAStar_8h.html" target="_top" xlink:title=" ">
<polygon fill="white" stroke="black" points="789.5,-224.5 789.5,-243.5 878.5,-243.5 878.5,-224.5 789.5,-224.5"/>
<text text-anchor="middle" x="834" y="-231.5" font-family="Helvetica,sans-Serif" font-size="10.00">GeneralAStar.h</text>
</a>
</g>
</g>
<!-- Node7&#45;&gt;Node8 -->
<g id="edge7" class="edge">
<title>Node7&#45;&gt;Node8</title>
<path fill="none" stroke="midnightblue" d="M876.11,-273.54C865.59,-263.91 852.43,-251.87 843.65,-243.83"/>
<polygon fill="midnightblue" stroke="midnightblue" points="873.78,-276.15 883.52,-280.32 878.51,-270.99 873.78,-276.15"/>
</g>
<!-- Node15 -->
<g id="node15" class="node">
<title>Node15</title>
<g id="a_node15"><a xlink:href="CooperativeAStar_8h.html" target="_top" xlink:title=" ">
<polygon fill="white" stroke="black" points="897,-224.5 897,-243.5 1007,-243.5 1007,-224.5 897,-224.5"/>
<text text-anchor="middle" x="952" y="-231.5" font-family="Helvetica,sans-Serif" font-size="10.00">CooperativeAStar.h</text>
</a>
</g>
</g>
<!-- Node7&#45;&gt;Node15 -->
<g id="edge15" class="edge">
<title>Node7&#45;&gt;Node15</title>
<path fill="none" stroke="midnightblue" d="M909.89,-273.54C920.41,-263.91 933.57,-251.87 942.35,-243.83"/>
<polygon fill="midnightblue" stroke="midnightblue" points="907.49,-270.99 902.48,-280.32 912.22,-276.15 907.49,-270.99"/>
</g>
<!-- Node9 -->
<g id="node9" class="node">
<title>Node9</title>
<g id="a_node9"><a xlink:href="ConflictBasedSearch_8h.html" target="_top" xlink:title=" ">
<polygon fill="white" stroke="black" points="726.5,-168.5 726.5,-187.5 851.5,-187.5 851.5,-168.5 726.5,-168.5"/>
<text text-anchor="middle" x="789" y="-175.5" font-family="Helvetica,sans-Serif" font-size="10.00">ConflictBasedSearch.h</text>
</a>
</g>
</g>
<!-- Node8&#45;&gt;Node9 -->
<g id="edge8" class="edge">
<title>Node8&#45;&gt;Node9</title>
<path fill="none" stroke="midnightblue" d="M819.95,-216.14C812.11,-206.74 802.67,-195.4 796.29,-187.75"/>
<polygon fill="midnightblue" stroke="midnightblue" points="817.48,-218.64 826.57,-224.08 822.86,-214.16 817.48,-218.64"/>
</g>
<!-- Node11 -->
<g id="node11" class="node">
<title>Node11</title>
<g id="a_node11"><a xlink:href="SimpleIndependenceDetection_8h.html" target="_top" xlink:title=" ">
<polygon fill="white" stroke="black" points="792.5,-112.5 792.5,-131.5 967.5,-131.5 967.5,-112.5 792.5,-112.5"/>
<text text-anchor="middle" x="880" y="-119.5" font-family="Helvetica,sans-Serif" font-size="10.00">SimpleIndependenceDetection.h</text>
</a>
</g>
</g>
<!-- Node8&#45;&gt;Node11 -->
<g id="edge14" class="edge">
<title>Node8&#45;&gt;Node11</title>
<path fill="none" stroke="midnightblue" d="M845.2,-215.74C850.18,-207.56 855.85,-197.51 860,-188 868.49,-168.52 874.93,-144.3 878,-131.63"/>
<polygon fill="midnightblue" stroke="midnightblue" points="842.15,-214.02 839.79,-224.34 848.08,-217.74 842.15,-214.02"/>
</g>
<!-- Node10 -->
<g id="node10" class="node">
<title>Node10</title>
<g id="a_node10"><a xlink:href="ConflictBasedSearch_8cpp.html" target="_top" xlink:title=" ">
<polygon fill="white" stroke="black" points="637.5,-112.5 637.5,-131.5 774.5,-131.5 774.5,-112.5 637.5,-112.5"/>
<text text-anchor="middle" x="706" y="-119.5" font-family="Helvetica,sans-Serif" font-size="10.00">ConflictBasedSearch.cpp</text>
</a>
</g>
</g>
<!-- Node9&#45;&gt;Node10 -->
<g id="edge9" class="edge">
<title>Node9&#45;&gt;Node10</title>
<path fill="none" stroke="midnightblue" d="M766.9,-162.62C751.74,-152.76 732.12,-139.99 719.3,-131.65"/>
<polygon fill="midnightblue" stroke="midnightblue" points="765.37,-165.8 775.66,-168.32 769.19,-159.94 765.37,-165.8"/>
</g>
<!-- Node9&#45;&gt;Node11 -->
<g id="edge10" class="edge">
<title>Node9&#45;&gt;Node11</title>
<path fill="none" stroke="midnightblue" d="M812.29,-163.18C829.04,-153.24 851.1,-140.15 865.42,-131.65"/>
<polygon fill="midnightblue" stroke="midnightblue" points="810.43,-160.21 803.62,-168.32 814.01,-166.23 810.43,-160.21"/>
</g>
<!-- Node12 -->
<g id="node12" class="node">
<title>Node12</title>
<g id="a_node12"><a xlink:href="IndependenceDetection_8h.html" target="_top" xlink:title=" ">
<polygon fill="white" stroke="black" points="718.5,-56.5 718.5,-75.5 859.5,-75.5 859.5,-56.5 718.5,-56.5"/>
<text text-anchor="middle" x="789" y="-63.5" font-family="Helvetica,sans-Serif" font-size="10.00">IndependenceDetection.h</text>
</a>
</g>
</g>
<!-- Node11&#45;&gt;Node12 -->
<g id="edge11" class="edge">
<title>Node11&#45;&gt;Node12</title>
<path fill="none" stroke="midnightblue" d="M856.71,-107.18C839.96,-97.24 817.9,-84.15 803.58,-75.65"/>
<polygon fill="midnightblue" stroke="midnightblue" points="854.99,-110.23 865.38,-112.32 858.57,-104.21 854.99,-110.23"/>
</g>
<!-- Node14 -->
<g id="node14" class="node">
<title>Node14</title>
<g id="a_node14"><a xlink:href="SimpleIndependenceDetection_8cpp.html" target="_top" xlink:title=" ">
<polygon fill="white" stroke="black" points="878,-56.5 878,-75.5 1064,-75.5 1064,-56.5 878,-56.5"/>
<text text-anchor="middle" x="971" y="-63.5" font-family="Helvetica,sans-Serif" font-size="10.00">SimpleIndependenceDetection.cpp</text>
</a>
</g>
</g>
<!-- Node11&#45;&gt;Node14 -->
<g id="edge13" class="edge">
<title>Node11&#45;&gt;Node14</title>
<path fill="none" stroke="midnightblue" d="M903.29,-107.18C920.04,-97.24 942.1,-84.15 956.42,-75.65"/>
<polygon fill="midnightblue" stroke="midnightblue" points="901.43,-104.21 894.62,-112.32 905.01,-110.23 901.43,-104.21"/>
</g>
<!-- Node13 -->
<g id="node13" class="node">
<title>Node13</title>
<g id="a_node13"><a xlink:href="IndependenceDetection_8cpp.html" target="_top" xlink:title=" ">
<polygon fill="white" stroke="black" points="713,-0.5 713,-19.5 865,-19.5 865,-0.5 713,-0.5"/>
<text text-anchor="middle" x="789" y="-7.5" font-family="Helvetica,sans-Serif" font-size="10.00">IndependenceDetection.cpp</text>
</a>
</g>
</g>
<!-- Node12&#45;&gt;Node13 -->
<g id="edge12" class="edge">
<title>Node12&#45;&gt;Node13</title>
<path fill="none" stroke="midnightblue" d="M789,-45.8C789,-36.91 789,-26.78 789,-19.75"/>
<polygon fill="midnightblue" stroke="midnightblue" points="785.5,-46.08 789,-56.08 792.5,-46.08 785.5,-46.08"/>
</g>
<!-- Node16&#45;&gt;Node6 -->
<g id="edge17" class="edge">
<title>Node16&#45;&gt;Node6</title>
<path fill="none" stroke="midnightblue" d="M989.84,-388.5C966.22,-378.38 933.57,-364.39 912.87,-355.52"/>
<polygon fill="midnightblue" stroke="midnightblue" points="988.46,-391.72 999.03,-392.44 991.22,-385.29 988.46,-391.72"/>
</g>
<!-- Node17 -->
<g id="node17" class="node">
<title>Node17</title>
<g id="a_node17"><a xlink:href="ReverseResumableAStar_8cpp.html" target="_top" xlink:title=" ">
<polygon fill="white" stroke="black" points="965.5,-336.5 965.5,-355.5 1122.5,-355.5 1122.5,-336.5 965.5,-336.5"/>
<text text-anchor="middle" x="1044" y="-343.5" font-family="Helvetica,sans-Serif" font-size="10.00">ReverseResumableAStar.cpp</text>
</a>
</g>
</g>
<!-- Node16&#45;&gt;Node17 -->
<g id="edge18" class="edge">
<title>Node16&#45;&gt;Node17</title>
<path fill="none" stroke="midnightblue" d="M1027.34,-382.98C1031.58,-373.82 1036.55,-363.09 1039.95,-355.75"/>
<polygon fill="midnightblue" stroke="midnightblue" points="1024.15,-381.54 1023.13,-392.08 1030.51,-384.48 1024.15,-381.54"/>
</g>
<!-- Node19 -->
<g id="node19" class="node">
<title>Node19</title>
<g id="a_node19"><a xlink:href="ODMultiAgentAStarProblemWithConstraints_8h.html" target="_top" xlink:title=" ">
<polygon fill="white" stroke="black" points="0,-515.5 0,-545.5 152,-545.5 152,-515.5 0,-515.5"/>
<text text-anchor="start" x="8" y="-533.5" font-family="Helvetica,sans-Serif" font-size="10.00">ODMultiAgentAStarProblem</text>
<text text-anchor="middle" x="76" y="-522.5" font-family="Helvetica,sans-Serif" font-size="10.00">WithConstraints.h</text>
</a>
</g>
</g>
<!-- Node18&#45;&gt;Node19 -->
<g id="edge20" class="edge">
<title>Node18&#45;&gt;Node19</title>
<path fill="none" stroke="midnightblue" d="M212.22,-584.2C183.75,-573.19 142.02,-557.04 112.26,-545.53"/>
<polygon fill="midnightblue" stroke="midnightblue" points="211.1,-587.52 221.69,-587.87 213.63,-581 211.1,-587.52"/>
</g>
<!-- Node21 -->
<g id="node21" class="node">
<title>Node21</title>
<g id="a_node21"><a xlink:href="ODMultiAgentSpaceTimeState_8cpp.html" target="_top" xlink:title=" ">
<polygon fill="white" stroke="black" points="170.5,-521 170.5,-540 355.5,-540 355.5,-521 170.5,-521"/>
<text text-anchor="middle" x="263" y="-528" font-family="Helvetica,sans-Serif" font-size="10.00">ODMultiAgentSpaceTimeState.cpp</text>
</a>
</g>
</g>
<!-- Node18&#45;&gt;Node21 -->
<g id="edge23" class="edge">
<title>Node18&#45;&gt;Node21</title>
<path fill="none" stroke="midnightblue" d="M249.43,-577.91C253.06,-565.49 257.68,-549.72 260.48,-540.13"/>
<polygon fill="midnightblue" stroke="midnightblue" points="246.01,-577.15 246.56,-587.73 252.73,-579.12 246.01,-577.15"/>
</g>
<!-- Node19&#45;&gt;Node5 -->
<g id="edge22" class="edge">
<title>Node19&#45;&gt;Node5</title>
<path fill="none" stroke="midnightblue" d="M162.56,-514.89C416.4,-485.05 707.2,-471.48 831.59,-466.66"/>
<polygon fill="midnightblue" stroke="midnightblue" points="161.92,-511.44 152.4,-516.1 162.75,-518.39 161.92,-511.44"/>
</g>
<!-- Node20 -->
<g id="node20" class="node">
<title>Node20</title>
<g id="a_node20"><a xlink:href="ODMultiAgentAStarProblemWithConstraints_8cpp.html" target="_top" xlink:title=" ">
<polygon fill="white" stroke="black" points="0,-448.5 0,-478.5 152,-478.5 152,-448.5 0,-448.5"/>
<text text-anchor="start" x="8" y="-466.5" font-family="Helvetica,sans-Serif" font-size="10.00">ODMultiAgentAStarProblem</text>
<text text-anchor="middle" x="76" y="-455.5" font-family="Helvetica,sans-Serif" font-size="10.00">WithConstraints.cpp</text>
</a>
</g>
</g>
<!-- Node19&#45;&gt;Node20 -->
<g id="edge21" class="edge">
<title>Node19&#45;&gt;Node20</title>
<path fill="none" stroke="midnightblue" d="M76,-505.11C76,-496.15 76,-486.32 76,-478.58"/>
<polygon fill="midnightblue" stroke="midnightblue" points="72.5,-505.4 76,-515.4 79.5,-505.4 72.5,-505.4"/>
</g>
<!-- Node24 -->
<g id="node24" class="node">
<title>Node24</title>
<g id="a_node24"><a xlink:href="SingleAgentAStarProblemWithConstraints_8h.html" target="_top" xlink:title=" ">
<polygon fill="white" stroke="black" points="870,-582.5 870,-612.5 1034,-612.5 1034,-582.5 870,-582.5"/>
<text text-anchor="start" x="878" y="-600.5" font-family="Helvetica,sans-Serif" font-size="10.00">SingleAgentAStarProblemWith</text>
<text text-anchor="middle" x="952" y="-589.5" font-family="Helvetica,sans-Serif" font-size="10.00">Constraints.h</text>
</a>
</g>
</g>
<!-- Node23&#45;&gt;Node24 -->
<g id="edge26" class="edge">
<title>Node23&#45;&gt;Node24</title>
<path fill="none" stroke="midnightblue" d="M919.67,-641.25C926.52,-632.19 934.89,-621.12 941.39,-612.52"/>
<polygon fill="midnightblue" stroke="midnightblue" points="916.69,-639.39 913.45,-649.48 922.27,-643.61 916.69,-639.39"/>
</g>
<!-- Node26 -->
<g id="node26" class="node">
<title>Node26</title>
<g id="a_node26"><a xlink:href="SingleAgentSpaceTimeState_8cpp.html" target="_top" xlink:title=" ">
<polygon fill="white" stroke="black" points="676.5,-588 676.5,-607 851.5,-607 851.5,-588 676.5,-588"/>
<text text-anchor="middle" x="764" y="-595" font-family="Helvetica,sans-Serif" font-size="10.00">SingleAgentSpaceTimeState.cpp</text>
</a>
</g>
</g>
<!-- Node23&#45;&gt;Node26 -->
<g id="edge29" class="edge">
<title>Node23&#45;&gt;Node26</title>
<path fill="none" stroke="midnightblue" d="M877.27,-645.63C849.49,-634.07 808.75,-617.12 784.45,-607.01"/>
<polygon fill="midnightblue" stroke="midnightblue" points="875.93,-648.86 886.51,-649.48 878.62,-642.4 875.93,-648.86"/>
</g>
<!-- Node24&#45;&gt;Node5 -->
<g id="edge28" class="edge">
<title>Node24&#45;&gt;Node5</title>
<path fill="none" stroke="midnightblue" d="M939.42,-573.15C935,-564.68 930.12,-554.99 926,-546 914.03,-519.92 901.85,-488.19 896.22,-473.17"/>
<polygon fill="midnightblue" stroke="midnightblue" points="936.37,-574.88 944.14,-582.09 942.56,-571.61 936.37,-574.88"/>
</g>
<!-- Node25 -->
<g id="node25" class="node">
<title>Node25</title>
<g id="a_node25"><a xlink:href="SingleAgentAStarProblemWithConstraints_8cpp.html" target="_top" xlink:title=" ">
<polygon fill="white" stroke="black" points="710,-515.5 710,-545.5 874,-545.5 874,-515.5 710,-515.5"/>
<text text-anchor="start" x="718" y="-533.5" font-family="Helvetica,sans-Serif" font-size="10.00">SingleAgentAStarProblemWith</text>
<text text-anchor="middle" x="792" y="-522.5" font-family="Helvetica,sans-Serif" font-size="10.00">Constraints.cpp</text>
</a>
</g>
</g>
<!-- Node24&#45;&gt;Node25 -->
<g id="edge27" class="edge">
<title>Node24&#45;&gt;Node25</title>
<path fill="none" stroke="midnightblue" d="M907.8,-578.54C882.2,-568.14 850.43,-555.24 826.65,-545.58"/>
<polygon fill="midnightblue" stroke="midnightblue" points="906.7,-581.87 917.28,-582.4 909.34,-575.39 906.7,-581.87"/>
</g>
<!-- Node28 -->
<g id="node28" class="node">
<title>Node28</title>
<g id="a_node28"><a xlink:href="SingleAgentAStarProblem_8h.html" target="_top" xlink:title=" ">
<polygon fill="white" stroke="black" points="968.5,-521 968.5,-540 1119.5,-540 1119.5,-521 968.5,-521"/>
<text text-anchor="middle" x="1044" y="-528" font-family="Helvetica,sans-Serif" font-size="10.00">SingleAgentAStarProblem.h</text>
</a>
</g>
</g>
<!-- Node27&#45;&gt;Node28 -->
<g id="edge31" class="edge">
<title>Node27&#45;&gt;Node28</title>
<path fill="none" stroke="midnightblue" d="M1059.34,-639.31C1055.39,-611.58 1048.14,-560.63 1045.25,-540.26"/>
<polygon fill="midnightblue" stroke="midnightblue" points="1055.89,-639.9 1060.76,-649.31 1062.82,-638.91 1055.89,-639.9"/>
</g>
<!-- Node28&#45;&gt;Node5 -->
<g id="edge33" class="edge">
<title>Node28&#45;&gt;Node5</title>
<path fill="none" stroke="midnightblue" d="M1014.45,-516.78C984.55,-503.91 939.12,-484.35 913.13,-473.17"/>
<polygon fill="midnightblue" stroke="midnightblue" points="1013.38,-520.13 1023.95,-520.87 1016.15,-513.7 1013.38,-520.13"/>
</g>
<!-- Node28&#45;&gt;Node16 -->
<g id="edge34" class="edge">
<title>Node28&#45;&gt;Node16</title>
<path fill="none" stroke="midnightblue" d="M1090.83,-517.5C1110.51,-509.89 1131.48,-497.81 1143,-479 1150.2,-467.25 1150.91,-459.28 1143,-448 1129.66,-428.97 1107.4,-417.95 1085.4,-411.59"/>
<polygon fill="midnightblue" stroke="midnightblue" points="1089.57,-514.23 1081.32,-520.88 1091.91,-520.83 1089.57,-514.23"/>
</g>
<!-- Node29 -->
<g id="node29" class="node">
<title>Node29</title>
<g id="a_node29"><a xlink:href="SingleAgentAStarProblem_8cpp.html" target="_top" xlink:title=" ">
<polygon fill="white" stroke="black" points="972,-454 972,-473 1134,-473 1134,-454 972,-454"/>
<text text-anchor="middle" x="1053" y="-461" font-family="Helvetica,sans-Serif" font-size="10.00">SingleAgentAStarProblem.cpp</text>
</a>
</g>
</g>
<!-- Node28&#45;&gt;Node29 -->
<g id="edge32" class="edge">
<title>Node28&#45;&gt;Node29</title>
<path fill="none" stroke="midnightblue" d="M1046.63,-510.54C1048.34,-498.17 1050.49,-482.62 1051.81,-473.13"/>
<polygon fill="midnightblue" stroke="midnightblue" points="1043.12,-510.35 1045.21,-520.73 1050.05,-511.31 1043.12,-510.35"/>
</g>
<!-- Node31 -->
<g id="node31" class="node">
<title>Node31</title>
<g id="a_node31"><a xlink:href="StandardMultiAgentAStarProblem_8h.html" target="_top" xlink:title=" ">
<polygon fill="white" stroke="black" points="1143.5,-588 1143.5,-607 1332.5,-607 1332.5,-588 1143.5,-588"/>
<text text-anchor="middle" x="1238" y="-595" font-family="Helvetica,sans-Serif" font-size="10.00">StandardMultiAgentAStarProblem.h</text>
</a>
</g>
</g>
<!-- Node30&#45;&gt;Node31 -->
<g id="edge36" class="edge">
<title>Node30&#45;&gt;Node31</title>
<path fill="none" stroke="midnightblue" d="M1314.11,-644.24C1294.99,-632.75 1268.32,-616.72 1252.16,-607.01"/>
<polygon fill="midnightblue" stroke="midnightblue" points="1312.44,-647.32 1322.82,-649.48 1316.05,-641.32 1312.44,-647.32"/>
</g>
<!-- Node33 -->
<g id="node33" class="node">
<title>Node33</title>
<g id="a_node33"><a xlink:href="StandardMultiAgentSpaceTimeState_8h.html" target="_top" xlink:title=" ">
<polygon fill="white" stroke="black" points="1353.5,-582.5 1353.5,-612.5 1520.5,-612.5 1520.5,-582.5 1353.5,-582.5"/>
<text text-anchor="start" x="1361.5" y="-600.5" font-family="Helvetica,sans-Serif" font-size="10.00">StandardMultiAgentSpaceTime</text>
<text text-anchor="middle" x="1437" y="-589.5" font-family="Helvetica,sans-Serif" font-size="10.00">State.h</text>
</a>
</g>
</g>
<!-- Node30&#45;&gt;Node33 -->
<g id="edge39" class="edge">
<title>Node30&#45;&gt;Node33</title>
<path fill="none" stroke="midnightblue" d="M1360.07,-644.28C1376.07,-634.75 1397.32,-622.11 1413.43,-612.52"/>
<polygon fill="midnightblue" stroke="midnightblue" points="1358.13,-641.35 1351.33,-649.48 1361.71,-647.37 1358.13,-641.35"/>
</g>
<!-- Node37 -->
<g id="node37" class="node">
<title>Node37</title>
<g id="a_node37"><a xlink:href="StandardMultiAgentState_8cpp.html" target="_top" xlink:title=" ">
<polygon fill="white" stroke="black" points="1538.5,-588 1538.5,-607 1697.5,-607 1697.5,-588 1538.5,-588"/>
<text text-anchor="middle" x="1618" y="-595" font-family="Helvetica,sans-Serif" font-size="10.00">StandardMultiAgentState.cpp</text>
</a>
</g>
</g>
<!-- Node30&#45;&gt;Node37 -->
<g id="edge44" class="edge">
<title>Node30&#45;&gt;Node37</title>
<path fill="none" stroke="midnightblue" d="M1387.05,-647.4C1441.53,-635.87 1527.56,-617.65 1577.81,-607.01"/>
<polygon fill="midnightblue" stroke="midnightblue" points="1386.32,-643.98 1377.26,-649.48 1387.77,-650.83 1386.32,-643.98"/>
</g>
<!-- Node31&#45;&gt;Node5 -->
<g id="edge38" class="edge">
<title>Node31&#45;&gt;Node5</title>
<path fill="none" stroke="midnightblue" d="M1145.62,-586.78C1076.96,-578.26 990.04,-564.38 959,-546 943.33,-536.72 911.86,-492.2 898.84,-473.16"/>
<polygon fill="midnightblue" stroke="midnightblue" points="1145.26,-590.26 1155.61,-587.99 1146.11,-583.31 1145.26,-590.26"/>
</g>
<!-- Node32 -->
<g id="node32" class="node">
<title>Node32</title>
<g id="a_node32"><a xlink:href="StandardMultiAgentAStarProblem_8cpp.html" target="_top" xlink:title=" ">
<polygon fill="white" stroke="black" points="1138,-521 1138,-540 1338,-540 1338,-521 1138,-521"/>
<text text-anchor="middle" x="1238" y="-528" font-family="Helvetica,sans-Serif" font-size="10.00">StandardMultiAgentAStarProblem.cpp</text>
</a>
</g>
</g>
<!-- Node31&#45;&gt;Node32 -->
<g id="edge37" class="edge">
<title>Node31&#45;&gt;Node32</title>
<path fill="none" stroke="midnightblue" d="M1238,-577.54C1238,-565.17 1238,-549.62 1238,-540.13"/>
<polygon fill="midnightblue" stroke="midnightblue" points="1234.5,-577.73 1238,-587.73 1241.5,-577.73 1234.5,-577.73"/>
</g>
<!-- Node34 -->
<g id="node34" class="node">
<title>Node34</title>
<g id="a_node34"><a xlink:href="StandardMultiAgentAStarProblemWithConstraints_8h.html" target="_top" xlink:title=" ">
<polygon fill="white" stroke="black" points="1542,-515.5 1542,-545.5 1722,-545.5 1722,-515.5 1542,-515.5"/>
<text text-anchor="start" x="1550" y="-533.5" font-family="Helvetica,sans-Serif" font-size="10.00">StandardMultiAgentAStarProblem</text>
<text text-anchor="middle" x="1632" y="-522.5" font-family="Helvetica,sans-Serif" font-size="10.00">WithConstraints.h</text>
</a>
</g>
</g>
<!-- Node33&#45;&gt;Node34 -->
<g id="edge40" class="edge">
<title>Node33&#45;&gt;Node34</title>
<path fill="none" stroke="midnightblue" d="M1488.82,-579.23C1520.36,-568.71 1560.15,-555.45 1589.77,-545.58"/>
<polygon fill="midnightblue" stroke="midnightblue" points="1487.69,-575.91 1479.31,-582.4 1489.91,-582.55 1487.69,-575.91"/>
</g>
<!-- Node36 -->
<g id="node36" class="node">
<title>Node36</title>
<g id="a_node36"><a xlink:href="StandardMultiAgentSpaceTimeState_8cpp.html" target="_top" xlink:title=" ">
<polygon fill="white" stroke="black" points="1356.5,-515.5 1356.5,-545.5 1523.5,-545.5 1523.5,-515.5 1356.5,-515.5"/>
<text text-anchor="start" x="1364.5" y="-533.5" font-family="Helvetica,sans-Serif" font-size="10.00">StandardMultiAgentSpaceTime</text>
<text text-anchor="middle" x="1440" y="-522.5" font-family="Helvetica,sans-Serif" font-size="10.00">State.cpp</text>
</a>
</g>
</g>
<!-- Node33&#45;&gt;Node36 -->
<g id="edge43" class="edge">
<title>Node33&#45;&gt;Node36</title>
<path fill="none" stroke="midnightblue" d="M1438.11,-572.4C1438.53,-563.37 1438.99,-553.41 1439.35,-545.58"/>
<polygon fill="midnightblue" stroke="midnightblue" points="1434.62,-572.25 1437.65,-582.4 1441.61,-572.57 1434.62,-572.25"/>
</g>
<!-- Node34&#45;&gt;Node5 -->
<g id="edge42" class="edge">
<title>Node34&#45;&gt;Node5</title>
<path fill="none" stroke="midnightblue" d="M1531.69,-514.93C1278.77,-489.21 1211.26,-512.38 963,-479 951.93,-477.51 939.99,-475.28 929.16,-473.01"/>
<polygon fill="midnightblue" stroke="midnightblue" points="1531.62,-518.44 1541.93,-515.99 1532.34,-511.48 1531.62,-518.44"/>
</g>
<!-- Node35 -->
<g id="node35" class="node">
<title>Node35</title>
<g id="a_node35"><a xlink:href="StandardMultiAgentAStarProblemWithConstraints_8cpp.html" target="_top" xlink:title=" ">
<polygon fill="white" stroke="black" points="1542,-448.5 1542,-478.5 1722,-478.5 1722,-448.5 1542,-448.5"/>
<text text-anchor="start" x="1550" y="-466.5" font-family="Helvetica,sans-Serif" font-size="10.00">StandardMultiAgentAStarProblem</text>
<text text-anchor="middle" x="1632" y="-455.5" font-family="Helvetica,sans-Serif" font-size="10.00">WithConstraints.cpp</text>
</a>
</g>
</g>
<!-- Node34&#45;&gt;Node35 -->
<g id="edge41" class="edge">
<title>Node34&#45;&gt;Node35</title>
<path fill="none" stroke="midnightblue" d="M1632,-505.11C1632,-496.15 1632,-486.32 1632,-478.58"/>
<polygon fill="midnightblue" stroke="midnightblue" points="1628.5,-505.4 1632,-515.4 1635.5,-505.4 1628.5,-505.4"/>
</g>
</g>
</svg>
        <g id="navigator" transform="translate(0 0)" fill="#404254">
                <rect fill="#f2f5e9" fill-opacity="0.5" stroke="#606060" stroke-width=".5" x="0" y="0" width="60" height="60"/>
                <use id="zoomplus" xlink:href="#zoomPlus" x="17" y="9" onmousedown="handleZoom(evt,'in')"/>
                <use id="zoomminus" xlink:href="#zoomMin" x="42" y="9" onmousedown="handleZoom(evt,'out')"/>
                <use id="reset" xlink:href="#resetDef" x="30" y="36" onmousedown="handleReset()"/>
                <g id="arrowUp" xlink:href="#dirArrow" transform="translate(30 24)" onmousedown="handlePan(0,-1)">
                  <use xlink:href="#rim" fill="#404040">
                        <set attributeName="fill" to="#808080" begin="arrowUp.mouseover" end="arrowUp.mouseout"/>
                  </use>
                  <path fill="none" stroke="white" stroke-width="1.5" d="M0,-3.0v7 M-2.5,-0.5L0,-3.0L2.5,-0.5"/>
                </g>
                <g id="arrowRight" xlink:href="#dirArrow" transform="rotate(90) translate(36 -43)" onmousedown="handlePan(1,0)">
                  <use xlink:href="#rim" fill="#404040">
                        <set attributeName="fill" to="#808080" begin="arrowRight.mouseover" end="arrowRight.mouseout"/>
                  </use>
                  <path fill="none" stroke="white" stroke-width="1.5" d="M0,-3.0v7 M-2.5,-0.5L0,-3.0L2.5,-0.5"/>
                </g>
                <g id="arrowDown" xlink:href="#dirArrow" transform="rotate(180) translate(-30 -48)" onmousedown="handlePan(0,1)">
                  <use xlink:href="#rim" fill="#404040">
                        <set attributeName="fill" to="#808080" begin="arrowDown.mouseover" end="arrowDown.mouseout"/>
                  </use>
                  <path fill="none" stroke="white" stroke-width="1.5" d="M0,-3.0v7 M-2.5,-0.5L0,-3.0L2.5,-0.5"/>
                </g>
                <g id="arrowLeft" xlink:href="#dirArrow" transform="rotate(270) translate(-36 17)" onmousedown="handlePan(-1,0)">
                  <use xlink:href="#rim" fill="#404040">
                        <set attributeName="fill" to="#808080" begin="arrowLeft.mouseover" end="arrowLeft.mouseout"/>
                  </use>
                  <path fill="none" stroke="white" stroke-width="1.5" d="M0,-3.0v7 M-2.5,-0.5L0,-3.0L2.5,-0.5"/>
                </g>
        </g>
        <svg viewBox="0 0 15 15" width="100%" height="30px" preserveAspectRatio="xMaxYMin meet">
         <g id="arrow_out" transform="scale(0.3 0.3)">
          <a xlink:href="State_8h__dep__incl_org.svg" target="_base">
           <rect id="button" ry="5" rx="5" y="6" x="6" height="38" width="38"
                fill="#f2f5e9" fill-opacity="0.5" stroke="#606060" stroke-width="1.0"/>
           <path id="arrow"
             d="M 11.500037,31.436501 C 11.940474,20.09759 22.043105,11.32322 32.158766,21.979434 L 37.068811,17.246167 C 37.068811,17.246167 37.088388,32 37.088388,32 L 22.160133,31.978069 C 22.160133,31.978069 26.997745,27.140456 26.997745,27.140456 C 18.528582,18.264221 13.291696,25.230495 11.500037,31.436501 z"
             style="fill:#404040;"/>
          </a>
         </g>
        </svg>
</svg>
