<?xml version="1.0" encoding="UTF-8" standalone="no"?>
<!DOCTYPE svg PUBLIC "-//W3C//DTD SVG 1.1//EN"
 "http://www.w3.org/Graphics/SVG/1.1/DTD/svg11.dtd">
<!-- Generated by graphviz version 2.43.0 (0)
 -->
<!-- Title: State.h Pages: 1 -->
<svg width="1632pt" height="733pt"
 viewBox="0.00 0.00 1631.50 733.00" xmlns="http://www.w3.org/2000/svg" xmlns:xlink="http://www.w3.org/1999/xlink">
<g id="graph0" class="graph" transform="scale(1 1) rotate(0) translate(4 729)">
<title>State.h</title>
<polygon fill="white" stroke="transparent" points="-4,4 -4,-729 1627.5,-729 1627.5,4 -4,4"/>
<!-- Node1 -->
<g id="node1" class="node">
<title>Node1</title>
<g id="a_node1"><a xlink:title=" ">
<polygon fill="#bfbfbf" stroke="black" points="647,-705.5 647,-724.5 698,-724.5 698,-705.5 647,-705.5"/>
<text text-anchor="middle" x="672.5" y="-712.5" font-family="Helvetica,sans-Serif" font-size="10.00">State.h</text>
</a>
</g>
</g>
<!-- Node2 -->
<g id="node2" class="node">
<title>Node2</title>
<g id="a_node2"><a xlink:href="ODMultiAgentState_8h.html" target="_top" xlink:title=" ">
<polygon fill="white" stroke="black" points="438,-649.5 438,-668.5 557,-668.5 557,-649.5 438,-649.5"/>
<text text-anchor="middle" x="497.5" y="-656.5" font-family="Helvetica,sans-Serif" font-size="10.00">ODMultiAgentState.h</text>
</a>
</g>
</g>
<!-- Node1&#45;&gt;Node2 -->
<g id="edge1" class="edge">
<title>Node1&#45;&gt;Node2</title>
<path fill="none" stroke="midnightblue" d="M636.96,-703.03C603.93,-692.84 555.4,-677.87 525.16,-668.54"/>
<polygon fill="midnightblue" stroke="midnightblue" points="636.09,-706.43 646.68,-706.03 638.15,-699.74 636.09,-706.43"/>
</g>
<!-- Node23 -->
<g id="node23" class="node">
<title>Node23</title>
<g id="a_node23"><a xlink:href="SingleAgentState_8h.html" target="_top" xlink:title=" ">
<polygon fill="white" stroke="black" points="233.5,-649.5 233.5,-668.5 343.5,-668.5 343.5,-649.5 233.5,-649.5"/>
<text text-anchor="middle" x="288.5" y="-656.5" font-family="Helvetica,sans-Serif" font-size="10.00">SingleAgentState.h</text>
</a>
</g>
</g>
<!-- Node1&#45;&gt;Node23 -->
<g id="edge25" class="edge">
<title>Node1&#45;&gt;Node23</title>
<path fill="none" stroke="midnightblue" d="M636.59,-708.95C569.21,-699.47 423.43,-678.98 343.57,-667.74"/>
<polygon fill="midnightblue" stroke="midnightblue" points="636.32,-712.45 646.71,-710.37 637.29,-705.51 636.32,-712.45"/>
</g>
<!-- Node26 -->
<g id="node26" class="node">
<title>Node26</title>
<g id="a_node26"><a xlink:href="SingleAgentSpaceTimeState_8h.html" target="_top" xlink:title=" ">
<polygon fill="white" stroke="black" points="683.5,-649.5 683.5,-668.5 847.5,-668.5 847.5,-649.5 683.5,-649.5"/>
<text text-anchor="middle" x="765.5" y="-656.5" font-family="Helvetica,sans-Serif" font-size="10.00">SingleAgentSpaceTimeState.h</text>
</a>
</g>
</g>
<!-- Node1&#45;&gt;Node26 -->
<g id="edge30" class="edge">
<title>Node1&#45;&gt;Node26</title>
<path fill="none" stroke="midnightblue" d="M696.31,-700.18C713.42,-690.24 735.97,-677.15 750.6,-668.65"/>
<polygon fill="midnightblue" stroke="midnightblue" points="694.33,-697.28 687.44,-705.32 697.85,-703.33 694.33,-697.28"/>
</g>
<!-- Node30 -->
<g id="node30" class="node">
<title>Node30</title>
<g id="a_node30"><a xlink:href="StandardMultiAgentState_8h.html" target="_top" xlink:title=" ">
<polygon fill="white" stroke="black" points="1172.5,-649.5 1172.5,-668.5 1320.5,-668.5 1320.5,-649.5 1172.5,-649.5"/>
<text text-anchor="middle" x="1246.5" y="-656.5" font-family="Helvetica,sans-Serif" font-size="10.00">StandardMultiAgentState.h</text>
</a>
</g>
</g>
<!-- Node1&#45;&gt;Node30 -->
<g id="edge35" class="edge">
<title>Node1&#45;&gt;Node30</title>
<path fill="none" stroke="midnightblue" d="M708.5,-710.61C800.85,-701.93 1047.6,-678.71 1172.25,-666.99"/>
<polygon fill="midnightblue" stroke="midnightblue" points="707.91,-707.15 698.28,-711.57 708.56,-714.12 707.91,-707.15"/>
</g>
<!-- Node3 -->
<g id="node3" class="node">
<title>Node3</title>
<g id="a_node3"><a xlink:href="ODMultiAgentAStarProblem_8h.html" target="_top" xlink:title=" ">
<polygon fill="white" stroke="black" points="499,-588 499,-607 660,-607 660,-588 499,-588"/>
<text text-anchor="middle" x="579.5" y="-595" font-family="Helvetica,sans-Serif" font-size="10.00">ODMultiAgentAStarProblem.h</text>
</a>
</g>
</g>
<!-- Node2&#45;&gt;Node3 -->
<g id="edge2" class="edge">
<title>Node2&#45;&gt;Node3</title>
<path fill="none" stroke="midnightblue" d="M517.77,-643.29C533.5,-631.88 554.75,-616.46 567.77,-607.01"/>
<polygon fill="midnightblue" stroke="midnightblue" points="515.29,-640.77 509.25,-649.48 519.4,-646.43 515.29,-640.77"/>
</g>
<!-- Node18 -->
<g id="node18" class="node">
<title>Node18</title>
<g id="a_node18"><a xlink:href="ODMultiAgentSpaceTimeState_8h.html" target="_top" xlink:title=" ">
<polygon fill="white" stroke="black" points="159,-588 159,-607 332,-607 332,-588 159,-588"/>
<text text-anchor="middle" x="245.5" y="-595" font-family="Helvetica,sans-Serif" font-size="10.00">ODMultiAgentSpaceTimeState.h</text>
</a>
</g>
</g>
<!-- Node2&#45;&gt;Node18 -->
<g id="edge19" class="edge">
<title>Node2&#45;&gt;Node18</title>
<path fill="none" stroke="midnightblue" d="M451.39,-647.11C402.48,-635.57 326.23,-617.56 281.54,-607.01"/>
<polygon fill="midnightblue" stroke="midnightblue" points="450.86,-650.58 461.39,-649.48 452.47,-643.77 450.86,-650.58"/>
</g>
<!-- Node22 -->
<g id="node22" class="node">
<title>Node22</title>
<g id="a_node22"><a xlink:href="ODMultiAgentState_8cpp.html" target="_top" xlink:title=" ">
<polygon fill="white" stroke="black" points="350,-588 350,-607 481,-607 481,-588 350,-588"/>
<text text-anchor="middle" x="415.5" y="-595" font-family="Helvetica,sans-Serif" font-size="10.00">ODMultiAgentState.cpp</text>
</a>
</g>
</g>
<!-- Node2&#45;&gt;Node22 -->
<g id="edge24" class="edge">
<title>Node2&#45;&gt;Node22</title>
<path fill="none" stroke="midnightblue" d="M477.23,-643.29C461.5,-631.88 440.25,-616.46 427.23,-607.01"/>
<polygon fill="midnightblue" stroke="midnightblue" points="475.6,-646.43 485.75,-649.48 479.71,-640.77 475.6,-646.43"/>
</g>
<!-- Node4 -->
<g id="node4" class="node">
<title>Node4</title>
<g id="a_node4"><a xlink:href="ODMultiAgentAStarProblem_8cpp.html" target="_top" xlink:title=" ">
<polygon fill="white" stroke="black" points="543.5,-521 543.5,-540 715.5,-540 715.5,-521 543.5,-521"/>
<text text-anchor="middle" x="629.5" y="-528" font-family="Helvetica,sans-Serif" font-size="10.00">ODMultiAgentAStarProblem.cpp</text>
</a>
</g>
</g>
<!-- Node3&#45;&gt;Node4 -->
<g id="edge3" class="edge">
<title>Node3&#45;&gt;Node4</title>
<path fill="none" stroke="midnightblue" d="M592.37,-579.77C602.12,-567.1 615.11,-550.2 622.86,-540.13"/>
<polygon fill="midnightblue" stroke="midnightblue" points="589.57,-577.67 586.24,-587.73 595.11,-581.94 589.57,-577.67"/>
</g>
<!-- Node5 -->
<g id="node5" class="node">
<title>Node5</title>
<g id="a_node5"><a xlink:href="HeuristicManhattan_8h.html" target="_top" xlink:title=" ">
<polygon fill="white" stroke="black" points="682.5,-454 682.5,-473 804.5,-473 804.5,-454 682.5,-454"/>
<text text-anchor="middle" x="743.5" y="-461" font-family="Helvetica,sans-Serif" font-size="10.00">HeuristicManhattan.h</text>
</a>
</g>
</g>
<!-- Node3&#45;&gt;Node5 -->
<g id="edge4" class="edge">
<title>Node3&#45;&gt;Node5</title>
<path fill="none" stroke="midnightblue" d="M655.07,-585.32C680.32,-578.02 706.56,-565.95 724.5,-546 743.15,-525.26 744.51,-489.78 744.03,-473.35"/>
<polygon fill="midnightblue" stroke="midnightblue" points="653.85,-582.02 645.09,-587.98 655.66,-588.79 653.85,-582.02"/>
</g>
<!-- Node6 -->
<g id="node6" class="node">
<title>Node6</title>
<g id="a_node6"><a xlink:href="HeuristicOptimal_8h.html" target="_top" xlink:title=" ">
<polygon fill="white" stroke="black" points="689.5,-336.5 689.5,-355.5 797.5,-355.5 797.5,-336.5 689.5,-336.5"/>
<text text-anchor="middle" x="743.5" y="-343.5" font-family="Helvetica,sans-Serif" font-size="10.00">HeuristicOptimal.h</text>
</a>
</g>
</g>
<!-- Node5&#45;&gt;Node6 -->
<g id="edge5" class="edge">
<title>Node5&#45;&gt;Node6</title>
<path fill="none" stroke="midnightblue" d="M743.5,-443.66C743.5,-418.37 743.5,-374.44 743.5,-355.78"/>
<polygon fill="midnightblue" stroke="midnightblue" points="740,-443.82 743.5,-453.82 747,-443.82 740,-443.82"/>
</g>
<!-- Node16 -->
<g id="node16" class="node">
<title>Node16</title>
<g id="a_node16"><a xlink:href="ReverseResumableAStar_8h.html" target="_top" xlink:title=" ">
<polygon fill="white" stroke="black" points="544.5,-392.5 544.5,-411.5 690.5,-411.5 690.5,-392.5 544.5,-392.5"/>
<text text-anchor="middle" x="617.5" y="-399.5" font-family="Helvetica,sans-Serif" font-size="10.00">ReverseResumableAStar.h</text>
</a>
</g>
</g>
<!-- Node5&#45;&gt;Node16 -->
<g id="edge16" class="edge">
<title>Node5&#45;&gt;Node16</title>
<path fill="none" stroke="midnightblue" d="M716.34,-449.67C691.89,-438.13 656.65,-421.49 635.52,-411.51"/>
<polygon fill="midnightblue" stroke="midnightblue" points="714.91,-452.87 725.45,-453.98 717.9,-446.54 714.91,-452.87"/>
</g>
<!-- Node7 -->
<g id="node7" class="node">
<title>Node7</title>
<g id="a_node7"><a xlink:href="AStar_8h.html" target="_top" xlink:title=" ">
<polygon fill="white" stroke="black" points="718,-280.5 718,-299.5 769,-299.5 769,-280.5 718,-280.5"/>
<text text-anchor="middle" x="743.5" y="-287.5" font-family="Helvetica,sans-Serif" font-size="10.00">AStar.h</text>
</a>
</g>
</g>
<!-- Node6&#45;&gt;Node7 -->
<g id="edge6" class="edge">
<title>Node6&#45;&gt;Node7</title>
<path fill="none" stroke="midnightblue" d="M743.5,-325.8C743.5,-316.91 743.5,-306.78 743.5,-299.75"/>
<polygon fill="midnightblue" stroke="midnightblue" points="740,-326.08 743.5,-336.08 747,-326.08 740,-326.08"/>
</g>
<!-- Node8 -->
<g id="node8" class="node">
<title>Node8</title>
<g id="a_node8"><a xlink:href="GeneralAStar_8h.html" target="_top" xlink:title=" ">
<polygon fill="white" stroke="black" points="640,-224.5 640,-243.5 729,-243.5 729,-224.5 640,-224.5"/>
<text text-anchor="middle" x="684.5" y="-231.5" font-family="Helvetica,sans-Serif" font-size="10.00">GeneralAStar.h</text>
</a>
</g>
</g>
<!-- Node7&#45;&gt;Node8 -->
<g id="edge7" class="edge">
<title>Node7&#45;&gt;Node8</title>
<path fill="none" stroke="midnightblue" d="M726.61,-273.54C716.09,-263.91 702.93,-251.87 694.15,-243.83"/>
<polygon fill="midnightblue" stroke="midnightblue" points="724.28,-276.15 734.02,-280.32 729.01,-270.99 724.28,-276.15"/>
</g>
<!-- Node15 -->
<g id="node15" class="node">
<title>Node15</title>
<g id="a_node15"><a xlink:href="CooperativeAStar_8h.html" target="_top" xlink:title=" ">
<polygon fill="white" stroke="black" points="747.5,-224.5 747.5,-243.5 857.5,-243.5 857.5,-224.5 747.5,-224.5"/>
<text text-anchor="middle" x="802.5" y="-231.5" font-family="Helvetica,sans-Serif" font-size="10.00">CooperativeAStar.h</text>
</a>
</g>
</g>
<!-- Node7&#45;&gt;Node15 -->
<g id="edge15" class="edge">
<title>Node7&#45;&gt;Node15</title>
<path fill="none" stroke="midnightblue" d="M760.39,-273.54C770.91,-263.91 784.07,-251.87 792.85,-243.83"/>
<polygon fill="midnightblue" stroke="midnightblue" points="757.99,-270.99 752.98,-280.32 762.72,-276.15 757.99,-270.99"/>
</g>
<!-- Node9 -->
<g id="node9" class="node">
<title>Node9</title>
<g id="a_node9"><a xlink:href="ConflictBasedSearch_8h.html" target="_top" xlink:title=" ">
<polygon fill="white" stroke="black" points="577,-168.5 577,-187.5 702,-187.5 702,-168.5 577,-168.5"/>
<text text-anchor="middle" x="639.5" y="-175.5" font-family="Helvetica,sans-Serif" font-size="10.00">ConflictBasedSearch.h</text>
</a>
</g>
</g>
<!-- Node8&#45;&gt;Node9 -->
<g id="edge8" class="edge">
<title>Node8&#45;&gt;Node9</title>
<path fill="none" stroke="midnightblue" d="M670.45,-216.14C662.61,-206.74 653.17,-195.4 646.79,-187.75"/>
<polygon fill="midnightblue" stroke="midnightblue" points="667.98,-218.64 677.07,-224.08 673.36,-214.16 667.98,-218.64"/>
</g>
<!-- Node11 -->
<g id="node11" class="node">
<title>Node11</title>
<g id="a_node11"><a xlink:href="SimpleIndependenceDetection_8h.html" target="_top" xlink:title=" ">
<polygon fill="white" stroke="black" points="643,-112.5 643,-131.5 818,-131.5 818,-112.5 643,-112.5"/>
<text text-anchor="middle" x="730.5" y="-119.5" font-family="Helvetica,sans-Serif" font-size="10.00">SimpleIndependenceDetection.h</text>
</a>
</g>
</g>
<!-- Node8&#45;&gt;Node11 -->
<g id="edge14" class="edge">
<title>Node8&#45;&gt;Node11</title>
<path fill="none" stroke="midnightblue" d="M695.7,-215.74C700.68,-207.56 706.35,-197.51 710.5,-188 718.99,-168.52 725.43,-144.3 728.5,-131.63"/>
<polygon fill="midnightblue" stroke="midnightblue" points="692.65,-214.02 690.29,-224.34 698.58,-217.74 692.65,-214.02"/>
</g>
<!-- Node10 -->
<g id="node10" class="node">
<title>Node10</title>
<g id="a_node10"><a xlink:href="ConflictBasedSearch_8cpp.html" target="_top" xlink:title=" ">
<polygon fill="white" stroke="black" points="488,-112.5 488,-131.5 625,-131.5 625,-112.5 488,-112.5"/>
<text text-anchor="middle" x="556.5" y="-119.5" font-family="Helvetica,sans-Serif" font-size="10.00">ConflictBasedSearch.cpp</text>
</a>
</g>
</g>
<!-- Node9&#45;&gt;Node10 -->
<g id="edge9" class="edge">
<title>Node9&#45;&gt;Node10</title>
<path fill="none" stroke="midnightblue" d="M617.4,-162.62C602.24,-152.76 582.62,-139.99 569.8,-131.65"/>
<polygon fill="midnightblue" stroke="midnightblue" points="615.87,-165.8 626.16,-168.32 619.69,-159.94 615.87,-165.8"/>
</g>
<!-- Node9&#45;&gt;Node11 -->
<g id="edge10" class="edge">
<title>Node9&#45;&gt;Node11</title>
<path fill="none" stroke="midnightblue" d="M662.79,-163.18C679.54,-153.24 701.6,-140.15 715.92,-131.65"/>
<polygon fill="midnightblue" stroke="midnightblue" points="660.93,-160.21 654.12,-168.32 664.51,-166.23 660.93,-160.21"/>
</g>
<!-- Node12 -->
<g id="node12" class="node">
<title>Node12</title>
<g id="a_node12"><a xlink:href="IndependenceDetection_8h.html" target="_top" xlink:title=" ">
<polygon fill="white" stroke="black" points="569,-56.5 569,-75.5 710,-75.5 710,-56.5 569,-56.5"/>
<text text-anchor="middle" x="639.5" y="-63.5" font-family="Helvetica,sans-Serif" font-size="10.00">IndependenceDetection.h</text>
</a>
</g>
</g>
<!-- Node11&#45;&gt;Node12 -->
<g id="edge11" class="edge">
<title>Node11&#45;&gt;Node12</title>
<path fill="none" stroke="midnightblue" d="M707.21,-107.18C690.46,-97.24 668.4,-84.15 654.08,-75.65"/>
<polygon fill="midnightblue" stroke="midnightblue" points="705.49,-110.23 715.88,-112.32 709.07,-104.21 705.49,-110.23"/>
</g>
<!-- Node14 -->
<g id="node14" class="node">
<title>Node14</title>
<g id="a_node14"><a xlink:href="SimpleIndependenceDetection_8cpp.html" target="_top" xlink:title=" ">
<polygon fill="white" stroke="black" points="728.5,-56.5 728.5,-75.5 914.5,-75.5 914.5,-56.5 728.5,-56.5"/>
<text text-anchor="middle" x="821.5" y="-63.5" font-family="Helvetica,sans-Serif" font-size="10.00">SimpleIndependenceDetection.cpp</text>
</a>
</g>
</g>
<!-- Node11&#45;&gt;Node14 -->
<g id="edge13" class="edge">
<title>Node11&#45;&gt;Node14</title>
<path fill="none" stroke="midnightblue" d="M753.79,-107.18C770.54,-97.24 792.6,-84.15 806.92,-75.65"/>
<polygon fill="midnightblue" stroke="midnightblue" points="751.93,-104.21 745.12,-112.32 755.51,-110.23 751.93,-104.21"/>
</g>
<!-- Node13 -->
<g id="node13" class="node">
<title>Node13</title>
<g id="a_node13"><a xlink:href="IndependenceDetection_8cpp.html" target="_top" xlink:title=" ">
<polygon fill="white" stroke="black" points="563.5,-0.5 563.5,-19.5 715.5,-19.5 715.5,-0.5 563.5,-0.5"/>
<text text-anchor="middle" x="639.5" y="-7.5" font-family="Helvetica,sans-Serif" font-size="10.00">IndependenceDetection.cpp</text>
</a>
</g>
</g>
<!-- Node12&#45;&gt;Node13 -->
<g id="edge12" class="edge">
<title>Node12&#45;&gt;Node13</title>
<path fill="none" stroke="midnightblue" d="M639.5,-45.8C639.5,-36.91 639.5,-26.78 639.5,-19.75"/>
<polygon fill="midnightblue" stroke="midnightblue" points="636,-46.08 639.5,-56.08 643,-46.08 636,-46.08"/>
</g>
<!-- Node16&#45;&gt;Node6 -->
<g id="edge17" class="edge">
<title>Node16&#45;&gt;Node6</title>
<path fill="none" stroke="midnightblue" d="M646.66,-388.5C670.28,-378.38 702.93,-364.39 723.63,-355.52"/>
<polygon fill="midnightblue" stroke="midnightblue" points="645.28,-385.29 637.47,-392.44 648.04,-391.72 645.28,-385.29"/>
</g>
<!-- Node17 -->
<g id="node17" class="node">
<title>Node17</title>
<g id="a_node17"><a xlink:href="ReverseResumableAStar_8cpp.html" target="_top" xlink:title=" ">
<polygon fill="white" stroke="black" points="514,-336.5 514,-355.5 671,-355.5 671,-336.5 514,-336.5"/>
<text text-anchor="middle" x="592.5" y="-343.5" font-family="Helvetica,sans-Serif" font-size="10.00">ReverseResumableAStar.cpp</text>
</a>
</g>
</g>
<!-- Node16&#45;&gt;Node17 -->
<g id="edge18" class="edge">
<title>Node16&#45;&gt;Node17</title>
<path fill="none" stroke="midnightblue" d="M609.16,-382.98C604.92,-373.82 599.95,-363.09 596.55,-355.75"/>
<polygon fill="midnightblue" stroke="midnightblue" points="605.99,-384.48 613.37,-392.08 612.35,-381.54 605.99,-384.48"/>
</g>
<!-- Node19 -->
<g id="node19" class="node">
<title>Node19</title>
<g id="a_node19"><a xlink:href="ODMultiAgentAStarProblemWithConstraints_8h.html" target="_top" xlink:title=" ">
<polygon fill="white" stroke="black" points="169.5,-515.5 169.5,-545.5 321.5,-545.5 321.5,-515.5 169.5,-515.5"/>
<text text-anchor="start" x="177.5" y="-533.5" font-family="Helvetica,sans-Serif" font-size="10.00">ODMultiAgentAStarProblem</text>
<text text-anchor="middle" x="245.5" y="-522.5" font-family="Helvetica,sans-Serif" font-size="10.00">WithConstraints.h</text>
</a>
</g>
</g>
<!-- Node18&#45;&gt;Node19 -->
<g id="edge20" class="edge">
<title>Node18&#45;&gt;Node19</title>
<path fill="none" stroke="midnightblue" d="M245.5,-577.41C245.5,-567.22 245.5,-554.9 245.5,-545.59"/>
<polygon fill="midnightblue" stroke="midnightblue" points="242,-577.73 245.5,-587.73 249,-577.73 242,-577.73"/>
</g>
<!-- Node21 -->
<g id="node21" class="node">
<title>Node21</title>
<g id="a_node21"><a xlink:href="ODMultiAgentSpaceTimeState_8cpp.html" target="_top" xlink:title=" ">
<polygon fill="white" stroke="black" points="340,-521 340,-540 525,-540 525,-521 340,-521"/>
<text text-anchor="middle" x="432.5" y="-528" font-family="Helvetica,sans-Serif" font-size="10.00">ODMultiAgentSpaceTimeState.cpp</text>
</a>
</g>
</g>
<!-- Node18&#45;&gt;Node21 -->
<g id="edge23" class="edge">
<title>Node18&#45;&gt;Node21</title>
<path fill="none" stroke="midnightblue" d="M280.21,-584.44C317.3,-571.54 375.18,-551.42 407.86,-540.06"/>
<polygon fill="midnightblue" stroke="midnightblue" points="278.63,-581.28 270.33,-587.87 280.93,-587.89 278.63,-581.28"/>
</g>
<!-- Node19&#45;&gt;Node5 -->
<g id="edge22" class="edge">
<title>Node19&#45;&gt;Node5</title>
<path fill="none" stroke="midnightblue" d="M332.11,-514.8C462.62,-495.9 603.86,-479.69 682.5,-471.05"/>
<polygon fill="midnightblue" stroke="midnightblue" points="331.32,-511.38 321.93,-516.29 332.33,-518.31 331.32,-511.38"/>
</g>
<!-- Node20 -->
<g id="node20" class="node">
<title>Node20</title>
<g id="a_node20"><a xlink:href="ODMultiAgentAStarProblemWithConstraints_8cpp.html" target="_top" xlink:title=" ">
<polygon fill="white" stroke="black" points="229.5,-448.5 229.5,-478.5 381.5,-478.5 381.5,-448.5 229.5,-448.5"/>
<text text-anchor="start" x="237.5" y="-466.5" font-family="Helvetica,sans-Serif" font-size="10.00">ODMultiAgentAStarProblem</text>
<text text-anchor="middle" x="305.5" y="-455.5" font-family="Helvetica,sans-Serif" font-size="10.00">WithConstraints.cpp</text>
</a>
</g>
</g>
<!-- Node19&#45;&gt;Node20 -->
<g id="edge21" class="edge">
<title>Node19&#45;&gt;Node20</title>
<path fill="none" stroke="midnightblue" d="M265.32,-508.02C274.26,-498.34 284.57,-487.17 292.51,-478.58"/>
<polygon fill="midnightblue" stroke="midnightblue" points="262.73,-505.67 258.52,-515.4 267.87,-510.42 262.73,-505.67"/>
</g>
<!-- Node24 -->
<g id="node24" class="node">
<title>Node24</title>
<g id="a_node24"><a xlink:href="SingleAgentAStarProblem_8h.html" target="_top" xlink:title=" ">
<polygon fill="white" stroke="black" points="0,-521 0,-540 151,-540 151,-521 0,-521"/>
<text text-anchor="middle" x="75.5" y="-528" font-family="Helvetica,sans-Serif" font-size="10.00">SingleAgentAStarProblem.h</text>
</a>
</g>
</g>
<!-- Node23&#45;&gt;Node24 -->
<g id="edge26" class="edge">
<title>Node23&#45;&gt;Node24</title>
<path fill="none" stroke="midnightblue" d="M232.75,-647.01C206.11,-640.05 174.63,-629.23 149.5,-613 118.51,-592.99 92.19,-556.83 81.11,-540.24"/>
<polygon fill="midnightblue" stroke="midnightblue" points="232.15,-650.47 242.7,-649.49 233.84,-643.68 232.15,-650.47"/>
</g>
<!-- Node24&#45;&gt;Node5 -->
<g id="edge28" class="edge">
<title>Node24&#45;&gt;Node5</title>
<path fill="none" stroke="midnightblue" d="M131.26,-519.31C140.99,-517.73 151.02,-516.22 160.5,-515 350.19,-490.65 576.16,-474.8 682.47,-468.12"/>
<polygon fill="midnightblue" stroke="midnightblue" points="130.56,-515.88 121.27,-520.98 131.71,-522.78 130.56,-515.88"/>
</g>
<!-- Node24&#45;&gt;Node16 -->
<g id="edge29" class="edge">
<title>Node24&#45;&gt;Node16</title>
<path fill="none" stroke="midnightblue" d="M59.27,-513.48C43.13,-495.64 23.09,-466.82 40.5,-448 74.06,-411.72 396.86,-404.63 544.48,-403.29"/>
<polygon fill="midnightblue" stroke="midnightblue" points="56.84,-516 66.27,-520.84 61.91,-511.18 56.84,-516"/>
</g>
<!-- Node25 -->
<g id="node25" class="node">
<title>Node25</title>
<g id="a_node25"><a xlink:href="SingleAgentAStarProblem_8cpp.html" target="_top" xlink:title=" ">
<polygon fill="white" stroke="black" points="49.5,-454 49.5,-473 211.5,-473 211.5,-454 49.5,-454"/>
<text text-anchor="middle" x="130.5" y="-461" font-family="Helvetica,sans-Serif" font-size="10.00">SingleAgentAStarProblem.cpp</text>
</a>
</g>
</g>
<!-- Node24&#45;&gt;Node25 -->
<g id="edge27" class="edge">
<title>Node24&#45;&gt;Node25</title>
<path fill="none" stroke="midnightblue" d="M89.66,-512.77C100.38,-500.1 114.68,-483.2 123.2,-473.13"/>
<polygon fill="midnightblue" stroke="midnightblue" points="86.71,-510.84 82.92,-520.73 92.05,-515.36 86.71,-510.84"/>
</g>
<!-- Node27 -->
<g id="node27" class="node">
<title>Node27</title>
<g id="a_node27"><a xlink:href="SingleAgentAStarProblemWithConstraints_8h.html" target="_top" xlink:title=" ">
<polygon fill="white" stroke="black" points="871.5,-582.5 871.5,-612.5 1035.5,-612.5 1035.5,-582.5 871.5,-582.5"/>
<text text-anchor="start" x="879.5" y="-600.5" font-family="Helvetica,sans-Serif" font-size="10.00">SingleAgentAStarProblemWith</text>
<text text-anchor="middle" x="953.5" y="-589.5" font-family="Helvetica,sans-Serif" font-size="10.00">Constraints.h</text>
</a>
</g>
</g>
<!-- Node26&#45;&gt;Node27 -->
<g id="edge31" class="edge">
<title>Node26&#45;&gt;Node27</title>
<path fill="none" stroke="midnightblue" d="M802.29,-646.36C832.92,-636.66 876.64,-622.83 909.19,-612.52"/>
<polygon fill="midnightblue" stroke="midnightblue" points="800.91,-643.12 792.44,-649.48 803.03,-649.79 800.91,-643.12"/>
</g>
<!-- Node29 -->
<g id="node29" class="node">
<title>Node29</title>
<g id="a_node29"><a xlink:href="SingleAgentSpaceTimeState_8cpp.html" target="_top" xlink:title=" ">
<polygon fill="white" stroke="black" points="678,-588 678,-607 853,-607 853,-588 678,-588"/>
<text text-anchor="middle" x="765.5" y="-595" font-family="Helvetica,sans-Serif" font-size="10.00">SingleAgentSpaceTimeState.cpp</text>
</a>
</g>
</g>
<!-- Node26&#45;&gt;Node29 -->
<g id="edge34" class="edge">
<title>Node26&#45;&gt;Node29</title>
<path fill="none" stroke="midnightblue" d="M765.5,-639.32C765.5,-628.5 765.5,-615.4 765.5,-607.01"/>
<polygon fill="midnightblue" stroke="midnightblue" points="762,-639.48 765.5,-649.48 769,-639.48 762,-639.48"/>
</g>
<!-- Node27&#45;&gt;Node5 -->
<g id="edge33" class="edge">
<title>Node27&#45;&gt;Node5</title>
<path fill="none" stroke="midnightblue" d="M957.58,-572.2C959.14,-554.28 957.97,-530.44 944.5,-515 926.23,-494.05 856.8,-480 804.62,-472.14"/>
<polygon fill="midnightblue" stroke="midnightblue" points="954.09,-571.86 956.38,-582.21 961.04,-572.69 954.09,-571.86"/>
</g>
<!-- Node28 -->
<g id="node28" class="node">
<title>Node28</title>
<g id="a_node28"><a xlink:href="SingleAgentAStarProblemWithConstraints_8cpp.html" target="_top" xlink:title=" ">
<polygon fill="white" stroke="black" points="771.5,-515.5 771.5,-545.5 935.5,-545.5 935.5,-515.5 771.5,-515.5"/>
<text text-anchor="start" x="779.5" y="-533.5" font-family="Helvetica,sans-Serif" font-size="10.00">SingleAgentAStarProblemWith</text>
<text text-anchor="middle" x="853.5" y="-522.5" font-family="Helvetica,sans-Serif" font-size="10.00">Constraints.cpp</text>
</a>
</g>
</g>
<!-- Node27&#45;&gt;Node28 -->
<g id="edge32" class="edge">
<title>Node27&#45;&gt;Node28</title>
<path fill="none" stroke="midnightblue" d="M923.09,-576.73C907.62,-566.68 889.17,-554.68 875.16,-545.58"/>
<polygon fill="midnightblue" stroke="midnightblue" points="921.51,-579.88 931.8,-582.4 925.32,-574.01 921.51,-579.88"/>
</g>
<!-- Node31 -->
<g id="node31" class="node">
<title>Node31</title>
<g id="a_node31"><a xlink:href="StandardMultiAgentAStarProblem_8h.html" target="_top" xlink:title=" ">
<polygon fill="white" stroke="black" points="1054,-588 1054,-607 1243,-607 1243,-588 1054,-588"/>
<text text-anchor="middle" x="1148.5" y="-595" font-family="Helvetica,sans-Serif" font-size="10.00">StandardMultiAgentAStarProblem.h</text>
</a>
</g>
</g>
<!-- Node30&#45;&gt;Node31 -->
<g id="edge36" class="edge">
<title>Node30&#45;&gt;Node31</title>
<path fill="none" stroke="midnightblue" d="M1223.84,-644.24C1204.91,-632.75 1178.51,-616.72 1162.51,-607.01"/>
<polygon fill="midnightblue" stroke="midnightblue" points="1222.09,-647.28 1232.46,-649.48 1225.73,-641.29 1222.09,-647.28"/>
</g>
<!-- Node33 -->
<g id="node33" class="node">
<title>Node33</title>
<g id="a_node33"><a xlink:href="StandardMultiAgentSpaceTimeState_8h.html" target="_top" xlink:title=" ">
<polygon fill="white" stroke="black" points="1261,-582.5 1261,-612.5 1428,-612.5 1428,-582.5 1261,-582.5"/>
<text text-anchor="start" x="1269" y="-600.5" font-family="Helvetica,sans-Serif" font-size="10.00">StandardMultiAgentSpaceTime</text>
<text text-anchor="middle" x="1344.5" y="-589.5" font-family="Helvetica,sans-Serif" font-size="10.00">State.h</text>
</a>
</g>
</g>
<!-- Node30&#45;&gt;Node33 -->
<g id="edge39" class="edge">
<title>Node30&#45;&gt;Node33</title>
<path fill="none" stroke="midnightblue" d="M1269.1,-644.28C1284.79,-634.75 1305.61,-622.11 1321.4,-612.52"/>
<polygon fill="midnightblue" stroke="midnightblue" points="1267.27,-641.29 1260.54,-649.48 1270.91,-647.28 1267.27,-641.29"/>
</g>
<!-- Node37 -->
<g id="node37" class="node">
<title>Node37</title>
<g id="a_node37"><a xlink:href="StandardMultiAgentState_8cpp.html" target="_top" xlink:title=" ">
<polygon fill="white" stroke="black" points="1446,-588 1446,-607 1605,-607 1605,-588 1446,-588"/>
<text text-anchor="middle" x="1525.5" y="-595" font-family="Helvetica,sans-Serif" font-size="10.00">StandardMultiAgentState.cpp</text>
</a>
</g>
</g>
<!-- Node30&#45;&gt;Node37 -->
<g id="edge44" class="edge">
<title>Node30&#45;&gt;Node37</title>
<path fill="none" stroke="midnightblue" d="M1296.53,-647.33C1350.64,-635.79 1435.81,-617.63 1485.6,-607.01"/>
<polygon fill="midnightblue" stroke="midnightblue" points="1295.52,-643.97 1286.47,-649.48 1296.98,-650.81 1295.52,-643.97"/>
</g>
<!-- Node31&#45;&gt;Node5 -->
<g id="edge38" class="edge">
<title>Node31&#45;&gt;Node5</title>
<path fill="none" stroke="midnightblue" d="M1118.66,-584.13C1094.72,-574.1 1060.3,-559.48 1030.5,-546 1001.34,-532.81 995.73,-525.5 965.5,-515 908.93,-495.35 841.57,-481.27 796,-473.05"/>
<polygon fill="midnightblue" stroke="midnightblue" points="1117.35,-587.37 1127.93,-587.99 1120.05,-580.91 1117.35,-587.37"/>
</g>
<!-- Node32 -->
<g id="node32" class="node">
<title>Node32</title>
<g id="a_node32"><a xlink:href="StandardMultiAgentAStarProblem_8cpp.html" target="_top" xlink:title=" ">
<polygon fill="white" stroke="black" points="1039.5,-521 1039.5,-540 1239.5,-540 1239.5,-521 1039.5,-521"/>
<text text-anchor="middle" x="1139.5" y="-528" font-family="Helvetica,sans-Serif" font-size="10.00">StandardMultiAgentAStarProblem.cpp</text>
</a>
</g>
</g>
<!-- Node31&#45;&gt;Node32 -->
<g id="edge37" class="edge">
<title>Node31&#45;&gt;Node32</title>
<path fill="none" stroke="midnightblue" d="M1145.87,-577.54C1144.16,-565.17 1142.01,-549.62 1140.69,-540.13"/>
<polygon fill="midnightblue" stroke="midnightblue" points="1142.45,-578.31 1147.29,-587.73 1149.38,-577.35 1142.45,-578.31"/>
</g>
<!-- Node34 -->
<g id="node34" class="node">
<title>Node34</title>
<g id="a_node34"><a xlink:href="StandardMultiAgentAStarProblemWithConstraints_8h.html" target="_top" xlink:title=" ">
<polygon fill="white" stroke="black" points="1443.5,-515.5 1443.5,-545.5 1623.5,-545.5 1623.5,-515.5 1443.5,-515.5"/>
<text text-anchor="start" x="1451.5" y="-533.5" font-family="Helvetica,sans-Serif" font-size="10.00">StandardMultiAgentAStarProblem</text>
<text text-anchor="middle" x="1533.5" y="-522.5" font-family="Helvetica,sans-Serif" font-size="10.00">WithConstraints.h</text>
</a>
</g>
</g>
<!-- Node33&#45;&gt;Node34 -->
<g id="edge40" class="edge">
<title>Node33&#45;&gt;Node34</title>
<path fill="none" stroke="midnightblue" d="M1395.12,-579.09C1425.63,-568.6 1463.98,-555.41 1492.57,-545.58"/>
<polygon fill="midnightblue" stroke="midnightblue" points="1393.83,-575.83 1385.51,-582.4 1396.1,-582.45 1393.83,-575.83"/>
</g>
<!-- Node36 -->
<g id="node36" class="node">
<title>Node36</title>
<g id="a_node36"><a xlink:href="StandardMultiAgentSpaceTimeState_8cpp.html" target="_top" xlink:title=" ">
<polygon fill="white" stroke="black" points="1258,-515.5 1258,-545.5 1425,-545.5 1425,-515.5 1258,-515.5"/>
<text text-anchor="start" x="1266" y="-533.5" font-family="Helvetica,sans-Serif" font-size="10.00">StandardMultiAgentSpaceTime</text>
<text text-anchor="middle" x="1341.5" y="-522.5" font-family="Helvetica,sans-Serif" font-size="10.00">State.cpp</text>
</a>
</g>
</g>
<!-- Node33&#45;&gt;Node36 -->
<g id="edge43" class="edge">
<title>Node33&#45;&gt;Node36</title>
<path fill="none" stroke="midnightblue" d="M1343.39,-572.4C1342.97,-563.37 1342.51,-553.41 1342.15,-545.58"/>
<polygon fill="midnightblue" stroke="midnightblue" points="1339.89,-572.57 1343.85,-582.4 1346.88,-572.25 1339.89,-572.57"/>
</g>
<!-- Node34&#45;&gt;Node5 -->
<g id="edge42" class="edge">
<title>Node34&#45;&gt;Node5</title>
<path fill="none" stroke="midnightblue" d="M1433.04,-515.01C1194.05,-489.31 923.34,-473.68 804.55,-467.51"/>
<polygon fill="midnightblue" stroke="midnightblue" points="1433,-518.53 1443.32,-516.12 1433.76,-511.57 1433,-518.53"/>
</g>
<!-- Node35 -->
<g id="node35" class="node">
<title>Node35</title>
<g id="a_node35"><a xlink:href="StandardMultiAgentAStarProblemWithConstraints_8cpp.html" target="_top" xlink:title=" ">
<polygon fill="white" stroke="black" points="1443.5,-448.5 1443.5,-478.5 1623.5,-478.5 1623.5,-448.5 1443.5,-448.5"/>
<text text-anchor="start" x="1451.5" y="-466.5" font-family="Helvetica,sans-Serif" font-size="10.00">StandardMultiAgentAStarProblem</text>
<text text-anchor="middle" x="1533.5" y="-455.5" font-family="Helvetica,sans-Serif" font-size="10.00">WithConstraints.cpp</text>
</a>
</g>
</g>
<!-- Node34&#45;&gt;Node35 -->
<g id="edge41" class="edge">
<title>Node34&#45;&gt;Node35</title>
<path fill="none" stroke="midnightblue" d="M1533.5,-505.11C1533.5,-496.15 1533.5,-486.32 1533.5,-478.58"/>
<polygon fill="midnightblue" stroke="midnightblue" points="1530,-505.4 1533.5,-515.4 1537,-505.4 1530,-505.4"/>
</g>
</g>
</svg>
