<?xml version="1.0" encoding="UTF-8" standalone="no"?>
<!DOCTYPE svg PUBLIC "-//W3C//DTD SVG 1.1//EN"
 "http://www.w3.org/Graphics/SVG/1.1/DTD/svg11.dtd">
<!-- Generated by graphviz version 2.43.0 (0)
 -->
<!-- Title: HardVertexConstraintHash::operator() Pages: 1 -->
<svg width="349pt" height="104pt"
 viewBox="0.00 0.00 349.00 104.00" xmlns="http://www.w3.org/2000/svg" xmlns:xlink="http://www.w3.org/1999/xlink">
<g id="graph0" class="graph" transform="scale(1 1) rotate(0) translate(4 100)">
<title>HardVertexConstraintHash::operator()</title>
<polygon fill="white" stroke="transparent" points="-4,4 -4,-100 345,-100 345,4 -4,4"/>
<!-- Node1 -->
<g id="node1" class="node">
<title>Node1</title>
<g id="a_node1"><a xlink:title=" ">
<polygon fill="#bfbfbf" stroke="black" points="0,-33 0,-63 146,-63 146,-33 0,-33"/>
<text text-anchor="start" x="8" y="-51" font-family="Helvetica,sans-Serif" font-size="10.00">HardVertexConstraintHash</text>
<text text-anchor="middle" x="73" y="-40" font-family="Helvetica,sans-Serif" font-size="10.00">::operator()</text>
</a>
</g>
</g>
<!-- Node2 -->
<g id="node2" class="node">
<title>Node2</title>
<g id="a_node2"><a xlink:href="classVertexConstraint.html#a3651e169d60876fabf83041bed6b543c" target="_top" xlink:title=" ">
<polygon fill="white" stroke="black" points="187,-76.5 187,-95.5 336,-95.5 336,-76.5 187,-76.5"/>
<text text-anchor="middle" x="261.5" y="-83.5" font-family="Helvetica,sans-Serif" font-size="10.00">VertexConstraint::getAgent</text>
</a>
</g>
</g>
<!-- Node1&#45;&gt;Node2 -->
<g id="edge1" class="edge">
<title>Node1&#45;&gt;Node2</title>
<path fill="none" stroke="midnightblue" d="M146.11,-62.69C165.22,-66.59 185.58,-70.74 203.75,-74.44"/>
<polygon fill="midnightblue" stroke="midnightblue" points="203.1,-77.88 213.6,-76.44 204.5,-71.02 203.1,-77.88"/>
</g>
<!-- Node3 -->
<g id="node3" class="node">
<title>Node3</title>
<g id="a_node3"><a xlink:href="classVertexConstraint.html#ab869a3e5be5d1804a67122f3be2092de" target="_top" xlink:title=" ">
<polygon fill="white" stroke="black" points="182,-38.5 182,-57.5 341,-57.5 341,-38.5 182,-38.5"/>
<text text-anchor="middle" x="261.5" y="-45.5" font-family="Helvetica,sans-Serif" font-size="10.00">VertexConstraint::getPosition</text>
</a>
</g>
</g>
<!-- Node1&#45;&gt;Node3 -->
<g id="edge2" class="edge">
<title>Node1&#45;&gt;Node3</title>
<path fill="none" stroke="midnightblue" d="M146.11,-48C154.5,-48 163.14,-48 171.73,-48"/>
<polygon fill="midnightblue" stroke="midnightblue" points="171.78,-51.5 181.78,-48 171.78,-44.5 171.78,-51.5"/>
</g>
<!-- Node4 -->
<g id="node4" class="node">
<title>Node4</title>
<g id="a_node4"><a xlink:href="classVertexConstraint.html#ae4a5ede3e21dcbc4dec0060a90682c15" target="_top" xlink:title=" ">
<polygon fill="white" stroke="black" points="189,-0.5 189,-19.5 334,-19.5 334,-0.5 189,-0.5"/>
<text text-anchor="middle" x="261.5" y="-7.5" font-family="Helvetica,sans-Serif" font-size="10.00">VertexConstraint::getTime</text>
</a>
</g>
</g>
<!-- Node1&#45;&gt;Node4 -->
<g id="edge3" class="edge">
<title>Node1&#45;&gt;Node4</title>
<path fill="none" stroke="midnightblue" d="M146.11,-33.31C165.22,-29.41 185.58,-25.26 203.75,-21.56"/>
<polygon fill="midnightblue" stroke="midnightblue" points="204.5,-24.98 213.6,-19.56 203.1,-18.12 204.5,-24.98"/>
</g>
</g>
</svg>
