<?xml version="1.0" encoding="UTF-8" standalone="no"?>
<!DOCTYPE svg PUBLIC "-//W3C//DTD SVG 1.1//EN"
 "http://www.w3.org/Graphics/SVG/1.1/DTD/svg11.dtd">
<!-- Generated by graphviz version 2.43.0 (0)
 -->
<!-- Title: HardEdgeConstraintEqual::operator() Pages: 1 -->
<svg width="343pt" height="142pt"
 viewBox="0.00 0.00 343.00 142.00" xmlns="http://www.w3.org/2000/svg" xmlns:xlink="http://www.w3.org/1999/xlink">
<g id="graph0" class="graph" transform="scale(1 1) rotate(0) translate(4 138)">
<title>HardEdgeConstraintEqual::operator()</title>
<polygon fill="white" stroke="transparent" points="-4,4 -4,-138 339,-138 339,4 -4,4"/>
<!-- Node1 -->
<g id="node1" class="node">
<title>Node1</title>
<g id="a_node1"><a xlink:title=" ">
<polygon fill="#bfbfbf" stroke="black" points="0,-52 0,-82 141,-82 141,-52 0,-52"/>
<text text-anchor="start" x="8" y="-70" font-family="Helvetica,sans-Serif" font-size="10.00">HardEdgeConstraintEqual</text>
<text text-anchor="middle" x="70.5" y="-59" font-family="Helvetica,sans-Serif" font-size="10.00">::operator()</text>
</a>
</g>
</g>
<!-- Node2 -->
<g id="node2" class="node">
<title>Node2</title>
<g id="a_node2"><a xlink:href="classEdgeConstraint.html#a2f004daab96e80fa7e49ca1af6a4fe3f" target="_top" xlink:title=" ">
<polygon fill="white" stroke="black" points="185.5,-114.5 185.5,-133.5 326.5,-133.5 326.5,-114.5 185.5,-114.5"/>
<text text-anchor="middle" x="256" y="-121.5" font-family="Helvetica,sans-Serif" font-size="10.00">EdgeConstraint::getAgent</text>
</a>
</g>
</g>
<!-- Node1&#45;&gt;Node2 -->
<g id="edge1" class="edge">
<title>Node1&#45;&gt;Node2</title>
<path fill="none" stroke="midnightblue" d="M110.25,-82.08C130.05,-89.5 154.63,-98.27 177,-105 185.15,-107.45 193.86,-109.82 202.39,-112"/>
<polygon fill="midnightblue" stroke="midnightblue" points="201.72,-115.44 212.27,-114.46 203.42,-108.65 201.72,-115.44"/>
</g>
<!-- Node3 -->
<g id="node3" class="node">
<title>Node3</title>
<g id="a_node3"><a xlink:href="classEdgeConstraint.html#a466908d69c6881694fe53a23cc62c5d9" target="_top" xlink:title=" ">
<polygon fill="white" stroke="black" points="177,-76.5 177,-95.5 335,-95.5 335,-76.5 177,-76.5"/>
<text text-anchor="middle" x="256" y="-83.5" font-family="Helvetica,sans-Serif" font-size="10.00">EdgeConstraint::getPosition1</text>
</a>
</g>
</g>
<!-- Node1&#45;&gt;Node3 -->
<g id="edge2" class="edge">
<title>Node1&#45;&gt;Node3</title>
<path fill="none" stroke="midnightblue" d="M141.14,-74.21C149.52,-75.08 158.16,-75.97 166.76,-76.86"/>
<polygon fill="midnightblue" stroke="midnightblue" points="166.51,-80.36 176.82,-77.9 167.23,-73.39 166.51,-80.36"/>
</g>
<!-- Node4 -->
<g id="node4" class="node">
<title>Node4</title>
<g id="a_node4"><a xlink:href="classEdgeConstraint.html#ad2fbdf3fb124655ee081c9efbb420b85" target="_top" xlink:title=" ">
<polygon fill="white" stroke="black" points="177,-38.5 177,-57.5 335,-57.5 335,-38.5 177,-38.5"/>
<text text-anchor="middle" x="256" y="-45.5" font-family="Helvetica,sans-Serif" font-size="10.00">EdgeConstraint::getPosition2</text>
</a>
</g>
</g>
<!-- Node1&#45;&gt;Node4 -->
<g id="edge3" class="edge">
<title>Node1&#45;&gt;Node4</title>
<path fill="none" stroke="midnightblue" d="M141.14,-59.79C149.52,-58.92 158.16,-58.03 166.76,-57.14"/>
<polygon fill="midnightblue" stroke="midnightblue" points="167.23,-60.61 176.82,-56.1 166.51,-53.64 167.23,-60.61"/>
</g>
<!-- Node5 -->
<g id="node5" class="node">
<title>Node5</title>
<g id="a_node5"><a xlink:href="classEdgeConstraint.html#a993ffecc11fb54e7e179fa2aa1c20a7e" target="_top" xlink:title=" ">
<polygon fill="white" stroke="black" points="187.5,-0.5 187.5,-19.5 324.5,-19.5 324.5,-0.5 187.5,-0.5"/>
<text text-anchor="middle" x="256" y="-7.5" font-family="Helvetica,sans-Serif" font-size="10.00">EdgeConstraint::getTime</text>
</a>
</g>
</g>
<!-- Node1&#45;&gt;Node5 -->
<g id="edge4" class="edge">
<title>Node1&#45;&gt;Node5</title>
<path fill="none" stroke="midnightblue" d="M110.25,-51.92C130.05,-44.5 154.63,-35.73 177,-29 185.15,-26.55 193.86,-24.18 202.39,-22"/>
<polygon fill="midnightblue" stroke="midnightblue" points="203.42,-25.35 212.27,-19.54 201.72,-18.56 203.42,-25.35"/>
</g>
</g>
</svg>
