<?xml version="1.0" encoding="UTF-8" standalone="no"?>
<!DOCTYPE svg PUBLIC "-//W3C//DTD SVG 1.1//EN"
 "http://www.w3.org/Graphics/SVG/1.1/DTD/svg11.dtd">
<!-- Generated by graphviz version 2.43.0 (0)
 -->
<!-- Title: HardEdgeConstraintHash::operator() Pages: 1 -->
<svg width="341pt" height="142pt"
 viewBox="0.00 0.00 341.00 142.00" xmlns="http://www.w3.org/2000/svg" xmlns:xlink="http://www.w3.org/1999/xlink">
<g id="graph0" class="graph" transform="scale(1 1) rotate(0) translate(4 138)">
<title>HardEdgeConstraintHash::operator()</title>
<polygon fill="white" stroke="transparent" points="-4,4 -4,-138 337,-138 337,4 -4,4"/>
<!-- Node1 -->
<g id="node1" class="node">
<title>Node1</title>
<g id="a_node1"><a xlink:title=" ">
<polygon fill="#bfbfbf" stroke="black" points="0,-52 0,-82 139,-82 139,-52 0,-52"/>
<text text-anchor="start" x="8" y="-70" font-family="Helvetica,sans-Serif" font-size="10.00">HardEdgeConstraintHash</text>
<text text-anchor="middle" x="69.5" y="-59" font-family="Helvetica,sans-Serif" font-size="10.00">::operator()</text>
</a>
</g>
</g>
<!-- Node2 -->
<g id="node2" class="node">
<title>Node2</title>
<g id="a_node2"><a xlink:href="classEdgeConstraint.html#a2f004daab96e80fa7e49ca1af6a4fe3f" target="_top" xlink:title=" ">
<polygon fill="white" stroke="black" points="183.5,-114.5 183.5,-133.5 324.5,-133.5 324.5,-114.5 183.5,-114.5"/>
<text text-anchor="middle" x="254" y="-121.5" font-family="Helvetica,sans-Serif" font-size="10.00">EdgeConstraint::getAgent</text>
</a>
</g>
</g>
<!-- Node1&#45;&gt;Node2 -->
<g id="edge1" class="edge">
<title>Node1&#45;&gt;Node2</title>
<path fill="none" stroke="midnightblue" d="M108.87,-82.1C128.48,-89.52 152.83,-98.29 175,-105 183.15,-107.47 191.85,-109.84 200.38,-112.02"/>
<polygon fill="midnightblue" stroke="midnightblue" points="199.71,-115.46 210.26,-114.49 201.41,-108.67 199.71,-115.46"/>
</g>
<!-- Node3 -->
<g id="node3" class="node">
<title>Node3</title>
<g id="a_node3"><a xlink:href="classEdgeConstraint.html#a466908d69c6881694fe53a23cc62c5d9" target="_top" xlink:title=" ">
<polygon fill="white" stroke="black" points="175,-76.5 175,-95.5 333,-95.5 333,-76.5 175,-76.5"/>
<text text-anchor="middle" x="254" y="-83.5" font-family="Helvetica,sans-Serif" font-size="10.00">EdgeConstraint::getPosition1</text>
</a>
</g>
</g>
<!-- Node1&#45;&gt;Node3 -->
<g id="edge2" class="edge">
<title>Node1&#45;&gt;Node3</title>
<path fill="none" stroke="midnightblue" d="M139.24,-74.16C147.59,-75.03 156.21,-75.92 164.79,-76.82"/>
<polygon fill="midnightblue" stroke="midnightblue" points="164.52,-80.31 174.83,-77.86 165.25,-73.35 164.52,-80.31"/>
</g>
<!-- Node4 -->
<g id="node4" class="node">
<title>Node4</title>
<g id="a_node4"><a xlink:href="classEdgeConstraint.html#ad2fbdf3fb124655ee081c9efbb420b85" target="_top" xlink:title=" ">
<polygon fill="white" stroke="black" points="175,-38.5 175,-57.5 333,-57.5 333,-38.5 175,-38.5"/>
<text text-anchor="middle" x="254" y="-45.5" font-family="Helvetica,sans-Serif" font-size="10.00">EdgeConstraint::getPosition2</text>
</a>
</g>
</g>
<!-- Node1&#45;&gt;Node4 -->
<g id="edge3" class="edge">
<title>Node1&#45;&gt;Node4</title>
<path fill="none" stroke="midnightblue" d="M139.24,-59.84C147.59,-58.97 156.21,-58.08 164.79,-57.18"/>
<polygon fill="midnightblue" stroke="midnightblue" points="165.25,-60.65 174.83,-56.14 164.52,-53.69 165.25,-60.65"/>
</g>
<!-- Node5 -->
<g id="node5" class="node">
<title>Node5</title>
<g id="a_node5"><a xlink:href="classEdgeConstraint.html#a993ffecc11fb54e7e179fa2aa1c20a7e" target="_top" xlink:title=" ">
<polygon fill="white" stroke="black" points="185.5,-0.5 185.5,-19.5 322.5,-19.5 322.5,-0.5 185.5,-0.5"/>
<text text-anchor="middle" x="254" y="-7.5" font-family="Helvetica,sans-Serif" font-size="10.00">EdgeConstraint::getTime</text>
</a>
</g>
</g>
<!-- Node1&#45;&gt;Node5 -->
<g id="edge4" class="edge">
<title>Node1&#45;&gt;Node5</title>
<path fill="none" stroke="midnightblue" d="M108.87,-51.9C128.48,-44.48 152.83,-35.71 175,-29 183.15,-26.53 191.85,-24.16 200.38,-21.98"/>
<polygon fill="midnightblue" stroke="midnightblue" points="201.41,-25.33 210.26,-19.51 199.71,-18.54 201.41,-25.33"/>
</g>
</g>
</svg>
