<?xml version="1.0" encoding="UTF-8" standalone="no"?>
<!DOCTYPE svg PUBLIC "-//W3C//DTD SVG 1.1//EN"
 "http://www.w3.org/Graphics/SVG/1.1/DTD/svg11.dtd">
<!-- Generated by graphviz version 2.43.0 (0)
 -->
<!-- Title: SoftEdgeConstraintEqual::operator() Pages: 1 -->
<svg width="339pt" height="104pt"
 viewBox="0.00 0.00 339.00 104.00" xmlns="http://www.w3.org/2000/svg" xmlns:xlink="http://www.w3.org/1999/xlink">
<g id="graph0" class="graph" transform="scale(1 1) rotate(0) translate(4 100)">
<title>SoftEdgeConstraintEqual::operator()</title>
<polygon fill="white" stroke="transparent" points="-4,4 -4,-100 335,-100 335,4 -4,4"/>
<!-- Node1 -->
<g id="node1" class="node">
<title>Node1</title>
<g id="a_node1"><a xlink:title=" ">
<polygon fill="#bfbfbf" stroke="black" points="0,-33 0,-63 137,-63 137,-33 0,-33"/>
<text text-anchor="start" x="8" y="-51" font-family="Helvetica,sans-Serif" font-size="10.00">SoftEdgeConstraintEqual</text>
<text text-anchor="middle" x="68.5" y="-40" font-family="Helvetica,sans-Serif" font-size="10.00">::operator()</text>
</a>
</g>
</g>
<!-- Node2 -->
<g id="node2" class="node">
<title>Node2</title>
<g id="a_node2"><a xlink:href="classEdgeConstraint.html#a466908d69c6881694fe53a23cc62c5d9" target="_top" xlink:title=" ">
<polygon fill="white" stroke="black" points="173,-76.5 173,-95.5 331,-95.5 331,-76.5 173,-76.5"/>
<text text-anchor="middle" x="252" y="-83.5" font-family="Helvetica,sans-Serif" font-size="10.00">EdgeConstraint::getPosition1</text>
</a>
</g>
</g>
<!-- Node1&#45;&gt;Node2 -->
<g id="edge1" class="edge">
<title>Node1&#45;&gt;Node2</title>
<path fill="none" stroke="midnightblue" d="M137.08,-62.15C156.3,-66.17 177.01,-70.51 195.42,-74.36"/>
<polygon fill="midnightblue" stroke="midnightblue" points="194.89,-77.83 205.4,-76.45 196.33,-70.98 194.89,-77.83"/>
</g>
<!-- Node3 -->
<g id="node3" class="node">
<title>Node3</title>
<g id="a_node3"><a xlink:href="classEdgeConstraint.html#ad2fbdf3fb124655ee081c9efbb420b85" target="_top" xlink:title=" ">
<polygon fill="white" stroke="black" points="173,-38.5 173,-57.5 331,-57.5 331,-38.5 173,-38.5"/>
<text text-anchor="middle" x="252" y="-45.5" font-family="Helvetica,sans-Serif" font-size="10.00">EdgeConstraint::getPosition2</text>
</a>
</g>
</g>
<!-- Node1&#45;&gt;Node3 -->
<g id="edge2" class="edge">
<title>Node1&#45;&gt;Node3</title>
<path fill="none" stroke="midnightblue" d="M137.08,-48C145.49,-48 154.17,-48 162.83,-48"/>
<polygon fill="midnightblue" stroke="midnightblue" points="162.96,-51.5 172.96,-48 162.96,-44.5 162.96,-51.5"/>
</g>
<!-- Node4 -->
<g id="node4" class="node">
<title>Node4</title>
<g id="a_node4"><a xlink:href="classEdgeConstraint.html#a993ffecc11fb54e7e179fa2aa1c20a7e" target="_top" xlink:title=" ">
<polygon fill="white" stroke="black" points="183.5,-0.5 183.5,-19.5 320.5,-19.5 320.5,-0.5 183.5,-0.5"/>
<text text-anchor="middle" x="252" y="-7.5" font-family="Helvetica,sans-Serif" font-size="10.00">EdgeConstraint::getTime</text>
</a>
</g>
</g>
<!-- Node1&#45;&gt;Node4 -->
<g id="edge3" class="edge">
<title>Node1&#45;&gt;Node4</title>
<path fill="none" stroke="midnightblue" d="M137.08,-33.85C156.3,-29.83 177.01,-25.49 195.42,-21.64"/>
<polygon fill="midnightblue" stroke="midnightblue" points="196.33,-25.02 205.4,-19.55 194.89,-18.17 196.33,-25.02"/>
</g>
</g>
</svg>
