<?xml version="1.0" encoding="UTF-8" standalone="no"?>
<!DOCTYPE svg PUBLIC "-//W3C//DTD SVG 1.1//EN"
 "http://www.w3.org/Graphics/SVG/1.1/DTD/svg11.dtd">
<!-- Generated by graphviz version 2.43.0 (0)
 -->
<!-- Title: HardVertexConstraintEqual::operator() Pages: 1 -->
<svg width="352pt" height="104pt"
 viewBox="0.00 0.00 352.00 104.00" xmlns="http://www.w3.org/2000/svg" xmlns:xlink="http://www.w3.org/1999/xlink">
<g id="graph0" class="graph" transform="scale(1 1) rotate(0) translate(4 100)">
<title>HardVertexConstraintEqual::operator()</title>
<polygon fill="white" stroke="transparent" points="-4,4 -4,-100 348,-100 348,4 -4,4"/>
<!-- Node1 -->
<g id="node1" class="node">
<title>Node1</title>
<g id="a_node1"><a xlink:title=" ">
<polygon fill="#bfbfbf" stroke="black" points="0,-33 0,-63 149,-63 149,-33 0,-33"/>
<text text-anchor="start" x="8" y="-51" font-family="Helvetica,sans-Serif" font-size="10.00">HardVertexConstraintEqual</text>
<text text-anchor="middle" x="74.5" y="-40" font-family="Helvetica,sans-Serif" font-size="10.00">::operator()</text>
</a>
</g>
</g>
<!-- Node2 -->
<g id="node2" class="node">
<title>Node2</title>
<g id="a_node2"><a xlink:href="classVertexConstraint.html#a3651e169d60876fabf83041bed6b543c" target="_top" xlink:title=" ">
<polygon fill="white" stroke="black" points="190,-76.5 190,-95.5 339,-95.5 339,-76.5 190,-76.5"/>
<text text-anchor="middle" x="264.5" y="-83.5" font-family="Helvetica,sans-Serif" font-size="10.00">VertexConstraint::getAgent</text>
</a>
</g>
</g>
<!-- Node1&#45;&gt;Node2 -->
<g id="edge1" class="edge">
<title>Node1&#45;&gt;Node2</title>
<path fill="none" stroke="midnightblue" d="M149.26,-62.91C168.27,-66.75 188.44,-70.83 206.45,-74.47"/>
<polygon fill="midnightblue" stroke="midnightblue" points="206,-77.95 216.5,-76.5 207.39,-71.09 206,-77.95"/>
</g>
<!-- Node3 -->
<g id="node3" class="node">
<title>Node3</title>
<g id="a_node3"><a xlink:href="classVertexConstraint.html#ab869a3e5be5d1804a67122f3be2092de" target="_top" xlink:title=" ">
<polygon fill="white" stroke="black" points="185,-38.5 185,-57.5 344,-57.5 344,-38.5 185,-38.5"/>
<text text-anchor="middle" x="264.5" y="-45.5" font-family="Helvetica,sans-Serif" font-size="10.00">VertexConstraint::getPosition</text>
</a>
</g>
</g>
<!-- Node1&#45;&gt;Node3 -->
<g id="edge2" class="edge">
<title>Node1&#45;&gt;Node3</title>
<path fill="none" stroke="midnightblue" d="M149.26,-48C157.69,-48 166.35,-48 174.94,-48"/>
<polygon fill="midnightblue" stroke="midnightblue" points="174.99,-51.5 184.99,-48 174.99,-44.5 174.99,-51.5"/>
</g>
<!-- Node4 -->
<g id="node4" class="node">
<title>Node4</title>
<g id="a_node4"><a xlink:href="classVertexConstraint.html#ae4a5ede3e21dcbc4dec0060a90682c15" target="_top" xlink:title=" ">
<polygon fill="white" stroke="black" points="192,-0.5 192,-19.5 337,-19.5 337,-0.5 192,-0.5"/>
<text text-anchor="middle" x="264.5" y="-7.5" font-family="Helvetica,sans-Serif" font-size="10.00">VertexConstraint::getTime</text>
</a>
</g>
</g>
<!-- Node1&#45;&gt;Node4 -->
<g id="edge3" class="edge">
<title>Node1&#45;&gt;Node4</title>
<path fill="none" stroke="midnightblue" d="M149.26,-33.09C168.27,-29.25 188.44,-25.17 206.45,-21.53"/>
<polygon fill="midnightblue" stroke="midnightblue" points="207.39,-24.91 216.5,-19.5 206,-18.05 207.39,-24.91"/>
</g>
</g>
</svg>
