<?xml version="1.0" encoding="UTF-8" standalone="no"?>
<!DOCTYPE svg PUBLIC "-//W3C//DTD SVG 1.1//EN"
 "http://www.w3.org/Graphics/SVG/1.1/DTD/svg11.dtd">
<!-- Generated by graphviz version 2.43.0 (0)
 -->
<!-- Title: VertexConstraint.h Pages: 1 -->
<svg width="1880pt" height="778pt"
 viewBox="0.00 0.00 1880.00 778.00" xmlns="http://www.w3.org/2000/svg" xmlns:xlink="http://www.w3.org/1999/xlink">
<g id="graph0" class="graph" transform="scale(1 1) rotate(0) translate(4 774)">
<title>VertexConstraint.h</title>
<polygon fill="white" stroke="transparent" points="-4,4 -4,-774 1876,-774 1876,4 -4,4"/>
<!-- Node1 -->
<g id="node1" class="node">
<title>Node1</title>
<g id="a_node1"><a xlink:title=" ">
<polygon fill="#bfbfbf" stroke="black" points="284.5,-750.5 284.5,-769.5 391.5,-769.5 391.5,-750.5 284.5,-750.5"/>
<text text-anchor="middle" x="338" y="-757.5" font-family="Helvetica,sans-Serif" font-size="10.00">VertexConstraint.h</text>
</a>
</g>
</g>
<!-- Node2 -->
<g id="node2" class="node">
<title>Node2</title>
<g id="a_node2"><a xlink:href="ConstraintsSet_8h.html" target="_top" xlink:title=" ">
<polygon fill="white" stroke="black" points="289.5,-694.5 289.5,-713.5 386.5,-713.5 386.5,-694.5 289.5,-694.5"/>
<text text-anchor="middle" x="338" y="-701.5" font-family="Helvetica,sans-Serif" font-size="10.00">ConstraintsSet.h</text>
</a>
</g>
</g>
<!-- Node1&#45;&gt;Node2 -->
<g id="edge1" class="edge">
<title>Node1&#45;&gt;Node2</title>
<path fill="none" stroke="midnightblue" d="M338,-739.8C338,-730.91 338,-720.78 338,-713.75"/>
<polygon fill="midnightblue" stroke="midnightblue" points="334.5,-740.08 338,-750.08 341.5,-740.08 334.5,-740.08"/>
</g>
<!-- Node33 -->
<g id="node33" class="node">
<title>Node33</title>
<g id="a_node33"><a xlink:href="Solution_8h.html" target="_top" xlink:title=" ">
<polygon fill="white" stroke="black" points="1666.5,-336.5 1666.5,-355.5 1731.5,-355.5 1731.5,-336.5 1666.5,-336.5"/>
<text text-anchor="middle" x="1699" y="-343.5" font-family="Helvetica,sans-Serif" font-size="10.00">Solution.h</text>
</a>
</g>
</g>
<!-- Node1&#45;&gt;Node33 -->
<g id="edge46" class="edge">
<title>Node1&#45;&gt;Node33</title>
<path fill="none" stroke="midnightblue" d="M401.97,-757.13C668.38,-748.95 1676,-713.72 1676,-649 1676,-649 1676,-649 1676,-462.5 1676,-421.81 1689.9,-374.59 1696.09,-355.58"/>
<polygon fill="midnightblue" stroke="midnightblue" points="401.58,-753.64 391.69,-757.45 401.79,-760.64 401.58,-753.64"/>
</g>
<!-- Node38 -->
<g id="node38" class="node">
<title>Node38</title>
<g id="a_node38"><a xlink:href="ConflictTreeNode_8h.html" target="_top" xlink:title=" ">
<polygon fill="white" stroke="black" points="24,-638.5 24,-657.5 132,-657.5 132,-638.5 24,-638.5"/>
<text text-anchor="middle" x="78" y="-645.5" font-family="Helvetica,sans-Serif" font-size="10.00">ConflictTreeNode.h</text>
</a>
</g>
</g>
<!-- Node1&#45;&gt;Node38 -->
<g id="edge55" class="edge">
<title>Node1&#45;&gt;Node38</title>
<path fill="none" stroke="midnightblue" d="M308.33,-746.45C254.93,-723.86 143.97,-676.91 98.31,-657.59"/>
<polygon fill="midnightblue" stroke="midnightblue" points="307.02,-749.7 317.6,-750.37 309.75,-743.25 307.02,-749.7"/>
</g>
<!-- Node3 -->
<g id="node3" class="node">
<title>Node3</title>
<g id="a_node3"><a xlink:href="Problem_8h.html" target="_top" xlink:title=" ">
<polygon fill="white" stroke="black" points="305,-638.5 305,-657.5 371,-657.5 371,-638.5 305,-638.5"/>
<text text-anchor="middle" x="338" y="-645.5" font-family="Helvetica,sans-Serif" font-size="10.00">Problem.h</text>
</a>
</g>
</g>
<!-- Node2&#45;&gt;Node3 -->
<g id="edge2" class="edge">
<title>Node2&#45;&gt;Node3</title>
<path fill="none" stroke="midnightblue" d="M338,-683.8C338,-674.91 338,-664.78 338,-657.75"/>
<polygon fill="midnightblue" stroke="midnightblue" points="334.5,-684.08 338,-694.08 341.5,-684.08 334.5,-684.08"/>
</g>
<!-- Node4 -->
<g id="node4" class="node">
<title>Node4</title>
<g id="a_node4"><a xlink:href="MultiAgentProblem_8h.html" target="_top" xlink:title=" ">
<polygon fill="white" stroke="black" points="278.5,-582.5 278.5,-601.5 397.5,-601.5 397.5,-582.5 278.5,-582.5"/>
<text text-anchor="middle" x="338" y="-589.5" font-family="Helvetica,sans-Serif" font-size="10.00">MultiAgentProblem.h</text>
</a>
</g>
</g>
<!-- Node3&#45;&gt;Node4 -->
<g id="edge3" class="edge">
<title>Node3&#45;&gt;Node4</title>
<path fill="none" stroke="midnightblue" d="M338,-627.8C338,-618.91 338,-608.78 338,-601.75"/>
<polygon fill="midnightblue" stroke="midnightblue" points="334.5,-628.08 338,-638.08 341.5,-628.08 334.5,-628.08"/>
</g>
<!-- Node10 -->
<g id="node10" class="node">
<title>Node10</title>
<g id="a_node10"><a xlink:href="GeneralAStar_8h.html" target="_top" xlink:title=" ">
<polygon fill="white" stroke="black" points="104.5,-224.5 104.5,-243.5 193.5,-243.5 193.5,-224.5 104.5,-224.5"/>
<text text-anchor="middle" x="149" y="-231.5" font-family="Helvetica,sans-Serif" font-size="10.00">GeneralAStar.h</text>
</a>
</g>
</g>
<!-- Node3&#45;&gt;Node10 -->
<g id="edge45" class="edge">
<title>Node3&#45;&gt;Node10</title>
<path fill="none" stroke="midnightblue" d="M294.85,-639.69C211.84,-624.4 38,-585.88 38,-531.5 38,-531.5 38,-531.5 38,-345 38,-294.27 97.23,-258.96 129.16,-243.61"/>
<polygon fill="midnightblue" stroke="midnightblue" points="294.28,-643.14 304.75,-641.48 295.53,-636.26 294.28,-643.14"/>
</g>
<!-- Node27 -->
<g id="node27" class="node">
<title>Node27</title>
<g id="a_node27"><a xlink:href="SingleAgentProblem_8h.html" target="_top" xlink:title=" ">
<polygon fill="white" stroke="black" points="1357.5,-582.5 1357.5,-601.5 1482.5,-601.5 1482.5,-582.5 1357.5,-582.5"/>
<text text-anchor="middle" x="1420" y="-589.5" font-family="Helvetica,sans-Serif" font-size="10.00">SingleAgentProblem.h</text>
</a>
</g>
</g>
<!-- Node3&#45;&gt;Node27 -->
<g id="edge34" class="edge">
<title>Node3&#45;&gt;Node27</title>
<path fill="none" stroke="midnightblue" d="M381.48,-644.83C549.81,-636.43 1159.02,-606.02 1357.22,-596.13"/>
<polygon fill="midnightblue" stroke="midnightblue" points="381.08,-641.35 371.27,-645.34 381.43,-648.34 381.08,-641.35"/>
</g>
<!-- Node5 -->
<g id="node5" class="node">
<title>Node5</title>
<g id="a_node5"><a xlink:href="ODMultiAgentAStarProblem_8h.html" target="_top" xlink:title=" ">
<polygon fill="white" stroke="black" points="905.5,-521 905.5,-540 1066.5,-540 1066.5,-521 905.5,-521"/>
<text text-anchor="middle" x="986" y="-528" font-family="Helvetica,sans-Serif" font-size="10.00">ODMultiAgentAStarProblem.h</text>
</a>
</g>
</g>
<!-- Node4&#45;&gt;Node5 -->
<g id="edge4" class="edge">
<title>Node4&#45;&gt;Node5</title>
<path fill="none" stroke="midnightblue" d="M407.85,-587.15C513.68,-580.91 720.91,-567.13 896,-546 909.51,-544.37 924.1,-542.2 937.52,-540.03"/>
<polygon fill="midnightblue" stroke="midnightblue" points="407.39,-583.67 397.61,-587.75 407.8,-590.66 407.39,-583.67"/>
</g>
<!-- Node11 -->
<g id="node11" class="node">
<title>Node11</title>
<g id="a_node11"><a xlink:href="ConflictBasedSearch_8h.html" target="_top" xlink:title=" ">
<polygon fill="white" stroke="black" points="21.5,-168.5 21.5,-187.5 146.5,-187.5 146.5,-168.5 21.5,-168.5"/>
<text text-anchor="middle" x="84" y="-175.5" font-family="Helvetica,sans-Serif" font-size="10.00">ConflictBasedSearch.h</text>
</a>
</g>
</g>
<!-- Node4&#45;&gt;Node11 -->
<g id="edge31" class="edge">
<title>Node4&#45;&gt;Node11</title>
<path fill="none" stroke="midnightblue" d="M268.35,-585.82C207.19,-579.88 124.29,-567.99 100,-546 72,-520.66 76,-502.26 76,-464.5 76,-464.5 76,-464.5 76,-289 76,-251.09 80.79,-206.02 82.95,-187.54"/>
<polygon fill="midnightblue" stroke="midnightblue" points="268.07,-589.31 278.35,-586.76 268.72,-582.34 268.07,-589.31"/>
</g>
<!-- Node13 -->
<g id="node13" class="node">
<title>Node13</title>
<g id="a_node13"><a xlink:href="SimpleIndependenceDetection_8h.html" target="_top" xlink:title=" ">
<polygon fill="white" stroke="black" points="1518.5,-112.5 1518.5,-131.5 1693.5,-131.5 1693.5,-112.5 1518.5,-112.5"/>
<text text-anchor="middle" x="1606" y="-119.5" font-family="Helvetica,sans-Serif" font-size="10.00">SimpleIndependenceDetection.h</text>
</a>
</g>
</g>
<!-- Node4&#45;&gt;Node13 -->
<g id="edge32" class="edge">
<title>Node4&#45;&gt;Node13</title>
<path fill="none" stroke="midnightblue" d="M267.91,-589.31C228.99,-584.97 181.93,-573.71 149,-546 118.84,-520.62 114,-503.92 114,-464.5 114,-464.5 114,-464.5 114,-345 114,-202.11 1198.42,-141.5 1518.24,-126.74"/>
<polygon fill="midnightblue" stroke="midnightblue" points="267.84,-592.82 278.13,-590.31 268.52,-585.85 267.84,-592.82"/>
</g>
<!-- Node17 -->
<g id="node17" class="node">
<title>Node17</title>
<g id="a_node17"><a xlink:href="CooperativeAStar_8h.html" target="_top" xlink:title=" ">
<polygon fill="white" stroke="black" points="772,-224.5 772,-243.5 882,-243.5 882,-224.5 772,-224.5"/>
<text text-anchor="middle" x="827" y="-231.5" font-family="Helvetica,sans-Serif" font-size="10.00">CooperativeAStar.h</text>
</a>
</g>
</g>
<!-- Node4&#45;&gt;Node17 -->
<g id="edge33" class="edge">
<title>Node4&#45;&gt;Node17</title>
<path fill="none" stroke="midnightblue" d="M267.95,-588.34C234.35,-583.43 196.06,-571.93 171,-546 145.15,-519.25 152,-501.69 152,-464.5 152,-464.5 152,-464.5 152,-345 152,-282.37 610.55,-248.25 771.76,-238.2"/>
<polygon fill="midnightblue" stroke="midnightblue" points="267.84,-591.86 278.21,-589.66 268.73,-584.91 267.84,-591.86"/>
</g>
<!-- Node20 -->
<g id="node20" class="node">
<title>Node20</title>
<g id="a_node20"><a xlink:href="ODMultiAgentAStarProblemWithConstraints_8h.html" target="_top" xlink:title=" ">
<polygon fill="white" stroke="black" points="180,-515.5 180,-545.5 332,-545.5 332,-515.5 180,-515.5"/>
<text text-anchor="start" x="188" y="-533.5" font-family="Helvetica,sans-Serif" font-size="10.00">ODMultiAgentAStarProblem</text>
<text text-anchor="middle" x="256" y="-522.5" font-family="Helvetica,sans-Serif" font-size="10.00">WithConstraints.h</text>
</a>
</g>
</g>
<!-- Node4&#45;&gt;Node20 -->
<g id="edge21" class="edge">
<title>Node4&#45;&gt;Node20</title>
<path fill="none" stroke="midnightblue" d="M317.97,-576.47C304.99,-567.05 288.17,-554.84 275.33,-545.52"/>
<polygon fill="midnightblue" stroke="midnightblue" points="316.1,-579.43 326.25,-582.48 320.21,-573.77 316.1,-579.43"/>
</g>
<!-- Node22 -->
<g id="node22" class="node">
<title>Node22</title>
<g id="a_node22"><a xlink:href="StandardMultiAgentAStarProblem_8h.html" target="_top" xlink:title=" ">
<polygon fill="white" stroke="black" points="499.5,-521 499.5,-540 688.5,-540 688.5,-521 499.5,-521"/>
<text text-anchor="middle" x="594" y="-528" font-family="Helvetica,sans-Serif" font-size="10.00">StandardMultiAgentAStarProblem.h</text>
</a>
</g>
</g>
<!-- Node4&#45;&gt;Node22 -->
<g id="edge24" class="edge">
<title>Node4&#45;&gt;Node22</title>
<path fill="none" stroke="midnightblue" d="M384.53,-580.19C434.2,-568.64 511.89,-550.58 557.39,-540.01"/>
<polygon fill="midnightblue" stroke="midnightblue" points="383.63,-576.8 374.68,-582.48 385.21,-583.62 383.63,-576.8"/>
</g>
<!-- Node24 -->
<g id="node24" class="node">
<title>Node24</title>
<g id="a_node24"><a xlink:href="StandardMultiAgentAStarProblemWithConstraints_8h.html" target="_top" xlink:title=" ">
<polygon fill="white" stroke="black" points="707,-515.5 707,-545.5 887,-545.5 887,-515.5 707,-515.5"/>
<text text-anchor="start" x="715" y="-533.5" font-family="Helvetica,sans-Serif" font-size="10.00">StandardMultiAgentAStarProblem</text>
<text text-anchor="middle" x="797" y="-522.5" font-family="Helvetica,sans-Serif" font-size="10.00">WithConstraints.h</text>
</a>
</g>
</g>
<!-- Node4&#45;&gt;Node24 -->
<g id="edge27" class="edge">
<title>Node4&#45;&gt;Node24</title>
<path fill="none" stroke="midnightblue" d="M408.11,-582.62C480.51,-573.87 596.73,-559.55 697,-546 700.22,-545.57 703.49,-545.12 706.8,-544.66"/>
<polygon fill="midnightblue" stroke="midnightblue" points="407.26,-579.19 397.76,-583.87 408.1,-586.14 407.26,-579.19"/>
</g>
<!-- Node26 -->
<g id="node26" class="node">
<title>Node26</title>
<g id="a_node26"><a xlink:href="MultiAgentProblem_8cpp.html" target="_top" xlink:title=" ">
<polygon fill="white" stroke="black" points="350.5,-521 350.5,-540 481.5,-540 481.5,-521 350.5,-521"/>
<text text-anchor="middle" x="416" y="-528" font-family="Helvetica,sans-Serif" font-size="10.00">MultiAgentProblem.cpp</text>
</a>
</g>
</g>
<!-- Node4&#45;&gt;Node26 -->
<g id="edge30" class="edge">
<title>Node4&#45;&gt;Node26</title>
<path fill="none" stroke="midnightblue" d="M357.28,-576.29C372.24,-564.88 392.46,-549.46 404.85,-540.01"/>
<polygon fill="midnightblue" stroke="midnightblue" points="355,-573.63 349.18,-582.48 359.25,-579.19 355,-573.63"/>
</g>
<!-- Node6 -->
<g id="node6" class="node">
<title>Node6</title>
<g id="a_node6"><a xlink:href="ODMultiAgentAStarProblem_8cpp.html" target="_top" xlink:title=" ">
<polygon fill="white" stroke="black" points="906,-454 906,-473 1078,-473 1078,-454 906,-454"/>
<text text-anchor="middle" x="992" y="-461" font-family="Helvetica,sans-Serif" font-size="10.00">ODMultiAgentAStarProblem.cpp</text>
</a>
</g>
</g>
<!-- Node5&#45;&gt;Node6 -->
<g id="edge5" class="edge">
<title>Node5&#45;&gt;Node6</title>
<path fill="none" stroke="midnightblue" d="M987.75,-510.54C988.89,-498.17 990.33,-482.62 991.2,-473.13"/>
<polygon fill="midnightblue" stroke="midnightblue" points="984.24,-510.45 986.81,-520.73 991.21,-511.1 984.24,-510.45"/>
</g>
<!-- Node7 -->
<g id="node7" class="node">
<title>Node7</title>
<g id="a_node7"><a xlink:href="HeuristicManhattan_8h.html" target="_top" xlink:title=" ">
<polygon fill="white" stroke="black" points="766,-454 766,-473 888,-473 888,-454 766,-454"/>
<text text-anchor="middle" x="827" y="-461" font-family="Helvetica,sans-Serif" font-size="10.00">HeuristicManhattan.h</text>
</a>
</g>
</g>
<!-- Node5&#45;&gt;Node7 -->
<g id="edge6" class="edge">
<title>Node5&#45;&gt;Node7</title>
<path fill="none" stroke="midnightblue" d="M955.27,-516.94C923.69,-504.03 875.38,-484.28 847.95,-473.06"/>
<polygon fill="midnightblue" stroke="midnightblue" points="954.31,-520.32 964.89,-520.87 956.95,-513.84 954.31,-520.32"/>
</g>
<!-- Node8 -->
<g id="node8" class="node">
<title>Node8</title>
<g id="a_node8"><a xlink:href="HeuristicOptimal_8h.html" target="_top" xlink:title=" ">
<polygon fill="white" stroke="black" points="773,-336.5 773,-355.5 881,-355.5 881,-336.5 773,-336.5"/>
<text text-anchor="middle" x="827" y="-343.5" font-family="Helvetica,sans-Serif" font-size="10.00">HeuristicOptimal.h</text>
</a>
</g>
</g>
<!-- Node7&#45;&gt;Node8 -->
<g id="edge7" class="edge">
<title>Node7&#45;&gt;Node8</title>
<path fill="none" stroke="midnightblue" d="M827,-443.66C827,-418.37 827,-374.44 827,-355.78"/>
<polygon fill="midnightblue" stroke="midnightblue" points="823.5,-443.82 827,-453.82 830.5,-443.82 823.5,-443.82"/>
</g>
<!-- Node18 -->
<g id="node18" class="node">
<title>Node18</title>
<g id="a_node18"><a xlink:href="ReverseResumableAStar_8h.html" target="_top" xlink:title=" ">
<polygon fill="white" stroke="black" points="880,-392.5 880,-411.5 1026,-411.5 1026,-392.5 880,-392.5"/>
<text text-anchor="middle" x="953" y="-399.5" font-family="Helvetica,sans-Serif" font-size="10.00">ReverseResumableAStar.h</text>
</a>
</g>
</g>
<!-- Node7&#45;&gt;Node18 -->
<g id="edge18" class="edge">
<title>Node7&#45;&gt;Node18</title>
<path fill="none" stroke="midnightblue" d="M854.16,-449.67C878.61,-438.13 913.85,-421.49 934.98,-411.51"/>
<polygon fill="midnightblue" stroke="midnightblue" points="852.6,-446.54 845.05,-453.98 855.59,-452.87 852.6,-446.54"/>
</g>
<!-- Node9 -->
<g id="node9" class="node">
<title>Node9</title>
<g id="a_node9"><a xlink:href="AStar_8h.html" target="_top" xlink:title=" ">
<polygon fill="white" stroke="black" points="801.5,-280.5 801.5,-299.5 852.5,-299.5 852.5,-280.5 801.5,-280.5"/>
<text text-anchor="middle" x="827" y="-287.5" font-family="Helvetica,sans-Serif" font-size="10.00">AStar.h</text>
</a>
</g>
</g>
<!-- Node8&#45;&gt;Node9 -->
<g id="edge8" class="edge">
<title>Node8&#45;&gt;Node9</title>
<path fill="none" stroke="midnightblue" d="M827,-325.8C827,-316.91 827,-306.78 827,-299.75"/>
<polygon fill="midnightblue" stroke="midnightblue" points="823.5,-326.08 827,-336.08 830.5,-326.08 823.5,-326.08"/>
</g>
<!-- Node9&#45;&gt;Node10 -->
<g id="edge9" class="edge">
<title>Node9&#45;&gt;Node10</title>
<path fill="none" stroke="midnightblue" d="M791.26,-286.15C676.91,-277.05 320.11,-248.63 193.84,-238.57"/>
<polygon fill="midnightblue" stroke="midnightblue" points="791,-289.64 801.25,-286.95 791.56,-282.67 791,-289.64"/>
</g>
<!-- Node9&#45;&gt;Node17 -->
<g id="edge17" class="edge">
<title>Node9&#45;&gt;Node17</title>
<path fill="none" stroke="midnightblue" d="M827,-269.8C827,-260.91 827,-250.78 827,-243.75"/>
<polygon fill="midnightblue" stroke="midnightblue" points="823.5,-270.08 827,-280.08 830.5,-270.08 823.5,-270.08"/>
</g>
<!-- Node10&#45;&gt;Node11 -->
<g id="edge10" class="edge">
<title>Node10&#45;&gt;Node11</title>
<path fill="none" stroke="midnightblue" d="M130.73,-217.82C119.08,-208.15 104.4,-195.95 94.63,-187.83"/>
<polygon fill="midnightblue" stroke="midnightblue" points="128.63,-220.63 138.56,-224.32 133.1,-215.24 128.63,-220.63"/>
</g>
<!-- Node10&#45;&gt;Node13 -->
<g id="edge16" class="edge">
<title>Node10&#45;&gt;Node13</title>
<path fill="none" stroke="midnightblue" d="M159.16,-215.47C169.3,-199.84 186.46,-177.96 208,-168 267.5,-140.5 1221.3,-127.38 1518.37,-123.94"/>
<polygon fill="midnightblue" stroke="midnightblue" points="156.03,-213.87 153.77,-224.22 161.99,-217.54 156.03,-213.87"/>
</g>
<!-- Node12 -->
<g id="node12" class="node">
<title>Node12</title>
<g id="a_node12"><a xlink:href="ConflictBasedSearch_8cpp.html" target="_top" xlink:title=" ">
<polygon fill="white" stroke="black" points="15.5,-112.5 15.5,-131.5 152.5,-131.5 152.5,-112.5 15.5,-112.5"/>
<text text-anchor="middle" x="84" y="-119.5" font-family="Helvetica,sans-Serif" font-size="10.00">ConflictBasedSearch.cpp</text>
</a>
</g>
</g>
<!-- Node11&#45;&gt;Node12 -->
<g id="edge11" class="edge">
<title>Node11&#45;&gt;Node12</title>
<path fill="none" stroke="midnightblue" d="M84,-157.8C84,-148.91 84,-138.78 84,-131.75"/>
<polygon fill="midnightblue" stroke="midnightblue" points="80.5,-158.08 84,-168.08 87.5,-158.08 80.5,-158.08"/>
</g>
<!-- Node11&#45;&gt;Node13 -->
<g id="edge12" class="edge">
<title>Node11&#45;&gt;Node13</title>
<path fill="none" stroke="midnightblue" d="M156.71,-168.72C159.85,-168.46 162.96,-168.21 166,-168 677.48,-131.99 1293.2,-124.8 1518.22,-123.36"/>
<polygon fill="midnightblue" stroke="midnightblue" points="156.28,-165.24 146.63,-169.62 156.9,-172.21 156.28,-165.24"/>
</g>
<!-- Node14 -->
<g id="node14" class="node">
<title>Node14</title>
<g id="a_node14"><a xlink:href="IndependenceDetection_8h.html" target="_top" xlink:title=" ">
<polygon fill="white" stroke="black" points="1719.5,-56.5 1719.5,-75.5 1860.5,-75.5 1860.5,-56.5 1719.5,-56.5"/>
<text text-anchor="middle" x="1790" y="-63.5" font-family="Helvetica,sans-Serif" font-size="10.00">IndependenceDetection.h</text>
</a>
</g>
</g>
<!-- Node13&#45;&gt;Node14 -->
<g id="edge13" class="edge">
<title>Node13&#45;&gt;Node14</title>
<path fill="none" stroke="midnightblue" d="M1644.95,-109.57C1679.66,-99.38 1729.68,-84.7 1760.98,-75.52"/>
<polygon fill="midnightblue" stroke="midnightblue" points="1643.77,-106.27 1635.16,-112.44 1645.74,-112.99 1643.77,-106.27"/>
</g>
<!-- Node16 -->
<g id="node16" class="node">
<title>Node16</title>
<g id="a_node16"><a xlink:href="SimpleIndependenceDetection_8cpp.html" target="_top" xlink:title=" ">
<polygon fill="white" stroke="black" points="1513,-56.5 1513,-75.5 1699,-75.5 1699,-56.5 1513,-56.5"/>
<text text-anchor="middle" x="1606" y="-63.5" font-family="Helvetica,sans-Serif" font-size="10.00">SimpleIndependenceDetection.cpp</text>
</a>
</g>
</g>
<!-- Node13&#45;&gt;Node16 -->
<g id="edge15" class="edge">
<title>Node13&#45;&gt;Node16</title>
<path fill="none" stroke="midnightblue" d="M1606,-101.8C1606,-92.91 1606,-82.78 1606,-75.75"/>
<polygon fill="midnightblue" stroke="midnightblue" points="1602.5,-102.08 1606,-112.08 1609.5,-102.08 1602.5,-102.08"/>
</g>
<!-- Node15 -->
<g id="node15" class="node">
<title>Node15</title>
<g id="a_node15"><a xlink:href="IndependenceDetection_8cpp.html" target="_top" xlink:title=" ">
<polygon fill="white" stroke="black" points="1714,-0.5 1714,-19.5 1866,-19.5 1866,-0.5 1714,-0.5"/>
<text text-anchor="middle" x="1790" y="-7.5" font-family="Helvetica,sans-Serif" font-size="10.00">IndependenceDetection.cpp</text>
</a>
</g>
</g>
<!-- Node14&#45;&gt;Node15 -->
<g id="edge14" class="edge">
<title>Node14&#45;&gt;Node15</title>
<path fill="none" stroke="midnightblue" d="M1790,-45.8C1790,-36.91 1790,-26.78 1790,-19.75"/>
<polygon fill="midnightblue" stroke="midnightblue" points="1786.5,-46.08 1790,-56.08 1793.5,-46.08 1786.5,-46.08"/>
</g>
<!-- Node18&#45;&gt;Node8 -->
<g id="edge19" class="edge">
<title>Node18&#45;&gt;Node8</title>
<path fill="none" stroke="midnightblue" d="M923.84,-388.5C900.22,-378.38 867.57,-364.39 846.87,-355.52"/>
<polygon fill="midnightblue" stroke="midnightblue" points="922.46,-391.72 933.03,-392.44 925.22,-385.29 922.46,-391.72"/>
</g>
<!-- Node19 -->
<g id="node19" class="node">
<title>Node19</title>
<g id="a_node19"><a xlink:href="ReverseResumableAStar_8cpp.html" target="_top" xlink:title=" ">
<polygon fill="white" stroke="black" points="899.5,-336.5 899.5,-355.5 1056.5,-355.5 1056.5,-336.5 899.5,-336.5"/>
<text text-anchor="middle" x="978" y="-343.5" font-family="Helvetica,sans-Serif" font-size="10.00">ReverseResumableAStar.cpp</text>
</a>
</g>
</g>
<!-- Node18&#45;&gt;Node19 -->
<g id="edge20" class="edge">
<title>Node18&#45;&gt;Node19</title>
<path fill="none" stroke="midnightblue" d="M961.34,-382.98C965.58,-373.82 970.55,-363.09 973.95,-355.75"/>
<polygon fill="midnightblue" stroke="midnightblue" points="958.15,-381.54 957.13,-392.08 964.51,-384.48 958.15,-381.54"/>
</g>
<!-- Node20&#45;&gt;Node7 -->
<g id="edge23" class="edge">
<title>Node20&#45;&gt;Node7</title>
<path fill="none" stroke="midnightblue" d="M342.44,-514.89C526.81,-491.87 576.6,-505.4 757,-479 767.68,-477.44 779.19,-475.26 789.73,-473.07"/>
<polygon fill="midnightblue" stroke="midnightblue" points="341.89,-511.43 332.41,-516.16 342.77,-518.37 341.89,-511.43"/>
</g>
<!-- Node21 -->
<g id="node21" class="node">
<title>Node21</title>
<g id="a_node21"><a xlink:href="ODMultiAgentAStarProblemWithConstraints_8cpp.html" target="_top" xlink:title=" ">
<polygon fill="white" stroke="black" points="180,-448.5 180,-478.5 332,-478.5 332,-448.5 180,-448.5"/>
<text text-anchor="start" x="188" y="-466.5" font-family="Helvetica,sans-Serif" font-size="10.00">ODMultiAgentAStarProblem</text>
<text text-anchor="middle" x="256" y="-455.5" font-family="Helvetica,sans-Serif" font-size="10.00">WithConstraints.cpp</text>
</a>
</g>
</g>
<!-- Node20&#45;&gt;Node21 -->
<g id="edge22" class="edge">
<title>Node20&#45;&gt;Node21</title>
<path fill="none" stroke="midnightblue" d="M256,-505.11C256,-496.15 256,-486.32 256,-478.58"/>
<polygon fill="midnightblue" stroke="midnightblue" points="252.5,-505.4 256,-515.4 259.5,-505.4 252.5,-505.4"/>
</g>
<!-- Node22&#45;&gt;Node7 -->
<g id="edge26" class="edge">
<title>Node22&#45;&gt;Node7</title>
<path fill="none" stroke="midnightblue" d="M634.61,-518.17C680.68,-505.32 754.8,-484.64 796.3,-473.06"/>
<polygon fill="midnightblue" stroke="midnightblue" points="633.63,-514.81 624.94,-520.87 635.51,-521.55 633.63,-514.81"/>
</g>
<!-- Node23 -->
<g id="node23" class="node">
<title>Node23</title>
<g id="a_node23"><a xlink:href="StandardMultiAgentAStarProblem_8cpp.html" target="_top" xlink:title=" ">
<polygon fill="white" stroke="black" points="350,-454 350,-473 550,-473 550,-454 350,-454"/>
<text text-anchor="middle" x="450" y="-461" font-family="Helvetica,sans-Serif" font-size="10.00">StandardMultiAgentAStarProblem.cpp</text>
</a>
</g>
</g>
<!-- Node22&#45;&gt;Node23 -->
<g id="edge25" class="edge">
<title>Node22&#45;&gt;Node23</title>
<path fill="none" stroke="midnightblue" d="M565.45,-516.61C536.93,-503.74 493.88,-484.31 469.2,-473.17"/>
<polygon fill="midnightblue" stroke="midnightblue" points="564.32,-519.94 574.88,-520.87 567.2,-513.56 564.32,-519.94"/>
</g>
<!-- Node24&#45;&gt;Node7 -->
<g id="edge29" class="edge">
<title>Node24&#45;&gt;Node7</title>
<path fill="none" stroke="midnightblue" d="M807.71,-506.29C813.01,-494.8 819.09,-481.63 822.99,-473.19"/>
<polygon fill="midnightblue" stroke="midnightblue" points="804.52,-504.85 803.51,-515.4 810.88,-507.78 804.52,-504.85"/>
</g>
<!-- Node25 -->
<g id="node25" class="node">
<title>Node25</title>
<g id="a_node25"><a xlink:href="StandardMultiAgentAStarProblemWithConstraints_8cpp.html" target="_top" xlink:title=" ">
<polygon fill="white" stroke="black" points="568,-448.5 568,-478.5 748,-478.5 748,-448.5 568,-448.5"/>
<text text-anchor="start" x="576" y="-466.5" font-family="Helvetica,sans-Serif" font-size="10.00">StandardMultiAgentAStarProblem</text>
<text text-anchor="middle" x="658" y="-455.5" font-family="Helvetica,sans-Serif" font-size="10.00">WithConstraints.cpp</text>
</a>
</g>
</g>
<!-- Node24&#45;&gt;Node25 -->
<g id="edge28" class="edge">
<title>Node24&#45;&gt;Node25</title>
<path fill="none" stroke="midnightblue" d="M757.72,-511.13C735.63,-500.8 708.49,-488.11 688.1,-478.58"/>
<polygon fill="midnightblue" stroke="midnightblue" points="756.3,-514.33 766.84,-515.4 759.26,-507.99 756.3,-514.33"/>
</g>
<!-- Node27&#45;&gt;Node13 -->
<g id="edge43" class="edge">
<title>Node27&#45;&gt;Node13</title>
<path fill="none" stroke="midnightblue" d="M1492.88,-588.14C1529.54,-583.24 1572.55,-571.82 1603,-546 1633.07,-520.51 1638,-503.92 1638,-464.5 1638,-464.5 1638,-464.5 1638,-345 1638,-261.28 1615.43,-161.6 1608.2,-131.82"/>
<polygon fill="midnightblue" stroke="midnightblue" points="1492.23,-584.69 1482.72,-589.35 1493.06,-591.64 1492.23,-584.69"/>
</g>
<!-- Node27&#45;&gt;Node17 -->
<g id="edge44" class="edge">
<title>Node27&#45;&gt;Node17</title>
<path fill="none" stroke="midnightblue" d="M1492.78,-586.84C1523.87,-581.37 1558.18,-569.83 1581,-546 1606.72,-519.13 1600,-501.69 1600,-464.5 1600,-464.5 1600,-464.5 1600,-345 1600,-272.44 1059.2,-244.3 882.28,-237.04"/>
<polygon fill="midnightblue" stroke="midnightblue" points="1492.16,-583.39 1482.82,-588.41 1493.24,-590.31 1492.16,-583.39"/>
</g>
<!-- Node28 -->
<g id="node28" class="node">
<title>Node28</title>
<g id="a_node28"><a xlink:href="SingleAgentAStarProblem_8h.html" target="_top" xlink:title=" ">
<polygon fill="white" stroke="black" points="1084.5,-521 1084.5,-540 1235.5,-540 1235.5,-521 1084.5,-521"/>
<text text-anchor="middle" x="1160" y="-528" font-family="Helvetica,sans-Serif" font-size="10.00">SingleAgentAStarProblem.h</text>
</a>
</g>
</g>
<!-- Node27&#45;&gt;Node28 -->
<g id="edge35" class="edge">
<title>Node27&#45;&gt;Node28</title>
<path fill="none" stroke="midnightblue" d="M1372.75,-580.19C1322.3,-568.64 1243.39,-550.58 1197.18,-540.01"/>
<polygon fill="midnightblue" stroke="midnightblue" points="1372.22,-583.66 1382.75,-582.48 1373.78,-576.83 1372.22,-583.66"/>
</g>
<!-- Node30 -->
<g id="node30" class="node">
<title>Node30</title>
<g id="a_node30"><a xlink:href="SingleAgentAStarProblemWithConstraints_8h.html" target="_top" xlink:title=" ">
<polygon fill="white" stroke="black" points="1254,-515.5 1254,-545.5 1418,-545.5 1418,-515.5 1254,-515.5"/>
<text text-anchor="start" x="1262" y="-533.5" font-family="Helvetica,sans-Serif" font-size="10.00">SingleAgentAStarProblemWith</text>
<text text-anchor="middle" x="1336" y="-522.5" font-family="Helvetica,sans-Serif" font-size="10.00">Constraints.h</text>
</a>
</g>
</g>
<!-- Node27&#45;&gt;Node30 -->
<g id="edge39" class="edge">
<title>Node27&#45;&gt;Node30</title>
<path fill="none" stroke="midnightblue" d="M1399.48,-576.47C1386.18,-567.05 1368.95,-554.84 1355.8,-545.52"/>
<polygon fill="midnightblue" stroke="midnightblue" points="1397.78,-579.55 1407.96,-582.48 1401.83,-573.84 1397.78,-579.55"/>
</g>
<!-- Node32 -->
<g id="node32" class="node">
<title>Node32</title>
<g id="a_node32"><a xlink:href="SingleAgentProblem_8cpp.html" target="_top" xlink:title=" ">
<polygon fill="white" stroke="black" points="1436,-521 1436,-540 1572,-540 1572,-521 1436,-521"/>
<text text-anchor="middle" x="1504" y="-528" font-family="Helvetica,sans-Serif" font-size="10.00">SingleAgentProblem.cpp</text>
</a>
</g>
</g>
<!-- Node27&#45;&gt;Node32 -->
<g id="edge42" class="edge">
<title>Node27&#45;&gt;Node32</title>
<path fill="none" stroke="midnightblue" d="M1440.31,-576.61C1456.47,-565.17 1478.52,-549.55 1491.99,-540.01"/>
<polygon fill="midnightblue" stroke="midnightblue" points="1438.17,-573.84 1432.04,-582.48 1442.22,-579.55 1438.17,-573.84"/>
</g>
<!-- Node28&#45;&gt;Node7 -->
<g id="edge37" class="edge">
<title>Node28&#45;&gt;Node7</title>
<path fill="none" stroke="midnightblue" d="M1104.43,-519.07C1051.17,-509.02 968.53,-493.28 897,-479 887.51,-477.11 877.3,-475.02 867.7,-473.03"/>
<polygon fill="midnightblue" stroke="midnightblue" points="1103.87,-522.53 1114.35,-520.94 1105.17,-515.65 1103.87,-522.53"/>
</g>
<!-- Node28&#45;&gt;Node18 -->
<g id="edge38" class="edge">
<title>Node28&#45;&gt;Node18</title>
<path fill="none" stroke="midnightblue" d="M1198.58,-517.65C1238.79,-503.38 1292.65,-477.58 1267,-448 1236.47,-412.79 1109.06,-404.47 1026.22,-402.87"/>
<polygon fill="midnightblue" stroke="midnightblue" points="1197.29,-514.4 1188.96,-520.95 1199.56,-521.02 1197.29,-514.4"/>
</g>
<!-- Node29 -->
<g id="node29" class="node">
<title>Node29</title>
<g id="a_node29"><a xlink:href="SingleAgentAStarProblem_8cpp.html" target="_top" xlink:title=" ">
<polygon fill="white" stroke="black" points="1096,-454 1096,-473 1258,-473 1258,-454 1096,-454"/>
<text text-anchor="middle" x="1177" y="-461" font-family="Helvetica,sans-Serif" font-size="10.00">SingleAgentAStarProblem.cpp</text>
</a>
</g>
</g>
<!-- Node28&#45;&gt;Node29 -->
<g id="edge36" class="edge">
<title>Node28&#45;&gt;Node29</title>
<path fill="none" stroke="midnightblue" d="M1164.86,-510.91C1168.11,-498.49 1172.24,-482.72 1174.74,-473.13"/>
<polygon fill="midnightblue" stroke="midnightblue" points="1161.44,-510.17 1162.29,-520.73 1168.21,-511.94 1161.44,-510.17"/>
</g>
<!-- Node30&#45;&gt;Node7 -->
<g id="edge41" class="edge">
<title>Node30&#45;&gt;Node7</title>
<path fill="none" stroke="midnightblue" d="M1243.36,-514.84C1089.05,-495.09 1047.36,-502.29 897,-479 886.45,-477.37 875.09,-475.19 864.65,-473.03"/>
<polygon fill="midnightblue" stroke="midnightblue" points="1243.32,-518.36 1253.69,-516.18 1244.22,-511.42 1243.32,-518.36"/>
</g>
<!-- Node31 -->
<g id="node31" class="node">
<title>Node31</title>
<g id="a_node31"><a xlink:href="SingleAgentAStarProblemWithConstraints_8cpp.html" target="_top" xlink:title=" ">
<polygon fill="white" stroke="black" points="1314,-448.5 1314,-478.5 1478,-478.5 1478,-448.5 1314,-448.5"/>
<text text-anchor="start" x="1322" y="-466.5" font-family="Helvetica,sans-Serif" font-size="10.00">SingleAgentAStarProblemWith</text>
<text text-anchor="middle" x="1396" y="-455.5" font-family="Helvetica,sans-Serif" font-size="10.00">Constraints.cpp</text>
</a>
</g>
</g>
<!-- Node30&#45;&gt;Node31 -->
<g id="edge40" class="edge">
<title>Node30&#45;&gt;Node31</title>
<path fill="none" stroke="midnightblue" d="M1355.82,-508.02C1364.76,-498.34 1375.07,-487.17 1383.01,-478.58"/>
<polygon fill="midnightblue" stroke="midnightblue" points="1353.23,-505.67 1349.02,-515.4 1358.37,-510.42 1353.23,-505.67"/>
</g>
<!-- Node33&#45;&gt;Node9 -->
<g id="edge48" class="edge">
<title>Node33&#45;&gt;Node9</title>
<path fill="none" stroke="midnightblue" d="M1656.37,-342.36C1502.09,-332.81 975.42,-300.19 852.71,-292.59"/>
<polygon fill="midnightblue" stroke="midnightblue" points="1656.21,-345.86 1666.41,-342.98 1656.64,-338.87 1656.21,-345.86"/>
</g>
<!-- Node34 -->
<g id="node34" class="node">
<title>Node34</title>
<g id="a_node34"><a xlink:href="Solution_8cpp.html" target="_top" xlink:title=" ">
<polygon fill="white" stroke="black" points="1727.5,-280.5 1727.5,-299.5 1804.5,-299.5 1804.5,-280.5 1727.5,-280.5"/>
<text text-anchor="middle" x="1766" y="-287.5" font-family="Helvetica,sans-Serif" font-size="10.00">Solution.cpp</text>
</a>
</g>
</g>
<!-- Node33&#45;&gt;Node34 -->
<g id="edge47" class="edge">
<title>Node33&#45;&gt;Node34</title>
<path fill="none" stroke="midnightblue" d="M1717.83,-329.82C1729.84,-320.15 1744.97,-307.95 1755.04,-299.83"/>
<polygon fill="midnightblue" stroke="midnightblue" points="1715.35,-327.32 1709.76,-336.32 1719.75,-332.77 1715.35,-327.32"/>
</g>
<!-- Node35 -->
<g id="node35" class="node">
<title>Node35</title>
<g id="a_node35"><a xlink:href="Group_8h.html" target="_top" xlink:title=" ">
<polygon fill="white" stroke="black" points="1684.5,-224.5 1684.5,-243.5 1739.5,-243.5 1739.5,-224.5 1684.5,-224.5"/>
<text text-anchor="middle" x="1712" y="-231.5" font-family="Helvetica,sans-Serif" font-size="10.00">Group.h</text>
</a>
</g>
</g>
<!-- Node33&#45;&gt;Node35 -->
<g id="edge49" class="edge">
<title>Node33&#45;&gt;Node35</title>
<path fill="none" stroke="midnightblue" d="M1701.2,-326.35C1704.05,-302.25 1708.89,-261.31 1710.98,-243.59"/>
<polygon fill="midnightblue" stroke="midnightblue" points="1697.72,-326.03 1700.02,-336.37 1704.67,-326.85 1697.72,-326.03"/>
</g>
<!-- Node35&#45;&gt;Node13 -->
<g id="edge54" class="edge">
<title>Node35&#45;&gt;Node13</title>
<path fill="none" stroke="midnightblue" d="M1694.28,-217.56C1684.77,-209.08 1672.99,-198.22 1663,-188 1644.12,-168.68 1623.61,-144.39 1613.1,-131.68"/>
<polygon fill="midnightblue" stroke="midnightblue" points="1692.13,-220.34 1701.95,-224.34 1696.77,-215.09 1692.13,-220.34"/>
</g>
<!-- Node36 -->
<g id="node36" class="node">
<title>Node36</title>
<g id="a_node36"><a xlink:href="AlreadyConflictedBeforeSet_8h.html" target="_top" xlink:title=" ">
<polygon fill="white" stroke="black" points="1712,-112.5 1712,-131.5 1872,-131.5 1872,-112.5 1712,-112.5"/>
<text text-anchor="middle" x="1792" y="-119.5" font-family="Helvetica,sans-Serif" font-size="10.00">AlreadyConflictedBeforeSet.h</text>
</a>
</g>
</g>
<!-- Node35&#45;&gt;Node36 -->
<g id="edge50" class="edge">
<title>Node35&#45;&gt;Node36</title>
<path fill="none" stroke="midnightblue" d="M1738.09,-219.11C1750.28,-211.42 1764.05,-200.81 1773,-188 1785.25,-170.46 1789.69,-145.01 1791.23,-131.76"/>
<polygon fill="midnightblue" stroke="midnightblue" points="1735.98,-216.29 1729.18,-224.41 1739.56,-222.31 1735.98,-216.29"/>
</g>
<!-- Node37 -->
<g id="node37" class="node">
<title>Node37</title>
<g id="a_node37"><a xlink:href="GroupConflict_8h.html" target="_top" xlink:title=" ">
<polygon fill="white" stroke="black" points="1672,-168.5 1672,-187.5 1764,-187.5 1764,-168.5 1672,-168.5"/>
<text text-anchor="middle" x="1718" y="-175.5" font-family="Helvetica,sans-Serif" font-size="10.00">GroupConflict.h</text>
</a>
</g>
</g>
<!-- Node35&#45;&gt;Node37 -->
<g id="edge52" class="edge">
<title>Node35&#45;&gt;Node37</title>
<path fill="none" stroke="midnightblue" d="M1714.1,-214.1C1715.1,-205.14 1716.24,-194.86 1717.03,-187.75"/>
<polygon fill="midnightblue" stroke="midnightblue" points="1710.62,-213.76 1712.99,-224.08 1717.57,-214.53 1710.62,-213.76"/>
</g>
<!-- Node36&#45;&gt;Node14 -->
<g id="edge51" class="edge">
<title>Node36&#45;&gt;Node14</title>
<path fill="none" stroke="midnightblue" d="M1791.29,-101.8C1790.96,-92.91 1790.58,-82.78 1790.32,-75.75"/>
<polygon fill="midnightblue" stroke="midnightblue" points="1787.8,-102.22 1791.67,-112.08 1794.8,-101.96 1787.8,-102.22"/>
</g>
<!-- Node37&#45;&gt;Node13 -->
<g id="edge53" class="edge">
<title>Node37&#45;&gt;Node13</title>
<path fill="none" stroke="midnightblue" d="M1690.75,-163.86C1669.98,-153.85 1641.98,-140.35 1623.95,-131.65"/>
<polygon fill="midnightblue" stroke="midnightblue" points="1689.48,-167.13 1700.01,-168.32 1692.52,-160.83 1689.48,-167.13"/>
</g>
<!-- Node38&#45;&gt;Node11 -->
<g id="edge56" class="edge">
<title>Node38&#45;&gt;Node11</title>
<path fill="none" stroke="midnightblue" d="M58.99,-631.89C35.9,-611.69 0,-573.52 0,-531.5 0,-531.5 0,-531.5 0,-289 0,-242.86 47.25,-204.06 70.88,-187.54"/>
<polygon fill="midnightblue" stroke="midnightblue" points="56.92,-634.72 66.82,-638.49 61.43,-629.37 56.92,-634.72"/>
</g>
</g>
</svg>
