<?xml version="1.0" encoding="UTF-8" standalone="no"?>
<!DOCTYPE svg PUBLIC "-//W3C//DTD SVG 1.1//EN"
 "http://www.w3.org/Graphics/SVG/1.1/DTD/svg11.dtd">
<!-- Generated by graphviz version 2.43.0 (0)
 -->
<!-- Title: Constraints/VertexConstraint.h Pages: 1 -->
<svg width="685pt" height="162pt"
 viewBox="0.00 0.00 685.00 162.00" xmlns="http://www.w3.org/2000/svg" xmlns:xlink="http://www.w3.org/1999/xlink">
<g id="graph0" class="graph" transform="scale(1 1) rotate(0) translate(4 158)">
<title>Constraints/VertexConstraint.h</title>
<polygon fill="white" stroke="transparent" points="-4,4 -4,-158 681,-158 681,4 -4,4"/>
<!-- Node1 -->
<g id="node1" class="node">
<title>Node1</title>
<g id="a_node1"><a xlink:title=" ">
<polygon fill="#bfbfbf" stroke="black" points="246.5,-134.5 246.5,-153.5 412.5,-153.5 412.5,-134.5 246.5,-134.5"/>
<text text-anchor="middle" x="329.5" y="-141.5" font-family="Helvetica,sans-Serif" font-size="10.00">Constraints/VertexConstraint.h</text>
</a>
</g>
</g>
<!-- Node2 -->
<g id="node2" class="node">
<title>Node2</title>
<g id="a_node2"><a xlink:href="ConstraintsSet_8h.html" target="_top" xlink:title=" ">
<polygon fill="white" stroke="black" points="41,-73 41,-92 196,-92 196,-73 41,-73"/>
<text text-anchor="middle" x="118.5" y="-80" font-family="Helvetica,sans-Serif" font-size="10.00">Constraints/ConstraintsSet.h</text>
</a>
</g>
</g>
<!-- Node1&#45;&gt;Node2 -->
<g id="edge1" class="edge">
<title>Node1&#45;&gt;Node2</title>
<path fill="none" stroke="midnightblue" d="M289.6,-131.75C248.61,-120.19 185.7,-102.45 148.68,-92.01"/>
<polygon fill="midnightblue" stroke="midnightblue" points="288.69,-135.13 299.27,-134.48 290.59,-128.39 288.69,-135.13"/>
</g>
<!-- Node33 -->
<g id="node4" class="node">
<title>Node33</title>
<g id="a_node4"><a xlink:href="Solution_8h.html" target="_top" xlink:title=" ">
<polygon fill="white" stroke="black" points="275.5,-73 275.5,-92 383.5,-92 383.5,-73 275.5,-73"/>
<text text-anchor="middle" x="329.5" y="-80" font-family="Helvetica,sans-Serif" font-size="10.00">Solution/Solution.h</text>
</a>
</g>
</g>
<!-- Node1&#45;&gt;Node33 -->
<g id="edge3" class="edge">
<title>Node1&#45;&gt;Node33</title>
<path fill="none" stroke="midnightblue" d="M329.5,-124.32C329.5,-113.5 329.5,-100.4 329.5,-92.01"/>
<polygon fill="midnightblue" stroke="midnightblue" points="326,-124.48 329.5,-134.48 333,-124.48 326,-124.48"/>
</g>
<!-- Node38 -->
<g id="node8" class="node">
<title>Node38</title>
<g id="a_node8"><a xlink:href="ConflictTreeNode_8h.html" target="_top" xlink:title=" ">
<polygon fill="white" stroke="black" points="469,-67.5 469,-97.5 604,-97.5 604,-67.5 469,-67.5"/>
<text text-anchor="start" x="477" y="-85.5" font-family="Helvetica,sans-Serif" font-size="10.00">Solvers/CBS/ConflictTree</text>
<text text-anchor="middle" x="536.5" y="-74.5" font-family="Helvetica,sans-Serif" font-size="10.00">Node.h</text>
</a>
</g>
</g>
<!-- Node1&#45;&gt;Node38 -->
<g id="edge7" class="edge">
<title>Node1&#45;&gt;Node38</title>
<path fill="none" stroke="midnightblue" d="M369.13,-131.61C402.9,-121.9 451.56,-107.92 487.71,-97.52"/>
<polygon fill="midnightblue" stroke="midnightblue" points="367.8,-128.35 359.16,-134.48 369.74,-135.08 367.8,-128.35"/>
</g>
<!-- Node3 -->
<g id="node3" class="node">
<title>Node3</title>
<g id="a_node3"><a xlink:href="Problem_8h.html" target="_top" xlink:title=" ">
<polygon fill="white" stroke="red" points="0,-6 0,-25 115,-25 115,-6 0,-6"/>
<text text-anchor="middle" x="57.5" y="-13" font-family="Helvetica,sans-Serif" font-size="10.00">Problems/Problem.h</text>
</a>
</g>
</g>
<!-- Node2&#45;&gt;Node3 -->
<g id="edge2" class="edge">
<title>Node2&#45;&gt;Node3</title>
<path fill="none" stroke="midnightblue" d="M103.14,-65.13C91.21,-52.42 75.14,-35.3 65.6,-25.13"/>
<polygon fill="midnightblue" stroke="midnightblue" points="100.88,-67.84 110.27,-72.73 105.98,-63.05 100.88,-67.84"/>
</g>
<!-- Node34 -->
<g id="node5" class="node">
<title>Node34</title>
<g id="a_node5"><a xlink:href="Solution_8cpp.html" target="_top" xlink:title=" ">
<polygon fill="white" stroke="black" points="133,-6 133,-25 252,-25 252,-6 133,-6"/>
<text text-anchor="middle" x="192.5" y="-13" font-family="Helvetica,sans-Serif" font-size="10.00">Solution/Solution.cpp</text>
</a>
</g>
</g>
<!-- Node33&#45;&gt;Node34 -->
<g id="edge4" class="edge">
<title>Node33&#45;&gt;Node34</title>
<path fill="none" stroke="midnightblue" d="M301.98,-68.44C274.85,-55.57 234.14,-36.26 210.77,-25.17"/>
<polygon fill="midnightblue" stroke="midnightblue" points="300.77,-71.74 311.31,-72.87 303.77,-65.42 300.77,-71.74"/>
</g>
<!-- Node9 -->
<g id="node6" class="node">
<title>Node9</title>
<g id="a_node6"><a xlink:href="AStar_8h.html" target="_top" xlink:title=" ">
<polygon fill="white" stroke="red" points="270,-6 270,-25 389,-25 389,-6 270,-6"/>
<text text-anchor="middle" x="329.5" y="-13" font-family="Helvetica,sans-Serif" font-size="10.00">Solvers/AStar/AStar.h</text>
</a>
</g>
</g>
<!-- Node33&#45;&gt;Node9 -->
<g id="edge5" class="edge">
<title>Node33&#45;&gt;Node9</title>
<path fill="none" stroke="midnightblue" d="M329.5,-62.54C329.5,-50.17 329.5,-34.62 329.5,-25.13"/>
<polygon fill="midnightblue" stroke="midnightblue" points="326,-62.73 329.5,-72.73 333,-62.73 326,-62.73"/>
</g>
<!-- Node35 -->
<g id="node7" class="node">
<title>Node35</title>
<g id="a_node7"><a xlink:href="Group_8h.html" target="_top" xlink:title=" ">
<polygon fill="white" stroke="red" points="407,-6 407,-25 514,-25 514,-6 407,-6"/>
<text text-anchor="middle" x="460.5" y="-13" font-family="Helvetica,sans-Serif" font-size="10.00">Solvers/ID/Group.h</text>
</a>
</g>
</g>
<!-- Node33&#45;&gt;Node35 -->
<g id="edge6" class="edge">
<title>Node33&#45;&gt;Node35</title>
<path fill="none" stroke="midnightblue" d="M356.16,-68.27C382.1,-55.4 420.78,-36.21 443.03,-25.17"/>
<polygon fill="midnightblue" stroke="midnightblue" points="354.3,-65.29 346.9,-72.87 357.41,-71.56 354.3,-65.29"/>
</g>
<!-- Node11 -->
<g id="node9" class="node">
<title>Node11</title>
<g id="a_node9"><a xlink:href="ConflictBasedSearch_8h.html" target="_top" xlink:title=" ">
<polygon fill="white" stroke="red" points="532,-0.5 532,-30.5 677,-30.5 677,-0.5 532,-0.5"/>
<text text-anchor="start" x="540" y="-18.5" font-family="Helvetica,sans-Serif" font-size="10.00">Solvers/CBS/ConflictBased</text>
<text text-anchor="middle" x="604.5" y="-7.5" font-family="Helvetica,sans-Serif" font-size="10.00">Search.h</text>
</a>
</g>
</g>
<!-- Node38&#45;&gt;Node11 -->
<g id="edge8" class="edge">
<title>Node38&#45;&gt;Node11</title>
<path fill="none" stroke="midnightblue" d="M558.67,-60.31C568.87,-50.56 580.69,-39.26 589.77,-30.58"/>
<polygon fill="midnightblue" stroke="midnightblue" points="556.07,-57.96 551.25,-67.4 560.9,-63.02 556.07,-57.96"/>
</g>
</g>
</svg>
