<?xml version="1.0" encoding="UTF-8" standalone="no"?>
<!DOCTYPE svg PUBLIC "-//W3C//DTD SVG 1.1//EN"
 "http://www.w3.org/Graphics/SVG/1.1/DTD/svg11.dtd">
<!-- Generated by graphviz version 2.43.0 (0)
 -->
<!-- Title: Constraints/VertexConstraint.h Pages: 1 -->
<!--zoomable 855 -->
<svg id="main" version="1.1" xmlns="http://www.w3.org/2000/svg" xmlns:xlink="http://www.w3.org/1999/xlink" xml:space="preserve" onload="init(evt)">
<style type="text/css"><![CDATA[
.edge:hover path { stroke: red; }
.edge:hover polygon { stroke: red; fill: red; }
]]></style>
<script type="text/javascript"><![CDATA[
var edges = document.getElementsByTagName('g');
if (edges && edges.length) {
  for (var i=0;i<edges.length;i++) {
    if (edges[i].id.substr(0,4)=='edge') {
      edges[i].setAttribute('class','edge');
    }
  }
}
]]></script>
        <defs>
                <circle id="rim" cx="0" cy="0" r="7"/>
                <circle id="rim2" cx="0" cy="0" r="3.5"/>
                <g id="zoomPlus">
                        <use xlink:href="#rim" fill="#404040">
                                <set attributeName="fill" to="#808080" begin="zoomplus.mouseover" end="zoomplus.mouseout"/>
                        </use>
                        <path d="M-4,0h8M0,-4v8" fill="none" stroke="white" stroke-width="1.5" pointer-events="none"/>
                </g>
                <g id="zoomMin">
                        <use xlink:href="#rim" fill="#404040">
                                <set attributeName="fill" to="#808080" begin="zoomminus.mouseover" end="zoomminus.mouseout"/>
                        </use>
                        <path d="M-4,0h8" fill="none" stroke="white" stroke-width="1.5" pointer-events="none"/>
                </g>
                <g id="dirArrow">
                        <path fill="none" stroke="white" stroke-width="1.5" d="M0,-3.0v7 M-2.5,-0.5L0,-3.0L2.5,-0.5"/>
                </g>
               <g id="resetDef">
                       <use xlink:href="#rim2" fill="#404040">
                               <set attributeName="fill" to="#808080" begin="reset.mouseover" end="reset.mouseout"/>
                       </use>
               </g>
        </defs>

<script type="text/javascript">
var viewWidth = 2049;
var viewHeight = 855;
var sectionId = 'dynsection-0';
</script>
<script xlink:href="svgpan.js"/>
<svg id="graph" class="graph">
<g id="viewport">
<title>Constraints/VertexConstraint.h</title>
<polygon fill="white" stroke="transparent" points="-4,4 -4,-851 2044.5,-851 2044.5,4 -4,4"/>
<!-- Node1 -->
<g id="node1" class="node">
<title>Node1</title>
<g id="a_node1"><a xlink:title=" ">
<polygon fill="#bfbfbf" stroke="black" points="331,-827.5 331,-846.5 497,-846.5 497,-827.5 331,-827.5"/>
<text text-anchor="middle" x="414" y="-834.5" font-family="Helvetica,sans-Serif" font-size="10.00">Constraints/VertexConstraint.h</text>
</a>
</g>
</g>
<!-- Node2 -->
<g id="node2" class="node">
<title>Node2</title>
<g id="a_node2"><a xlink:href="ConstraintsSet_8h.html" target="_top" xlink:title=" ">
<polygon fill="white" stroke="black" points="336.5,-771.5 336.5,-790.5 491.5,-790.5 491.5,-771.5 336.5,-771.5"/>
<text text-anchor="middle" x="414" y="-778.5" font-family="Helvetica,sans-Serif" font-size="10.00">Constraints/ConstraintsSet.h</text>
</a>
</g>
</g>
<!-- Node1&#45;&gt;Node2 -->
<g id="edge1" class="edge">
<title>Node1&#45;&gt;Node2</title>
<path fill="none" stroke="midnightblue" d="M414,-816.8C414,-807.91 414,-797.78 414,-790.75"/>
<polygon fill="midnightblue" stroke="midnightblue" points="410.5,-817.08 414,-827.08 417.5,-817.08 410.5,-817.08"/>
</g>
<!-- Node33 -->
<g id="node33" class="node">
<title>Node33</title>
<g id="a_node33"><a xlink:href="Solution_8h.html" target="_top" xlink:title=" ">
<polygon fill="white" stroke="black" points="1775,-386 1775,-405 1883,-405 1883,-386 1775,-386"/>
<text text-anchor="middle" x="1829" y="-393" font-family="Helvetica,sans-Serif" font-size="10.00">Solution/Solution.h</text>
</a>
</g>
</g>
<!-- Node1&#45;&gt;Node33 -->
<g id="edge46" class="edge">
<title>Node1&#45;&gt;Node33</title>
<path fill="none" stroke="midnightblue" d="M507.45,-833.03C816.35,-822.59 1785,-784.75 1785,-720.5 1785,-720.5 1785,-720.5 1785,-528.5 1785,-479.7 1812.4,-425.73 1823.95,-405.13"/>
<polygon fill="midnightblue" stroke="midnightblue" points="507.06,-829.54 497.19,-833.37 507.3,-836.53 507.06,-829.54"/>
</g>
<!-- Node38 -->
<g id="node38" class="node">
<title>Node38</title>
<g id="a_node38"><a xlink:href="ConflictTreeNode_8h.html" target="_top" xlink:title=" ">
<polygon fill="white" stroke="black" points="20.5,-704.5 20.5,-734.5 155.5,-734.5 155.5,-704.5 20.5,-704.5"/>
<text text-anchor="start" x="28.5" y="-722.5" font-family="Helvetica,sans-Serif" font-size="10.00">Solvers/CBS/ConflictTree</text>
<text text-anchor="middle" x="88" y="-711.5" font-family="Helvetica,sans-Serif" font-size="10.00">Node.h</text>
</a>
</g>
</g>
<!-- Node1&#45;&gt;Node38 -->
<g id="edge55" class="edge">
<title>Node1&#45;&gt;Node38</title>
<path fill="none" stroke="midnightblue" d="M380.28,-824.05C319.63,-802.57 192.48,-757.52 127.73,-734.58"/>
<polygon fill="midnightblue" stroke="midnightblue" points="379.17,-827.37 389.76,-827.41 381.51,-820.77 379.17,-827.37"/>
</g>
<!-- Node3 -->
<g id="node3" class="node">
<title>Node3</title>
<g id="a_node3"><a xlink:href="Problem_8h.html" target="_top" xlink:title=" ">
<polygon fill="white" stroke="black" points="356.5,-710 356.5,-729 471.5,-729 471.5,-710 356.5,-710"/>
<text text-anchor="middle" x="414" y="-717" font-family="Helvetica,sans-Serif" font-size="10.00">Problems/Problem.h</text>
</a>
</g>
</g>
<!-- Node2&#45;&gt;Node3 -->
<g id="edge2" class="edge">
<title>Node2&#45;&gt;Node3</title>
<path fill="none" stroke="midnightblue" d="M414,-761.32C414,-750.5 414,-737.4 414,-729.01"/>
<polygon fill="midnightblue" stroke="midnightblue" points="410.5,-761.48 414,-771.48 417.5,-761.48 410.5,-761.48"/>
</g>
<!-- Node4 -->
<g id="node4" class="node">
<title>Node4</title>
<g id="a_node4"><a xlink:href="MultiAgentProblem_8h.html" target="_top" xlink:title=" ">
<polygon fill="white" stroke="black" points="330,-648.5 330,-667.5 498,-667.5 498,-648.5 330,-648.5"/>
<text text-anchor="middle" x="414" y="-655.5" font-family="Helvetica,sans-Serif" font-size="10.00">Problems/MultiAgentProblem.h</text>
</a>
</g>
</g>
<!-- Node3&#45;&gt;Node4 -->
<g id="edge3" class="edge">
<title>Node3&#45;&gt;Node4</title>
<path fill="none" stroke="midnightblue" d="M414,-699.82C414,-689 414,-675.9 414,-667.51"/>
<polygon fill="midnightblue" stroke="midnightblue" points="410.5,-699.98 414,-709.98 417.5,-699.98 410.5,-699.98"/>
</g>
<!-- Node10 -->
<g id="node10" class="node">
<title>Node10</title>
<g id="a_node10"><a xlink:href="GeneralAStar_8h.html" target="_top" xlink:title=" ">
<polygon fill="white" stroke="black" points="104,-263 104,-282 262,-282 262,-263 104,-263"/>
<text text-anchor="middle" x="183" y="-270" font-family="Helvetica,sans-Serif" font-size="10.00">Solvers/AStar/GeneralAStar.h</text>
</a>
</g>
</g>
<!-- Node3&#45;&gt;Node10 -->
<g id="edge45" class="edge">
<title>Node3&#45;&gt;Node10</title>
<path fill="none" stroke="midnightblue" d="M346.3,-710.78C238.04,-696.52 38,-661.52 38,-597.5 38,-597.5 38,-597.5 38,-394.5 38,-333.52 114.54,-297.27 156.4,-282.01"/>
<polygon fill="midnightblue" stroke="midnightblue" points="346.12,-714.28 356.48,-712.09 347.02,-707.34 346.12,-714.28"/>
</g>
<!-- Node27 -->
<g id="node27" class="node">
<title>Node27</title>
<g id="a_node27"><a xlink:href="SingleAgentProblem_8h.html" target="_top" xlink:title=" ">
<polygon fill="white" stroke="black" points="1404.5,-648.5 1404.5,-667.5 1577.5,-667.5 1577.5,-648.5 1404.5,-648.5"/>
<text text-anchor="middle" x="1491" y="-655.5" font-family="Helvetica,sans-Serif" font-size="10.00">Problems/SingleAgentProblem.h</text>
</a>
</g>
</g>
<!-- Node3&#45;&gt;Node27 -->
<g id="edge34" class="edge">
<title>Node3&#45;&gt;Node27</title>
<path fill="none" stroke="midnightblue" d="M481.52,-714.77C668.97,-704.41 1195.65,-675.32 1404.3,-663.79"/>
<polygon fill="midnightblue" stroke="midnightblue" points="481.32,-711.28 471.52,-715.32 481.7,-718.27 481.32,-711.28"/>
</g>
<!-- Node5 -->
<g id="node5" class="node">
<title>Node5</title>
<g id="a_node5"><a xlink:href="ODMultiAgentAStarProblem_8h.html" target="_top" xlink:title=" ">
<polygon fill="white" stroke="black" points="962,-581.5 962,-611.5 1122,-611.5 1122,-581.5 962,-581.5"/>
<text text-anchor="start" x="970" y="-599.5" font-family="Helvetica,sans-Serif" font-size="10.00">AStarProblems/ODMultiAgent</text>
<text text-anchor="middle" x="1042" y="-588.5" font-family="Helvetica,sans-Serif" font-size="10.00">AStarProblem.h</text>
</a>
</g>
</g>
<!-- Node4&#45;&gt;Node5 -->
<g id="edge4" class="edge">
<title>Node4&#45;&gt;Node5</title>
<path fill="none" stroke="midnightblue" d="M508.43,-651.36C616.22,-644.4 797.71,-631.1 953,-612 955.95,-611.64 958.96,-611.25 961.99,-610.84"/>
<polygon fill="midnightblue" stroke="midnightblue" points="507.99,-647.88 498.23,-652.01 508.44,-654.87 507.99,-647.88"/>
</g>
<!-- Node11 -->
<g id="node11" class="node">
<title>Node11</title>
<g id="a_node11"><a xlink:href="ConflictBasedSearch_8h.html" target="_top" xlink:title=" ">
<polygon fill="white" stroke="black" points="40.5,-190.5 40.5,-220.5 185.5,-220.5 185.5,-190.5 40.5,-190.5"/>
<text text-anchor="start" x="48.5" y="-208.5" font-family="Helvetica,sans-Serif" font-size="10.00">Solvers/CBS/ConflictBased</text>
<text text-anchor="middle" x="113" y="-197.5" font-family="Helvetica,sans-Serif" font-size="10.00">Search.h</text>
</a>
</g>
</g>
<!-- Node4&#45;&gt;Node11 -->
<g id="edge31" class="edge">
<title>Node4&#45;&gt;Node11</title>
<path fill="none" stroke="midnightblue" d="M319.69,-654.49C239.4,-650.42 132.1,-639.78 100,-612 71.45,-587.29 76,-568.26 76,-530.5 76,-530.5 76,-530.5 76,-333 76,-290.67 95.32,-243.46 106.04,-220.53"/>
<polygon fill="midnightblue" stroke="midnightblue" points="319.68,-657.99 329.84,-654.98 320.02,-651 319.68,-657.99"/>
</g>
<!-- Node13 -->
<g id="node13" class="node">
<title>Node13</title>
<g id="a_node13"><a xlink:href="SimpleIndependenceDetection_8h.html" target="_top" xlink:title=" ">
<polygon fill="white" stroke="black" points="1633.5,-123.5 1633.5,-153.5 1804.5,-153.5 1804.5,-123.5 1633.5,-123.5"/>
<text text-anchor="start" x="1641.5" y="-141.5" font-family="Helvetica,sans-Serif" font-size="10.00">Solvers/ID/SimpleIndependence</text>
<text text-anchor="middle" x="1719" y="-130.5" font-family="Helvetica,sans-Serif" font-size="10.00">Detection.h</text>
</a>
</g>
</g>
<!-- Node4&#45;&gt;Node13 -->
<g id="edge32" class="edge">
<title>Node4&#45;&gt;Node13</title>
<path fill="none" stroke="midnightblue" d="M319.49,-650.45C254.41,-644.19 175.15,-632.58 149,-612 118.02,-587.62 114,-569.92 114,-530.5 114,-530.5 114,-530.5 114,-394.5 114,-239.23 1300.68,-162.45 1633.28,-143.97"/>
<polygon fill="midnightblue" stroke="midnightblue" points="319.52,-653.97 329.8,-651.41 320.17,-647 319.52,-653.97"/>
</g>
<!-- Node17 -->
<g id="node17" class="node">
<title>Node17</title>
<g id="a_node17"><a xlink:href="CooperativeAStar_8h.html" target="_top" xlink:title=" ">
<polygon fill="white" stroke="black" points="802,-257.5 802,-287.5 944,-287.5 944,-257.5 802,-257.5"/>
<text text-anchor="start" x="810" y="-275.5" font-family="Helvetica,sans-Serif" font-size="10.00">Solvers/SuboptimalSolver</text>
<text text-anchor="middle" x="873" y="-264.5" font-family="Helvetica,sans-Serif" font-size="10.00">/CooperativeAStar.h</text>
</a>
</g>
</g>
<!-- Node4&#45;&gt;Node17 -->
<g id="edge33" class="edge">
<title>Node4&#45;&gt;Node17</title>
<path fill="none" stroke="midnightblue" d="M319.77,-650.1C260.89,-643.85 192.34,-632.38 171,-612 144.1,-586.31 152,-567.69 152,-530.5 152,-530.5 152,-530.5 152,-394.5 152,-329.05 620,-290.52 801.89,-278.02"/>
<polygon fill="midnightblue" stroke="midnightblue" points="319.57,-653.6 329.88,-651.14 320.29,-646.64 319.57,-653.6"/>
</g>
<!-- Node20 -->
<g id="node20" class="node">
<title>Node20</title>
<g id="a_node20"><a xlink:href="ODMultiAgentAStarProblemWithConstraints_8h.html" target="_top" xlink:title=" ">
<polygon fill="white" stroke="black" points="180,-581.5 180,-611.5 350,-611.5 350,-581.5 180,-581.5"/>
<text text-anchor="start" x="188" y="-599.5" font-family="Helvetica,sans-Serif" font-size="10.00">AStarProblems/ODMultiAgent</text>
<text text-anchor="middle" x="265" y="-588.5" font-family="Helvetica,sans-Serif" font-size="10.00">AStarProblemWithConstraints.h</text>
</a>
</g>
</g>
<!-- Node4&#45;&gt;Node20 -->
<g id="edge21" class="edge">
<title>Node4&#45;&gt;Node20</title>
<path fill="none" stroke="midnightblue" d="M383.25,-644.72C359.06,-635.06 325.36,-621.6 300.12,-611.52"/>
<polygon fill="midnightblue" stroke="midnightblue" points="382.07,-648.02 392.65,-648.48 384.66,-641.52 382.07,-648.02"/>
</g>
<!-- Node22 -->
<g id="node22" class="node">
<title>Node22</title>
<g id="a_node22"><a xlink:href="StandardMultiAgentAStarProblem_8h.html" target="_top" xlink:title=" ">
<polygon fill="white" stroke="black" points="566,-581.5 566,-611.5 726,-611.5 726,-581.5 566,-581.5"/>
<text text-anchor="start" x="574" y="-599.5" font-family="Helvetica,sans-Serif" font-size="10.00">AStarProblems/StandardMulti</text>
<text text-anchor="middle" x="646" y="-588.5" font-family="Helvetica,sans-Serif" font-size="10.00">AgentAStarProblem.h</text>
</a>
</g>
</g>
<!-- Node4&#45;&gt;Node22 -->
<g id="edge24" class="edge">
<title>Node4&#45;&gt;Node22</title>
<path fill="none" stroke="midnightblue" d="M456.96,-645.98C494.85,-636.27 550.27,-622.05 591.32,-611.52"/>
<polygon fill="midnightblue" stroke="midnightblue" points="456.06,-642.6 447.24,-648.48 457.8,-649.38 456.06,-642.6"/>
</g>
<!-- Node24 -->
<g id="node24" class="node">
<title>Node24</title>
<g id="a_node24"><a xlink:href="StandardMultiAgentAStarProblemWithConstraints_8h.html" target="_top" xlink:title=" ">
<polygon fill="white" stroke="black" points="744.5,-581.5 744.5,-611.5 943.5,-611.5 943.5,-581.5 744.5,-581.5"/>
<text text-anchor="start" x="752.5" y="-599.5" font-family="Helvetica,sans-Serif" font-size="10.00">AStarProblems/StandardMulti</text>
<text text-anchor="middle" x="844" y="-588.5" font-family="Helvetica,sans-Serif" font-size="10.00">AgentAStarProblemWithConstraints.h</text>
</a>
</g>
</g>
<!-- Node4&#45;&gt;Node24 -->
<g id="edge27" class="edge">
<title>Node4&#45;&gt;Node24</title>
<path fill="none" stroke="midnightblue" d="M485.76,-647.07C556.5,-637.28 665.2,-622.24 744.31,-611.29"/>
<polygon fill="midnightblue" stroke="midnightblue" points="485.03,-643.64 475.61,-648.48 485.99,-650.57 485.03,-643.64"/>
</g>
<!-- Node26 -->
<g id="node26" class="node">
<title>Node26</title>
<g id="a_node26"><a xlink:href="MultiAgentProblem_8cpp.html" target="_top" xlink:title=" ">
<polygon fill="white" stroke="black" points="368.5,-587 368.5,-606 547.5,-606 547.5,-587 368.5,-587"/>
<text text-anchor="middle" x="458" y="-594" font-family="Helvetica,sans-Serif" font-size="10.00">Problems/MultiAgentProblem.cpp</text>
</a>
</g>
</g>
<!-- Node4&#45;&gt;Node26 -->
<g id="edge30" class="edge">
<title>Node4&#45;&gt;Node26</title>
<path fill="none" stroke="midnightblue" d="M426.32,-640.34C434.58,-629.17 445.11,-614.93 451.71,-606.01"/>
<polygon fill="midnightblue" stroke="midnightblue" points="423.44,-638.35 420.3,-648.48 429.06,-642.52 423.44,-638.35"/>
</g>
<!-- Node6 -->
<g id="node6" class="node">
<title>Node6</title>
<g id="a_node6"><a xlink:href="ODMultiAgentAStarProblem_8cpp.html" target="_top" xlink:title=" ">
<polygon fill="white" stroke="black" points="978,-514.5 978,-544.5 1138,-544.5 1138,-514.5 978,-514.5"/>
<text text-anchor="start" x="986" y="-532.5" font-family="Helvetica,sans-Serif" font-size="10.00">AStarProblems/ODMultiAgent</text>
<text text-anchor="middle" x="1058" y="-521.5" font-family="Helvetica,sans-Serif" font-size="10.00">AStarProblem.cpp</text>
</a>
</g>
</g>
<!-- Node5&#45;&gt;Node6 -->
<g id="edge5" class="edge">
<title>Node5&#45;&gt;Node6</title>
<path fill="none" stroke="midnightblue" d="M1047.93,-571.4C1050.16,-562.37 1052.61,-552.41 1054.54,-544.58"/>
<polygon fill="midnightblue" stroke="midnightblue" points="1044.46,-570.85 1045.47,-581.4 1051.26,-572.52 1044.46,-570.85"/>
</g>
<!-- Node7 -->
<g id="node7" class="node">
<title>Node7</title>
<g id="a_node7"><a xlink:href="HeuristicManhattan_8h.html" target="_top" xlink:title=" ">
<polygon fill="white" stroke="black" points="786.5,-520 786.5,-539 959.5,-539 959.5,-520 786.5,-520"/>
<text text-anchor="middle" x="873" y="-527" font-family="Helvetica,sans-Serif" font-size="10.00">Heuristics/HeuristicManhattan.h</text>
</a>
</g>
</g>
<!-- Node5&#45;&gt;Node7 -->
<g id="edge6" class="edge">
<title>Node5&#45;&gt;Node7</title>
<path fill="none" stroke="midnightblue" d="M995.94,-577.78C963.17,-565.18 920.6,-548.81 895.12,-539.01"/>
<polygon fill="midnightblue" stroke="midnightblue" points="994.74,-581.07 1005.33,-581.4 997.25,-574.54 994.74,-581.07"/>
</g>
<!-- Node8 -->
<g id="node8" class="node">
<title>Node8</title>
<g id="a_node8"><a xlink:href="HeuristicOptimal_8h.html" target="_top" xlink:title=" ">
<polygon fill="white" stroke="black" points="793,-386 793,-405 953,-405 953,-386 793,-386"/>
<text text-anchor="middle" x="873" y="-393" font-family="Helvetica,sans-Serif" font-size="10.00">Heuristics/HeuristicOptimal.h</text>
</a>
</g>
</g>
<!-- Node7&#45;&gt;Node8 -->
<g id="edge7" class="edge">
<title>Node7&#45;&gt;Node8</title>
<path fill="none" stroke="midnightblue" d="M873,-509.78C873,-480.75 873,-426.04 873,-405.02"/>
<polygon fill="midnightblue" stroke="midnightblue" points="869.5,-509.84 873,-519.84 876.5,-509.84 869.5,-509.84"/>
</g>
<!-- Node18 -->
<g id="node18" class="node">
<title>Node18</title>
<g id="a_node18"><a xlink:href="ReverseResumableAStar_8h.html" target="_top" xlink:title=" ">
<polygon fill="white" stroke="black" points="936.5,-447.5 936.5,-477.5 1115.5,-477.5 1115.5,-447.5 936.5,-447.5"/>
<text text-anchor="start" x="944.5" y="-465.5" font-family="Helvetica,sans-Serif" font-size="10.00">Solvers/AStar/ReverseResumable</text>
<text text-anchor="middle" x="1026" y="-454.5" font-family="Helvetica,sans-Serif" font-size="10.00">AStar.h</text>
</a>
</g>
</g>
<!-- Node7&#45;&gt;Node18 -->
<g id="edge18" class="edge">
<title>Node7&#45;&gt;Node18</title>
<path fill="none" stroke="midnightblue" d="M902.63,-515.91C928.54,-504.91 966.11,-488.94 992.98,-477.53"/>
<polygon fill="midnightblue" stroke="midnightblue" points="901.15,-512.74 893.32,-519.87 903.89,-519.18 901.15,-512.74"/>
</g>
<!-- Node9 -->
<g id="node9" class="node">
<title>Node9</title>
<g id="a_node9"><a xlink:href="AStar_8h.html" target="_top" xlink:title=" ">
<polygon fill="white" stroke="black" points="813.5,-324.5 813.5,-343.5 932.5,-343.5 932.5,-324.5 813.5,-324.5"/>
<text text-anchor="middle" x="873" y="-331.5" font-family="Helvetica,sans-Serif" font-size="10.00">Solvers/AStar/AStar.h</text>
</a>
</g>
</g>
<!-- Node8&#45;&gt;Node9 -->
<g id="edge8" class="edge">
<title>Node8&#45;&gt;Node9</title>
<path fill="none" stroke="midnightblue" d="M873,-375.82C873,-365 873,-351.9 873,-343.51"/>
<polygon fill="midnightblue" stroke="midnightblue" points="869.5,-375.98 873,-385.98 876.5,-375.98 869.5,-375.98"/>
</g>
<!-- Node9&#45;&gt;Node10 -->
<g id="edge9" class="edge">
<title>Node9&#45;&gt;Node10</title>
<path fill="none" stroke="midnightblue" d="M803.1,-326.97C673.84,-315.83 398.26,-292.06 262.27,-280.34"/>
<polygon fill="midnightblue" stroke="midnightblue" points="803.01,-330.48 813.27,-327.85 803.61,-323.5 803.01,-330.48"/>
</g>
<!-- Node9&#45;&gt;Node17 -->
<g id="edge17" class="edge">
<title>Node9&#45;&gt;Node17</title>
<path fill="none" stroke="midnightblue" d="M873,-314.23C873,-305.59 873,-295.5 873,-287.52"/>
<polygon fill="midnightblue" stroke="midnightblue" points="869.5,-314.48 873,-324.48 876.5,-314.48 869.5,-314.48"/>
</g>
<!-- Node10&#45;&gt;Node11 -->
<g id="edge10" class="edge">
<title>Node10&#45;&gt;Node11</title>
<path fill="none" stroke="midnightblue" d="M166.23,-255.93C154.65,-245.18 139.39,-231 128.17,-220.59"/>
<polygon fill="midnightblue" stroke="midnightblue" points="163.85,-258.49 173.56,-262.73 168.61,-253.36 163.85,-258.49"/>
</g>
<!-- Node10&#45;&gt;Node13 -->
<g id="edge16" class="edge">
<title>Node10&#45;&gt;Node13</title>
<path fill="none" stroke="midnightblue" d="M195.71,-254.93C211.9,-235.28 241.9,-203.51 276,-190 401.81,-140.15 1342.07,-138.47 1633.29,-139.16"/>
<polygon fill="midnightblue" stroke="midnightblue" points="192.78,-252.99 189.28,-262.99 198.25,-257.36 192.78,-252.99"/>
</g>
<!-- Node12 -->
<g id="node12" class="node">
<title>Node12</title>
<g id="a_node12"><a xlink:href="ConflictBasedSearch_8cpp.html" target="_top" xlink:title=" ">
<polygon fill="white" stroke="black" points="40.5,-123.5 40.5,-153.5 185.5,-153.5 185.5,-123.5 40.5,-123.5"/>
<text text-anchor="start" x="48.5" y="-141.5" font-family="Helvetica,sans-Serif" font-size="10.00">Solvers/CBS/ConflictBased</text>
<text text-anchor="middle" x="113" y="-130.5" font-family="Helvetica,sans-Serif" font-size="10.00">Search.cpp</text>
</a>
</g>
</g>
<!-- Node11&#45;&gt;Node12 -->
<g id="edge11" class="edge">
<title>Node11&#45;&gt;Node12</title>
<path fill="none" stroke="midnightblue" d="M113,-180.11C113,-171.15 113,-161.32 113,-153.58"/>
<polygon fill="midnightblue" stroke="midnightblue" points="109.5,-180.4 113,-190.4 116.5,-180.4 109.5,-180.4"/>
</g>
<!-- Node11&#45;&gt;Node13 -->
<g id="edge12" class="edge">
<title>Node11&#45;&gt;Node13</title>
<path fill="none" stroke="midnightblue" d="M195.74,-190.76C198.18,-190.49 200.61,-190.23 203,-190 483.63,-162.83 1355.41,-145.78 1633.11,-140.93"/>
<polygon fill="midnightblue" stroke="midnightblue" points="195.1,-187.31 185.6,-192 195.95,-194.26 195.1,-187.31"/>
</g>
<!-- Node14 -->
<g id="node14" class="node">
<title>Node14</title>
<g id="a_node14"><a xlink:href="IndependenceDetection_8h.html" target="_top" xlink:title=" ">
<polygon fill="white" stroke="black" points="1841,-62 1841,-81 2035,-81 2035,-62 1841,-62"/>
<text text-anchor="middle" x="1938" y="-69" font-family="Helvetica,sans-Serif" font-size="10.00">Solvers/ID/IndependenceDetection.h</text>
</a>
</g>
</g>
<!-- Node13&#45;&gt;Node14 -->
<g id="edge13" class="edge">
<title>Node13&#45;&gt;Node14</title>
<path fill="none" stroke="midnightblue" d="M1775.97,-120.59C1818.74,-107.9 1875.52,-91.04 1909.26,-81.03"/>
<polygon fill="midnightblue" stroke="midnightblue" points="1774.84,-117.28 1766.25,-123.48 1776.83,-123.99 1774.84,-117.28"/>
</g>
<!-- Node16 -->
<g id="node16" class="node">
<title>Node16</title>
<g id="a_node16"><a xlink:href="SimpleIndependenceDetection_8cpp.html" target="_top" xlink:title=" ">
<polygon fill="white" stroke="black" points="1633.5,-56.5 1633.5,-86.5 1804.5,-86.5 1804.5,-56.5 1633.5,-56.5"/>
<text text-anchor="start" x="1641.5" y="-74.5" font-family="Helvetica,sans-Serif" font-size="10.00">Solvers/ID/SimpleIndependence</text>
<text text-anchor="middle" x="1719" y="-63.5" font-family="Helvetica,sans-Serif" font-size="10.00">Detection.cpp</text>
</a>
</g>
</g>
<!-- Node13&#45;&gt;Node16 -->
<g id="edge15" class="edge">
<title>Node13&#45;&gt;Node16</title>
<path fill="none" stroke="midnightblue" d="M1719,-113.11C1719,-104.15 1719,-94.32 1719,-86.58"/>
<polygon fill="midnightblue" stroke="midnightblue" points="1715.5,-113.4 1719,-123.4 1722.5,-113.4 1715.5,-113.4"/>
</g>
<!-- Node15 -->
<g id="node15" class="node">
<title>Node15</title>
<g id="a_node15"><a xlink:href="IndependenceDetection_8cpp.html" target="_top" xlink:title=" ">
<polygon fill="white" stroke="black" points="1835.5,-0.5 1835.5,-19.5 2040.5,-19.5 2040.5,-0.5 1835.5,-0.5"/>
<text text-anchor="middle" x="1938" y="-7.5" font-family="Helvetica,sans-Serif" font-size="10.00">Solvers/ID/IndependenceDetection.cpp</text>
</a>
</g>
</g>
<!-- Node14&#45;&gt;Node15 -->
<g id="edge14" class="edge">
<title>Node14&#45;&gt;Node15</title>
<path fill="none" stroke="midnightblue" d="M1938,-51.82C1938,-41 1938,-27.9 1938,-19.51"/>
<polygon fill="midnightblue" stroke="midnightblue" points="1934.5,-51.98 1938,-61.98 1941.5,-51.98 1934.5,-51.98"/>
</g>
<!-- Node18&#45;&gt;Node8 -->
<g id="edge19" class="edge">
<title>Node18&#45;&gt;Node8</title>
<path fill="none" stroke="midnightblue" d="M983.53,-443.46C953.97,-430.9 915.9,-414.72 893.02,-405.01"/>
<polygon fill="midnightblue" stroke="midnightblue" points="982.23,-446.71 992.8,-447.4 984.97,-440.26 982.23,-446.71"/>
</g>
<!-- Node19 -->
<g id="node19" class="node">
<title>Node19</title>
<g id="a_node19"><a xlink:href="ReverseResumableAStar_8cpp.html" target="_top" xlink:title=" ">
<polygon fill="white" stroke="black" points="971.5,-380.5 971.5,-410.5 1150.5,-410.5 1150.5,-380.5 971.5,-380.5"/>
<text text-anchor="start" x="979.5" y="-398.5" font-family="Helvetica,sans-Serif" font-size="10.00">Solvers/AStar/ReverseResumable</text>
<text text-anchor="middle" x="1061" y="-387.5" font-family="Helvetica,sans-Serif" font-size="10.00">AStar.cpp</text>
</a>
</g>
</g>
<!-- Node18&#45;&gt;Node19 -->
<g id="edge20" class="edge">
<title>Node18&#45;&gt;Node19</title>
<path fill="none" stroke="midnightblue" d="M1038.34,-438.58C1043.37,-429.24 1049.02,-418.75 1053.42,-410.58"/>
<polygon fill="midnightblue" stroke="midnightblue" points="1035.25,-436.93 1033.59,-447.4 1041.42,-440.25 1035.25,-436.93"/>
</g>
<!-- Node20&#45;&gt;Node7 -->
<g id="edge23" class="edge">
<title>Node20&#45;&gt;Node7</title>
<path fill="none" stroke="midnightblue" d="M360.12,-580.92C545.86,-559.05 595.08,-566.55 777,-545 791.23,-543.31 806.59,-541.15 820.77,-539.01"/>
<polygon fill="midnightblue" stroke="midnightblue" points="359.54,-577.47 350.02,-582.12 360.36,-584.42 359.54,-577.47"/>
</g>
<!-- Node21 -->
<g id="node21" class="node">
<title>Node21</title>
<g id="a_node21"><a xlink:href="ODMultiAgentAStarProblemWithConstraints_8cpp.html" target="_top" xlink:title=" ">
<polygon fill="white" stroke="black" points="180,-514.5 180,-544.5 362,-544.5 362,-514.5 180,-514.5"/>
<text text-anchor="start" x="188" y="-532.5" font-family="Helvetica,sans-Serif" font-size="10.00">AStarProblems/ODMultiAgent</text>
<text text-anchor="middle" x="271" y="-521.5" font-family="Helvetica,sans-Serif" font-size="10.00">AStarProblemWithConstraints.cpp</text>
</a>
</g>
</g>
<!-- Node20&#45;&gt;Node21 -->
<g id="edge22" class="edge">
<title>Node20&#45;&gt;Node21</title>
<path fill="none" stroke="midnightblue" d="M267.22,-571.4C268.06,-562.37 268.98,-552.41 269.7,-544.58"/>
<polygon fill="midnightblue" stroke="midnightblue" points="263.74,-571.12 266.3,-581.4 270.71,-571.76 263.74,-571.12"/>
</g>
<!-- Node22&#45;&gt;Node7 -->
<g id="edge26" class="edge">
<title>Node22&#45;&gt;Node7</title>
<path fill="none" stroke="midnightblue" d="M704.77,-578.67C749.14,-565.97 808.17,-549.06 843.22,-539.03"/>
<polygon fill="midnightblue" stroke="midnightblue" points="703.63,-575.36 694.98,-581.48 705.55,-582.09 703.63,-575.36"/>
</g>
<!-- Node23 -->
<g id="node23" class="node">
<title>Node23</title>
<g id="a_node23"><a xlink:href="StandardMultiAgentAStarProblem_8cpp.html" target="_top" xlink:title=" ">
<polygon fill="white" stroke="black" points="380,-514.5 380,-544.5 540,-544.5 540,-514.5 380,-514.5"/>
<text text-anchor="start" x="388" y="-532.5" font-family="Helvetica,sans-Serif" font-size="10.00">AStarProblems/StandardMulti</text>
<text text-anchor="middle" x="460" y="-521.5" font-family="Helvetica,sans-Serif" font-size="10.00">AgentAStarProblem.cpp</text>
</a>
</g>
</g>
<!-- Node22&#45;&gt;Node23 -->
<g id="edge25" class="edge">
<title>Node22&#45;&gt;Node23</title>
<path fill="none" stroke="midnightblue" d="M596.19,-578.09C566.16,-567.6 528.41,-554.41 500.28,-544.58"/>
<polygon fill="midnightblue" stroke="midnightblue" points="595.05,-581.4 605.64,-581.4 597.36,-574.79 595.05,-581.4"/>
</g>
<!-- Node24&#45;&gt;Node7 -->
<g id="edge29" class="edge">
<title>Node24&#45;&gt;Node7</title>
<path fill="none" stroke="midnightblue" d="M854.51,-571.94C859.6,-560.54 865.4,-547.55 869.12,-539.19"/>
<polygon fill="midnightblue" stroke="midnightblue" points="851.17,-570.84 850.29,-581.4 857.56,-573.69 851.17,-570.84"/>
</g>
<!-- Node25 -->
<g id="node25" class="node">
<title>Node25</title>
<g id="a_node25"><a xlink:href="StandardMultiAgentAStarProblemWithConstraints_8cpp.html" target="_top" xlink:title=" ">
<polygon fill="white" stroke="black" points="558,-514.5 558,-544.5 768,-544.5 768,-514.5 558,-514.5"/>
<text text-anchor="start" x="566" y="-532.5" font-family="Helvetica,sans-Serif" font-size="10.00">AStarProblems/StandardMulti</text>
<text text-anchor="middle" x="663" y="-521.5" font-family="Helvetica,sans-Serif" font-size="10.00">AgentAStarProblemWithConstraints.cpp</text>
</a>
</g>
</g>
<!-- Node24&#45;&gt;Node25 -->
<g id="edge28" class="edge">
<title>Node24&#45;&gt;Node25</title>
<path fill="none" stroke="midnightblue" d="M795.14,-577.96C765.99,-567.48 729.46,-554.37 702.2,-544.58"/>
<polygon fill="midnightblue" stroke="midnightblue" points="794.13,-581.31 804.73,-581.4 796.5,-574.72 794.13,-581.31"/>
</g>
<!-- Node27&#45;&gt;Node13 -->
<g id="edge43" class="edge">
<title>Node27&#45;&gt;Node13</title>
<path fill="none" stroke="midnightblue" d="M1582.69,-647.15C1634.56,-639.92 1692.95,-628.48 1713,-612 1743.33,-587.08 1747,-569.75 1747,-530.5 1747,-530.5 1747,-530.5 1747,-394.5 1747,-302.09 1728.6,-191.95 1721.63,-153.54"/>
<polygon fill="midnightblue" stroke="midnightblue" points="1582.2,-643.69 1572.76,-648.5 1583.14,-650.62 1582.2,-643.69"/>
</g>
<!-- Node27&#45;&gt;Node17 -->
<g id="edge44" class="edge">
<title>Node27&#45;&gt;Node17</title>
<path fill="none" stroke="midnightblue" d="M1576.58,-646.97C1623.2,-639.77 1674.65,-628.42 1691,-612 1717.18,-585.72 1709,-567.6 1709,-530.5 1709,-530.5 1709,-530.5 1709,-394.5 1709,-317.51 1146.45,-285.41 944.28,-276.36"/>
<polygon fill="midnightblue" stroke="midnightblue" points="1575.79,-643.55 1566.41,-648.49 1576.82,-650.47 1575.79,-643.55"/>
</g>
<!-- Node28 -->
<g id="node28" class="node">
<title>Node28</title>
<g id="a_node28"><a xlink:href="SingleAgentAStarProblem_8h.html" target="_top" xlink:title=" ">
<polygon fill="white" stroke="black" points="1140,-581.5 1140,-611.5 1290,-611.5 1290,-581.5 1140,-581.5"/>
<text text-anchor="start" x="1148" y="-599.5" font-family="Helvetica,sans-Serif" font-size="10.00">AStarProblems/SingleAgent</text>
<text text-anchor="middle" x="1215" y="-588.5" font-family="Helvetica,sans-Serif" font-size="10.00">AStarProblem.h</text>
</a>
</g>
</g>
<!-- Node27&#45;&gt;Node28 -->
<g id="edge35" class="edge">
<title>Node27&#45;&gt;Node28</title>
<path fill="none" stroke="midnightblue" d="M1441.61,-646.35C1396.5,-636.63 1329.5,-622.18 1280.05,-611.52"/>
<polygon fill="midnightblue" stroke="midnightblue" points="1440.94,-649.79 1451.46,-648.48 1442.42,-642.95 1440.94,-649.79"/>
</g>
<!-- Node30 -->
<g id="node30" class="node">
<title>Node30</title>
<g id="a_node30"><a xlink:href="SingleAgentAStarProblemWithConstraints_8h.html" target="_top" xlink:title=" ">
<polygon fill="white" stroke="black" points="1308,-581.5 1308,-611.5 1478,-611.5 1478,-581.5 1308,-581.5"/>
<text text-anchor="start" x="1316" y="-599.5" font-family="Helvetica,sans-Serif" font-size="10.00">AStarProblems/SingleAgent</text>
<text text-anchor="middle" x="1393" y="-588.5" font-family="Helvetica,sans-Serif" font-size="10.00">AStarProblemWithConstraints.h</text>
</a>
</g>
</g>
<!-- Node27&#45;&gt;Node30 -->
<g id="edge39" class="edge">
<title>Node27&#45;&gt;Node30</title>
<path fill="none" stroke="midnightblue" d="M1468.4,-643.28C1452.71,-633.75 1431.89,-621.11 1416.1,-611.52"/>
<polygon fill="midnightblue" stroke="midnightblue" points="1466.59,-646.28 1476.96,-648.48 1470.23,-640.29 1466.59,-646.28"/>
</g>
<!-- Node32 -->
<g id="node32" class="node">
<title>Node32</title>
<g id="a_node32"><a xlink:href="SingleAgentProblem_8cpp.html" target="_top" xlink:title=" ">
<polygon fill="white" stroke="black" points="1496.5,-587 1496.5,-606 1681.5,-606 1681.5,-587 1496.5,-587"/>
<text text-anchor="middle" x="1589" y="-594" font-family="Helvetica,sans-Serif" font-size="10.00">Problems/SingleAgentProblem.cpp</text>
</a>
</g>
</g>
<!-- Node27&#45;&gt;Node32 -->
<g id="edge42" class="edge">
<title>Node27&#45;&gt;Node32</title>
<path fill="none" stroke="midnightblue" d="M1513.66,-643.24C1532.59,-631.75 1558.99,-615.72 1574.99,-606.01"/>
<polygon fill="midnightblue" stroke="midnightblue" points="1511.77,-640.29 1505.04,-648.48 1515.41,-646.28 1511.77,-640.29"/>
</g>
<!-- Node28&#45;&gt;Node7 -->
<g id="edge37" class="edge">
<title>Node28&#45;&gt;Node7</title>
<path fill="none" stroke="midnightblue" d="M1131.05,-579.54C1063.74,-566.75 971.9,-549.3 917.87,-539.03"/>
<polygon fill="midnightblue" stroke="midnightblue" points="1130.73,-583.05 1141.21,-581.48 1132.04,-576.17 1130.73,-583.05"/>
</g>
<!-- Node28&#45;&gt;Node18 -->
<g id="edge38" class="edge">
<title>Node28&#45;&gt;Node18</title>
<path fill="none" stroke="midnightblue" d="M1265.68,-577.37C1300.21,-562.24 1336.14,-539.15 1315,-514 1289.85,-484.07 1190.96,-471.88 1115.79,-466.91"/>
<polygon fill="midnightblue" stroke="midnightblue" points="1263.89,-574.33 1256.02,-581.43 1266.6,-580.78 1263.89,-574.33"/>
</g>
<!-- Node29 -->
<g id="node29" class="node">
<title>Node29</title>
<g id="a_node29"><a xlink:href="SingleAgentAStarProblem_8cpp.html" target="_top" xlink:title=" ">
<polygon fill="white" stroke="black" points="1156,-514.5 1156,-544.5 1306,-544.5 1306,-514.5 1156,-514.5"/>
<text text-anchor="start" x="1164" y="-532.5" font-family="Helvetica,sans-Serif" font-size="10.00">AStarProblems/SingleAgent</text>
<text text-anchor="middle" x="1231" y="-521.5" font-family="Helvetica,sans-Serif" font-size="10.00">AStarProblem.cpp</text>
</a>
</g>
</g>
<!-- Node28&#45;&gt;Node29 -->
<g id="edge36" class="edge">
<title>Node28&#45;&gt;Node29</title>
<path fill="none" stroke="midnightblue" d="M1220.93,-571.4C1223.16,-562.37 1225.61,-552.41 1227.54,-544.58"/>
<polygon fill="midnightblue" stroke="midnightblue" points="1217.46,-570.85 1218.47,-581.4 1224.26,-572.52 1217.46,-570.85"/>
</g>
<!-- Node30&#45;&gt;Node7 -->
<g id="edge41" class="edge">
<title>Node30&#45;&gt;Node7</title>
<path fill="none" stroke="midnightblue" d="M1297.68,-580.87C1150.99,-561.84 1112.02,-563.59 969,-545 955.29,-543.22 940.52,-541.09 926.77,-539.02"/>
<polygon fill="midnightblue" stroke="midnightblue" points="1297.6,-584.38 1307.97,-582.21 1298.51,-577.44 1297.6,-584.38"/>
</g>
<!-- Node31 -->
<g id="node31" class="node">
<title>Node31</title>
<g id="a_node31"><a xlink:href="SingleAgentAStarProblemWithConstraints_8cpp.html" target="_top" xlink:title=" ">
<polygon fill="white" stroke="black" points="1362,-514.5 1362,-544.5 1544,-544.5 1544,-514.5 1362,-514.5"/>
<text text-anchor="start" x="1370" y="-532.5" font-family="Helvetica,sans-Serif" font-size="10.00">AStarProblems/SingleAgent</text>
<text text-anchor="middle" x="1453" y="-521.5" font-family="Helvetica,sans-Serif" font-size="10.00">AStarProblemWithConstraints.cpp</text>
</a>
</g>
</g>
<!-- Node30&#45;&gt;Node31 -->
<g id="edge40" class="edge">
<title>Node30&#45;&gt;Node31</title>
<path fill="none" stroke="midnightblue" d="M1412.82,-574.02C1421.76,-564.34 1432.07,-553.17 1440.01,-544.58"/>
<polygon fill="midnightblue" stroke="midnightblue" points="1410.23,-571.67 1406.02,-581.4 1415.37,-576.42 1410.23,-571.67"/>
</g>
<!-- Node33&#45;&gt;Node9 -->
<g id="edge48" class="edge">
<title>Node33&#45;&gt;Node9</title>
<path fill="none" stroke="midnightblue" d="M1764.74,-390.5C1589.06,-379.57 1102.6,-349.29 932.58,-338.71"/>
<polygon fill="midnightblue" stroke="midnightblue" points="1764.66,-394 1774.86,-391.13 1765.1,-387.02 1764.66,-394"/>
</g>
<!-- Node34 -->
<g id="node34" class="node">
<title>Node34</title>
<g id="a_node34"><a xlink:href="Solution_8cpp.html" target="_top" xlink:title=" ">
<polygon fill="white" stroke="black" points="1857.5,-324.5 1857.5,-343.5 1976.5,-343.5 1976.5,-324.5 1857.5,-324.5"/>
<text text-anchor="middle" x="1917" y="-331.5" font-family="Helvetica,sans-Serif" font-size="10.00">Solution/Solution.cpp</text>
</a>
</g>
</g>
<!-- Node33&#45;&gt;Node34 -->
<g id="edge47" class="edge">
<title>Node33&#45;&gt;Node34</title>
<path fill="none" stroke="midnightblue" d="M1850.28,-380.11C1867.2,-368.67 1890.31,-353.05 1904.42,-343.51"/>
<polygon fill="midnightblue" stroke="midnightblue" points="1847.93,-377.47 1841.61,-385.98 1851.85,-383.27 1847.93,-377.47"/>
</g>
<!-- Node35 -->
<g id="node35" class="node">
<title>Node35</title>
<g id="a_node35"><a xlink:href="Group_8h.html" target="_top" xlink:title=" ">
<polygon fill="white" stroke="black" points="1789.5,-263 1789.5,-282 1896.5,-282 1896.5,-263 1789.5,-263"/>
<text text-anchor="middle" x="1843" y="-270" font-family="Helvetica,sans-Serif" font-size="10.00">Solvers/ID/Group.h</text>
</a>
</g>
</g>
<!-- Node33&#45;&gt;Node35 -->
<g id="edge49" class="edge">
<title>Node33&#45;&gt;Node35</title>
<path fill="none" stroke="midnightblue" d="M1831.16,-375.85C1834.23,-349.27 1839.75,-301.58 1842,-282.12"/>
<polygon fill="midnightblue" stroke="midnightblue" points="1827.68,-375.46 1830.01,-385.8 1834.63,-376.27 1827.68,-375.46"/>
</g>
<!-- Node35&#45;&gt;Node13 -->
<g id="edge54" class="edge">
<title>Node35&#45;&gt;Node13</title>
<path fill="none" stroke="midnightblue" d="M1820.74,-257.36C1806.98,-248 1789.44,-234.93 1776,-221 1755.62,-199.88 1737.17,-170.87 1727.08,-153.76"/>
<polygon fill="midnightblue" stroke="midnightblue" points="1818.89,-260.33 1829.16,-262.94 1822.76,-254.5 1818.89,-260.33"/>
</g>
<!-- Node36 -->
<g id="node36" class="node">
<title>Node36</title>
<g id="a_node36"><a xlink:href="AlreadyConflictedBeforeSet_8h.html" target="_top" xlink:title=" ">
<polygon fill="white" stroke="black" points="1869.5,-123.5 1869.5,-153.5 2024.5,-153.5 2024.5,-123.5 1869.5,-123.5"/>
<text text-anchor="start" x="1877.5" y="-141.5" font-family="Helvetica,sans-Serif" font-size="10.00">Solvers/ID/AlreadyConflicted</text>
<text text-anchor="middle" x="1947" y="-130.5" font-family="Helvetica,sans-Serif" font-size="10.00">BeforeSet.h</text>
</a>
</g>
</g>
<!-- Node35&#45;&gt;Node36 -->
<g id="edge50" class="edge">
<title>Node35&#45;&gt;Node36</title>
<path fill="none" stroke="midnightblue" d="M1884.82,-259.38C1904.15,-251.58 1925.53,-239.38 1938,-221 1951.75,-200.74 1951.08,-170.91 1949.17,-153.52"/>
<polygon fill="midnightblue" stroke="midnightblue" points="1883.4,-256.17 1875.26,-262.96 1885.85,-262.73 1883.4,-256.17"/>
</g>
<!-- Node37 -->
<g id="node37" class="node">
<title>Node37</title>
<g id="a_node37"><a xlink:href="GroupConflict_8h.html" target="_top" xlink:title=" ">
<polygon fill="white" stroke="black" points="1785,-196 1785,-215 1929,-215 1929,-196 1785,-196"/>
<text text-anchor="middle" x="1857" y="-203" font-family="Helvetica,sans-Serif" font-size="10.00">Solvers/ID/GroupConflict.h</text>
</a>
</g>
</g>
<!-- Node35&#45;&gt;Node37 -->
<g id="edge52" class="edge">
<title>Node35&#45;&gt;Node37</title>
<path fill="none" stroke="midnightblue" d="M1847,-252.91C1849.68,-240.49 1853.08,-224.72 1855.14,-215.13"/>
<polygon fill="midnightblue" stroke="midnightblue" points="1843.57,-252.22 1844.89,-262.73 1850.42,-253.69 1843.57,-252.22"/>
</g>
<!-- Node36&#45;&gt;Node14 -->
<g id="edge51" class="edge">
<title>Node36&#45;&gt;Node14</title>
<path fill="none" stroke="midnightblue" d="M1943.64,-113.25C1942.09,-102.02 1940.34,-89.38 1939.2,-81.19"/>
<polygon fill="midnightblue" stroke="midnightblue" points="1940.21,-113.97 1945.05,-123.4 1947.14,-113.01 1940.21,-113.97"/>
</g>
<!-- Node37&#45;&gt;Node13 -->
<g id="edge53" class="edge">
<title>Node37&#45;&gt;Node13</title>
<path fill="none" stroke="midnightblue" d="M1829.34,-191.47C1806.01,-180.49 1772.69,-164.79 1748.78,-153.53"/>
<polygon fill="midnightblue" stroke="midnightblue" points="1828.14,-194.77 1838.67,-195.87 1831.12,-188.44 1828.14,-194.77"/>
</g>
<!-- Node38&#45;&gt;Node11 -->
<g id="edge56" class="edge">
<title>Node38&#45;&gt;Node11</title>
<path fill="none" stroke="midnightblue" d="M60.02,-697.63C34.25,-675.8 0,-638.99 0,-597.5 0,-597.5 0,-597.5 0,-333 0,-281.17 53.41,-240.82 86.79,-220.66"/>
<polygon fill="midnightblue" stroke="midnightblue" points="58.07,-700.56 68.03,-704.18 62.5,-695.14 58.07,-700.56"/>
</g>
</g>
</svg>
        <g id="navigator" transform="translate(0 0)" fill="#404254">
                <rect fill="#f2f5e9" fill-opacity="0.5" stroke="#606060" stroke-width=".5" x="0" y="0" width="60" height="60"/>
                <use id="zoomplus" xlink:href="#zoomPlus" x="17" y="9" onmousedown="handleZoom(evt,'in')"/>
                <use id="zoomminus" xlink:href="#zoomMin" x="42" y="9" onmousedown="handleZoom(evt,'out')"/>
                <use id="reset" xlink:href="#resetDef" x="30" y="36" onmousedown="handleReset()"/>
                <g id="arrowUp" xlink:href="#dirArrow" transform="translate(30 24)" onmousedown="handlePan(0,-1)">
                  <use xlink:href="#rim" fill="#404040">
                        <set attributeName="fill" to="#808080" begin="arrowUp.mouseover" end="arrowUp.mouseout"/>
                  </use>
                  <path fill="none" stroke="white" stroke-width="1.5" d="M0,-3.0v7 M-2.5,-0.5L0,-3.0L2.5,-0.5"/>
                </g>
                <g id="arrowRight" xlink:href="#dirArrow" transform="rotate(90) translate(36 -43)" onmousedown="handlePan(1,0)">
                  <use xlink:href="#rim" fill="#404040">
                        <set attributeName="fill" to="#808080" begin="arrowRight.mouseover" end="arrowRight.mouseout"/>
                  </use>
                  <path fill="none" stroke="white" stroke-width="1.5" d="M0,-3.0v7 M-2.5,-0.5L0,-3.0L2.5,-0.5"/>
                </g>
                <g id="arrowDown" xlink:href="#dirArrow" transform="rotate(180) translate(-30 -48)" onmousedown="handlePan(0,1)">
                  <use xlink:href="#rim" fill="#404040">
                        <set attributeName="fill" to="#808080" begin="arrowDown.mouseover" end="arrowDown.mouseout"/>
                  </use>
                  <path fill="none" stroke="white" stroke-width="1.5" d="M0,-3.0v7 M-2.5,-0.5L0,-3.0L2.5,-0.5"/>
                </g>
                <g id="arrowLeft" xlink:href="#dirArrow" transform="rotate(270) translate(-36 17)" onmousedown="handlePan(-1,0)">
                  <use xlink:href="#rim" fill="#404040">
                        <set attributeName="fill" to="#808080" begin="arrowLeft.mouseover" end="arrowLeft.mouseout"/>
                  </use>
                  <path fill="none" stroke="white" stroke-width="1.5" d="M0,-3.0v7 M-2.5,-0.5L0,-3.0L2.5,-0.5"/>
                </g>
        </g>
        <svg viewBox="0 0 15 15" width="100%" height="30px" preserveAspectRatio="xMaxYMin meet">
         <g id="arrow_out" transform="scale(0.3 0.3)">
          <a xlink:href="VertexConstraint_8h__dep__incl_org.svg" target="_base">
           <rect id="button" ry="5" rx="5" y="6" x="6" height="38" width="38"
                fill="#f2f5e9" fill-opacity="0.5" stroke="#606060" stroke-width="1.0"/>
           <path id="arrow"
             d="M 11.500037,31.436501 C 11.940474,20.09759 22.043105,11.32322 32.158766,21.979434 L 37.068811,17.246167 C 37.068811,17.246167 37.088388,32 37.088388,32 L 22.160133,31.978069 C 22.160133,31.978069 26.997745,27.140456 26.997745,27.140456 C 18.528582,18.264221 13.291696,25.230495 11.500037,31.436501 z"
             style="fill:#404040;"/>
          </a>
         </g>
        </svg>
</svg>
